G04 #@! TF.FileFunction,Soldermask,Top*
%FSLAX46Y46*%
G04 Gerber Fmt 4.6, Leading zero omitted, Abs format (unit mm)*
G04 Created by KiCad (PCBNEW (2015-01-16 BZR 5376)-product) date 12/06/2015 15:21:27*
%MOMM*%
G01*
G04 APERTURE LIST*
%ADD10C,0.100000*%
%ADD11R,2.000000X1.200000*%
%ADD12R,1.000000X8.000000*%
%ADD13C,4.000000*%
%ADD14C,0.300000*%
%ADD15C,3.000000*%
%ADD16R,1.250000X1.000000*%
%ADD17R,1.780000X3.500000*%
%ADD18C,1.500000*%
%ADD19R,2.032000X1.727200*%
%ADD20O,2.032000X1.727200*%
%ADD21R,3.657600X2.032000*%
%ADD22R,1.016000X2.032000*%
%ADD23C,4.800600*%
%ADD24R,4.800600X4.800600*%
%ADD25R,1.727200X1.727200*%
%ADD26O,1.727200X1.727200*%
%ADD27R,1.100000X3.600000*%
%ADD28C,2.000000*%
%ADD29R,2.000000X2.000000*%
%ADD30R,1.574800X2.286000*%
%ADD31O,1.574800X2.286000*%
G04 APERTURE END LIST*
D10*
D11*
X124563000Y-152639000D03*
X124563000Y-151139000D03*
X124563000Y-149639000D03*
X124563000Y-148139000D03*
X124563000Y-146639000D03*
X124563000Y-145139000D03*
X124563000Y-143639000D03*
X124563000Y-142139000D03*
X111063000Y-142139000D03*
X111063000Y-143639000D03*
X111063000Y-145139000D03*
X111063000Y-146639000D03*
X111063000Y-148139000D03*
X111063000Y-149639000D03*
X111063000Y-151139000D03*
X111063000Y-152639000D03*
X217063000Y-152639000D03*
X217063000Y-151139000D03*
X217063000Y-149639000D03*
X217063000Y-148139000D03*
X217063000Y-146639000D03*
X217063000Y-145139000D03*
X217063000Y-143639000D03*
X217063000Y-142139000D03*
X203563000Y-142139000D03*
X203563000Y-143639000D03*
X203563000Y-145139000D03*
X203563000Y-146639000D03*
X203563000Y-148139000D03*
X203563000Y-149639000D03*
X203563000Y-151139000D03*
X203563000Y-152639000D03*
D12*
X164208000Y-152569000D03*
X166113000Y-152569000D03*
X168018000Y-152569000D03*
D11*
X217063000Y-90139000D03*
X217063000Y-88639000D03*
X217063000Y-87139000D03*
X217063000Y-85639000D03*
X217063000Y-84139000D03*
X217063000Y-82639000D03*
X217063000Y-81139000D03*
X217063000Y-79639000D03*
X203563000Y-79639000D03*
X203563000Y-81139000D03*
X203563000Y-82639000D03*
X203563000Y-84139000D03*
X203563000Y-85639000D03*
X203563000Y-87139000D03*
X203563000Y-88639000D03*
X203563000Y-90139000D03*
D12*
X164208000Y-90069000D03*
X166113000Y-90069000D03*
X168018000Y-90069000D03*
X71708000Y-152569000D03*
X73613000Y-152569000D03*
X75518000Y-152569000D03*
X71708000Y-90069000D03*
X73613000Y-90069000D03*
X75518000Y-90069000D03*
D11*
X124563000Y-90139000D03*
X124563000Y-88639000D03*
X124563000Y-87139000D03*
X124563000Y-85639000D03*
X124563000Y-84139000D03*
X124563000Y-82639000D03*
X124563000Y-81139000D03*
X124563000Y-79639000D03*
X111063000Y-79639000D03*
X111063000Y-81139000D03*
X111063000Y-82639000D03*
X111063000Y-84139000D03*
X111063000Y-85639000D03*
X111063000Y-87139000D03*
X111063000Y-88639000D03*
X111063000Y-90139000D03*
D13*
X47500000Y-157500000D03*
X230000000Y-35000000D03*
X211000000Y-159000000D03*
X47500000Y-35000000D03*
D14*
X77677000Y-99102000D03*
X77296000Y-99102000D03*
X76915000Y-99102000D03*
X76534000Y-99102000D03*
D15*
X118825000Y-137710000D03*
X64215000Y-152315000D03*
D16*
X83900000Y-104420000D03*
X83900000Y-102420000D03*
X75645000Y-131090000D03*
X75645000Y-129090000D03*
X64215000Y-129090000D03*
X64215000Y-131090000D03*
D13*
X123905000Y-137710000D03*
X57865000Y-139615000D03*
X132160000Y-102785000D03*
X53420000Y-103420000D03*
D17*
X92039000Y-101261000D03*
X87699000Y-101261000D03*
X112867000Y-101261000D03*
X108527000Y-101261000D03*
X102707000Y-101261000D03*
X98367000Y-101261000D03*
X123027000Y-101261000D03*
X118687000Y-101261000D03*
D18*
X129190000Y-153020000D03*
X129190000Y-151020000D03*
X129190000Y-149020000D03*
X129190000Y-147020000D03*
X129190000Y-145020000D03*
X129190000Y-143020000D03*
X129190000Y-141020000D03*
X129190000Y-139020000D03*
X129190000Y-137020000D03*
X129190000Y-135020000D03*
X107190000Y-135020000D03*
X107190000Y-137020000D03*
X107190000Y-139020000D03*
X107190000Y-141020000D03*
X107190000Y-143020000D03*
X107190000Y-145020000D03*
X107190000Y-147020000D03*
X107190000Y-149020000D03*
X107190000Y-151020000D03*
X107190000Y-153020000D03*
D19*
X95203000Y-101769000D03*
D20*
X95203000Y-104309000D03*
X95203000Y-106849000D03*
D19*
X125937000Y-101769000D03*
D20*
X125937000Y-104309000D03*
X125937000Y-106849000D03*
D19*
X115777000Y-101769000D03*
D20*
X115777000Y-104309000D03*
X115777000Y-106849000D03*
D19*
X105617000Y-101769000D03*
D20*
X105617000Y-104309000D03*
X105617000Y-106849000D03*
D21*
X69930000Y-129201000D03*
D22*
X69930000Y-122597000D03*
X67644000Y-122597000D03*
X72216000Y-122597000D03*
D23*
X54563000Y-151299000D03*
D24*
X54563000Y-145203000D03*
D23*
X59643000Y-149013000D03*
D25*
X87583000Y-152569000D03*
D26*
X87583000Y-150029000D03*
X90123000Y-152569000D03*
X90123000Y-150029000D03*
X92663000Y-152569000D03*
X92663000Y-150029000D03*
X95203000Y-152569000D03*
X95203000Y-150029000D03*
X97743000Y-152569000D03*
X97743000Y-150029000D03*
D27*
X54690000Y-133975000D03*
X54690000Y-127475000D03*
D15*
X59135000Y-103420000D03*
D28*
X62183000Y-141139000D03*
X64723000Y-141349000D03*
X67263000Y-141139000D03*
X69823000Y-141349000D03*
X72343000Y-141139000D03*
X74923000Y-141349000D03*
X77423000Y-141139000D03*
D29*
X79973000Y-141299000D03*
D14*
X76153000Y-99102000D03*
X128350000Y-155236000D03*
X128731000Y-155236000D03*
X129112000Y-155236000D03*
X129493000Y-155236000D03*
X129874000Y-155236000D03*
X54944000Y-155236000D03*
X55325000Y-155236000D03*
X55706000Y-155236000D03*
X56087000Y-155236000D03*
X56468000Y-155236000D03*
D30*
X134573000Y-111929000D03*
D31*
X132033000Y-111929000D03*
X129493000Y-111929000D03*
X126953000Y-111929000D03*
X124413000Y-111929000D03*
X121873000Y-111929000D03*
X119333000Y-111929000D03*
X116793000Y-111929000D03*
X114253000Y-111929000D03*
X111713000Y-111929000D03*
X109173000Y-111929000D03*
X106633000Y-111929000D03*
X106633000Y-127169000D03*
X109173000Y-127169000D03*
X111713000Y-127169000D03*
X114253000Y-127169000D03*
X116793000Y-127169000D03*
X119333000Y-127169000D03*
X121873000Y-127169000D03*
X124413000Y-127169000D03*
X126953000Y-127169000D03*
X129493000Y-127169000D03*
X132033000Y-127169000D03*
X134573000Y-127169000D03*
D30*
X227073000Y-111929000D03*
D31*
X224533000Y-111929000D03*
X221993000Y-111929000D03*
X219453000Y-111929000D03*
X216913000Y-111929000D03*
X214373000Y-111929000D03*
X211833000Y-111929000D03*
X209293000Y-111929000D03*
X206753000Y-111929000D03*
X204213000Y-111929000D03*
X201673000Y-111929000D03*
X199133000Y-111929000D03*
X199133000Y-127169000D03*
X201673000Y-127169000D03*
X204213000Y-127169000D03*
X206753000Y-127169000D03*
X209293000Y-127169000D03*
X211833000Y-127169000D03*
X214373000Y-127169000D03*
X216913000Y-127169000D03*
X219453000Y-127169000D03*
X221993000Y-127169000D03*
X224533000Y-127169000D03*
X227073000Y-127169000D03*
D14*
X148968000Y-155236000D03*
X148587000Y-155236000D03*
X148206000Y-155236000D03*
X147825000Y-155236000D03*
X147444000Y-155236000D03*
X222374000Y-155236000D03*
X221993000Y-155236000D03*
X221612000Y-155236000D03*
X221231000Y-155236000D03*
X220850000Y-155236000D03*
X168653000Y-99102000D03*
D28*
X154683000Y-141139000D03*
X157223000Y-141349000D03*
X159763000Y-141139000D03*
X162323000Y-141349000D03*
X164843000Y-141139000D03*
X167423000Y-141349000D03*
X169923000Y-141139000D03*
D29*
X172473000Y-141299000D03*
D15*
X151635000Y-103420000D03*
D27*
X147190000Y-133975000D03*
X147190000Y-127475000D03*
D25*
X180083000Y-152569000D03*
D26*
X180083000Y-150029000D03*
X182623000Y-152569000D03*
X182623000Y-150029000D03*
X185163000Y-152569000D03*
X185163000Y-150029000D03*
X187703000Y-152569000D03*
X187703000Y-150029000D03*
X190243000Y-152569000D03*
X190243000Y-150029000D03*
D23*
X147063000Y-151299000D03*
D24*
X147063000Y-145203000D03*
D23*
X152143000Y-149013000D03*
D21*
X162430000Y-129201000D03*
D22*
X162430000Y-122597000D03*
X160144000Y-122597000D03*
X164716000Y-122597000D03*
D19*
X198117000Y-101769000D03*
D20*
X198117000Y-104309000D03*
X198117000Y-106849000D03*
D19*
X208277000Y-101769000D03*
D20*
X208277000Y-104309000D03*
X208277000Y-106849000D03*
D19*
X218437000Y-101769000D03*
D20*
X218437000Y-104309000D03*
X218437000Y-106849000D03*
D19*
X187703000Y-101769000D03*
D20*
X187703000Y-104309000D03*
X187703000Y-106849000D03*
D18*
X221690000Y-153020000D03*
X221690000Y-151020000D03*
X221690000Y-149020000D03*
X221690000Y-147020000D03*
X221690000Y-145020000D03*
X221690000Y-143020000D03*
X221690000Y-141020000D03*
X221690000Y-139020000D03*
X221690000Y-137020000D03*
X221690000Y-135020000D03*
X199690000Y-135020000D03*
X199690000Y-137020000D03*
X199690000Y-139020000D03*
X199690000Y-141020000D03*
X199690000Y-143020000D03*
X199690000Y-145020000D03*
X199690000Y-147020000D03*
X199690000Y-149020000D03*
X199690000Y-151020000D03*
X199690000Y-153020000D03*
D17*
X215527000Y-101261000D03*
X211187000Y-101261000D03*
X195207000Y-101261000D03*
X190867000Y-101261000D03*
X205367000Y-101261000D03*
X201027000Y-101261000D03*
X184539000Y-101261000D03*
X180199000Y-101261000D03*
D13*
X145920000Y-103420000D03*
X224660000Y-102785000D03*
X150365000Y-139615000D03*
X216405000Y-137710000D03*
D16*
X156715000Y-129090000D03*
X156715000Y-131090000D03*
X168145000Y-131090000D03*
X168145000Y-129090000D03*
X176400000Y-104420000D03*
X176400000Y-102420000D03*
D15*
X156715000Y-152315000D03*
X211325000Y-137710000D03*
D14*
X169034000Y-99102000D03*
X169415000Y-99102000D03*
X169796000Y-99102000D03*
X170177000Y-99102000D03*
X170177000Y-36602000D03*
X169796000Y-36602000D03*
X169415000Y-36602000D03*
X169034000Y-36602000D03*
D15*
X211325000Y-75210000D03*
X156715000Y-89815000D03*
D16*
X176400000Y-41920000D03*
X176400000Y-39920000D03*
X168145000Y-68590000D03*
X168145000Y-66590000D03*
X156715000Y-66590000D03*
X156715000Y-68590000D03*
D13*
X216405000Y-75210000D03*
X150365000Y-77115000D03*
X224660000Y-40285000D03*
X145920000Y-40920000D03*
D17*
X184539000Y-38761000D03*
X180199000Y-38761000D03*
X205367000Y-38761000D03*
X201027000Y-38761000D03*
X195207000Y-38761000D03*
X190867000Y-38761000D03*
X215527000Y-38761000D03*
X211187000Y-38761000D03*
D18*
X221690000Y-90520000D03*
X221690000Y-88520000D03*
X221690000Y-86520000D03*
X221690000Y-84520000D03*
X221690000Y-82520000D03*
X221690000Y-80520000D03*
X221690000Y-78520000D03*
X221690000Y-76520000D03*
X221690000Y-74520000D03*
X221690000Y-72520000D03*
X199690000Y-72520000D03*
X199690000Y-74520000D03*
X199690000Y-76520000D03*
X199690000Y-78520000D03*
X199690000Y-80520000D03*
X199690000Y-82520000D03*
X199690000Y-84520000D03*
X199690000Y-86520000D03*
X199690000Y-88520000D03*
X199690000Y-90520000D03*
D19*
X187703000Y-39269000D03*
D20*
X187703000Y-41809000D03*
X187703000Y-44349000D03*
D19*
X218437000Y-39269000D03*
D20*
X218437000Y-41809000D03*
X218437000Y-44349000D03*
D19*
X208277000Y-39269000D03*
D20*
X208277000Y-41809000D03*
X208277000Y-44349000D03*
D19*
X198117000Y-39269000D03*
D20*
X198117000Y-41809000D03*
X198117000Y-44349000D03*
D21*
X162430000Y-66701000D03*
D22*
X162430000Y-60097000D03*
X160144000Y-60097000D03*
X164716000Y-60097000D03*
D23*
X147063000Y-88799000D03*
D24*
X147063000Y-82703000D03*
D23*
X152143000Y-86513000D03*
D25*
X180083000Y-90069000D03*
D26*
X180083000Y-87529000D03*
X182623000Y-90069000D03*
X182623000Y-87529000D03*
X185163000Y-90069000D03*
X185163000Y-87529000D03*
X187703000Y-90069000D03*
X187703000Y-87529000D03*
X190243000Y-90069000D03*
X190243000Y-87529000D03*
D27*
X147190000Y-71475000D03*
X147190000Y-64975000D03*
D15*
X151635000Y-40920000D03*
D28*
X154683000Y-78639000D03*
X157223000Y-78849000D03*
X159763000Y-78639000D03*
X162323000Y-78849000D03*
X164843000Y-78639000D03*
X167423000Y-78849000D03*
X169923000Y-78639000D03*
D29*
X172473000Y-78799000D03*
D14*
X168653000Y-36602000D03*
X220850000Y-92736000D03*
X221231000Y-92736000D03*
X221612000Y-92736000D03*
X221993000Y-92736000D03*
X222374000Y-92736000D03*
X147444000Y-92736000D03*
X147825000Y-92736000D03*
X148206000Y-92736000D03*
X148587000Y-92736000D03*
X148968000Y-92736000D03*
D30*
X227073000Y-49429000D03*
D31*
X224533000Y-49429000D03*
X221993000Y-49429000D03*
X219453000Y-49429000D03*
X216913000Y-49429000D03*
X214373000Y-49429000D03*
X211833000Y-49429000D03*
X209293000Y-49429000D03*
X206753000Y-49429000D03*
X204213000Y-49429000D03*
X201673000Y-49429000D03*
X199133000Y-49429000D03*
X199133000Y-64669000D03*
X201673000Y-64669000D03*
X204213000Y-64669000D03*
X206753000Y-64669000D03*
X209293000Y-64669000D03*
X211833000Y-64669000D03*
X214373000Y-64669000D03*
X216913000Y-64669000D03*
X219453000Y-64669000D03*
X221993000Y-64669000D03*
X224533000Y-64669000D03*
X227073000Y-64669000D03*
D30*
X134573000Y-49429000D03*
D31*
X132033000Y-49429000D03*
X129493000Y-49429000D03*
X126953000Y-49429000D03*
X124413000Y-49429000D03*
X121873000Y-49429000D03*
X119333000Y-49429000D03*
X116793000Y-49429000D03*
X114253000Y-49429000D03*
X111713000Y-49429000D03*
X109173000Y-49429000D03*
X106633000Y-49429000D03*
X106633000Y-64669000D03*
X109173000Y-64669000D03*
X111713000Y-64669000D03*
X114253000Y-64669000D03*
X116793000Y-64669000D03*
X119333000Y-64669000D03*
X121873000Y-64669000D03*
X124413000Y-64669000D03*
X126953000Y-64669000D03*
X129493000Y-64669000D03*
X132033000Y-64669000D03*
X134573000Y-64669000D03*
D14*
X56468000Y-92736000D03*
X56087000Y-92736000D03*
X55706000Y-92736000D03*
X55325000Y-92736000D03*
X54944000Y-92736000D03*
X129874000Y-92736000D03*
X129493000Y-92736000D03*
X129112000Y-92736000D03*
X128731000Y-92736000D03*
X128350000Y-92736000D03*
X76153000Y-36602000D03*
D28*
X62183000Y-78639000D03*
X64723000Y-78849000D03*
X67263000Y-78639000D03*
X69823000Y-78849000D03*
X72343000Y-78639000D03*
X74923000Y-78849000D03*
X77423000Y-78639000D03*
D29*
X79973000Y-78799000D03*
D15*
X59135000Y-40920000D03*
D27*
X54690000Y-71475000D03*
X54690000Y-64975000D03*
D25*
X87583000Y-90069000D03*
D26*
X87583000Y-87529000D03*
X90123000Y-90069000D03*
X90123000Y-87529000D03*
X92663000Y-90069000D03*
X92663000Y-87529000D03*
X95203000Y-90069000D03*
X95203000Y-87529000D03*
X97743000Y-90069000D03*
X97743000Y-87529000D03*
D23*
X54563000Y-88799000D03*
D24*
X54563000Y-82703000D03*
D23*
X59643000Y-86513000D03*
D21*
X69930000Y-66701000D03*
D22*
X69930000Y-60097000D03*
X67644000Y-60097000D03*
X72216000Y-60097000D03*
D19*
X105617000Y-39269000D03*
D20*
X105617000Y-41809000D03*
X105617000Y-44349000D03*
D19*
X115777000Y-39269000D03*
D20*
X115777000Y-41809000D03*
X115777000Y-44349000D03*
D19*
X125937000Y-39269000D03*
D20*
X125937000Y-41809000D03*
X125937000Y-44349000D03*
D19*
X95203000Y-39269000D03*
D20*
X95203000Y-41809000D03*
X95203000Y-44349000D03*
D18*
X129190000Y-90520000D03*
X129190000Y-88520000D03*
X129190000Y-86520000D03*
X129190000Y-84520000D03*
X129190000Y-82520000D03*
X129190000Y-80520000D03*
X129190000Y-78520000D03*
X129190000Y-76520000D03*
X129190000Y-74520000D03*
X129190000Y-72520000D03*
X107190000Y-72520000D03*
X107190000Y-74520000D03*
X107190000Y-76520000D03*
X107190000Y-78520000D03*
X107190000Y-80520000D03*
X107190000Y-82520000D03*
X107190000Y-84520000D03*
X107190000Y-86520000D03*
X107190000Y-88520000D03*
X107190000Y-90520000D03*
D17*
X123027000Y-38761000D03*
X118687000Y-38761000D03*
X102707000Y-38761000D03*
X98367000Y-38761000D03*
X112867000Y-38761000D03*
X108527000Y-38761000D03*
X92039000Y-38761000D03*
X87699000Y-38761000D03*
D13*
X53420000Y-40920000D03*
X132160000Y-40285000D03*
X57865000Y-77115000D03*
X123905000Y-75210000D03*
D16*
X64215000Y-66590000D03*
X64215000Y-68590000D03*
X75645000Y-68590000D03*
X75645000Y-66590000D03*
X83900000Y-41920000D03*
X83900000Y-39920000D03*
D15*
X64215000Y-89815000D03*
X118825000Y-75210000D03*
D14*
X76534000Y-36602000D03*
X76915000Y-36602000D03*
X77296000Y-36602000D03*
X77677000Y-36602000D03*
M02*
