  0
SECTION
  2
HEADER
  9
$ANGBASE
  50
0.0
  9
$ANGDIR
  70
  1
  9
$MEASUREMENT
  70
0
  0
ENDSEC
  0
SECTION
  2
TABLES
  0
TABLE
  2
LTYPE
  70
1
  0
LTYPE
  2
CONTINUOUS
  70
0
  3
Solid line
  72
65
  73
0
  40
0.0
  0
ENDTAB
  0
TABLE
  2
STYLE
  70
4
  0
STYLE
  2
KICAD
  70
0
  40
0
  41
1
  42
1
  50
0
  71
0
  3
isocp.shx
  0
STYLE
  2
KICADB
  70
0
  40
0
  41
1
  42
1
  50
0
  71
0
  3
isocp.shx
  0
STYLE
  2
KICADI
  70
0
  40
0
  41
1
  42
1
  50
15
  71
0
  3
isocp.shx
  0
STYLE
  2
KICADBI
  70
0
  40
0
  41
1
  42
1
  50
15
  71
0
  3
isocp.shx
  0
ENDTAB
  0
TABLE
  2
LAYER
  70
30
  0
LAYER
  2
BLACK
  70
0
  62
7
  6
CONTINUOUS
  0
LAYER
  2
GRAY1
  70
0
  62
251
  6
CONTINUOUS
  0
LAYER
  2
GRAY2
  70
0
  62
8
  6
CONTINUOUS
  0
LAYER
  2
GRAY3
  70
0
  62
9
  6
CONTINUOUS
  0
LAYER
  2
WHITE
  70
0
  62
7
  6
CONTINUOUS
  0
LAYER
  2
LYELLOW
  70
0
  62
51
  6
CONTINUOUS
  0
LAYER
  2
BLUE1
  70
0
  62
178
  6
CONTINUOUS
  0
LAYER
  2
GREEN1
  70
0
  62
98
  6
CONTINUOUS
  0
LAYER
  2
CYAN1
  70
0
  62
138
  6
CONTINUOUS
  0
LAYER
  2
RED1
  70
0
  62
18
  6
CONTINUOUS
  0
LAYER
  2
MAGENTA1
  70
0
  62
228
  6
CONTINUOUS
  0
LAYER
  2
BROWN1
  70
0
  62
58
  6
CONTINUOUS
  0
LAYER
  2
BLUE2
  70
0
  62
5
  6
CONTINUOUS
  0
LAYER
  2
GREEN2
  70
0
  62
3
  6
CONTINUOUS
  0
LAYER
  2
CYAN2
  70
0
  62
4
  6
CONTINUOUS
  0
LAYER
  2
RED2
  70
0
  62
1
  6
CONTINUOUS
  0
LAYER
  2
MAGENTA2
  70
0
  62
6
  6
CONTINUOUS
  0
LAYER
  2
BROWN2
  70
0
  62
54
  6
CONTINUOUS
  0
LAYER
  2
BLUE3
  70
0
  62
171
  6
CONTINUOUS
  0
LAYER
  2
GREEN3
  70
0
  62
91
  6
CONTINUOUS
  0
LAYER
  2
CYAN3
  70
0
  62
131
  6
CONTINUOUS
  0
LAYER
  2
RED3
  70
0
  62
11
  6
CONTINUOUS
  0
LAYER
  2
MAGENTA3
  70
0
  62
221
  6
CONTINUOUS
  0
LAYER
  2
YELLOW3
  70
0
  62
2
  6
CONTINUOUS
  0
LAYER
  2
BLUE4
  70
0
  62
5
  6
CONTINUOUS
  0
LAYER
  2
GREEN4
  70
0
  62
3
  6
CONTINUOUS
  0
LAYER
  2
CYAN4
  70
0
  62
4
  6
CONTINUOUS
  0
LAYER
  2
RED4
  70
0
  62
1
  6
CONTINUOUS
  0
LAYER
  2
MAGENTA4
  70
0
  62
6
  6
CONTINUOUS
  0
LAYER
  2
YELLOW4
  70
0
  62
2
  6
CONTINUOUS
  0
ENDTAB
  0
ENDSEC
  0
SECTION
  2
ENTITIES
0
LINE
8
Black
10
170.171
20
-128.53
11
170.321
21
-128.617
0
LINE
8
Black
10
170.321
20
-128.617
11
170.433
21
-128.75
0
LINE
8
Black
10
170.433
20
-128.75
11
170.492
21
-128.913
0
LINE
8
Black
10
170.492
20
-128.913
11
170.492
21
-129.087
0
LINE
8
Black
10
170.492
20
-129.087
11
170.433
21
-129.25
0
LINE
8
Black
10
170.433
20
-129.25
11
170.321
21
-129.383
0
LINE
8
Black
10
170.321
20
-129.383
11
170.171
21
-129.47
0
LINE
8
Black
10
170.171
20
-129.47
11
170
21
-129.5
0
LINE
8
Black
10
170
20
-129.5
11
99
21
-129.5
0
LINE
8
Black
10
99
20
-129.5
11
98.829
21
-129.47
0
LINE
8
Black
10
98.829
20
-129.47
11
98.6786
21
-129.383
0
LINE
8
Black
10
98.6786
20
-129.383
11
98.567
21
-129.25
0
LINE
8
Black
10
98.567
20
-129.25
11
98.5076
21
-129.087
0
LINE
8
Black
10
98.5076
20
-129.087
11
98.5076
21
-128.913
0
LINE
8
Black
10
98.5076
20
-128.913
11
98.567
21
-128.75
0
LINE
8
Black
10
98.567
20
-128.75
11
98.6786
21
-128.617
0
LINE
8
Black
10
98.6786
20
-128.617
11
98.829
21
-128.53
0
LINE
8
Black
10
98.829
20
-128.53
11
99
21
-128.5
0
LINE
8
Black
10
99
20
-128.5
11
170
21
-128.5
0
LINE
8
Black
10
170
20
-128.5
11
170.171
21
-128.53
0
LINE
8
Black
10
118.171
20
-71.5302
11
118.321
21
-71.617
0
LINE
8
Black
10
118.321
20
-71.617
11
118.433
21
-71.75
0
LINE
8
Black
10
118.433
20
-71.75
11
118.492
21
-71.9132
0
LINE
8
Black
10
118.492
20
-71.9132
11
118.492
21
-72.0868
0
LINE
8
Black
10
118.492
20
-72.0868
11
118.433
21
-72.25
0
LINE
8
Black
10
118.433
20
-72.25
11
118.321
21
-72.383
0
LINE
8
Black
10
118.321
20
-72.383
11
118.171
21
-72.4698
0
LINE
8
Black
10
118.171
20
-72.4698
11
118
21
-72.5
0
LINE
8
Black
10
118
20
-72.5
11
96.5218
21
-72.5
0
LINE
8
Black
10
96.5218
20
-72.5
11
96.0882
21
-72.5379
0
LINE
8
Black
10
96.0882
20
-72.5379
11
95.2539
21
-72.8416
0
LINE
8
Black
10
95.2539
20
-72.8416
11
94.5908
21
-73.398
0
LINE
8
Black
10
94.5908
20
-73.398
11
94.158
21
-74.1476
0
LINE
8
Black
10
94.158
20
-74.1476
11
94
21
-75.0437
0
LINE
8
Black
10
94
20
-75.0437
11
94
21
-125.978
0
LINE
8
Black
10
94
20
-125.978
11
94.0379
21
-126.412
0
LINE
8
Black
10
94.0379
20
-126.412
11
94.3416
21
-127.246
0
LINE
8
Black
10
94.3416
20
-127.246
11
94.898
21
-127.909
0
LINE
8
Black
10
94.898
20
-127.909
11
95.6476
21
-128.342
0
LINE
8
Black
10
95.6476
20
-128.342
11
96.5868
21
-128.508
0
LINE
8
Black
10
96.5868
20
-128.508
11
96.6075
21
-128.515
0
LINE
8
Black
10
96.6075
20
-128.515
11
96.6294
21
-128.517
0
LINE
8
Black
10
96.6294
20
-128.517
11
96.6886
21
-128.545
0
LINE
8
Black
10
96.6886
20
-128.545
11
96.75
21
-128.567
0
LINE
8
Black
10
96.75
20
-128.567
11
96.7669
21
-128.581
0
LINE
8
Black
10
96.7669
20
-128.581
11
96.7868
21
-128.59
0
LINE
8
Black
10
96.7868
20
-128.59
11
96.833
21
-128.637
0
LINE
8
Black
10
96.833
20
-128.637
11
96.883
21
-128.679
0
LINE
8
Black
10
96.883
20
-128.679
11
96.894
21
-128.698
0
LINE
8
Black
10
96.894
20
-128.698
11
96.9096
21
-128.713
0
LINE
8
Black
10
96.9096
20
-128.713
11
96.9372
21
-128.772
0
LINE
8
Black
10
96.9372
20
-128.772
11
96.9698
21
-128.829
0
LINE
8
Black
10
96.9698
20
-128.829
11
96.9737
21
-128.851
0
LINE
8
Black
10
96.9737
20
-128.851
11
96.983
21
-128.871
0
LINE
8
Black
10
96.983
20
-128.871
11
96.9887
21
-128.936
0
LINE
8
Black
10
96.9887
20
-128.936
11
97
21
-129
0
LINE
8
Black
10
97
20
-129
11
96.9962
21
-129.022
0
LINE
8
Black
10
96.9962
20
-129.022
11
96.9981
21
-129.044
0
LINE
8
Black
10
96.9981
20
-129.044
11
96.9812
21
-129.107
0
LINE
8
Black
10
96.9812
20
-129.107
11
96.9698
21
-129.171
0
LINE
8
Black
10
96.9698
20
-129.171
11
96.9588
21
-129.19
0
LINE
8
Black
10
96.9588
20
-129.19
11
96.9532
21
-129.211
0
LINE
8
Black
10
96.9532
20
-129.211
11
96.9157
21
-129.265
0
LINE
8
Black
10
96.9157
20
-129.265
11
96.883
21
-129.321
0
LINE
8
Black
10
96.883
20
-129.321
11
96.8662
21
-129.336
0
LINE
8
Black
10
96.8662
20
-129.336
11
96.8536
21
-129.354
0
LINE
8
Black
10
96.8536
20
-129.354
11
96.8001
21
-129.391
0
LINE
8
Black
10
96.8001
20
-129.391
11
96.75
21
-129.433
0
LINE
8
Black
10
96.75
20
-129.433
11
96.7293
21
-129.441
0
LINE
8
Black
10
96.7293
20
-129.441
11
96.7113
21
-129.453
0
LINE
8
Black
10
96.7113
20
-129.453
11
96.6482
21
-129.47
0
LINE
8
Black
10
96.6482
20
-129.47
11
96.5868
21
-129.492
0
LINE
8
Black
10
96.5868
20
-129.492
11
96.5648
21
-129.492
0
LINE
8
Black
10
96.5648
20
-129.492
11
96.5436
21
-129.498
0
LINE
8
Black
10
96.5436
20
-129.498
11
96.0882
21
-129.538
0
LINE
8
Black
10
96.0882
20
-129.538
11
95.2539
21
-129.842
0
LINE
8
Black
10
95.2539
20
-129.842
11
94.5908
21
-130.398
0
LINE
8
Black
10
94.5908
20
-130.398
11
94.158
21
-131.148
0
LINE
8
Black
10
94.158
20
-131.148
11
94
21
-132.044
0
LINE
8
Black
10
94
20
-132.044
11
94
21
-154.978
0
LINE
8
Black
10
94
20
-154.978
11
94.0379
21
-155.412
0
LINE
8
Black
10
94.0379
20
-155.412
11
94.3416
21
-156.246
0
LINE
8
Black
10
94.3416
20
-156.246
11
94.898
21
-156.909
0
LINE
8
Black
10
94.898
20
-156.909
11
95.6476
21
-157.342
0
LINE
8
Black
10
95.6476
20
-157.342
11
96.5437
21
-157.5
0
LINE
8
Black
10
96.5437
20
-157.5
11
175.978
21
-157.5
0
LINE
8
Black
10
175.978
20
-157.5
11
176.412
21
-157.462
0
LINE
8
Black
10
176.412
20
-157.462
11
177.246
21
-157.158
0
LINE
8
Black
10
177.246
20
-157.158
11
177.909
21
-156.602
0
LINE
8
Black
10
177.909
20
-156.602
11
178.342
21
-155.852
0
LINE
8
Black
10
178.342
20
-155.852
11
178.5
21
-154.956
0
LINE
8
Black
10
178.5
20
-154.956
11
178.5
21
-132.022
0
LINE
8
Black
10
178.5
20
-132.022
11
178.462
21
-131.588
0
LINE
8
Black
10
178.462
20
-131.588
11
178.158
21
-130.754
0
LINE
8
Black
10
178.158
20
-130.754
11
177.602
21
-130.091
0
LINE
8
Black
10
177.602
20
-130.091
11
176.852
21
-129.658
0
LINE
8
Black
10
176.852
20
-129.658
11
176.357
21
-129.571
0
LINE
8
Black
10
176.357
20
-129.571
11
176.044
21
-129.598
0
LINE
8
Black
10
176.044
20
-129.598
11
175.871
21
-129.583
0
LINE
8
Black
10
175.871
20
-129.583
11
175.713
21
-129.51
0
LINE
8
Black
10
175.713
20
-129.51
11
175.704
21
-129.5
0
LINE
8
Black
10
175.704
20
-129.5
11
173
21
-129.5
0
LINE
8
Black
10
173
20
-129.5
11
172.829
21
-129.47
0
LINE
8
Black
10
172.829
20
-129.47
11
172.679
21
-129.383
0
LINE
8
Black
10
172.679
20
-129.383
11
172.567
21
-129.25
0
LINE
8
Black
10
172.567
20
-129.25
11
172.508
21
-129.087
0
LINE
8
Black
10
172.508
20
-129.087
11
172.508
21
-128.913
0
LINE
8
Black
10
172.508
20
-128.913
11
172.567
21
-128.75
0
LINE
8
Black
10
172.567
20
-128.75
11
172.679
21
-128.617
0
LINE
8
Black
10
172.679
20
-128.617
11
172.829
21
-128.53
0
LINE
8
Black
10
172.829
20
-128.53
11
173
21
-128.5
0
LINE
8
Black
10
173
20
-128.5
11
176
21
-128.5
0
LINE
8
Black
10
176
20
-128.5
11
176.043
21
-128.508
0
LINE
8
Black
10
176.043
20
-128.508
11
176.087
21
-128.508
0
LINE
8
Black
10
176.087
20
-128.508
11
176.401
21
-128.563
0
LINE
8
Black
10
176.401
20
-128.563
11
176.412
21
-128.562
0
LINE
8
Black
10
176.412
20
-128.562
11
177.246
21
-128.258
0
LINE
8
Black
10
177.246
20
-128.258
11
177.909
21
-127.702
0
LINE
8
Black
10
177.909
20
-127.702
11
178.342
21
-126.952
0
LINE
8
Black
10
178.342
20
-126.952
11
178.505
21
-126.028
0
LINE
8
Black
10
178.505
20
-126.028
11
178.5
21
-126
0
LINE
8
Black
10
178.5
20
-126
11
178.5
21
-75.0218
0
LINE
8
Black
10
178.5
20
-75.0218
11
178.462
21
-74.5882
0
LINE
8
Black
10
178.462
20
-74.5882
11
178.158
21
-73.7539
0
LINE
8
Black
10
178.158
20
-73.7539
11
177.602
21
-73.0908
0
LINE
8
Black
10
177.602
20
-73.0908
11
176.852
21
-72.658
0
LINE
8
Black
10
176.852
20
-72.658
11
175.956
21
-72.5
0
LINE
8
Black
10
175.956
20
-72.5
11
121
21
-72.5
0
LINE
8
Black
10
121
20
-72.5
11
120.829
21
-72.4698
0
LINE
8
Black
10
120.829
20
-72.4698
11
120.679
21
-72.383
0
LINE
8
Black
10
120.679
20
-72.383
11
120.567
21
-72.25
0
LINE
8
Black
10
120.567
20
-72.25
11
120.508
21
-72.0868
0
LINE
8
Black
10
120.508
20
-72.0868
11
120.508
21
-71.9132
0
LINE
8
Black
10
120.508
20
-71.9132
11
120.567
21
-71.75
0
LINE
8
Black
10
120.567
20
-71.75
11
120.679
21
-71.617
0
LINE
8
Black
10
120.679
20
-71.617
11
120.829
21
-71.5302
0
LINE
8
Black
10
120.829
20
-71.5302
11
121
21
-71.5
0
LINE
8
Black
10
121
20
-71.5
11
176
21
-71.5
0
LINE
8
Black
10
176
20
-71.5
11
176.043
21
-71.5076
0
LINE
8
Black
10
176.043
20
-71.5076
11
176.087
21
-71.5076
0
LINE
8
Black
10
176.087
20
-71.5076
11
177.113
21
-71.6885
0
LINE
8
Black
10
177.113
20
-71.6885
11
177.276
21
-71.7479
0
LINE
8
Black
10
177.276
20
-71.7479
11
178.178
21
-72.2689
0
LINE
8
Black
10
178.178
20
-72.2689
11
178.245
21
-72.3247
0
LINE
8
Black
10
178.245
20
-72.3247
11
178.311
21
-72.3805
0
LINE
8
Black
10
178.311
20
-72.3805
11
178.311
21
-72.3805
0
LINE
8
Black
10
178.311
20
-72.3805
11
178.981
21
-73.1786
0
LINE
8
Black
10
178.981
20
-73.1786
11
178.981
21
-73.1786
0
LINE
8
Black
10
178.981
20
-73.1786
11
179.068
21
-73.329
0
LINE
8
Black
10
179.068
20
-73.329
11
179.424
21
-74.308
0
LINE
8
Black
10
179.424
20
-74.308
11
179.436
21
-74.3724
0
LINE
8
Black
10
179.436
20
-74.3724
11
179.453
21
-74.4355
0
LINE
8
Black
10
179.453
20
-74.4355
11
179.498
21
-74.9564
0
LINE
8
Black
10
179.498
20
-74.9564
11
179.496
21
-74.9783
0
LINE
8
Black
10
179.496
20
-74.9783
11
179.5
21
-75
0
LINE
8
Black
10
179.5
20
-75
11
179.5
21
-126
0
LINE
8
Black
10
179.5
20
-126
11
179.492
21
-126.043
0
LINE
8
Black
10
179.492
20
-126.043
11
179.492
21
-126.187
0
LINE
8
Black
10
179.492
20
-126.187
11
179.311
21
-127.213
0
LINE
8
Black
10
179.311
20
-127.213
11
179.252
21
-127.376
0
LINE
8
Black
10
179.252
20
-127.376
11
179.252
21
-127.376
0
LINE
8
Black
10
179.252
20
-127.376
11
178.731
21
-128.278
0
LINE
8
Black
10
178.731
20
-128.278
11
178.62
21
-128.411
0
LINE
8
Black
10
178.62
20
-128.411
11
177.834
21
-129.07
0
LINE
8
Black
10
177.834
20
-129.07
11
178.178
21
-129.269
0
LINE
8
Black
10
178.178
20
-129.269
11
178.245
21
-129.325
0
LINE
8
Black
10
178.245
20
-129.325
11
178.311
21
-129.38
0
LINE
8
Black
10
178.311
20
-129.38
11
178.311
21
-129.38
0
LINE
8
Black
10
178.311
20
-129.38
11
178.981
21
-130.179
0
LINE
8
Black
10
178.981
20
-130.179
11
178.981
21
-130.179
0
LINE
8
Black
10
178.981
20
-130.179
11
179.068
21
-130.329
0
LINE
8
Black
10
179.068
20
-130.329
11
179.424
21
-131.308
0
LINE
8
Black
10
179.424
20
-131.308
11
179.436
21
-131.372
0
LINE
8
Black
10
179.436
20
-131.372
11
179.453
21
-131.435
0
LINE
8
Black
10
179.453
20
-131.435
11
179.498
21
-131.956
0
LINE
8
Black
10
179.498
20
-131.956
11
179.496
21
-131.978
0
LINE
8
Black
10
179.496
20
-131.978
11
179.5
21
-132
0
LINE
8
Black
10
179.5
20
-132
11
179.5
21
-155
0
LINE
8
Black
10
179.5
20
-155
11
179.492
21
-155.043
0
LINE
8
Black
10
179.492
20
-155.043
11
179.492
21
-155.087
0
LINE
8
Black
10
179.492
20
-155.087
11
179.311
21
-156.113
0
LINE
8
Black
10
179.311
20
-156.113
11
179.252
21
-156.276
0
LINE
8
Black
10
179.252
20
-156.276
11
179.252
21
-156.276
0
LINE
8
Black
10
179.252
20
-156.276
11
178.731
21
-157.178
0
LINE
8
Black
10
178.731
20
-157.178
11
178.62
21
-157.311
0
LINE
8
Black
10
178.62
20
-157.311
11
177.821
21
-157.981
0
LINE
8
Black
10
177.821
20
-157.981
11
177.671
21
-158.068
0
LINE
8
Black
10
177.671
20
-158.068
11
176.692
21
-158.424
0
LINE
8
Black
10
176.692
20
-158.424
11
176.628
21
-158.436
0
LINE
8
Black
10
176.628
20
-158.436
11
176.565
21
-158.453
0
LINE
8
Black
10
176.565
20
-158.453
11
176.044
21
-158.498
0
LINE
8
Black
10
176.044
20
-158.498
11
176.022
21
-158.496
0
LINE
8
Black
10
176.022
20
-158.496
11
176
21
-158.5
0
LINE
8
Black
10
176
20
-158.5
11
96
21
-158.5
0
LINE
8
Black
10
96
20
-158.5
11
95.829
21
-158.47
0
LINE
8
Black
10
95.829
20
-158.47
11
95.6786
21
-158.383
0
LINE
8
Black
10
95.6786
20
-158.383
11
95.6588
21
-158.359
0
LINE
8
Black
10
95.6588
20
-158.359
11
95.3871
21
-158.311
0
LINE
8
Black
10
95.3871
20
-158.311
11
95.2239
21
-158.252
0
LINE
8
Black
10
95.2239
20
-158.252
11
94.3216
21
-157.731
0
LINE
8
Black
10
94.3216
20
-157.731
11
94.1886
21
-157.62
0
LINE
8
Black
10
94.1886
20
-157.62
11
93.5189
21
-156.821
0
LINE
8
Black
10
93.5189
20
-156.821
11
93.4321
21
-156.671
0
LINE
8
Black
10
93.4321
20
-156.671
11
93.0757
21
-155.692
0
LINE
8
Black
10
93.0757
20
-155.692
11
93.0644
21
-155.628
0
LINE
8
Black
10
93.0644
20
-155.628
11
93.0475
21
-155.565
0
LINE
8
Black
10
93.0475
20
-155.565
11
93.0019
21
-155.044
0
LINE
8
Black
10
93.0019
20
-155.044
11
93.0038
21
-155.022
0
LINE
8
Black
10
93.0038
20
-155.022
11
93
21
-155
0
LINE
8
Black
10
93
20
-155
11
93
21
-132
0
LINE
8
Black
10
93
20
-132
11
93.0076
21
-131.957
0
LINE
8
Black
10
93.0076
20
-131.957
11
93.0076
21
-131.913
0
LINE
8
Black
10
93.0076
20
-131.913
11
93.1885
21
-130.887
0
LINE
8
Black
10
93.1885
20
-130.887
11
93.2479
21
-130.724
0
LINE
8
Black
10
93.2479
20
-130.724
11
93.7689
21
-129.822
0
LINE
8
Black
10
93.7689
20
-129.822
11
93.8247
21
-129.755
0
LINE
8
Black
10
93.8247
20
-129.755
11
93.8805
21
-129.689
0
LINE
8
Black
10
93.8805
20
-129.689
11
94.6786
21
-129.019
0
LINE
8
Black
10
94.6786
20
-129.019
11
94.7493
21
-128.978
0
LINE
8
Black
10
94.7493
20
-128.978
11
94.3216
21
-128.731
0
LINE
8
Black
10
94.3216
20
-128.731
11
94.1886
21
-128.62
0
LINE
8
Black
10
94.1886
20
-128.62
11
93.5189
21
-127.821
0
LINE
8
Black
10
93.5189
20
-127.821
11
93.4321
21
-127.671
0
LINE
8
Black
10
93.4321
20
-127.671
11
93.0757
21
-126.692
0
LINE
8
Black
10
93.0757
20
-126.692
11
93.0644
21
-126.628
0
LINE
8
Black
10
93.0644
20
-126.628
11
93.0475
21
-126.565
0
LINE
8
Black
10
93.0475
20
-126.565
11
93.0019
21
-126.044
0
LINE
8
Black
10
93.0019
20
-126.044
11
93.0038
21
-126.022
0
LINE
8
Black
10
93.0038
20
-126.022
11
93
21
-126
0
LINE
8
Black
10
93
20
-126
11
93
21
-75
0
LINE
8
Black
10
93
20
-75
11
93.0076
21
-74.9569
0
LINE
8
Black
10
93.0076
20
-74.9569
11
93.0076
21
-74.9132
0
LINE
8
Black
10
93.0076
20
-74.9132
11
93.1885
21
-73.8871
0
LINE
8
Black
10
93.1885
20
-73.8871
11
93.2479
21
-73.7239
0
LINE
8
Black
10
93.2479
20
-73.7239
11
93.7689
21
-72.8216
0
LINE
8
Black
10
93.7689
20
-72.8216
11
93.8247
21
-72.7551
0
LINE
8
Black
10
93.8247
20
-72.7551
11
93.8805
21
-72.6886
0
LINE
8
Black
10
93.8805
20
-72.6886
11
94.6786
21
-72.0189
0
LINE
8
Black
10
94.6786
20
-72.0189
11
94.829
21
-71.9321
0
LINE
8
Black
10
94.829
20
-71.9321
11
95.808
21
-71.5757
0
LINE
8
Black
10
95.808
20
-71.5757
11
95.8724
21
-71.5644
0
LINE
8
Black
10
95.8724
20
-71.5644
11
95.9355
21
-71.5475
0
LINE
8
Black
10
95.9355
20
-71.5475
11
96.4564
21
-71.5019
0
LINE
8
Black
10
96.4564
20
-71.5019
11
96.4783
21
-71.5038
0
LINE
8
Black
10
96.4783
20
-71.5038
11
96.5
21
-71.5
0
LINE
8
Black
10
96.5
20
-71.5
11
118
21
-71.5
0
LINE
8
Black
10
118
20
-71.5
11
118.171
21
-71.5302
  0
ENDSEC
  0
EOF
