<?xml version="1.0" standalone="no"?>
 <!DOCTYPE svg PUBLIC "-//W3C//DTD SVG 1.1//EN" 
 "http://www.w3.org/Graphics/SVG/1.1/DTD/svg11.dtd"> 
<svg xmlns="http://www.w3.org/2000/svg" version="1.1" 
    width="29.7002cm" height="21.0007cm" viewBox="0 0 116930 82680 ">
<title>SVG Picture created as BrainsandJoy-F_Cu.svg date 2016/10/10 14:04:26 </title>
  <desc>Picture generated by PCBNEW </desc>
<g style="fill:#000000; fill-opacity:1;stroke:#000000; stroke-opacity:1;
stroke-linecap:round; stroke-linejoin:round; "
 transform="translate(0 0) scale(1 1)">
</g>
<g style="fill:#000000; fill-opacity:0.0; 
stroke:#000000; stroke-width:393.701; stroke-opacity:1; 
stroke-linecap:round; stroke-linejoin:round;">
<path d="M36811 51968
L36811 61023
" />
<path d="M70472 51968
L70472 61023
" />
<path d="M69291.3 50826.8 A1181.1 1181.1 0.0 0 0 70472.4 49645.7 " />
<path d="M37795 62204
L69291 62204
" />
<path d="M36811 61023.6 A1181.1 1181.1 0.0 0 0 37992.1 62204.7 " />
<path d="M70472.4 51968.5 A1181.1 1181.1 0.0 0 0 69291.3 50787.4 " />
<path d="M37992.1 50787.4 A1181.1 1181.1 0.0 0 0 36811 51968.5 " />
<path d="M37992 28346
L46456 28346
" />
<path d="M70472.4 29527.6 A1181.1 1181.1 0.0 0 0 69291.3 28346.5 " />
<path d="M69291.3 62204.7 A1181.1 1181.1 0.0 0 0 70472.4 61023.6 " />
<path d="M36811 49606.3 A1181.1 1181.1 0.0 0 0 37992.1 50787.4 " />
<path d="M66929 50787
L38976 50787
" />
<path d="M69291 50787
L68110 50787
" />
<path d="M70472 29527
L70472 49606
" />
<path d="M47637 28346
L69291 28346
" />
<path d="M37992.1 28346.5 A1181.1 1181.1 0.0 0 0 36811 29527.6 " />
<path d="M36811 29527
L36811 49606
" />
</g>
<g style="fill:#000000; fill-opacity:0.0; 
stroke:#000000; stroke-width:39.3701; stroke-opacity:1; 
stroke-linecap:round; stroke-linejoin:round;">
</g>
<g style="fill:#000000; fill-opacity:1.0; 
stroke:#000000; stroke-width:39.3701; stroke-opacity:1; 
stroke-linecap:round; stroke-linejoin:round;">
<circle cx="44881.9" cy="33661.4" r="570.866" /> 
<circle cx="44137.8" cy="45685" r="374.016" /> 
<circle cx="45137.8" cy="45767.7" r="374.016" /> 
<circle cx="46137.8" cy="45685" r="374.016" /> 
<circle cx="47145.7" cy="45767.7" r="374.016" /> 
<circle cx="48137.8" cy="45685" r="374.016" /> 
<circle cx="49153.5" cy="45767.7" r="374.016" /> 
<circle cx="50137.8" cy="45685" r="374.016" /> 
<polyline style="fill-rule:evenodd;"
points="50767,46122
50767,45374
51515,45374
51515,46122
50767,46122
" /> 
<polyline style="fill-rule:evenodd;"
points="67231,30220
67231,29579
67992,29579
67992,30220
67231,30220
" /> 
</g>
<g style="fill:#000000; fill-opacity:1.0; 
stroke:#000000; stroke-width:680; stroke-opacity:1; 
stroke-linecap:round; stroke-linejoin:round;">
</g>
<g style="fill:#000000; fill-opacity:0.0; 
stroke:#000000; stroke-width:680; stroke-opacity:1; 
stroke-linecap:round; stroke-linejoin:round;">
<path d="M67552 30900
L67672 30900
" />
<path d="M67552 31900
L67672 31900
" />
</g>
<g style="fill:#000000; fill-opacity:0.0; 
stroke:#000000; stroke-width:39.3701; stroke-opacity:1; 
stroke-linecap:round; stroke-linejoin:round;">
</g>
<g style="fill:#000000; fill-opacity:1.0; 
stroke:#000000; stroke-width:39.3701; stroke-opacity:1; 
stroke-linecap:round; stroke-linejoin:round;">
<polyline style="fill-rule:evenodd;"
points="66231,30220
66231,29579
66992,29579
66992,30220
66231,30220
" /> 
</g>
<g style="fill:#000000; fill-opacity:1.0; 
stroke:#000000; stroke-width:680; stroke-opacity:1; 
stroke-linecap:round; stroke-linejoin:round;">
</g>
<g style="fill:#000000; fill-opacity:0.0; 
stroke:#000000; stroke-width:680; stroke-opacity:1; 
stroke-linecap:round; stroke-linejoin:round;">
<path d="M66552 30900
L66672 30900
" />
<path d="M66552 31900
L66672 31900
" />
</g>
<g style="fill:#000000; fill-opacity:0.0; 
stroke:#000000; stroke-width:39.3701; stroke-opacity:1; 
stroke-linecap:round; stroke-linejoin:round;">
</g>
<g style="fill:#000000; fill-opacity:1.0; 
stroke:#000000; stroke-width:39.3701; stroke-opacity:1; 
stroke-linecap:round; stroke-linejoin:round;">
<polyline style="fill-rule:evenodd;"
points="65231,30220
65231,29579
65992,29579
65992,30220
65231,30220
" /> 
</g>
<g style="fill:#000000; fill-opacity:1.0; 
stroke:#000000; stroke-width:680; stroke-opacity:1; 
stroke-linecap:round; stroke-linejoin:round;">
</g>
<g style="fill:#000000; fill-opacity:0.0; 
stroke:#000000; stroke-width:680; stroke-opacity:1; 
stroke-linecap:round; stroke-linejoin:round;">
<path d="M65552 30900
L65672 30900
" />
<path d="M65552 31900
L65672 31900
" />
</g>
<g style="fill:#000000; fill-opacity:0.0; 
stroke:#000000; stroke-width:39.3701; stroke-opacity:1; 
stroke-linecap:round; stroke-linejoin:round;">
</g>
<g style="fill:#000000; fill-opacity:1.0; 
stroke:#000000; stroke-width:39.3701; stroke-opacity:1; 
stroke-linecap:round; stroke-linejoin:round;">
<polyline style="fill-rule:evenodd;"
points="64224,30215
64224,29575
64984,29575
64984,30215
64224,30215
" /> 
</g>
<g style="fill:#000000; fill-opacity:1.0; 
stroke:#000000; stroke-width:680; stroke-opacity:1; 
stroke-linecap:round; stroke-linejoin:round;">
</g>
<g style="fill:#000000; fill-opacity:0.0; 
stroke:#000000; stroke-width:680; stroke-opacity:1; 
stroke-linecap:round; stroke-linejoin:round;">
<path d="M64544 30895
L64664 30895
" />
<path d="M64544 31895
L64664 31895
" />
</g>
<g style="fill:#000000; fill-opacity:0.0; 
stroke:#000000; stroke-width:39.3701; stroke-opacity:1; 
stroke-linecap:round; stroke-linejoin:round;">
</g>
<g style="fill:#000000; fill-opacity:1.0; 
stroke:#000000; stroke-width:39.3701; stroke-opacity:1; 
stroke-linecap:round; stroke-linejoin:round;">
<polyline style="fill-rule:evenodd;"
points="68979,36136
68979,36997
68398,36997
68398,36136
68979,36136
" /> 
</g>
<g style="fill:#000000; fill-opacity:1.0; 
stroke:#000000; stroke-width:620; stroke-opacity:1; 
stroke-linecap:round; stroke-linejoin:round;">
</g>
<g style="fill:#000000; fill-opacity:0.0; 
stroke:#000000; stroke-width:620; stroke-opacity:1; 
stroke-linecap:round; stroke-linejoin:round;">
<path d="M67688 36706
L67688 36426
" />
<path d="M66688 36706
L66688 36426
" />
<path d="M65688 36706
L65688 36426
" />
<path d="M64688 36706
L64688 36426
" />
<path d="M63688 36706
L63688 36426
" />
<path d="M62688 36706
L62688 36426
" />
<path d="M61688 36706
L61688 36426
" />
<path d="M60688 36706
L60688 36426
" />
<path d="M59688 36706
L59688 36426
" />
<path d="M58688 36706
L58688 36426
" />
<path d="M57688 36706
L57688 36426
" />
<path d="M57688 42706
L57688 42426
" />
<path d="M58688 42706
L58688 42426
" />
<path d="M59688 42706
L59688 42426
" />
<path d="M60688 42706
L60688 42426
" />
<path d="M61688 42706
L61688 42426
" />
<path d="M62688 42706
L62688 42426
" />
<path d="M63688 42706
L63688 42426
" />
<path d="M64688 42706
L64688 42426
" />
<path d="M65688 42706
L65688 42426
" />
<path d="M66688 42706
L66688 42426
" />
<path d="M67688 42706
L67688 42426
" />
<path d="M68688 42706
L68688 42426
" />
</g>
<g style="fill:#000000; fill-opacity:0.0; 
stroke:#000000; stroke-width:39.3701; stroke-opacity:1; 
stroke-linecap:round; stroke-linejoin:round;">
</g>
<g style="fill:#000000; fill-opacity:1.0; 
stroke:#000000; stroke-width:39.3701; stroke-opacity:1; 
stroke-linecap:round; stroke-linejoin:round;">
<circle cx="38950" cy="50650" r="39.3701" /> 
<circle cx="38800" cy="50650" r="39.3701" /> 
<circle cx="38650" cy="50650" r="39.3701" /> 
<circle cx="38500" cy="50650" r="39.3701" /> 
<circle cx="38350" cy="50650" r="39.3701" /> 
<circle cx="67850" cy="50650" r="39.3701" /> 
<circle cx="67700" cy="50650" r="39.3701" /> 
<circle cx="67550" cy="50650" r="39.3701" /> 
<circle cx="67400" cy="50650" r="39.3701" /> 
<circle cx="67250" cy="50650" r="39.3701" /> 
<circle cx="46700" cy="28550" r="39.3701" /> 
<circle cx="51181.1" cy="49409.4" r="374.016" /> 
<circle cx="51181.1" cy="48409.4" r="374.016" /> 
<circle cx="52181.1" cy="49409.4" r="374.016" /> 
<circle cx="52181.1" cy="48409.4" r="374.016" /> 
<circle cx="53181.1" cy="49409.4" r="374.016" /> 
<circle cx="53181.1" cy="48409.4" r="374.016" /> 
<circle cx="54181.1" cy="49409.4" r="374.016" /> 
<circle cx="54181.1" cy="48409.4" r="374.016" /> 
<circle cx="55181.1" cy="49409.4" r="374.016" /> 
<circle cx="55181.1" cy="48409.4" r="374.016" /> 
<circle cx="68700.8" cy="47637.8" r="925.315" /> 
<polyline style="fill-rule:evenodd;"
points="67226,46712
67226,48563
65375,48563
65375,46712
67226,46712
" /> 
<circle cx="67800.8" cy="45637.8" r="925.315" /> 
<circle cx="38385.8" cy="29921.3" r="570.866" /> 
<circle cx="61220.5" cy="29921.3" r="570.866" /> 
<circle cx="38385.8" cy="49212.6" r="570.866" /> 
<circle cx="61220.5" cy="49212.6" r="570.866" /> 
<circle cx="46850" cy="28550" r="39.3701" /> 
<circle cx="47000" cy="28550" r="39.3701" /> 
<circle cx="47150" cy="28550" r="39.3701" /> 
<circle cx="47300" cy="28550" r="39.3701" /> 
<circle cx="62539.4" cy="54468.5" r="492.126" /> 
<circle cx="68563" cy="54468.5" r="492.126" /> 
<circle cx="68563" cy="59704.7" r="492.126" /> 
<circle cx="62539.4" cy="59704.7" r="492.126" /> 
<circle cx="61752" cy="57086.6" r="374.016" /> 
<circle cx="61752" cy="56102.4" r="374.016" /> 
<circle cx="61752" cy="58070.9" r="374.016" /> 
<circle cx="65551.2" cy="60925.2" r="374.016" /> 
<circle cx="64566.9" cy="60925.2" r="374.016" /> 
<circle cx="66535.4" cy="60925.2" r="374.016" /> 
<circle cx="64271.7" cy="53838.6" r="374.016" /> 
<circle cx="66830.7" cy="53838.6" r="374.016" /> 
<circle cx="66830.7" cy="52066.9" r="374.016" /> 
<circle cx="64271.7" cy="52066.9" r="374.016" /> 
<circle cx="38720.5" cy="54468.5" r="492.126" /> 
<circle cx="44744.1" cy="54468.5" r="492.126" /> 
<circle cx="44744.1" cy="59704.7" r="492.126" /> 
<circle cx="38720.5" cy="59704.7" r="492.126" /> 
<circle cx="37933.1" cy="57086.6" r="374.016" /> 
<circle cx="37933.1" cy="56102.4" r="374.016" /> 
<circle cx="37933.1" cy="58070.9" r="374.016" /> 
<circle cx="41732.3" cy="60925.2" r="374.016" /> 
<circle cx="40748" cy="60925.2" r="374.016" /> 
<circle cx="42716.5" cy="60925.2" r="374.016" /> 
<circle cx="40452.8" cy="53838.6" r="374.016" /> 
<circle cx="43011.8" cy="53838.6" r="374.016" /> 
<circle cx="43011.8" cy="52066.9" r="374.016" /> 
<circle cx="40452.8" cy="52066.9" r="374.016" /> 
<circle cx="51771.7" cy="53740.2" r="374.016" /> 
<circle cx="51771.7" cy="52740.2" r="374.016" /> 
<circle cx="52771.7" cy="53640.2" r="374.016" /> 
<circle cx="52771.7" cy="52640.2" r="374.016" /> 
<circle cx="53771.7" cy="53740.2" r="374.016" /> 
<circle cx="53771.7" cy="52740.2" r="374.016" /> 
<circle cx="54771.7" cy="53640.2" r="374.016" /> 
<circle cx="54771.7" cy="52640.2" r="374.016" /> 
<circle cx="55771.7" cy="53740.2" r="374.016" /> 
<circle cx="55771.7" cy="52740.2" r="374.016" /> 
<polyline style="fill-rule:evenodd;"
points="47657,51594
48405,51594
48405,52342
47657,52342
47657,51594
" /> 
<circle cx="48031.5" cy="53368.5" r="374.016" /> 
<circle cx="66796.9" cy="64331.9" r="39.3701" /> 
<circle cx="66996.9" cy="64331.9" r="39.3701" /> 
<circle cx="67396.9" cy="64331.9" r="39.3701" /> 
<circle cx="67196.9" cy="64331.9" r="39.3701" /> 
<circle cx="67596.9" cy="64331.9" r="39.3701" /> 
<circle cx="39796.9" cy="64331.9" r="39.3701" /> 
<circle cx="39396.9" cy="64331.9" r="39.3701" /> 
<circle cx="39596.9" cy="64331.9" r="39.3701" /> 
<circle cx="39196.9" cy="64331.9" r="39.3701" /> 
<circle cx="38189" cy="52165.4" r="570.866" /> 
<circle cx="59448.8" cy="60826.8" r="570.866" /> 
<circle cx="69094.5" cy="52165.4" r="570.866" /> 
<circle cx="47834.6" cy="60826.8" r="570.866" /> 
<circle cx="38996.9" cy="64331.9" r="39.3701" /> 
<circle cx="56988.2" cy="45374" r="155.315" /> 
<circle cx="62303.1" cy="46850.4" r="155.315" /> 
<circle cx="58661.4" cy="46948.8" r="155.315" /> 
<circle cx="61909.4" cy="43700.8" r="155.315" /> 
</g>
<g style="fill:#000000; fill-opacity:1.0; 
stroke:#000000; stroke-width:100; stroke-opacity:1; 
stroke-linecap:round; stroke-linejoin:round;">
</g>
<g style="fill:#000000; fill-opacity:0.0; 
stroke:#000000; stroke-width:100; stroke-opacity:1; 
stroke-linecap:round; stroke-linejoin:round;">
<path d="M55181 48409
L54181 49409
" />
<path d="M54181 49409
L53181 49409
" />
<path d="M64688 41413
L64173 41929
" />
<path d="M64173 41929
L64173 48228
" />
<path d="M64173 48228
L62204 50196
" />
<path d="M62204 50196
L51574 50196
" />
<path d="M51574 50196
L51181 49803
" />
<path d="M51181 49803
L51181 49409
" />
<path d="M64688 36566
L64688 41413
" />
<path d="M63688 41429
L63188 41929
" />
<path d="M63188 41929
L63188 44881
" />
<path d="M63188 44881
L58661 49409
" />
<path d="M58661 49409
L55181 49409
" />
<path d="M63688 36566
L63688 41429
" />
<path d="M62688 36566
L62688 36720
" />
<path d="M46000 45547
L46137 45685
" />
<path d="M60236 39173
L62688 36720
" />
<path d="M60236 39173
L48031 39173
" />
<path d="M48031 39173
L46000 41204
" />
<path d="M46000 45547
L46000 41204
" />
<path d="M44000 45547
L44137 45685
" />
<path d="M59688 35870
L59688 36566
" />
<path d="M46850 37401
L44000 40251
" />
<path d="M55511 37401
L46850 37401
" />
<path d="M57480 35433
L55511 37401
" />
<path d="M59251 35433
L57480 35433
" />
<path d="M59688 35870
L59251 35433
" />
<path d="M44000 45547
L44000 40251
" />
<path d="M45000 45629
L45137 45767
" />
<path d="M58688 37177
L58688 36566
" />
<path d="M47637 38188
L45000 40826
" />
<path d="M57677 38188
L47637 38188
" />
<path d="M58688 37177
L57677 38188
" />
<path d="M45000 45629
L45000 40826
" />
<path d="M47047 45669
L47145 45767
" />
<path d="M47047 41338
L47047 45669
" />
<path d="M58688 42566
L58688 41956
" />
<path d="M56692 39960
L48425 39960
" />
<path d="M58688 41956
L56692 39960
" />
<path d="M48425 39960
L47047 41338
" />
<path d="M48425 43700
L48137 43988
" />
<path d="M48137 43988
L48137 45685
" />
<path d="M60688 42566
L60688 43051
" />
<path d="M60039 43700
L48818 43700
" />
<path d="M60688 43051
L60039 43700
" />
<path d="M48818 43700
L48425 43700
" />
<path d="M59153 45374
L56988 45374
" />
<path d="M61688 42838
L59153 45374
" />
<path d="M61688 42566
L61688 42838
" />
<path d="M52771 55791
L51476 57086
" />
<path d="M51476 57086
L37933 57086
" />
<path d="M52771 53640
L52771 55791
" />
<path d="M62688 44003
L59055 47637
" />
<path d="M59055 47637
L54952 47637
" />
<path d="M54952 47637
L54181 48409
" />
<path d="M62688 42566
L62688 44003
" />
</g>
<g style="fill:#000000; fill-opacity:0.0; 
stroke:#000000; stroke-width:60; stroke-opacity:1; 
stroke-linecap:round; stroke-linejoin:round;">
<path d="M53771 52740
L53771 52748
" />
</g>
<g style="fill:#000000; fill-opacity:0.0; 
stroke:#000000; stroke-width:100; stroke-opacity:1; 
stroke-linecap:round; stroke-linejoin:round;">
<path d="M63688 45464
L62303 46850
" />
<path d="M58661 46948
L54133 46948
" />
<path d="M54133 46948
L53181 47901
" />
<path d="M53181 47901
L53181 48409
" />
<path d="M63688 42566
L63688 45366
" />
<path d="M63688 45366
L63688 45464
" />
</g>
<g style="fill:#000000; fill-opacity:0.0; 
stroke:#000000; stroke-width:60; stroke-opacity:1; 
stroke-linecap:round; stroke-linejoin:round;">
<path d="M54771 52640
L54771 52724
" />
</g>
<g style="fill:#000000; fill-opacity:0.0; 
stroke:#000000; stroke-width:100; stroke-opacity:1; 
stroke-linecap:round; stroke-linejoin:round;">
<path d="M61909 43700
L59448 46161
" />
<path d="M59448 46161
L52952 46161
" />
<path d="M52952 46161
L52181 46933
" />
<path d="M52181 46933
L52181 48409
" />
</g>
<g style="fill:#000000; fill-opacity:0.0; 
stroke:#000000; stroke-width:60; stroke-opacity:1; 
stroke-linecap:round; stroke-linejoin:round;">
<path d="M51771 52740
L51771 52637
" />
</g>
<g style="fill:#000000; fill-opacity:0.0; 
stroke:#000000; stroke-width:100; stroke-opacity:1; 
stroke-linecap:round; stroke-linejoin:round;">
<path d="M64074 51870
L64271 52066
" />
<path d="M52460 51870
L64074 51870
" />
<path d="M51771 52559
L52460 51870
" />
<path d="M51181 51968
L48031 51968
" />
<path d="M51771 52559
L51181 51968
" />
<path d="M51771 52740
L51771 52559
" />
<path d="M43110 51968
L43011 52066
" />
<path d="M48031 51968
L43110 51968
" />
<path d="M43011 52066
L40452 52066
" />
<path d="M39665 53149
L39665 55314
" />
<path d="M39665 55314
L38877 56102
" />
<path d="M38877 56102
L37933 56102
" />
<path d="M40452 52362
L39665 53149
" />
<path d="M40452 52066
L40452 52362
" />
<path d="M61811 53740
L62204 53346
" />
<path d="M62204 53346
L62992 53346
" />
<path d="M62992 53346
L63484 53838
" />
<path d="M63484 53838
L64271 53838
" />
<path d="M55771 53740
L61811 53740
" />
<path d="M64271 53838
L66830 53838
" />
<path d="M43602 53838
L44094 53346
" />
<path d="M44094 53346
L45669 53346
" />
<path d="M45669 53346
L46555 54232
" />
<path d="M46555 54232
L51279 54232
" />
<path d="M51279 54232
L51771 53740
" />
<path d="M43011 53838
L43602 53838
" />
</g>
<g style="fill:#000000; fill-opacity:1.0; 
stroke:#000000; stroke-width:100; stroke-opacity:1; 
stroke-linecap:round; stroke-linejoin:round;">
<polyline style="fill-rule:evenodd;"
points="62888,44757
58537,49109
55829,49109
55829,48513
55819,48257
55739,48065
55634,48026
55251,48409
55634,48792
55739,48753
55829,48513
55829,49109
55753,49109
55727,49045
55559,48876
55564,48863
55181,48480
54798,48863
54803,48877
54648,49031
54634,49026
54251,49409
54634,49792
54648,49787
54758,49896
54551,49896
54564,49863
54181,49480
54110,49550
54110,49409
53727,49026
53681,49043
53634,49026
53251,49409
53634,49792
53681,49775
53727,49792
54110,49409
54110,49550
53798,49863
53810,49896
53551,49896
53564,49863
53181,49480
52798,49863
52810,49896
52603,49896
52713,49787
52727,49792
53110,49409
52727,49026
52713,49031
52591,48909
52681,48819
52803,48941
52798,48955
53181,49338
53564,48955
53558,48941
53681,48819
53803,48941
53798,48955
54181,49338
54564,48955
54558,48941
54713,48787
54727,48792
55110,48409
55104,48403
55175,48333
55181,48338
55564,47955
55557,47937
59055,47937
59055,47937
59169,47914
59169,47914
59267,47849
62888,44228
62888,44757
" /> 
<polyline style="fill-rule:evenodd;"
points="70025,49601
69961,49923
69896,50021
69896,47873
69895,47397
69715,46962
69552,46856
69482,46927
69482,46785
69375,46623
69253,46573
69253,37016
69253,36116
69235,36021
69180,35937
69097,35881
68998,35862
68378,35862
68283,35880
68274,35886
68274,31900
68230,31674
68102,31482
67978,31400
68102,31317
68230,31125
68274,30900
68230,30674
68102,30482
68093,30476
68153,30451
68224,30381
68262,30289
68262,30190
68262,30012
68262,29787
68262,29609
68262,29510
68224,29418
68153,29348
68061,29310
67724,29310
67662,29372
67662,29850
68199,29850
68262,29787
68262,30012
68199,29950
67662,29950
67662,29957
67562,29957
67562,29950
67562,29850
67562,29372
67499,29310
67162,29310
67112,29330
67061,29310
66724,29310
66662,29372
66662,29850
67024,29850
67199,29850
67562,29850
67562,29950
67199,29950
67024,29950
66662,29950
66662,29957
66562,29957
66562,29950
66562,29850
66562,29372
66499,29310
66162,29310
66112,29330
66061,29310
65724,29310
65662,29372
65662,29850
66024,29850
66199,29850
66562,29850
66562,29950
66199,29950
66024,29950
65662,29950
65662,29957
65562,29957
65562,29950
65562,29850
65562,29372
65499,29310
65162,29310
65113,29330
65054,29305
64716,29305
64654,29368
64654,29845
65020,29845
65024,29850
65562,29850
65562,29950
65196,29950
65191,29945
64654,29945
64654,29953
64554,29953
64554,29945
64554,29845
64554,29368
64491,29305
64154,29305
64062,29343
63992,29414
63954,29505
63954,29605
63954,29783
64016,29845
64554,29845
64554,29945
64016,29945
63954,30008
63954,30185
63954,30285
63992,30377
64062,30447
64123,30472
64114,30478
63986,30669
63941,30895
63986,31121
64114,31312
64238,31395
64114,31478
63986,31669
63941,31895
63986,32121
64114,32312
64305,32440
64531,32485
64677,32485
64902,32440
65094,32312
65106,32294
65122,32317
65313,32445
65539,32490
65684,32490
65910,32445
66102,32317
66112,32302
66122,32317
66313,32445
66539,32490
66684,32490
66910,32445
67102,32317
67112,32302
67122,32317
67313,32445
67539,32490
67684,32490
67910,32445
68102,32317
68230,32125
68274,31900
68274,35886
68199,35935
68143,36018
68130,36085
68084,36017
67903,35895
67688,35853
67474,35895
67292,36017
67189,36172
67187,36166
67049,35995
66857,35890
66825,35883
66738,35931
66738,36516
66746,36516
66746,36616
66738,36616
66738,37201
66825,37250
66857,37243
67049,37138
67187,36967
67189,36961
67292,37116
67474,37238
67688,37280
67903,37238
68084,37116
68130,37048
68142,37112
68197,37196
68280,37252
68378,37271
68998,37271
69094,37253
69178,37198
69234,37115
69253,37016
69253,46573
69248,46571
69248,42720
69248,42413
69206,42198
69084,42017
68903,41895
68688,41853
68474,41895
68292,42017
68189,42172
68187,42166
68049,41995
67857,41890
67825,41883
67738,41931
67738,42516
67746,42516
67746,42616
67738,42616
67738,43201
67825,43250
67857,43243
68049,43138
68187,42967
68189,42961
68292,43116
68474,43238
68688,43280
68903,43238
69084,43116
69206,42934
69248,42720
69248,46571
68996,46467
68936,46442
68676,46442
68652,46419
68815,46312
68996,45873
68995,45397
68815,44962
68652,44856
68582,44927
68582,44785
68475,44623
68036,44442
67560,44443
67125,44623
67019,44785
67800,45567
68582,44785
68582,44927
67871,45637
67877,45643
67806,45714
67800,45708
67795,45714
67730,45648
67724,45643
67730,45637
66948,44856
66786,44962
66605,45402
66606,45877
66786,46312
66948,46419
66929,46437
65355,46437
65260,46456
65176,46511
65120,46594
65100,46692
65100,48582
65119,48678
65174,48761
65257,48817
65355,48837
67245,48837
67341,48819
67424,48764
67480,48681
67500,48582
67500,46806
67565,46833
67825,46832
67848,46856
67686,46962
67505,47402
67506,47877
67686,48312
67848,48419
68630,47637
68624,47632
68695,47561
68700,47567
69482,46785
69482,46927
68771,47637
69552,48419
69715,48312
69896,47873
69896,50021
69804,50158
69568,50315
69482,50333
69482,48489
68700,47708
68630,47779
67919,48489
68025,48652
68465,48833
68940,48832
69375,48652
69482,48489
69482,50333
69390,50351
69378,50349
69334,50349
69291,50340
68110,50340
67975,50367
67911,50340
67788,50340
67775,50346
67761,50340
67638,50340
67625,50346
67611,50340
67488,50340
67475,50346
67461,50340
67338,50340
67325,50346
67311,50340
67188,50340
67102,50376
67100,50374
66929,50340
62485,50340
64385,48440
64385,48440
64424,48382
64450,48343
64450,48343
64473,48228
64473,43237
64474,43238
64688,43280
64903,43238
65084,43116
65188,42960
65292,43116
65474,43238
65688,43280
65903,43238
66084,43116
66188,42960
66292,43116
66474,43238
66688,43280
66903,43238
67084,43116
67188,42961
67190,42967
67328,43138
67520,43243
67552,43250
67638,43201
67638,42616
67631,42616
67631,42516
67638,42516
67638,41931
67552,41883
67520,41890
67328,41995
67190,42166
67188,42172
67084,42017
66903,41895
66688,41853
66638,41863
66638,37201
66638,36616
66638,36516
66638,35931
66552,35883
66520,35890
66328,35995
66190,36166
66188,36172
66187,36166
66049,35995
65857,35890
65825,35883
65738,35931
65738,36516
66128,36516
66248,36516
66638,36516
66638,36616
66248,36616
66128,36616
65738,36616
65738,37201
65825,37250
65857,37243
66049,37138
66187,36967
66188,36961
66190,36967
66328,37138
66520,37243
66552,37250
66638,37201
66638,41863
66474,41895
66292,42017
66188,42172
66084,42017
65903,41895
65688,41853
65474,41895
65292,42017
65188,42172
65084,42017
64903,41895
64688,41853
64669,41857
64901,41625
64901,41625
64940,41567
64966,41528
64966,41528
64988,41413
64988,37180
65084,37116
65188,36961
65190,36967
65328,37138
65520,37243
65552,37250
65638,37201
65638,36616
65631,36616
65631,36516
65638,36516
65638,35931
65552,35883
65520,35890
65328,35995
65190,36166
65188,36172
65084,36017
64903,35895
64688,35853
64474,35895
64292,36017
64188,36172
64084,36017
63903,35895
63688,35853
63474,35895
63292,36017
63188,36172
63084,36017
62903,35895
62688,35853
62474,35895
62292,36017
62188,36172
62084,36017
62061,36001
62061,29754
61933,29445
61697,29209
61388,29080
61054,29080
60744,29208
60508,29444
60380,29753
60379,30087
60507,30396
60743,30633
61052,30761
61386,30761
61695,30634
61932,30398
62060,30089
62061,29754
62061,36001
61903,35895
61688,35853
61474,35895
61292,36017
61188,36172
61084,36017
60903,35895
60688,35853
60474,35895
60292,36017
60188,36172
60084,36017
59988,35953
59988,35870
59966,35755
59901,35657
59464,35220
59366,35155
59251,35133
57480,35133
57365,35155
57326,35181
57268,35220
55387,37101
46850,37101
46735,37124
46638,37189
45722,38105
45722,33494
45594,33185
45358,32949
45049,32821
44715,32820
44406,32948
44169,33184
44041,33493
44041,33827
44168,34136
44405,34373
44713,34501
45048,34502
45357,34374
45594,34138
45722,33829
45722,33494
45722,38105
43787,40039
43722,40137
43700,40251
43700,45212
43592,45319
43494,45556
43493,45812
43591,46049
43772,46230
44009,46328
44265,46328
44501,46231
44596,46136
44772,46313
45009,46411
45265,46411
45501,46313
45679,46136
45772,46230
46009,46328
46265,46328
46501,46231
46600,46132
46780,46313
47017,46411
47273,46411
47509,46313
47683,46140
47772,46230
48009,46328
48265,46328
48501,46231
48605,46127
48607,46131
48788,46313
49024,46411
49281,46411
49517,46313
49687,46144
49772,46230
50009,46328
50265,46328
50501,46231
50510,46222
50536,46283
50606,46353
50698,46391
51029,46391
51091,46329
51091,45798
51083,45798
51083,45698
51091,45698
51091,45166
51029,45104
50698,45104
50606,45142
50555,45192
50502,45139
50266,45041
50010,45041
49773,45139
49604,45308
49518,45222
49282,45124
49026,45123
48789,45221
48685,45325
48683,45320
48502,45139
48437,45112
48437,44112
48549,44000
48818,44000
60039,44000
60039,44000
60118,43985
59029,45074
57289,45074
57229,45013
57073,44949
56904,44948
56747,45013
56628,45132
56563,45289
56563,45458
56627,45614
56747,45734
56903,45798
57072,45799
57228,45734
57289,45674
59153,45674
59153,45674
59268,45651
59268,45651
59365,45586
61674,43277
61688,43280
61903,43238
62084,43116
62188,42960
62292,43116
62388,43180
62388,43879
58930,47337
58832,47337
58901,47309
59021,47189
59086,47033
59086,46864
59021,46708
58902,46588
58746,46523
58577,46523
58420,46588
58360,46648
54133,46648
54019,46671
53921,46736
52968,47689
52903,47786
52895,47831
52816,47863
52681,47999
52546,47864
52481,47837
52481,47057
53077,46461
59448,46461
59448,46461
59563,46438
59563,46438
59660,46373
61908,44125
61993,44125
62149,44061
62269,43941
62334,43785
62334,43616
62269,43460
62150,43340
61994,43275
61825,43275
61669,43340
61549,43459
61484,43615
61484,43701
59324,45861
52952,45861
52837,45884
52740,45949
51968,46720
51903,46818
51881,46933
51881,47836
51816,47863
51785,47894
51785,46191
51785,46092
51785,45860
51785,45635
51785,45404
51785,45304
51747,45212
51677,45142
51585,45104
51254,45104
51191,45166
51191,45698
51722,45698
51785,45635
51785,45860
51722,45798
51191,45798
51191,46329
51254,46391
51585,46391
51677,46353
51747,46283
51785,46191
51785,47894
51681,47999
51546,47864
51309,47765
51053,47765
50816,47863
50635,48044
50537,48280
50537,48536
50635,48773
50770,48909
50635,49044
50537,49280
50537,49536
50635,49773
50815,49954
50974,50020
51294,50340
39226,50340
39226,49046
39226,29754
39098,29445
38862,29209
38553,29080
38219,29080
37910,29208
37673,29444
37545,29753
37545,30087
37672,30396
37909,30633
38217,30761
38552,30761
38861,30634
39097,30398
39226,30089
39226,29754
39226,49046
39098,48737
38862,48500
38553,48372
38219,48371
37910,48499
37673,48735
37545,49044
37545,49379
37672,49688
37909,49924
38217,50053
38552,50053
38861,49925
39097,49689
39226,49380
39226,49046
39226,50340
38976,50340
38974,50340
38888,50340
38875,50346
38861,50340
38738,50340
38725,50346
38711,50340
38588,50340
38575,50346
38561,50340
38438,50340
38425,50346
38411,50340
38288,50340
38175,50387
38174,50388
38079,50349
38079,50349
37714,50276
37479,50119
37321,49883
37257,49562
37257,29571
37321,29249
37479,29014
37714,28857
38036,28793
46456,28793
46497,28785
46524,28811
46638,28859
46761,28859
46774,28853
46788,28859
46911,28859
46924,28853
46938,28859
47061,28859
47074,28853
47088,28859
47211,28859
47224,28853
47238,28859
47361,28859
47474,28812
47517,28769
47637,28793
69247,28793
69568,28857
69804,29014
69961,29249
70025,29571
70025,49601
" /> 
<polyline style="fill-rule:evenodd;"
points="52471,55667
51352,56786
45506,56786
45506,54317
45390,54037
45176,53823
44896,53706
44593,53706
44313,53822
44098,54036
43982,54316
43982,54619
44097,54899
44311,55113
44591,55230
44894,55230
45175,55114
45389,54900
45505,54620
45506,54317
45506,56786
38505,56786
38479,56722
38351,56594
38478,56467
38505,56402
38877,56402
38877,56402
38992,56379
38992,56379
39090,56314
39877,55527
39942,55429
39965,55314
39965,55314
39965,54261
40087,54383
40324,54482
40580,54482
40816,54384
40998,54203
41096,53967
41096,53711
40998,53474
40817,53293
40581,53194
40325,53194
40088,53292
39965,53415
39965,53273
40528,52710
40580,52710
40816,52612
40998,52432
41025,52366
42439,52366
42465,52431
42646,52612
42883,52710
43139,52710
43375,52612
43557,52432
43625,52268
47382,52268
47382,52362
47401,52457
47456,52541
47539,52597
47637,52617
48425,52617
48520,52598
48604,52543
48660,52460
48680,52362
48680,52268
51056,52268
51207,52419
51128,52611
51127,52867
51225,53104
51361,53240
51226,53375
51128,53611
51127,53867
51154,53932
48679,53932
48679,53472
48670,53216
48590,53024
48485,52985
48414,53056
48414,52914
48375,52809
48135,52720
47879,52729
47687,52809
47648,52914
48031,53297
48414,52914
48414,53056
48102,53368
48485,53751
48590,53712
48679,53472
48679,53932
48363,53932
48375,53927
48414,53822
48031,53439
47960,53509
47960,53368
47577,52985
47472,53024
47383,53264
47392,53520
47472,53712
47577,53751
47960,53368
47960,53509
47648,53822
47687,53927
47700,53932
46679,53932
45881,53134
45784,53069
45669,53046
44094,53046
43979,53069
43882,53134
43550,53466
43376,53293
43140,53194
42884,53194
42647,53292
42466,53473
42368,53709
42367,53966
42465,54202
42646,54383
42883,54482
43139,54482
43375,54384
43557,54203
43584,54138
43602,54138
43602,54138
43717,54115
43717,54115
43814,54050
44218,53646
45545,53646
46342,54444
46440,54509
46440,54509
46555,54532
51279,54532
51279,54532
51394,54509
51394,54509
51491,54444
51578,54357
51643,54383
51899,54383
52135,54286
52317,54105
52319,54098
52406,54185
52471,54212
52471,55667
" /> 
<polyline style="fill-rule:evenodd;"
points="70025,60979
69961,61301
69935,61340
69935,51998
69807,51689
69571,51453
69262,51324
68928,51324
68618,51452
68382,51688
68254,51997
68253,52331
68381,52640
68617,52877
68926,53005
69260,53006
69570,52878
69806,52642
69934,52333
69935,51998
69935,61340
69804,61536
69568,61693
69324,61742
69324,59553
69324,54317
69209,54037
68995,53823
68715,53706
68412,53706
68132,53822
67917,54036
67801,54316
67801,54619
67916,54899
68130,55113
68410,55230
68713,55230
68993,55114
69208,54900
69324,54620
69324,54317
69324,59553
69209,59273
68995,59059
68715,58943
68412,58942
68132,59058
67917,59272
67801,59552
67801,59855
67916,60135
68130,60350
68410,60466
68713,60466
68993,60350
69208,60136
69324,59856
69324,59553
69324,61742
69247,61757
67474,61757
67474,53711
67474,51939
67376,51702
67195,51521
66959,51423
66703,51423
66466,51520
66285,51701
66187,51938
66186,52194
66284,52431
66465,52612
66702,52710
66958,52710
67194,52612
67376,52432
67474,52195
67474,51939
67474,53711
67376,53474
67195,53293
66959,53194
66703,53194
66466,53292
66285,53473
66258,53538
64844,53538
64817,53474
64636,53293
64400,53194
64144,53194
63907,53292
63726,53473
63699,53538
63608,53538
63204,53134
63106,53069
62992,53046
62204,53046
62089,53069
61992,53134
61686,53440
56419,53440
56419,52844
56410,52588
56330,52395
56225,52357
55842,52740
56225,53123
56330,53084
56419,52844
56419,53440
56344,53440
56317,53376
56149,53207
56154,53193
55771,52810
55388,53193
55393,53207
55319,53281
55317,53276
55181,53140
55231,53091
55317,53123
55700,52740
55695,52734
55766,52663
55771,52669
56154,52286
56115,52181
56085,52170
63627,52170
63627,52194
63725,52431
63906,52612
64143,52710
64399,52710
64635,52612
64817,52432
64915,52195
64915,51939
64817,51702
64636,51521
64400,51423
64144,51423
63907,51520
63858,51570
52460,51570
52345,51592
52306,51618
52248,51657
51809,52096
51733,52096
51393,51756
51295,51691
51181,51668
48680,51668
48680,51574
48661,51479
48606,51395
48523,51339
48425,51319
47637,51319
47542,51338
47458,51393
47402,51476
47382,51574
47382,51668
43523,51668
43376,51521
43140,51423
42884,51423
42647,51520
42466,51701
42439,51766
41025,51766
40998,51702
40817,51521
40581,51423
40325,51423
40088,51520
39907,51701
39809,51938
39808,52194
39906,52431
39933,52457
39453,52937
39388,53034
39365,53149
39365,54036
39152,53823
39029,53772
39029,51998
38901,51689
38665,51453
38356,51324
38022,51324
37713,51452
37476,51688
37348,51997
37348,52331
37475,52640
37712,52877
38021,53005
38355,53006
38664,52878
38901,52642
39029,52333
39029,51998
39029,53772
38872,53706
38569,53706
38289,53822
38075,54036
37958,54316
37958,54619
38074,54899
38288,55113
38568,55230
38871,55230
39151,55114
39365,54901
39365,55190
38753,55802
38505,55802
38479,55738
38298,55556
38061,55458
37805,55458
37568,55556
37387,55737
37289,55973
37289,56229
37387,56466
37514,56594
37387,56721
37289,56958
37289,57214
37387,57450
37550,57614
37550,57617
37933,58000
38316,57617
38315,57614
38478,57451
38505,57386
51476,57386
51476,57386
51591,57363
51591,57363
51688,57298
52983,56003
52983,56003
53022,55945
53048,55906
53048,55906
53071,55791
53071,54212
53135,54186
53223,54098
53225,54104
53406,54285
53643,54383
53899,54383
54135,54286
54317,54105
54319,54098
54406,54185
54643,54283
54899,54283
55135,54186
55223,54098
55225,54104
55406,54285
55643,54383
55899,54383
56135,54286
56317,54105
56344,54040
61811,54040
61811,54040
61909,54020
61893,54036
61777,54316
61777,54619
61893,54899
62107,55113
62387,55230
62690,55230
62970,55114
63184,54900
63301,54620
63301,54317
63185,54037
62971,53823
62691,53706
62388,53706
62184,53790
62328,53646
62867,53646
63272,54050
63369,54115
63369,54115
63484,54138
63699,54138
63725,54202
63906,54383
64143,54482
64399,54482
64635,54384
64817,54203
64844,54138
66258,54138
66284,54202
66465,54383
66702,54482
66958,54482
67194,54384
67376,54203
67474,53967
67474,53711
67474,61757
67183,61757
67183,61029
67173,60773
67094,60580
66989,60542
66918,60612
66918,60471
66879,60366
66639,60277
66383,60286
66191,60366
66152,60471
66535,60854
66918,60471
66918,60612
66606,60925
66989,61308
67094,61269
67183,61029
67183,61757
66918,61757
66918,61378
66535,60995
66464,61066
66464,60925
66081,60542
66079,60543
65916,60379
65679,60281
65423,60281
65187,60379
65058,60506
64932,60379
64695,60281
64439,60281
64202,60379
64021,60560
63923,60796
63923,61052
64020,61289
64201,61470
64438,61568
64694,61569
64931,61471
65059,61343
65186,61470
65422,61568
65678,61569
65915,61471
66079,61307
66081,61308
66464,60925
66464,61066
66152,61378
66191,61484
66431,61573
66687,61563
66879,61484
66918,61378
66918,61757
63301,61757
63301,59553
63185,59273
62971,59059
62691,58943
62399,58942
62399,58175
62395,58061
62395,56959
62297,56722
62170,56594
62297,56467
62395,56230
62395,55974
62297,55738
62117,55556
61880,55458
61624,55458
61387,55556
61206,55737
61108,55973
61108,56229
61205,56466
61333,56594
61206,56721
61108,56958
61108,57214
61205,57450
61369,57614
61368,57617
61751,58000
62135,57617
62134,57614
62297,57451
62395,57215
62395,56959
62395,58061
62390,57919
62310,57726
62205,57687
61822,58070
62205,58453
62310,58415
62399,58175
62399,58942
62388,58942
62135,59047
62135,58524
61751,58141
61681,58212
61681,58070
61298,57687
61193,57726
61103,57966
61113,58222
61193,58415
61298,58453
61681,58070
61681,58212
61368,58524
61407,58629
61647,58718
61903,58709
62096,58629
62135,58524
62135,59047
62108,59058
61893,59272
61777,59552
61777,59855
61893,60135
62107,60350
62387,60466
62690,60466
62970,60350
63184,60136
63301,59856
63301,59553
63301,61757
60289,61757
60289,60660
60161,60351
59925,60114
59616,59986
59282,59986
58973,60113
58736,60350
58608,60658
58608,60993
58735,61302
58972,61538
59280,61667
59615,61667
59924,61539
60160,61303
60289,60994
60289,60660
60289,61757
48675,61757
48675,60660
48547,60351
48311,60114
48002,59986
47668,59986
47359,60113
47122,60350
46994,60658
46993,60993
47121,61302
47357,61538
47666,61667
48001,61667
48310,61539
48546,61303
48675,60994
48675,60660
48675,61757
45506,61757
45506,59553
45390,59273
45176,59059
44896,58943
44593,58942
44313,59058
44098,59272
43982,59552
43982,59855
44097,60135
44311,60350
44591,60466
44894,60466
45175,60350
45389,60136
45505,59856
45506,59553
45506,61757
43364,61757
43364,61029
43355,60773
43275,60580
43170,60542
43099,60612
43099,60471
43060,60366
42820,60277
42564,60286
42372,60366
42333,60471
42716,60854
43099,60471
43099,60612
42787,60925
43170,61308
43275,61269
43364,61029
43364,61757
43099,61757
43099,61378
42716,60995
42645,61066
42645,60925
42262,60542
42260,60543
42097,60379
41860,60281
41604,60281
41368,60379
41240,60506
41113,60379
40876,60281
40620,60281
40383,60379
40202,60560
40104,60796
40104,61052
40202,61289
40382,61470
40619,61568
40875,61569
41112,61471
41240,61343
41367,61470
41603,61568
41859,61569
42096,61471
42260,61307
42262,61308
42645,60925
42645,61066
42333,61378
42372,61484
42612,61573
42868,61563
43060,61484
43099,61378
43099,61757
39482,61757
39482,59553
39366,59273
39152,59059
38872,58943
38581,58942
38581,58175
38571,57919
38491,57726
38386,57687
38003,58070
38386,58453
38491,58415
38581,58175
38581,58942
38569,58942
38316,59047
38316,58524
37933,58141
37862,58212
37862,58070
37479,57687
37374,57726
37285,57966
37294,58222
37374,58415
37479,58453
37862,58070
37862,58212
37550,58524
37588,58629
37828,58718
38084,58709
38277,58629
38316,58524
38316,59047
38289,59058
38075,59272
37958,59552
37958,59855
38074,60135
38288,60350
38568,60466
38871,60466
39151,60350
39365,60136
39482,59856
39482,59553
39482,61757
38036,61757
37714,61693
37479,61536
37321,61301
37257,60979
37257,52012
37321,51690
37479,51455
37714,51298
38079,51225
38079,51225
38240,51158
38363,51035
38395,50959
38411,50959
38424,50953
38438,50959
38561,50959
38563,50958
38563,50958
38660,51103
38805,51200
38976,51234
66929,51234
67100,51200
67245,51103
67341,50959
67461,50959
67474,50953
67488,50959
67611,50959
67624,50953
67638,50959
67697,50959
67794,51103
67939,51200
68110,51234
69129,51234
69204,51265
69378,51265
69390,51262
69568,51298
69804,51455
69961,51690
70025,52012
70025,60979
" /> 
</g>
<g style="fill:#FFFFFF; fill-opacity:1.0; 
stroke:#FFFFFF; stroke-width:39.3701; stroke-opacity:1; 
stroke-linecap:round; stroke-linejoin:round;">
<circle cx="56988.2" cy="45374" r="105.315" /> 
<circle cx="62303.1" cy="46850.4" r="105.315" /> 
<circle cx="58661.4" cy="46948.8" r="105.315" /> 
<circle cx="61909.4" cy="43700.8" r="105.315" /> 
<circle cx="44881.9" cy="33661.4" r="570.866" /> 
<circle cx="44137.8" cy="45685" r="157.48" /> 
<circle cx="45137.8" cy="45767.7" r="177.165" /> 
<circle cx="46137.8" cy="45685" r="177.165" /> 
<circle cx="47145.7" cy="45767.7" r="177.165" /> 
<circle cx="48137.8" cy="45685" r="177.165" /> 
<circle cx="49153.5" cy="45767.7" r="177.165" /> 
<circle cx="50137.8" cy="45685" r="177.165" /> 
<circle cx="51141.7" cy="45748" r="177.165" /> 
<circle cx="67612.2" cy="29900" r="180.315" /> 
<circle cx="67612.2" cy="30900" r="180.315" /> 
<circle cx="67612.2" cy="31900" r="180.315" /> 
<circle cx="66612.2" cy="29900" r="180.315" /> 
<circle cx="66612.2" cy="30900" r="180.315" /> 
<circle cx="66612.2" cy="31900" r="180.315" /> 
<circle cx="65612.2" cy="29900" r="180.315" /> 
<circle cx="65612.2" cy="30900" r="180.315" /> 
<circle cx="65612.2" cy="31900" r="180.315" /> 
<circle cx="64604.3" cy="29895.7" r="180.315" /> 
<circle cx="64604.3" cy="30895.7" r="180.315" /> 
<circle cx="64604.3" cy="31895.7" r="180.315" /> 
<circle cx="68689" cy="36566.9" r="140.315" /> 
<circle cx="67689" cy="36566.9" r="140.315" /> 
<circle cx="66689" cy="36566.9" r="140.315" /> 
<circle cx="65689" cy="36566.9" r="140.315" /> 
<circle cx="64689" cy="36566.9" r="140.315" /> 
<circle cx="63689" cy="36566.9" r="140.315" /> 
<circle cx="62689" cy="36566.9" r="140.315" /> 
<circle cx="61689" cy="36566.9" r="140.315" /> 
<circle cx="60689" cy="36566.9" r="140.315" /> 
<circle cx="59689" cy="36566.9" r="140.315" /> 
<circle cx="58689" cy="36566.9" r="140.315" /> 
<circle cx="57689" cy="36566.9" r="140.315" /> 
<circle cx="57689" cy="42566.9" r="140.315" /> 
<circle cx="58689" cy="42566.9" r="140.315" /> 
<circle cx="59689" cy="42566.9" r="140.315" /> 
<circle cx="60689" cy="42566.9" r="140.315" /> 
<circle cx="61689" cy="42566.9" r="140.315" /> 
<circle cx="62689" cy="42566.9" r="140.315" /> 
<circle cx="63689" cy="42566.9" r="140.315" /> 
<circle cx="64689" cy="42566.9" r="140.315" /> 
<circle cx="65689" cy="42566.9" r="140.315" /> 
<circle cx="66689" cy="42566.9" r="140.315" /> 
<circle cx="67689" cy="42566.9" r="140.315" /> 
<circle cx="68689" cy="42566.9" r="140.315" /> 
<circle cx="38950" cy="50650" r="39.3699" /> 
<circle cx="38800" cy="50650" r="39.3699" /> 
<circle cx="38650" cy="50650" r="39.3699" /> 
<circle cx="38500" cy="50650" r="39.3699" /> 
<circle cx="38350" cy="50650" r="39.3699" /> 
<circle cx="67850" cy="50650" r="39.3699" /> 
<circle cx="67700" cy="50650" r="39.3699" /> 
<circle cx="67550" cy="50650" r="39.3699" /> 
<circle cx="67400" cy="50650" r="39.3699" /> 
<circle cx="67250" cy="50650" r="39.3699" /> 
<circle cx="46700" cy="28550" r="39.3699" /> 
<circle cx="51181.1" cy="49409.4" r="180.315" /> 
<circle cx="51181.1" cy="48409.4" r="180.315" /> 
<circle cx="52181.1" cy="49409.4" r="180.315" /> 
<circle cx="52181.1" cy="48409.4" r="180.315" /> 
<circle cx="53181.1" cy="49409.4" r="180.315" /> 
<circle cx="53181.1" cy="48409.4" r="180.315" /> 
<circle cx="54181.1" cy="49409.4" r="180.315" /> 
<circle cx="54181.1" cy="48409.4" r="180.315" /> 
<circle cx="55181.1" cy="49409.4" r="180.315" /> 
<circle cx="55181.1" cy="48409.4" r="180.315" /> 
</g>
<g style="fill:#FFFFFF; fill-opacity:1.0; 
stroke:#FFFFFF; stroke-width:400; stroke-opacity:1; 
stroke-linecap:round; stroke-linejoin:round;">
</g>
<g style="fill:#FFFFFF; fill-opacity:0.0; 
stroke:#FFFFFF; stroke-width:400; stroke-opacity:1; 
stroke-linecap:round; stroke-linejoin:round;">
<path d="M68700 47937
L68700 47337
" />
<path d="M66300 48028
L66300 47247
" />
<path d="M68100 45637
L67500 45637
" />
</g>
<g style="fill:#FFFFFF; fill-opacity:0.0; 
stroke:#FFFFFF; stroke-width:39.3701; stroke-opacity:1; 
stroke-linecap:round; stroke-linejoin:round;">
</g>
<g style="fill:#FFFFFF; fill-opacity:1.0; 
stroke:#FFFFFF; stroke-width:39.3701; stroke-opacity:1; 
stroke-linecap:round; stroke-linejoin:round;">
<circle cx="38385.8" cy="29921.3" r="570.866" /> 
<circle cx="61220.5" cy="29921.3" r="570.866" /> 
<circle cx="38385.8" cy="49212.6" r="570.866" /> 
<circle cx="61220.5" cy="49212.6" r="570.866" /> 
<circle cx="46850" cy="28550" r="39.3699" /> 
<circle cx="47000" cy="28550" r="39.3699" /> 
<circle cx="47150" cy="28550" r="39.3699" /> 
<circle cx="47300" cy="28550" r="39.3699" /> 
<circle cx="62539.4" cy="54468.5" r="255.906" /> 
<circle cx="68563" cy="54468.5" r="255.906" /> 
<circle cx="68563" cy="59704.7" r="255.906" /> 
<circle cx="62539.4" cy="59704.7" r="255.906" /> 
<circle cx="61752" cy="57086.6" r="177.165" /> 
<circle cx="61752" cy="56102.4" r="177.165" /> 
<circle cx="61752" cy="58070.9" r="177.165" /> 
<circle cx="65551.2" cy="60925.2" r="177.165" /> 
<circle cx="64566.9" cy="60925.2" r="177.165" /> 
<circle cx="66535.4" cy="60925.2" r="177.165" /> 
<circle cx="64271.7" cy="53838.6" r="177.165" /> 
<circle cx="66830.7" cy="53838.6" r="177.165" /> 
<circle cx="66830.7" cy="52066.9" r="177.165" /> 
<circle cx="64271.7" cy="52066.9" r="177.165" /> 
<circle cx="38720.5" cy="54468.5" r="255.906" /> 
<circle cx="44744.1" cy="54468.5" r="255.906" /> 
<circle cx="44744.1" cy="59704.7" r="255.906" /> 
<circle cx="38720.5" cy="59704.7" r="255.906" /> 
<circle cx="37933.1" cy="57086.6" r="177.165" /> 
<circle cx="37933.1" cy="56102.4" r="177.165" /> 
<circle cx="37933.1" cy="58070.9" r="177.165" /> 
<circle cx="41732.3" cy="60925.2" r="177.165" /> 
<circle cx="40748" cy="60925.2" r="177.165" /> 
<circle cx="42716.5" cy="60925.2" r="177.165" /> 
<circle cx="40452.8" cy="53838.6" r="177.165" /> 
<circle cx="43011.8" cy="53838.6" r="177.165" /> 
<circle cx="43011.8" cy="52066.9" r="177.165" /> 
<circle cx="40452.8" cy="52066.9" r="177.165" /> 
<circle cx="51771.7" cy="53740.2" r="180.315" /> 
<circle cx="51771.7" cy="52740.2" r="180.315" /> 
<circle cx="52771.7" cy="53640.2" r="180.315" /> 
<circle cx="52771.7" cy="52640.2" r="180.315" /> 
<circle cx="53771.7" cy="53740.2" r="180.315" /> 
<circle cx="53771.7" cy="52740.2" r="180.315" /> 
<circle cx="54771.7" cy="53640.2" r="180.315" /> 
<circle cx="54771.7" cy="52640.2" r="180.315" /> 
<circle cx="55771.7" cy="53740.2" r="180.315" /> 
<circle cx="55771.7" cy="52740.2" r="180.315" /> 
<circle cx="48031.5" cy="51968.5" r="137.795" /> 
<circle cx="48031.5" cy="53368.5" r="137.815" /> 
<circle cx="66796.9" cy="64331.9" r="39.3699" /> 
<circle cx="66996.9" cy="64331.9" r="39.3699" /> 
<circle cx="67396.9" cy="64331.9" r="39.3699" /> 
<circle cx="67196.9" cy="64331.9" r="39.3699" /> 
<circle cx="67596.9" cy="64331.9" r="39.3699" /> 
<circle cx="39796.9" cy="64331.9" r="39.3699" /> 
<circle cx="39396.9" cy="64331.9" r="39.3699" /> 
<circle cx="39596.9" cy="64331.9" r="39.3699" /> 
<circle cx="39196.9" cy="64331.9" r="39.3699" /> 
<circle cx="38189" cy="52165.4" r="570.866" /> 
<circle cx="59448.8" cy="60826.8" r="570.866" /> 
<circle cx="69094.5" cy="52165.4" r="570.866" /> 
<circle cx="47834.6" cy="60826.8" r="570.866" /> 
<circle cx="38996.9" cy="64331.9" r="39.3699" /> 
</g> 
</svg>
