M48
;DRILL file {pcbnew (2015-01-16 BZR 5376)-product} date 6/13/2016 5:18:35 PM
;FORMAT={-:-/ absolute / metric / decimal}
FMAT,2
METRIC,TZ
T1C0.300
T2C0.635
T3C0.800
T4C0.800
T5C0.813
T6C0.900
T7C1.000
T8C1.016
T9C1.400
T10C3.000
%
G90
G05
M71
T1
X97.409Y-128.651
X97.79Y-128.651
X98.171Y-128.651
X98.552Y-128.651
X98.933Y-128.651
X99.052Y-163.403
X99.56Y-163.403
X100.068Y-163.403
X100.576Y-163.403
X101.084Y-163.403
X118.618Y-72.517
X118.999Y-72.517
X119.38Y-72.517
X119.761Y-72.517
X120.142Y-72.517
X169.664Y-163.403
X170.172Y-163.403
X170.68Y-163.403
X170.815Y-128.651
X171.188Y-163.403
X171.196Y-128.651
X171.577Y-128.651
X171.696Y-163.403
X171.958Y-128.651
X172.339Y-128.651
T2
X144.75Y-115.25
X149.Y-119.25
X157.25Y-111.
X158.25Y-119.
T3
X122.Y-132.
T4
X122.Y-135.556
T5
X146.53Y-92.88
X146.53Y-108.12
X149.07Y-92.88
X149.07Y-108.12
X151.61Y-92.88
X151.61Y-108.12
X154.15Y-92.88
X154.15Y-108.12
X156.69Y-92.88
X156.69Y-108.12
X159.23Y-92.88
X159.23Y-108.12
X161.77Y-92.88
X161.77Y-108.12
X164.31Y-92.88
X164.31Y-108.12
X166.85Y-92.88
X166.85Y-108.12
X169.39Y-92.88
X169.39Y-108.12
X171.93Y-92.88
X171.93Y-108.12
X174.47Y-92.88
X174.47Y-108.12
T6
X112.11Y-116.04
T7
X96.35Y-142.5
X96.35Y-145.
X96.35Y-147.5
X102.75Y-132.25
X102.75Y-136.75
X103.5Y-154.75
X106.Y-154.75
X108.5Y-154.75
X109.25Y-132.25
X109.25Y-136.75
X114.65Y-116.25
X117.19Y-116.04
X119.75Y-116.25
X122.27Y-116.04
X124.85Y-116.25
X127.35Y-116.04
X129.9Y-116.2
X156.85Y-142.5
X156.85Y-145.
X156.85Y-147.5
X163.25Y-132.25
X163.25Y-136.75
X164.Y-154.75
X166.5Y-154.75
X169.Y-154.75
X169.75Y-132.25
X169.75Y-136.75
T8
X130.Y-122.96
X130.Y-125.5
X131.5Y-133.96
X131.5Y-136.5
X132.54Y-122.96
X132.54Y-125.5
X134.04Y-133.706
X134.04Y-136.246
X135.08Y-122.96
X135.08Y-125.5
X136.58Y-133.96
X136.58Y-136.5
X137.62Y-122.96
X137.62Y-125.5
X139.12Y-133.706
X139.12Y-136.246
X140.16Y-122.96
X140.16Y-125.5
X141.66Y-133.96
X141.66Y-136.5
X164.095Y-75.935
X164.095Y-78.475
X164.095Y-81.015
X166.655Y-75.946
X166.655Y-78.486
X166.655Y-81.026
X169.195Y-75.946
X169.195Y-78.486
X169.195Y-81.026
X171.735Y-75.946
X171.735Y-78.486
X171.735Y-81.026
T9
X98.35Y-138.35
X98.35Y-151.65
X113.65Y-138.35
X113.65Y-151.65
X158.85Y-138.35
X158.85Y-151.65
X174.15Y-138.35
X174.15Y-151.65
T10
X97.Y-132.5
X97.5Y-76.
X97.5Y-125.
X114.Y-85.5
X121.5Y-154.5
X151.Y-154.5
X155.5Y-76.
X155.5Y-125.
X175.5Y-132.5
T8
X168.404Y-121.992G85X168.404Y-120.008
G05
X172.976Y-115.92G85X171.452Y-115.92
G05
X174.5Y-121.762G85X174.5Y-120.238
G05
T0
M30
