M48
;DRILL file {pcbnew (2015-01-16 BZR 5376)-product} date 12/06/2015 15:21:07
;FORMAT={-:-/ absolute / inch / decimal}
FMAT,2
INCH,TZ
T1C0.012
T2C0.025
T3C0.031
T4C0.032
T5C0.035
T6C0.039
T7C0.040
T8C0.118
%
G90
G05
M72
T1
X2.1631Y-3.651
X2.1631Y-6.1117
X2.1781Y-3.651
X2.1781Y-6.1117
X2.1931Y-3.651
X2.1931Y-6.1117
X2.2081Y-3.651
X2.2081Y-6.1117
X2.2231Y-3.651
X2.2231Y-6.1117
X2.9981Y-1.441
X2.9981Y-3.9017
X3.0131Y-1.441
X3.0131Y-3.9017
X3.0281Y-1.441
X3.0281Y-3.9017
X3.0431Y-1.441
X3.0431Y-3.9017
X3.0581Y-1.441
X3.0581Y-3.9017
X5.0531Y-3.651
X5.0531Y-6.1117
X5.0681Y-3.651
X5.0681Y-6.1117
X5.0831Y-3.651
X5.0831Y-6.1117
X5.0981Y-3.651
X5.0981Y-6.1117
X5.1131Y-3.651
X5.1131Y-6.1117
X5.8049Y-3.651
X5.8049Y-6.1117
X5.8199Y-3.651
X5.8199Y-6.1117
X5.8349Y-3.651
X5.8349Y-6.1117
X5.8499Y-3.651
X5.8499Y-6.1117
X5.8649Y-3.651
X5.8649Y-6.1117
X6.6399Y-1.441
X6.6399Y-3.9017
X6.6549Y-1.441
X6.6549Y-3.9017
X6.6699Y-1.441
X6.6699Y-3.9017
X6.6849Y-1.441
X6.6849Y-3.9017
X6.6999Y-1.441
X6.6999Y-3.9017
X8.6949Y-3.651
X8.6949Y-6.1117
X8.7099Y-3.651
X8.7099Y-6.1117
X8.7249Y-3.651
X8.7249Y-6.1117
X8.7399Y-3.651
X8.7399Y-6.1117
X8.7549Y-3.651
X8.7549Y-6.1117
T2
X2.7481Y-3.386
X2.7481Y-5.8467
X2.9181Y-3.176
X2.9181Y-5.6367
X3.1131Y-2.946
X3.1131Y-5.4067
X3.2481Y-3.456
X3.2481Y-5.9167
X3.2681Y-3.096
X3.2681Y-5.5567
X3.2981Y-3.491
X3.2981Y-5.9517
X3.3181Y-3.106
X3.3181Y-3.376
X3.3181Y-5.5667
X3.3181Y-5.8367
X3.3581Y-3.176
X3.3581Y-5.6367
X3.5381Y-1.526
X3.5381Y-3.9867
X3.7881Y-2.746
X3.7881Y-5.2067
X3.7981Y-2.186
X3.7981Y-4.6467
X3.8981Y-2.696
X3.8981Y-3.336
X3.8981Y-5.1567
X3.8981Y-5.7967
X3.9431Y-3.191
X3.9431Y-5.6517
X3.9581Y-1.526
X3.9581Y-3.9867
X3.9881Y-2.376
X3.9881Y-4.8367
X3.9981Y-2.646
X3.9981Y-5.1067
X4.1331Y-2.741
X4.1331Y-5.2017
X4.2981Y-3.316
X4.2981Y-5.7767
X4.3581Y-1.526
X4.3581Y-3.9867
X4.3681Y-3.026
X4.3681Y-5.4867
X4.6481Y-3.316
X4.6481Y-5.7767
X4.6981Y-2.316
X4.6981Y-4.7767
X4.7081Y-2.266
X4.7081Y-4.7267
X4.7581Y-1.526
X4.7581Y-3.9867
X4.8681Y-2.156
X4.8681Y-2.276
X4.8681Y-4.6167
X4.8681Y-4.7367
X6.3899Y-3.386
X6.3899Y-5.8467
X6.5599Y-3.176
X6.5599Y-5.6367
X6.7549Y-2.946
X6.7549Y-5.4067
X6.8899Y-3.456
X6.8899Y-5.9167
X6.9099Y-3.096
X6.9099Y-5.5567
X6.9399Y-3.491
X6.9399Y-5.9517
X6.9599Y-3.106
X6.9599Y-3.376
X6.9599Y-5.5667
X6.9599Y-5.8367
X6.9999Y-3.176
X6.9999Y-5.6367
X7.1799Y-1.526
X7.1799Y-3.9867
X7.4299Y-2.746
X7.4299Y-5.2067
X7.4399Y-2.186
X7.4399Y-4.6467
X7.5399Y-2.696
X7.5399Y-3.336
X7.5399Y-5.1567
X7.5399Y-5.7967
X7.5849Y-3.191
X7.5849Y-5.6517
X7.5999Y-1.526
X7.5999Y-3.9867
X7.6299Y-2.376
X7.6299Y-4.8367
X7.6399Y-2.646
X7.6399Y-5.1067
X7.7749Y-2.741
X7.7749Y-5.2017
X7.9399Y-3.316
X7.9399Y-5.7767
X7.9999Y-1.526
X7.9999Y-3.9867
X8.0099Y-3.026
X8.0099Y-5.4867
X8.2899Y-3.316
X8.2899Y-5.7767
X8.3399Y-2.316
X8.3399Y-4.7767
X8.3499Y-2.266
X8.3499Y-4.7267
X8.3999Y-1.526
X8.3999Y-3.9867
X8.5099Y-2.156
X8.5099Y-2.276
X8.5099Y-4.6167
X8.5099Y-4.7367
T3
X4.2201Y-2.8551
X4.2201Y-2.9339
X4.2201Y-3.0126
X4.2201Y-3.0913
X4.2201Y-3.1701
X4.2201Y-3.2488
X4.2201Y-3.3276
X4.2201Y-3.4063
X4.2201Y-3.485
X4.2201Y-3.5638
X4.2201Y-5.3157
X4.2201Y-5.3945
X4.2201Y-5.4732
X4.2201Y-5.552
X4.2201Y-5.6307
X4.2201Y-5.7094
X4.2201Y-5.7882
X4.2201Y-5.8669
X4.2201Y-5.9457
X4.2201Y-6.0244
X5.0862Y-2.8551
X5.0862Y-2.9339
X5.0862Y-3.0126
X5.0862Y-3.0913
X5.0862Y-3.1701
X5.0862Y-3.2488
X5.0862Y-3.3276
X5.0862Y-3.4063
X5.0862Y-3.485
X5.0862Y-3.5638
X5.0862Y-5.3157
X5.0862Y-5.3945
X5.0862Y-5.4732
X5.0862Y-5.552
X5.0862Y-5.6307
X5.0862Y-5.7094
X5.0862Y-5.7882
X5.0862Y-5.8669
X5.0862Y-5.9457
X5.0862Y-6.0244
X7.8618Y-2.8551
X7.8618Y-2.9339
X7.8618Y-3.0126
X7.8618Y-3.0913
X7.8618Y-3.1701
X7.8618Y-3.2488
X7.8618Y-3.3276
X7.8618Y-3.4063
X7.8618Y-3.485
X7.8618Y-3.5638
X7.8618Y-5.3157
X7.8618Y-5.3945
X7.8618Y-5.4732
X7.8618Y-5.552
X7.8618Y-5.6307
X7.8618Y-5.7094
X7.8618Y-5.7882
X7.8618Y-5.8669
X7.8618Y-5.9457
X7.8618Y-6.0244
X8.728Y-2.8551
X8.728Y-2.9339
X8.728Y-3.0126
X8.728Y-3.0913
X8.728Y-3.1701
X8.728Y-3.2488
X8.728Y-3.3276
X8.728Y-3.4063
X8.728Y-3.485
X8.728Y-3.5638
X8.728Y-5.3157
X8.728Y-5.3945
X8.728Y-5.4732
X8.728Y-5.552
X8.728Y-5.6307
X8.728Y-5.7094
X8.728Y-5.7882
X8.728Y-5.8669
X8.728Y-5.9457
X8.728Y-6.0244
T4
X4.1981Y-1.946
X4.1981Y-2.546
X4.1981Y-4.4067
X4.1981Y-5.0067
X4.2981Y-1.946
X4.2981Y-2.546
X4.2981Y-4.4067
X4.2981Y-5.0067
X4.3981Y-1.946
X4.3981Y-2.546
X4.3981Y-4.4067
X4.3981Y-5.0067
X4.4981Y-1.946
X4.4981Y-2.546
X4.4981Y-4.4067
X4.4981Y-5.0067
X4.5981Y-1.946
X4.5981Y-2.546
X4.5981Y-4.4067
X4.5981Y-5.0067
X4.6981Y-1.946
X4.6981Y-2.546
X4.6981Y-4.4067
X4.6981Y-5.0067
X4.7981Y-1.946
X4.7981Y-2.546
X4.7981Y-4.4067
X4.7981Y-5.0067
X4.8981Y-1.946
X4.8981Y-2.546
X4.8981Y-4.4067
X4.8981Y-5.0067
X4.9981Y-1.946
X4.9981Y-2.546
X4.9981Y-4.4067
X4.9981Y-5.0067
X5.0981Y-1.946
X5.0981Y-2.546
X5.0981Y-4.4067
X5.0981Y-5.0067
X5.1981Y-1.946
X5.1981Y-2.546
X5.1981Y-4.4067
X5.1981Y-5.0067
X5.2981Y-1.946
X5.2981Y-2.546
X5.2981Y-4.4067
X5.2981Y-5.0067
X7.8399Y-1.946
X7.8399Y-2.546
X7.8399Y-4.4067
X7.8399Y-5.0067
X7.9399Y-1.946
X7.9399Y-2.546
X7.9399Y-4.4067
X7.9399Y-5.0067
X8.0399Y-1.946
X8.0399Y-2.546
X8.0399Y-4.4067
X8.0399Y-5.0067
X8.1399Y-1.946
X8.1399Y-2.546
X8.1399Y-4.4067
X8.1399Y-5.0067
X8.2399Y-1.946
X8.2399Y-2.546
X8.2399Y-4.4067
X8.2399Y-5.0067
X8.3399Y-1.946
X8.3399Y-2.546
X8.3399Y-4.4067
X8.3399Y-5.0067
X8.4399Y-1.946
X8.4399Y-2.546
X8.4399Y-4.4067
X8.4399Y-5.0067
X8.5399Y-1.946
X8.5399Y-2.546
X8.5399Y-4.4067
X8.5399Y-5.0067
X8.6399Y-1.946
X8.6399Y-2.546
X8.6399Y-4.4067
X8.6399Y-5.0067
X8.7399Y-1.946
X8.7399Y-2.546
X8.7399Y-4.4067
X8.7399Y-5.0067
X8.8399Y-1.946
X8.8399Y-2.546
X8.8399Y-4.4067
X8.8399Y-5.0067
X8.9399Y-1.946
X8.9399Y-2.546
X8.9399Y-4.4067
X8.9399Y-5.0067
T5
X2.4481Y-3.096
X2.4481Y-5.5567
X6.0899Y-3.096
X6.0899Y-5.5567
T6
X2.5481Y-3.1043
X2.5481Y-5.5649
X2.6481Y-3.096
X2.6481Y-5.5567
X2.7489Y-3.1043
X2.7489Y-5.5649
X2.8481Y-3.096
X2.8481Y-5.5567
X2.9497Y-3.1043
X2.9497Y-5.5649
X3.0481Y-3.096
X3.0481Y-5.5567
X3.1485Y-3.1023
X3.1485Y-5.563
X6.1899Y-3.1043
X6.1899Y-5.5649
X6.2899Y-3.096
X6.2899Y-5.5567
X6.3907Y-3.1043
X6.3907Y-5.5649
X6.4899Y-3.096
X6.4899Y-5.5567
X6.5915Y-3.1043
X6.5915Y-5.5649
X6.6899Y-3.096
X6.6899Y-5.5567
X6.7903Y-3.1023
X6.7903Y-5.563
T7
X3.4481Y-3.446
X3.4481Y-3.546
X3.4481Y-5.9067
X3.4481Y-6.0067
X3.5481Y-3.446
X3.5481Y-3.546
X3.5481Y-5.9067
X3.5481Y-6.0067
X3.6481Y-3.446
X3.6481Y-3.546
X3.6481Y-5.9067
X3.6481Y-6.0067
X3.7481Y-1.546
X3.7481Y-1.646
X3.7481Y-1.746
X3.7481Y-3.446
X3.7481Y-3.546
X3.7481Y-4.0067
X3.7481Y-4.1067
X3.7481Y-4.2067
X3.7481Y-5.9067
X3.7481Y-6.0067
X3.8481Y-3.446
X3.8481Y-3.546
X3.8481Y-5.9067
X3.8481Y-6.0067
X4.1581Y-1.546
X4.1581Y-1.646
X4.1581Y-1.746
X4.1581Y-4.0067
X4.1581Y-4.1067
X4.1581Y-4.2067
X4.5581Y-1.546
X4.5581Y-1.646
X4.5581Y-1.746
X4.5581Y-4.0067
X4.5581Y-4.1067
X4.5581Y-4.2067
X4.9581Y-1.546
X4.9581Y-1.646
X4.9581Y-1.746
X4.9581Y-4.0067
X4.9581Y-4.1067
X4.9581Y-4.2067
X7.0899Y-3.446
X7.0899Y-3.546
X7.0899Y-5.9067
X7.0899Y-6.0067
X7.1899Y-3.446
X7.1899Y-3.546
X7.1899Y-5.9067
X7.1899Y-6.0067
X7.2899Y-3.446
X7.2899Y-3.546
X7.2899Y-5.9067
X7.2899Y-6.0067
X7.3899Y-1.546
X7.3899Y-1.646
X7.3899Y-1.746
X7.3899Y-3.446
X7.3899Y-3.546
X7.3899Y-4.0067
X7.3899Y-4.1067
X7.3899Y-4.2067
X7.3899Y-5.9067
X7.3899Y-6.0067
X7.4899Y-3.446
X7.4899Y-3.546
X7.4899Y-5.9067
X7.4899Y-6.0067
X7.7999Y-1.546
X7.7999Y-1.646
X7.7999Y-1.746
X7.7999Y-4.0067
X7.7999Y-4.1067
X7.7999Y-4.2067
X8.1999Y-1.546
X8.1999Y-1.646
X8.1999Y-1.746
X8.1999Y-4.0067
X8.1999Y-4.1067
X8.1999Y-4.2067
X8.5999Y-1.546
X8.5999Y-1.646
X8.5999Y-1.746
X8.5999Y-4.0067
X8.5999Y-4.1067
X8.5999Y-4.2067
T8
X1.8701Y-1.378
X1.8701Y-6.2008
X2.1031Y-1.611
X2.1031Y-4.0717
X2.2781Y-3.036
X2.2781Y-5.4967
X4.8781Y-2.961
X4.8781Y-5.4217
X5.2031Y-1.586
X5.2031Y-4.0467
X5.7449Y-1.611
X5.7449Y-4.0717
X5.9199Y-3.036
X5.9199Y-5.4967
X8.3071Y-6.2598
X8.5199Y-2.961
X8.5199Y-5.4217
X8.8449Y-1.586
X8.8449Y-4.0467
X9.0551Y-1.378
T7
X2.1091Y-3.256G85X2.1872Y-3.256
G05
X2.1181Y-3.496G85X2.1781Y-3.496
G05
X2.1091Y-5.7167G85X2.1872Y-5.7167
G05
X2.1181Y-5.9567G85X2.1781Y-5.9567
G05
X2.3481Y-3.436G85X2.3481Y-3.376
G05
X2.3481Y-5.8967G85X2.3481Y-5.8367
G05
X5.7508Y-3.256G85X5.8289Y-3.256
G05
X5.7599Y-3.496G85X5.8199Y-3.496
G05
X5.7508Y-5.7167G85X5.8289Y-5.7167
G05
X5.7599Y-5.9567G85X5.8199Y-5.9567
G05
X5.9899Y-3.436G85X5.9899Y-3.376
G05
X5.9899Y-5.8967G85X5.9899Y-5.8367
G05
T0
M30
