G04 #@! TF.FileFunction,Legend,Bot*
%FSLAX46Y46*%
G04 Gerber Fmt 4.6, Leading zero omitted, Abs format (unit mm)*
G04 Created by KiCad (PCBNEW (2015-01-16 BZR 5376)-product) date 3/31/2016 12:49:39 PM*
%MOMM*%
G01*
G04 APERTURE LIST*
%ADD10C,0.100000*%
%ADD11C,0.300000*%
%ADD12C,2.000000*%
%ADD13R,2.000000X2.000000*%
%ADD14R,2.032000X1.727200*%
%ADD15O,2.032000X1.727200*%
%ADD16C,0.300000*%
%ADD17C,4.800600*%
%ADD18R,4.800600X4.800600*%
%ADD19C,2.750000*%
%ADD20R,1.727200X1.727200*%
%ADD21O,1.727200X1.727200*%
G04 APERTURE END LIST*
D10*
D11*
X132621427Y-119078571D02*
X132621427Y-117578571D01*
X132121427Y-118650000D01*
X131621427Y-117578571D01*
X131621427Y-119078571D01*
X130335713Y-119007143D02*
X130478570Y-119078571D01*
X130764284Y-119078571D01*
X130907141Y-119007143D01*
X130978570Y-118864286D01*
X130978570Y-118292857D01*
X130907141Y-118150000D01*
X130764284Y-118078571D01*
X130478570Y-118078571D01*
X130335713Y-118150000D01*
X130264284Y-118292857D01*
X130264284Y-118435714D01*
X130978570Y-118578571D01*
X129692856Y-118650000D02*
X128978570Y-118650000D01*
X129835713Y-119078571D02*
X129335713Y-117578571D01*
X128835713Y-119078571D01*
X128335713Y-119078571D02*
X128335713Y-118078571D01*
X128335713Y-118364286D02*
X128264285Y-118221429D01*
X128192856Y-118150000D01*
X128049999Y-118078571D01*
X127907142Y-118078571D01*
X127407142Y-119078571D02*
X127407142Y-118078571D01*
X127407142Y-118221429D02*
X127335714Y-118150000D01*
X127192856Y-118078571D01*
X126978571Y-118078571D01*
X126835714Y-118150000D01*
X126764285Y-118292857D01*
X126764285Y-119078571D01*
X126764285Y-118292857D02*
X126692856Y-118150000D01*
X126549999Y-118078571D01*
X126335714Y-118078571D01*
X126192856Y-118150000D01*
X126121428Y-118292857D01*
X126121428Y-119078571D01*
X123549999Y-119078571D02*
X124264285Y-119078571D01*
X124264285Y-117578571D01*
X123049999Y-119078571D02*
X123049999Y-118078571D01*
X123049999Y-117578571D02*
X123121428Y-117650000D01*
X123049999Y-117721429D01*
X122978571Y-117650000D01*
X123049999Y-117578571D01*
X123049999Y-117721429D01*
X122335713Y-119078571D02*
X122335713Y-118078571D01*
X122335713Y-118221429D02*
X122264285Y-118150000D01*
X122121427Y-118078571D01*
X121907142Y-118078571D01*
X121764285Y-118150000D01*
X121692856Y-118292857D01*
X121692856Y-119078571D01*
X121692856Y-118292857D02*
X121621427Y-118150000D01*
X121478570Y-118078571D01*
X121264285Y-118078571D01*
X121121427Y-118150000D01*
X121049999Y-118292857D01*
X121049999Y-119078571D01*
X120335713Y-119078571D02*
X120335713Y-118078571D01*
X120335713Y-117578571D02*
X120407142Y-117650000D01*
X120335713Y-117721429D01*
X120264285Y-117650000D01*
X120335713Y-117578571D01*
X120335713Y-117721429D01*
X119835713Y-118078571D02*
X119264284Y-118078571D01*
X119621427Y-117578571D02*
X119621427Y-118864286D01*
X119549999Y-119007143D01*
X119407141Y-119078571D01*
X119264284Y-119078571D01*
X118192856Y-119007143D02*
X118335713Y-119078571D01*
X118621427Y-119078571D01*
X118764284Y-119007143D01*
X118835713Y-118864286D01*
X118835713Y-118292857D01*
X118764284Y-118150000D01*
X118621427Y-118078571D01*
X118335713Y-118078571D01*
X118192856Y-118150000D01*
X118121427Y-118292857D01*
X118121427Y-118435714D01*
X118835713Y-118578571D01*
X116835713Y-119078571D02*
X116835713Y-117578571D01*
X116835713Y-119007143D02*
X116978570Y-119078571D01*
X117264284Y-119078571D01*
X117407142Y-119007143D01*
X117478570Y-118935714D01*
X117549999Y-118792857D01*
X117549999Y-118364286D01*
X117478570Y-118221429D01*
X117407142Y-118150000D01*
X117264284Y-118078571D01*
X116978570Y-118078571D01*
X116835713Y-118150000D01*
X115049999Y-117721429D02*
X114978570Y-117650000D01*
X114835713Y-117578571D01*
X114478570Y-117578571D01*
X114335713Y-117650000D01*
X114264284Y-117721429D01*
X114192856Y-117864286D01*
X114192856Y-118007143D01*
X114264284Y-118221429D01*
X115121427Y-119078571D01*
X114192856Y-119078571D01*
X113264285Y-117578571D02*
X113121428Y-117578571D01*
X112978571Y-117650000D01*
X112907142Y-117721429D01*
X112835713Y-117864286D01*
X112764285Y-118150000D01*
X112764285Y-118507143D01*
X112835713Y-118792857D01*
X112907142Y-118935714D01*
X112978571Y-119007143D01*
X113121428Y-119078571D01*
X113264285Y-119078571D01*
X113407142Y-119007143D01*
X113478571Y-118935714D01*
X113549999Y-118792857D01*
X113621428Y-118507143D01*
X113621428Y-118150000D01*
X113549999Y-117864286D01*
X113478571Y-117721429D01*
X113407142Y-117650000D01*
X113264285Y-117578571D01*
X111335714Y-119078571D02*
X112192857Y-119078571D01*
X111764285Y-119078571D02*
X111764285Y-117578571D01*
X111907142Y-117792857D01*
X112050000Y-117935714D01*
X112192857Y-118007143D01*
X110050000Y-117578571D02*
X110335714Y-117578571D01*
X110478571Y-117650000D01*
X110550000Y-117721429D01*
X110692857Y-117935714D01*
X110764286Y-118221429D01*
X110764286Y-118792857D01*
X110692857Y-118935714D01*
X110621429Y-119007143D01*
X110478571Y-119078571D01*
X110192857Y-119078571D01*
X110050000Y-119007143D01*
X109978571Y-118935714D01*
X109907143Y-118792857D01*
X109907143Y-118435714D01*
X109978571Y-118292857D01*
X110050000Y-118221429D01*
X110192857Y-118150000D01*
X110478571Y-118150000D01*
X110621429Y-118221429D01*
X110692857Y-118292857D01*
X110764286Y-118435714D01*
X128549999Y-121335714D02*
X128621428Y-121407143D01*
X128835714Y-121478571D01*
X128978571Y-121478571D01*
X129192856Y-121407143D01*
X129335714Y-121264286D01*
X129407142Y-121121429D01*
X129478571Y-120835714D01*
X129478571Y-120621429D01*
X129407142Y-120335714D01*
X129335714Y-120192857D01*
X129192856Y-120050000D01*
X128978571Y-119978571D01*
X128835714Y-119978571D01*
X128621428Y-120050000D01*
X128549999Y-120121429D01*
X127049999Y-121335714D02*
X127121428Y-121407143D01*
X127335714Y-121478571D01*
X127478571Y-121478571D01*
X127692856Y-121407143D01*
X127835714Y-121264286D01*
X127907142Y-121121429D01*
X127978571Y-120835714D01*
X127978571Y-120621429D01*
X127907142Y-120335714D01*
X127835714Y-120192857D01*
X127692856Y-120050000D01*
X127478571Y-119978571D01*
X127335714Y-119978571D01*
X127121428Y-120050000D01*
X127049999Y-120121429D01*
X126407142Y-120907143D02*
X125264285Y-120907143D01*
X124049999Y-120692857D02*
X123835713Y-120764286D01*
X123764285Y-120835714D01*
X123692856Y-120978571D01*
X123692856Y-121192857D01*
X123764285Y-121335714D01*
X123835713Y-121407143D01*
X123978571Y-121478571D01*
X124549999Y-121478571D01*
X124549999Y-119978571D01*
X124049999Y-119978571D01*
X123907142Y-120050000D01*
X123835713Y-120121429D01*
X123764285Y-120264286D01*
X123764285Y-120407143D01*
X123835713Y-120550000D01*
X123907142Y-120621429D01*
X124049999Y-120692857D01*
X124549999Y-120692857D01*
X122764285Y-120764286D02*
X122764285Y-121478571D01*
X123264285Y-119978571D02*
X122764285Y-120764286D01*
X122264285Y-119978571D01*
X121764285Y-120907143D02*
X120621428Y-120907143D01*
X119978571Y-121407143D02*
X119764285Y-121478571D01*
X119407142Y-121478571D01*
X119264285Y-121407143D01*
X119192856Y-121335714D01*
X119121428Y-121192857D01*
X119121428Y-121050000D01*
X119192856Y-120907143D01*
X119264285Y-120835714D01*
X119407142Y-120764286D01*
X119692856Y-120692857D01*
X119835714Y-120621429D01*
X119907142Y-120550000D01*
X119978571Y-120407143D01*
X119978571Y-120264286D01*
X119907142Y-120121429D01*
X119835714Y-120050000D01*
X119692856Y-119978571D01*
X119335714Y-119978571D01*
X119121428Y-120050000D01*
X118550000Y-121050000D02*
X117835714Y-121050000D01*
X118692857Y-121478571D02*
X118192857Y-119978571D01*
X117692857Y-121478571D01*
X116192857Y-119978571D02*
X115264286Y-119978571D01*
X115764286Y-120550000D01*
X115550000Y-120550000D01*
X115407143Y-120621429D01*
X115335714Y-120692857D01*
X115264286Y-120835714D01*
X115264286Y-121192857D01*
X115335714Y-121335714D01*
X115407143Y-121407143D01*
X115550000Y-121478571D01*
X115978572Y-121478571D01*
X116121429Y-121407143D01*
X116192857Y-121335714D01*
X114621429Y-121335714D02*
X114550001Y-121407143D01*
X114621429Y-121478571D01*
X114692858Y-121407143D01*
X114621429Y-121335714D01*
X114621429Y-121478571D01*
X113621429Y-119978571D02*
X113478572Y-119978571D01*
X113335715Y-120050000D01*
X113264286Y-120121429D01*
X113192857Y-120264286D01*
X113121429Y-120550000D01*
X113121429Y-120907143D01*
X113192857Y-121192857D01*
X113264286Y-121335714D01*
X113335715Y-121407143D01*
X113478572Y-121478571D01*
X113621429Y-121478571D01*
X113764286Y-121407143D01*
X113835715Y-121335714D01*
X113907143Y-121192857D01*
X113978572Y-120907143D01*
X113978572Y-120550000D01*
X113907143Y-120264286D01*
X113835715Y-120121429D01*
X113764286Y-120050000D01*
X113621429Y-119978571D01*
X153085714Y-99578571D02*
X152728571Y-101078571D01*
X152442857Y-100007143D01*
X152157143Y-101078571D01*
X151800000Y-99578571D01*
X151228571Y-101078571D02*
X151228571Y-100078571D01*
X151228571Y-99578571D02*
X151300000Y-99650000D01*
X151228571Y-99721429D01*
X151157143Y-99650000D01*
X151228571Y-99578571D01*
X151228571Y-99721429D01*
X150728571Y-100078571D02*
X150157142Y-100078571D01*
X150514285Y-99578571D02*
X150514285Y-100864286D01*
X150442857Y-101007143D01*
X150299999Y-101078571D01*
X150157142Y-101078571D01*
X149657142Y-101078571D02*
X149657142Y-99578571D01*
X149014285Y-101078571D02*
X149014285Y-100292857D01*
X149085714Y-100150000D01*
X149228571Y-100078571D01*
X149442856Y-100078571D01*
X149585714Y-100150000D01*
X149657142Y-100221429D01*
X147371428Y-100078571D02*
X146799999Y-100078571D01*
X147157142Y-99578571D02*
X147157142Y-100864286D01*
X147085714Y-101007143D01*
X146942856Y-101078571D01*
X146799999Y-101078571D01*
X146299999Y-101078571D02*
X146299999Y-99578571D01*
X145657142Y-101078571D02*
X145657142Y-100292857D01*
X145728571Y-100150000D01*
X145871428Y-100078571D01*
X146085713Y-100078571D01*
X146228571Y-100150000D01*
X146299999Y-100221429D01*
X144299999Y-101078571D02*
X144299999Y-100292857D01*
X144371428Y-100150000D01*
X144514285Y-100078571D01*
X144799999Y-100078571D01*
X144942856Y-100150000D01*
X144299999Y-101007143D02*
X144442856Y-101078571D01*
X144799999Y-101078571D01*
X144942856Y-101007143D01*
X145014285Y-100864286D01*
X145014285Y-100721429D01*
X144942856Y-100578571D01*
X144799999Y-100507143D01*
X144442856Y-100507143D01*
X144299999Y-100435714D01*
X143585713Y-100078571D02*
X143585713Y-101078571D01*
X143585713Y-100221429D02*
X143514285Y-100150000D01*
X143371427Y-100078571D01*
X143157142Y-100078571D01*
X143014285Y-100150000D01*
X142942856Y-100292857D01*
X142942856Y-101078571D01*
X142228570Y-101078571D02*
X142228570Y-99578571D01*
X142085713Y-100507143D02*
X141657142Y-101078571D01*
X141657142Y-100078571D02*
X142228570Y-100650000D01*
X141085713Y-101007143D02*
X140942856Y-101078571D01*
X140657141Y-101078571D01*
X140514284Y-101007143D01*
X140442856Y-100864286D01*
X140442856Y-100792857D01*
X140514284Y-100650000D01*
X140657141Y-100578571D01*
X140871427Y-100578571D01*
X141014284Y-100507143D01*
X141085713Y-100364286D01*
X141085713Y-100292857D01*
X141014284Y-100150000D01*
X140871427Y-100078571D01*
X140657141Y-100078571D01*
X140514284Y-100150000D01*
X138871427Y-100078571D02*
X138299998Y-100078571D01*
X138657141Y-99578571D02*
X138657141Y-100864286D01*
X138585713Y-101007143D01*
X138442855Y-101078571D01*
X138299998Y-101078571D01*
X137585712Y-101078571D02*
X137728570Y-101007143D01*
X137799998Y-100935714D01*
X137871427Y-100792857D01*
X137871427Y-100364286D01*
X137799998Y-100221429D01*
X137728570Y-100150000D01*
X137585712Y-100078571D01*
X137371427Y-100078571D01*
X137228570Y-100150000D01*
X137157141Y-100221429D01*
X137085712Y-100364286D01*
X137085712Y-100792857D01*
X137157141Y-100935714D01*
X137228570Y-101007143D01*
X137371427Y-101078571D01*
X137585712Y-101078571D01*
X136442855Y-100935714D02*
X136371427Y-101007143D01*
X136442855Y-101078571D01*
X136514284Y-101007143D01*
X136442855Y-100935714D01*
X136442855Y-101078571D01*
X136442855Y-100150000D02*
X136371427Y-100221429D01*
X136442855Y-100292857D01*
X136514284Y-100221429D01*
X136442855Y-100150000D01*
X136442855Y-100292857D01*
X152514286Y-101978571D02*
X152514286Y-103050000D01*
X152585714Y-103264286D01*
X152728571Y-103407143D01*
X152942857Y-103478571D01*
X153085714Y-103478571D01*
X151157143Y-103478571D02*
X151157143Y-102692857D01*
X151228572Y-102550000D01*
X151371429Y-102478571D01*
X151657143Y-102478571D01*
X151800000Y-102550000D01*
X151157143Y-103407143D02*
X151300000Y-103478571D01*
X151657143Y-103478571D01*
X151800000Y-103407143D01*
X151871429Y-103264286D01*
X151871429Y-103121429D01*
X151800000Y-102978571D01*
X151657143Y-102907143D01*
X151300000Y-102907143D01*
X151157143Y-102835714D01*
X149800000Y-103407143D02*
X149942857Y-103478571D01*
X150228571Y-103478571D01*
X150371429Y-103407143D01*
X150442857Y-103335714D01*
X150514286Y-103192857D01*
X150514286Y-102764286D01*
X150442857Y-102621429D01*
X150371429Y-102550000D01*
X150228571Y-102478571D01*
X149942857Y-102478571D01*
X149800000Y-102550000D01*
X149157143Y-103478571D02*
X149157143Y-101978571D01*
X149014286Y-102907143D02*
X148585715Y-103478571D01*
X148585715Y-102478571D02*
X149157143Y-103050000D01*
X146800000Y-103478571D02*
X146800000Y-101978571D01*
X146800000Y-102692857D02*
X145942857Y-102692857D01*
X145942857Y-103478571D02*
X145942857Y-101978571D01*
X145157143Y-103407143D02*
X145157143Y-103478571D01*
X145228571Y-103621429D01*
X145300000Y-103692857D01*
X142871428Y-102692857D02*
X142657142Y-102764286D01*
X142585714Y-102835714D01*
X142514285Y-102978571D01*
X142514285Y-103192857D01*
X142585714Y-103335714D01*
X142657142Y-103407143D01*
X142800000Y-103478571D01*
X143371428Y-103478571D01*
X143371428Y-101978571D01*
X142871428Y-101978571D01*
X142728571Y-102050000D01*
X142657142Y-102121429D01*
X142585714Y-102264286D01*
X142585714Y-102407143D01*
X142657142Y-102550000D01*
X142728571Y-102621429D01*
X142871428Y-102692857D01*
X143371428Y-102692857D01*
X141300000Y-103407143D02*
X141442857Y-103478571D01*
X141728571Y-103478571D01*
X141871428Y-103407143D01*
X141942857Y-103264286D01*
X141942857Y-102692857D01*
X141871428Y-102550000D01*
X141728571Y-102478571D01*
X141442857Y-102478571D01*
X141300000Y-102550000D01*
X141228571Y-102692857D01*
X141228571Y-102835714D01*
X141942857Y-102978571D01*
X140585714Y-102478571D02*
X140585714Y-103478571D01*
X140585714Y-102621429D02*
X140514286Y-102550000D01*
X140371428Y-102478571D01*
X140157143Y-102478571D01*
X140014286Y-102550000D01*
X139942857Y-102692857D01*
X139942857Y-103478571D01*
X138085714Y-103478571D02*
X138085714Y-101978571D01*
X137514286Y-101978571D01*
X137371428Y-102050000D01*
X137300000Y-102121429D01*
X137228571Y-102264286D01*
X137228571Y-102478571D01*
X137300000Y-102621429D01*
X137371428Y-102692857D01*
X137514286Y-102764286D01*
X138085714Y-102764286D01*
X136514286Y-103407143D02*
X136514286Y-103478571D01*
X136585714Y-103621429D01*
X136657143Y-103692857D01*
X134942857Y-101978571D02*
X134085714Y-101978571D01*
X134514285Y-103478571D02*
X134514285Y-101978571D01*
X133014286Y-103407143D02*
X133157143Y-103478571D01*
X133442857Y-103478571D01*
X133585714Y-103407143D01*
X133657143Y-103264286D01*
X133657143Y-102692857D01*
X133585714Y-102550000D01*
X133442857Y-102478571D01*
X133157143Y-102478571D01*
X133014286Y-102550000D01*
X132942857Y-102692857D01*
X132942857Y-102835714D01*
X133657143Y-102978571D01*
X131657143Y-103478571D02*
X131657143Y-101978571D01*
X131657143Y-103407143D02*
X131800000Y-103478571D01*
X132085714Y-103478571D01*
X132228572Y-103407143D01*
X132300000Y-103335714D01*
X132371429Y-103192857D01*
X132371429Y-102764286D01*
X132300000Y-102621429D01*
X132228572Y-102550000D01*
X132085714Y-102478571D01*
X131800000Y-102478571D01*
X131657143Y-102550000D01*
X129085714Y-103478571D02*
X129800000Y-103478571D01*
X129800000Y-101978571D01*
X128514286Y-103407143D02*
X128514286Y-103478571D01*
X128585714Y-103621429D01*
X128657143Y-103692857D01*
X127942857Y-103407143D02*
X127728571Y-103478571D01*
X127371428Y-103478571D01*
X127228571Y-103407143D01*
X127157142Y-103335714D01*
X127085714Y-103192857D01*
X127085714Y-103050000D01*
X127157142Y-102907143D01*
X127228571Y-102835714D01*
X127371428Y-102764286D01*
X127657142Y-102692857D01*
X127800000Y-102621429D01*
X127871428Y-102550000D01*
X127942857Y-102407143D01*
X127942857Y-102264286D01*
X127871428Y-102121429D01*
X127800000Y-102050000D01*
X127657142Y-101978571D01*
X127300000Y-101978571D01*
X127085714Y-102050000D01*
X125800000Y-103407143D02*
X125942857Y-103478571D01*
X126228571Y-103478571D01*
X126371429Y-103407143D01*
X126442857Y-103335714D01*
X126514286Y-103192857D01*
X126514286Y-102764286D01*
X126442857Y-102621429D01*
X126371429Y-102550000D01*
X126228571Y-102478571D01*
X125942857Y-102478571D01*
X125800000Y-102550000D01*
X124942857Y-103478571D02*
X125085715Y-103407143D01*
X125157143Y-103335714D01*
X125228572Y-103192857D01*
X125228572Y-102764286D01*
X125157143Y-102621429D01*
X125085715Y-102550000D01*
X124942857Y-102478571D01*
X124728572Y-102478571D01*
X124585715Y-102550000D01*
X124514286Y-102621429D01*
X124442857Y-102764286D01*
X124442857Y-103192857D01*
X124514286Y-103335714D01*
X124585715Y-103407143D01*
X124728572Y-103478571D01*
X124942857Y-103478571D01*
X124014286Y-102478571D02*
X123442857Y-102478571D01*
X123800000Y-101978571D02*
X123800000Y-103264286D01*
X123728572Y-103407143D01*
X123585714Y-103478571D01*
X123442857Y-103478571D01*
X123157143Y-102478571D02*
X122585714Y-102478571D01*
X122942857Y-101978571D02*
X122942857Y-103264286D01*
X122871429Y-103407143D01*
X122728571Y-103478571D01*
X122585714Y-103478571D01*
X120942857Y-103478571D02*
X120942857Y-101978571D01*
X120371429Y-101978571D01*
X120228571Y-102050000D01*
X120157143Y-102121429D01*
X120085714Y-102264286D01*
X120085714Y-102478571D01*
X120157143Y-102621429D01*
X120228571Y-102692857D01*
X120371429Y-102764286D01*
X120942857Y-102764286D01*
X119371429Y-103407143D02*
X119371429Y-103478571D01*
X119442857Y-103621429D01*
X119514286Y-103692857D01*
X153157143Y-104378571D02*
X152657143Y-105878571D01*
X152157143Y-104378571D01*
X151014286Y-105878571D02*
X151014286Y-105092857D01*
X151085715Y-104950000D01*
X151228572Y-104878571D01*
X151514286Y-104878571D01*
X151657143Y-104950000D01*
X151014286Y-105807143D02*
X151157143Y-105878571D01*
X151514286Y-105878571D01*
X151657143Y-105807143D01*
X151728572Y-105664286D01*
X151728572Y-105521429D01*
X151657143Y-105378571D01*
X151514286Y-105307143D01*
X151157143Y-105307143D01*
X151014286Y-105235714D01*
X150300000Y-104878571D02*
X150300000Y-105878571D01*
X150300000Y-105021429D02*
X150228572Y-104950000D01*
X150085714Y-104878571D01*
X149871429Y-104878571D01*
X149728572Y-104950000D01*
X149657143Y-105092857D01*
X149657143Y-105878571D01*
X148300000Y-105807143D02*
X148442857Y-105878571D01*
X148728571Y-105878571D01*
X148871429Y-105807143D01*
X148942857Y-105735714D01*
X149014286Y-105592857D01*
X149014286Y-105164286D01*
X148942857Y-105021429D01*
X148871429Y-104950000D01*
X148728571Y-104878571D01*
X148442857Y-104878571D01*
X148300000Y-104950000D01*
X147085715Y-105807143D02*
X147228572Y-105878571D01*
X147514286Y-105878571D01*
X147657143Y-105807143D01*
X147728572Y-105664286D01*
X147728572Y-105092857D01*
X147657143Y-104950000D01*
X147514286Y-104878571D01*
X147228572Y-104878571D01*
X147085715Y-104950000D01*
X147014286Y-105092857D01*
X147014286Y-105235714D01*
X147728572Y-105378571D01*
X146300001Y-105807143D02*
X146300001Y-105878571D01*
X146371429Y-106021429D01*
X146442858Y-106092857D01*
X144585715Y-105450000D02*
X143871429Y-105450000D01*
X144728572Y-105878571D02*
X144228572Y-104378571D01*
X143728572Y-105878571D01*
X143228572Y-105878571D02*
X143228572Y-104878571D01*
X143228572Y-105164286D02*
X143157144Y-105021429D01*
X143085715Y-104950000D01*
X142942858Y-104878571D01*
X142800001Y-104878571D01*
X141657144Y-105878571D02*
X141657144Y-104378571D01*
X141657144Y-105807143D02*
X141800001Y-105878571D01*
X142085715Y-105878571D01*
X142228573Y-105807143D01*
X142300001Y-105735714D01*
X142371430Y-105592857D01*
X142371430Y-105164286D01*
X142300001Y-105021429D01*
X142228573Y-104950000D01*
X142085715Y-104878571D01*
X141800001Y-104878571D01*
X141657144Y-104950000D01*
X140300001Y-104878571D02*
X140300001Y-105878571D01*
X140942858Y-104878571D02*
X140942858Y-105664286D01*
X140871430Y-105807143D01*
X140728572Y-105878571D01*
X140514287Y-105878571D01*
X140371430Y-105807143D01*
X140300001Y-105735714D01*
X139585715Y-105878571D02*
X139585715Y-104878571D01*
X139585715Y-104378571D02*
X139657144Y-104450000D01*
X139585715Y-104521429D01*
X139514287Y-104450000D01*
X139585715Y-104378571D01*
X139585715Y-104521429D01*
X138871429Y-104878571D02*
X138871429Y-105878571D01*
X138871429Y-105021429D02*
X138800001Y-104950000D01*
X138657143Y-104878571D01*
X138442858Y-104878571D01*
X138300001Y-104950000D01*
X138228572Y-105092857D01*
X138228572Y-105878571D01*
X137300000Y-105878571D02*
X137442858Y-105807143D01*
X137514286Y-105735714D01*
X137585715Y-105592857D01*
X137585715Y-105164286D01*
X137514286Y-105021429D01*
X137442858Y-104950000D01*
X137300000Y-104878571D01*
X137085715Y-104878571D01*
X136942858Y-104950000D01*
X136871429Y-105021429D01*
X136800000Y-105164286D01*
X136800000Y-105592857D01*
X136871429Y-105735714D01*
X136942858Y-105807143D01*
X137085715Y-105878571D01*
X137300000Y-105878571D01*
X136085715Y-105807143D02*
X136085715Y-105878571D01*
X136157143Y-106021429D01*
X136228572Y-106092857D01*
X134371429Y-105807143D02*
X134157143Y-105878571D01*
X133800000Y-105878571D01*
X133657143Y-105807143D01*
X133585714Y-105735714D01*
X133514286Y-105592857D01*
X133514286Y-105450000D01*
X133585714Y-105307143D01*
X133657143Y-105235714D01*
X133800000Y-105164286D01*
X134085714Y-105092857D01*
X134228572Y-105021429D01*
X134300000Y-104950000D01*
X134371429Y-104807143D01*
X134371429Y-104664286D01*
X134300000Y-104521429D01*
X134228572Y-104450000D01*
X134085714Y-104378571D01*
X133728572Y-104378571D01*
X133514286Y-104450000D01*
X132871429Y-104878571D02*
X132871429Y-106378571D01*
X132871429Y-104950000D02*
X132728572Y-104878571D01*
X132442858Y-104878571D01*
X132300001Y-104950000D01*
X132228572Y-105021429D01*
X132157143Y-105164286D01*
X132157143Y-105592857D01*
X132228572Y-105735714D01*
X132300001Y-105807143D01*
X132442858Y-105878571D01*
X132728572Y-105878571D01*
X132871429Y-105807143D01*
X130871429Y-105878571D02*
X130871429Y-105092857D01*
X130942858Y-104950000D01*
X131085715Y-104878571D01*
X131371429Y-104878571D01*
X131514286Y-104950000D01*
X130871429Y-105807143D02*
X131014286Y-105878571D01*
X131371429Y-105878571D01*
X131514286Y-105807143D01*
X131585715Y-105664286D01*
X131585715Y-105521429D01*
X131514286Y-105378571D01*
X131371429Y-105307143D01*
X131014286Y-105307143D01*
X130871429Y-105235714D01*
X130157143Y-105878571D02*
X130157143Y-104878571D01*
X130157143Y-105164286D02*
X130085715Y-105021429D01*
X130014286Y-104950000D01*
X129871429Y-104878571D01*
X129728572Y-104878571D01*
X129228572Y-105878571D02*
X129228572Y-104378571D01*
X129085715Y-105307143D02*
X128657144Y-105878571D01*
X128657144Y-104878571D02*
X129228572Y-105450000D01*
X128228572Y-104878571D02*
X127657143Y-104878571D01*
X128014286Y-105878571D02*
X128014286Y-104592857D01*
X127942858Y-104450000D01*
X127800000Y-104378571D01*
X127657143Y-104378571D01*
X126514286Y-104878571D02*
X126514286Y-105878571D01*
X127157143Y-104878571D02*
X127157143Y-105664286D01*
X127085715Y-105807143D01*
X126942857Y-105878571D01*
X126728572Y-105878571D01*
X126585715Y-105807143D01*
X126514286Y-105735714D01*
X125800000Y-104878571D02*
X125800000Y-105878571D01*
X125800000Y-105021429D02*
X125728572Y-104950000D01*
X125585714Y-104878571D01*
X125371429Y-104878571D01*
X125228572Y-104950000D01*
X125157143Y-105092857D01*
X125157143Y-105878571D01*
X124371429Y-105807143D02*
X124371429Y-105878571D01*
X124442857Y-106021429D01*
X124514286Y-106092857D01*
X122657143Y-105450000D02*
X121942857Y-105450000D01*
X122800000Y-105878571D02*
X122300000Y-104378571D01*
X121800000Y-105878571D01*
X120657143Y-105878571D02*
X120657143Y-104378571D01*
X120657143Y-105807143D02*
X120800000Y-105878571D01*
X121085714Y-105878571D01*
X121228572Y-105807143D01*
X121300000Y-105735714D01*
X121371429Y-105592857D01*
X121371429Y-105164286D01*
X121300000Y-105021429D01*
X121228572Y-104950000D01*
X121085714Y-104878571D01*
X120800000Y-104878571D01*
X120657143Y-104950000D01*
X119300000Y-105878571D02*
X119300000Y-105092857D01*
X119371429Y-104950000D01*
X119514286Y-104878571D01*
X119800000Y-104878571D01*
X119942857Y-104950000D01*
X119300000Y-105807143D02*
X119442857Y-105878571D01*
X119800000Y-105878571D01*
X119942857Y-105807143D01*
X120014286Y-105664286D01*
X120014286Y-105521429D01*
X119942857Y-105378571D01*
X119800000Y-105307143D01*
X119442857Y-105307143D01*
X119300000Y-105235714D01*
X118800000Y-104878571D02*
X118228571Y-104878571D01*
X118585714Y-105878571D02*
X118585714Y-104592857D01*
X118514286Y-104450000D01*
X118371428Y-104378571D01*
X118228571Y-104378571D01*
X117728571Y-105878571D02*
X117728571Y-104878571D01*
X117728571Y-105164286D02*
X117657143Y-105021429D01*
X117585714Y-104950000D01*
X117442857Y-104878571D01*
X117300000Y-104878571D01*
X116157143Y-104878571D02*
X116157143Y-105878571D01*
X116800000Y-104878571D02*
X116800000Y-105664286D01*
X116728572Y-105807143D01*
X116585714Y-105878571D01*
X116371429Y-105878571D01*
X116228572Y-105807143D01*
X116157143Y-105735714D01*
X115442857Y-105878571D02*
X115442857Y-104878571D01*
X115442857Y-104378571D02*
X115514286Y-104450000D01*
X115442857Y-104521429D01*
X115371429Y-104450000D01*
X115442857Y-104378571D01*
X115442857Y-104521429D01*
X114942857Y-104878571D02*
X114371428Y-104878571D01*
X114728571Y-104378571D02*
X114728571Y-105664286D01*
X114657143Y-105807143D01*
X114514285Y-105878571D01*
X114371428Y-105878571D01*
X113800000Y-105807143D02*
X113800000Y-105878571D01*
X113871428Y-106021429D01*
X113942857Y-106092857D01*
X152942857Y-108278571D02*
X152942857Y-106778571D01*
X152085714Y-108278571D02*
X152728571Y-107421429D01*
X152085714Y-106778571D02*
X152942857Y-107635714D01*
X151442857Y-108278571D02*
X151442857Y-107278571D01*
X151442857Y-106778571D02*
X151514286Y-106850000D01*
X151442857Y-106921429D01*
X151371429Y-106850000D01*
X151442857Y-106778571D01*
X151442857Y-106921429D01*
X149871428Y-108135714D02*
X149942857Y-108207143D01*
X150157143Y-108278571D01*
X150300000Y-108278571D01*
X150514285Y-108207143D01*
X150657143Y-108064286D01*
X150728571Y-107921429D01*
X150800000Y-107635714D01*
X150800000Y-107421429D01*
X150728571Y-107135714D01*
X150657143Y-106992857D01*
X150514285Y-106850000D01*
X150300000Y-106778571D01*
X150157143Y-106778571D01*
X149942857Y-106850000D01*
X149871428Y-106921429D01*
X148585714Y-108278571D02*
X148585714Y-107492857D01*
X148657143Y-107350000D01*
X148800000Y-107278571D01*
X149085714Y-107278571D01*
X149228571Y-107350000D01*
X148585714Y-108207143D02*
X148728571Y-108278571D01*
X149085714Y-108278571D01*
X149228571Y-108207143D01*
X149300000Y-108064286D01*
X149300000Y-107921429D01*
X149228571Y-107778571D01*
X149085714Y-107707143D01*
X148728571Y-107707143D01*
X148585714Y-107635714D01*
X147228571Y-108278571D02*
X147228571Y-106778571D01*
X147228571Y-108207143D02*
X147371428Y-108278571D01*
X147657142Y-108278571D01*
X147800000Y-108207143D01*
X147871428Y-108135714D01*
X147942857Y-107992857D01*
X147942857Y-107564286D01*
X147871428Y-107421429D01*
X147800000Y-107350000D01*
X147657142Y-107278571D01*
X147371428Y-107278571D01*
X147228571Y-107350000D01*
X144728571Y-108278571D02*
X144728571Y-107492857D01*
X144800000Y-107350000D01*
X144942857Y-107278571D01*
X145228571Y-107278571D01*
X145371428Y-107350000D01*
X144728571Y-108207143D02*
X144871428Y-108278571D01*
X145228571Y-108278571D01*
X145371428Y-108207143D01*
X145442857Y-108064286D01*
X145442857Y-107921429D01*
X145371428Y-107778571D01*
X145228571Y-107707143D01*
X144871428Y-107707143D01*
X144728571Y-107635714D01*
X144014285Y-107278571D02*
X144014285Y-108278571D01*
X144014285Y-107421429D02*
X143942857Y-107350000D01*
X143799999Y-107278571D01*
X143585714Y-107278571D01*
X143442857Y-107350000D01*
X143371428Y-107492857D01*
X143371428Y-108278571D01*
X142014285Y-108278571D02*
X142014285Y-106778571D01*
X142014285Y-108207143D02*
X142157142Y-108278571D01*
X142442856Y-108278571D01*
X142585714Y-108207143D01*
X142657142Y-108135714D01*
X142728571Y-107992857D01*
X142728571Y-107564286D01*
X142657142Y-107421429D01*
X142585714Y-107350000D01*
X142442856Y-107278571D01*
X142157142Y-107278571D01*
X142014285Y-107350000D01*
X139585714Y-108207143D02*
X139728571Y-108278571D01*
X140014285Y-108278571D01*
X140157142Y-108207143D01*
X140228571Y-108064286D01*
X140228571Y-107492857D01*
X140157142Y-107350000D01*
X140014285Y-107278571D01*
X139728571Y-107278571D01*
X139585714Y-107350000D01*
X139514285Y-107492857D01*
X139514285Y-107635714D01*
X140228571Y-107778571D01*
X139014285Y-107278571D02*
X138657142Y-108278571D01*
X138300000Y-107278571D01*
X137157143Y-108207143D02*
X137300000Y-108278571D01*
X137585714Y-108278571D01*
X137728571Y-108207143D01*
X137800000Y-108064286D01*
X137800000Y-107492857D01*
X137728571Y-107350000D01*
X137585714Y-107278571D01*
X137300000Y-107278571D01*
X137157143Y-107350000D01*
X137085714Y-107492857D01*
X137085714Y-107635714D01*
X137800000Y-107778571D01*
X136442857Y-108278571D02*
X136442857Y-107278571D01*
X136442857Y-107564286D02*
X136371429Y-107421429D01*
X136300000Y-107350000D01*
X136157143Y-107278571D01*
X136014286Y-107278571D01*
X135657143Y-107278571D02*
X135300000Y-108278571D01*
X134942858Y-107278571D02*
X135300000Y-108278571D01*
X135442858Y-108635714D01*
X135514286Y-108707143D01*
X135657143Y-108778571D01*
X134157143Y-108278571D02*
X134300001Y-108207143D01*
X134371429Y-108135714D01*
X134442858Y-107992857D01*
X134442858Y-107564286D01*
X134371429Y-107421429D01*
X134300001Y-107350000D01*
X134157143Y-107278571D01*
X133942858Y-107278571D01*
X133800001Y-107350000D01*
X133728572Y-107421429D01*
X133657143Y-107564286D01*
X133657143Y-107992857D01*
X133728572Y-108135714D01*
X133800001Y-108207143D01*
X133942858Y-108278571D01*
X134157143Y-108278571D01*
X133014286Y-107278571D02*
X133014286Y-108278571D01*
X133014286Y-107421429D02*
X132942858Y-107350000D01*
X132800000Y-107278571D01*
X132585715Y-107278571D01*
X132442858Y-107350000D01*
X132371429Y-107492857D01*
X132371429Y-108278571D01*
X131085715Y-108207143D02*
X131228572Y-108278571D01*
X131514286Y-108278571D01*
X131657143Y-108207143D01*
X131728572Y-108064286D01*
X131728572Y-107492857D01*
X131657143Y-107350000D01*
X131514286Y-107278571D01*
X131228572Y-107278571D01*
X131085715Y-107350000D01*
X131014286Y-107492857D01*
X131014286Y-107635714D01*
X131728572Y-107778571D01*
X129371429Y-107278571D02*
X129085715Y-108278571D01*
X128800001Y-107564286D01*
X128514286Y-108278571D01*
X128228572Y-107278571D01*
X127657143Y-108278571D02*
X127657143Y-106778571D01*
X127014286Y-108278571D02*
X127014286Y-107492857D01*
X127085715Y-107350000D01*
X127228572Y-107278571D01*
X127442857Y-107278571D01*
X127585715Y-107350000D01*
X127657143Y-107421429D01*
X126085714Y-108278571D02*
X126228572Y-108207143D01*
X126300000Y-108135714D01*
X126371429Y-107992857D01*
X126371429Y-107564286D01*
X126300000Y-107421429D01*
X126228572Y-107350000D01*
X126085714Y-107278571D01*
X125871429Y-107278571D01*
X125728572Y-107350000D01*
X125657143Y-107421429D01*
X125585714Y-107564286D01*
X125585714Y-107992857D01*
X125657143Y-108135714D01*
X125728572Y-108207143D01*
X125871429Y-108278571D01*
X126085714Y-108278571D01*
X123871429Y-108207143D02*
X123728572Y-108278571D01*
X123442857Y-108278571D01*
X123300000Y-108207143D01*
X123228572Y-108064286D01*
X123228572Y-107992857D01*
X123300000Y-107850000D01*
X123442857Y-107778571D01*
X123657143Y-107778571D01*
X123800000Y-107707143D01*
X123871429Y-107564286D01*
X123871429Y-107492857D01*
X123800000Y-107350000D01*
X123657143Y-107278571D01*
X123442857Y-107278571D01*
X123300000Y-107350000D01*
X122585714Y-108278571D02*
X122585714Y-106778571D01*
X121942857Y-108278571D02*
X121942857Y-107492857D01*
X122014286Y-107350000D01*
X122157143Y-107278571D01*
X122371428Y-107278571D01*
X122514286Y-107350000D01*
X122585714Y-107421429D01*
X120585714Y-108278571D02*
X120585714Y-107492857D01*
X120657143Y-107350000D01*
X120800000Y-107278571D01*
X121085714Y-107278571D01*
X121228571Y-107350000D01*
X120585714Y-108207143D02*
X120728571Y-108278571D01*
X121085714Y-108278571D01*
X121228571Y-108207143D01*
X121300000Y-108064286D01*
X121300000Y-107921429D01*
X121228571Y-107778571D01*
X121085714Y-107707143D01*
X120728571Y-107707143D01*
X120585714Y-107635714D01*
X119871428Y-108278571D02*
X119871428Y-107278571D01*
X119871428Y-107564286D02*
X119800000Y-107421429D01*
X119728571Y-107350000D01*
X119585714Y-107278571D01*
X119442857Y-107278571D01*
X118371429Y-108207143D02*
X118514286Y-108278571D01*
X118800000Y-108278571D01*
X118942857Y-108207143D01*
X119014286Y-108064286D01*
X119014286Y-107492857D01*
X118942857Y-107350000D01*
X118800000Y-107278571D01*
X118514286Y-107278571D01*
X118371429Y-107350000D01*
X118300000Y-107492857D01*
X118300000Y-107635714D01*
X119014286Y-107778571D01*
X117728572Y-108207143D02*
X117585715Y-108278571D01*
X117300000Y-108278571D01*
X117157143Y-108207143D01*
X117085715Y-108064286D01*
X117085715Y-107992857D01*
X117157143Y-107850000D01*
X117300000Y-107778571D01*
X117514286Y-107778571D01*
X117657143Y-107707143D01*
X117728572Y-107564286D01*
X117728572Y-107492857D01*
X117657143Y-107350000D01*
X117514286Y-107278571D01*
X117300000Y-107278571D01*
X117157143Y-107350000D01*
X153157143Y-109678571D02*
X152585714Y-109678571D01*
X152942857Y-109178571D02*
X152942857Y-110464286D01*
X152871429Y-110607143D01*
X152728571Y-110678571D01*
X152585714Y-110678571D01*
X152085714Y-110678571D02*
X152085714Y-109178571D01*
X151442857Y-110678571D02*
X151442857Y-109892857D01*
X151514286Y-109750000D01*
X151657143Y-109678571D01*
X151871428Y-109678571D01*
X152014286Y-109750000D01*
X152085714Y-109821429D01*
X150157143Y-110607143D02*
X150300000Y-110678571D01*
X150585714Y-110678571D01*
X150728571Y-110607143D01*
X150800000Y-110464286D01*
X150800000Y-109892857D01*
X150728571Y-109750000D01*
X150585714Y-109678571D01*
X150300000Y-109678571D01*
X150157143Y-109750000D01*
X150085714Y-109892857D01*
X150085714Y-110035714D01*
X150800000Y-110178571D01*
X149442857Y-110678571D02*
X149442857Y-109678571D01*
X149442857Y-109178571D02*
X149514286Y-109250000D01*
X149442857Y-109321429D01*
X149371429Y-109250000D01*
X149442857Y-109178571D01*
X149442857Y-109321429D01*
X148728571Y-110678571D02*
X148728571Y-109678571D01*
X148728571Y-109964286D02*
X148657143Y-109821429D01*
X148585714Y-109750000D01*
X148442857Y-109678571D01*
X148300000Y-109678571D01*
X146657143Y-110678571D02*
X146657143Y-109678571D01*
X146657143Y-109178571D02*
X146728572Y-109250000D01*
X146657143Y-109321429D01*
X146585715Y-109250000D01*
X146657143Y-109178571D01*
X146657143Y-109321429D01*
X145300000Y-110678571D02*
X145300000Y-109178571D01*
X145300000Y-110607143D02*
X145442857Y-110678571D01*
X145728571Y-110678571D01*
X145871429Y-110607143D01*
X145942857Y-110535714D01*
X146014286Y-110392857D01*
X146014286Y-109964286D01*
X145942857Y-109821429D01*
X145871429Y-109750000D01*
X145728571Y-109678571D01*
X145442857Y-109678571D01*
X145300000Y-109750000D01*
X144014286Y-110607143D02*
X144157143Y-110678571D01*
X144442857Y-110678571D01*
X144585714Y-110607143D01*
X144657143Y-110464286D01*
X144657143Y-109892857D01*
X144585714Y-109750000D01*
X144442857Y-109678571D01*
X144157143Y-109678571D01*
X144014286Y-109750000D01*
X143942857Y-109892857D01*
X143942857Y-110035714D01*
X144657143Y-110178571D01*
X142657143Y-110678571D02*
X142657143Y-109892857D01*
X142728572Y-109750000D01*
X142871429Y-109678571D01*
X143157143Y-109678571D01*
X143300000Y-109750000D01*
X142657143Y-110607143D02*
X142800000Y-110678571D01*
X143157143Y-110678571D01*
X143300000Y-110607143D01*
X143371429Y-110464286D01*
X143371429Y-110321429D01*
X143300000Y-110178571D01*
X143157143Y-110107143D01*
X142800000Y-110107143D01*
X142657143Y-110035714D01*
X142014286Y-110607143D02*
X141871429Y-110678571D01*
X141585714Y-110678571D01*
X141442857Y-110607143D01*
X141371429Y-110464286D01*
X141371429Y-110392857D01*
X141442857Y-110250000D01*
X141585714Y-110178571D01*
X141800000Y-110178571D01*
X141942857Y-110107143D01*
X142014286Y-109964286D01*
X142014286Y-109892857D01*
X141942857Y-109750000D01*
X141800000Y-109678571D01*
X141585714Y-109678571D01*
X141442857Y-109750000D01*
X138942857Y-110678571D02*
X138942857Y-109892857D01*
X139014286Y-109750000D01*
X139157143Y-109678571D01*
X139442857Y-109678571D01*
X139585714Y-109750000D01*
X138942857Y-110607143D02*
X139085714Y-110678571D01*
X139442857Y-110678571D01*
X139585714Y-110607143D01*
X139657143Y-110464286D01*
X139657143Y-110321429D01*
X139585714Y-110178571D01*
X139442857Y-110107143D01*
X139085714Y-110107143D01*
X138942857Y-110035714D01*
X138228571Y-109678571D02*
X138228571Y-110678571D01*
X138228571Y-109821429D02*
X138157143Y-109750000D01*
X138014285Y-109678571D01*
X137800000Y-109678571D01*
X137657143Y-109750000D01*
X137585714Y-109892857D01*
X137585714Y-110678571D01*
X136228571Y-110678571D02*
X136228571Y-109178571D01*
X136228571Y-110607143D02*
X136371428Y-110678571D01*
X136657142Y-110678571D01*
X136800000Y-110607143D01*
X136871428Y-110535714D01*
X136942857Y-110392857D01*
X136942857Y-109964286D01*
X136871428Y-109821429D01*
X136800000Y-109750000D01*
X136657142Y-109678571D01*
X136371428Y-109678571D01*
X136228571Y-109750000D01*
X133800000Y-110607143D02*
X133942857Y-110678571D01*
X134228571Y-110678571D01*
X134371428Y-110607143D01*
X134442857Y-110464286D01*
X134442857Y-109892857D01*
X134371428Y-109750000D01*
X134228571Y-109678571D01*
X133942857Y-109678571D01*
X133800000Y-109750000D01*
X133728571Y-109892857D01*
X133728571Y-110035714D01*
X134442857Y-110178571D01*
X133085714Y-109678571D02*
X133085714Y-110678571D01*
X133085714Y-109821429D02*
X133014286Y-109750000D01*
X132871428Y-109678571D01*
X132657143Y-109678571D01*
X132514286Y-109750000D01*
X132442857Y-109892857D01*
X132442857Y-110678571D01*
X131942857Y-109678571D02*
X131371428Y-109678571D01*
X131728571Y-109178571D02*
X131728571Y-110464286D01*
X131657143Y-110607143D01*
X131514285Y-110678571D01*
X131371428Y-110678571D01*
X130871428Y-110678571D02*
X130871428Y-109178571D01*
X130228571Y-110678571D02*
X130228571Y-109892857D01*
X130300000Y-109750000D01*
X130442857Y-109678571D01*
X130657142Y-109678571D01*
X130800000Y-109750000D01*
X130871428Y-109821429D01*
X128871428Y-109678571D02*
X128871428Y-110678571D01*
X129514285Y-109678571D02*
X129514285Y-110464286D01*
X129442857Y-110607143D01*
X129299999Y-110678571D01*
X129085714Y-110678571D01*
X128942857Y-110607143D01*
X128871428Y-110535714D01*
X128228571Y-110607143D02*
X128085714Y-110678571D01*
X127799999Y-110678571D01*
X127657142Y-110607143D01*
X127585714Y-110464286D01*
X127585714Y-110392857D01*
X127657142Y-110250000D01*
X127799999Y-110178571D01*
X128014285Y-110178571D01*
X128157142Y-110107143D01*
X128228571Y-109964286D01*
X128228571Y-109892857D01*
X128157142Y-109750000D01*
X128014285Y-109678571D01*
X127799999Y-109678571D01*
X127657142Y-109750000D01*
X126942856Y-110678571D02*
X126942856Y-109678571D01*
X126942856Y-109178571D02*
X127014285Y-109250000D01*
X126942856Y-109321429D01*
X126871428Y-109250000D01*
X126942856Y-109178571D01*
X126942856Y-109321429D01*
X125585713Y-110678571D02*
X125585713Y-109892857D01*
X125657142Y-109750000D01*
X125799999Y-109678571D01*
X126085713Y-109678571D01*
X126228570Y-109750000D01*
X125585713Y-110607143D02*
X125728570Y-110678571D01*
X126085713Y-110678571D01*
X126228570Y-110607143D01*
X126299999Y-110464286D01*
X126299999Y-110321429D01*
X126228570Y-110178571D01*
X126085713Y-110107143D01*
X125728570Y-110107143D01*
X125585713Y-110035714D01*
X124871427Y-110678571D02*
X124871427Y-109678571D01*
X124871427Y-109821429D02*
X124799999Y-109750000D01*
X124657141Y-109678571D01*
X124442856Y-109678571D01*
X124299999Y-109750000D01*
X124228570Y-109892857D01*
X124228570Y-110678571D01*
X124228570Y-109892857D02*
X124157141Y-109750000D01*
X124014284Y-109678571D01*
X123799999Y-109678571D01*
X123657141Y-109750000D01*
X123585713Y-109892857D01*
X123585713Y-110678571D01*
X122871427Y-110535714D02*
X122799999Y-110607143D01*
X122871427Y-110678571D01*
X122942856Y-110607143D01*
X122871427Y-110535714D01*
X122871427Y-110678571D01*
X124662571Y-92366858D02*
X123162571Y-92366858D01*
X123162571Y-92724001D01*
X123234000Y-92938286D01*
X123376857Y-93081144D01*
X123519714Y-93152572D01*
X123805429Y-93224001D01*
X124019714Y-93224001D01*
X124305429Y-93152572D01*
X124448286Y-93081144D01*
X124591143Y-92938286D01*
X124662571Y-92724001D01*
X124662571Y-92366858D01*
X123162571Y-94581144D02*
X123162571Y-93866858D01*
X123876857Y-93795429D01*
X123805429Y-93866858D01*
X123734000Y-94009715D01*
X123734000Y-94366858D01*
X123805429Y-94509715D01*
X123876857Y-94581144D01*
X124019714Y-94652572D01*
X124376857Y-94652572D01*
X124519714Y-94581144D01*
X124591143Y-94509715D01*
X124662571Y-94366858D01*
X124662571Y-94009715D01*
X124591143Y-93866858D01*
X124519714Y-93795429D01*
X127202571Y-92366858D02*
X125702571Y-92366858D01*
X125702571Y-92724001D01*
X125774000Y-92938286D01*
X125916857Y-93081144D01*
X126059714Y-93152572D01*
X126345429Y-93224001D01*
X126559714Y-93224001D01*
X126845429Y-93152572D01*
X126988286Y-93081144D01*
X127131143Y-92938286D01*
X127202571Y-92724001D01*
X127202571Y-92366858D01*
X125702571Y-94509715D02*
X125702571Y-94224001D01*
X125774000Y-94081144D01*
X125845429Y-94009715D01*
X126059714Y-93866858D01*
X126345429Y-93795429D01*
X126916857Y-93795429D01*
X127059714Y-93866858D01*
X127131143Y-93938286D01*
X127202571Y-94081144D01*
X127202571Y-94366858D01*
X127131143Y-94509715D01*
X127059714Y-94581144D01*
X126916857Y-94652572D01*
X126559714Y-94652572D01*
X126416857Y-94581144D01*
X126345429Y-94509715D01*
X126274000Y-94366858D01*
X126274000Y-94081144D01*
X126345429Y-93938286D01*
X126416857Y-93866858D01*
X126559714Y-93795429D01*
X129996571Y-92366858D02*
X128496571Y-92366858D01*
X128496571Y-92724001D01*
X128568000Y-92938286D01*
X128710857Y-93081144D01*
X128853714Y-93152572D01*
X129139429Y-93224001D01*
X129353714Y-93224001D01*
X129639429Y-93152572D01*
X129782286Y-93081144D01*
X129925143Y-92938286D01*
X129996571Y-92724001D01*
X129996571Y-92366858D01*
X129996571Y-93938286D02*
X129996571Y-94224001D01*
X129925143Y-94366858D01*
X129853714Y-94438286D01*
X129639429Y-94581144D01*
X129353714Y-94652572D01*
X128782286Y-94652572D01*
X128639429Y-94581144D01*
X128568000Y-94509715D01*
X128496571Y-94366858D01*
X128496571Y-94081144D01*
X128568000Y-93938286D01*
X128639429Y-93866858D01*
X128782286Y-93795429D01*
X129139429Y-93795429D01*
X129282286Y-93866858D01*
X129353714Y-93938286D01*
X129425143Y-94081144D01*
X129425143Y-94366858D01*
X129353714Y-94509715D01*
X129282286Y-94581144D01*
X129139429Y-94652572D01*
X132536571Y-92414572D02*
X131036571Y-92414572D01*
X131036571Y-92771715D01*
X131108000Y-92986000D01*
X131250857Y-93128858D01*
X131393714Y-93200286D01*
X131679429Y-93271715D01*
X131893714Y-93271715D01*
X132179429Y-93200286D01*
X132322286Y-93128858D01*
X132465143Y-92986000D01*
X132536571Y-92771715D01*
X132536571Y-92414572D01*
X132536571Y-94700286D02*
X132536571Y-93843143D01*
X132536571Y-94271715D02*
X131036571Y-94271715D01*
X131250857Y-94128858D01*
X131393714Y-93986000D01*
X131465143Y-93843143D01*
X131036571Y-95628857D02*
X131036571Y-95771714D01*
X131108000Y-95914571D01*
X131179429Y-95986000D01*
X131322286Y-96057429D01*
X131608000Y-96128857D01*
X131965143Y-96128857D01*
X132250857Y-96057429D01*
X132393714Y-95986000D01*
X132465143Y-95914571D01*
X132536571Y-95771714D01*
X132536571Y-95628857D01*
X132465143Y-95486000D01*
X132393714Y-95414571D01*
X132250857Y-95343143D01*
X131965143Y-95271714D01*
X131608000Y-95271714D01*
X131322286Y-95343143D01*
X131179429Y-95414571D01*
X131108000Y-95486000D01*
X131036571Y-95628857D01*
D10*
G36*
X153505650Y-90208500D02*
X153508977Y-90320311D01*
X153639553Y-90356127D01*
X153673042Y-90356667D01*
X153787407Y-90340694D01*
X153872455Y-90270160D01*
X153949994Y-90111140D01*
X154041832Y-89829711D01*
X154067643Y-89742833D01*
X154163413Y-89437471D01*
X154249872Y-89196137D01*
X154310274Y-89065038D01*
X154315899Y-89057896D01*
X154375343Y-89091073D01*
X154459838Y-89250167D01*
X154530077Y-89438896D01*
X154620568Y-89698891D01*
X154698418Y-89890305D01*
X154733877Y-89954236D01*
X154809289Y-89925198D01*
X154951560Y-89787973D01*
X155125636Y-89577654D01*
X155304970Y-89348128D01*
X155409107Y-89240421D01*
X155462040Y-89239109D01*
X155487761Y-89328770D01*
X155489950Y-89343463D01*
X155500579Y-89533606D01*
X155498970Y-89825840D01*
X155487182Y-90122212D01*
X155473778Y-90425713D01*
X155483138Y-90597555D01*
X155524913Y-90674905D01*
X155608754Y-90694928D01*
X155636004Y-90695333D01*
X155738503Y-90675761D01*
X155802103Y-90591684D01*
X155844027Y-90405059D01*
X155871605Y-90174913D01*
X155900323Y-89805683D01*
X155920035Y-89371573D01*
X155926000Y-89031913D01*
X155921577Y-88710457D01*
X155902161Y-88523060D01*
X155858537Y-88434549D01*
X155781485Y-88409746D01*
X155762852Y-88409333D01*
X155618033Y-88476386D01*
X155421566Y-88656577D01*
X155276019Y-88829060D01*
X155098896Y-89048433D01*
X154960024Y-89201665D01*
X154895736Y-89252393D01*
X154842923Y-89180332D01*
X154758092Y-88987657D01*
X154659288Y-88715521D01*
X154656000Y-88705667D01*
X154539603Y-88393574D01*
X154438857Y-88219926D01*
X154336538Y-88157052D01*
X154313434Y-88155333D01*
X154260438Y-88163208D01*
X154210172Y-88199134D01*
X154155376Y-88281562D01*
X154088790Y-88428943D01*
X154003157Y-88659729D01*
X153891215Y-88992370D01*
X153745706Y-89445319D01*
X153559371Y-90037026D01*
X153505650Y-90208500D01*
X153505650Y-90208500D01*
X153505650Y-90208500D01*
G37*
X153505650Y-90208500D02*
X153508977Y-90320311D01*
X153639553Y-90356127D01*
X153673042Y-90356667D01*
X153787407Y-90340694D01*
X153872455Y-90270160D01*
X153949994Y-90111140D01*
X154041832Y-89829711D01*
X154067643Y-89742833D01*
X154163413Y-89437471D01*
X154249872Y-89196137D01*
X154310274Y-89065038D01*
X154315899Y-89057896D01*
X154375343Y-89091073D01*
X154459838Y-89250167D01*
X154530077Y-89438896D01*
X154620568Y-89698891D01*
X154698418Y-89890305D01*
X154733877Y-89954236D01*
X154809289Y-89925198D01*
X154951560Y-89787973D01*
X155125636Y-89577654D01*
X155304970Y-89348128D01*
X155409107Y-89240421D01*
X155462040Y-89239109D01*
X155487761Y-89328770D01*
X155489950Y-89343463D01*
X155500579Y-89533606D01*
X155498970Y-89825840D01*
X155487182Y-90122212D01*
X155473778Y-90425713D01*
X155483138Y-90597555D01*
X155524913Y-90674905D01*
X155608754Y-90694928D01*
X155636004Y-90695333D01*
X155738503Y-90675761D01*
X155802103Y-90591684D01*
X155844027Y-90405059D01*
X155871605Y-90174913D01*
X155900323Y-89805683D01*
X155920035Y-89371573D01*
X155926000Y-89031913D01*
X155921577Y-88710457D01*
X155902161Y-88523060D01*
X155858537Y-88434549D01*
X155781485Y-88409746D01*
X155762852Y-88409333D01*
X155618033Y-88476386D01*
X155421566Y-88656577D01*
X155276019Y-88829060D01*
X155098896Y-89048433D01*
X154960024Y-89201665D01*
X154895736Y-89252393D01*
X154842923Y-89180332D01*
X154758092Y-88987657D01*
X154659288Y-88715521D01*
X154656000Y-88705667D01*
X154539603Y-88393574D01*
X154438857Y-88219926D01*
X154336538Y-88157052D01*
X154313434Y-88155333D01*
X154260438Y-88163208D01*
X154210172Y-88199134D01*
X154155376Y-88281562D01*
X154088790Y-88428943D01*
X154003157Y-88659729D01*
X153891215Y-88992370D01*
X153745706Y-89445319D01*
X153559371Y-90037026D01*
X153505650Y-90208500D01*
X153505650Y-90208500D01*
G36*
X151946666Y-89826018D02*
X152022216Y-89983175D01*
X152216315Y-90102902D01*
X152480139Y-90173454D01*
X152764862Y-90183085D01*
X153021661Y-90120051D01*
X153068502Y-90095884D01*
X153238434Y-89927675D01*
X153385077Y-89671450D01*
X153465722Y-89407410D01*
X153470666Y-89340667D01*
X153397538Y-89016307D01*
X153204705Y-88754207D01*
X152931995Y-88583394D01*
X152619237Y-88532894D01*
X152420713Y-88575481D01*
X152262343Y-88689620D01*
X152113847Y-88878001D01*
X152010538Y-89082408D01*
X151987731Y-89244627D01*
X151998540Y-89271436D01*
X152113374Y-89332758D01*
X152329193Y-89377610D01*
X152577946Y-89399530D01*
X152791579Y-89392058D01*
X152895891Y-89356642D01*
X152906667Y-89279686D01*
X152762991Y-89210440D01*
X152699026Y-89192525D01*
X152486060Y-89108108D01*
X152440533Y-89006561D01*
X152561107Y-88884458D01*
X152575128Y-88875433D01*
X152750744Y-88836593D01*
X152897322Y-88925576D01*
X152998231Y-89101325D01*
X153036838Y-89322787D01*
X152996511Y-89548905D01*
X152906838Y-89694245D01*
X152689279Y-89814670D01*
X152385056Y-89815337D01*
X152094833Y-89725510D01*
X151976731Y-89711944D01*
X151946666Y-89826018D01*
X151946666Y-89826018D01*
X151946666Y-89826018D01*
G37*
X151946666Y-89826018D02*
X152022216Y-89983175D01*
X152216315Y-90102902D01*
X152480139Y-90173454D01*
X152764862Y-90183085D01*
X153021661Y-90120051D01*
X153068502Y-90095884D01*
X153238434Y-89927675D01*
X153385077Y-89671450D01*
X153465722Y-89407410D01*
X153470666Y-89340667D01*
X153397538Y-89016307D01*
X153204705Y-88754207D01*
X152931995Y-88583394D01*
X152619237Y-88532894D01*
X152420713Y-88575481D01*
X152262343Y-88689620D01*
X152113847Y-88878001D01*
X152010538Y-89082408D01*
X151987731Y-89244627D01*
X151998540Y-89271436D01*
X152113374Y-89332758D01*
X152329193Y-89377610D01*
X152577946Y-89399530D01*
X152791579Y-89392058D01*
X152895891Y-89356642D01*
X152906667Y-89279686D01*
X152762991Y-89210440D01*
X152699026Y-89192525D01*
X152486060Y-89108108D01*
X152440533Y-89006561D01*
X152561107Y-88884458D01*
X152575128Y-88875433D01*
X152750744Y-88836593D01*
X152897322Y-88925576D01*
X152998231Y-89101325D01*
X153036838Y-89322787D01*
X152996511Y-89548905D01*
X152906838Y-89694245D01*
X152689279Y-89814670D01*
X152385056Y-89815337D01*
X152094833Y-89725510D01*
X151976731Y-89711944D01*
X151946666Y-89826018D01*
X151946666Y-89826018D01*
G36*
X151022340Y-87787345D02*
X151050013Y-88084020D01*
X151118249Y-88517652D01*
X151228263Y-89098792D01*
X151303397Y-89467667D01*
X151373041Y-89756952D01*
X151444622Y-89917664D01*
X151540304Y-89989353D01*
X151604063Y-90004166D01*
X151744367Y-90001152D01*
X151766270Y-89901239D01*
X151752903Y-89834832D01*
X151721155Y-89672140D01*
X151671401Y-89385834D01*
X151611074Y-89019712D01*
X151561269Y-88705667D01*
X151474125Y-88218660D01*
X151384390Y-87881222D01*
X151283848Y-87673679D01*
X151164281Y-87576360D01*
X151083818Y-87562667D01*
X151034014Y-87617078D01*
X151022340Y-87787345D01*
X151022340Y-87787345D01*
X151022340Y-87787345D01*
G37*
X151022340Y-87787345D02*
X151050013Y-88084020D01*
X151118249Y-88517652D01*
X151228263Y-89098792D01*
X151303397Y-89467667D01*
X151373041Y-89756952D01*
X151444622Y-89917664D01*
X151540304Y-89989353D01*
X151604063Y-90004166D01*
X151744367Y-90001152D01*
X151766270Y-89901239D01*
X151752903Y-89834832D01*
X151721155Y-89672140D01*
X151671401Y-89385834D01*
X151611074Y-89019712D01*
X151561269Y-88705667D01*
X151474125Y-88218660D01*
X151384390Y-87881222D01*
X151283848Y-87673679D01*
X151164281Y-87576360D01*
X151083818Y-87562667D01*
X151034014Y-87617078D01*
X151022340Y-87787345D01*
X151022340Y-87787345D01*
G36*
X149923130Y-89619016D02*
X149940316Y-89696977D01*
X150099692Y-89756111D01*
X150232851Y-89686107D01*
X150360494Y-89500291D01*
X150480471Y-89326003D01*
X150612474Y-89270984D01*
X150804994Y-89292996D01*
X151001553Y-89318882D01*
X151083351Y-89277106D01*
X151099988Y-89140739D01*
X151100000Y-89132836D01*
X151061807Y-88964939D01*
X150930666Y-88917333D01*
X150802453Y-88904409D01*
X150772916Y-88839053D01*
X150836000Y-88681395D01*
X150881287Y-88592293D01*
X150960977Y-88257866D01*
X150941965Y-88070506D01*
X150882690Y-87780683D01*
X150360827Y-88706615D01*
X150127209Y-89135222D01*
X149983011Y-89435350D01*
X149923130Y-89619016D01*
X149923130Y-89619016D01*
X149923130Y-89619016D01*
G37*
X149923130Y-89619016D02*
X149940316Y-89696977D01*
X150099692Y-89756111D01*
X150232851Y-89686107D01*
X150360494Y-89500291D01*
X150480471Y-89326003D01*
X150612474Y-89270984D01*
X150804994Y-89292996D01*
X151001553Y-89318882D01*
X151083351Y-89277106D01*
X151099988Y-89140739D01*
X151100000Y-89132836D01*
X151061807Y-88964939D01*
X150930666Y-88917333D01*
X150802453Y-88904409D01*
X150772916Y-88839053D01*
X150836000Y-88681395D01*
X150881287Y-88592293D01*
X150960977Y-88257866D01*
X150941965Y-88070506D01*
X150882690Y-87780683D01*
X150360827Y-88706615D01*
X150127209Y-89135222D01*
X149983011Y-89435350D01*
X149923130Y-89619016D01*
X149923130Y-89619016D01*
G36*
X149068000Y-88070667D02*
X149100949Y-88208286D01*
X149146619Y-88240000D01*
X149265816Y-88293864D01*
X149346158Y-88360920D01*
X149408196Y-88454206D01*
X149425713Y-88594653D01*
X149399906Y-88827232D01*
X149363950Y-89030629D01*
X149311576Y-89324374D01*
X149297462Y-89491769D01*
X149327419Y-89572656D01*
X149407254Y-89606880D01*
X149449211Y-89615429D01*
X149540020Y-89620800D01*
X149605486Y-89575644D01*
X149659018Y-89449964D01*
X149714025Y-89213763D01*
X149775039Y-88886542D01*
X149839858Y-88473393D01*
X149854317Y-88202774D01*
X149813253Y-88054023D01*
X149711506Y-88006479D01*
X149561958Y-88033710D01*
X149414325Y-88028314D01*
X149366462Y-87989444D01*
X149243024Y-87902957D01*
X149118004Y-87943011D01*
X149068000Y-88070667D01*
X149068000Y-88070667D01*
X149068000Y-88070667D01*
G37*
X149068000Y-88070667D02*
X149100949Y-88208286D01*
X149146619Y-88240000D01*
X149265816Y-88293864D01*
X149346158Y-88360920D01*
X149408196Y-88454206D01*
X149425713Y-88594653D01*
X149399906Y-88827232D01*
X149363950Y-89030629D01*
X149311576Y-89324374D01*
X149297462Y-89491769D01*
X149327419Y-89572656D01*
X149407254Y-89606880D01*
X149449211Y-89615429D01*
X149540020Y-89620800D01*
X149605486Y-89575644D01*
X149659018Y-89449964D01*
X149714025Y-89213763D01*
X149775039Y-88886542D01*
X149839858Y-88473393D01*
X149854317Y-88202774D01*
X149813253Y-88054023D01*
X149711506Y-88006479D01*
X149561958Y-88033710D01*
X149414325Y-88028314D01*
X149366462Y-87989444D01*
X149243024Y-87902957D01*
X149118004Y-87943011D01*
X149068000Y-88070667D01*
X149068000Y-88070667D01*
G36*
X146204100Y-88900412D02*
X146213876Y-89032976D01*
X146272830Y-89081111D01*
X146345016Y-89086667D01*
X146455033Y-89066027D01*
X146531366Y-88981730D01*
X146590061Y-88800207D01*
X146647163Y-88487889D01*
X146654938Y-88438309D01*
X146716178Y-88176614D01*
X146799770Y-87967654D01*
X146821181Y-87933659D01*
X146924208Y-87834427D01*
X147055103Y-87841673D01*
X147164082Y-87886421D01*
X147268382Y-87939342D01*
X147332650Y-88004980D01*
X147358882Y-88114482D01*
X147349070Y-88298996D01*
X147305208Y-88589669D01*
X147234604Y-88988136D01*
X147211690Y-89177090D01*
X147255355Y-89246401D01*
X147383010Y-89242136D01*
X147515107Y-89192889D01*
X147594257Y-89062577D01*
X147645494Y-88832667D01*
X147726848Y-88418319D01*
X147815674Y-88155316D01*
X147926018Y-88025799D01*
X148071925Y-88011906D01*
X148237808Y-88079484D01*
X148327076Y-88154440D01*
X148370951Y-88279237D01*
X148369953Y-88483803D01*
X148324602Y-88798072D01*
X148256414Y-89150167D01*
X148230973Y-89337591D01*
X148279729Y-89412497D01*
X148408784Y-89425333D01*
X148510050Y-89414877D01*
X148579512Y-89361870D01*
X148631136Y-89233857D01*
X148678892Y-88998382D01*
X148727619Y-88684500D01*
X148773288Y-88349566D01*
X148801805Y-88083097D01*
X148809182Y-87925605D01*
X148804752Y-87901333D01*
X148703313Y-87866376D01*
X148602333Y-87859000D01*
X148405206Y-87825068D01*
X148323977Y-87788532D01*
X148171422Y-87747238D01*
X147939197Y-87737796D01*
X147900643Y-87739912D01*
X147607166Y-87717623D01*
X147305227Y-87634228D01*
X147272883Y-87620436D01*
X146947052Y-87530382D01*
X146684077Y-87586528D01*
X146479612Y-87793142D01*
X146329311Y-88154496D01*
X146233115Y-88642167D01*
X146204100Y-88900412D01*
X146204100Y-88900412D01*
X146204100Y-88900412D01*
G37*
X146204100Y-88900412D02*
X146213876Y-89032976D01*
X146272830Y-89081111D01*
X146345016Y-89086667D01*
X146455033Y-89066027D01*
X146531366Y-88981730D01*
X146590061Y-88800207D01*
X146647163Y-88487889D01*
X146654938Y-88438309D01*
X146716178Y-88176614D01*
X146799770Y-87967654D01*
X146821181Y-87933659D01*
X146924208Y-87834427D01*
X147055103Y-87841673D01*
X147164082Y-87886421D01*
X147268382Y-87939342D01*
X147332650Y-88004980D01*
X147358882Y-88114482D01*
X147349070Y-88298996D01*
X147305208Y-88589669D01*
X147234604Y-88988136D01*
X147211690Y-89177090D01*
X147255355Y-89246401D01*
X147383010Y-89242136D01*
X147515107Y-89192889D01*
X147594257Y-89062577D01*
X147645494Y-88832667D01*
X147726848Y-88418319D01*
X147815674Y-88155316D01*
X147926018Y-88025799D01*
X148071925Y-88011906D01*
X148237808Y-88079484D01*
X148327076Y-88154440D01*
X148370951Y-88279237D01*
X148369953Y-88483803D01*
X148324602Y-88798072D01*
X148256414Y-89150167D01*
X148230973Y-89337591D01*
X148279729Y-89412497D01*
X148408784Y-89425333D01*
X148510050Y-89414877D01*
X148579512Y-89361870D01*
X148631136Y-89233857D01*
X148678892Y-88998382D01*
X148727619Y-88684500D01*
X148773288Y-88349566D01*
X148801805Y-88083097D01*
X148809182Y-87925605D01*
X148804752Y-87901333D01*
X148703313Y-87866376D01*
X148602333Y-87859000D01*
X148405206Y-87825068D01*
X148323977Y-87788532D01*
X148171422Y-87747238D01*
X147939197Y-87737796D01*
X147900643Y-87739912D01*
X147607166Y-87717623D01*
X147305227Y-87634228D01*
X147272883Y-87620436D01*
X146947052Y-87530382D01*
X146684077Y-87586528D01*
X146479612Y-87793142D01*
X146329311Y-88154496D01*
X146233115Y-88642167D01*
X146204100Y-88900412D01*
X146204100Y-88900412D01*
G36*
X146739666Y-85657667D02*
X146759485Y-85931970D01*
X146838959Y-86115387D01*
X146977221Y-86257664D01*
X147084962Y-86341847D01*
X147199539Y-86399085D01*
X147354586Y-86434548D01*
X147583734Y-86453405D01*
X147920619Y-86460824D01*
X148306737Y-86462000D01*
X148749636Y-86454912D01*
X149136535Y-86435449D01*
X149429851Y-86406308D01*
X149592004Y-86370188D01*
X149593183Y-86369637D01*
X149701572Y-86279866D01*
X149899088Y-86078685D01*
X150167798Y-85785878D01*
X150489764Y-85421226D01*
X150847054Y-85004513D01*
X151051129Y-84761488D01*
X151408847Y-84334026D01*
X151728745Y-83954999D01*
X151995594Y-83642184D01*
X152194168Y-83413356D01*
X152309239Y-83286291D01*
X152331927Y-83266351D01*
X152364263Y-83348422D01*
X152445443Y-83567235D01*
X152567196Y-83900122D01*
X152721249Y-84324415D01*
X152899332Y-84817447D01*
X153003673Y-85107333D01*
X153236402Y-85744985D01*
X153425872Y-86240113D01*
X153580326Y-86611505D01*
X153708005Y-86877950D01*
X153817151Y-87058236D01*
X153904377Y-87160500D01*
X154211536Y-87352648D01*
X154548034Y-87378236D01*
X154823665Y-87284583D01*
X155058503Y-87083074D01*
X155212581Y-86792564D01*
X155247418Y-86586087D01*
X155219580Y-86471316D01*
X155141095Y-86221302D01*
X155020366Y-85859505D01*
X154865795Y-85409388D01*
X154685782Y-84894411D01*
X154488730Y-84338037D01*
X154283040Y-83763726D01*
X154077114Y-83194940D01*
X153879354Y-82655139D01*
X153698160Y-82167786D01*
X153541935Y-81756342D01*
X153419081Y-81444268D01*
X153339353Y-81257869D01*
X153125942Y-80980176D01*
X152833575Y-80823959D01*
X152507042Y-80799297D01*
X152191135Y-80916266D01*
X152105398Y-80980254D01*
X151994019Y-81093724D01*
X151790910Y-81318847D01*
X151512344Y-81636856D01*
X151174595Y-82028986D01*
X150793935Y-82476470D01*
X150386638Y-82960542D01*
X150343737Y-83011833D01*
X148804344Y-84853333D01*
X148009560Y-84853333D01*
X147626970Y-84857445D01*
X147370761Y-84875436D01*
X147198067Y-84915791D01*
X147066021Y-84986996D01*
X146977221Y-85057669D01*
X146822765Y-85223536D01*
X146753685Y-85415324D01*
X146739666Y-85657667D01*
X146739666Y-85657667D01*
X146739666Y-85657667D01*
G37*
X146739666Y-85657667D02*
X146759485Y-85931970D01*
X146838959Y-86115387D01*
X146977221Y-86257664D01*
X147084962Y-86341847D01*
X147199539Y-86399085D01*
X147354586Y-86434548D01*
X147583734Y-86453405D01*
X147920619Y-86460824D01*
X148306737Y-86462000D01*
X148749636Y-86454912D01*
X149136535Y-86435449D01*
X149429851Y-86406308D01*
X149592004Y-86370188D01*
X149593183Y-86369637D01*
X149701572Y-86279866D01*
X149899088Y-86078685D01*
X150167798Y-85785878D01*
X150489764Y-85421226D01*
X150847054Y-85004513D01*
X151051129Y-84761488D01*
X151408847Y-84334026D01*
X151728745Y-83954999D01*
X151995594Y-83642184D01*
X152194168Y-83413356D01*
X152309239Y-83286291D01*
X152331927Y-83266351D01*
X152364263Y-83348422D01*
X152445443Y-83567235D01*
X152567196Y-83900122D01*
X152721249Y-84324415D01*
X152899332Y-84817447D01*
X153003673Y-85107333D01*
X153236402Y-85744985D01*
X153425872Y-86240113D01*
X153580326Y-86611505D01*
X153708005Y-86877950D01*
X153817151Y-87058236D01*
X153904377Y-87160500D01*
X154211536Y-87352648D01*
X154548034Y-87378236D01*
X154823665Y-87284583D01*
X155058503Y-87083074D01*
X155212581Y-86792564D01*
X155247418Y-86586087D01*
X155219580Y-86471316D01*
X155141095Y-86221302D01*
X155020366Y-85859505D01*
X154865795Y-85409388D01*
X154685782Y-84894411D01*
X154488730Y-84338037D01*
X154283040Y-83763726D01*
X154077114Y-83194940D01*
X153879354Y-82655139D01*
X153698160Y-82167786D01*
X153541935Y-81756342D01*
X153419081Y-81444268D01*
X153339353Y-81257869D01*
X153125942Y-80980176D01*
X152833575Y-80823959D01*
X152507042Y-80799297D01*
X152191135Y-80916266D01*
X152105398Y-80980254D01*
X151994019Y-81093724D01*
X151790910Y-81318847D01*
X151512344Y-81636856D01*
X151174595Y-82028986D01*
X150793935Y-82476470D01*
X150386638Y-82960542D01*
X150343737Y-83011833D01*
X148804344Y-84853333D01*
X148009560Y-84853333D01*
X147626970Y-84857445D01*
X147370761Y-84875436D01*
X147198067Y-84915791D01*
X147066021Y-84986996D01*
X146977221Y-85057669D01*
X146822765Y-85223536D01*
X146753685Y-85415324D01*
X146739666Y-85657667D01*
X146739666Y-85657667D01*
%LPC*%
D12*
X112110000Y-124540000D03*
X114650000Y-124750000D03*
X117190000Y-124540000D03*
X119750000Y-124750000D03*
X122270000Y-124540000D03*
X124850000Y-124750000D03*
X127350000Y-124540000D03*
D13*
X129900000Y-124700000D03*
D14*
X131635000Y-85346000D03*
D15*
X131635000Y-87886000D03*
X131635000Y-90426000D03*
D14*
X129095000Y-85346000D03*
D15*
X129095000Y-87886000D03*
X129095000Y-90426000D03*
D14*
X126555000Y-85346000D03*
D15*
X126555000Y-87886000D03*
X126555000Y-90426000D03*
D14*
X123995000Y-85335000D03*
D15*
X123995000Y-87875000D03*
X123995000Y-90415000D03*
D16*
X98933000Y-128651000D03*
X98552000Y-128651000D03*
X98171000Y-128651000D03*
X97790000Y-128651000D03*
X97409000Y-128651000D03*
X172339000Y-128651000D03*
X171958000Y-128651000D03*
X171577000Y-128651000D03*
X171196000Y-128651000D03*
X170815000Y-128651000D03*
X118618000Y-72517000D03*
D17*
X143400000Y-125600000D03*
D18*
X143400000Y-119504000D03*
D17*
X148480000Y-123314000D03*
D19*
X97500000Y-76000000D03*
X155500000Y-76000000D03*
X97500000Y-125000000D03*
X155500000Y-125000000D03*
D16*
X118999000Y-72517000D03*
X119380000Y-72517000D03*
X119761000Y-72517000D03*
X120142000Y-72517000D03*
D20*
X102400000Y-77300000D03*
D21*
X102400000Y-74760000D03*
X104940000Y-77300000D03*
X104940000Y-74760000D03*
X107480000Y-77300000D03*
X107480000Y-74760000D03*
X110020000Y-77300000D03*
X110020000Y-74760000D03*
X112560000Y-77300000D03*
X112560000Y-74760000D03*
X115100000Y-77300000D03*
X115100000Y-74760000D03*
X117640000Y-77300000D03*
X117640000Y-74760000D03*
X120180000Y-77300000D03*
X120180000Y-74760000D03*
X122720000Y-77300000D03*
X122720000Y-74760000D03*
X125260000Y-77300000D03*
X125260000Y-74760000D03*
X127800000Y-77300000D03*
X127800000Y-74760000D03*
X130340000Y-77300000D03*
X130340000Y-74760000D03*
X132880000Y-77300000D03*
X132880000Y-74760000D03*
X135420000Y-77300000D03*
X135420000Y-74760000D03*
X137960000Y-77300000D03*
X137960000Y-74760000D03*
X140500000Y-77300000D03*
X140500000Y-74760000D03*
X143040000Y-77300000D03*
X143040000Y-74760000D03*
X145580000Y-77300000D03*
X145580000Y-74760000D03*
X148120000Y-77300000D03*
X148120000Y-74760000D03*
X150660000Y-77300000D03*
X150660000Y-74760000D03*
M02*
