M48
;DRILL file {kicad (2015-01-16 BZR 5376)-product} date 3/31/2016 12:49:42 PM
;FORMAT={-:-/ absolute / inch / decimal}
FMAT,2
INCH,TZ
T1C0.012
T2C0.025
T3C0.035
T4C0.039
T5C0.040
T6C0.108
%
G90
G05
M72
T1
X3.835Y-5.065
X3.85Y-5.065
X3.865Y-5.065
X3.88Y-5.065
X3.895Y-5.065
X4.67Y-2.855
X4.685Y-2.855
X4.7Y-2.855
X4.715Y-2.855
X4.73Y-2.855
X6.725Y-5.065
X6.74Y-5.065
X6.755Y-5.065
X6.77Y-5.065
X6.785Y-5.065
T2
X4.6142Y-4.0354
X4.6142Y-4.374
T3
X4.4138Y-4.9031
T4
X4.5138Y-4.9114
X4.6138Y-4.9031
X4.7146Y-4.9114
X4.8138Y-4.9031
X4.9154Y-4.9114
X5.0138Y-4.9031
X5.1142Y-4.9094
T5
X4.0315Y-2.9433
X4.0315Y-3.0433
X4.1315Y-2.9433
X4.1315Y-3.0433
X4.2315Y-2.9433
X4.2315Y-3.0433
X4.3315Y-2.9433
X4.3315Y-3.0433
X4.4315Y-2.9433
X4.4315Y-3.0433
X4.5315Y-2.9433
X4.5315Y-3.0433
X4.6315Y-2.9433
X4.6315Y-3.0433
X4.7315Y-2.9433
X4.7315Y-3.0433
X4.8315Y-2.9433
X4.8315Y-3.0433
X4.8817Y-3.3596
X4.8817Y-3.4596
X4.8817Y-3.5596
X4.9315Y-2.9433
X4.9315Y-3.0433
X4.9825Y-3.3601
X4.9825Y-3.4601
X4.9825Y-3.5601
X5.0315Y-2.9433
X5.0315Y-3.0433
X5.0825Y-3.3601
X5.0825Y-3.4601
X5.0825Y-3.5601
X5.1315Y-2.9433
X5.1315Y-3.0433
X5.1825Y-3.3601
X5.1825Y-3.4601
X5.1825Y-3.5601
X5.2315Y-2.9433
X5.2315Y-3.0433
X5.3315Y-2.9433
X5.3315Y-3.0433
X5.4315Y-2.9433
X5.4315Y-3.0433
X5.5315Y-2.9433
X5.5315Y-3.0433
X5.6315Y-2.9433
X5.6315Y-3.0433
X5.7315Y-2.9433
X5.7315Y-3.0433
X5.8315Y-2.9433
X5.8315Y-3.0433
X5.9315Y-2.9433
X5.9315Y-3.0433
T6
X3.8386Y-2.9921
X3.8386Y-4.9213
X6.122Y-2.9921
X6.122Y-4.9213
T5
X5.6066Y-4.7049G85X5.6847Y-4.7049
G05
X5.6157Y-4.9449G85X5.6757Y-4.9449
G05
X5.8457Y-4.8849G85X5.8457Y-4.8249
G05
T0
M30
