G04 #@! TF.FileFunction,Soldermask,Top*
%FSLAX46Y46*%
G04 Gerber Fmt 4.6, Leading zero omitted, Abs format (unit mm)*
G04 Created by KiCad (PCBNEW (2015-01-16 BZR 5376)-product) date 3/31/2016 12:49:39 PM*
%MOMM*%
G01*
G04 APERTURE LIST*
%ADD10C,0.100000*%
%ADD11C,2.000000*%
%ADD12R,2.000000X2.000000*%
%ADD13R,2.032000X1.727200*%
%ADD14O,2.032000X1.727200*%
%ADD15C,0.300000*%
%ADD16C,4.800600*%
%ADD17R,4.800600X4.800600*%
%ADD18C,2.750000*%
%ADD19R,1.727200X1.727200*%
%ADD20O,1.727200X1.727200*%
G04 APERTURE END LIST*
D10*
D11*
X112110000Y-124540000D03*
X114650000Y-124750000D03*
X117190000Y-124540000D03*
X119750000Y-124750000D03*
X122270000Y-124540000D03*
X124850000Y-124750000D03*
X127350000Y-124540000D03*
D12*
X129900000Y-124700000D03*
D13*
X131635000Y-85346000D03*
D14*
X131635000Y-87886000D03*
X131635000Y-90426000D03*
D13*
X129095000Y-85346000D03*
D14*
X129095000Y-87886000D03*
X129095000Y-90426000D03*
D13*
X126555000Y-85346000D03*
D14*
X126555000Y-87886000D03*
X126555000Y-90426000D03*
D13*
X123995000Y-85335000D03*
D14*
X123995000Y-87875000D03*
X123995000Y-90415000D03*
D15*
X98933000Y-128651000D03*
X98552000Y-128651000D03*
X98171000Y-128651000D03*
X97790000Y-128651000D03*
X97409000Y-128651000D03*
X172339000Y-128651000D03*
X171958000Y-128651000D03*
X171577000Y-128651000D03*
X171196000Y-128651000D03*
X170815000Y-128651000D03*
X118618000Y-72517000D03*
D16*
X143400000Y-125600000D03*
D17*
X143400000Y-119504000D03*
D16*
X148480000Y-123314000D03*
D18*
X97500000Y-76000000D03*
X155500000Y-76000000D03*
X97500000Y-125000000D03*
X155500000Y-125000000D03*
D15*
X118999000Y-72517000D03*
X119380000Y-72517000D03*
X119761000Y-72517000D03*
X120142000Y-72517000D03*
D19*
X102400000Y-77300000D03*
D20*
X102400000Y-74760000D03*
X104940000Y-77300000D03*
X104940000Y-74760000D03*
X107480000Y-77300000D03*
X107480000Y-74760000D03*
X110020000Y-77300000D03*
X110020000Y-74760000D03*
X112560000Y-77300000D03*
X112560000Y-74760000D03*
X115100000Y-77300000D03*
X115100000Y-74760000D03*
X117640000Y-77300000D03*
X117640000Y-74760000D03*
X120180000Y-77300000D03*
X120180000Y-74760000D03*
X122720000Y-77300000D03*
X122720000Y-74760000D03*
X125260000Y-77300000D03*
X125260000Y-74760000D03*
X127800000Y-77300000D03*
X127800000Y-74760000D03*
X130340000Y-77300000D03*
X130340000Y-74760000D03*
X132880000Y-77300000D03*
X132880000Y-74760000D03*
X135420000Y-77300000D03*
X135420000Y-74760000D03*
X137960000Y-77300000D03*
X137960000Y-74760000D03*
X140500000Y-77300000D03*
X140500000Y-74760000D03*
X143040000Y-77300000D03*
X143040000Y-74760000D03*
X145580000Y-77300000D03*
X145580000Y-74760000D03*
X148120000Y-77300000D03*
X148120000Y-74760000D03*
X150660000Y-77300000D03*
X150660000Y-74760000D03*
M02*
