G04 #@! TF.FileFunction,Copper,L4,Bot,Signal*
%FSLAX46Y46*%
G04 Gerber Fmt 4.6, Leading zero omitted, Abs format (unit mm)*
G04 Created by KiCad (PCBNEW (2015-01-16 BZR 5376)-product) date 3/31/2016 12:49:39 PM*
%MOMM*%
G01*
G04 APERTURE LIST*
%ADD10C,0.100000*%
%ADD11C,2.000000*%
%ADD12R,2.000000X2.000000*%
%ADD13R,2.032000X1.727200*%
%ADD14O,2.032000X1.727200*%
%ADD15C,0.300000*%
%ADD16C,4.800600*%
%ADD17R,4.800600X4.800600*%
%ADD18C,2.750000*%
%ADD19R,1.727200X1.727200*%
%ADD20O,1.727200X1.727200*%
%ADD21C,0.889000*%
%ADD22C,2.000000*%
%ADD23C,0.254000*%
%ADD24C,0.152400*%
G04 APERTURE END LIST*
D10*
D11*
X112110000Y-124540000D03*
X114650000Y-124750000D03*
X117190000Y-124540000D03*
X119750000Y-124750000D03*
X122270000Y-124540000D03*
X124850000Y-124750000D03*
X127350000Y-124540000D03*
D12*
X129900000Y-124700000D03*
D13*
X131635000Y-85346000D03*
D14*
X131635000Y-87886000D03*
X131635000Y-90426000D03*
D13*
X129095000Y-85346000D03*
D14*
X129095000Y-87886000D03*
X129095000Y-90426000D03*
D13*
X126555000Y-85346000D03*
D14*
X126555000Y-87886000D03*
X126555000Y-90426000D03*
D13*
X123995000Y-85335000D03*
D14*
X123995000Y-87875000D03*
X123995000Y-90415000D03*
D15*
X98933000Y-128651000D03*
X98552000Y-128651000D03*
X98171000Y-128651000D03*
X97790000Y-128651000D03*
X97409000Y-128651000D03*
X172339000Y-128651000D03*
X171958000Y-128651000D03*
X171577000Y-128651000D03*
X171196000Y-128651000D03*
X170815000Y-128651000D03*
X118618000Y-72517000D03*
D16*
X143400000Y-125600000D03*
D17*
X143400000Y-119504000D03*
D16*
X148480000Y-123314000D03*
D18*
X97500000Y-76000000D03*
X155500000Y-76000000D03*
X97500000Y-125000000D03*
X155500000Y-125000000D03*
D15*
X118999000Y-72517000D03*
X119380000Y-72517000D03*
X119761000Y-72517000D03*
X120142000Y-72517000D03*
D19*
X102400000Y-77300000D03*
D20*
X102400000Y-74760000D03*
X104940000Y-77300000D03*
X104940000Y-74760000D03*
X107480000Y-77300000D03*
X107480000Y-74760000D03*
X110020000Y-77300000D03*
X110020000Y-74760000D03*
X112560000Y-77300000D03*
X112560000Y-74760000D03*
X115100000Y-77300000D03*
X115100000Y-74760000D03*
X117640000Y-77300000D03*
X117640000Y-74760000D03*
X120180000Y-77300000D03*
X120180000Y-74760000D03*
X122720000Y-77300000D03*
X122720000Y-74760000D03*
X125260000Y-77300000D03*
X125260000Y-74760000D03*
X127800000Y-77300000D03*
X127800000Y-74760000D03*
X130340000Y-77300000D03*
X130340000Y-74760000D03*
X132880000Y-77300000D03*
X132880000Y-74760000D03*
X135420000Y-77300000D03*
X135420000Y-74760000D03*
X137960000Y-77300000D03*
X137960000Y-74760000D03*
X140500000Y-77300000D03*
X140500000Y-74760000D03*
X143040000Y-77300000D03*
X143040000Y-74760000D03*
X145580000Y-77300000D03*
X145580000Y-74760000D03*
X148120000Y-77300000D03*
X148120000Y-74760000D03*
X150660000Y-77300000D03*
X150660000Y-74760000D03*
D21*
X117200000Y-111100000D03*
X117200000Y-102500000D03*
D22*
X143400000Y-119504000D02*
X143400000Y-95000000D01*
X136286000Y-87886000D02*
X131635000Y-87886000D01*
X143400000Y-95000000D02*
X136286000Y-87886000D01*
X126544000Y-87875000D02*
X126555000Y-87886000D01*
X123995000Y-87875000D02*
X126544000Y-87875000D01*
X126555000Y-87886000D02*
X129095000Y-87886000D01*
X129095000Y-87886000D02*
X131635000Y-87886000D01*
D23*
X131635000Y-87886000D02*
X131635000Y-87917000D01*
X131635000Y-87886000D02*
X132366000Y-87886000D01*
D24*
X117150000Y-95150000D02*
X117150000Y-102450000D01*
X117190000Y-111110000D02*
X117190000Y-124540000D01*
X117200000Y-111100000D02*
X117190000Y-111110000D01*
X117150000Y-102450000D02*
X117200000Y-102500000D01*
X120180000Y-74760000D02*
X120160000Y-74760000D01*
X120160000Y-74760000D02*
X118600000Y-73200000D01*
X111300000Y-89300000D02*
X117150000Y-95150000D01*
X117150000Y-95150000D02*
X117190000Y-95190000D01*
X111300000Y-73700000D02*
X111300000Y-89300000D01*
X111800000Y-73200000D02*
X111300000Y-73700000D01*
X118600000Y-73200000D02*
X111800000Y-73200000D01*
X120180000Y-74760000D02*
X120180000Y-74780000D01*
X131635000Y-90426000D02*
X131635000Y-91865000D01*
X113900000Y-75960000D02*
X115100000Y-74760000D01*
X113900000Y-85800000D02*
X113900000Y-75960000D01*
X122900000Y-94800000D02*
X113900000Y-85800000D01*
X128700000Y-94800000D02*
X122900000Y-94800000D01*
X131635000Y-91865000D02*
X128700000Y-94800000D01*
X129095000Y-90426000D02*
X129095000Y-91305000D01*
X115100000Y-85600000D02*
X115100000Y-77300000D01*
X122900000Y-93400000D02*
X115100000Y-85600000D01*
X127000000Y-93400000D02*
X122900000Y-93400000D01*
X129095000Y-91305000D02*
X127000000Y-93400000D01*
X124850000Y-124750000D02*
X127140000Y-124750000D01*
X127140000Y-124750000D02*
X127350000Y-124540000D01*
X102400000Y-74760000D02*
X100940000Y-74760000D01*
X122700000Y-126900000D02*
X124850000Y-124750000D01*
X103500000Y-126900000D02*
X122700000Y-126900000D01*
X100600000Y-124000000D02*
X103500000Y-126900000D01*
X100600000Y-75100000D02*
X100600000Y-124000000D01*
X100940000Y-74760000D02*
X100600000Y-75100000D01*
D23*
G36*
X158409510Y-75276233D02*
X158365000Y-75500000D01*
X158365000Y-125888213D01*
X158202492Y-126705194D01*
X157803029Y-127303031D01*
X157510348Y-127498594D01*
X157510348Y-124601940D01*
X157510348Y-75601940D01*
X157204988Y-74862914D01*
X156640060Y-74296999D01*
X155901568Y-73990350D01*
X155101940Y-73989652D01*
X154362914Y-74295012D01*
X153796999Y-74859940D01*
X153490350Y-75598432D01*
X153489652Y-76398060D01*
X153795012Y-77137086D01*
X154359940Y-77703001D01*
X155098432Y-78009650D01*
X155898060Y-78010348D01*
X156637086Y-77704988D01*
X157203001Y-77140060D01*
X157509650Y-76401568D01*
X157510348Y-75601940D01*
X157510348Y-124601940D01*
X157204988Y-123862914D01*
X156640060Y-123296999D01*
X155901568Y-122990350D01*
X155101940Y-122989652D01*
X154362914Y-123295012D01*
X153796999Y-123859940D01*
X153490350Y-124598432D01*
X153489652Y-125398060D01*
X153795012Y-126137086D01*
X154359940Y-126703001D01*
X155098432Y-127009650D01*
X155898060Y-127010348D01*
X156637086Y-126704988D01*
X157203001Y-126140060D01*
X157509650Y-125401568D01*
X157510348Y-124601940D01*
X157510348Y-127498594D01*
X157205193Y-127702493D01*
X156278573Y-127886809D01*
X156223767Y-127909510D01*
X156000000Y-127865000D01*
X151516369Y-127865000D01*
X151516369Y-123912358D01*
X151514221Y-122704843D01*
X151056257Y-121599221D01*
X150643936Y-121329670D01*
X150464330Y-121509275D01*
X148659605Y-123314000D01*
X150643936Y-125298330D01*
X151056257Y-125028779D01*
X151516369Y-123912358D01*
X151516369Y-127865000D01*
X150464330Y-127865000D01*
X145318260Y-127865000D01*
X145384330Y-127763936D01*
X143400000Y-125779605D01*
X143220395Y-125959210D01*
X143220395Y-125600000D01*
X141236064Y-123615670D01*
X140823743Y-123885221D01*
X140363631Y-125001642D01*
X140365779Y-126209157D01*
X140823743Y-127314779D01*
X141236064Y-127584330D01*
X143220395Y-125600000D01*
X143220395Y-125959210D01*
X141415670Y-127763936D01*
X141481739Y-127865000D01*
X131535000Y-127865000D01*
X131535000Y-125826310D01*
X131535000Y-125573691D01*
X131535000Y-124985750D01*
X131535000Y-124414250D01*
X131535000Y-123826309D01*
X131535000Y-123573690D01*
X131438327Y-123340301D01*
X131259698Y-123161673D01*
X131026309Y-123065000D01*
X130185750Y-123065000D01*
X130027000Y-123223750D01*
X130027000Y-124573000D01*
X131376250Y-124573000D01*
X131535000Y-124414250D01*
X131535000Y-124985750D01*
X131376250Y-124827000D01*
X130027000Y-124827000D01*
X130027000Y-126176250D01*
X130185750Y-126335000D01*
X131026309Y-126335000D01*
X131259698Y-126238327D01*
X131438327Y-126059699D01*
X131535000Y-125826310D01*
X131535000Y-127865000D01*
X100000000Y-127865000D01*
X99565654Y-127951397D01*
X99510348Y-127988350D01*
X99510348Y-124601940D01*
X99510348Y-75601940D01*
X99204988Y-74862914D01*
X98640060Y-74296999D01*
X97901568Y-73990350D01*
X97101940Y-73989652D01*
X96362914Y-74295012D01*
X95796999Y-74859940D01*
X95490350Y-75598432D01*
X95489652Y-76398060D01*
X95795012Y-77137086D01*
X96359940Y-77703001D01*
X97098432Y-78009650D01*
X97898060Y-78010348D01*
X98637086Y-77704988D01*
X99203001Y-77140060D01*
X99509650Y-76401568D01*
X99510348Y-75601940D01*
X99510348Y-124601940D01*
X99204988Y-123862914D01*
X98640060Y-123296999D01*
X97901568Y-122990350D01*
X97101940Y-122989652D01*
X96362914Y-123295012D01*
X95796999Y-123859940D01*
X95490350Y-124598432D01*
X95489652Y-125398060D01*
X95795012Y-126137086D01*
X96359940Y-126703001D01*
X97098432Y-127009650D01*
X97898060Y-127010348D01*
X98637086Y-126704988D01*
X99203001Y-126140060D01*
X99509650Y-125401568D01*
X99510348Y-124601940D01*
X99510348Y-127988350D01*
X99432573Y-128040318D01*
X99378247Y-127985897D01*
X99089831Y-127866137D01*
X98777539Y-127865864D01*
X98742770Y-127880229D01*
X98708831Y-127866137D01*
X98396539Y-127865864D01*
X98361770Y-127880229D01*
X98327831Y-127866137D01*
X98015539Y-127865864D01*
X97980770Y-127880229D01*
X97946831Y-127866137D01*
X97634539Y-127865864D01*
X97599770Y-127880229D01*
X97565831Y-127866137D01*
X97253539Y-127865864D01*
X96964914Y-127985121D01*
X96963113Y-127986918D01*
X96721428Y-127886809D01*
X95794805Y-127702492D01*
X95196968Y-127303029D01*
X94797506Y-126705193D01*
X94635000Y-125888214D01*
X94635000Y-75111785D01*
X94797506Y-74294806D01*
X95196968Y-73696970D01*
X95794805Y-73297507D01*
X96611786Y-73135000D01*
X110859212Y-73135000D01*
X110797106Y-73197106D01*
X110665424Y-73394180D01*
X110593489Y-73346115D01*
X110020000Y-73232041D01*
X109446511Y-73346115D01*
X108960330Y-73670971D01*
X108750000Y-73985751D01*
X108539670Y-73670971D01*
X108053489Y-73346115D01*
X107480000Y-73232041D01*
X106906511Y-73346115D01*
X106420330Y-73670971D01*
X106210000Y-73985751D01*
X105999670Y-73670971D01*
X105513489Y-73346115D01*
X104940000Y-73232041D01*
X104366511Y-73346115D01*
X103880330Y-73670971D01*
X103670000Y-73985751D01*
X103459670Y-73670971D01*
X102973489Y-73346115D01*
X102400000Y-73232041D01*
X101826511Y-73346115D01*
X101340330Y-73670971D01*
X101087872Y-74048800D01*
X100940000Y-74048800D01*
X100667836Y-74102937D01*
X100437106Y-74257105D01*
X100097106Y-74597106D01*
X99942937Y-74827835D01*
X99888800Y-75100000D01*
X99888800Y-124000000D01*
X99942937Y-124272165D01*
X100097106Y-124502894D01*
X102997105Y-127402894D01*
X102997106Y-127402894D01*
X103151274Y-127505905D01*
X103227835Y-127557062D01*
X103227836Y-127557063D01*
X103500000Y-127611200D01*
X122700000Y-127611200D01*
X122972164Y-127557063D01*
X122972165Y-127557063D01*
X123202894Y-127402894D01*
X124309762Y-126296025D01*
X124523352Y-126384716D01*
X125173795Y-126385284D01*
X125774943Y-126136894D01*
X126205163Y-125707424D01*
X126422637Y-125925278D01*
X127023352Y-126174716D01*
X127673795Y-126175284D01*
X128274943Y-125926894D01*
X128297384Y-125904492D01*
X128361673Y-126059699D01*
X128540302Y-126238327D01*
X128773691Y-126335000D01*
X129614250Y-126335000D01*
X129773000Y-126176250D01*
X129773000Y-124827000D01*
X129753000Y-124827000D01*
X129753000Y-124573000D01*
X129773000Y-124573000D01*
X129773000Y-123223750D01*
X129614250Y-123065000D01*
X128773691Y-123065000D01*
X128540302Y-123161673D01*
X128412189Y-123289784D01*
X128277363Y-123154722D01*
X127676648Y-122905284D01*
X127026205Y-122904716D01*
X126425057Y-123153106D01*
X125994836Y-123582575D01*
X125777363Y-123364722D01*
X125176648Y-123115284D01*
X124526205Y-123114716D01*
X123925057Y-123363106D01*
X123661499Y-123626203D01*
X123656894Y-123615057D01*
X123197363Y-123154722D01*
X122596648Y-122905284D01*
X121946205Y-122904716D01*
X121345057Y-123153106D01*
X120904818Y-123592575D01*
X120677363Y-123364722D01*
X120076648Y-123115284D01*
X119426205Y-123114716D01*
X118825057Y-123363106D01*
X118574783Y-123612942D01*
X118117363Y-123154722D01*
X117901200Y-123064963D01*
X117901200Y-111925335D01*
X118114622Y-111712286D01*
X118279313Y-111315668D01*
X118279687Y-110886216D01*
X118115689Y-110489311D01*
X117812286Y-110185378D01*
X117415668Y-110020687D01*
X116986216Y-110020313D01*
X116589311Y-110184311D01*
X116285378Y-110487714D01*
X116120687Y-110884332D01*
X116120313Y-111313784D01*
X116284311Y-111710689D01*
X116478800Y-111905517D01*
X116478800Y-123064788D01*
X116265057Y-123153106D01*
X115814801Y-123602575D01*
X115577363Y-123364722D01*
X114976648Y-123115284D01*
X114326205Y-123114716D01*
X113725057Y-123363106D01*
X113484800Y-123602942D01*
X113037363Y-123154722D01*
X112436648Y-122905284D01*
X111786205Y-122904716D01*
X111185057Y-123153106D01*
X110724722Y-123612637D01*
X110475284Y-124213352D01*
X110474716Y-124863795D01*
X110723106Y-125464943D01*
X111182637Y-125925278D01*
X111783352Y-126174716D01*
X112433795Y-126175284D01*
X113034943Y-125926894D01*
X113275199Y-125687057D01*
X113722637Y-126135278D01*
X113851532Y-126188800D01*
X103794588Y-126188800D01*
X101311200Y-123705411D01*
X101311200Y-78765878D01*
X101536400Y-78811040D01*
X103263600Y-78811040D01*
X103505723Y-78764063D01*
X103718527Y-78624273D01*
X103860977Y-78413240D01*
X103869179Y-78372340D01*
X103880330Y-78389029D01*
X104366511Y-78713885D01*
X104940000Y-78827959D01*
X105513489Y-78713885D01*
X105999670Y-78389029D01*
X106210000Y-78074248D01*
X106420330Y-78389029D01*
X106906511Y-78713885D01*
X107480000Y-78827959D01*
X108053489Y-78713885D01*
X108539670Y-78389029D01*
X108750000Y-78074248D01*
X108960330Y-78389029D01*
X109446511Y-78713885D01*
X110020000Y-78827959D01*
X110588800Y-78714817D01*
X110588800Y-89300000D01*
X110642937Y-89572165D01*
X110797106Y-89802894D01*
X116438800Y-95444588D01*
X116438800Y-101734559D01*
X116285378Y-101887714D01*
X116120687Y-102284332D01*
X116120313Y-102713784D01*
X116284311Y-103110689D01*
X116587714Y-103414622D01*
X116984332Y-103579313D01*
X117413784Y-103579687D01*
X117810689Y-103415689D01*
X118114622Y-103112286D01*
X118279313Y-102715668D01*
X118279687Y-102286216D01*
X118115689Y-101889311D01*
X117861200Y-101634377D01*
X117861200Y-95391093D01*
X117901200Y-95190000D01*
X117847063Y-94917836D01*
X117692895Y-94687106D01*
X117652896Y-94647108D01*
X117652894Y-94647106D01*
X117652894Y-94647105D01*
X112011200Y-89005411D01*
X112011200Y-78718795D01*
X112560000Y-78827959D01*
X113133489Y-78713885D01*
X113188800Y-78676927D01*
X113188800Y-85800000D01*
X113242937Y-86072165D01*
X113397106Y-86302894D01*
X122397106Y-95302894D01*
X122627835Y-95457063D01*
X122627836Y-95457063D01*
X122672990Y-95466044D01*
X122900000Y-95511200D01*
X128700000Y-95511200D01*
X128972164Y-95457063D01*
X128972165Y-95457063D01*
X129202894Y-95302894D01*
X132137894Y-92367894D01*
X132292063Y-92137165D01*
X132292063Y-92137164D01*
X132346200Y-91865000D01*
X132346200Y-91819881D01*
X132393234Y-91810526D01*
X132879415Y-91485670D01*
X133204271Y-90999489D01*
X133318345Y-90426000D01*
X133204271Y-89852511D01*
X132982762Y-89521000D01*
X135608760Y-89521000D01*
X141765000Y-95677239D01*
X141765000Y-116456260D01*
X140999700Y-116456260D01*
X140757577Y-116503237D01*
X140544773Y-116643027D01*
X140402323Y-116854060D01*
X140352260Y-117103700D01*
X140352260Y-121904300D01*
X140399237Y-122146423D01*
X140539027Y-122359227D01*
X140750060Y-122501677D01*
X140999700Y-122551740D01*
X145511180Y-122551740D01*
X145443631Y-122715642D01*
X145444804Y-123375587D01*
X145384329Y-123436062D01*
X145114779Y-123023743D01*
X143998358Y-122563631D01*
X142790843Y-122565779D01*
X141685221Y-123023743D01*
X141415670Y-123436064D01*
X143400000Y-125420395D01*
X143414142Y-125406252D01*
X143593747Y-125585857D01*
X143579605Y-125600000D01*
X145563936Y-127584330D01*
X145976257Y-127314779D01*
X146436369Y-126198358D01*
X146435194Y-125538413D01*
X146495670Y-125477937D01*
X146765221Y-125890257D01*
X147881642Y-126350369D01*
X149089157Y-126348221D01*
X150194779Y-125890257D01*
X150464330Y-125477936D01*
X148480000Y-123493605D01*
X148465857Y-123507747D01*
X148286252Y-123328142D01*
X148300395Y-123314000D01*
X148286252Y-123299857D01*
X148465857Y-123120252D01*
X148480000Y-123134395D01*
X150464330Y-121150064D01*
X150194779Y-120737743D01*
X149078358Y-120277631D01*
X147870843Y-120279779D01*
X146765221Y-120737743D01*
X146495670Y-121150062D01*
X146447740Y-121102132D01*
X146447740Y-117103700D01*
X146400763Y-116861577D01*
X146260973Y-116648773D01*
X146049940Y-116506323D01*
X145800300Y-116456260D01*
X145035000Y-116456260D01*
X145035000Y-95000000D01*
X144910543Y-94374313D01*
X144910543Y-94374312D01*
X144768580Y-94161851D01*
X144556120Y-93843880D01*
X144556116Y-93843877D01*
X137442120Y-86729880D01*
X136911688Y-86375457D01*
X136286000Y-86250999D01*
X136285994Y-86251000D01*
X133286000Y-86251000D01*
X133286000Y-86083291D01*
X133286000Y-85631750D01*
X133286000Y-85060250D01*
X133286000Y-84608709D01*
X133286000Y-84356090D01*
X133189327Y-84122701D01*
X133010698Y-83944073D01*
X132777309Y-83847400D01*
X131920750Y-83847400D01*
X131762000Y-84006150D01*
X131762000Y-85219000D01*
X133127250Y-85219000D01*
X133286000Y-85060250D01*
X133286000Y-85631750D01*
X133127250Y-85473000D01*
X131762000Y-85473000D01*
X131762000Y-85493000D01*
X131508000Y-85493000D01*
X131508000Y-85473000D01*
X131508000Y-85219000D01*
X131508000Y-84006150D01*
X131349250Y-83847400D01*
X130492691Y-83847400D01*
X130365000Y-83900291D01*
X130237309Y-83847400D01*
X129380750Y-83847400D01*
X129222000Y-84006150D01*
X129222000Y-85219000D01*
X130142750Y-85219000D01*
X130587250Y-85219000D01*
X131508000Y-85219000D01*
X131508000Y-85473000D01*
X130587250Y-85473000D01*
X130142750Y-85473000D01*
X129222000Y-85473000D01*
X129222000Y-85493000D01*
X128968000Y-85493000D01*
X128968000Y-85473000D01*
X128968000Y-85219000D01*
X128968000Y-84006150D01*
X128809250Y-83847400D01*
X127952691Y-83847400D01*
X127825000Y-83900291D01*
X127697309Y-83847400D01*
X126840750Y-83847400D01*
X126682000Y-84006150D01*
X126682000Y-85219000D01*
X127602750Y-85219000D01*
X128047250Y-85219000D01*
X128968000Y-85219000D01*
X128968000Y-85473000D01*
X128047250Y-85473000D01*
X127602750Y-85473000D01*
X126682000Y-85473000D01*
X126682000Y-85493000D01*
X126428000Y-85493000D01*
X126428000Y-85473000D01*
X126428000Y-85219000D01*
X126428000Y-84006150D01*
X126269250Y-83847400D01*
X125412691Y-83847400D01*
X125288278Y-83898933D01*
X125137309Y-83836400D01*
X124280750Y-83836400D01*
X124122000Y-83995150D01*
X124122000Y-85208000D01*
X125051750Y-85208000D01*
X125062750Y-85219000D01*
X126428000Y-85219000D01*
X126428000Y-85473000D01*
X125498250Y-85473000D01*
X125487250Y-85462000D01*
X124122000Y-85462000D01*
X124122000Y-85482000D01*
X123868000Y-85482000D01*
X123868000Y-85462000D01*
X123868000Y-85208000D01*
X123868000Y-83995150D01*
X123709250Y-83836400D01*
X122852691Y-83836400D01*
X122619302Y-83933073D01*
X122440673Y-84111701D01*
X122344000Y-84345090D01*
X122344000Y-84597709D01*
X122344000Y-85049250D01*
X122502750Y-85208000D01*
X123868000Y-85208000D01*
X123868000Y-85462000D01*
X122502750Y-85462000D01*
X122344000Y-85620750D01*
X122344000Y-86072291D01*
X122344000Y-86324910D01*
X122440673Y-86558299D01*
X122619302Y-86736927D01*
X122772780Y-86800499D01*
X122750585Y-86815330D01*
X122425729Y-87301511D01*
X122311655Y-87875000D01*
X122425729Y-88448489D01*
X122750585Y-88934670D01*
X122793670Y-88963458D01*
X122838880Y-89031120D01*
X123037339Y-89163726D01*
X122750585Y-89355330D01*
X122425729Y-89841511D01*
X122311655Y-90415000D01*
X122425729Y-90988489D01*
X122750585Y-91474670D01*
X123236766Y-91799526D01*
X123810255Y-91913600D01*
X124179745Y-91913600D01*
X124753234Y-91799526D01*
X125239415Y-91474670D01*
X125271325Y-91426913D01*
X125310585Y-91485670D01*
X125796766Y-91810526D01*
X126370255Y-91924600D01*
X126739745Y-91924600D01*
X127313234Y-91810526D01*
X127799415Y-91485670D01*
X127825000Y-91447379D01*
X127850585Y-91485670D01*
X127885327Y-91508884D01*
X126705411Y-92688800D01*
X123194588Y-92688800D01*
X115811200Y-85305412D01*
X115811200Y-78621869D01*
X116159670Y-78389029D01*
X116370000Y-78074248D01*
X116580330Y-78389029D01*
X117066511Y-78713885D01*
X117640000Y-78827959D01*
X118213489Y-78713885D01*
X118699670Y-78389029D01*
X118910000Y-78074248D01*
X119120330Y-78389029D01*
X119606511Y-78713885D01*
X120180000Y-78827959D01*
X120753489Y-78713885D01*
X121239670Y-78389029D01*
X121450000Y-78074248D01*
X121660330Y-78389029D01*
X122146511Y-78713885D01*
X122720000Y-78827959D01*
X123293489Y-78713885D01*
X123779670Y-78389029D01*
X123990000Y-78074248D01*
X124200330Y-78389029D01*
X124686511Y-78713885D01*
X125260000Y-78827959D01*
X125833489Y-78713885D01*
X126319670Y-78389029D01*
X126530000Y-78074248D01*
X126740330Y-78389029D01*
X127226511Y-78713885D01*
X127800000Y-78827959D01*
X128373489Y-78713885D01*
X128859670Y-78389029D01*
X129070000Y-78074248D01*
X129280330Y-78389029D01*
X129766511Y-78713885D01*
X130340000Y-78827959D01*
X130913489Y-78713885D01*
X131399670Y-78389029D01*
X131615663Y-78065771D01*
X131673179Y-78188490D01*
X132105053Y-78582688D01*
X132520974Y-78754958D01*
X132753000Y-78633817D01*
X132753000Y-77427000D01*
X132733000Y-77427000D01*
X132733000Y-77173000D01*
X132753000Y-77173000D01*
X132753000Y-77153000D01*
X133007000Y-77153000D01*
X133007000Y-77173000D01*
X133027000Y-77173000D01*
X133027000Y-77427000D01*
X133007000Y-77427000D01*
X133007000Y-78633817D01*
X133239026Y-78754958D01*
X133654947Y-78582688D01*
X134086821Y-78188490D01*
X134144336Y-78065771D01*
X134360330Y-78389029D01*
X134846511Y-78713885D01*
X135420000Y-78827959D01*
X135993489Y-78713885D01*
X136479670Y-78389029D01*
X136690000Y-78074248D01*
X136900330Y-78389029D01*
X137386511Y-78713885D01*
X137960000Y-78827959D01*
X138533489Y-78713885D01*
X139019670Y-78389029D01*
X139230000Y-78074248D01*
X139440330Y-78389029D01*
X139926511Y-78713885D01*
X140500000Y-78827959D01*
X141073489Y-78713885D01*
X141559670Y-78389029D01*
X141770000Y-78074248D01*
X141980330Y-78389029D01*
X142466511Y-78713885D01*
X143040000Y-78827959D01*
X143613489Y-78713885D01*
X144099670Y-78389029D01*
X144310000Y-78074248D01*
X144520330Y-78389029D01*
X145006511Y-78713885D01*
X145580000Y-78827959D01*
X146153489Y-78713885D01*
X146639670Y-78389029D01*
X146850000Y-78074248D01*
X147060330Y-78389029D01*
X147546511Y-78713885D01*
X148120000Y-78827959D01*
X148693489Y-78713885D01*
X149179670Y-78389029D01*
X149390000Y-78074248D01*
X149600330Y-78389029D01*
X150086511Y-78713885D01*
X150660000Y-78827959D01*
X151233489Y-78713885D01*
X151719670Y-78389029D01*
X152044526Y-77902848D01*
X152158600Y-77329359D01*
X152158600Y-77270641D01*
X152044526Y-76697152D01*
X151719670Y-76210971D01*
X151448827Y-76030000D01*
X151719670Y-75849029D01*
X152044526Y-75362848D01*
X152158600Y-74789359D01*
X152158600Y-74730641D01*
X152044526Y-74157152D01*
X151719670Y-73670971D01*
X151233489Y-73346115D01*
X150660000Y-73232041D01*
X150086511Y-73346115D01*
X149600330Y-73670971D01*
X149390000Y-73985751D01*
X149179670Y-73670971D01*
X148693489Y-73346115D01*
X148120000Y-73232041D01*
X147546511Y-73346115D01*
X147060330Y-73670971D01*
X146850000Y-73985751D01*
X146639670Y-73670971D01*
X146153489Y-73346115D01*
X145580000Y-73232041D01*
X145006511Y-73346115D01*
X144520330Y-73670971D01*
X144310000Y-73985751D01*
X144099670Y-73670971D01*
X143613489Y-73346115D01*
X143040000Y-73232041D01*
X142466511Y-73346115D01*
X141980330Y-73670971D01*
X141770000Y-73985751D01*
X141559670Y-73670971D01*
X141073489Y-73346115D01*
X140500000Y-73232041D01*
X139926511Y-73346115D01*
X139440330Y-73670971D01*
X139230000Y-73985751D01*
X139019670Y-73670971D01*
X138533489Y-73346115D01*
X137960000Y-73232041D01*
X137386511Y-73346115D01*
X136900330Y-73670971D01*
X136690000Y-73985751D01*
X136479670Y-73670971D01*
X135993489Y-73346115D01*
X135420000Y-73232041D01*
X134846511Y-73346115D01*
X134360330Y-73670971D01*
X134150000Y-73985751D01*
X133939670Y-73670971D01*
X133453489Y-73346115D01*
X132880000Y-73232041D01*
X132306511Y-73346115D01*
X131820330Y-73670971D01*
X131610000Y-73985751D01*
X131399670Y-73670971D01*
X130913489Y-73346115D01*
X130340000Y-73232041D01*
X129766511Y-73346115D01*
X129280330Y-73670971D01*
X129070000Y-73985751D01*
X128859670Y-73670971D01*
X128373489Y-73346115D01*
X127800000Y-73232041D01*
X127226511Y-73346115D01*
X126740330Y-73670971D01*
X126530000Y-73985751D01*
X126319670Y-73670971D01*
X125833489Y-73346115D01*
X125260000Y-73232041D01*
X124686511Y-73346115D01*
X124200330Y-73670971D01*
X123990000Y-73985751D01*
X123779670Y-73670971D01*
X123293489Y-73346115D01*
X122720000Y-73232041D01*
X122146511Y-73346115D01*
X121660330Y-73670971D01*
X121450000Y-73985751D01*
X121239670Y-73670971D01*
X120753489Y-73346115D01*
X120373805Y-73270591D01*
X120586086Y-73182879D01*
X120634048Y-73135000D01*
X156388214Y-73135000D01*
X157205193Y-73297506D01*
X157803029Y-73696968D01*
X158202492Y-74294805D01*
X158386809Y-75221428D01*
X158409510Y-75276233D01*
X158409510Y-75276233D01*
G37*
X158409510Y-75276233D02*
X158365000Y-75500000D01*
X158365000Y-125888213D01*
X158202492Y-126705194D01*
X157803029Y-127303031D01*
X157510348Y-127498594D01*
X157510348Y-124601940D01*
X157510348Y-75601940D01*
X157204988Y-74862914D01*
X156640060Y-74296999D01*
X155901568Y-73990350D01*
X155101940Y-73989652D01*
X154362914Y-74295012D01*
X153796999Y-74859940D01*
X153490350Y-75598432D01*
X153489652Y-76398060D01*
X153795012Y-77137086D01*
X154359940Y-77703001D01*
X155098432Y-78009650D01*
X155898060Y-78010348D01*
X156637086Y-77704988D01*
X157203001Y-77140060D01*
X157509650Y-76401568D01*
X157510348Y-75601940D01*
X157510348Y-124601940D01*
X157204988Y-123862914D01*
X156640060Y-123296999D01*
X155901568Y-122990350D01*
X155101940Y-122989652D01*
X154362914Y-123295012D01*
X153796999Y-123859940D01*
X153490350Y-124598432D01*
X153489652Y-125398060D01*
X153795012Y-126137086D01*
X154359940Y-126703001D01*
X155098432Y-127009650D01*
X155898060Y-127010348D01*
X156637086Y-126704988D01*
X157203001Y-126140060D01*
X157509650Y-125401568D01*
X157510348Y-124601940D01*
X157510348Y-127498594D01*
X157205193Y-127702493D01*
X156278573Y-127886809D01*
X156223767Y-127909510D01*
X156000000Y-127865000D01*
X151516369Y-127865000D01*
X151516369Y-123912358D01*
X151514221Y-122704843D01*
X151056257Y-121599221D01*
X150643936Y-121329670D01*
X150464330Y-121509275D01*
X148659605Y-123314000D01*
X150643936Y-125298330D01*
X151056257Y-125028779D01*
X151516369Y-123912358D01*
X151516369Y-127865000D01*
X150464330Y-127865000D01*
X145318260Y-127865000D01*
X145384330Y-127763936D01*
X143400000Y-125779605D01*
X143220395Y-125959210D01*
X143220395Y-125600000D01*
X141236064Y-123615670D01*
X140823743Y-123885221D01*
X140363631Y-125001642D01*
X140365779Y-126209157D01*
X140823743Y-127314779D01*
X141236064Y-127584330D01*
X143220395Y-125600000D01*
X143220395Y-125959210D01*
X141415670Y-127763936D01*
X141481739Y-127865000D01*
X131535000Y-127865000D01*
X131535000Y-125826310D01*
X131535000Y-125573691D01*
X131535000Y-124985750D01*
X131535000Y-124414250D01*
X131535000Y-123826309D01*
X131535000Y-123573690D01*
X131438327Y-123340301D01*
X131259698Y-123161673D01*
X131026309Y-123065000D01*
X130185750Y-123065000D01*
X130027000Y-123223750D01*
X130027000Y-124573000D01*
X131376250Y-124573000D01*
X131535000Y-124414250D01*
X131535000Y-124985750D01*
X131376250Y-124827000D01*
X130027000Y-124827000D01*
X130027000Y-126176250D01*
X130185750Y-126335000D01*
X131026309Y-126335000D01*
X131259698Y-126238327D01*
X131438327Y-126059699D01*
X131535000Y-125826310D01*
X131535000Y-127865000D01*
X100000000Y-127865000D01*
X99565654Y-127951397D01*
X99510348Y-127988350D01*
X99510348Y-124601940D01*
X99510348Y-75601940D01*
X99204988Y-74862914D01*
X98640060Y-74296999D01*
X97901568Y-73990350D01*
X97101940Y-73989652D01*
X96362914Y-74295012D01*
X95796999Y-74859940D01*
X95490350Y-75598432D01*
X95489652Y-76398060D01*
X95795012Y-77137086D01*
X96359940Y-77703001D01*
X97098432Y-78009650D01*
X97898060Y-78010348D01*
X98637086Y-77704988D01*
X99203001Y-77140060D01*
X99509650Y-76401568D01*
X99510348Y-75601940D01*
X99510348Y-124601940D01*
X99204988Y-123862914D01*
X98640060Y-123296999D01*
X97901568Y-122990350D01*
X97101940Y-122989652D01*
X96362914Y-123295012D01*
X95796999Y-123859940D01*
X95490350Y-124598432D01*
X95489652Y-125398060D01*
X95795012Y-126137086D01*
X96359940Y-126703001D01*
X97098432Y-127009650D01*
X97898060Y-127010348D01*
X98637086Y-126704988D01*
X99203001Y-126140060D01*
X99509650Y-125401568D01*
X99510348Y-124601940D01*
X99510348Y-127988350D01*
X99432573Y-128040318D01*
X99378247Y-127985897D01*
X99089831Y-127866137D01*
X98777539Y-127865864D01*
X98742770Y-127880229D01*
X98708831Y-127866137D01*
X98396539Y-127865864D01*
X98361770Y-127880229D01*
X98327831Y-127866137D01*
X98015539Y-127865864D01*
X97980770Y-127880229D01*
X97946831Y-127866137D01*
X97634539Y-127865864D01*
X97599770Y-127880229D01*
X97565831Y-127866137D01*
X97253539Y-127865864D01*
X96964914Y-127985121D01*
X96963113Y-127986918D01*
X96721428Y-127886809D01*
X95794805Y-127702492D01*
X95196968Y-127303029D01*
X94797506Y-126705193D01*
X94635000Y-125888214D01*
X94635000Y-75111785D01*
X94797506Y-74294806D01*
X95196968Y-73696970D01*
X95794805Y-73297507D01*
X96611786Y-73135000D01*
X110859212Y-73135000D01*
X110797106Y-73197106D01*
X110665424Y-73394180D01*
X110593489Y-73346115D01*
X110020000Y-73232041D01*
X109446511Y-73346115D01*
X108960330Y-73670971D01*
X108750000Y-73985751D01*
X108539670Y-73670971D01*
X108053489Y-73346115D01*
X107480000Y-73232041D01*
X106906511Y-73346115D01*
X106420330Y-73670971D01*
X106210000Y-73985751D01*
X105999670Y-73670971D01*
X105513489Y-73346115D01*
X104940000Y-73232041D01*
X104366511Y-73346115D01*
X103880330Y-73670971D01*
X103670000Y-73985751D01*
X103459670Y-73670971D01*
X102973489Y-73346115D01*
X102400000Y-73232041D01*
X101826511Y-73346115D01*
X101340330Y-73670971D01*
X101087872Y-74048800D01*
X100940000Y-74048800D01*
X100667836Y-74102937D01*
X100437106Y-74257105D01*
X100097106Y-74597106D01*
X99942937Y-74827835D01*
X99888800Y-75100000D01*
X99888800Y-124000000D01*
X99942937Y-124272165D01*
X100097106Y-124502894D01*
X102997105Y-127402894D01*
X102997106Y-127402894D01*
X103151274Y-127505905D01*
X103227835Y-127557062D01*
X103227836Y-127557063D01*
X103500000Y-127611200D01*
X122700000Y-127611200D01*
X122972164Y-127557063D01*
X122972165Y-127557063D01*
X123202894Y-127402894D01*
X124309762Y-126296025D01*
X124523352Y-126384716D01*
X125173795Y-126385284D01*
X125774943Y-126136894D01*
X126205163Y-125707424D01*
X126422637Y-125925278D01*
X127023352Y-126174716D01*
X127673795Y-126175284D01*
X128274943Y-125926894D01*
X128297384Y-125904492D01*
X128361673Y-126059699D01*
X128540302Y-126238327D01*
X128773691Y-126335000D01*
X129614250Y-126335000D01*
X129773000Y-126176250D01*
X129773000Y-124827000D01*
X129753000Y-124827000D01*
X129753000Y-124573000D01*
X129773000Y-124573000D01*
X129773000Y-123223750D01*
X129614250Y-123065000D01*
X128773691Y-123065000D01*
X128540302Y-123161673D01*
X128412189Y-123289784D01*
X128277363Y-123154722D01*
X127676648Y-122905284D01*
X127026205Y-122904716D01*
X126425057Y-123153106D01*
X125994836Y-123582575D01*
X125777363Y-123364722D01*
X125176648Y-123115284D01*
X124526205Y-123114716D01*
X123925057Y-123363106D01*
X123661499Y-123626203D01*
X123656894Y-123615057D01*
X123197363Y-123154722D01*
X122596648Y-122905284D01*
X121946205Y-122904716D01*
X121345057Y-123153106D01*
X120904818Y-123592575D01*
X120677363Y-123364722D01*
X120076648Y-123115284D01*
X119426205Y-123114716D01*
X118825057Y-123363106D01*
X118574783Y-123612942D01*
X118117363Y-123154722D01*
X117901200Y-123064963D01*
X117901200Y-111925335D01*
X118114622Y-111712286D01*
X118279313Y-111315668D01*
X118279687Y-110886216D01*
X118115689Y-110489311D01*
X117812286Y-110185378D01*
X117415668Y-110020687D01*
X116986216Y-110020313D01*
X116589311Y-110184311D01*
X116285378Y-110487714D01*
X116120687Y-110884332D01*
X116120313Y-111313784D01*
X116284311Y-111710689D01*
X116478800Y-111905517D01*
X116478800Y-123064788D01*
X116265057Y-123153106D01*
X115814801Y-123602575D01*
X115577363Y-123364722D01*
X114976648Y-123115284D01*
X114326205Y-123114716D01*
X113725057Y-123363106D01*
X113484800Y-123602942D01*
X113037363Y-123154722D01*
X112436648Y-122905284D01*
X111786205Y-122904716D01*
X111185057Y-123153106D01*
X110724722Y-123612637D01*
X110475284Y-124213352D01*
X110474716Y-124863795D01*
X110723106Y-125464943D01*
X111182637Y-125925278D01*
X111783352Y-126174716D01*
X112433795Y-126175284D01*
X113034943Y-125926894D01*
X113275199Y-125687057D01*
X113722637Y-126135278D01*
X113851532Y-126188800D01*
X103794588Y-126188800D01*
X101311200Y-123705411D01*
X101311200Y-78765878D01*
X101536400Y-78811040D01*
X103263600Y-78811040D01*
X103505723Y-78764063D01*
X103718527Y-78624273D01*
X103860977Y-78413240D01*
X103869179Y-78372340D01*
X103880330Y-78389029D01*
X104366511Y-78713885D01*
X104940000Y-78827959D01*
X105513489Y-78713885D01*
X105999670Y-78389029D01*
X106210000Y-78074248D01*
X106420330Y-78389029D01*
X106906511Y-78713885D01*
X107480000Y-78827959D01*
X108053489Y-78713885D01*
X108539670Y-78389029D01*
X108750000Y-78074248D01*
X108960330Y-78389029D01*
X109446511Y-78713885D01*
X110020000Y-78827959D01*
X110588800Y-78714817D01*
X110588800Y-89300000D01*
X110642937Y-89572165D01*
X110797106Y-89802894D01*
X116438800Y-95444588D01*
X116438800Y-101734559D01*
X116285378Y-101887714D01*
X116120687Y-102284332D01*
X116120313Y-102713784D01*
X116284311Y-103110689D01*
X116587714Y-103414622D01*
X116984332Y-103579313D01*
X117413784Y-103579687D01*
X117810689Y-103415689D01*
X118114622Y-103112286D01*
X118279313Y-102715668D01*
X118279687Y-102286216D01*
X118115689Y-101889311D01*
X117861200Y-101634377D01*
X117861200Y-95391093D01*
X117901200Y-95190000D01*
X117847063Y-94917836D01*
X117692895Y-94687106D01*
X117652896Y-94647108D01*
X117652894Y-94647106D01*
X117652894Y-94647105D01*
X112011200Y-89005411D01*
X112011200Y-78718795D01*
X112560000Y-78827959D01*
X113133489Y-78713885D01*
X113188800Y-78676927D01*
X113188800Y-85800000D01*
X113242937Y-86072165D01*
X113397106Y-86302894D01*
X122397106Y-95302894D01*
X122627835Y-95457063D01*
X122627836Y-95457063D01*
X122672990Y-95466044D01*
X122900000Y-95511200D01*
X128700000Y-95511200D01*
X128972164Y-95457063D01*
X128972165Y-95457063D01*
X129202894Y-95302894D01*
X132137894Y-92367894D01*
X132292063Y-92137165D01*
X132292063Y-92137164D01*
X132346200Y-91865000D01*
X132346200Y-91819881D01*
X132393234Y-91810526D01*
X132879415Y-91485670D01*
X133204271Y-90999489D01*
X133318345Y-90426000D01*
X133204271Y-89852511D01*
X132982762Y-89521000D01*
X135608760Y-89521000D01*
X141765000Y-95677239D01*
X141765000Y-116456260D01*
X140999700Y-116456260D01*
X140757577Y-116503237D01*
X140544773Y-116643027D01*
X140402323Y-116854060D01*
X140352260Y-117103700D01*
X140352260Y-121904300D01*
X140399237Y-122146423D01*
X140539027Y-122359227D01*
X140750060Y-122501677D01*
X140999700Y-122551740D01*
X145511180Y-122551740D01*
X145443631Y-122715642D01*
X145444804Y-123375587D01*
X145384329Y-123436062D01*
X145114779Y-123023743D01*
X143998358Y-122563631D01*
X142790843Y-122565779D01*
X141685221Y-123023743D01*
X141415670Y-123436064D01*
X143400000Y-125420395D01*
X143414142Y-125406252D01*
X143593747Y-125585857D01*
X143579605Y-125600000D01*
X145563936Y-127584330D01*
X145976257Y-127314779D01*
X146436369Y-126198358D01*
X146435194Y-125538413D01*
X146495670Y-125477937D01*
X146765221Y-125890257D01*
X147881642Y-126350369D01*
X149089157Y-126348221D01*
X150194779Y-125890257D01*
X150464330Y-125477936D01*
X148480000Y-123493605D01*
X148465857Y-123507747D01*
X148286252Y-123328142D01*
X148300395Y-123314000D01*
X148286252Y-123299857D01*
X148465857Y-123120252D01*
X148480000Y-123134395D01*
X150464330Y-121150064D01*
X150194779Y-120737743D01*
X149078358Y-120277631D01*
X147870843Y-120279779D01*
X146765221Y-120737743D01*
X146495670Y-121150062D01*
X146447740Y-121102132D01*
X146447740Y-117103700D01*
X146400763Y-116861577D01*
X146260973Y-116648773D01*
X146049940Y-116506323D01*
X145800300Y-116456260D01*
X145035000Y-116456260D01*
X145035000Y-95000000D01*
X144910543Y-94374313D01*
X144910543Y-94374312D01*
X144768580Y-94161851D01*
X144556120Y-93843880D01*
X144556116Y-93843877D01*
X137442120Y-86729880D01*
X136911688Y-86375457D01*
X136286000Y-86250999D01*
X136285994Y-86251000D01*
X133286000Y-86251000D01*
X133286000Y-86083291D01*
X133286000Y-85631750D01*
X133286000Y-85060250D01*
X133286000Y-84608709D01*
X133286000Y-84356090D01*
X133189327Y-84122701D01*
X133010698Y-83944073D01*
X132777309Y-83847400D01*
X131920750Y-83847400D01*
X131762000Y-84006150D01*
X131762000Y-85219000D01*
X133127250Y-85219000D01*
X133286000Y-85060250D01*
X133286000Y-85631750D01*
X133127250Y-85473000D01*
X131762000Y-85473000D01*
X131762000Y-85493000D01*
X131508000Y-85493000D01*
X131508000Y-85473000D01*
X131508000Y-85219000D01*
X131508000Y-84006150D01*
X131349250Y-83847400D01*
X130492691Y-83847400D01*
X130365000Y-83900291D01*
X130237309Y-83847400D01*
X129380750Y-83847400D01*
X129222000Y-84006150D01*
X129222000Y-85219000D01*
X130142750Y-85219000D01*
X130587250Y-85219000D01*
X131508000Y-85219000D01*
X131508000Y-85473000D01*
X130587250Y-85473000D01*
X130142750Y-85473000D01*
X129222000Y-85473000D01*
X129222000Y-85493000D01*
X128968000Y-85493000D01*
X128968000Y-85473000D01*
X128968000Y-85219000D01*
X128968000Y-84006150D01*
X128809250Y-83847400D01*
X127952691Y-83847400D01*
X127825000Y-83900291D01*
X127697309Y-83847400D01*
X126840750Y-83847400D01*
X126682000Y-84006150D01*
X126682000Y-85219000D01*
X127602750Y-85219000D01*
X128047250Y-85219000D01*
X128968000Y-85219000D01*
X128968000Y-85473000D01*
X128047250Y-85473000D01*
X127602750Y-85473000D01*
X126682000Y-85473000D01*
X126682000Y-85493000D01*
X126428000Y-85493000D01*
X126428000Y-85473000D01*
X126428000Y-85219000D01*
X126428000Y-84006150D01*
X126269250Y-83847400D01*
X125412691Y-83847400D01*
X125288278Y-83898933D01*
X125137309Y-83836400D01*
X124280750Y-83836400D01*
X124122000Y-83995150D01*
X124122000Y-85208000D01*
X125051750Y-85208000D01*
X125062750Y-85219000D01*
X126428000Y-85219000D01*
X126428000Y-85473000D01*
X125498250Y-85473000D01*
X125487250Y-85462000D01*
X124122000Y-85462000D01*
X124122000Y-85482000D01*
X123868000Y-85482000D01*
X123868000Y-85462000D01*
X123868000Y-85208000D01*
X123868000Y-83995150D01*
X123709250Y-83836400D01*
X122852691Y-83836400D01*
X122619302Y-83933073D01*
X122440673Y-84111701D01*
X122344000Y-84345090D01*
X122344000Y-84597709D01*
X122344000Y-85049250D01*
X122502750Y-85208000D01*
X123868000Y-85208000D01*
X123868000Y-85462000D01*
X122502750Y-85462000D01*
X122344000Y-85620750D01*
X122344000Y-86072291D01*
X122344000Y-86324910D01*
X122440673Y-86558299D01*
X122619302Y-86736927D01*
X122772780Y-86800499D01*
X122750585Y-86815330D01*
X122425729Y-87301511D01*
X122311655Y-87875000D01*
X122425729Y-88448489D01*
X122750585Y-88934670D01*
X122793670Y-88963458D01*
X122838880Y-89031120D01*
X123037339Y-89163726D01*
X122750585Y-89355330D01*
X122425729Y-89841511D01*
X122311655Y-90415000D01*
X122425729Y-90988489D01*
X122750585Y-91474670D01*
X123236766Y-91799526D01*
X123810255Y-91913600D01*
X124179745Y-91913600D01*
X124753234Y-91799526D01*
X125239415Y-91474670D01*
X125271325Y-91426913D01*
X125310585Y-91485670D01*
X125796766Y-91810526D01*
X126370255Y-91924600D01*
X126739745Y-91924600D01*
X127313234Y-91810526D01*
X127799415Y-91485670D01*
X127825000Y-91447379D01*
X127850585Y-91485670D01*
X127885327Y-91508884D01*
X126705411Y-92688800D01*
X123194588Y-92688800D01*
X115811200Y-85305412D01*
X115811200Y-78621869D01*
X116159670Y-78389029D01*
X116370000Y-78074248D01*
X116580330Y-78389029D01*
X117066511Y-78713885D01*
X117640000Y-78827959D01*
X118213489Y-78713885D01*
X118699670Y-78389029D01*
X118910000Y-78074248D01*
X119120330Y-78389029D01*
X119606511Y-78713885D01*
X120180000Y-78827959D01*
X120753489Y-78713885D01*
X121239670Y-78389029D01*
X121450000Y-78074248D01*
X121660330Y-78389029D01*
X122146511Y-78713885D01*
X122720000Y-78827959D01*
X123293489Y-78713885D01*
X123779670Y-78389029D01*
X123990000Y-78074248D01*
X124200330Y-78389029D01*
X124686511Y-78713885D01*
X125260000Y-78827959D01*
X125833489Y-78713885D01*
X126319670Y-78389029D01*
X126530000Y-78074248D01*
X126740330Y-78389029D01*
X127226511Y-78713885D01*
X127800000Y-78827959D01*
X128373489Y-78713885D01*
X128859670Y-78389029D01*
X129070000Y-78074248D01*
X129280330Y-78389029D01*
X129766511Y-78713885D01*
X130340000Y-78827959D01*
X130913489Y-78713885D01*
X131399670Y-78389029D01*
X131615663Y-78065771D01*
X131673179Y-78188490D01*
X132105053Y-78582688D01*
X132520974Y-78754958D01*
X132753000Y-78633817D01*
X132753000Y-77427000D01*
X132733000Y-77427000D01*
X132733000Y-77173000D01*
X132753000Y-77173000D01*
X132753000Y-77153000D01*
X133007000Y-77153000D01*
X133007000Y-77173000D01*
X133027000Y-77173000D01*
X133027000Y-77427000D01*
X133007000Y-77427000D01*
X133007000Y-78633817D01*
X133239026Y-78754958D01*
X133654947Y-78582688D01*
X134086821Y-78188490D01*
X134144336Y-78065771D01*
X134360330Y-78389029D01*
X134846511Y-78713885D01*
X135420000Y-78827959D01*
X135993489Y-78713885D01*
X136479670Y-78389029D01*
X136690000Y-78074248D01*
X136900330Y-78389029D01*
X137386511Y-78713885D01*
X137960000Y-78827959D01*
X138533489Y-78713885D01*
X139019670Y-78389029D01*
X139230000Y-78074248D01*
X139440330Y-78389029D01*
X139926511Y-78713885D01*
X140500000Y-78827959D01*
X141073489Y-78713885D01*
X141559670Y-78389029D01*
X141770000Y-78074248D01*
X141980330Y-78389029D01*
X142466511Y-78713885D01*
X143040000Y-78827959D01*
X143613489Y-78713885D01*
X144099670Y-78389029D01*
X144310000Y-78074248D01*
X144520330Y-78389029D01*
X145006511Y-78713885D01*
X145580000Y-78827959D01*
X146153489Y-78713885D01*
X146639670Y-78389029D01*
X146850000Y-78074248D01*
X147060330Y-78389029D01*
X147546511Y-78713885D01*
X148120000Y-78827959D01*
X148693489Y-78713885D01*
X149179670Y-78389029D01*
X149390000Y-78074248D01*
X149600330Y-78389029D01*
X150086511Y-78713885D01*
X150660000Y-78827959D01*
X151233489Y-78713885D01*
X151719670Y-78389029D01*
X152044526Y-77902848D01*
X152158600Y-77329359D01*
X152158600Y-77270641D01*
X152044526Y-76697152D01*
X151719670Y-76210971D01*
X151448827Y-76030000D01*
X151719670Y-75849029D01*
X152044526Y-75362848D01*
X152158600Y-74789359D01*
X152158600Y-74730641D01*
X152044526Y-74157152D01*
X151719670Y-73670971D01*
X151233489Y-73346115D01*
X150660000Y-73232041D01*
X150086511Y-73346115D01*
X149600330Y-73670971D01*
X149390000Y-73985751D01*
X149179670Y-73670971D01*
X148693489Y-73346115D01*
X148120000Y-73232041D01*
X147546511Y-73346115D01*
X147060330Y-73670971D01*
X146850000Y-73985751D01*
X146639670Y-73670971D01*
X146153489Y-73346115D01*
X145580000Y-73232041D01*
X145006511Y-73346115D01*
X144520330Y-73670971D01*
X144310000Y-73985751D01*
X144099670Y-73670971D01*
X143613489Y-73346115D01*
X143040000Y-73232041D01*
X142466511Y-73346115D01*
X141980330Y-73670971D01*
X141770000Y-73985751D01*
X141559670Y-73670971D01*
X141073489Y-73346115D01*
X140500000Y-73232041D01*
X139926511Y-73346115D01*
X139440330Y-73670971D01*
X139230000Y-73985751D01*
X139019670Y-73670971D01*
X138533489Y-73346115D01*
X137960000Y-73232041D01*
X137386511Y-73346115D01*
X136900330Y-73670971D01*
X136690000Y-73985751D01*
X136479670Y-73670971D01*
X135993489Y-73346115D01*
X135420000Y-73232041D01*
X134846511Y-73346115D01*
X134360330Y-73670971D01*
X134150000Y-73985751D01*
X133939670Y-73670971D01*
X133453489Y-73346115D01*
X132880000Y-73232041D01*
X132306511Y-73346115D01*
X131820330Y-73670971D01*
X131610000Y-73985751D01*
X131399670Y-73670971D01*
X130913489Y-73346115D01*
X130340000Y-73232041D01*
X129766511Y-73346115D01*
X129280330Y-73670971D01*
X129070000Y-73985751D01*
X128859670Y-73670971D01*
X128373489Y-73346115D01*
X127800000Y-73232041D01*
X127226511Y-73346115D01*
X126740330Y-73670971D01*
X126530000Y-73985751D01*
X126319670Y-73670971D01*
X125833489Y-73346115D01*
X125260000Y-73232041D01*
X124686511Y-73346115D01*
X124200330Y-73670971D01*
X123990000Y-73985751D01*
X123779670Y-73670971D01*
X123293489Y-73346115D01*
X122720000Y-73232041D01*
X122146511Y-73346115D01*
X121660330Y-73670971D01*
X121450000Y-73985751D01*
X121239670Y-73670971D01*
X120753489Y-73346115D01*
X120373805Y-73270591D01*
X120586086Y-73182879D01*
X120634048Y-73135000D01*
X156388214Y-73135000D01*
X157205193Y-73297506D01*
X157803029Y-73696968D01*
X158202492Y-74294805D01*
X158386809Y-75221428D01*
X158409510Y-75276233D01*
M02*
