G04 #@! TF.FileFunction,Profile,NP*
%FSLAX46Y46*%
G04 Gerber Fmt 4.6, Leading zero omitted, Abs format (unit mm)*
G04 Created by KiCad (PCBNEW (2015-01-16 BZR 5376)-product) date 24/06/2015 09:07:54*
%MOMM*%
G01*
G04 APERTURE LIST*
%ADD10C,0.100000*%
%ADD11C,2.000000*%
G04 APERTURE END LIST*
D10*
D11*
X27940000Y-21590000D02*
X27940000Y-17780000D01*
X243840000Y-20320000D02*
X243840000Y-17780000D01*
X27940000Y-212090000D02*
X27940000Y-214630000D01*
X243840000Y-212090000D02*
X243840000Y-214630000D01*
X243840000Y-17780000D02*
X38100000Y-17780000D01*
X243840000Y-212090000D02*
X243840000Y-20320000D01*
X27940000Y-214630000D02*
X243840000Y-214630000D01*
X27940000Y-20320000D02*
X27940000Y-212090000D01*
X38100000Y-17780000D02*
X27940000Y-17780000D01*
D10*
X234483000Y-105315000D02*
X234483000Y-107815000D01*
D11*
X142113000Y-24130000D02*
G75*
G03X138303000Y-27940000I0J-3810000D01*
G01*
X231838500Y-113982500D02*
G75*
G03X235648500Y-110172500I0J3810000D01*
G01*
X235648500Y-27940000D02*
G75*
G03X231838500Y-24130000I-3810000J0D01*
G01*
X138303000Y-110172500D02*
G75*
G03X142113000Y-113982500I3810000J0D01*
G01*
X138303000Y-27940000D02*
X138303000Y-110236000D01*
X235648500Y-27940000D02*
X235648500Y-110363000D01*
X145732500Y-113982500D02*
X228155500Y-113982500D01*
X142176500Y-24130000D02*
X185483500Y-24130000D01*
X188976000Y-24130000D02*
X232029000Y-24130000D01*
X188976000Y-118110000D02*
X232029000Y-118110000D01*
X142176500Y-118110000D02*
X185483500Y-118110000D01*
X145732500Y-207962500D02*
X228155500Y-207962500D01*
X235648500Y-121920000D02*
X235648500Y-204343000D01*
X138303000Y-121920000D02*
X138303000Y-204216000D01*
X138303000Y-204152500D02*
G75*
G03X142113000Y-207962500I3810000J0D01*
G01*
X235648500Y-121920000D02*
G75*
G03X231838500Y-118110000I-3810000J0D01*
G01*
X231838500Y-207962500D02*
G75*
G03X235648500Y-204152500I0J3810000D01*
G01*
X142113000Y-118110000D02*
G75*
G03X138303000Y-121920000I0J-3810000D01*
G01*
D10*
X234483000Y-199295000D02*
X234483000Y-201795000D01*
X132883000Y-199295000D02*
X132883000Y-201795000D01*
D11*
X40513000Y-118110000D02*
G75*
G03X36703000Y-121920000I0J-3810000D01*
G01*
X130238500Y-207962500D02*
G75*
G03X134048500Y-204152500I0J3810000D01*
G01*
X134048500Y-121920000D02*
G75*
G03X130238500Y-118110000I-3810000J0D01*
G01*
X36703000Y-204152500D02*
G75*
G03X40513000Y-207962500I3810000J0D01*
G01*
X36703000Y-121920000D02*
X36703000Y-204216000D01*
X134048500Y-121920000D02*
X134048500Y-204343000D01*
X44132500Y-207962500D02*
X126555500Y-207962500D01*
X40576500Y-118110000D02*
X83883500Y-118110000D01*
X87376000Y-118110000D02*
X130429000Y-118110000D01*
X87376000Y-24130000D02*
X130429000Y-24130000D01*
X40576500Y-24130000D02*
X83883500Y-24130000D01*
X44132500Y-113982500D02*
X126555500Y-113982500D01*
X134048500Y-27940000D02*
X134048500Y-110363000D01*
X36703000Y-27940000D02*
X36703000Y-110236000D01*
X36703000Y-110172500D02*
G75*
G03X40513000Y-113982500I3810000J0D01*
G01*
X134048500Y-27940000D02*
G75*
G03X130238500Y-24130000I-3810000J0D01*
G01*
X130238500Y-113982500D02*
G75*
G03X134048500Y-110172500I0J3810000D01*
G01*
X40513000Y-24130000D02*
G75*
G03X36703000Y-27940000I0J-3810000D01*
G01*
D10*
X132883000Y-105315000D02*
X132883000Y-107815000D01*
M02*
