M48
;DRILL file {kicad (after 2015-mar-04 BZR unknown)-product} date 28/05/2015 21:09:33
;FORMAT={-:-/ absolute / inch / decimal}
FMAT,2
INCH,TZ
T1C0.031
T2C0.032
T3C0.039
T4C0.040
T5C0.063
T6C0.118
%
G90
G05
M72
T1
X4.8425Y-1.9685
T2
X4.8425Y-2.0669
T3
X4.272Y-1.9114
X4.272Y-2.0886
X4.528Y-1.9114
X4.528Y-2.0886
X5.872Y-1.9114
X5.872Y-2.0886
X6.128Y-1.9114
X6.128Y-2.0886
T4
X5.0197Y-1.9669
X5.0197Y-2.0669
X5.1197Y-1.9669
X5.1197Y-2.0669
X5.2197Y-1.9669
X5.2197Y-2.0669
X5.3197Y-1.9669
X5.3197Y-2.0669
X5.4197Y-1.9669
X5.4197Y-2.0669
T5
X3.6417Y-2.6772
X3.6417Y-3.3661
X3.6417Y-4.0551
X3.6417Y-4.7441
X3.8386Y-2.4803
X3.8386Y-3.1693
X3.8386Y-3.8583
X3.8386Y-4.5472
X6.5945Y-2.4803
X6.5945Y-3.1693
X6.5945Y-3.8583
X6.5945Y-4.5472
X6.7913Y-2.6772
X6.7913Y-3.3661
X6.7913Y-4.0551
X6.7913Y-4.7441
T6
X3.5433Y-1.9685
X3.5433Y-5.0197
X6.8898Y-1.9685
X6.8898Y-5.0197
T0
M30
