G04 #@! TF.FileFunction,Copper,L2,Bot,Signal*
%FSLAX46Y46*%
G04 Gerber Fmt 4.6, Leading zero omitted, Abs format (unit mm)*
G04 Created by KiCad (PCBNEW (2015-01-16 BZR 5376)-product) date 24/06/2015 09:06:33*
%MOMM*%
G01*
G04 APERTURE LIST*
%ADD10C,0.100000*%
%ADD11C,2.000000*%
%ADD12C,0.300000*%
%ADD13O,2.200000X1.524000*%
%ADD14R,1.300000X1.300000*%
%ADD15C,1.300000*%
%ADD16O,2.400000X3.000000*%
%ADD17R,1.727200X1.727200*%
%ADD18O,1.727200X1.727200*%
%ADD19C,4.000000*%
%ADD20C,0.254000*%
G04 APERTURE END LIST*
D10*
D11*
X134493000Y-43815000D02*
X177546000Y-43815000D01*
X87693500Y-43815000D02*
X131000500Y-43815000D01*
X91249500Y-133667500D02*
X173672500Y-133667500D01*
X181165500Y-47625000D02*
X181165500Y-130048000D01*
X83820000Y-47625000D02*
X83820000Y-129921000D01*
X83820000Y-129857500D02*
G75*
G03X87630000Y-133667500I3810000J0D01*
G01*
X181165500Y-47625000D02*
G75*
G03X177355500Y-43815000I-3810000J0D01*
G01*
X177355500Y-133667500D02*
G75*
G03X181165500Y-129857500I0J3810000D01*
G01*
X87630000Y-43815000D02*
G75*
G03X83820000Y-47625000I0J-3810000D01*
G01*
D10*
X180000000Y-125000000D02*
X180000000Y-127500000D01*
D12*
X174625000Y-132842000D03*
X175133000Y-132842000D03*
X175514000Y-132842000D03*
X175895000Y-132842000D03*
X176403000Y-132842000D03*
X90297000Y-132842000D03*
X89916000Y-132842000D03*
X89535000Y-132842000D03*
X89154000Y-132842000D03*
X88646000Y-132842000D03*
D13*
X155650000Y-48550000D03*
X155650000Y-53050000D03*
X149150000Y-48550000D03*
X149150000Y-53050000D03*
X115010000Y-48550000D03*
X115010000Y-53050000D03*
X108510000Y-48550000D03*
X108510000Y-53050000D03*
D14*
X123000000Y-50000000D03*
D15*
X123000000Y-52500000D03*
D16*
X97500000Y-63000000D03*
X92500000Y-68000000D03*
X167500000Y-63000000D03*
X172500000Y-68000000D03*
X97500000Y-80500000D03*
X92500000Y-85500000D03*
X167500000Y-80500000D03*
X172500000Y-85500000D03*
X97500000Y-98000000D03*
X92500000Y-103000000D03*
X167500000Y-98000000D03*
X172500000Y-103000000D03*
X97500000Y-115500000D03*
X92500000Y-120500000D03*
X167500000Y-115500000D03*
X172500000Y-120500000D03*
D17*
X127500000Y-52500000D03*
D18*
X127500000Y-49960000D03*
X130040000Y-52500000D03*
X130040000Y-49960000D03*
X132580000Y-52500000D03*
X132580000Y-49960000D03*
X135120000Y-52500000D03*
X135120000Y-49960000D03*
X137660000Y-52500000D03*
X137660000Y-49960000D03*
D19*
X90000000Y-50000000D03*
X175000000Y-50000000D03*
X90000000Y-127500000D03*
X175000000Y-127500000D03*
D12*
X131826000Y-44704000D03*
X132334000Y-44704000D03*
X132715000Y-44704000D03*
X133096000Y-44704000D03*
X133604000Y-44704000D03*
D20*
X172500000Y-68000000D02*
X92500000Y-68000000D01*
X172500000Y-85500000D02*
X92500000Y-85500000D01*
X127500000Y-49960000D02*
X127500000Y-49500000D01*
X127500000Y-49500000D02*
X130000000Y-47000000D01*
X130000000Y-47000000D02*
X147320000Y-47000000D01*
X108510000Y-48550000D02*
X115010000Y-48550000D01*
X117130000Y-48550000D02*
X118580000Y-50000000D01*
X118580000Y-50000000D02*
X123000000Y-50000000D01*
X115010000Y-48550000D02*
X117130000Y-48550000D01*
X147320000Y-46990000D02*
X147320000Y-47000000D01*
X147330000Y-47000000D02*
X147320000Y-46990000D01*
X147600000Y-47000000D02*
X147330000Y-47000000D01*
X149150000Y-48550000D02*
X147600000Y-47000000D01*
X155650000Y-48550000D02*
X149150000Y-48550000D01*
X167500000Y-57010000D02*
X159040000Y-48550000D01*
X159040000Y-48550000D02*
X155650000Y-48550000D01*
X167500000Y-63000000D02*
X167500000Y-57500000D01*
X167500000Y-57500000D02*
X167500000Y-57010000D01*
X172500000Y-103000000D02*
X92500000Y-103000000D01*
X172500000Y-120500000D02*
X92500000Y-120500000D01*
X127500000Y-52500000D02*
X127500000Y-52840000D01*
X127500000Y-52840000D02*
X124460000Y-55880000D01*
X124460000Y-55880000D02*
X117840000Y-55880000D01*
X117840000Y-55880000D02*
X115010000Y-53050000D01*
X115010000Y-53050000D02*
X108510000Y-53050000D01*
X148600000Y-52500000D02*
X149150000Y-53050000D01*
X137660000Y-52500000D02*
X148600000Y-52500000D01*
X149150000Y-53050000D02*
X155650000Y-53050000D01*
G36*
X179315000Y-129932532D02*
X179164442Y-130689435D01*
X178773908Y-131273910D01*
X178189434Y-131664443D01*
X177635457Y-131774635D01*
X177635457Y-126978166D01*
X177635457Y-49478166D01*
X177235147Y-48509342D01*
X176494557Y-47767458D01*
X175526433Y-47365458D01*
X174478166Y-47364543D01*
X173509342Y-47764853D01*
X172767458Y-48505443D01*
X172365458Y-49473567D01*
X172364543Y-50521834D01*
X172764853Y-51490658D01*
X173505443Y-52232542D01*
X174473567Y-52634542D01*
X175521834Y-52635457D01*
X176490658Y-52235147D01*
X177232542Y-51494557D01*
X177634542Y-50526433D01*
X177635457Y-49478166D01*
X177635457Y-126978166D01*
X177235147Y-126009342D01*
X176494557Y-125267458D01*
X175526433Y-124865458D01*
X174478166Y-124864543D01*
X174335000Y-124923697D01*
X174335000Y-120841827D01*
X174335000Y-120158173D01*
X174335000Y-103341827D01*
X174335000Y-102658173D01*
X174335000Y-85841827D01*
X174335000Y-85158173D01*
X174335000Y-68341827D01*
X174335000Y-67658173D01*
X174195319Y-66955949D01*
X173797541Y-66360632D01*
X173202224Y-65962854D01*
X172500000Y-65823173D01*
X171797776Y-65962854D01*
X171202459Y-66360632D01*
X170804681Y-66955949D01*
X170748577Y-67238000D01*
X169335000Y-67238000D01*
X169335000Y-63341827D01*
X169335000Y-62658173D01*
X169195319Y-61955949D01*
X168797541Y-61360632D01*
X168262000Y-61002795D01*
X168262000Y-57500000D01*
X168262000Y-57010000D01*
X168203996Y-56718396D01*
X168203996Y-56718395D01*
X168137834Y-56619376D01*
X168038816Y-56471185D01*
X159578815Y-48011185D01*
X159331605Y-47846004D01*
X159040000Y-47788000D01*
X157160712Y-47788000D01*
X157009819Y-47562172D01*
X156556600Y-47259340D01*
X156021991Y-47153000D01*
X155278009Y-47153000D01*
X154743400Y-47259340D01*
X154290181Y-47562172D01*
X154139287Y-47788000D01*
X150660712Y-47788000D01*
X150509819Y-47562172D01*
X150056600Y-47259340D01*
X149521991Y-47153000D01*
X148830630Y-47153000D01*
X148138815Y-46461185D01*
X147891605Y-46296004D01*
X147600000Y-46238000D01*
X147370273Y-46238000D01*
X147320000Y-46228000D01*
X147269726Y-46238000D01*
X130000000Y-46238000D01*
X129708395Y-46296004D01*
X129461185Y-46461185D01*
X127487927Y-48434442D01*
X126926511Y-48546115D01*
X126440330Y-48870971D01*
X126115474Y-49357152D01*
X126001400Y-49930641D01*
X126001400Y-49989359D01*
X126115474Y-50562848D01*
X126427300Y-51029529D01*
X126394277Y-51035937D01*
X126181473Y-51175727D01*
X126039023Y-51386760D01*
X125988960Y-51636400D01*
X125988960Y-53273409D01*
X124297622Y-54964747D01*
X124297622Y-52680922D01*
X124297440Y-52677777D01*
X124297440Y-50650000D01*
X124297440Y-49350000D01*
X124250463Y-49107877D01*
X124110673Y-48895073D01*
X123899640Y-48752623D01*
X123650000Y-48702560D01*
X122350000Y-48702560D01*
X122107877Y-48749537D01*
X121895073Y-48889327D01*
X121752623Y-49100360D01*
X121725020Y-49238000D01*
X118895630Y-49238000D01*
X117668815Y-48011185D01*
X117421605Y-47846004D01*
X117130000Y-47788000D01*
X116520712Y-47788000D01*
X116369819Y-47562172D01*
X115916600Y-47259340D01*
X115381991Y-47153000D01*
X114638009Y-47153000D01*
X114103400Y-47259340D01*
X113650181Y-47562172D01*
X113499287Y-47788000D01*
X110020712Y-47788000D01*
X109869819Y-47562172D01*
X109416600Y-47259340D01*
X108881991Y-47153000D01*
X108138009Y-47153000D01*
X107603400Y-47259340D01*
X107150181Y-47562172D01*
X106847349Y-48015391D01*
X106741009Y-48550000D01*
X106847349Y-49084609D01*
X107150181Y-49537828D01*
X107603400Y-49840660D01*
X108138009Y-49947000D01*
X108881991Y-49947000D01*
X109416600Y-49840660D01*
X109869819Y-49537828D01*
X110020712Y-49312000D01*
X113499287Y-49312000D01*
X113650181Y-49537828D01*
X114103400Y-49840660D01*
X114638009Y-49947000D01*
X115381991Y-49947000D01*
X115916600Y-49840660D01*
X116369819Y-49537828D01*
X116520712Y-49312000D01*
X116814369Y-49312000D01*
X118041185Y-50538816D01*
X118189376Y-50637834D01*
X118288395Y-50703996D01*
X118288396Y-50703996D01*
X118580000Y-50762000D01*
X121724290Y-50762000D01*
X121749537Y-50892123D01*
X121889327Y-51104927D01*
X122100360Y-51247377D01*
X122350000Y-51297440D01*
X122512385Y-51297440D01*
X122336271Y-51370389D01*
X122280590Y-51600984D01*
X123000000Y-52320395D01*
X123719410Y-51600984D01*
X123663729Y-51370389D01*
X123454098Y-51297440D01*
X123650000Y-51297440D01*
X123892123Y-51250463D01*
X124104927Y-51110673D01*
X124247377Y-50899640D01*
X124297440Y-50650000D01*
X124297440Y-52677777D01*
X124268083Y-52170572D01*
X124129611Y-51836271D01*
X123899016Y-51780590D01*
X123179605Y-52500000D01*
X123899016Y-53219410D01*
X124129611Y-53163729D01*
X124297622Y-52680922D01*
X124297622Y-54964747D01*
X124144369Y-55118000D01*
X123719410Y-55118000D01*
X123719410Y-53399016D01*
X123000000Y-52679605D01*
X122820395Y-52859210D01*
X122820395Y-52500000D01*
X122100984Y-51780590D01*
X121870389Y-51836271D01*
X121702378Y-52319078D01*
X121731917Y-52829428D01*
X121870389Y-53163729D01*
X122100984Y-53219410D01*
X122820395Y-52500000D01*
X122820395Y-52859210D01*
X122280590Y-53399016D01*
X122336271Y-53629611D01*
X122819078Y-53797622D01*
X123329428Y-53768083D01*
X123663729Y-53629611D01*
X123719410Y-53399016D01*
X123719410Y-55118000D01*
X118155630Y-55118000D01*
X116652458Y-53614828D01*
X116672651Y-53584609D01*
X116778991Y-53050000D01*
X116672651Y-52515391D01*
X116369819Y-52062172D01*
X115916600Y-51759340D01*
X115381991Y-51653000D01*
X114638009Y-51653000D01*
X114103400Y-51759340D01*
X113650181Y-52062172D01*
X113499287Y-52288000D01*
X110020712Y-52288000D01*
X109869819Y-52062172D01*
X109416600Y-51759340D01*
X108881991Y-51653000D01*
X108138009Y-51653000D01*
X107603400Y-51759340D01*
X107150181Y-52062172D01*
X106847349Y-52515391D01*
X106741009Y-53050000D01*
X106847349Y-53584609D01*
X107150181Y-54037828D01*
X107603400Y-54340660D01*
X108138009Y-54447000D01*
X108881991Y-54447000D01*
X109416600Y-54340660D01*
X109869819Y-54037828D01*
X110020712Y-53812000D01*
X113499287Y-53812000D01*
X113650181Y-54037828D01*
X114103400Y-54340660D01*
X114638009Y-54447000D01*
X115329369Y-54447000D01*
X117301184Y-56418815D01*
X117301185Y-56418815D01*
X117548395Y-56583996D01*
X117840000Y-56642000D01*
X124460000Y-56642000D01*
X124460000Y-56641999D01*
X124751604Y-56583996D01*
X124751605Y-56583996D01*
X124998815Y-56418815D01*
X127406590Y-54011040D01*
X128363600Y-54011040D01*
X128605723Y-53964063D01*
X128818527Y-53824273D01*
X128960977Y-53613240D01*
X128969179Y-53572340D01*
X128980330Y-53589029D01*
X129466511Y-53913885D01*
X130040000Y-54027959D01*
X130613489Y-53913885D01*
X131099670Y-53589029D01*
X131310000Y-53274248D01*
X131520330Y-53589029D01*
X132006511Y-53913885D01*
X132580000Y-54027959D01*
X133153489Y-53913885D01*
X133639670Y-53589029D01*
X133850000Y-53274248D01*
X134060330Y-53589029D01*
X134546511Y-53913885D01*
X135120000Y-54027959D01*
X135693489Y-53913885D01*
X136179670Y-53589029D01*
X136390000Y-53274248D01*
X136600330Y-53589029D01*
X137086511Y-53913885D01*
X137660000Y-54027959D01*
X138233489Y-53913885D01*
X138719670Y-53589029D01*
X138938183Y-53262000D01*
X147423178Y-53262000D01*
X147487349Y-53584609D01*
X147790181Y-54037828D01*
X148243400Y-54340660D01*
X148778009Y-54447000D01*
X149521991Y-54447000D01*
X150056600Y-54340660D01*
X150509819Y-54037828D01*
X150812651Y-53584609D01*
X150918991Y-53050000D01*
X150812651Y-52515391D01*
X150509819Y-52062172D01*
X150056600Y-51759340D01*
X149521991Y-51653000D01*
X148778009Y-51653000D01*
X148350683Y-51738000D01*
X138938183Y-51738000D01*
X138719670Y-51410971D01*
X138448839Y-51230007D01*
X138866821Y-50848490D01*
X139114968Y-50319027D01*
X139114968Y-49600973D01*
X138866821Y-49071510D01*
X138434947Y-48677312D01*
X138019026Y-48505042D01*
X137787000Y-48626183D01*
X137787000Y-49833000D01*
X138994469Y-49833000D01*
X139114968Y-49600973D01*
X139114968Y-50319027D01*
X138994469Y-50087000D01*
X137787000Y-50087000D01*
X137787000Y-50107000D01*
X137533000Y-50107000D01*
X137533000Y-50087000D01*
X137513000Y-50087000D01*
X137513000Y-49833000D01*
X137533000Y-49833000D01*
X137533000Y-48626183D01*
X137300974Y-48505042D01*
X136885053Y-48677312D01*
X136453179Y-49071510D01*
X136395663Y-49194228D01*
X136179670Y-48870971D01*
X135693489Y-48546115D01*
X135120000Y-48432041D01*
X134546511Y-48546115D01*
X134060330Y-48870971D01*
X133850000Y-49185751D01*
X133639670Y-48870971D01*
X133153489Y-48546115D01*
X132580000Y-48432041D01*
X132006511Y-48546115D01*
X131520330Y-48870971D01*
X131310000Y-49185751D01*
X131099670Y-48870971D01*
X130613489Y-48546115D01*
X130040000Y-48432041D01*
X129547655Y-48529974D01*
X130315630Y-47762000D01*
X147284370Y-47762000D01*
X147507541Y-47985171D01*
X147487349Y-48015391D01*
X147381009Y-48550000D01*
X147487349Y-49084609D01*
X147790181Y-49537828D01*
X148243400Y-49840660D01*
X148778009Y-49947000D01*
X149521991Y-49947000D01*
X150056600Y-49840660D01*
X150509819Y-49537828D01*
X150660712Y-49312000D01*
X154139287Y-49312000D01*
X154290181Y-49537828D01*
X154743400Y-49840660D01*
X155278009Y-49947000D01*
X156021991Y-49947000D01*
X156556600Y-49840660D01*
X157009819Y-49537828D01*
X157160712Y-49312000D01*
X158724369Y-49312000D01*
X166738000Y-57325630D01*
X166738000Y-57500000D01*
X166738000Y-61002795D01*
X166202459Y-61360632D01*
X165804681Y-61955949D01*
X165665000Y-62658173D01*
X165665000Y-63341827D01*
X165804681Y-64044051D01*
X166202459Y-64639368D01*
X166797776Y-65037146D01*
X167500000Y-65176827D01*
X168202224Y-65037146D01*
X168797541Y-64639368D01*
X169195319Y-64044051D01*
X169335000Y-63341827D01*
X169335000Y-67238000D01*
X157418991Y-67238000D01*
X157418991Y-53050000D01*
X157312651Y-52515391D01*
X157009819Y-52062172D01*
X156556600Y-51759340D01*
X156021991Y-51653000D01*
X155278009Y-51653000D01*
X154743400Y-51759340D01*
X154290181Y-52062172D01*
X153987349Y-52515391D01*
X153881009Y-53050000D01*
X153987349Y-53584609D01*
X154290181Y-54037828D01*
X154743400Y-54340660D01*
X155278009Y-54447000D01*
X156021991Y-54447000D01*
X156556600Y-54340660D01*
X157009819Y-54037828D01*
X157312651Y-53584609D01*
X157418991Y-53050000D01*
X157418991Y-67238000D01*
X99335000Y-67238000D01*
X99335000Y-63427000D01*
X99335000Y-63127000D01*
X99335000Y-62873000D01*
X99335000Y-62573000D01*
X99146718Y-61880443D01*
X98707738Y-61312656D01*
X98084891Y-60956080D01*
X97911805Y-60911805D01*
X97627000Y-61028568D01*
X97627000Y-62873000D01*
X99335000Y-62873000D01*
X99335000Y-63127000D01*
X97627000Y-63127000D01*
X97627000Y-64971432D01*
X97911805Y-65088195D01*
X98084891Y-65043920D01*
X98707738Y-64687344D01*
X99146718Y-64119557D01*
X99335000Y-63427000D01*
X99335000Y-67238000D01*
X97373000Y-67238000D01*
X97373000Y-64971432D01*
X97373000Y-63127000D01*
X97373000Y-62873000D01*
X97373000Y-61028568D01*
X97088195Y-60911805D01*
X96915109Y-60956080D01*
X96292262Y-61312656D01*
X95853282Y-61880443D01*
X95665000Y-62573000D01*
X95665000Y-62873000D01*
X97373000Y-62873000D01*
X97373000Y-63127000D01*
X95665000Y-63127000D01*
X95665000Y-63427000D01*
X95853282Y-64119557D01*
X96292262Y-64687344D01*
X96915109Y-65043920D01*
X97088195Y-65088195D01*
X97373000Y-64971432D01*
X97373000Y-67238000D01*
X94251422Y-67238000D01*
X94195319Y-66955949D01*
X93797541Y-66360632D01*
X93202224Y-65962854D01*
X92635457Y-65850117D01*
X92635457Y-49478166D01*
X92235147Y-48509342D01*
X91494557Y-47767458D01*
X90526433Y-47365458D01*
X89478166Y-47364543D01*
X88509342Y-47764853D01*
X87767458Y-48505443D01*
X87365458Y-49473567D01*
X87364543Y-50521834D01*
X87764853Y-51490658D01*
X88505443Y-52232542D01*
X89473567Y-52634542D01*
X90521834Y-52635457D01*
X91490658Y-52235147D01*
X92232542Y-51494557D01*
X92634542Y-50526433D01*
X92635457Y-49478166D01*
X92635457Y-65850117D01*
X92500000Y-65823173D01*
X91797776Y-65962854D01*
X91202459Y-66360632D01*
X90804681Y-66955949D01*
X90665000Y-67658173D01*
X90665000Y-68341827D01*
X90804681Y-69044051D01*
X91202459Y-69639368D01*
X91797776Y-70037146D01*
X92500000Y-70176827D01*
X93202224Y-70037146D01*
X93797541Y-69639368D01*
X94195319Y-69044051D01*
X94251422Y-68762000D01*
X170748577Y-68762000D01*
X170804681Y-69044051D01*
X171202459Y-69639368D01*
X171797776Y-70037146D01*
X172500000Y-70176827D01*
X173202224Y-70037146D01*
X173797541Y-69639368D01*
X174195319Y-69044051D01*
X174335000Y-68341827D01*
X174335000Y-85158173D01*
X174195319Y-84455949D01*
X173797541Y-83860632D01*
X173202224Y-83462854D01*
X172500000Y-83323173D01*
X171797776Y-83462854D01*
X171202459Y-83860632D01*
X170804681Y-84455949D01*
X170748577Y-84738000D01*
X169335000Y-84738000D01*
X169335000Y-80841827D01*
X169335000Y-80158173D01*
X169195319Y-79455949D01*
X168797541Y-78860632D01*
X168202224Y-78462854D01*
X167500000Y-78323173D01*
X166797776Y-78462854D01*
X166202459Y-78860632D01*
X165804681Y-79455949D01*
X165665000Y-80158173D01*
X165665000Y-80841827D01*
X165804681Y-81544051D01*
X166202459Y-82139368D01*
X166797776Y-82537146D01*
X167500000Y-82676827D01*
X168202224Y-82537146D01*
X168797541Y-82139368D01*
X169195319Y-81544051D01*
X169335000Y-80841827D01*
X169335000Y-84738000D01*
X99335000Y-84738000D01*
X99335000Y-80927000D01*
X99335000Y-80627000D01*
X99335000Y-80373000D01*
X99335000Y-80073000D01*
X99146718Y-79380443D01*
X98707738Y-78812656D01*
X98084891Y-78456080D01*
X97911805Y-78411805D01*
X97627000Y-78528568D01*
X97627000Y-80373000D01*
X99335000Y-80373000D01*
X99335000Y-80627000D01*
X97627000Y-80627000D01*
X97627000Y-82471432D01*
X97911805Y-82588195D01*
X98084891Y-82543920D01*
X98707738Y-82187344D01*
X99146718Y-81619557D01*
X99335000Y-80927000D01*
X99335000Y-84738000D01*
X97373000Y-84738000D01*
X97373000Y-82471432D01*
X97373000Y-80627000D01*
X97373000Y-80373000D01*
X97373000Y-78528568D01*
X97088195Y-78411805D01*
X96915109Y-78456080D01*
X96292262Y-78812656D01*
X95853282Y-79380443D01*
X95665000Y-80073000D01*
X95665000Y-80373000D01*
X97373000Y-80373000D01*
X97373000Y-80627000D01*
X95665000Y-80627000D01*
X95665000Y-80927000D01*
X95853282Y-81619557D01*
X96292262Y-82187344D01*
X96915109Y-82543920D01*
X97088195Y-82588195D01*
X97373000Y-82471432D01*
X97373000Y-84738000D01*
X94251422Y-84738000D01*
X94195319Y-84455949D01*
X93797541Y-83860632D01*
X93202224Y-83462854D01*
X92500000Y-83323173D01*
X91797776Y-83462854D01*
X91202459Y-83860632D01*
X90804681Y-84455949D01*
X90665000Y-85158173D01*
X90665000Y-85841827D01*
X90804681Y-86544051D01*
X91202459Y-87139368D01*
X91797776Y-87537146D01*
X92500000Y-87676827D01*
X93202224Y-87537146D01*
X93797541Y-87139368D01*
X94195319Y-86544051D01*
X94251422Y-86262000D01*
X170748577Y-86262000D01*
X170804681Y-86544051D01*
X171202459Y-87139368D01*
X171797776Y-87537146D01*
X172500000Y-87676827D01*
X173202224Y-87537146D01*
X173797541Y-87139368D01*
X174195319Y-86544051D01*
X174335000Y-85841827D01*
X174335000Y-102658173D01*
X174195319Y-101955949D01*
X173797541Y-101360632D01*
X173202224Y-100962854D01*
X172500000Y-100823173D01*
X171797776Y-100962854D01*
X171202459Y-101360632D01*
X170804681Y-101955949D01*
X170748577Y-102238000D01*
X169335000Y-102238000D01*
X169335000Y-98341827D01*
X169335000Y-97658173D01*
X169195319Y-96955949D01*
X168797541Y-96360632D01*
X168202224Y-95962854D01*
X167500000Y-95823173D01*
X166797776Y-95962854D01*
X166202459Y-96360632D01*
X165804681Y-96955949D01*
X165665000Y-97658173D01*
X165665000Y-98341827D01*
X165804681Y-99044051D01*
X166202459Y-99639368D01*
X166797776Y-100037146D01*
X167500000Y-100176827D01*
X168202224Y-100037146D01*
X168797541Y-99639368D01*
X169195319Y-99044051D01*
X169335000Y-98341827D01*
X169335000Y-102238000D01*
X99335000Y-102238000D01*
X99335000Y-98427000D01*
X99335000Y-98127000D01*
X99335000Y-97873000D01*
X99335000Y-97573000D01*
X99146718Y-96880443D01*
X98707738Y-96312656D01*
X98084891Y-95956080D01*
X97911805Y-95911805D01*
X97627000Y-96028568D01*
X97627000Y-97873000D01*
X99335000Y-97873000D01*
X99335000Y-98127000D01*
X97627000Y-98127000D01*
X97627000Y-99971432D01*
X97911805Y-100088195D01*
X98084891Y-100043920D01*
X98707738Y-99687344D01*
X99146718Y-99119557D01*
X99335000Y-98427000D01*
X99335000Y-102238000D01*
X97373000Y-102238000D01*
X97373000Y-99971432D01*
X97373000Y-98127000D01*
X97373000Y-97873000D01*
X97373000Y-96028568D01*
X97088195Y-95911805D01*
X96915109Y-95956080D01*
X96292262Y-96312656D01*
X95853282Y-96880443D01*
X95665000Y-97573000D01*
X95665000Y-97873000D01*
X97373000Y-97873000D01*
X97373000Y-98127000D01*
X95665000Y-98127000D01*
X95665000Y-98427000D01*
X95853282Y-99119557D01*
X96292262Y-99687344D01*
X96915109Y-100043920D01*
X97088195Y-100088195D01*
X97373000Y-99971432D01*
X97373000Y-102238000D01*
X94251422Y-102238000D01*
X94195319Y-101955949D01*
X93797541Y-101360632D01*
X93202224Y-100962854D01*
X92500000Y-100823173D01*
X91797776Y-100962854D01*
X91202459Y-101360632D01*
X90804681Y-101955949D01*
X90665000Y-102658173D01*
X90665000Y-103341827D01*
X90804681Y-104044051D01*
X91202459Y-104639368D01*
X91797776Y-105037146D01*
X92500000Y-105176827D01*
X93202224Y-105037146D01*
X93797541Y-104639368D01*
X94195319Y-104044051D01*
X94251422Y-103762000D01*
X170748577Y-103762000D01*
X170804681Y-104044051D01*
X171202459Y-104639368D01*
X171797776Y-105037146D01*
X172500000Y-105176827D01*
X173202224Y-105037146D01*
X173797541Y-104639368D01*
X174195319Y-104044051D01*
X174335000Y-103341827D01*
X174335000Y-120158173D01*
X174195319Y-119455949D01*
X173797541Y-118860632D01*
X173202224Y-118462854D01*
X172500000Y-118323173D01*
X171797776Y-118462854D01*
X171202459Y-118860632D01*
X170804681Y-119455949D01*
X170748577Y-119738000D01*
X169335000Y-119738000D01*
X169335000Y-115841827D01*
X169335000Y-115158173D01*
X169195319Y-114455949D01*
X168797541Y-113860632D01*
X168202224Y-113462854D01*
X167500000Y-113323173D01*
X166797776Y-113462854D01*
X166202459Y-113860632D01*
X165804681Y-114455949D01*
X165665000Y-115158173D01*
X165665000Y-115841827D01*
X165804681Y-116544051D01*
X166202459Y-117139368D01*
X166797776Y-117537146D01*
X167500000Y-117676827D01*
X168202224Y-117537146D01*
X168797541Y-117139368D01*
X169195319Y-116544051D01*
X169335000Y-115841827D01*
X169335000Y-119738000D01*
X99335000Y-119738000D01*
X99335000Y-115927000D01*
X99335000Y-115627000D01*
X99335000Y-115373000D01*
X99335000Y-115073000D01*
X99146718Y-114380443D01*
X98707738Y-113812656D01*
X98084891Y-113456080D01*
X97911805Y-113411805D01*
X97627000Y-113528568D01*
X97627000Y-115373000D01*
X99335000Y-115373000D01*
X99335000Y-115627000D01*
X97627000Y-115627000D01*
X97627000Y-117471432D01*
X97911805Y-117588195D01*
X98084891Y-117543920D01*
X98707738Y-117187344D01*
X99146718Y-116619557D01*
X99335000Y-115927000D01*
X99335000Y-119738000D01*
X97373000Y-119738000D01*
X97373000Y-117471432D01*
X97373000Y-115627000D01*
X97373000Y-115373000D01*
X97373000Y-113528568D01*
X97088195Y-113411805D01*
X96915109Y-113456080D01*
X96292262Y-113812656D01*
X95853282Y-114380443D01*
X95665000Y-115073000D01*
X95665000Y-115373000D01*
X97373000Y-115373000D01*
X97373000Y-115627000D01*
X95665000Y-115627000D01*
X95665000Y-115927000D01*
X95853282Y-116619557D01*
X96292262Y-117187344D01*
X96915109Y-117543920D01*
X97088195Y-117588195D01*
X97373000Y-117471432D01*
X97373000Y-119738000D01*
X94251422Y-119738000D01*
X94195319Y-119455949D01*
X93797541Y-118860632D01*
X93202224Y-118462854D01*
X92500000Y-118323173D01*
X91797776Y-118462854D01*
X91202459Y-118860632D01*
X90804681Y-119455949D01*
X90665000Y-120158173D01*
X90665000Y-120841827D01*
X90804681Y-121544051D01*
X91202459Y-122139368D01*
X91797776Y-122537146D01*
X92500000Y-122676827D01*
X93202224Y-122537146D01*
X93797541Y-122139368D01*
X94195319Y-121544051D01*
X94251422Y-121262000D01*
X170748577Y-121262000D01*
X170804681Y-121544051D01*
X171202459Y-122139368D01*
X171797776Y-122537146D01*
X172500000Y-122676827D01*
X173202224Y-122537146D01*
X173797541Y-122139368D01*
X174195319Y-121544051D01*
X174335000Y-120841827D01*
X174335000Y-124923697D01*
X173509342Y-125264853D01*
X172767458Y-126005443D01*
X172365458Y-126973567D01*
X172364543Y-128021834D01*
X172764853Y-128990658D01*
X173505443Y-129732542D01*
X174473567Y-130134542D01*
X175521834Y-130135457D01*
X176490658Y-129735147D01*
X177232542Y-128994557D01*
X177634542Y-128026433D01*
X177635457Y-126978166D01*
X177635457Y-131774635D01*
X177432532Y-131815000D01*
X92635457Y-131815000D01*
X92635457Y-126978166D01*
X92235147Y-126009342D01*
X91494557Y-125267458D01*
X90526433Y-124865458D01*
X89478166Y-124864543D01*
X88509342Y-125264853D01*
X87767458Y-126005443D01*
X87365458Y-126973567D01*
X87364543Y-128021834D01*
X87764853Y-128990658D01*
X88505443Y-129732542D01*
X89473567Y-130134542D01*
X90521834Y-130135457D01*
X91490658Y-129735147D01*
X92232542Y-128994557D01*
X92634542Y-128026433D01*
X92635457Y-126978166D01*
X92635457Y-131815000D01*
X87567467Y-131815000D01*
X86810564Y-131664442D01*
X86226089Y-131273908D01*
X85835556Y-130689434D01*
X85685000Y-129932532D01*
X85685000Y-127500000D01*
X85685000Y-125000000D01*
X85685000Y-47567467D01*
X85835556Y-46810565D01*
X86226089Y-46226091D01*
X86810564Y-45835557D01*
X87567467Y-45685000D01*
X177432532Y-45685000D01*
X178189434Y-45835556D01*
X178773908Y-46226089D01*
X179164442Y-46810564D01*
X179315000Y-47567467D01*
X179315000Y-125000000D01*
X179315000Y-127500000D01*
X179315000Y-129932532D01*
X179315000Y-129932532D01*
G37*
X179315000Y-129932532D02*
X179164442Y-130689435D01*
X178773908Y-131273910D01*
X178189434Y-131664443D01*
X177635457Y-131774635D01*
X177635457Y-126978166D01*
X177635457Y-49478166D01*
X177235147Y-48509342D01*
X176494557Y-47767458D01*
X175526433Y-47365458D01*
X174478166Y-47364543D01*
X173509342Y-47764853D01*
X172767458Y-48505443D01*
X172365458Y-49473567D01*
X172364543Y-50521834D01*
X172764853Y-51490658D01*
X173505443Y-52232542D01*
X174473567Y-52634542D01*
X175521834Y-52635457D01*
X176490658Y-52235147D01*
X177232542Y-51494557D01*
X177634542Y-50526433D01*
X177635457Y-49478166D01*
X177635457Y-126978166D01*
X177235147Y-126009342D01*
X176494557Y-125267458D01*
X175526433Y-124865458D01*
X174478166Y-124864543D01*
X174335000Y-124923697D01*
X174335000Y-120841827D01*
X174335000Y-120158173D01*
X174335000Y-103341827D01*
X174335000Y-102658173D01*
X174335000Y-85841827D01*
X174335000Y-85158173D01*
X174335000Y-68341827D01*
X174335000Y-67658173D01*
X174195319Y-66955949D01*
X173797541Y-66360632D01*
X173202224Y-65962854D01*
X172500000Y-65823173D01*
X171797776Y-65962854D01*
X171202459Y-66360632D01*
X170804681Y-66955949D01*
X170748577Y-67238000D01*
X169335000Y-67238000D01*
X169335000Y-63341827D01*
X169335000Y-62658173D01*
X169195319Y-61955949D01*
X168797541Y-61360632D01*
X168262000Y-61002795D01*
X168262000Y-57500000D01*
X168262000Y-57010000D01*
X168203996Y-56718396D01*
X168203996Y-56718395D01*
X168137834Y-56619376D01*
X168038816Y-56471185D01*
X159578815Y-48011185D01*
X159331605Y-47846004D01*
X159040000Y-47788000D01*
X157160712Y-47788000D01*
X157009819Y-47562172D01*
X156556600Y-47259340D01*
X156021991Y-47153000D01*
X155278009Y-47153000D01*
X154743400Y-47259340D01*
X154290181Y-47562172D01*
X154139287Y-47788000D01*
X150660712Y-47788000D01*
X150509819Y-47562172D01*
X150056600Y-47259340D01*
X149521991Y-47153000D01*
X148830630Y-47153000D01*
X148138815Y-46461185D01*
X147891605Y-46296004D01*
X147600000Y-46238000D01*
X147370273Y-46238000D01*
X147320000Y-46228000D01*
X147269726Y-46238000D01*
X130000000Y-46238000D01*
X129708395Y-46296004D01*
X129461185Y-46461185D01*
X127487927Y-48434442D01*
X126926511Y-48546115D01*
X126440330Y-48870971D01*
X126115474Y-49357152D01*
X126001400Y-49930641D01*
X126001400Y-49989359D01*
X126115474Y-50562848D01*
X126427300Y-51029529D01*
X126394277Y-51035937D01*
X126181473Y-51175727D01*
X126039023Y-51386760D01*
X125988960Y-51636400D01*
X125988960Y-53273409D01*
X124297622Y-54964747D01*
X124297622Y-52680922D01*
X124297440Y-52677777D01*
X124297440Y-50650000D01*
X124297440Y-49350000D01*
X124250463Y-49107877D01*
X124110673Y-48895073D01*
X123899640Y-48752623D01*
X123650000Y-48702560D01*
X122350000Y-48702560D01*
X122107877Y-48749537D01*
X121895073Y-48889327D01*
X121752623Y-49100360D01*
X121725020Y-49238000D01*
X118895630Y-49238000D01*
X117668815Y-48011185D01*
X117421605Y-47846004D01*
X117130000Y-47788000D01*
X116520712Y-47788000D01*
X116369819Y-47562172D01*
X115916600Y-47259340D01*
X115381991Y-47153000D01*
X114638009Y-47153000D01*
X114103400Y-47259340D01*
X113650181Y-47562172D01*
X113499287Y-47788000D01*
X110020712Y-47788000D01*
X109869819Y-47562172D01*
X109416600Y-47259340D01*
X108881991Y-47153000D01*
X108138009Y-47153000D01*
X107603400Y-47259340D01*
X107150181Y-47562172D01*
X106847349Y-48015391D01*
X106741009Y-48550000D01*
X106847349Y-49084609D01*
X107150181Y-49537828D01*
X107603400Y-49840660D01*
X108138009Y-49947000D01*
X108881991Y-49947000D01*
X109416600Y-49840660D01*
X109869819Y-49537828D01*
X110020712Y-49312000D01*
X113499287Y-49312000D01*
X113650181Y-49537828D01*
X114103400Y-49840660D01*
X114638009Y-49947000D01*
X115381991Y-49947000D01*
X115916600Y-49840660D01*
X116369819Y-49537828D01*
X116520712Y-49312000D01*
X116814369Y-49312000D01*
X118041185Y-50538816D01*
X118189376Y-50637834D01*
X118288395Y-50703996D01*
X118288396Y-50703996D01*
X118580000Y-50762000D01*
X121724290Y-50762000D01*
X121749537Y-50892123D01*
X121889327Y-51104927D01*
X122100360Y-51247377D01*
X122350000Y-51297440D01*
X122512385Y-51297440D01*
X122336271Y-51370389D01*
X122280590Y-51600984D01*
X123000000Y-52320395D01*
X123719410Y-51600984D01*
X123663729Y-51370389D01*
X123454098Y-51297440D01*
X123650000Y-51297440D01*
X123892123Y-51250463D01*
X124104927Y-51110673D01*
X124247377Y-50899640D01*
X124297440Y-50650000D01*
X124297440Y-52677777D01*
X124268083Y-52170572D01*
X124129611Y-51836271D01*
X123899016Y-51780590D01*
X123179605Y-52500000D01*
X123899016Y-53219410D01*
X124129611Y-53163729D01*
X124297622Y-52680922D01*
X124297622Y-54964747D01*
X124144369Y-55118000D01*
X123719410Y-55118000D01*
X123719410Y-53399016D01*
X123000000Y-52679605D01*
X122820395Y-52859210D01*
X122820395Y-52500000D01*
X122100984Y-51780590D01*
X121870389Y-51836271D01*
X121702378Y-52319078D01*
X121731917Y-52829428D01*
X121870389Y-53163729D01*
X122100984Y-53219410D01*
X122820395Y-52500000D01*
X122820395Y-52859210D01*
X122280590Y-53399016D01*
X122336271Y-53629611D01*
X122819078Y-53797622D01*
X123329428Y-53768083D01*
X123663729Y-53629611D01*
X123719410Y-53399016D01*
X123719410Y-55118000D01*
X118155630Y-55118000D01*
X116652458Y-53614828D01*
X116672651Y-53584609D01*
X116778991Y-53050000D01*
X116672651Y-52515391D01*
X116369819Y-52062172D01*
X115916600Y-51759340D01*
X115381991Y-51653000D01*
X114638009Y-51653000D01*
X114103400Y-51759340D01*
X113650181Y-52062172D01*
X113499287Y-52288000D01*
X110020712Y-52288000D01*
X109869819Y-52062172D01*
X109416600Y-51759340D01*
X108881991Y-51653000D01*
X108138009Y-51653000D01*
X107603400Y-51759340D01*
X107150181Y-52062172D01*
X106847349Y-52515391D01*
X106741009Y-53050000D01*
X106847349Y-53584609D01*
X107150181Y-54037828D01*
X107603400Y-54340660D01*
X108138009Y-54447000D01*
X108881991Y-54447000D01*
X109416600Y-54340660D01*
X109869819Y-54037828D01*
X110020712Y-53812000D01*
X113499287Y-53812000D01*
X113650181Y-54037828D01*
X114103400Y-54340660D01*
X114638009Y-54447000D01*
X115329369Y-54447000D01*
X117301184Y-56418815D01*
X117301185Y-56418815D01*
X117548395Y-56583996D01*
X117840000Y-56642000D01*
X124460000Y-56642000D01*
X124460000Y-56641999D01*
X124751604Y-56583996D01*
X124751605Y-56583996D01*
X124998815Y-56418815D01*
X127406590Y-54011040D01*
X128363600Y-54011040D01*
X128605723Y-53964063D01*
X128818527Y-53824273D01*
X128960977Y-53613240D01*
X128969179Y-53572340D01*
X128980330Y-53589029D01*
X129466511Y-53913885D01*
X130040000Y-54027959D01*
X130613489Y-53913885D01*
X131099670Y-53589029D01*
X131310000Y-53274248D01*
X131520330Y-53589029D01*
X132006511Y-53913885D01*
X132580000Y-54027959D01*
X133153489Y-53913885D01*
X133639670Y-53589029D01*
X133850000Y-53274248D01*
X134060330Y-53589029D01*
X134546511Y-53913885D01*
X135120000Y-54027959D01*
X135693489Y-53913885D01*
X136179670Y-53589029D01*
X136390000Y-53274248D01*
X136600330Y-53589029D01*
X137086511Y-53913885D01*
X137660000Y-54027959D01*
X138233489Y-53913885D01*
X138719670Y-53589029D01*
X138938183Y-53262000D01*
X147423178Y-53262000D01*
X147487349Y-53584609D01*
X147790181Y-54037828D01*
X148243400Y-54340660D01*
X148778009Y-54447000D01*
X149521991Y-54447000D01*
X150056600Y-54340660D01*
X150509819Y-54037828D01*
X150812651Y-53584609D01*
X150918991Y-53050000D01*
X150812651Y-52515391D01*
X150509819Y-52062172D01*
X150056600Y-51759340D01*
X149521991Y-51653000D01*
X148778009Y-51653000D01*
X148350683Y-51738000D01*
X138938183Y-51738000D01*
X138719670Y-51410971D01*
X138448839Y-51230007D01*
X138866821Y-50848490D01*
X139114968Y-50319027D01*
X139114968Y-49600973D01*
X138866821Y-49071510D01*
X138434947Y-48677312D01*
X138019026Y-48505042D01*
X137787000Y-48626183D01*
X137787000Y-49833000D01*
X138994469Y-49833000D01*
X139114968Y-49600973D01*
X139114968Y-50319027D01*
X138994469Y-50087000D01*
X137787000Y-50087000D01*
X137787000Y-50107000D01*
X137533000Y-50107000D01*
X137533000Y-50087000D01*
X137513000Y-50087000D01*
X137513000Y-49833000D01*
X137533000Y-49833000D01*
X137533000Y-48626183D01*
X137300974Y-48505042D01*
X136885053Y-48677312D01*
X136453179Y-49071510D01*
X136395663Y-49194228D01*
X136179670Y-48870971D01*
X135693489Y-48546115D01*
X135120000Y-48432041D01*
X134546511Y-48546115D01*
X134060330Y-48870971D01*
X133850000Y-49185751D01*
X133639670Y-48870971D01*
X133153489Y-48546115D01*
X132580000Y-48432041D01*
X132006511Y-48546115D01*
X131520330Y-48870971D01*
X131310000Y-49185751D01*
X131099670Y-48870971D01*
X130613489Y-48546115D01*
X130040000Y-48432041D01*
X129547655Y-48529974D01*
X130315630Y-47762000D01*
X147284370Y-47762000D01*
X147507541Y-47985171D01*
X147487349Y-48015391D01*
X147381009Y-48550000D01*
X147487349Y-49084609D01*
X147790181Y-49537828D01*
X148243400Y-49840660D01*
X148778009Y-49947000D01*
X149521991Y-49947000D01*
X150056600Y-49840660D01*
X150509819Y-49537828D01*
X150660712Y-49312000D01*
X154139287Y-49312000D01*
X154290181Y-49537828D01*
X154743400Y-49840660D01*
X155278009Y-49947000D01*
X156021991Y-49947000D01*
X156556600Y-49840660D01*
X157009819Y-49537828D01*
X157160712Y-49312000D01*
X158724369Y-49312000D01*
X166738000Y-57325630D01*
X166738000Y-57500000D01*
X166738000Y-61002795D01*
X166202459Y-61360632D01*
X165804681Y-61955949D01*
X165665000Y-62658173D01*
X165665000Y-63341827D01*
X165804681Y-64044051D01*
X166202459Y-64639368D01*
X166797776Y-65037146D01*
X167500000Y-65176827D01*
X168202224Y-65037146D01*
X168797541Y-64639368D01*
X169195319Y-64044051D01*
X169335000Y-63341827D01*
X169335000Y-67238000D01*
X157418991Y-67238000D01*
X157418991Y-53050000D01*
X157312651Y-52515391D01*
X157009819Y-52062172D01*
X156556600Y-51759340D01*
X156021991Y-51653000D01*
X155278009Y-51653000D01*
X154743400Y-51759340D01*
X154290181Y-52062172D01*
X153987349Y-52515391D01*
X153881009Y-53050000D01*
X153987349Y-53584609D01*
X154290181Y-54037828D01*
X154743400Y-54340660D01*
X155278009Y-54447000D01*
X156021991Y-54447000D01*
X156556600Y-54340660D01*
X157009819Y-54037828D01*
X157312651Y-53584609D01*
X157418991Y-53050000D01*
X157418991Y-67238000D01*
X99335000Y-67238000D01*
X99335000Y-63427000D01*
X99335000Y-63127000D01*
X99335000Y-62873000D01*
X99335000Y-62573000D01*
X99146718Y-61880443D01*
X98707738Y-61312656D01*
X98084891Y-60956080D01*
X97911805Y-60911805D01*
X97627000Y-61028568D01*
X97627000Y-62873000D01*
X99335000Y-62873000D01*
X99335000Y-63127000D01*
X97627000Y-63127000D01*
X97627000Y-64971432D01*
X97911805Y-65088195D01*
X98084891Y-65043920D01*
X98707738Y-64687344D01*
X99146718Y-64119557D01*
X99335000Y-63427000D01*
X99335000Y-67238000D01*
X97373000Y-67238000D01*
X97373000Y-64971432D01*
X97373000Y-63127000D01*
X97373000Y-62873000D01*
X97373000Y-61028568D01*
X97088195Y-60911805D01*
X96915109Y-60956080D01*
X96292262Y-61312656D01*
X95853282Y-61880443D01*
X95665000Y-62573000D01*
X95665000Y-62873000D01*
X97373000Y-62873000D01*
X97373000Y-63127000D01*
X95665000Y-63127000D01*
X95665000Y-63427000D01*
X95853282Y-64119557D01*
X96292262Y-64687344D01*
X96915109Y-65043920D01*
X97088195Y-65088195D01*
X97373000Y-64971432D01*
X97373000Y-67238000D01*
X94251422Y-67238000D01*
X94195319Y-66955949D01*
X93797541Y-66360632D01*
X93202224Y-65962854D01*
X92635457Y-65850117D01*
X92635457Y-49478166D01*
X92235147Y-48509342D01*
X91494557Y-47767458D01*
X90526433Y-47365458D01*
X89478166Y-47364543D01*
X88509342Y-47764853D01*
X87767458Y-48505443D01*
X87365458Y-49473567D01*
X87364543Y-50521834D01*
X87764853Y-51490658D01*
X88505443Y-52232542D01*
X89473567Y-52634542D01*
X90521834Y-52635457D01*
X91490658Y-52235147D01*
X92232542Y-51494557D01*
X92634542Y-50526433D01*
X92635457Y-49478166D01*
X92635457Y-65850117D01*
X92500000Y-65823173D01*
X91797776Y-65962854D01*
X91202459Y-66360632D01*
X90804681Y-66955949D01*
X90665000Y-67658173D01*
X90665000Y-68341827D01*
X90804681Y-69044051D01*
X91202459Y-69639368D01*
X91797776Y-70037146D01*
X92500000Y-70176827D01*
X93202224Y-70037146D01*
X93797541Y-69639368D01*
X94195319Y-69044051D01*
X94251422Y-68762000D01*
X170748577Y-68762000D01*
X170804681Y-69044051D01*
X171202459Y-69639368D01*
X171797776Y-70037146D01*
X172500000Y-70176827D01*
X173202224Y-70037146D01*
X173797541Y-69639368D01*
X174195319Y-69044051D01*
X174335000Y-68341827D01*
X174335000Y-85158173D01*
X174195319Y-84455949D01*
X173797541Y-83860632D01*
X173202224Y-83462854D01*
X172500000Y-83323173D01*
X171797776Y-83462854D01*
X171202459Y-83860632D01*
X170804681Y-84455949D01*
X170748577Y-84738000D01*
X169335000Y-84738000D01*
X169335000Y-80841827D01*
X169335000Y-80158173D01*
X169195319Y-79455949D01*
X168797541Y-78860632D01*
X168202224Y-78462854D01*
X167500000Y-78323173D01*
X166797776Y-78462854D01*
X166202459Y-78860632D01*
X165804681Y-79455949D01*
X165665000Y-80158173D01*
X165665000Y-80841827D01*
X165804681Y-81544051D01*
X166202459Y-82139368D01*
X166797776Y-82537146D01*
X167500000Y-82676827D01*
X168202224Y-82537146D01*
X168797541Y-82139368D01*
X169195319Y-81544051D01*
X169335000Y-80841827D01*
X169335000Y-84738000D01*
X99335000Y-84738000D01*
X99335000Y-80927000D01*
X99335000Y-80627000D01*
X99335000Y-80373000D01*
X99335000Y-80073000D01*
X99146718Y-79380443D01*
X98707738Y-78812656D01*
X98084891Y-78456080D01*
X97911805Y-78411805D01*
X97627000Y-78528568D01*
X97627000Y-80373000D01*
X99335000Y-80373000D01*
X99335000Y-80627000D01*
X97627000Y-80627000D01*
X97627000Y-82471432D01*
X97911805Y-82588195D01*
X98084891Y-82543920D01*
X98707738Y-82187344D01*
X99146718Y-81619557D01*
X99335000Y-80927000D01*
X99335000Y-84738000D01*
X97373000Y-84738000D01*
X97373000Y-82471432D01*
X97373000Y-80627000D01*
X97373000Y-80373000D01*
X97373000Y-78528568D01*
X97088195Y-78411805D01*
X96915109Y-78456080D01*
X96292262Y-78812656D01*
X95853282Y-79380443D01*
X95665000Y-80073000D01*
X95665000Y-80373000D01*
X97373000Y-80373000D01*
X97373000Y-80627000D01*
X95665000Y-80627000D01*
X95665000Y-80927000D01*
X95853282Y-81619557D01*
X96292262Y-82187344D01*
X96915109Y-82543920D01*
X97088195Y-82588195D01*
X97373000Y-82471432D01*
X97373000Y-84738000D01*
X94251422Y-84738000D01*
X94195319Y-84455949D01*
X93797541Y-83860632D01*
X93202224Y-83462854D01*
X92500000Y-83323173D01*
X91797776Y-83462854D01*
X91202459Y-83860632D01*
X90804681Y-84455949D01*
X90665000Y-85158173D01*
X90665000Y-85841827D01*
X90804681Y-86544051D01*
X91202459Y-87139368D01*
X91797776Y-87537146D01*
X92500000Y-87676827D01*
X93202224Y-87537146D01*
X93797541Y-87139368D01*
X94195319Y-86544051D01*
X94251422Y-86262000D01*
X170748577Y-86262000D01*
X170804681Y-86544051D01*
X171202459Y-87139368D01*
X171797776Y-87537146D01*
X172500000Y-87676827D01*
X173202224Y-87537146D01*
X173797541Y-87139368D01*
X174195319Y-86544051D01*
X174335000Y-85841827D01*
X174335000Y-102658173D01*
X174195319Y-101955949D01*
X173797541Y-101360632D01*
X173202224Y-100962854D01*
X172500000Y-100823173D01*
X171797776Y-100962854D01*
X171202459Y-101360632D01*
X170804681Y-101955949D01*
X170748577Y-102238000D01*
X169335000Y-102238000D01*
X169335000Y-98341827D01*
X169335000Y-97658173D01*
X169195319Y-96955949D01*
X168797541Y-96360632D01*
X168202224Y-95962854D01*
X167500000Y-95823173D01*
X166797776Y-95962854D01*
X166202459Y-96360632D01*
X165804681Y-96955949D01*
X165665000Y-97658173D01*
X165665000Y-98341827D01*
X165804681Y-99044051D01*
X166202459Y-99639368D01*
X166797776Y-100037146D01*
X167500000Y-100176827D01*
X168202224Y-100037146D01*
X168797541Y-99639368D01*
X169195319Y-99044051D01*
X169335000Y-98341827D01*
X169335000Y-102238000D01*
X99335000Y-102238000D01*
X99335000Y-98427000D01*
X99335000Y-98127000D01*
X99335000Y-97873000D01*
X99335000Y-97573000D01*
X99146718Y-96880443D01*
X98707738Y-96312656D01*
X98084891Y-95956080D01*
X97911805Y-95911805D01*
X97627000Y-96028568D01*
X97627000Y-97873000D01*
X99335000Y-97873000D01*
X99335000Y-98127000D01*
X97627000Y-98127000D01*
X97627000Y-99971432D01*
X97911805Y-100088195D01*
X98084891Y-100043920D01*
X98707738Y-99687344D01*
X99146718Y-99119557D01*
X99335000Y-98427000D01*
X99335000Y-102238000D01*
X97373000Y-102238000D01*
X97373000Y-99971432D01*
X97373000Y-98127000D01*
X97373000Y-97873000D01*
X97373000Y-96028568D01*
X97088195Y-95911805D01*
X96915109Y-95956080D01*
X96292262Y-96312656D01*
X95853282Y-96880443D01*
X95665000Y-97573000D01*
X95665000Y-97873000D01*
X97373000Y-97873000D01*
X97373000Y-98127000D01*
X95665000Y-98127000D01*
X95665000Y-98427000D01*
X95853282Y-99119557D01*
X96292262Y-99687344D01*
X96915109Y-100043920D01*
X97088195Y-100088195D01*
X97373000Y-99971432D01*
X97373000Y-102238000D01*
X94251422Y-102238000D01*
X94195319Y-101955949D01*
X93797541Y-101360632D01*
X93202224Y-100962854D01*
X92500000Y-100823173D01*
X91797776Y-100962854D01*
X91202459Y-101360632D01*
X90804681Y-101955949D01*
X90665000Y-102658173D01*
X90665000Y-103341827D01*
X90804681Y-104044051D01*
X91202459Y-104639368D01*
X91797776Y-105037146D01*
X92500000Y-105176827D01*
X93202224Y-105037146D01*
X93797541Y-104639368D01*
X94195319Y-104044051D01*
X94251422Y-103762000D01*
X170748577Y-103762000D01*
X170804681Y-104044051D01*
X171202459Y-104639368D01*
X171797776Y-105037146D01*
X172500000Y-105176827D01*
X173202224Y-105037146D01*
X173797541Y-104639368D01*
X174195319Y-104044051D01*
X174335000Y-103341827D01*
X174335000Y-120158173D01*
X174195319Y-119455949D01*
X173797541Y-118860632D01*
X173202224Y-118462854D01*
X172500000Y-118323173D01*
X171797776Y-118462854D01*
X171202459Y-118860632D01*
X170804681Y-119455949D01*
X170748577Y-119738000D01*
X169335000Y-119738000D01*
X169335000Y-115841827D01*
X169335000Y-115158173D01*
X169195319Y-114455949D01*
X168797541Y-113860632D01*
X168202224Y-113462854D01*
X167500000Y-113323173D01*
X166797776Y-113462854D01*
X166202459Y-113860632D01*
X165804681Y-114455949D01*
X165665000Y-115158173D01*
X165665000Y-115841827D01*
X165804681Y-116544051D01*
X166202459Y-117139368D01*
X166797776Y-117537146D01*
X167500000Y-117676827D01*
X168202224Y-117537146D01*
X168797541Y-117139368D01*
X169195319Y-116544051D01*
X169335000Y-115841827D01*
X169335000Y-119738000D01*
X99335000Y-119738000D01*
X99335000Y-115927000D01*
X99335000Y-115627000D01*
X99335000Y-115373000D01*
X99335000Y-115073000D01*
X99146718Y-114380443D01*
X98707738Y-113812656D01*
X98084891Y-113456080D01*
X97911805Y-113411805D01*
X97627000Y-113528568D01*
X97627000Y-115373000D01*
X99335000Y-115373000D01*
X99335000Y-115627000D01*
X97627000Y-115627000D01*
X97627000Y-117471432D01*
X97911805Y-117588195D01*
X98084891Y-117543920D01*
X98707738Y-117187344D01*
X99146718Y-116619557D01*
X99335000Y-115927000D01*
X99335000Y-119738000D01*
X97373000Y-119738000D01*
X97373000Y-117471432D01*
X97373000Y-115627000D01*
X97373000Y-115373000D01*
X97373000Y-113528568D01*
X97088195Y-113411805D01*
X96915109Y-113456080D01*
X96292262Y-113812656D01*
X95853282Y-114380443D01*
X95665000Y-115073000D01*
X95665000Y-115373000D01*
X97373000Y-115373000D01*
X97373000Y-115627000D01*
X95665000Y-115627000D01*
X95665000Y-115927000D01*
X95853282Y-116619557D01*
X96292262Y-117187344D01*
X96915109Y-117543920D01*
X97088195Y-117588195D01*
X97373000Y-117471432D01*
X97373000Y-119738000D01*
X94251422Y-119738000D01*
X94195319Y-119455949D01*
X93797541Y-118860632D01*
X93202224Y-118462854D01*
X92500000Y-118323173D01*
X91797776Y-118462854D01*
X91202459Y-118860632D01*
X90804681Y-119455949D01*
X90665000Y-120158173D01*
X90665000Y-120841827D01*
X90804681Y-121544051D01*
X91202459Y-122139368D01*
X91797776Y-122537146D01*
X92500000Y-122676827D01*
X93202224Y-122537146D01*
X93797541Y-122139368D01*
X94195319Y-121544051D01*
X94251422Y-121262000D01*
X170748577Y-121262000D01*
X170804681Y-121544051D01*
X171202459Y-122139368D01*
X171797776Y-122537146D01*
X172500000Y-122676827D01*
X173202224Y-122537146D01*
X173797541Y-122139368D01*
X174195319Y-121544051D01*
X174335000Y-120841827D01*
X174335000Y-124923697D01*
X173509342Y-125264853D01*
X172767458Y-126005443D01*
X172365458Y-126973567D01*
X172364543Y-128021834D01*
X172764853Y-128990658D01*
X173505443Y-129732542D01*
X174473567Y-130134542D01*
X175521834Y-130135457D01*
X176490658Y-129735147D01*
X177232542Y-128994557D01*
X177634542Y-128026433D01*
X177635457Y-126978166D01*
X177635457Y-131774635D01*
X177432532Y-131815000D01*
X92635457Y-131815000D01*
X92635457Y-126978166D01*
X92235147Y-126009342D01*
X91494557Y-125267458D01*
X90526433Y-124865458D01*
X89478166Y-124864543D01*
X88509342Y-125264853D01*
X87767458Y-126005443D01*
X87365458Y-126973567D01*
X87364543Y-128021834D01*
X87764853Y-128990658D01*
X88505443Y-129732542D01*
X89473567Y-130134542D01*
X90521834Y-130135457D01*
X91490658Y-129735147D01*
X92232542Y-128994557D01*
X92634542Y-128026433D01*
X92635457Y-126978166D01*
X92635457Y-131815000D01*
X87567467Y-131815000D01*
X86810564Y-131664442D01*
X86226089Y-131273908D01*
X85835556Y-130689434D01*
X85685000Y-129932532D01*
X85685000Y-127500000D01*
X85685000Y-125000000D01*
X85685000Y-47567467D01*
X85835556Y-46810565D01*
X86226089Y-46226091D01*
X86810564Y-45835557D01*
X87567467Y-45685000D01*
X177432532Y-45685000D01*
X178189434Y-45835556D01*
X178773908Y-46226089D01*
X179164442Y-46810564D01*
X179315000Y-47567467D01*
X179315000Y-125000000D01*
X179315000Y-127500000D01*
X179315000Y-129932532D01*
M02*
