G04 #@! TF.FileFunction,Copper,L2,Bot,Signal*
%FSLAX46Y46*%
G04 Gerber Fmt 4.6, Leading zero omitted, Abs format (unit mm)*
G04 Created by KiCad (PCBNEW (2015-01-16 BZR 5376)-product) date 24/06/2015 09:07:54*
%MOMM*%
G01*
G04 APERTURE LIST*
%ADD10C,0.100000*%
%ADD11C,4.000000*%
%ADD12C,0.300000*%
%ADD13R,1.727200X1.727200*%
%ADD14O,1.727200X1.727200*%
%ADD15O,2.400000X3.000000*%
%ADD16R,1.300000X1.300000*%
%ADD17C,1.300000*%
%ADD18O,2.200000X1.524000*%
%ADD19C,0.254000*%
G04 APERTURE END LIST*
D10*
D11*
X240030000Y-203200000D03*
X33020000Y-207010000D03*
X238760000Y-25400000D03*
D12*
X188087000Y-25019000D03*
X187579000Y-25019000D03*
X187198000Y-25019000D03*
X186817000Y-25019000D03*
X186309000Y-25019000D03*
D11*
X229483000Y-107815000D03*
X144483000Y-107815000D03*
X229483000Y-30315000D03*
X144483000Y-30315000D03*
D13*
X181983000Y-32815000D03*
D14*
X181983000Y-30275000D03*
X184523000Y-32815000D03*
X184523000Y-30275000D03*
X187063000Y-32815000D03*
X187063000Y-30275000D03*
X189603000Y-32815000D03*
X189603000Y-30275000D03*
X192143000Y-32815000D03*
X192143000Y-30275000D03*
D15*
X151983000Y-95815000D03*
X146983000Y-100815000D03*
X221983000Y-95815000D03*
X226983000Y-100815000D03*
X151983000Y-78315000D03*
X146983000Y-83315000D03*
X221983000Y-78315000D03*
X226983000Y-83315000D03*
X151983000Y-60815000D03*
X146983000Y-65815000D03*
X221983000Y-60815000D03*
X226983000Y-65815000D03*
X151983000Y-43315000D03*
X146983000Y-48315000D03*
X221983000Y-43315000D03*
X226983000Y-48315000D03*
D16*
X177483000Y-30315000D03*
D17*
X177483000Y-32815000D03*
D18*
X169493000Y-28865000D03*
X169493000Y-33365000D03*
X162993000Y-28865000D03*
X162993000Y-33365000D03*
X210133000Y-28865000D03*
X210133000Y-33365000D03*
X203633000Y-28865000D03*
X203633000Y-33365000D03*
D12*
X143129000Y-113157000D03*
X143637000Y-113157000D03*
X144018000Y-113157000D03*
X144399000Y-113157000D03*
X144780000Y-113157000D03*
X230886000Y-113157000D03*
X230378000Y-113157000D03*
X229997000Y-113157000D03*
X229616000Y-113157000D03*
X229108000Y-113157000D03*
X229108000Y-207137000D03*
X229616000Y-207137000D03*
X229997000Y-207137000D03*
X230378000Y-207137000D03*
X230886000Y-207137000D03*
X144780000Y-207137000D03*
X144399000Y-207137000D03*
X144018000Y-207137000D03*
X143637000Y-207137000D03*
X143129000Y-207137000D03*
D18*
X210133000Y-122845000D03*
X210133000Y-127345000D03*
X203633000Y-122845000D03*
X203633000Y-127345000D03*
X169493000Y-122845000D03*
X169493000Y-127345000D03*
X162993000Y-122845000D03*
X162993000Y-127345000D03*
D16*
X177483000Y-124295000D03*
D17*
X177483000Y-126795000D03*
D15*
X151983000Y-137295000D03*
X146983000Y-142295000D03*
X221983000Y-137295000D03*
X226983000Y-142295000D03*
X151983000Y-154795000D03*
X146983000Y-159795000D03*
X221983000Y-154795000D03*
X226983000Y-159795000D03*
X151983000Y-172295000D03*
X146983000Y-177295000D03*
X221983000Y-172295000D03*
X226983000Y-177295000D03*
X151983000Y-189795000D03*
X146983000Y-194795000D03*
X221983000Y-189795000D03*
X226983000Y-194795000D03*
D13*
X181983000Y-126795000D03*
D14*
X181983000Y-124255000D03*
X184523000Y-126795000D03*
X184523000Y-124255000D03*
X187063000Y-126795000D03*
X187063000Y-124255000D03*
X189603000Y-126795000D03*
X189603000Y-124255000D03*
X192143000Y-126795000D03*
X192143000Y-124255000D03*
D11*
X144483000Y-124295000D03*
X229483000Y-124295000D03*
X144483000Y-201795000D03*
X229483000Y-201795000D03*
D12*
X186309000Y-118999000D03*
X186817000Y-118999000D03*
X187198000Y-118999000D03*
X187579000Y-118999000D03*
X188087000Y-118999000D03*
X86487000Y-118999000D03*
X85979000Y-118999000D03*
X85598000Y-118999000D03*
X85217000Y-118999000D03*
X84709000Y-118999000D03*
D11*
X127883000Y-201795000D03*
X42883000Y-201795000D03*
X127883000Y-124295000D03*
X42883000Y-124295000D03*
D13*
X80383000Y-126795000D03*
D14*
X80383000Y-124255000D03*
X82923000Y-126795000D03*
X82923000Y-124255000D03*
X85463000Y-126795000D03*
X85463000Y-124255000D03*
X88003000Y-126795000D03*
X88003000Y-124255000D03*
X90543000Y-126795000D03*
X90543000Y-124255000D03*
D15*
X50383000Y-189795000D03*
X45383000Y-194795000D03*
X120383000Y-189795000D03*
X125383000Y-194795000D03*
X50383000Y-172295000D03*
X45383000Y-177295000D03*
X120383000Y-172295000D03*
X125383000Y-177295000D03*
X50383000Y-154795000D03*
X45383000Y-159795000D03*
X120383000Y-154795000D03*
X125383000Y-159795000D03*
X50383000Y-137295000D03*
X45383000Y-142295000D03*
X120383000Y-137295000D03*
X125383000Y-142295000D03*
D16*
X75883000Y-124295000D03*
D17*
X75883000Y-126795000D03*
D18*
X67893000Y-122845000D03*
X67893000Y-127345000D03*
X61393000Y-122845000D03*
X61393000Y-127345000D03*
X108533000Y-122845000D03*
X108533000Y-127345000D03*
X102033000Y-122845000D03*
X102033000Y-127345000D03*
D12*
X41529000Y-207137000D03*
X42037000Y-207137000D03*
X42418000Y-207137000D03*
X42799000Y-207137000D03*
X43180000Y-207137000D03*
X129286000Y-207137000D03*
X128778000Y-207137000D03*
X128397000Y-207137000D03*
X128016000Y-207137000D03*
X127508000Y-207137000D03*
X127508000Y-113157000D03*
X128016000Y-113157000D03*
X128397000Y-113157000D03*
X128778000Y-113157000D03*
X129286000Y-113157000D03*
X43180000Y-113157000D03*
X42799000Y-113157000D03*
X42418000Y-113157000D03*
X42037000Y-113157000D03*
X41529000Y-113157000D03*
D18*
X108533000Y-28865000D03*
X108533000Y-33365000D03*
X102033000Y-28865000D03*
X102033000Y-33365000D03*
X67893000Y-28865000D03*
X67893000Y-33365000D03*
X61393000Y-28865000D03*
X61393000Y-33365000D03*
D16*
X75883000Y-30315000D03*
D17*
X75883000Y-32815000D03*
D15*
X50383000Y-43315000D03*
X45383000Y-48315000D03*
X120383000Y-43315000D03*
X125383000Y-48315000D03*
X50383000Y-60815000D03*
X45383000Y-65815000D03*
X120383000Y-60815000D03*
X125383000Y-65815000D03*
X50383000Y-78315000D03*
X45383000Y-83315000D03*
X120383000Y-78315000D03*
X125383000Y-83315000D03*
X50383000Y-95815000D03*
X45383000Y-100815000D03*
X120383000Y-95815000D03*
X125383000Y-100815000D03*
D13*
X80383000Y-32815000D03*
D14*
X80383000Y-30275000D03*
X82923000Y-32815000D03*
X82923000Y-30275000D03*
X85463000Y-32815000D03*
X85463000Y-30275000D03*
X88003000Y-32815000D03*
X88003000Y-30275000D03*
X90543000Y-32815000D03*
X90543000Y-30275000D03*
D11*
X42883000Y-30315000D03*
X127883000Y-30315000D03*
X42883000Y-107815000D03*
X127883000Y-107815000D03*
D12*
X84709000Y-25019000D03*
X85217000Y-25019000D03*
X85598000Y-25019000D03*
X85979000Y-25019000D03*
X86487000Y-25019000D03*
D11*
X33020000Y-25400000D03*
D19*
X125383000Y-48315000D02*
X45383000Y-48315000D01*
X125383000Y-142295000D02*
X45383000Y-142295000D01*
X226983000Y-142295000D02*
X146983000Y-142295000D01*
X226983000Y-48315000D02*
X146983000Y-48315000D01*
X125383000Y-65815000D02*
X45383000Y-65815000D01*
X125383000Y-159795000D02*
X45383000Y-159795000D01*
X226983000Y-159795000D02*
X146983000Y-159795000D01*
X226983000Y-65815000D02*
X146983000Y-65815000D01*
X120383000Y-37815000D02*
X120383000Y-37325000D01*
X120383000Y-43315000D02*
X120383000Y-37815000D01*
X111923000Y-28865000D02*
X108533000Y-28865000D01*
X120383000Y-37325000D02*
X111923000Y-28865000D01*
X108533000Y-28865000D02*
X102033000Y-28865000D01*
X102033000Y-28865000D02*
X100483000Y-27315000D01*
X100483000Y-27315000D02*
X100213000Y-27315000D01*
X100213000Y-27315000D02*
X100203000Y-27305000D01*
X100203000Y-27305000D02*
X100203000Y-27315000D01*
X67893000Y-28865000D02*
X70013000Y-28865000D01*
X71463000Y-30315000D02*
X75883000Y-30315000D01*
X70013000Y-28865000D02*
X71463000Y-30315000D01*
X61393000Y-28865000D02*
X67893000Y-28865000D01*
X82883000Y-27315000D02*
X100203000Y-27315000D01*
X80383000Y-29815000D02*
X82883000Y-27315000D01*
X80383000Y-30275000D02*
X80383000Y-29815000D01*
X80383000Y-124255000D02*
X80383000Y-123795000D01*
X80383000Y-123795000D02*
X82883000Y-121295000D01*
X82883000Y-121295000D02*
X100203000Y-121295000D01*
X61393000Y-122845000D02*
X67893000Y-122845000D01*
X70013000Y-122845000D02*
X71463000Y-124295000D01*
X71463000Y-124295000D02*
X75883000Y-124295000D01*
X67893000Y-122845000D02*
X70013000Y-122845000D01*
X100203000Y-121285000D02*
X100203000Y-121295000D01*
X100213000Y-121295000D02*
X100203000Y-121285000D01*
X100483000Y-121295000D02*
X100213000Y-121295000D01*
X102033000Y-122845000D02*
X100483000Y-121295000D01*
X108533000Y-122845000D02*
X102033000Y-122845000D01*
X120383000Y-131305000D02*
X111923000Y-122845000D01*
X111923000Y-122845000D02*
X108533000Y-122845000D01*
X120383000Y-137295000D02*
X120383000Y-131795000D01*
X120383000Y-131795000D02*
X120383000Y-131305000D01*
X221983000Y-131795000D02*
X221983000Y-131305000D01*
X221983000Y-137295000D02*
X221983000Y-131795000D01*
X213523000Y-122845000D02*
X210133000Y-122845000D01*
X221983000Y-131305000D02*
X213523000Y-122845000D01*
X210133000Y-122845000D02*
X203633000Y-122845000D01*
X203633000Y-122845000D02*
X202083000Y-121295000D01*
X202083000Y-121295000D02*
X201813000Y-121295000D01*
X201813000Y-121295000D02*
X201803000Y-121285000D01*
X201803000Y-121285000D02*
X201803000Y-121295000D01*
X169493000Y-122845000D02*
X171613000Y-122845000D01*
X173063000Y-124295000D02*
X177483000Y-124295000D01*
X171613000Y-122845000D02*
X173063000Y-124295000D01*
X162993000Y-122845000D02*
X169493000Y-122845000D01*
X184483000Y-121295000D02*
X201803000Y-121295000D01*
X181983000Y-123795000D02*
X184483000Y-121295000D01*
X181983000Y-124255000D02*
X181983000Y-123795000D01*
X181983000Y-30275000D02*
X181983000Y-29815000D01*
X181983000Y-29815000D02*
X184483000Y-27315000D01*
X184483000Y-27315000D02*
X201803000Y-27315000D01*
X162993000Y-28865000D02*
X169493000Y-28865000D01*
X171613000Y-28865000D02*
X173063000Y-30315000D01*
X173063000Y-30315000D02*
X177483000Y-30315000D01*
X169493000Y-28865000D02*
X171613000Y-28865000D01*
X201803000Y-27305000D02*
X201803000Y-27315000D01*
X201813000Y-27315000D02*
X201803000Y-27305000D01*
X202083000Y-27315000D02*
X201813000Y-27315000D01*
X203633000Y-28865000D02*
X202083000Y-27315000D01*
X210133000Y-28865000D02*
X203633000Y-28865000D01*
X221983000Y-37325000D02*
X213523000Y-28865000D01*
X213523000Y-28865000D02*
X210133000Y-28865000D01*
X221983000Y-43315000D02*
X221983000Y-37815000D01*
X221983000Y-37815000D02*
X221983000Y-37325000D01*
X125383000Y-83315000D02*
X45383000Y-83315000D01*
X125383000Y-177295000D02*
X45383000Y-177295000D01*
X226983000Y-177295000D02*
X146983000Y-177295000D01*
X226983000Y-83315000D02*
X146983000Y-83315000D01*
X125383000Y-100815000D02*
X45383000Y-100815000D01*
X125383000Y-194795000D02*
X45383000Y-194795000D01*
X226983000Y-194795000D02*
X146983000Y-194795000D01*
X226983000Y-100815000D02*
X146983000Y-100815000D01*
X67893000Y-33365000D02*
X61393000Y-33365000D01*
X70723000Y-36195000D02*
X67893000Y-33365000D01*
X77343000Y-36195000D02*
X70723000Y-36195000D01*
X80383000Y-33155000D02*
X77343000Y-36195000D01*
X80383000Y-32815000D02*
X80383000Y-33155000D01*
X80383000Y-126795000D02*
X80383000Y-127135000D01*
X80383000Y-127135000D02*
X77343000Y-130175000D01*
X77343000Y-130175000D02*
X70723000Y-130175000D01*
X70723000Y-130175000D02*
X67893000Y-127345000D01*
X67893000Y-127345000D02*
X61393000Y-127345000D01*
X169493000Y-127345000D02*
X162993000Y-127345000D01*
X172323000Y-130175000D02*
X169493000Y-127345000D01*
X178943000Y-130175000D02*
X172323000Y-130175000D01*
X181983000Y-127135000D02*
X178943000Y-130175000D01*
X181983000Y-126795000D02*
X181983000Y-127135000D01*
X181983000Y-32815000D02*
X181983000Y-33155000D01*
X181983000Y-33155000D02*
X178943000Y-36195000D01*
X178943000Y-36195000D02*
X172323000Y-36195000D01*
X172323000Y-36195000D02*
X169493000Y-33365000D01*
X169493000Y-33365000D02*
X162993000Y-33365000D01*
X102033000Y-33365000D02*
X108533000Y-33365000D01*
X90543000Y-32815000D02*
X101483000Y-32815000D01*
X101483000Y-32815000D02*
X102033000Y-33365000D01*
X101483000Y-126795000D02*
X102033000Y-127345000D01*
X90543000Y-126795000D02*
X101483000Y-126795000D01*
X102033000Y-127345000D02*
X108533000Y-127345000D01*
X203633000Y-127345000D02*
X210133000Y-127345000D01*
X192143000Y-126795000D02*
X203083000Y-126795000D01*
X203083000Y-126795000D02*
X203633000Y-127345000D01*
X203083000Y-32815000D02*
X203633000Y-33365000D01*
X192143000Y-32815000D02*
X203083000Y-32815000D01*
X203633000Y-33365000D02*
X210133000Y-33365000D01*
G36*
X132198000Y-110247532D02*
X132047442Y-111004435D01*
X131656908Y-111588910D01*
X131072434Y-111979443D01*
X130518457Y-112089635D01*
X130518457Y-107293166D01*
X130518457Y-29793166D01*
X130118147Y-28824342D01*
X129377557Y-28082458D01*
X128409433Y-27680458D01*
X127361166Y-27679543D01*
X126392342Y-28079853D01*
X125650458Y-28820443D01*
X125248458Y-29788567D01*
X125247543Y-30836834D01*
X125647853Y-31805658D01*
X126388443Y-32547542D01*
X127356567Y-32949542D01*
X128404834Y-32950457D01*
X129373658Y-32550147D01*
X130115542Y-31809557D01*
X130517542Y-30841433D01*
X130518457Y-29793166D01*
X130518457Y-107293166D01*
X130118147Y-106324342D01*
X129377557Y-105582458D01*
X128409433Y-105180458D01*
X127361166Y-105179543D01*
X127218000Y-105238697D01*
X127218000Y-101156827D01*
X127218000Y-100473173D01*
X127218000Y-83656827D01*
X127218000Y-82973173D01*
X127218000Y-66156827D01*
X127218000Y-65473173D01*
X127218000Y-48656827D01*
X127218000Y-47973173D01*
X127078319Y-47270949D01*
X126680541Y-46675632D01*
X126085224Y-46277854D01*
X125383000Y-46138173D01*
X124680776Y-46277854D01*
X124085459Y-46675632D01*
X123687681Y-47270949D01*
X123631577Y-47553000D01*
X122218000Y-47553000D01*
X122218000Y-43656827D01*
X122218000Y-42973173D01*
X122078319Y-42270949D01*
X121680541Y-41675632D01*
X121145000Y-41317795D01*
X121145000Y-37815000D01*
X121145000Y-37325000D01*
X121086996Y-37033396D01*
X121086996Y-37033395D01*
X121020834Y-36934376D01*
X120921816Y-36786185D01*
X112461815Y-28326185D01*
X112214605Y-28161004D01*
X111923000Y-28103000D01*
X110043712Y-28103000D01*
X109892819Y-27877172D01*
X109439600Y-27574340D01*
X108904991Y-27468000D01*
X108161009Y-27468000D01*
X107626400Y-27574340D01*
X107173181Y-27877172D01*
X107022287Y-28103000D01*
X103543712Y-28103000D01*
X103392819Y-27877172D01*
X102939600Y-27574340D01*
X102404991Y-27468000D01*
X101713630Y-27468000D01*
X101021815Y-26776185D01*
X100774605Y-26611004D01*
X100483000Y-26553000D01*
X100253273Y-26553000D01*
X100203000Y-26543000D01*
X100152726Y-26553000D01*
X82883000Y-26553000D01*
X82591395Y-26611004D01*
X82344185Y-26776185D01*
X80370927Y-28749442D01*
X79809511Y-28861115D01*
X79323330Y-29185971D01*
X78998474Y-29672152D01*
X78884400Y-30245641D01*
X78884400Y-30304359D01*
X78998474Y-30877848D01*
X79310300Y-31344529D01*
X79277277Y-31350937D01*
X79064473Y-31490727D01*
X78922023Y-31701760D01*
X78871960Y-31951400D01*
X78871960Y-33588409D01*
X77180622Y-35279747D01*
X77180622Y-32995922D01*
X77180440Y-32992777D01*
X77180440Y-30965000D01*
X77180440Y-29665000D01*
X77133463Y-29422877D01*
X76993673Y-29210073D01*
X76782640Y-29067623D01*
X76533000Y-29017560D01*
X75233000Y-29017560D01*
X74990877Y-29064537D01*
X74778073Y-29204327D01*
X74635623Y-29415360D01*
X74608020Y-29553000D01*
X71778630Y-29553000D01*
X70551815Y-28326185D01*
X70304605Y-28161004D01*
X70013000Y-28103000D01*
X69403712Y-28103000D01*
X69252819Y-27877172D01*
X68799600Y-27574340D01*
X68264991Y-27468000D01*
X67521009Y-27468000D01*
X66986400Y-27574340D01*
X66533181Y-27877172D01*
X66382287Y-28103000D01*
X62903712Y-28103000D01*
X62752819Y-27877172D01*
X62299600Y-27574340D01*
X61764991Y-27468000D01*
X61021009Y-27468000D01*
X60486400Y-27574340D01*
X60033181Y-27877172D01*
X59730349Y-28330391D01*
X59624009Y-28865000D01*
X59730349Y-29399609D01*
X60033181Y-29852828D01*
X60486400Y-30155660D01*
X61021009Y-30262000D01*
X61764991Y-30262000D01*
X62299600Y-30155660D01*
X62752819Y-29852828D01*
X62903712Y-29627000D01*
X66382287Y-29627000D01*
X66533181Y-29852828D01*
X66986400Y-30155660D01*
X67521009Y-30262000D01*
X68264991Y-30262000D01*
X68799600Y-30155660D01*
X69252819Y-29852828D01*
X69403712Y-29627000D01*
X69697369Y-29627000D01*
X70924185Y-30853816D01*
X71072376Y-30952834D01*
X71171395Y-31018996D01*
X71171396Y-31018996D01*
X71463000Y-31077000D01*
X74607290Y-31077000D01*
X74632537Y-31207123D01*
X74772327Y-31419927D01*
X74983360Y-31562377D01*
X75233000Y-31612440D01*
X75395385Y-31612440D01*
X75219271Y-31685389D01*
X75163590Y-31915984D01*
X75883000Y-32635395D01*
X76602410Y-31915984D01*
X76546729Y-31685389D01*
X76337098Y-31612440D01*
X76533000Y-31612440D01*
X76775123Y-31565463D01*
X76987927Y-31425673D01*
X77130377Y-31214640D01*
X77180440Y-30965000D01*
X77180440Y-32992777D01*
X77151083Y-32485572D01*
X77012611Y-32151271D01*
X76782016Y-32095590D01*
X76062605Y-32815000D01*
X76782016Y-33534410D01*
X77012611Y-33478729D01*
X77180622Y-32995922D01*
X77180622Y-35279747D01*
X77027369Y-35433000D01*
X76602410Y-35433000D01*
X76602410Y-33714016D01*
X75883000Y-32994605D01*
X75703395Y-33174210D01*
X75703395Y-32815000D01*
X74983984Y-32095590D01*
X74753389Y-32151271D01*
X74585378Y-32634078D01*
X74614917Y-33144428D01*
X74753389Y-33478729D01*
X74983984Y-33534410D01*
X75703395Y-32815000D01*
X75703395Y-33174210D01*
X75163590Y-33714016D01*
X75219271Y-33944611D01*
X75702078Y-34112622D01*
X76212428Y-34083083D01*
X76546729Y-33944611D01*
X76602410Y-33714016D01*
X76602410Y-35433000D01*
X71038630Y-35433000D01*
X69535458Y-33929828D01*
X69555651Y-33899609D01*
X69661991Y-33365000D01*
X69555651Y-32830391D01*
X69252819Y-32377172D01*
X68799600Y-32074340D01*
X68264991Y-31968000D01*
X67521009Y-31968000D01*
X66986400Y-32074340D01*
X66533181Y-32377172D01*
X66382287Y-32603000D01*
X62903712Y-32603000D01*
X62752819Y-32377172D01*
X62299600Y-32074340D01*
X61764991Y-31968000D01*
X61021009Y-31968000D01*
X60486400Y-32074340D01*
X60033181Y-32377172D01*
X59730349Y-32830391D01*
X59624009Y-33365000D01*
X59730349Y-33899609D01*
X60033181Y-34352828D01*
X60486400Y-34655660D01*
X61021009Y-34762000D01*
X61764991Y-34762000D01*
X62299600Y-34655660D01*
X62752819Y-34352828D01*
X62903712Y-34127000D01*
X66382287Y-34127000D01*
X66533181Y-34352828D01*
X66986400Y-34655660D01*
X67521009Y-34762000D01*
X68212369Y-34762000D01*
X70184184Y-36733815D01*
X70184185Y-36733815D01*
X70431395Y-36898996D01*
X70723000Y-36957000D01*
X77343000Y-36957000D01*
X77343000Y-36956999D01*
X77634604Y-36898996D01*
X77634605Y-36898996D01*
X77881815Y-36733815D01*
X80289590Y-34326040D01*
X81246600Y-34326040D01*
X81488723Y-34279063D01*
X81701527Y-34139273D01*
X81843977Y-33928240D01*
X81852179Y-33887340D01*
X81863330Y-33904029D01*
X82349511Y-34228885D01*
X82923000Y-34342959D01*
X83496489Y-34228885D01*
X83982670Y-33904029D01*
X84193000Y-33589248D01*
X84403330Y-33904029D01*
X84889511Y-34228885D01*
X85463000Y-34342959D01*
X86036489Y-34228885D01*
X86522670Y-33904029D01*
X86733000Y-33589248D01*
X86943330Y-33904029D01*
X87429511Y-34228885D01*
X88003000Y-34342959D01*
X88576489Y-34228885D01*
X89062670Y-33904029D01*
X89273000Y-33589248D01*
X89483330Y-33904029D01*
X89969511Y-34228885D01*
X90543000Y-34342959D01*
X91116489Y-34228885D01*
X91602670Y-33904029D01*
X91821183Y-33577000D01*
X100306178Y-33577000D01*
X100370349Y-33899609D01*
X100673181Y-34352828D01*
X101126400Y-34655660D01*
X101661009Y-34762000D01*
X102404991Y-34762000D01*
X102939600Y-34655660D01*
X103392819Y-34352828D01*
X103695651Y-33899609D01*
X103801991Y-33365000D01*
X103695651Y-32830391D01*
X103392819Y-32377172D01*
X102939600Y-32074340D01*
X102404991Y-31968000D01*
X101661009Y-31968000D01*
X101233683Y-32053000D01*
X91821183Y-32053000D01*
X91602670Y-31725971D01*
X91331839Y-31545007D01*
X91749821Y-31163490D01*
X91997968Y-30634027D01*
X91997968Y-29915973D01*
X91749821Y-29386510D01*
X91317947Y-28992312D01*
X90902026Y-28820042D01*
X90670000Y-28941183D01*
X90670000Y-30148000D01*
X91877469Y-30148000D01*
X91997968Y-29915973D01*
X91997968Y-30634027D01*
X91877469Y-30402000D01*
X90670000Y-30402000D01*
X90670000Y-30422000D01*
X90416000Y-30422000D01*
X90416000Y-30402000D01*
X90396000Y-30402000D01*
X90396000Y-30148000D01*
X90416000Y-30148000D01*
X90416000Y-28941183D01*
X90183974Y-28820042D01*
X89768053Y-28992312D01*
X89336179Y-29386510D01*
X89278663Y-29509228D01*
X89062670Y-29185971D01*
X88576489Y-28861115D01*
X88003000Y-28747041D01*
X87429511Y-28861115D01*
X86943330Y-29185971D01*
X86733000Y-29500751D01*
X86522670Y-29185971D01*
X86036489Y-28861115D01*
X85463000Y-28747041D01*
X84889511Y-28861115D01*
X84403330Y-29185971D01*
X84193000Y-29500751D01*
X83982670Y-29185971D01*
X83496489Y-28861115D01*
X82923000Y-28747041D01*
X82430655Y-28844974D01*
X83198630Y-28077000D01*
X100167370Y-28077000D01*
X100390541Y-28300171D01*
X100370349Y-28330391D01*
X100264009Y-28865000D01*
X100370349Y-29399609D01*
X100673181Y-29852828D01*
X101126400Y-30155660D01*
X101661009Y-30262000D01*
X102404991Y-30262000D01*
X102939600Y-30155660D01*
X103392819Y-29852828D01*
X103543712Y-29627000D01*
X107022287Y-29627000D01*
X107173181Y-29852828D01*
X107626400Y-30155660D01*
X108161009Y-30262000D01*
X108904991Y-30262000D01*
X109439600Y-30155660D01*
X109892819Y-29852828D01*
X110043712Y-29627000D01*
X111607369Y-29627000D01*
X119621000Y-37640630D01*
X119621000Y-37815000D01*
X119621000Y-41317795D01*
X119085459Y-41675632D01*
X118687681Y-42270949D01*
X118548000Y-42973173D01*
X118548000Y-43656827D01*
X118687681Y-44359051D01*
X119085459Y-44954368D01*
X119680776Y-45352146D01*
X120383000Y-45491827D01*
X121085224Y-45352146D01*
X121680541Y-44954368D01*
X122078319Y-44359051D01*
X122218000Y-43656827D01*
X122218000Y-47553000D01*
X110301991Y-47553000D01*
X110301991Y-33365000D01*
X110195651Y-32830391D01*
X109892819Y-32377172D01*
X109439600Y-32074340D01*
X108904991Y-31968000D01*
X108161009Y-31968000D01*
X107626400Y-32074340D01*
X107173181Y-32377172D01*
X106870349Y-32830391D01*
X106764009Y-33365000D01*
X106870349Y-33899609D01*
X107173181Y-34352828D01*
X107626400Y-34655660D01*
X108161009Y-34762000D01*
X108904991Y-34762000D01*
X109439600Y-34655660D01*
X109892819Y-34352828D01*
X110195651Y-33899609D01*
X110301991Y-33365000D01*
X110301991Y-47553000D01*
X52218000Y-47553000D01*
X52218000Y-43742000D01*
X52218000Y-43442000D01*
X52218000Y-43188000D01*
X52218000Y-42888000D01*
X52029718Y-42195443D01*
X51590738Y-41627656D01*
X50967891Y-41271080D01*
X50794805Y-41226805D01*
X50510000Y-41343568D01*
X50510000Y-43188000D01*
X52218000Y-43188000D01*
X52218000Y-43442000D01*
X50510000Y-43442000D01*
X50510000Y-45286432D01*
X50794805Y-45403195D01*
X50967891Y-45358920D01*
X51590738Y-45002344D01*
X52029718Y-44434557D01*
X52218000Y-43742000D01*
X52218000Y-47553000D01*
X50256000Y-47553000D01*
X50256000Y-45286432D01*
X50256000Y-43442000D01*
X50256000Y-43188000D01*
X50256000Y-41343568D01*
X49971195Y-41226805D01*
X49798109Y-41271080D01*
X49175262Y-41627656D01*
X48736282Y-42195443D01*
X48548000Y-42888000D01*
X48548000Y-43188000D01*
X50256000Y-43188000D01*
X50256000Y-43442000D01*
X48548000Y-43442000D01*
X48548000Y-43742000D01*
X48736282Y-44434557D01*
X49175262Y-45002344D01*
X49798109Y-45358920D01*
X49971195Y-45403195D01*
X50256000Y-45286432D01*
X50256000Y-47553000D01*
X47134422Y-47553000D01*
X47078319Y-47270949D01*
X46680541Y-46675632D01*
X46085224Y-46277854D01*
X45518457Y-46165117D01*
X45518457Y-29793166D01*
X45118147Y-28824342D01*
X44377557Y-28082458D01*
X43409433Y-27680458D01*
X42361166Y-27679543D01*
X41392342Y-28079853D01*
X40650458Y-28820443D01*
X40248458Y-29788567D01*
X40247543Y-30836834D01*
X40647853Y-31805658D01*
X41388443Y-32547542D01*
X42356567Y-32949542D01*
X43404834Y-32950457D01*
X44373658Y-32550147D01*
X45115542Y-31809557D01*
X45517542Y-30841433D01*
X45518457Y-29793166D01*
X45518457Y-46165117D01*
X45383000Y-46138173D01*
X44680776Y-46277854D01*
X44085459Y-46675632D01*
X43687681Y-47270949D01*
X43548000Y-47973173D01*
X43548000Y-48656827D01*
X43687681Y-49359051D01*
X44085459Y-49954368D01*
X44680776Y-50352146D01*
X45383000Y-50491827D01*
X46085224Y-50352146D01*
X46680541Y-49954368D01*
X47078319Y-49359051D01*
X47134422Y-49077000D01*
X123631577Y-49077000D01*
X123687681Y-49359051D01*
X124085459Y-49954368D01*
X124680776Y-50352146D01*
X125383000Y-50491827D01*
X126085224Y-50352146D01*
X126680541Y-49954368D01*
X127078319Y-49359051D01*
X127218000Y-48656827D01*
X127218000Y-65473173D01*
X127078319Y-64770949D01*
X126680541Y-64175632D01*
X126085224Y-63777854D01*
X125383000Y-63638173D01*
X124680776Y-63777854D01*
X124085459Y-64175632D01*
X123687681Y-64770949D01*
X123631577Y-65053000D01*
X122218000Y-65053000D01*
X122218000Y-61156827D01*
X122218000Y-60473173D01*
X122078319Y-59770949D01*
X121680541Y-59175632D01*
X121085224Y-58777854D01*
X120383000Y-58638173D01*
X119680776Y-58777854D01*
X119085459Y-59175632D01*
X118687681Y-59770949D01*
X118548000Y-60473173D01*
X118548000Y-61156827D01*
X118687681Y-61859051D01*
X119085459Y-62454368D01*
X119680776Y-62852146D01*
X120383000Y-62991827D01*
X121085224Y-62852146D01*
X121680541Y-62454368D01*
X122078319Y-61859051D01*
X122218000Y-61156827D01*
X122218000Y-65053000D01*
X52218000Y-65053000D01*
X52218000Y-61242000D01*
X52218000Y-60942000D01*
X52218000Y-60688000D01*
X52218000Y-60388000D01*
X52029718Y-59695443D01*
X51590738Y-59127656D01*
X50967891Y-58771080D01*
X50794805Y-58726805D01*
X50510000Y-58843568D01*
X50510000Y-60688000D01*
X52218000Y-60688000D01*
X52218000Y-60942000D01*
X50510000Y-60942000D01*
X50510000Y-62786432D01*
X50794805Y-62903195D01*
X50967891Y-62858920D01*
X51590738Y-62502344D01*
X52029718Y-61934557D01*
X52218000Y-61242000D01*
X52218000Y-65053000D01*
X50256000Y-65053000D01*
X50256000Y-62786432D01*
X50256000Y-60942000D01*
X50256000Y-60688000D01*
X50256000Y-58843568D01*
X49971195Y-58726805D01*
X49798109Y-58771080D01*
X49175262Y-59127656D01*
X48736282Y-59695443D01*
X48548000Y-60388000D01*
X48548000Y-60688000D01*
X50256000Y-60688000D01*
X50256000Y-60942000D01*
X48548000Y-60942000D01*
X48548000Y-61242000D01*
X48736282Y-61934557D01*
X49175262Y-62502344D01*
X49798109Y-62858920D01*
X49971195Y-62903195D01*
X50256000Y-62786432D01*
X50256000Y-65053000D01*
X47134422Y-65053000D01*
X47078319Y-64770949D01*
X46680541Y-64175632D01*
X46085224Y-63777854D01*
X45383000Y-63638173D01*
X44680776Y-63777854D01*
X44085459Y-64175632D01*
X43687681Y-64770949D01*
X43548000Y-65473173D01*
X43548000Y-66156827D01*
X43687681Y-66859051D01*
X44085459Y-67454368D01*
X44680776Y-67852146D01*
X45383000Y-67991827D01*
X46085224Y-67852146D01*
X46680541Y-67454368D01*
X47078319Y-66859051D01*
X47134422Y-66577000D01*
X123631577Y-66577000D01*
X123687681Y-66859051D01*
X124085459Y-67454368D01*
X124680776Y-67852146D01*
X125383000Y-67991827D01*
X126085224Y-67852146D01*
X126680541Y-67454368D01*
X127078319Y-66859051D01*
X127218000Y-66156827D01*
X127218000Y-82973173D01*
X127078319Y-82270949D01*
X126680541Y-81675632D01*
X126085224Y-81277854D01*
X125383000Y-81138173D01*
X124680776Y-81277854D01*
X124085459Y-81675632D01*
X123687681Y-82270949D01*
X123631577Y-82553000D01*
X122218000Y-82553000D01*
X122218000Y-78656827D01*
X122218000Y-77973173D01*
X122078319Y-77270949D01*
X121680541Y-76675632D01*
X121085224Y-76277854D01*
X120383000Y-76138173D01*
X119680776Y-76277854D01*
X119085459Y-76675632D01*
X118687681Y-77270949D01*
X118548000Y-77973173D01*
X118548000Y-78656827D01*
X118687681Y-79359051D01*
X119085459Y-79954368D01*
X119680776Y-80352146D01*
X120383000Y-80491827D01*
X121085224Y-80352146D01*
X121680541Y-79954368D01*
X122078319Y-79359051D01*
X122218000Y-78656827D01*
X122218000Y-82553000D01*
X52218000Y-82553000D01*
X52218000Y-78742000D01*
X52218000Y-78442000D01*
X52218000Y-78188000D01*
X52218000Y-77888000D01*
X52029718Y-77195443D01*
X51590738Y-76627656D01*
X50967891Y-76271080D01*
X50794805Y-76226805D01*
X50510000Y-76343568D01*
X50510000Y-78188000D01*
X52218000Y-78188000D01*
X52218000Y-78442000D01*
X50510000Y-78442000D01*
X50510000Y-80286432D01*
X50794805Y-80403195D01*
X50967891Y-80358920D01*
X51590738Y-80002344D01*
X52029718Y-79434557D01*
X52218000Y-78742000D01*
X52218000Y-82553000D01*
X50256000Y-82553000D01*
X50256000Y-80286432D01*
X50256000Y-78442000D01*
X50256000Y-78188000D01*
X50256000Y-76343568D01*
X49971195Y-76226805D01*
X49798109Y-76271080D01*
X49175262Y-76627656D01*
X48736282Y-77195443D01*
X48548000Y-77888000D01*
X48548000Y-78188000D01*
X50256000Y-78188000D01*
X50256000Y-78442000D01*
X48548000Y-78442000D01*
X48548000Y-78742000D01*
X48736282Y-79434557D01*
X49175262Y-80002344D01*
X49798109Y-80358920D01*
X49971195Y-80403195D01*
X50256000Y-80286432D01*
X50256000Y-82553000D01*
X47134422Y-82553000D01*
X47078319Y-82270949D01*
X46680541Y-81675632D01*
X46085224Y-81277854D01*
X45383000Y-81138173D01*
X44680776Y-81277854D01*
X44085459Y-81675632D01*
X43687681Y-82270949D01*
X43548000Y-82973173D01*
X43548000Y-83656827D01*
X43687681Y-84359051D01*
X44085459Y-84954368D01*
X44680776Y-85352146D01*
X45383000Y-85491827D01*
X46085224Y-85352146D01*
X46680541Y-84954368D01*
X47078319Y-84359051D01*
X47134422Y-84077000D01*
X123631577Y-84077000D01*
X123687681Y-84359051D01*
X124085459Y-84954368D01*
X124680776Y-85352146D01*
X125383000Y-85491827D01*
X126085224Y-85352146D01*
X126680541Y-84954368D01*
X127078319Y-84359051D01*
X127218000Y-83656827D01*
X127218000Y-100473173D01*
X127078319Y-99770949D01*
X126680541Y-99175632D01*
X126085224Y-98777854D01*
X125383000Y-98638173D01*
X124680776Y-98777854D01*
X124085459Y-99175632D01*
X123687681Y-99770949D01*
X123631577Y-100053000D01*
X122218000Y-100053000D01*
X122218000Y-96156827D01*
X122218000Y-95473173D01*
X122078319Y-94770949D01*
X121680541Y-94175632D01*
X121085224Y-93777854D01*
X120383000Y-93638173D01*
X119680776Y-93777854D01*
X119085459Y-94175632D01*
X118687681Y-94770949D01*
X118548000Y-95473173D01*
X118548000Y-96156827D01*
X118687681Y-96859051D01*
X119085459Y-97454368D01*
X119680776Y-97852146D01*
X120383000Y-97991827D01*
X121085224Y-97852146D01*
X121680541Y-97454368D01*
X122078319Y-96859051D01*
X122218000Y-96156827D01*
X122218000Y-100053000D01*
X52218000Y-100053000D01*
X52218000Y-96242000D01*
X52218000Y-95942000D01*
X52218000Y-95688000D01*
X52218000Y-95388000D01*
X52029718Y-94695443D01*
X51590738Y-94127656D01*
X50967891Y-93771080D01*
X50794805Y-93726805D01*
X50510000Y-93843568D01*
X50510000Y-95688000D01*
X52218000Y-95688000D01*
X52218000Y-95942000D01*
X50510000Y-95942000D01*
X50510000Y-97786432D01*
X50794805Y-97903195D01*
X50967891Y-97858920D01*
X51590738Y-97502344D01*
X52029718Y-96934557D01*
X52218000Y-96242000D01*
X52218000Y-100053000D01*
X50256000Y-100053000D01*
X50256000Y-97786432D01*
X50256000Y-95942000D01*
X50256000Y-95688000D01*
X50256000Y-93843568D01*
X49971195Y-93726805D01*
X49798109Y-93771080D01*
X49175262Y-94127656D01*
X48736282Y-94695443D01*
X48548000Y-95388000D01*
X48548000Y-95688000D01*
X50256000Y-95688000D01*
X50256000Y-95942000D01*
X48548000Y-95942000D01*
X48548000Y-96242000D01*
X48736282Y-96934557D01*
X49175262Y-97502344D01*
X49798109Y-97858920D01*
X49971195Y-97903195D01*
X50256000Y-97786432D01*
X50256000Y-100053000D01*
X47134422Y-100053000D01*
X47078319Y-99770949D01*
X46680541Y-99175632D01*
X46085224Y-98777854D01*
X45383000Y-98638173D01*
X44680776Y-98777854D01*
X44085459Y-99175632D01*
X43687681Y-99770949D01*
X43548000Y-100473173D01*
X43548000Y-101156827D01*
X43687681Y-101859051D01*
X44085459Y-102454368D01*
X44680776Y-102852146D01*
X45383000Y-102991827D01*
X46085224Y-102852146D01*
X46680541Y-102454368D01*
X47078319Y-101859051D01*
X47134422Y-101577000D01*
X123631577Y-101577000D01*
X123687681Y-101859051D01*
X124085459Y-102454368D01*
X124680776Y-102852146D01*
X125383000Y-102991827D01*
X126085224Y-102852146D01*
X126680541Y-102454368D01*
X127078319Y-101859051D01*
X127218000Y-101156827D01*
X127218000Y-105238697D01*
X126392342Y-105579853D01*
X125650458Y-106320443D01*
X125248458Y-107288567D01*
X125247543Y-108336834D01*
X125647853Y-109305658D01*
X126388443Y-110047542D01*
X127356567Y-110449542D01*
X128404834Y-110450457D01*
X129373658Y-110050147D01*
X130115542Y-109309557D01*
X130517542Y-108341433D01*
X130518457Y-107293166D01*
X130518457Y-112089635D01*
X130315532Y-112130000D01*
X45518457Y-112130000D01*
X45518457Y-107293166D01*
X45118147Y-106324342D01*
X44377557Y-105582458D01*
X43409433Y-105180458D01*
X42361166Y-105179543D01*
X41392342Y-105579853D01*
X40650458Y-106320443D01*
X40248458Y-107288567D01*
X40247543Y-108336834D01*
X40647853Y-109305658D01*
X41388443Y-110047542D01*
X42356567Y-110449542D01*
X43404834Y-110450457D01*
X44373658Y-110050147D01*
X45115542Y-109309557D01*
X45517542Y-108341433D01*
X45518457Y-107293166D01*
X45518457Y-112130000D01*
X40450467Y-112130000D01*
X39693564Y-111979442D01*
X39109089Y-111588908D01*
X38718556Y-111004434D01*
X38568000Y-110247532D01*
X38568000Y-107815000D01*
X38568000Y-105315000D01*
X38568000Y-27882467D01*
X38718556Y-27125565D01*
X39109089Y-26541091D01*
X39693564Y-26150557D01*
X40450467Y-26000000D01*
X130315532Y-26000000D01*
X131072434Y-26150556D01*
X131656908Y-26541089D01*
X132047442Y-27125564D01*
X132198000Y-27882467D01*
X132198000Y-105315000D01*
X132198000Y-107815000D01*
X132198000Y-110247532D01*
X132198000Y-110247532D01*
G37*
X132198000Y-110247532D02*
X132047442Y-111004435D01*
X131656908Y-111588910D01*
X131072434Y-111979443D01*
X130518457Y-112089635D01*
X130518457Y-107293166D01*
X130518457Y-29793166D01*
X130118147Y-28824342D01*
X129377557Y-28082458D01*
X128409433Y-27680458D01*
X127361166Y-27679543D01*
X126392342Y-28079853D01*
X125650458Y-28820443D01*
X125248458Y-29788567D01*
X125247543Y-30836834D01*
X125647853Y-31805658D01*
X126388443Y-32547542D01*
X127356567Y-32949542D01*
X128404834Y-32950457D01*
X129373658Y-32550147D01*
X130115542Y-31809557D01*
X130517542Y-30841433D01*
X130518457Y-29793166D01*
X130518457Y-107293166D01*
X130118147Y-106324342D01*
X129377557Y-105582458D01*
X128409433Y-105180458D01*
X127361166Y-105179543D01*
X127218000Y-105238697D01*
X127218000Y-101156827D01*
X127218000Y-100473173D01*
X127218000Y-83656827D01*
X127218000Y-82973173D01*
X127218000Y-66156827D01*
X127218000Y-65473173D01*
X127218000Y-48656827D01*
X127218000Y-47973173D01*
X127078319Y-47270949D01*
X126680541Y-46675632D01*
X126085224Y-46277854D01*
X125383000Y-46138173D01*
X124680776Y-46277854D01*
X124085459Y-46675632D01*
X123687681Y-47270949D01*
X123631577Y-47553000D01*
X122218000Y-47553000D01*
X122218000Y-43656827D01*
X122218000Y-42973173D01*
X122078319Y-42270949D01*
X121680541Y-41675632D01*
X121145000Y-41317795D01*
X121145000Y-37815000D01*
X121145000Y-37325000D01*
X121086996Y-37033396D01*
X121086996Y-37033395D01*
X121020834Y-36934376D01*
X120921816Y-36786185D01*
X112461815Y-28326185D01*
X112214605Y-28161004D01*
X111923000Y-28103000D01*
X110043712Y-28103000D01*
X109892819Y-27877172D01*
X109439600Y-27574340D01*
X108904991Y-27468000D01*
X108161009Y-27468000D01*
X107626400Y-27574340D01*
X107173181Y-27877172D01*
X107022287Y-28103000D01*
X103543712Y-28103000D01*
X103392819Y-27877172D01*
X102939600Y-27574340D01*
X102404991Y-27468000D01*
X101713630Y-27468000D01*
X101021815Y-26776185D01*
X100774605Y-26611004D01*
X100483000Y-26553000D01*
X100253273Y-26553000D01*
X100203000Y-26543000D01*
X100152726Y-26553000D01*
X82883000Y-26553000D01*
X82591395Y-26611004D01*
X82344185Y-26776185D01*
X80370927Y-28749442D01*
X79809511Y-28861115D01*
X79323330Y-29185971D01*
X78998474Y-29672152D01*
X78884400Y-30245641D01*
X78884400Y-30304359D01*
X78998474Y-30877848D01*
X79310300Y-31344529D01*
X79277277Y-31350937D01*
X79064473Y-31490727D01*
X78922023Y-31701760D01*
X78871960Y-31951400D01*
X78871960Y-33588409D01*
X77180622Y-35279747D01*
X77180622Y-32995922D01*
X77180440Y-32992777D01*
X77180440Y-30965000D01*
X77180440Y-29665000D01*
X77133463Y-29422877D01*
X76993673Y-29210073D01*
X76782640Y-29067623D01*
X76533000Y-29017560D01*
X75233000Y-29017560D01*
X74990877Y-29064537D01*
X74778073Y-29204327D01*
X74635623Y-29415360D01*
X74608020Y-29553000D01*
X71778630Y-29553000D01*
X70551815Y-28326185D01*
X70304605Y-28161004D01*
X70013000Y-28103000D01*
X69403712Y-28103000D01*
X69252819Y-27877172D01*
X68799600Y-27574340D01*
X68264991Y-27468000D01*
X67521009Y-27468000D01*
X66986400Y-27574340D01*
X66533181Y-27877172D01*
X66382287Y-28103000D01*
X62903712Y-28103000D01*
X62752819Y-27877172D01*
X62299600Y-27574340D01*
X61764991Y-27468000D01*
X61021009Y-27468000D01*
X60486400Y-27574340D01*
X60033181Y-27877172D01*
X59730349Y-28330391D01*
X59624009Y-28865000D01*
X59730349Y-29399609D01*
X60033181Y-29852828D01*
X60486400Y-30155660D01*
X61021009Y-30262000D01*
X61764991Y-30262000D01*
X62299600Y-30155660D01*
X62752819Y-29852828D01*
X62903712Y-29627000D01*
X66382287Y-29627000D01*
X66533181Y-29852828D01*
X66986400Y-30155660D01*
X67521009Y-30262000D01*
X68264991Y-30262000D01*
X68799600Y-30155660D01*
X69252819Y-29852828D01*
X69403712Y-29627000D01*
X69697369Y-29627000D01*
X70924185Y-30853816D01*
X71072376Y-30952834D01*
X71171395Y-31018996D01*
X71171396Y-31018996D01*
X71463000Y-31077000D01*
X74607290Y-31077000D01*
X74632537Y-31207123D01*
X74772327Y-31419927D01*
X74983360Y-31562377D01*
X75233000Y-31612440D01*
X75395385Y-31612440D01*
X75219271Y-31685389D01*
X75163590Y-31915984D01*
X75883000Y-32635395D01*
X76602410Y-31915984D01*
X76546729Y-31685389D01*
X76337098Y-31612440D01*
X76533000Y-31612440D01*
X76775123Y-31565463D01*
X76987927Y-31425673D01*
X77130377Y-31214640D01*
X77180440Y-30965000D01*
X77180440Y-32992777D01*
X77151083Y-32485572D01*
X77012611Y-32151271D01*
X76782016Y-32095590D01*
X76062605Y-32815000D01*
X76782016Y-33534410D01*
X77012611Y-33478729D01*
X77180622Y-32995922D01*
X77180622Y-35279747D01*
X77027369Y-35433000D01*
X76602410Y-35433000D01*
X76602410Y-33714016D01*
X75883000Y-32994605D01*
X75703395Y-33174210D01*
X75703395Y-32815000D01*
X74983984Y-32095590D01*
X74753389Y-32151271D01*
X74585378Y-32634078D01*
X74614917Y-33144428D01*
X74753389Y-33478729D01*
X74983984Y-33534410D01*
X75703395Y-32815000D01*
X75703395Y-33174210D01*
X75163590Y-33714016D01*
X75219271Y-33944611D01*
X75702078Y-34112622D01*
X76212428Y-34083083D01*
X76546729Y-33944611D01*
X76602410Y-33714016D01*
X76602410Y-35433000D01*
X71038630Y-35433000D01*
X69535458Y-33929828D01*
X69555651Y-33899609D01*
X69661991Y-33365000D01*
X69555651Y-32830391D01*
X69252819Y-32377172D01*
X68799600Y-32074340D01*
X68264991Y-31968000D01*
X67521009Y-31968000D01*
X66986400Y-32074340D01*
X66533181Y-32377172D01*
X66382287Y-32603000D01*
X62903712Y-32603000D01*
X62752819Y-32377172D01*
X62299600Y-32074340D01*
X61764991Y-31968000D01*
X61021009Y-31968000D01*
X60486400Y-32074340D01*
X60033181Y-32377172D01*
X59730349Y-32830391D01*
X59624009Y-33365000D01*
X59730349Y-33899609D01*
X60033181Y-34352828D01*
X60486400Y-34655660D01*
X61021009Y-34762000D01*
X61764991Y-34762000D01*
X62299600Y-34655660D01*
X62752819Y-34352828D01*
X62903712Y-34127000D01*
X66382287Y-34127000D01*
X66533181Y-34352828D01*
X66986400Y-34655660D01*
X67521009Y-34762000D01*
X68212369Y-34762000D01*
X70184184Y-36733815D01*
X70184185Y-36733815D01*
X70431395Y-36898996D01*
X70723000Y-36957000D01*
X77343000Y-36957000D01*
X77343000Y-36956999D01*
X77634604Y-36898996D01*
X77634605Y-36898996D01*
X77881815Y-36733815D01*
X80289590Y-34326040D01*
X81246600Y-34326040D01*
X81488723Y-34279063D01*
X81701527Y-34139273D01*
X81843977Y-33928240D01*
X81852179Y-33887340D01*
X81863330Y-33904029D01*
X82349511Y-34228885D01*
X82923000Y-34342959D01*
X83496489Y-34228885D01*
X83982670Y-33904029D01*
X84193000Y-33589248D01*
X84403330Y-33904029D01*
X84889511Y-34228885D01*
X85463000Y-34342959D01*
X86036489Y-34228885D01*
X86522670Y-33904029D01*
X86733000Y-33589248D01*
X86943330Y-33904029D01*
X87429511Y-34228885D01*
X88003000Y-34342959D01*
X88576489Y-34228885D01*
X89062670Y-33904029D01*
X89273000Y-33589248D01*
X89483330Y-33904029D01*
X89969511Y-34228885D01*
X90543000Y-34342959D01*
X91116489Y-34228885D01*
X91602670Y-33904029D01*
X91821183Y-33577000D01*
X100306178Y-33577000D01*
X100370349Y-33899609D01*
X100673181Y-34352828D01*
X101126400Y-34655660D01*
X101661009Y-34762000D01*
X102404991Y-34762000D01*
X102939600Y-34655660D01*
X103392819Y-34352828D01*
X103695651Y-33899609D01*
X103801991Y-33365000D01*
X103695651Y-32830391D01*
X103392819Y-32377172D01*
X102939600Y-32074340D01*
X102404991Y-31968000D01*
X101661009Y-31968000D01*
X101233683Y-32053000D01*
X91821183Y-32053000D01*
X91602670Y-31725971D01*
X91331839Y-31545007D01*
X91749821Y-31163490D01*
X91997968Y-30634027D01*
X91997968Y-29915973D01*
X91749821Y-29386510D01*
X91317947Y-28992312D01*
X90902026Y-28820042D01*
X90670000Y-28941183D01*
X90670000Y-30148000D01*
X91877469Y-30148000D01*
X91997968Y-29915973D01*
X91997968Y-30634027D01*
X91877469Y-30402000D01*
X90670000Y-30402000D01*
X90670000Y-30422000D01*
X90416000Y-30422000D01*
X90416000Y-30402000D01*
X90396000Y-30402000D01*
X90396000Y-30148000D01*
X90416000Y-30148000D01*
X90416000Y-28941183D01*
X90183974Y-28820042D01*
X89768053Y-28992312D01*
X89336179Y-29386510D01*
X89278663Y-29509228D01*
X89062670Y-29185971D01*
X88576489Y-28861115D01*
X88003000Y-28747041D01*
X87429511Y-28861115D01*
X86943330Y-29185971D01*
X86733000Y-29500751D01*
X86522670Y-29185971D01*
X86036489Y-28861115D01*
X85463000Y-28747041D01*
X84889511Y-28861115D01*
X84403330Y-29185971D01*
X84193000Y-29500751D01*
X83982670Y-29185971D01*
X83496489Y-28861115D01*
X82923000Y-28747041D01*
X82430655Y-28844974D01*
X83198630Y-28077000D01*
X100167370Y-28077000D01*
X100390541Y-28300171D01*
X100370349Y-28330391D01*
X100264009Y-28865000D01*
X100370349Y-29399609D01*
X100673181Y-29852828D01*
X101126400Y-30155660D01*
X101661009Y-30262000D01*
X102404991Y-30262000D01*
X102939600Y-30155660D01*
X103392819Y-29852828D01*
X103543712Y-29627000D01*
X107022287Y-29627000D01*
X107173181Y-29852828D01*
X107626400Y-30155660D01*
X108161009Y-30262000D01*
X108904991Y-30262000D01*
X109439600Y-30155660D01*
X109892819Y-29852828D01*
X110043712Y-29627000D01*
X111607369Y-29627000D01*
X119621000Y-37640630D01*
X119621000Y-37815000D01*
X119621000Y-41317795D01*
X119085459Y-41675632D01*
X118687681Y-42270949D01*
X118548000Y-42973173D01*
X118548000Y-43656827D01*
X118687681Y-44359051D01*
X119085459Y-44954368D01*
X119680776Y-45352146D01*
X120383000Y-45491827D01*
X121085224Y-45352146D01*
X121680541Y-44954368D01*
X122078319Y-44359051D01*
X122218000Y-43656827D01*
X122218000Y-47553000D01*
X110301991Y-47553000D01*
X110301991Y-33365000D01*
X110195651Y-32830391D01*
X109892819Y-32377172D01*
X109439600Y-32074340D01*
X108904991Y-31968000D01*
X108161009Y-31968000D01*
X107626400Y-32074340D01*
X107173181Y-32377172D01*
X106870349Y-32830391D01*
X106764009Y-33365000D01*
X106870349Y-33899609D01*
X107173181Y-34352828D01*
X107626400Y-34655660D01*
X108161009Y-34762000D01*
X108904991Y-34762000D01*
X109439600Y-34655660D01*
X109892819Y-34352828D01*
X110195651Y-33899609D01*
X110301991Y-33365000D01*
X110301991Y-47553000D01*
X52218000Y-47553000D01*
X52218000Y-43742000D01*
X52218000Y-43442000D01*
X52218000Y-43188000D01*
X52218000Y-42888000D01*
X52029718Y-42195443D01*
X51590738Y-41627656D01*
X50967891Y-41271080D01*
X50794805Y-41226805D01*
X50510000Y-41343568D01*
X50510000Y-43188000D01*
X52218000Y-43188000D01*
X52218000Y-43442000D01*
X50510000Y-43442000D01*
X50510000Y-45286432D01*
X50794805Y-45403195D01*
X50967891Y-45358920D01*
X51590738Y-45002344D01*
X52029718Y-44434557D01*
X52218000Y-43742000D01*
X52218000Y-47553000D01*
X50256000Y-47553000D01*
X50256000Y-45286432D01*
X50256000Y-43442000D01*
X50256000Y-43188000D01*
X50256000Y-41343568D01*
X49971195Y-41226805D01*
X49798109Y-41271080D01*
X49175262Y-41627656D01*
X48736282Y-42195443D01*
X48548000Y-42888000D01*
X48548000Y-43188000D01*
X50256000Y-43188000D01*
X50256000Y-43442000D01*
X48548000Y-43442000D01*
X48548000Y-43742000D01*
X48736282Y-44434557D01*
X49175262Y-45002344D01*
X49798109Y-45358920D01*
X49971195Y-45403195D01*
X50256000Y-45286432D01*
X50256000Y-47553000D01*
X47134422Y-47553000D01*
X47078319Y-47270949D01*
X46680541Y-46675632D01*
X46085224Y-46277854D01*
X45518457Y-46165117D01*
X45518457Y-29793166D01*
X45118147Y-28824342D01*
X44377557Y-28082458D01*
X43409433Y-27680458D01*
X42361166Y-27679543D01*
X41392342Y-28079853D01*
X40650458Y-28820443D01*
X40248458Y-29788567D01*
X40247543Y-30836834D01*
X40647853Y-31805658D01*
X41388443Y-32547542D01*
X42356567Y-32949542D01*
X43404834Y-32950457D01*
X44373658Y-32550147D01*
X45115542Y-31809557D01*
X45517542Y-30841433D01*
X45518457Y-29793166D01*
X45518457Y-46165117D01*
X45383000Y-46138173D01*
X44680776Y-46277854D01*
X44085459Y-46675632D01*
X43687681Y-47270949D01*
X43548000Y-47973173D01*
X43548000Y-48656827D01*
X43687681Y-49359051D01*
X44085459Y-49954368D01*
X44680776Y-50352146D01*
X45383000Y-50491827D01*
X46085224Y-50352146D01*
X46680541Y-49954368D01*
X47078319Y-49359051D01*
X47134422Y-49077000D01*
X123631577Y-49077000D01*
X123687681Y-49359051D01*
X124085459Y-49954368D01*
X124680776Y-50352146D01*
X125383000Y-50491827D01*
X126085224Y-50352146D01*
X126680541Y-49954368D01*
X127078319Y-49359051D01*
X127218000Y-48656827D01*
X127218000Y-65473173D01*
X127078319Y-64770949D01*
X126680541Y-64175632D01*
X126085224Y-63777854D01*
X125383000Y-63638173D01*
X124680776Y-63777854D01*
X124085459Y-64175632D01*
X123687681Y-64770949D01*
X123631577Y-65053000D01*
X122218000Y-65053000D01*
X122218000Y-61156827D01*
X122218000Y-60473173D01*
X122078319Y-59770949D01*
X121680541Y-59175632D01*
X121085224Y-58777854D01*
X120383000Y-58638173D01*
X119680776Y-58777854D01*
X119085459Y-59175632D01*
X118687681Y-59770949D01*
X118548000Y-60473173D01*
X118548000Y-61156827D01*
X118687681Y-61859051D01*
X119085459Y-62454368D01*
X119680776Y-62852146D01*
X120383000Y-62991827D01*
X121085224Y-62852146D01*
X121680541Y-62454368D01*
X122078319Y-61859051D01*
X122218000Y-61156827D01*
X122218000Y-65053000D01*
X52218000Y-65053000D01*
X52218000Y-61242000D01*
X52218000Y-60942000D01*
X52218000Y-60688000D01*
X52218000Y-60388000D01*
X52029718Y-59695443D01*
X51590738Y-59127656D01*
X50967891Y-58771080D01*
X50794805Y-58726805D01*
X50510000Y-58843568D01*
X50510000Y-60688000D01*
X52218000Y-60688000D01*
X52218000Y-60942000D01*
X50510000Y-60942000D01*
X50510000Y-62786432D01*
X50794805Y-62903195D01*
X50967891Y-62858920D01*
X51590738Y-62502344D01*
X52029718Y-61934557D01*
X52218000Y-61242000D01*
X52218000Y-65053000D01*
X50256000Y-65053000D01*
X50256000Y-62786432D01*
X50256000Y-60942000D01*
X50256000Y-60688000D01*
X50256000Y-58843568D01*
X49971195Y-58726805D01*
X49798109Y-58771080D01*
X49175262Y-59127656D01*
X48736282Y-59695443D01*
X48548000Y-60388000D01*
X48548000Y-60688000D01*
X50256000Y-60688000D01*
X50256000Y-60942000D01*
X48548000Y-60942000D01*
X48548000Y-61242000D01*
X48736282Y-61934557D01*
X49175262Y-62502344D01*
X49798109Y-62858920D01*
X49971195Y-62903195D01*
X50256000Y-62786432D01*
X50256000Y-65053000D01*
X47134422Y-65053000D01*
X47078319Y-64770949D01*
X46680541Y-64175632D01*
X46085224Y-63777854D01*
X45383000Y-63638173D01*
X44680776Y-63777854D01*
X44085459Y-64175632D01*
X43687681Y-64770949D01*
X43548000Y-65473173D01*
X43548000Y-66156827D01*
X43687681Y-66859051D01*
X44085459Y-67454368D01*
X44680776Y-67852146D01*
X45383000Y-67991827D01*
X46085224Y-67852146D01*
X46680541Y-67454368D01*
X47078319Y-66859051D01*
X47134422Y-66577000D01*
X123631577Y-66577000D01*
X123687681Y-66859051D01*
X124085459Y-67454368D01*
X124680776Y-67852146D01*
X125383000Y-67991827D01*
X126085224Y-67852146D01*
X126680541Y-67454368D01*
X127078319Y-66859051D01*
X127218000Y-66156827D01*
X127218000Y-82973173D01*
X127078319Y-82270949D01*
X126680541Y-81675632D01*
X126085224Y-81277854D01*
X125383000Y-81138173D01*
X124680776Y-81277854D01*
X124085459Y-81675632D01*
X123687681Y-82270949D01*
X123631577Y-82553000D01*
X122218000Y-82553000D01*
X122218000Y-78656827D01*
X122218000Y-77973173D01*
X122078319Y-77270949D01*
X121680541Y-76675632D01*
X121085224Y-76277854D01*
X120383000Y-76138173D01*
X119680776Y-76277854D01*
X119085459Y-76675632D01*
X118687681Y-77270949D01*
X118548000Y-77973173D01*
X118548000Y-78656827D01*
X118687681Y-79359051D01*
X119085459Y-79954368D01*
X119680776Y-80352146D01*
X120383000Y-80491827D01*
X121085224Y-80352146D01*
X121680541Y-79954368D01*
X122078319Y-79359051D01*
X122218000Y-78656827D01*
X122218000Y-82553000D01*
X52218000Y-82553000D01*
X52218000Y-78742000D01*
X52218000Y-78442000D01*
X52218000Y-78188000D01*
X52218000Y-77888000D01*
X52029718Y-77195443D01*
X51590738Y-76627656D01*
X50967891Y-76271080D01*
X50794805Y-76226805D01*
X50510000Y-76343568D01*
X50510000Y-78188000D01*
X52218000Y-78188000D01*
X52218000Y-78442000D01*
X50510000Y-78442000D01*
X50510000Y-80286432D01*
X50794805Y-80403195D01*
X50967891Y-80358920D01*
X51590738Y-80002344D01*
X52029718Y-79434557D01*
X52218000Y-78742000D01*
X52218000Y-82553000D01*
X50256000Y-82553000D01*
X50256000Y-80286432D01*
X50256000Y-78442000D01*
X50256000Y-78188000D01*
X50256000Y-76343568D01*
X49971195Y-76226805D01*
X49798109Y-76271080D01*
X49175262Y-76627656D01*
X48736282Y-77195443D01*
X48548000Y-77888000D01*
X48548000Y-78188000D01*
X50256000Y-78188000D01*
X50256000Y-78442000D01*
X48548000Y-78442000D01*
X48548000Y-78742000D01*
X48736282Y-79434557D01*
X49175262Y-80002344D01*
X49798109Y-80358920D01*
X49971195Y-80403195D01*
X50256000Y-80286432D01*
X50256000Y-82553000D01*
X47134422Y-82553000D01*
X47078319Y-82270949D01*
X46680541Y-81675632D01*
X46085224Y-81277854D01*
X45383000Y-81138173D01*
X44680776Y-81277854D01*
X44085459Y-81675632D01*
X43687681Y-82270949D01*
X43548000Y-82973173D01*
X43548000Y-83656827D01*
X43687681Y-84359051D01*
X44085459Y-84954368D01*
X44680776Y-85352146D01*
X45383000Y-85491827D01*
X46085224Y-85352146D01*
X46680541Y-84954368D01*
X47078319Y-84359051D01*
X47134422Y-84077000D01*
X123631577Y-84077000D01*
X123687681Y-84359051D01*
X124085459Y-84954368D01*
X124680776Y-85352146D01*
X125383000Y-85491827D01*
X126085224Y-85352146D01*
X126680541Y-84954368D01*
X127078319Y-84359051D01*
X127218000Y-83656827D01*
X127218000Y-100473173D01*
X127078319Y-99770949D01*
X126680541Y-99175632D01*
X126085224Y-98777854D01*
X125383000Y-98638173D01*
X124680776Y-98777854D01*
X124085459Y-99175632D01*
X123687681Y-99770949D01*
X123631577Y-100053000D01*
X122218000Y-100053000D01*
X122218000Y-96156827D01*
X122218000Y-95473173D01*
X122078319Y-94770949D01*
X121680541Y-94175632D01*
X121085224Y-93777854D01*
X120383000Y-93638173D01*
X119680776Y-93777854D01*
X119085459Y-94175632D01*
X118687681Y-94770949D01*
X118548000Y-95473173D01*
X118548000Y-96156827D01*
X118687681Y-96859051D01*
X119085459Y-97454368D01*
X119680776Y-97852146D01*
X120383000Y-97991827D01*
X121085224Y-97852146D01*
X121680541Y-97454368D01*
X122078319Y-96859051D01*
X122218000Y-96156827D01*
X122218000Y-100053000D01*
X52218000Y-100053000D01*
X52218000Y-96242000D01*
X52218000Y-95942000D01*
X52218000Y-95688000D01*
X52218000Y-95388000D01*
X52029718Y-94695443D01*
X51590738Y-94127656D01*
X50967891Y-93771080D01*
X50794805Y-93726805D01*
X50510000Y-93843568D01*
X50510000Y-95688000D01*
X52218000Y-95688000D01*
X52218000Y-95942000D01*
X50510000Y-95942000D01*
X50510000Y-97786432D01*
X50794805Y-97903195D01*
X50967891Y-97858920D01*
X51590738Y-97502344D01*
X52029718Y-96934557D01*
X52218000Y-96242000D01*
X52218000Y-100053000D01*
X50256000Y-100053000D01*
X50256000Y-97786432D01*
X50256000Y-95942000D01*
X50256000Y-95688000D01*
X50256000Y-93843568D01*
X49971195Y-93726805D01*
X49798109Y-93771080D01*
X49175262Y-94127656D01*
X48736282Y-94695443D01*
X48548000Y-95388000D01*
X48548000Y-95688000D01*
X50256000Y-95688000D01*
X50256000Y-95942000D01*
X48548000Y-95942000D01*
X48548000Y-96242000D01*
X48736282Y-96934557D01*
X49175262Y-97502344D01*
X49798109Y-97858920D01*
X49971195Y-97903195D01*
X50256000Y-97786432D01*
X50256000Y-100053000D01*
X47134422Y-100053000D01*
X47078319Y-99770949D01*
X46680541Y-99175632D01*
X46085224Y-98777854D01*
X45383000Y-98638173D01*
X44680776Y-98777854D01*
X44085459Y-99175632D01*
X43687681Y-99770949D01*
X43548000Y-100473173D01*
X43548000Y-101156827D01*
X43687681Y-101859051D01*
X44085459Y-102454368D01*
X44680776Y-102852146D01*
X45383000Y-102991827D01*
X46085224Y-102852146D01*
X46680541Y-102454368D01*
X47078319Y-101859051D01*
X47134422Y-101577000D01*
X123631577Y-101577000D01*
X123687681Y-101859051D01*
X124085459Y-102454368D01*
X124680776Y-102852146D01*
X125383000Y-102991827D01*
X126085224Y-102852146D01*
X126680541Y-102454368D01*
X127078319Y-101859051D01*
X127218000Y-101156827D01*
X127218000Y-105238697D01*
X126392342Y-105579853D01*
X125650458Y-106320443D01*
X125248458Y-107288567D01*
X125247543Y-108336834D01*
X125647853Y-109305658D01*
X126388443Y-110047542D01*
X127356567Y-110449542D01*
X128404834Y-110450457D01*
X129373658Y-110050147D01*
X130115542Y-109309557D01*
X130517542Y-108341433D01*
X130518457Y-107293166D01*
X130518457Y-112089635D01*
X130315532Y-112130000D01*
X45518457Y-112130000D01*
X45518457Y-107293166D01*
X45118147Y-106324342D01*
X44377557Y-105582458D01*
X43409433Y-105180458D01*
X42361166Y-105179543D01*
X41392342Y-105579853D01*
X40650458Y-106320443D01*
X40248458Y-107288567D01*
X40247543Y-108336834D01*
X40647853Y-109305658D01*
X41388443Y-110047542D01*
X42356567Y-110449542D01*
X43404834Y-110450457D01*
X44373658Y-110050147D01*
X45115542Y-109309557D01*
X45517542Y-108341433D01*
X45518457Y-107293166D01*
X45518457Y-112130000D01*
X40450467Y-112130000D01*
X39693564Y-111979442D01*
X39109089Y-111588908D01*
X38718556Y-111004434D01*
X38568000Y-110247532D01*
X38568000Y-107815000D01*
X38568000Y-105315000D01*
X38568000Y-27882467D01*
X38718556Y-27125565D01*
X39109089Y-26541091D01*
X39693564Y-26150557D01*
X40450467Y-26000000D01*
X130315532Y-26000000D01*
X131072434Y-26150556D01*
X131656908Y-26541089D01*
X132047442Y-27125564D01*
X132198000Y-27882467D01*
X132198000Y-105315000D01*
X132198000Y-107815000D01*
X132198000Y-110247532D01*
G36*
X132198000Y-204227532D02*
X132047442Y-204984435D01*
X131656908Y-205568910D01*
X131072434Y-205959443D01*
X130518457Y-206069635D01*
X130518457Y-201273166D01*
X130518457Y-123773166D01*
X130118147Y-122804342D01*
X129377557Y-122062458D01*
X128409433Y-121660458D01*
X127361166Y-121659543D01*
X126392342Y-122059853D01*
X125650458Y-122800443D01*
X125248458Y-123768567D01*
X125247543Y-124816834D01*
X125647853Y-125785658D01*
X126388443Y-126527542D01*
X127356567Y-126929542D01*
X128404834Y-126930457D01*
X129373658Y-126530147D01*
X130115542Y-125789557D01*
X130517542Y-124821433D01*
X130518457Y-123773166D01*
X130518457Y-201273166D01*
X130118147Y-200304342D01*
X129377557Y-199562458D01*
X128409433Y-199160458D01*
X127361166Y-199159543D01*
X127218000Y-199218697D01*
X127218000Y-195136827D01*
X127218000Y-194453173D01*
X127218000Y-177636827D01*
X127218000Y-176953173D01*
X127218000Y-160136827D01*
X127218000Y-159453173D01*
X127218000Y-142636827D01*
X127218000Y-141953173D01*
X127078319Y-141250949D01*
X126680541Y-140655632D01*
X126085224Y-140257854D01*
X125383000Y-140118173D01*
X124680776Y-140257854D01*
X124085459Y-140655632D01*
X123687681Y-141250949D01*
X123631577Y-141533000D01*
X122218000Y-141533000D01*
X122218000Y-137636827D01*
X122218000Y-136953173D01*
X122078319Y-136250949D01*
X121680541Y-135655632D01*
X121145000Y-135297795D01*
X121145000Y-131795000D01*
X121145000Y-131305000D01*
X121086996Y-131013396D01*
X121086996Y-131013395D01*
X121020834Y-130914376D01*
X120921816Y-130766185D01*
X112461815Y-122306185D01*
X112214605Y-122141004D01*
X111923000Y-122083000D01*
X110043712Y-122083000D01*
X109892819Y-121857172D01*
X109439600Y-121554340D01*
X108904991Y-121448000D01*
X108161009Y-121448000D01*
X107626400Y-121554340D01*
X107173181Y-121857172D01*
X107022287Y-122083000D01*
X103543712Y-122083000D01*
X103392819Y-121857172D01*
X102939600Y-121554340D01*
X102404991Y-121448000D01*
X101713630Y-121448000D01*
X101021815Y-120756185D01*
X100774605Y-120591004D01*
X100483000Y-120533000D01*
X100253273Y-120533000D01*
X100203000Y-120523000D01*
X100152726Y-120533000D01*
X82883000Y-120533000D01*
X82591395Y-120591004D01*
X82344185Y-120756185D01*
X80370927Y-122729442D01*
X79809511Y-122841115D01*
X79323330Y-123165971D01*
X78998474Y-123652152D01*
X78884400Y-124225641D01*
X78884400Y-124284359D01*
X78998474Y-124857848D01*
X79310300Y-125324529D01*
X79277277Y-125330937D01*
X79064473Y-125470727D01*
X78922023Y-125681760D01*
X78871960Y-125931400D01*
X78871960Y-127568409D01*
X77180622Y-129259747D01*
X77180622Y-126975922D01*
X77180440Y-126972777D01*
X77180440Y-124945000D01*
X77180440Y-123645000D01*
X77133463Y-123402877D01*
X76993673Y-123190073D01*
X76782640Y-123047623D01*
X76533000Y-122997560D01*
X75233000Y-122997560D01*
X74990877Y-123044537D01*
X74778073Y-123184327D01*
X74635623Y-123395360D01*
X74608020Y-123533000D01*
X71778630Y-123533000D01*
X70551815Y-122306185D01*
X70304605Y-122141004D01*
X70013000Y-122083000D01*
X69403712Y-122083000D01*
X69252819Y-121857172D01*
X68799600Y-121554340D01*
X68264991Y-121448000D01*
X67521009Y-121448000D01*
X66986400Y-121554340D01*
X66533181Y-121857172D01*
X66382287Y-122083000D01*
X62903712Y-122083000D01*
X62752819Y-121857172D01*
X62299600Y-121554340D01*
X61764991Y-121448000D01*
X61021009Y-121448000D01*
X60486400Y-121554340D01*
X60033181Y-121857172D01*
X59730349Y-122310391D01*
X59624009Y-122845000D01*
X59730349Y-123379609D01*
X60033181Y-123832828D01*
X60486400Y-124135660D01*
X61021009Y-124242000D01*
X61764991Y-124242000D01*
X62299600Y-124135660D01*
X62752819Y-123832828D01*
X62903712Y-123607000D01*
X66382287Y-123607000D01*
X66533181Y-123832828D01*
X66986400Y-124135660D01*
X67521009Y-124242000D01*
X68264991Y-124242000D01*
X68799600Y-124135660D01*
X69252819Y-123832828D01*
X69403712Y-123607000D01*
X69697369Y-123607000D01*
X70924185Y-124833816D01*
X71072376Y-124932834D01*
X71171395Y-124998996D01*
X71171396Y-124998996D01*
X71463000Y-125057000D01*
X74607290Y-125057000D01*
X74632537Y-125187123D01*
X74772327Y-125399927D01*
X74983360Y-125542377D01*
X75233000Y-125592440D01*
X75395385Y-125592440D01*
X75219271Y-125665389D01*
X75163590Y-125895984D01*
X75883000Y-126615395D01*
X76602410Y-125895984D01*
X76546729Y-125665389D01*
X76337098Y-125592440D01*
X76533000Y-125592440D01*
X76775123Y-125545463D01*
X76987927Y-125405673D01*
X77130377Y-125194640D01*
X77180440Y-124945000D01*
X77180440Y-126972777D01*
X77151083Y-126465572D01*
X77012611Y-126131271D01*
X76782016Y-126075590D01*
X76062605Y-126795000D01*
X76782016Y-127514410D01*
X77012611Y-127458729D01*
X77180622Y-126975922D01*
X77180622Y-129259747D01*
X77027369Y-129413000D01*
X76602410Y-129413000D01*
X76602410Y-127694016D01*
X75883000Y-126974605D01*
X75703395Y-127154210D01*
X75703395Y-126795000D01*
X74983984Y-126075590D01*
X74753389Y-126131271D01*
X74585378Y-126614078D01*
X74614917Y-127124428D01*
X74753389Y-127458729D01*
X74983984Y-127514410D01*
X75703395Y-126795000D01*
X75703395Y-127154210D01*
X75163590Y-127694016D01*
X75219271Y-127924611D01*
X75702078Y-128092622D01*
X76212428Y-128063083D01*
X76546729Y-127924611D01*
X76602410Y-127694016D01*
X76602410Y-129413000D01*
X71038630Y-129413000D01*
X69535458Y-127909828D01*
X69555651Y-127879609D01*
X69661991Y-127345000D01*
X69555651Y-126810391D01*
X69252819Y-126357172D01*
X68799600Y-126054340D01*
X68264991Y-125948000D01*
X67521009Y-125948000D01*
X66986400Y-126054340D01*
X66533181Y-126357172D01*
X66382287Y-126583000D01*
X62903712Y-126583000D01*
X62752819Y-126357172D01*
X62299600Y-126054340D01*
X61764991Y-125948000D01*
X61021009Y-125948000D01*
X60486400Y-126054340D01*
X60033181Y-126357172D01*
X59730349Y-126810391D01*
X59624009Y-127345000D01*
X59730349Y-127879609D01*
X60033181Y-128332828D01*
X60486400Y-128635660D01*
X61021009Y-128742000D01*
X61764991Y-128742000D01*
X62299600Y-128635660D01*
X62752819Y-128332828D01*
X62903712Y-128107000D01*
X66382287Y-128107000D01*
X66533181Y-128332828D01*
X66986400Y-128635660D01*
X67521009Y-128742000D01*
X68212369Y-128742000D01*
X70184184Y-130713815D01*
X70184185Y-130713815D01*
X70431395Y-130878996D01*
X70723000Y-130937000D01*
X77343000Y-130937000D01*
X77343000Y-130936999D01*
X77634604Y-130878996D01*
X77634605Y-130878996D01*
X77881815Y-130713815D01*
X80289590Y-128306040D01*
X81246600Y-128306040D01*
X81488723Y-128259063D01*
X81701527Y-128119273D01*
X81843977Y-127908240D01*
X81852179Y-127867340D01*
X81863330Y-127884029D01*
X82349511Y-128208885D01*
X82923000Y-128322959D01*
X83496489Y-128208885D01*
X83982670Y-127884029D01*
X84193000Y-127569248D01*
X84403330Y-127884029D01*
X84889511Y-128208885D01*
X85463000Y-128322959D01*
X86036489Y-128208885D01*
X86522670Y-127884029D01*
X86733000Y-127569248D01*
X86943330Y-127884029D01*
X87429511Y-128208885D01*
X88003000Y-128322959D01*
X88576489Y-128208885D01*
X89062670Y-127884029D01*
X89273000Y-127569248D01*
X89483330Y-127884029D01*
X89969511Y-128208885D01*
X90543000Y-128322959D01*
X91116489Y-128208885D01*
X91602670Y-127884029D01*
X91821183Y-127557000D01*
X100306178Y-127557000D01*
X100370349Y-127879609D01*
X100673181Y-128332828D01*
X101126400Y-128635660D01*
X101661009Y-128742000D01*
X102404991Y-128742000D01*
X102939600Y-128635660D01*
X103392819Y-128332828D01*
X103695651Y-127879609D01*
X103801991Y-127345000D01*
X103695651Y-126810391D01*
X103392819Y-126357172D01*
X102939600Y-126054340D01*
X102404991Y-125948000D01*
X101661009Y-125948000D01*
X101233683Y-126033000D01*
X91821183Y-126033000D01*
X91602670Y-125705971D01*
X91331839Y-125525007D01*
X91749821Y-125143490D01*
X91997968Y-124614027D01*
X91997968Y-123895973D01*
X91749821Y-123366510D01*
X91317947Y-122972312D01*
X90902026Y-122800042D01*
X90670000Y-122921183D01*
X90670000Y-124128000D01*
X91877469Y-124128000D01*
X91997968Y-123895973D01*
X91997968Y-124614027D01*
X91877469Y-124382000D01*
X90670000Y-124382000D01*
X90670000Y-124402000D01*
X90416000Y-124402000D01*
X90416000Y-124382000D01*
X90396000Y-124382000D01*
X90396000Y-124128000D01*
X90416000Y-124128000D01*
X90416000Y-122921183D01*
X90183974Y-122800042D01*
X89768053Y-122972312D01*
X89336179Y-123366510D01*
X89278663Y-123489228D01*
X89062670Y-123165971D01*
X88576489Y-122841115D01*
X88003000Y-122727041D01*
X87429511Y-122841115D01*
X86943330Y-123165971D01*
X86733000Y-123480751D01*
X86522670Y-123165971D01*
X86036489Y-122841115D01*
X85463000Y-122727041D01*
X84889511Y-122841115D01*
X84403330Y-123165971D01*
X84193000Y-123480751D01*
X83982670Y-123165971D01*
X83496489Y-122841115D01*
X82923000Y-122727041D01*
X82430655Y-122824974D01*
X83198630Y-122057000D01*
X100167370Y-122057000D01*
X100390541Y-122280171D01*
X100370349Y-122310391D01*
X100264009Y-122845000D01*
X100370349Y-123379609D01*
X100673181Y-123832828D01*
X101126400Y-124135660D01*
X101661009Y-124242000D01*
X102404991Y-124242000D01*
X102939600Y-124135660D01*
X103392819Y-123832828D01*
X103543712Y-123607000D01*
X107022287Y-123607000D01*
X107173181Y-123832828D01*
X107626400Y-124135660D01*
X108161009Y-124242000D01*
X108904991Y-124242000D01*
X109439600Y-124135660D01*
X109892819Y-123832828D01*
X110043712Y-123607000D01*
X111607369Y-123607000D01*
X119621000Y-131620630D01*
X119621000Y-131795000D01*
X119621000Y-135297795D01*
X119085459Y-135655632D01*
X118687681Y-136250949D01*
X118548000Y-136953173D01*
X118548000Y-137636827D01*
X118687681Y-138339051D01*
X119085459Y-138934368D01*
X119680776Y-139332146D01*
X120383000Y-139471827D01*
X121085224Y-139332146D01*
X121680541Y-138934368D01*
X122078319Y-138339051D01*
X122218000Y-137636827D01*
X122218000Y-141533000D01*
X110301991Y-141533000D01*
X110301991Y-127345000D01*
X110195651Y-126810391D01*
X109892819Y-126357172D01*
X109439600Y-126054340D01*
X108904991Y-125948000D01*
X108161009Y-125948000D01*
X107626400Y-126054340D01*
X107173181Y-126357172D01*
X106870349Y-126810391D01*
X106764009Y-127345000D01*
X106870349Y-127879609D01*
X107173181Y-128332828D01*
X107626400Y-128635660D01*
X108161009Y-128742000D01*
X108904991Y-128742000D01*
X109439600Y-128635660D01*
X109892819Y-128332828D01*
X110195651Y-127879609D01*
X110301991Y-127345000D01*
X110301991Y-141533000D01*
X52218000Y-141533000D01*
X52218000Y-137722000D01*
X52218000Y-137422000D01*
X52218000Y-137168000D01*
X52218000Y-136868000D01*
X52029718Y-136175443D01*
X51590738Y-135607656D01*
X50967891Y-135251080D01*
X50794805Y-135206805D01*
X50510000Y-135323568D01*
X50510000Y-137168000D01*
X52218000Y-137168000D01*
X52218000Y-137422000D01*
X50510000Y-137422000D01*
X50510000Y-139266432D01*
X50794805Y-139383195D01*
X50967891Y-139338920D01*
X51590738Y-138982344D01*
X52029718Y-138414557D01*
X52218000Y-137722000D01*
X52218000Y-141533000D01*
X50256000Y-141533000D01*
X50256000Y-139266432D01*
X50256000Y-137422000D01*
X50256000Y-137168000D01*
X50256000Y-135323568D01*
X49971195Y-135206805D01*
X49798109Y-135251080D01*
X49175262Y-135607656D01*
X48736282Y-136175443D01*
X48548000Y-136868000D01*
X48548000Y-137168000D01*
X50256000Y-137168000D01*
X50256000Y-137422000D01*
X48548000Y-137422000D01*
X48548000Y-137722000D01*
X48736282Y-138414557D01*
X49175262Y-138982344D01*
X49798109Y-139338920D01*
X49971195Y-139383195D01*
X50256000Y-139266432D01*
X50256000Y-141533000D01*
X47134422Y-141533000D01*
X47078319Y-141250949D01*
X46680541Y-140655632D01*
X46085224Y-140257854D01*
X45518457Y-140145117D01*
X45518457Y-123773166D01*
X45118147Y-122804342D01*
X44377557Y-122062458D01*
X43409433Y-121660458D01*
X42361166Y-121659543D01*
X41392342Y-122059853D01*
X40650458Y-122800443D01*
X40248458Y-123768567D01*
X40247543Y-124816834D01*
X40647853Y-125785658D01*
X41388443Y-126527542D01*
X42356567Y-126929542D01*
X43404834Y-126930457D01*
X44373658Y-126530147D01*
X45115542Y-125789557D01*
X45517542Y-124821433D01*
X45518457Y-123773166D01*
X45518457Y-140145117D01*
X45383000Y-140118173D01*
X44680776Y-140257854D01*
X44085459Y-140655632D01*
X43687681Y-141250949D01*
X43548000Y-141953173D01*
X43548000Y-142636827D01*
X43687681Y-143339051D01*
X44085459Y-143934368D01*
X44680776Y-144332146D01*
X45383000Y-144471827D01*
X46085224Y-144332146D01*
X46680541Y-143934368D01*
X47078319Y-143339051D01*
X47134422Y-143057000D01*
X123631577Y-143057000D01*
X123687681Y-143339051D01*
X124085459Y-143934368D01*
X124680776Y-144332146D01*
X125383000Y-144471827D01*
X126085224Y-144332146D01*
X126680541Y-143934368D01*
X127078319Y-143339051D01*
X127218000Y-142636827D01*
X127218000Y-159453173D01*
X127078319Y-158750949D01*
X126680541Y-158155632D01*
X126085224Y-157757854D01*
X125383000Y-157618173D01*
X124680776Y-157757854D01*
X124085459Y-158155632D01*
X123687681Y-158750949D01*
X123631577Y-159033000D01*
X122218000Y-159033000D01*
X122218000Y-155136827D01*
X122218000Y-154453173D01*
X122078319Y-153750949D01*
X121680541Y-153155632D01*
X121085224Y-152757854D01*
X120383000Y-152618173D01*
X119680776Y-152757854D01*
X119085459Y-153155632D01*
X118687681Y-153750949D01*
X118548000Y-154453173D01*
X118548000Y-155136827D01*
X118687681Y-155839051D01*
X119085459Y-156434368D01*
X119680776Y-156832146D01*
X120383000Y-156971827D01*
X121085224Y-156832146D01*
X121680541Y-156434368D01*
X122078319Y-155839051D01*
X122218000Y-155136827D01*
X122218000Y-159033000D01*
X52218000Y-159033000D01*
X52218000Y-155222000D01*
X52218000Y-154922000D01*
X52218000Y-154668000D01*
X52218000Y-154368000D01*
X52029718Y-153675443D01*
X51590738Y-153107656D01*
X50967891Y-152751080D01*
X50794805Y-152706805D01*
X50510000Y-152823568D01*
X50510000Y-154668000D01*
X52218000Y-154668000D01*
X52218000Y-154922000D01*
X50510000Y-154922000D01*
X50510000Y-156766432D01*
X50794805Y-156883195D01*
X50967891Y-156838920D01*
X51590738Y-156482344D01*
X52029718Y-155914557D01*
X52218000Y-155222000D01*
X52218000Y-159033000D01*
X50256000Y-159033000D01*
X50256000Y-156766432D01*
X50256000Y-154922000D01*
X50256000Y-154668000D01*
X50256000Y-152823568D01*
X49971195Y-152706805D01*
X49798109Y-152751080D01*
X49175262Y-153107656D01*
X48736282Y-153675443D01*
X48548000Y-154368000D01*
X48548000Y-154668000D01*
X50256000Y-154668000D01*
X50256000Y-154922000D01*
X48548000Y-154922000D01*
X48548000Y-155222000D01*
X48736282Y-155914557D01*
X49175262Y-156482344D01*
X49798109Y-156838920D01*
X49971195Y-156883195D01*
X50256000Y-156766432D01*
X50256000Y-159033000D01*
X47134422Y-159033000D01*
X47078319Y-158750949D01*
X46680541Y-158155632D01*
X46085224Y-157757854D01*
X45383000Y-157618173D01*
X44680776Y-157757854D01*
X44085459Y-158155632D01*
X43687681Y-158750949D01*
X43548000Y-159453173D01*
X43548000Y-160136827D01*
X43687681Y-160839051D01*
X44085459Y-161434368D01*
X44680776Y-161832146D01*
X45383000Y-161971827D01*
X46085224Y-161832146D01*
X46680541Y-161434368D01*
X47078319Y-160839051D01*
X47134422Y-160557000D01*
X123631577Y-160557000D01*
X123687681Y-160839051D01*
X124085459Y-161434368D01*
X124680776Y-161832146D01*
X125383000Y-161971827D01*
X126085224Y-161832146D01*
X126680541Y-161434368D01*
X127078319Y-160839051D01*
X127218000Y-160136827D01*
X127218000Y-176953173D01*
X127078319Y-176250949D01*
X126680541Y-175655632D01*
X126085224Y-175257854D01*
X125383000Y-175118173D01*
X124680776Y-175257854D01*
X124085459Y-175655632D01*
X123687681Y-176250949D01*
X123631577Y-176533000D01*
X122218000Y-176533000D01*
X122218000Y-172636827D01*
X122218000Y-171953173D01*
X122078319Y-171250949D01*
X121680541Y-170655632D01*
X121085224Y-170257854D01*
X120383000Y-170118173D01*
X119680776Y-170257854D01*
X119085459Y-170655632D01*
X118687681Y-171250949D01*
X118548000Y-171953173D01*
X118548000Y-172636827D01*
X118687681Y-173339051D01*
X119085459Y-173934368D01*
X119680776Y-174332146D01*
X120383000Y-174471827D01*
X121085224Y-174332146D01*
X121680541Y-173934368D01*
X122078319Y-173339051D01*
X122218000Y-172636827D01*
X122218000Y-176533000D01*
X52218000Y-176533000D01*
X52218000Y-172722000D01*
X52218000Y-172422000D01*
X52218000Y-172168000D01*
X52218000Y-171868000D01*
X52029718Y-171175443D01*
X51590738Y-170607656D01*
X50967891Y-170251080D01*
X50794805Y-170206805D01*
X50510000Y-170323568D01*
X50510000Y-172168000D01*
X52218000Y-172168000D01*
X52218000Y-172422000D01*
X50510000Y-172422000D01*
X50510000Y-174266432D01*
X50794805Y-174383195D01*
X50967891Y-174338920D01*
X51590738Y-173982344D01*
X52029718Y-173414557D01*
X52218000Y-172722000D01*
X52218000Y-176533000D01*
X50256000Y-176533000D01*
X50256000Y-174266432D01*
X50256000Y-172422000D01*
X50256000Y-172168000D01*
X50256000Y-170323568D01*
X49971195Y-170206805D01*
X49798109Y-170251080D01*
X49175262Y-170607656D01*
X48736282Y-171175443D01*
X48548000Y-171868000D01*
X48548000Y-172168000D01*
X50256000Y-172168000D01*
X50256000Y-172422000D01*
X48548000Y-172422000D01*
X48548000Y-172722000D01*
X48736282Y-173414557D01*
X49175262Y-173982344D01*
X49798109Y-174338920D01*
X49971195Y-174383195D01*
X50256000Y-174266432D01*
X50256000Y-176533000D01*
X47134422Y-176533000D01*
X47078319Y-176250949D01*
X46680541Y-175655632D01*
X46085224Y-175257854D01*
X45383000Y-175118173D01*
X44680776Y-175257854D01*
X44085459Y-175655632D01*
X43687681Y-176250949D01*
X43548000Y-176953173D01*
X43548000Y-177636827D01*
X43687681Y-178339051D01*
X44085459Y-178934368D01*
X44680776Y-179332146D01*
X45383000Y-179471827D01*
X46085224Y-179332146D01*
X46680541Y-178934368D01*
X47078319Y-178339051D01*
X47134422Y-178057000D01*
X123631577Y-178057000D01*
X123687681Y-178339051D01*
X124085459Y-178934368D01*
X124680776Y-179332146D01*
X125383000Y-179471827D01*
X126085224Y-179332146D01*
X126680541Y-178934368D01*
X127078319Y-178339051D01*
X127218000Y-177636827D01*
X127218000Y-194453173D01*
X127078319Y-193750949D01*
X126680541Y-193155632D01*
X126085224Y-192757854D01*
X125383000Y-192618173D01*
X124680776Y-192757854D01*
X124085459Y-193155632D01*
X123687681Y-193750949D01*
X123631577Y-194033000D01*
X122218000Y-194033000D01*
X122218000Y-190136827D01*
X122218000Y-189453173D01*
X122078319Y-188750949D01*
X121680541Y-188155632D01*
X121085224Y-187757854D01*
X120383000Y-187618173D01*
X119680776Y-187757854D01*
X119085459Y-188155632D01*
X118687681Y-188750949D01*
X118548000Y-189453173D01*
X118548000Y-190136827D01*
X118687681Y-190839051D01*
X119085459Y-191434368D01*
X119680776Y-191832146D01*
X120383000Y-191971827D01*
X121085224Y-191832146D01*
X121680541Y-191434368D01*
X122078319Y-190839051D01*
X122218000Y-190136827D01*
X122218000Y-194033000D01*
X52218000Y-194033000D01*
X52218000Y-190222000D01*
X52218000Y-189922000D01*
X52218000Y-189668000D01*
X52218000Y-189368000D01*
X52029718Y-188675443D01*
X51590738Y-188107656D01*
X50967891Y-187751080D01*
X50794805Y-187706805D01*
X50510000Y-187823568D01*
X50510000Y-189668000D01*
X52218000Y-189668000D01*
X52218000Y-189922000D01*
X50510000Y-189922000D01*
X50510000Y-191766432D01*
X50794805Y-191883195D01*
X50967891Y-191838920D01*
X51590738Y-191482344D01*
X52029718Y-190914557D01*
X52218000Y-190222000D01*
X52218000Y-194033000D01*
X50256000Y-194033000D01*
X50256000Y-191766432D01*
X50256000Y-189922000D01*
X50256000Y-189668000D01*
X50256000Y-187823568D01*
X49971195Y-187706805D01*
X49798109Y-187751080D01*
X49175262Y-188107656D01*
X48736282Y-188675443D01*
X48548000Y-189368000D01*
X48548000Y-189668000D01*
X50256000Y-189668000D01*
X50256000Y-189922000D01*
X48548000Y-189922000D01*
X48548000Y-190222000D01*
X48736282Y-190914557D01*
X49175262Y-191482344D01*
X49798109Y-191838920D01*
X49971195Y-191883195D01*
X50256000Y-191766432D01*
X50256000Y-194033000D01*
X47134422Y-194033000D01*
X47078319Y-193750949D01*
X46680541Y-193155632D01*
X46085224Y-192757854D01*
X45383000Y-192618173D01*
X44680776Y-192757854D01*
X44085459Y-193155632D01*
X43687681Y-193750949D01*
X43548000Y-194453173D01*
X43548000Y-195136827D01*
X43687681Y-195839051D01*
X44085459Y-196434368D01*
X44680776Y-196832146D01*
X45383000Y-196971827D01*
X46085224Y-196832146D01*
X46680541Y-196434368D01*
X47078319Y-195839051D01*
X47134422Y-195557000D01*
X123631577Y-195557000D01*
X123687681Y-195839051D01*
X124085459Y-196434368D01*
X124680776Y-196832146D01*
X125383000Y-196971827D01*
X126085224Y-196832146D01*
X126680541Y-196434368D01*
X127078319Y-195839051D01*
X127218000Y-195136827D01*
X127218000Y-199218697D01*
X126392342Y-199559853D01*
X125650458Y-200300443D01*
X125248458Y-201268567D01*
X125247543Y-202316834D01*
X125647853Y-203285658D01*
X126388443Y-204027542D01*
X127356567Y-204429542D01*
X128404834Y-204430457D01*
X129373658Y-204030147D01*
X130115542Y-203289557D01*
X130517542Y-202321433D01*
X130518457Y-201273166D01*
X130518457Y-206069635D01*
X130315532Y-206110000D01*
X45518457Y-206110000D01*
X45518457Y-201273166D01*
X45118147Y-200304342D01*
X44377557Y-199562458D01*
X43409433Y-199160458D01*
X42361166Y-199159543D01*
X41392342Y-199559853D01*
X40650458Y-200300443D01*
X40248458Y-201268567D01*
X40247543Y-202316834D01*
X40647853Y-203285658D01*
X41388443Y-204027542D01*
X42356567Y-204429542D01*
X43404834Y-204430457D01*
X44373658Y-204030147D01*
X45115542Y-203289557D01*
X45517542Y-202321433D01*
X45518457Y-201273166D01*
X45518457Y-206110000D01*
X40450467Y-206110000D01*
X39693564Y-205959442D01*
X39109089Y-205568908D01*
X38718556Y-204984434D01*
X38568000Y-204227532D01*
X38568000Y-201795000D01*
X38568000Y-199295000D01*
X38568000Y-121862467D01*
X38718556Y-121105565D01*
X39109089Y-120521091D01*
X39693564Y-120130557D01*
X40450467Y-119980000D01*
X130315532Y-119980000D01*
X131072434Y-120130556D01*
X131656908Y-120521089D01*
X132047442Y-121105564D01*
X132198000Y-121862467D01*
X132198000Y-199295000D01*
X132198000Y-201795000D01*
X132198000Y-204227532D01*
X132198000Y-204227532D01*
G37*
X132198000Y-204227532D02*
X132047442Y-204984435D01*
X131656908Y-205568910D01*
X131072434Y-205959443D01*
X130518457Y-206069635D01*
X130518457Y-201273166D01*
X130518457Y-123773166D01*
X130118147Y-122804342D01*
X129377557Y-122062458D01*
X128409433Y-121660458D01*
X127361166Y-121659543D01*
X126392342Y-122059853D01*
X125650458Y-122800443D01*
X125248458Y-123768567D01*
X125247543Y-124816834D01*
X125647853Y-125785658D01*
X126388443Y-126527542D01*
X127356567Y-126929542D01*
X128404834Y-126930457D01*
X129373658Y-126530147D01*
X130115542Y-125789557D01*
X130517542Y-124821433D01*
X130518457Y-123773166D01*
X130518457Y-201273166D01*
X130118147Y-200304342D01*
X129377557Y-199562458D01*
X128409433Y-199160458D01*
X127361166Y-199159543D01*
X127218000Y-199218697D01*
X127218000Y-195136827D01*
X127218000Y-194453173D01*
X127218000Y-177636827D01*
X127218000Y-176953173D01*
X127218000Y-160136827D01*
X127218000Y-159453173D01*
X127218000Y-142636827D01*
X127218000Y-141953173D01*
X127078319Y-141250949D01*
X126680541Y-140655632D01*
X126085224Y-140257854D01*
X125383000Y-140118173D01*
X124680776Y-140257854D01*
X124085459Y-140655632D01*
X123687681Y-141250949D01*
X123631577Y-141533000D01*
X122218000Y-141533000D01*
X122218000Y-137636827D01*
X122218000Y-136953173D01*
X122078319Y-136250949D01*
X121680541Y-135655632D01*
X121145000Y-135297795D01*
X121145000Y-131795000D01*
X121145000Y-131305000D01*
X121086996Y-131013396D01*
X121086996Y-131013395D01*
X121020834Y-130914376D01*
X120921816Y-130766185D01*
X112461815Y-122306185D01*
X112214605Y-122141004D01*
X111923000Y-122083000D01*
X110043712Y-122083000D01*
X109892819Y-121857172D01*
X109439600Y-121554340D01*
X108904991Y-121448000D01*
X108161009Y-121448000D01*
X107626400Y-121554340D01*
X107173181Y-121857172D01*
X107022287Y-122083000D01*
X103543712Y-122083000D01*
X103392819Y-121857172D01*
X102939600Y-121554340D01*
X102404991Y-121448000D01*
X101713630Y-121448000D01*
X101021815Y-120756185D01*
X100774605Y-120591004D01*
X100483000Y-120533000D01*
X100253273Y-120533000D01*
X100203000Y-120523000D01*
X100152726Y-120533000D01*
X82883000Y-120533000D01*
X82591395Y-120591004D01*
X82344185Y-120756185D01*
X80370927Y-122729442D01*
X79809511Y-122841115D01*
X79323330Y-123165971D01*
X78998474Y-123652152D01*
X78884400Y-124225641D01*
X78884400Y-124284359D01*
X78998474Y-124857848D01*
X79310300Y-125324529D01*
X79277277Y-125330937D01*
X79064473Y-125470727D01*
X78922023Y-125681760D01*
X78871960Y-125931400D01*
X78871960Y-127568409D01*
X77180622Y-129259747D01*
X77180622Y-126975922D01*
X77180440Y-126972777D01*
X77180440Y-124945000D01*
X77180440Y-123645000D01*
X77133463Y-123402877D01*
X76993673Y-123190073D01*
X76782640Y-123047623D01*
X76533000Y-122997560D01*
X75233000Y-122997560D01*
X74990877Y-123044537D01*
X74778073Y-123184327D01*
X74635623Y-123395360D01*
X74608020Y-123533000D01*
X71778630Y-123533000D01*
X70551815Y-122306185D01*
X70304605Y-122141004D01*
X70013000Y-122083000D01*
X69403712Y-122083000D01*
X69252819Y-121857172D01*
X68799600Y-121554340D01*
X68264991Y-121448000D01*
X67521009Y-121448000D01*
X66986400Y-121554340D01*
X66533181Y-121857172D01*
X66382287Y-122083000D01*
X62903712Y-122083000D01*
X62752819Y-121857172D01*
X62299600Y-121554340D01*
X61764991Y-121448000D01*
X61021009Y-121448000D01*
X60486400Y-121554340D01*
X60033181Y-121857172D01*
X59730349Y-122310391D01*
X59624009Y-122845000D01*
X59730349Y-123379609D01*
X60033181Y-123832828D01*
X60486400Y-124135660D01*
X61021009Y-124242000D01*
X61764991Y-124242000D01*
X62299600Y-124135660D01*
X62752819Y-123832828D01*
X62903712Y-123607000D01*
X66382287Y-123607000D01*
X66533181Y-123832828D01*
X66986400Y-124135660D01*
X67521009Y-124242000D01*
X68264991Y-124242000D01*
X68799600Y-124135660D01*
X69252819Y-123832828D01*
X69403712Y-123607000D01*
X69697369Y-123607000D01*
X70924185Y-124833816D01*
X71072376Y-124932834D01*
X71171395Y-124998996D01*
X71171396Y-124998996D01*
X71463000Y-125057000D01*
X74607290Y-125057000D01*
X74632537Y-125187123D01*
X74772327Y-125399927D01*
X74983360Y-125542377D01*
X75233000Y-125592440D01*
X75395385Y-125592440D01*
X75219271Y-125665389D01*
X75163590Y-125895984D01*
X75883000Y-126615395D01*
X76602410Y-125895984D01*
X76546729Y-125665389D01*
X76337098Y-125592440D01*
X76533000Y-125592440D01*
X76775123Y-125545463D01*
X76987927Y-125405673D01*
X77130377Y-125194640D01*
X77180440Y-124945000D01*
X77180440Y-126972777D01*
X77151083Y-126465572D01*
X77012611Y-126131271D01*
X76782016Y-126075590D01*
X76062605Y-126795000D01*
X76782016Y-127514410D01*
X77012611Y-127458729D01*
X77180622Y-126975922D01*
X77180622Y-129259747D01*
X77027369Y-129413000D01*
X76602410Y-129413000D01*
X76602410Y-127694016D01*
X75883000Y-126974605D01*
X75703395Y-127154210D01*
X75703395Y-126795000D01*
X74983984Y-126075590D01*
X74753389Y-126131271D01*
X74585378Y-126614078D01*
X74614917Y-127124428D01*
X74753389Y-127458729D01*
X74983984Y-127514410D01*
X75703395Y-126795000D01*
X75703395Y-127154210D01*
X75163590Y-127694016D01*
X75219271Y-127924611D01*
X75702078Y-128092622D01*
X76212428Y-128063083D01*
X76546729Y-127924611D01*
X76602410Y-127694016D01*
X76602410Y-129413000D01*
X71038630Y-129413000D01*
X69535458Y-127909828D01*
X69555651Y-127879609D01*
X69661991Y-127345000D01*
X69555651Y-126810391D01*
X69252819Y-126357172D01*
X68799600Y-126054340D01*
X68264991Y-125948000D01*
X67521009Y-125948000D01*
X66986400Y-126054340D01*
X66533181Y-126357172D01*
X66382287Y-126583000D01*
X62903712Y-126583000D01*
X62752819Y-126357172D01*
X62299600Y-126054340D01*
X61764991Y-125948000D01*
X61021009Y-125948000D01*
X60486400Y-126054340D01*
X60033181Y-126357172D01*
X59730349Y-126810391D01*
X59624009Y-127345000D01*
X59730349Y-127879609D01*
X60033181Y-128332828D01*
X60486400Y-128635660D01*
X61021009Y-128742000D01*
X61764991Y-128742000D01*
X62299600Y-128635660D01*
X62752819Y-128332828D01*
X62903712Y-128107000D01*
X66382287Y-128107000D01*
X66533181Y-128332828D01*
X66986400Y-128635660D01*
X67521009Y-128742000D01*
X68212369Y-128742000D01*
X70184184Y-130713815D01*
X70184185Y-130713815D01*
X70431395Y-130878996D01*
X70723000Y-130937000D01*
X77343000Y-130937000D01*
X77343000Y-130936999D01*
X77634604Y-130878996D01*
X77634605Y-130878996D01*
X77881815Y-130713815D01*
X80289590Y-128306040D01*
X81246600Y-128306040D01*
X81488723Y-128259063D01*
X81701527Y-128119273D01*
X81843977Y-127908240D01*
X81852179Y-127867340D01*
X81863330Y-127884029D01*
X82349511Y-128208885D01*
X82923000Y-128322959D01*
X83496489Y-128208885D01*
X83982670Y-127884029D01*
X84193000Y-127569248D01*
X84403330Y-127884029D01*
X84889511Y-128208885D01*
X85463000Y-128322959D01*
X86036489Y-128208885D01*
X86522670Y-127884029D01*
X86733000Y-127569248D01*
X86943330Y-127884029D01*
X87429511Y-128208885D01*
X88003000Y-128322959D01*
X88576489Y-128208885D01*
X89062670Y-127884029D01*
X89273000Y-127569248D01*
X89483330Y-127884029D01*
X89969511Y-128208885D01*
X90543000Y-128322959D01*
X91116489Y-128208885D01*
X91602670Y-127884029D01*
X91821183Y-127557000D01*
X100306178Y-127557000D01*
X100370349Y-127879609D01*
X100673181Y-128332828D01*
X101126400Y-128635660D01*
X101661009Y-128742000D01*
X102404991Y-128742000D01*
X102939600Y-128635660D01*
X103392819Y-128332828D01*
X103695651Y-127879609D01*
X103801991Y-127345000D01*
X103695651Y-126810391D01*
X103392819Y-126357172D01*
X102939600Y-126054340D01*
X102404991Y-125948000D01*
X101661009Y-125948000D01*
X101233683Y-126033000D01*
X91821183Y-126033000D01*
X91602670Y-125705971D01*
X91331839Y-125525007D01*
X91749821Y-125143490D01*
X91997968Y-124614027D01*
X91997968Y-123895973D01*
X91749821Y-123366510D01*
X91317947Y-122972312D01*
X90902026Y-122800042D01*
X90670000Y-122921183D01*
X90670000Y-124128000D01*
X91877469Y-124128000D01*
X91997968Y-123895973D01*
X91997968Y-124614027D01*
X91877469Y-124382000D01*
X90670000Y-124382000D01*
X90670000Y-124402000D01*
X90416000Y-124402000D01*
X90416000Y-124382000D01*
X90396000Y-124382000D01*
X90396000Y-124128000D01*
X90416000Y-124128000D01*
X90416000Y-122921183D01*
X90183974Y-122800042D01*
X89768053Y-122972312D01*
X89336179Y-123366510D01*
X89278663Y-123489228D01*
X89062670Y-123165971D01*
X88576489Y-122841115D01*
X88003000Y-122727041D01*
X87429511Y-122841115D01*
X86943330Y-123165971D01*
X86733000Y-123480751D01*
X86522670Y-123165971D01*
X86036489Y-122841115D01*
X85463000Y-122727041D01*
X84889511Y-122841115D01*
X84403330Y-123165971D01*
X84193000Y-123480751D01*
X83982670Y-123165971D01*
X83496489Y-122841115D01*
X82923000Y-122727041D01*
X82430655Y-122824974D01*
X83198630Y-122057000D01*
X100167370Y-122057000D01*
X100390541Y-122280171D01*
X100370349Y-122310391D01*
X100264009Y-122845000D01*
X100370349Y-123379609D01*
X100673181Y-123832828D01*
X101126400Y-124135660D01*
X101661009Y-124242000D01*
X102404991Y-124242000D01*
X102939600Y-124135660D01*
X103392819Y-123832828D01*
X103543712Y-123607000D01*
X107022287Y-123607000D01*
X107173181Y-123832828D01*
X107626400Y-124135660D01*
X108161009Y-124242000D01*
X108904991Y-124242000D01*
X109439600Y-124135660D01*
X109892819Y-123832828D01*
X110043712Y-123607000D01*
X111607369Y-123607000D01*
X119621000Y-131620630D01*
X119621000Y-131795000D01*
X119621000Y-135297795D01*
X119085459Y-135655632D01*
X118687681Y-136250949D01*
X118548000Y-136953173D01*
X118548000Y-137636827D01*
X118687681Y-138339051D01*
X119085459Y-138934368D01*
X119680776Y-139332146D01*
X120383000Y-139471827D01*
X121085224Y-139332146D01*
X121680541Y-138934368D01*
X122078319Y-138339051D01*
X122218000Y-137636827D01*
X122218000Y-141533000D01*
X110301991Y-141533000D01*
X110301991Y-127345000D01*
X110195651Y-126810391D01*
X109892819Y-126357172D01*
X109439600Y-126054340D01*
X108904991Y-125948000D01*
X108161009Y-125948000D01*
X107626400Y-126054340D01*
X107173181Y-126357172D01*
X106870349Y-126810391D01*
X106764009Y-127345000D01*
X106870349Y-127879609D01*
X107173181Y-128332828D01*
X107626400Y-128635660D01*
X108161009Y-128742000D01*
X108904991Y-128742000D01*
X109439600Y-128635660D01*
X109892819Y-128332828D01*
X110195651Y-127879609D01*
X110301991Y-127345000D01*
X110301991Y-141533000D01*
X52218000Y-141533000D01*
X52218000Y-137722000D01*
X52218000Y-137422000D01*
X52218000Y-137168000D01*
X52218000Y-136868000D01*
X52029718Y-136175443D01*
X51590738Y-135607656D01*
X50967891Y-135251080D01*
X50794805Y-135206805D01*
X50510000Y-135323568D01*
X50510000Y-137168000D01*
X52218000Y-137168000D01*
X52218000Y-137422000D01*
X50510000Y-137422000D01*
X50510000Y-139266432D01*
X50794805Y-139383195D01*
X50967891Y-139338920D01*
X51590738Y-138982344D01*
X52029718Y-138414557D01*
X52218000Y-137722000D01*
X52218000Y-141533000D01*
X50256000Y-141533000D01*
X50256000Y-139266432D01*
X50256000Y-137422000D01*
X50256000Y-137168000D01*
X50256000Y-135323568D01*
X49971195Y-135206805D01*
X49798109Y-135251080D01*
X49175262Y-135607656D01*
X48736282Y-136175443D01*
X48548000Y-136868000D01*
X48548000Y-137168000D01*
X50256000Y-137168000D01*
X50256000Y-137422000D01*
X48548000Y-137422000D01*
X48548000Y-137722000D01*
X48736282Y-138414557D01*
X49175262Y-138982344D01*
X49798109Y-139338920D01*
X49971195Y-139383195D01*
X50256000Y-139266432D01*
X50256000Y-141533000D01*
X47134422Y-141533000D01*
X47078319Y-141250949D01*
X46680541Y-140655632D01*
X46085224Y-140257854D01*
X45518457Y-140145117D01*
X45518457Y-123773166D01*
X45118147Y-122804342D01*
X44377557Y-122062458D01*
X43409433Y-121660458D01*
X42361166Y-121659543D01*
X41392342Y-122059853D01*
X40650458Y-122800443D01*
X40248458Y-123768567D01*
X40247543Y-124816834D01*
X40647853Y-125785658D01*
X41388443Y-126527542D01*
X42356567Y-126929542D01*
X43404834Y-126930457D01*
X44373658Y-126530147D01*
X45115542Y-125789557D01*
X45517542Y-124821433D01*
X45518457Y-123773166D01*
X45518457Y-140145117D01*
X45383000Y-140118173D01*
X44680776Y-140257854D01*
X44085459Y-140655632D01*
X43687681Y-141250949D01*
X43548000Y-141953173D01*
X43548000Y-142636827D01*
X43687681Y-143339051D01*
X44085459Y-143934368D01*
X44680776Y-144332146D01*
X45383000Y-144471827D01*
X46085224Y-144332146D01*
X46680541Y-143934368D01*
X47078319Y-143339051D01*
X47134422Y-143057000D01*
X123631577Y-143057000D01*
X123687681Y-143339051D01*
X124085459Y-143934368D01*
X124680776Y-144332146D01*
X125383000Y-144471827D01*
X126085224Y-144332146D01*
X126680541Y-143934368D01*
X127078319Y-143339051D01*
X127218000Y-142636827D01*
X127218000Y-159453173D01*
X127078319Y-158750949D01*
X126680541Y-158155632D01*
X126085224Y-157757854D01*
X125383000Y-157618173D01*
X124680776Y-157757854D01*
X124085459Y-158155632D01*
X123687681Y-158750949D01*
X123631577Y-159033000D01*
X122218000Y-159033000D01*
X122218000Y-155136827D01*
X122218000Y-154453173D01*
X122078319Y-153750949D01*
X121680541Y-153155632D01*
X121085224Y-152757854D01*
X120383000Y-152618173D01*
X119680776Y-152757854D01*
X119085459Y-153155632D01*
X118687681Y-153750949D01*
X118548000Y-154453173D01*
X118548000Y-155136827D01*
X118687681Y-155839051D01*
X119085459Y-156434368D01*
X119680776Y-156832146D01*
X120383000Y-156971827D01*
X121085224Y-156832146D01*
X121680541Y-156434368D01*
X122078319Y-155839051D01*
X122218000Y-155136827D01*
X122218000Y-159033000D01*
X52218000Y-159033000D01*
X52218000Y-155222000D01*
X52218000Y-154922000D01*
X52218000Y-154668000D01*
X52218000Y-154368000D01*
X52029718Y-153675443D01*
X51590738Y-153107656D01*
X50967891Y-152751080D01*
X50794805Y-152706805D01*
X50510000Y-152823568D01*
X50510000Y-154668000D01*
X52218000Y-154668000D01*
X52218000Y-154922000D01*
X50510000Y-154922000D01*
X50510000Y-156766432D01*
X50794805Y-156883195D01*
X50967891Y-156838920D01*
X51590738Y-156482344D01*
X52029718Y-155914557D01*
X52218000Y-155222000D01*
X52218000Y-159033000D01*
X50256000Y-159033000D01*
X50256000Y-156766432D01*
X50256000Y-154922000D01*
X50256000Y-154668000D01*
X50256000Y-152823568D01*
X49971195Y-152706805D01*
X49798109Y-152751080D01*
X49175262Y-153107656D01*
X48736282Y-153675443D01*
X48548000Y-154368000D01*
X48548000Y-154668000D01*
X50256000Y-154668000D01*
X50256000Y-154922000D01*
X48548000Y-154922000D01*
X48548000Y-155222000D01*
X48736282Y-155914557D01*
X49175262Y-156482344D01*
X49798109Y-156838920D01*
X49971195Y-156883195D01*
X50256000Y-156766432D01*
X50256000Y-159033000D01*
X47134422Y-159033000D01*
X47078319Y-158750949D01*
X46680541Y-158155632D01*
X46085224Y-157757854D01*
X45383000Y-157618173D01*
X44680776Y-157757854D01*
X44085459Y-158155632D01*
X43687681Y-158750949D01*
X43548000Y-159453173D01*
X43548000Y-160136827D01*
X43687681Y-160839051D01*
X44085459Y-161434368D01*
X44680776Y-161832146D01*
X45383000Y-161971827D01*
X46085224Y-161832146D01*
X46680541Y-161434368D01*
X47078319Y-160839051D01*
X47134422Y-160557000D01*
X123631577Y-160557000D01*
X123687681Y-160839051D01*
X124085459Y-161434368D01*
X124680776Y-161832146D01*
X125383000Y-161971827D01*
X126085224Y-161832146D01*
X126680541Y-161434368D01*
X127078319Y-160839051D01*
X127218000Y-160136827D01*
X127218000Y-176953173D01*
X127078319Y-176250949D01*
X126680541Y-175655632D01*
X126085224Y-175257854D01*
X125383000Y-175118173D01*
X124680776Y-175257854D01*
X124085459Y-175655632D01*
X123687681Y-176250949D01*
X123631577Y-176533000D01*
X122218000Y-176533000D01*
X122218000Y-172636827D01*
X122218000Y-171953173D01*
X122078319Y-171250949D01*
X121680541Y-170655632D01*
X121085224Y-170257854D01*
X120383000Y-170118173D01*
X119680776Y-170257854D01*
X119085459Y-170655632D01*
X118687681Y-171250949D01*
X118548000Y-171953173D01*
X118548000Y-172636827D01*
X118687681Y-173339051D01*
X119085459Y-173934368D01*
X119680776Y-174332146D01*
X120383000Y-174471827D01*
X121085224Y-174332146D01*
X121680541Y-173934368D01*
X122078319Y-173339051D01*
X122218000Y-172636827D01*
X122218000Y-176533000D01*
X52218000Y-176533000D01*
X52218000Y-172722000D01*
X52218000Y-172422000D01*
X52218000Y-172168000D01*
X52218000Y-171868000D01*
X52029718Y-171175443D01*
X51590738Y-170607656D01*
X50967891Y-170251080D01*
X50794805Y-170206805D01*
X50510000Y-170323568D01*
X50510000Y-172168000D01*
X52218000Y-172168000D01*
X52218000Y-172422000D01*
X50510000Y-172422000D01*
X50510000Y-174266432D01*
X50794805Y-174383195D01*
X50967891Y-174338920D01*
X51590738Y-173982344D01*
X52029718Y-173414557D01*
X52218000Y-172722000D01*
X52218000Y-176533000D01*
X50256000Y-176533000D01*
X50256000Y-174266432D01*
X50256000Y-172422000D01*
X50256000Y-172168000D01*
X50256000Y-170323568D01*
X49971195Y-170206805D01*
X49798109Y-170251080D01*
X49175262Y-170607656D01*
X48736282Y-171175443D01*
X48548000Y-171868000D01*
X48548000Y-172168000D01*
X50256000Y-172168000D01*
X50256000Y-172422000D01*
X48548000Y-172422000D01*
X48548000Y-172722000D01*
X48736282Y-173414557D01*
X49175262Y-173982344D01*
X49798109Y-174338920D01*
X49971195Y-174383195D01*
X50256000Y-174266432D01*
X50256000Y-176533000D01*
X47134422Y-176533000D01*
X47078319Y-176250949D01*
X46680541Y-175655632D01*
X46085224Y-175257854D01*
X45383000Y-175118173D01*
X44680776Y-175257854D01*
X44085459Y-175655632D01*
X43687681Y-176250949D01*
X43548000Y-176953173D01*
X43548000Y-177636827D01*
X43687681Y-178339051D01*
X44085459Y-178934368D01*
X44680776Y-179332146D01*
X45383000Y-179471827D01*
X46085224Y-179332146D01*
X46680541Y-178934368D01*
X47078319Y-178339051D01*
X47134422Y-178057000D01*
X123631577Y-178057000D01*
X123687681Y-178339051D01*
X124085459Y-178934368D01*
X124680776Y-179332146D01*
X125383000Y-179471827D01*
X126085224Y-179332146D01*
X126680541Y-178934368D01*
X127078319Y-178339051D01*
X127218000Y-177636827D01*
X127218000Y-194453173D01*
X127078319Y-193750949D01*
X126680541Y-193155632D01*
X126085224Y-192757854D01*
X125383000Y-192618173D01*
X124680776Y-192757854D01*
X124085459Y-193155632D01*
X123687681Y-193750949D01*
X123631577Y-194033000D01*
X122218000Y-194033000D01*
X122218000Y-190136827D01*
X122218000Y-189453173D01*
X122078319Y-188750949D01*
X121680541Y-188155632D01*
X121085224Y-187757854D01*
X120383000Y-187618173D01*
X119680776Y-187757854D01*
X119085459Y-188155632D01*
X118687681Y-188750949D01*
X118548000Y-189453173D01*
X118548000Y-190136827D01*
X118687681Y-190839051D01*
X119085459Y-191434368D01*
X119680776Y-191832146D01*
X120383000Y-191971827D01*
X121085224Y-191832146D01*
X121680541Y-191434368D01*
X122078319Y-190839051D01*
X122218000Y-190136827D01*
X122218000Y-194033000D01*
X52218000Y-194033000D01*
X52218000Y-190222000D01*
X52218000Y-189922000D01*
X52218000Y-189668000D01*
X52218000Y-189368000D01*
X52029718Y-188675443D01*
X51590738Y-188107656D01*
X50967891Y-187751080D01*
X50794805Y-187706805D01*
X50510000Y-187823568D01*
X50510000Y-189668000D01*
X52218000Y-189668000D01*
X52218000Y-189922000D01*
X50510000Y-189922000D01*
X50510000Y-191766432D01*
X50794805Y-191883195D01*
X50967891Y-191838920D01*
X51590738Y-191482344D01*
X52029718Y-190914557D01*
X52218000Y-190222000D01*
X52218000Y-194033000D01*
X50256000Y-194033000D01*
X50256000Y-191766432D01*
X50256000Y-189922000D01*
X50256000Y-189668000D01*
X50256000Y-187823568D01*
X49971195Y-187706805D01*
X49798109Y-187751080D01*
X49175262Y-188107656D01*
X48736282Y-188675443D01*
X48548000Y-189368000D01*
X48548000Y-189668000D01*
X50256000Y-189668000D01*
X50256000Y-189922000D01*
X48548000Y-189922000D01*
X48548000Y-190222000D01*
X48736282Y-190914557D01*
X49175262Y-191482344D01*
X49798109Y-191838920D01*
X49971195Y-191883195D01*
X50256000Y-191766432D01*
X50256000Y-194033000D01*
X47134422Y-194033000D01*
X47078319Y-193750949D01*
X46680541Y-193155632D01*
X46085224Y-192757854D01*
X45383000Y-192618173D01*
X44680776Y-192757854D01*
X44085459Y-193155632D01*
X43687681Y-193750949D01*
X43548000Y-194453173D01*
X43548000Y-195136827D01*
X43687681Y-195839051D01*
X44085459Y-196434368D01*
X44680776Y-196832146D01*
X45383000Y-196971827D01*
X46085224Y-196832146D01*
X46680541Y-196434368D01*
X47078319Y-195839051D01*
X47134422Y-195557000D01*
X123631577Y-195557000D01*
X123687681Y-195839051D01*
X124085459Y-196434368D01*
X124680776Y-196832146D01*
X125383000Y-196971827D01*
X126085224Y-196832146D01*
X126680541Y-196434368D01*
X127078319Y-195839051D01*
X127218000Y-195136827D01*
X127218000Y-199218697D01*
X126392342Y-199559853D01*
X125650458Y-200300443D01*
X125248458Y-201268567D01*
X125247543Y-202316834D01*
X125647853Y-203285658D01*
X126388443Y-204027542D01*
X127356567Y-204429542D01*
X128404834Y-204430457D01*
X129373658Y-204030147D01*
X130115542Y-203289557D01*
X130517542Y-202321433D01*
X130518457Y-201273166D01*
X130518457Y-206069635D01*
X130315532Y-206110000D01*
X45518457Y-206110000D01*
X45518457Y-201273166D01*
X45118147Y-200304342D01*
X44377557Y-199562458D01*
X43409433Y-199160458D01*
X42361166Y-199159543D01*
X41392342Y-199559853D01*
X40650458Y-200300443D01*
X40248458Y-201268567D01*
X40247543Y-202316834D01*
X40647853Y-203285658D01*
X41388443Y-204027542D01*
X42356567Y-204429542D01*
X43404834Y-204430457D01*
X44373658Y-204030147D01*
X45115542Y-203289557D01*
X45517542Y-202321433D01*
X45518457Y-201273166D01*
X45518457Y-206110000D01*
X40450467Y-206110000D01*
X39693564Y-205959442D01*
X39109089Y-205568908D01*
X38718556Y-204984434D01*
X38568000Y-204227532D01*
X38568000Y-201795000D01*
X38568000Y-199295000D01*
X38568000Y-121862467D01*
X38718556Y-121105565D01*
X39109089Y-120521091D01*
X39693564Y-120130557D01*
X40450467Y-119980000D01*
X130315532Y-119980000D01*
X131072434Y-120130556D01*
X131656908Y-120521089D01*
X132047442Y-121105564D01*
X132198000Y-121862467D01*
X132198000Y-199295000D01*
X132198000Y-201795000D01*
X132198000Y-204227532D01*
G36*
X233798000Y-110247532D02*
X233647442Y-111004435D01*
X233256908Y-111588910D01*
X232672434Y-111979443D01*
X232118457Y-112089635D01*
X232118457Y-107293166D01*
X232118457Y-29793166D01*
X231718147Y-28824342D01*
X230977557Y-28082458D01*
X230009433Y-27680458D01*
X228961166Y-27679543D01*
X227992342Y-28079853D01*
X227250458Y-28820443D01*
X226848458Y-29788567D01*
X226847543Y-30836834D01*
X227247853Y-31805658D01*
X227988443Y-32547542D01*
X228956567Y-32949542D01*
X230004834Y-32950457D01*
X230973658Y-32550147D01*
X231715542Y-31809557D01*
X232117542Y-30841433D01*
X232118457Y-29793166D01*
X232118457Y-107293166D01*
X231718147Y-106324342D01*
X230977557Y-105582458D01*
X230009433Y-105180458D01*
X228961166Y-105179543D01*
X228818000Y-105238697D01*
X228818000Y-101156827D01*
X228818000Y-100473173D01*
X228818000Y-83656827D01*
X228818000Y-82973173D01*
X228818000Y-66156827D01*
X228818000Y-65473173D01*
X228818000Y-48656827D01*
X228818000Y-47973173D01*
X228678319Y-47270949D01*
X228280541Y-46675632D01*
X227685224Y-46277854D01*
X226983000Y-46138173D01*
X226280776Y-46277854D01*
X225685459Y-46675632D01*
X225287681Y-47270949D01*
X225231577Y-47553000D01*
X223818000Y-47553000D01*
X223818000Y-43656827D01*
X223818000Y-42973173D01*
X223678319Y-42270949D01*
X223280541Y-41675632D01*
X222745000Y-41317795D01*
X222745000Y-37815000D01*
X222745000Y-37325000D01*
X222686996Y-37033396D01*
X222686996Y-37033395D01*
X222620834Y-36934376D01*
X222521816Y-36786185D01*
X214061815Y-28326185D01*
X213814605Y-28161004D01*
X213523000Y-28103000D01*
X211643712Y-28103000D01*
X211492819Y-27877172D01*
X211039600Y-27574340D01*
X210504991Y-27468000D01*
X209761009Y-27468000D01*
X209226400Y-27574340D01*
X208773181Y-27877172D01*
X208622287Y-28103000D01*
X205143712Y-28103000D01*
X204992819Y-27877172D01*
X204539600Y-27574340D01*
X204004991Y-27468000D01*
X203313630Y-27468000D01*
X202621815Y-26776185D01*
X202374605Y-26611004D01*
X202083000Y-26553000D01*
X201853273Y-26553000D01*
X201803000Y-26543000D01*
X201752726Y-26553000D01*
X184483000Y-26553000D01*
X184191395Y-26611004D01*
X183944185Y-26776185D01*
X181970927Y-28749442D01*
X181409511Y-28861115D01*
X180923330Y-29185971D01*
X180598474Y-29672152D01*
X180484400Y-30245641D01*
X180484400Y-30304359D01*
X180598474Y-30877848D01*
X180910300Y-31344529D01*
X180877277Y-31350937D01*
X180664473Y-31490727D01*
X180522023Y-31701760D01*
X180471960Y-31951400D01*
X180471960Y-33588409D01*
X178780622Y-35279747D01*
X178780622Y-32995922D01*
X178780440Y-32992777D01*
X178780440Y-30965000D01*
X178780440Y-29665000D01*
X178733463Y-29422877D01*
X178593673Y-29210073D01*
X178382640Y-29067623D01*
X178133000Y-29017560D01*
X176833000Y-29017560D01*
X176590877Y-29064537D01*
X176378073Y-29204327D01*
X176235623Y-29415360D01*
X176208020Y-29553000D01*
X173378630Y-29553000D01*
X172151815Y-28326185D01*
X171904605Y-28161004D01*
X171613000Y-28103000D01*
X171003712Y-28103000D01*
X170852819Y-27877172D01*
X170399600Y-27574340D01*
X169864991Y-27468000D01*
X169121009Y-27468000D01*
X168586400Y-27574340D01*
X168133181Y-27877172D01*
X167982287Y-28103000D01*
X164503712Y-28103000D01*
X164352819Y-27877172D01*
X163899600Y-27574340D01*
X163364991Y-27468000D01*
X162621009Y-27468000D01*
X162086400Y-27574340D01*
X161633181Y-27877172D01*
X161330349Y-28330391D01*
X161224009Y-28865000D01*
X161330349Y-29399609D01*
X161633181Y-29852828D01*
X162086400Y-30155660D01*
X162621009Y-30262000D01*
X163364991Y-30262000D01*
X163899600Y-30155660D01*
X164352819Y-29852828D01*
X164503712Y-29627000D01*
X167982287Y-29627000D01*
X168133181Y-29852828D01*
X168586400Y-30155660D01*
X169121009Y-30262000D01*
X169864991Y-30262000D01*
X170399600Y-30155660D01*
X170852819Y-29852828D01*
X171003712Y-29627000D01*
X171297369Y-29627000D01*
X172524185Y-30853816D01*
X172672376Y-30952834D01*
X172771395Y-31018996D01*
X172771396Y-31018996D01*
X173063000Y-31077000D01*
X176207290Y-31077000D01*
X176232537Y-31207123D01*
X176372327Y-31419927D01*
X176583360Y-31562377D01*
X176833000Y-31612440D01*
X176995385Y-31612440D01*
X176819271Y-31685389D01*
X176763590Y-31915984D01*
X177483000Y-32635395D01*
X178202410Y-31915984D01*
X178146729Y-31685389D01*
X177937098Y-31612440D01*
X178133000Y-31612440D01*
X178375123Y-31565463D01*
X178587927Y-31425673D01*
X178730377Y-31214640D01*
X178780440Y-30965000D01*
X178780440Y-32992777D01*
X178751083Y-32485572D01*
X178612611Y-32151271D01*
X178382016Y-32095590D01*
X177662605Y-32815000D01*
X178382016Y-33534410D01*
X178612611Y-33478729D01*
X178780622Y-32995922D01*
X178780622Y-35279747D01*
X178627369Y-35433000D01*
X178202410Y-35433000D01*
X178202410Y-33714016D01*
X177483000Y-32994605D01*
X177303395Y-33174210D01*
X177303395Y-32815000D01*
X176583984Y-32095590D01*
X176353389Y-32151271D01*
X176185378Y-32634078D01*
X176214917Y-33144428D01*
X176353389Y-33478729D01*
X176583984Y-33534410D01*
X177303395Y-32815000D01*
X177303395Y-33174210D01*
X176763590Y-33714016D01*
X176819271Y-33944611D01*
X177302078Y-34112622D01*
X177812428Y-34083083D01*
X178146729Y-33944611D01*
X178202410Y-33714016D01*
X178202410Y-35433000D01*
X172638630Y-35433000D01*
X171135458Y-33929828D01*
X171155651Y-33899609D01*
X171261991Y-33365000D01*
X171155651Y-32830391D01*
X170852819Y-32377172D01*
X170399600Y-32074340D01*
X169864991Y-31968000D01*
X169121009Y-31968000D01*
X168586400Y-32074340D01*
X168133181Y-32377172D01*
X167982287Y-32603000D01*
X164503712Y-32603000D01*
X164352819Y-32377172D01*
X163899600Y-32074340D01*
X163364991Y-31968000D01*
X162621009Y-31968000D01*
X162086400Y-32074340D01*
X161633181Y-32377172D01*
X161330349Y-32830391D01*
X161224009Y-33365000D01*
X161330349Y-33899609D01*
X161633181Y-34352828D01*
X162086400Y-34655660D01*
X162621009Y-34762000D01*
X163364991Y-34762000D01*
X163899600Y-34655660D01*
X164352819Y-34352828D01*
X164503712Y-34127000D01*
X167982287Y-34127000D01*
X168133181Y-34352828D01*
X168586400Y-34655660D01*
X169121009Y-34762000D01*
X169812369Y-34762000D01*
X171784184Y-36733815D01*
X171784185Y-36733815D01*
X172031395Y-36898996D01*
X172323000Y-36957000D01*
X178943000Y-36957000D01*
X178943000Y-36956999D01*
X179234604Y-36898996D01*
X179234605Y-36898996D01*
X179481815Y-36733815D01*
X181889590Y-34326040D01*
X182846600Y-34326040D01*
X183088723Y-34279063D01*
X183301527Y-34139273D01*
X183443977Y-33928240D01*
X183452179Y-33887340D01*
X183463330Y-33904029D01*
X183949511Y-34228885D01*
X184523000Y-34342959D01*
X185096489Y-34228885D01*
X185582670Y-33904029D01*
X185793000Y-33589248D01*
X186003330Y-33904029D01*
X186489511Y-34228885D01*
X187063000Y-34342959D01*
X187636489Y-34228885D01*
X188122670Y-33904029D01*
X188333000Y-33589248D01*
X188543330Y-33904029D01*
X189029511Y-34228885D01*
X189603000Y-34342959D01*
X190176489Y-34228885D01*
X190662670Y-33904029D01*
X190873000Y-33589248D01*
X191083330Y-33904029D01*
X191569511Y-34228885D01*
X192143000Y-34342959D01*
X192716489Y-34228885D01*
X193202670Y-33904029D01*
X193421183Y-33577000D01*
X201906178Y-33577000D01*
X201970349Y-33899609D01*
X202273181Y-34352828D01*
X202726400Y-34655660D01*
X203261009Y-34762000D01*
X204004991Y-34762000D01*
X204539600Y-34655660D01*
X204992819Y-34352828D01*
X205295651Y-33899609D01*
X205401991Y-33365000D01*
X205295651Y-32830391D01*
X204992819Y-32377172D01*
X204539600Y-32074340D01*
X204004991Y-31968000D01*
X203261009Y-31968000D01*
X202833683Y-32053000D01*
X193421183Y-32053000D01*
X193202670Y-31725971D01*
X192931839Y-31545007D01*
X193349821Y-31163490D01*
X193597968Y-30634027D01*
X193597968Y-29915973D01*
X193349821Y-29386510D01*
X192917947Y-28992312D01*
X192502026Y-28820042D01*
X192270000Y-28941183D01*
X192270000Y-30148000D01*
X193477469Y-30148000D01*
X193597968Y-29915973D01*
X193597968Y-30634027D01*
X193477469Y-30402000D01*
X192270000Y-30402000D01*
X192270000Y-30422000D01*
X192016000Y-30422000D01*
X192016000Y-30402000D01*
X191996000Y-30402000D01*
X191996000Y-30148000D01*
X192016000Y-30148000D01*
X192016000Y-28941183D01*
X191783974Y-28820042D01*
X191368053Y-28992312D01*
X190936179Y-29386510D01*
X190878663Y-29509228D01*
X190662670Y-29185971D01*
X190176489Y-28861115D01*
X189603000Y-28747041D01*
X189029511Y-28861115D01*
X188543330Y-29185971D01*
X188333000Y-29500751D01*
X188122670Y-29185971D01*
X187636489Y-28861115D01*
X187063000Y-28747041D01*
X186489511Y-28861115D01*
X186003330Y-29185971D01*
X185793000Y-29500751D01*
X185582670Y-29185971D01*
X185096489Y-28861115D01*
X184523000Y-28747041D01*
X184030655Y-28844974D01*
X184798630Y-28077000D01*
X201767370Y-28077000D01*
X201990541Y-28300171D01*
X201970349Y-28330391D01*
X201864009Y-28865000D01*
X201970349Y-29399609D01*
X202273181Y-29852828D01*
X202726400Y-30155660D01*
X203261009Y-30262000D01*
X204004991Y-30262000D01*
X204539600Y-30155660D01*
X204992819Y-29852828D01*
X205143712Y-29627000D01*
X208622287Y-29627000D01*
X208773181Y-29852828D01*
X209226400Y-30155660D01*
X209761009Y-30262000D01*
X210504991Y-30262000D01*
X211039600Y-30155660D01*
X211492819Y-29852828D01*
X211643712Y-29627000D01*
X213207369Y-29627000D01*
X221221000Y-37640630D01*
X221221000Y-37815000D01*
X221221000Y-41317795D01*
X220685459Y-41675632D01*
X220287681Y-42270949D01*
X220148000Y-42973173D01*
X220148000Y-43656827D01*
X220287681Y-44359051D01*
X220685459Y-44954368D01*
X221280776Y-45352146D01*
X221983000Y-45491827D01*
X222685224Y-45352146D01*
X223280541Y-44954368D01*
X223678319Y-44359051D01*
X223818000Y-43656827D01*
X223818000Y-47553000D01*
X211901991Y-47553000D01*
X211901991Y-33365000D01*
X211795651Y-32830391D01*
X211492819Y-32377172D01*
X211039600Y-32074340D01*
X210504991Y-31968000D01*
X209761009Y-31968000D01*
X209226400Y-32074340D01*
X208773181Y-32377172D01*
X208470349Y-32830391D01*
X208364009Y-33365000D01*
X208470349Y-33899609D01*
X208773181Y-34352828D01*
X209226400Y-34655660D01*
X209761009Y-34762000D01*
X210504991Y-34762000D01*
X211039600Y-34655660D01*
X211492819Y-34352828D01*
X211795651Y-33899609D01*
X211901991Y-33365000D01*
X211901991Y-47553000D01*
X153818000Y-47553000D01*
X153818000Y-43742000D01*
X153818000Y-43442000D01*
X153818000Y-43188000D01*
X153818000Y-42888000D01*
X153629718Y-42195443D01*
X153190738Y-41627656D01*
X152567891Y-41271080D01*
X152394805Y-41226805D01*
X152110000Y-41343568D01*
X152110000Y-43188000D01*
X153818000Y-43188000D01*
X153818000Y-43442000D01*
X152110000Y-43442000D01*
X152110000Y-45286432D01*
X152394805Y-45403195D01*
X152567891Y-45358920D01*
X153190738Y-45002344D01*
X153629718Y-44434557D01*
X153818000Y-43742000D01*
X153818000Y-47553000D01*
X151856000Y-47553000D01*
X151856000Y-45286432D01*
X151856000Y-43442000D01*
X151856000Y-43188000D01*
X151856000Y-41343568D01*
X151571195Y-41226805D01*
X151398109Y-41271080D01*
X150775262Y-41627656D01*
X150336282Y-42195443D01*
X150148000Y-42888000D01*
X150148000Y-43188000D01*
X151856000Y-43188000D01*
X151856000Y-43442000D01*
X150148000Y-43442000D01*
X150148000Y-43742000D01*
X150336282Y-44434557D01*
X150775262Y-45002344D01*
X151398109Y-45358920D01*
X151571195Y-45403195D01*
X151856000Y-45286432D01*
X151856000Y-47553000D01*
X148734422Y-47553000D01*
X148678319Y-47270949D01*
X148280541Y-46675632D01*
X147685224Y-46277854D01*
X147118457Y-46165117D01*
X147118457Y-29793166D01*
X146718147Y-28824342D01*
X145977557Y-28082458D01*
X145009433Y-27680458D01*
X143961166Y-27679543D01*
X142992342Y-28079853D01*
X142250458Y-28820443D01*
X141848458Y-29788567D01*
X141847543Y-30836834D01*
X142247853Y-31805658D01*
X142988443Y-32547542D01*
X143956567Y-32949542D01*
X145004834Y-32950457D01*
X145973658Y-32550147D01*
X146715542Y-31809557D01*
X147117542Y-30841433D01*
X147118457Y-29793166D01*
X147118457Y-46165117D01*
X146983000Y-46138173D01*
X146280776Y-46277854D01*
X145685459Y-46675632D01*
X145287681Y-47270949D01*
X145148000Y-47973173D01*
X145148000Y-48656827D01*
X145287681Y-49359051D01*
X145685459Y-49954368D01*
X146280776Y-50352146D01*
X146983000Y-50491827D01*
X147685224Y-50352146D01*
X148280541Y-49954368D01*
X148678319Y-49359051D01*
X148734422Y-49077000D01*
X225231577Y-49077000D01*
X225287681Y-49359051D01*
X225685459Y-49954368D01*
X226280776Y-50352146D01*
X226983000Y-50491827D01*
X227685224Y-50352146D01*
X228280541Y-49954368D01*
X228678319Y-49359051D01*
X228818000Y-48656827D01*
X228818000Y-65473173D01*
X228678319Y-64770949D01*
X228280541Y-64175632D01*
X227685224Y-63777854D01*
X226983000Y-63638173D01*
X226280776Y-63777854D01*
X225685459Y-64175632D01*
X225287681Y-64770949D01*
X225231577Y-65053000D01*
X223818000Y-65053000D01*
X223818000Y-61156827D01*
X223818000Y-60473173D01*
X223678319Y-59770949D01*
X223280541Y-59175632D01*
X222685224Y-58777854D01*
X221983000Y-58638173D01*
X221280776Y-58777854D01*
X220685459Y-59175632D01*
X220287681Y-59770949D01*
X220148000Y-60473173D01*
X220148000Y-61156827D01*
X220287681Y-61859051D01*
X220685459Y-62454368D01*
X221280776Y-62852146D01*
X221983000Y-62991827D01*
X222685224Y-62852146D01*
X223280541Y-62454368D01*
X223678319Y-61859051D01*
X223818000Y-61156827D01*
X223818000Y-65053000D01*
X153818000Y-65053000D01*
X153818000Y-61242000D01*
X153818000Y-60942000D01*
X153818000Y-60688000D01*
X153818000Y-60388000D01*
X153629718Y-59695443D01*
X153190738Y-59127656D01*
X152567891Y-58771080D01*
X152394805Y-58726805D01*
X152110000Y-58843568D01*
X152110000Y-60688000D01*
X153818000Y-60688000D01*
X153818000Y-60942000D01*
X152110000Y-60942000D01*
X152110000Y-62786432D01*
X152394805Y-62903195D01*
X152567891Y-62858920D01*
X153190738Y-62502344D01*
X153629718Y-61934557D01*
X153818000Y-61242000D01*
X153818000Y-65053000D01*
X151856000Y-65053000D01*
X151856000Y-62786432D01*
X151856000Y-60942000D01*
X151856000Y-60688000D01*
X151856000Y-58843568D01*
X151571195Y-58726805D01*
X151398109Y-58771080D01*
X150775262Y-59127656D01*
X150336282Y-59695443D01*
X150148000Y-60388000D01*
X150148000Y-60688000D01*
X151856000Y-60688000D01*
X151856000Y-60942000D01*
X150148000Y-60942000D01*
X150148000Y-61242000D01*
X150336282Y-61934557D01*
X150775262Y-62502344D01*
X151398109Y-62858920D01*
X151571195Y-62903195D01*
X151856000Y-62786432D01*
X151856000Y-65053000D01*
X148734422Y-65053000D01*
X148678319Y-64770949D01*
X148280541Y-64175632D01*
X147685224Y-63777854D01*
X146983000Y-63638173D01*
X146280776Y-63777854D01*
X145685459Y-64175632D01*
X145287681Y-64770949D01*
X145148000Y-65473173D01*
X145148000Y-66156827D01*
X145287681Y-66859051D01*
X145685459Y-67454368D01*
X146280776Y-67852146D01*
X146983000Y-67991827D01*
X147685224Y-67852146D01*
X148280541Y-67454368D01*
X148678319Y-66859051D01*
X148734422Y-66577000D01*
X225231577Y-66577000D01*
X225287681Y-66859051D01*
X225685459Y-67454368D01*
X226280776Y-67852146D01*
X226983000Y-67991827D01*
X227685224Y-67852146D01*
X228280541Y-67454368D01*
X228678319Y-66859051D01*
X228818000Y-66156827D01*
X228818000Y-82973173D01*
X228678319Y-82270949D01*
X228280541Y-81675632D01*
X227685224Y-81277854D01*
X226983000Y-81138173D01*
X226280776Y-81277854D01*
X225685459Y-81675632D01*
X225287681Y-82270949D01*
X225231577Y-82553000D01*
X223818000Y-82553000D01*
X223818000Y-78656827D01*
X223818000Y-77973173D01*
X223678319Y-77270949D01*
X223280541Y-76675632D01*
X222685224Y-76277854D01*
X221983000Y-76138173D01*
X221280776Y-76277854D01*
X220685459Y-76675632D01*
X220287681Y-77270949D01*
X220148000Y-77973173D01*
X220148000Y-78656827D01*
X220287681Y-79359051D01*
X220685459Y-79954368D01*
X221280776Y-80352146D01*
X221983000Y-80491827D01*
X222685224Y-80352146D01*
X223280541Y-79954368D01*
X223678319Y-79359051D01*
X223818000Y-78656827D01*
X223818000Y-82553000D01*
X153818000Y-82553000D01*
X153818000Y-78742000D01*
X153818000Y-78442000D01*
X153818000Y-78188000D01*
X153818000Y-77888000D01*
X153629718Y-77195443D01*
X153190738Y-76627656D01*
X152567891Y-76271080D01*
X152394805Y-76226805D01*
X152110000Y-76343568D01*
X152110000Y-78188000D01*
X153818000Y-78188000D01*
X153818000Y-78442000D01*
X152110000Y-78442000D01*
X152110000Y-80286432D01*
X152394805Y-80403195D01*
X152567891Y-80358920D01*
X153190738Y-80002344D01*
X153629718Y-79434557D01*
X153818000Y-78742000D01*
X153818000Y-82553000D01*
X151856000Y-82553000D01*
X151856000Y-80286432D01*
X151856000Y-78442000D01*
X151856000Y-78188000D01*
X151856000Y-76343568D01*
X151571195Y-76226805D01*
X151398109Y-76271080D01*
X150775262Y-76627656D01*
X150336282Y-77195443D01*
X150148000Y-77888000D01*
X150148000Y-78188000D01*
X151856000Y-78188000D01*
X151856000Y-78442000D01*
X150148000Y-78442000D01*
X150148000Y-78742000D01*
X150336282Y-79434557D01*
X150775262Y-80002344D01*
X151398109Y-80358920D01*
X151571195Y-80403195D01*
X151856000Y-80286432D01*
X151856000Y-82553000D01*
X148734422Y-82553000D01*
X148678319Y-82270949D01*
X148280541Y-81675632D01*
X147685224Y-81277854D01*
X146983000Y-81138173D01*
X146280776Y-81277854D01*
X145685459Y-81675632D01*
X145287681Y-82270949D01*
X145148000Y-82973173D01*
X145148000Y-83656827D01*
X145287681Y-84359051D01*
X145685459Y-84954368D01*
X146280776Y-85352146D01*
X146983000Y-85491827D01*
X147685224Y-85352146D01*
X148280541Y-84954368D01*
X148678319Y-84359051D01*
X148734422Y-84077000D01*
X225231577Y-84077000D01*
X225287681Y-84359051D01*
X225685459Y-84954368D01*
X226280776Y-85352146D01*
X226983000Y-85491827D01*
X227685224Y-85352146D01*
X228280541Y-84954368D01*
X228678319Y-84359051D01*
X228818000Y-83656827D01*
X228818000Y-100473173D01*
X228678319Y-99770949D01*
X228280541Y-99175632D01*
X227685224Y-98777854D01*
X226983000Y-98638173D01*
X226280776Y-98777854D01*
X225685459Y-99175632D01*
X225287681Y-99770949D01*
X225231577Y-100053000D01*
X223818000Y-100053000D01*
X223818000Y-96156827D01*
X223818000Y-95473173D01*
X223678319Y-94770949D01*
X223280541Y-94175632D01*
X222685224Y-93777854D01*
X221983000Y-93638173D01*
X221280776Y-93777854D01*
X220685459Y-94175632D01*
X220287681Y-94770949D01*
X220148000Y-95473173D01*
X220148000Y-96156827D01*
X220287681Y-96859051D01*
X220685459Y-97454368D01*
X221280776Y-97852146D01*
X221983000Y-97991827D01*
X222685224Y-97852146D01*
X223280541Y-97454368D01*
X223678319Y-96859051D01*
X223818000Y-96156827D01*
X223818000Y-100053000D01*
X153818000Y-100053000D01*
X153818000Y-96242000D01*
X153818000Y-95942000D01*
X153818000Y-95688000D01*
X153818000Y-95388000D01*
X153629718Y-94695443D01*
X153190738Y-94127656D01*
X152567891Y-93771080D01*
X152394805Y-93726805D01*
X152110000Y-93843568D01*
X152110000Y-95688000D01*
X153818000Y-95688000D01*
X153818000Y-95942000D01*
X152110000Y-95942000D01*
X152110000Y-97786432D01*
X152394805Y-97903195D01*
X152567891Y-97858920D01*
X153190738Y-97502344D01*
X153629718Y-96934557D01*
X153818000Y-96242000D01*
X153818000Y-100053000D01*
X151856000Y-100053000D01*
X151856000Y-97786432D01*
X151856000Y-95942000D01*
X151856000Y-95688000D01*
X151856000Y-93843568D01*
X151571195Y-93726805D01*
X151398109Y-93771080D01*
X150775262Y-94127656D01*
X150336282Y-94695443D01*
X150148000Y-95388000D01*
X150148000Y-95688000D01*
X151856000Y-95688000D01*
X151856000Y-95942000D01*
X150148000Y-95942000D01*
X150148000Y-96242000D01*
X150336282Y-96934557D01*
X150775262Y-97502344D01*
X151398109Y-97858920D01*
X151571195Y-97903195D01*
X151856000Y-97786432D01*
X151856000Y-100053000D01*
X148734422Y-100053000D01*
X148678319Y-99770949D01*
X148280541Y-99175632D01*
X147685224Y-98777854D01*
X146983000Y-98638173D01*
X146280776Y-98777854D01*
X145685459Y-99175632D01*
X145287681Y-99770949D01*
X145148000Y-100473173D01*
X145148000Y-101156827D01*
X145287681Y-101859051D01*
X145685459Y-102454368D01*
X146280776Y-102852146D01*
X146983000Y-102991827D01*
X147685224Y-102852146D01*
X148280541Y-102454368D01*
X148678319Y-101859051D01*
X148734422Y-101577000D01*
X225231577Y-101577000D01*
X225287681Y-101859051D01*
X225685459Y-102454368D01*
X226280776Y-102852146D01*
X226983000Y-102991827D01*
X227685224Y-102852146D01*
X228280541Y-102454368D01*
X228678319Y-101859051D01*
X228818000Y-101156827D01*
X228818000Y-105238697D01*
X227992342Y-105579853D01*
X227250458Y-106320443D01*
X226848458Y-107288567D01*
X226847543Y-108336834D01*
X227247853Y-109305658D01*
X227988443Y-110047542D01*
X228956567Y-110449542D01*
X230004834Y-110450457D01*
X230973658Y-110050147D01*
X231715542Y-109309557D01*
X232117542Y-108341433D01*
X232118457Y-107293166D01*
X232118457Y-112089635D01*
X231915532Y-112130000D01*
X147118457Y-112130000D01*
X147118457Y-107293166D01*
X146718147Y-106324342D01*
X145977557Y-105582458D01*
X145009433Y-105180458D01*
X143961166Y-105179543D01*
X142992342Y-105579853D01*
X142250458Y-106320443D01*
X141848458Y-107288567D01*
X141847543Y-108336834D01*
X142247853Y-109305658D01*
X142988443Y-110047542D01*
X143956567Y-110449542D01*
X145004834Y-110450457D01*
X145973658Y-110050147D01*
X146715542Y-109309557D01*
X147117542Y-108341433D01*
X147118457Y-107293166D01*
X147118457Y-112130000D01*
X142050467Y-112130000D01*
X141293564Y-111979442D01*
X140709089Y-111588908D01*
X140318556Y-111004434D01*
X140168000Y-110247532D01*
X140168000Y-107815000D01*
X140168000Y-105315000D01*
X140168000Y-27882467D01*
X140318556Y-27125565D01*
X140709089Y-26541091D01*
X141293564Y-26150557D01*
X142050467Y-26000000D01*
X231915532Y-26000000D01*
X232672434Y-26150556D01*
X233256908Y-26541089D01*
X233647442Y-27125564D01*
X233798000Y-27882467D01*
X233798000Y-105315000D01*
X233798000Y-107815000D01*
X233798000Y-110247532D01*
X233798000Y-110247532D01*
G37*
X233798000Y-110247532D02*
X233647442Y-111004435D01*
X233256908Y-111588910D01*
X232672434Y-111979443D01*
X232118457Y-112089635D01*
X232118457Y-107293166D01*
X232118457Y-29793166D01*
X231718147Y-28824342D01*
X230977557Y-28082458D01*
X230009433Y-27680458D01*
X228961166Y-27679543D01*
X227992342Y-28079853D01*
X227250458Y-28820443D01*
X226848458Y-29788567D01*
X226847543Y-30836834D01*
X227247853Y-31805658D01*
X227988443Y-32547542D01*
X228956567Y-32949542D01*
X230004834Y-32950457D01*
X230973658Y-32550147D01*
X231715542Y-31809557D01*
X232117542Y-30841433D01*
X232118457Y-29793166D01*
X232118457Y-107293166D01*
X231718147Y-106324342D01*
X230977557Y-105582458D01*
X230009433Y-105180458D01*
X228961166Y-105179543D01*
X228818000Y-105238697D01*
X228818000Y-101156827D01*
X228818000Y-100473173D01*
X228818000Y-83656827D01*
X228818000Y-82973173D01*
X228818000Y-66156827D01*
X228818000Y-65473173D01*
X228818000Y-48656827D01*
X228818000Y-47973173D01*
X228678319Y-47270949D01*
X228280541Y-46675632D01*
X227685224Y-46277854D01*
X226983000Y-46138173D01*
X226280776Y-46277854D01*
X225685459Y-46675632D01*
X225287681Y-47270949D01*
X225231577Y-47553000D01*
X223818000Y-47553000D01*
X223818000Y-43656827D01*
X223818000Y-42973173D01*
X223678319Y-42270949D01*
X223280541Y-41675632D01*
X222745000Y-41317795D01*
X222745000Y-37815000D01*
X222745000Y-37325000D01*
X222686996Y-37033396D01*
X222686996Y-37033395D01*
X222620834Y-36934376D01*
X222521816Y-36786185D01*
X214061815Y-28326185D01*
X213814605Y-28161004D01*
X213523000Y-28103000D01*
X211643712Y-28103000D01*
X211492819Y-27877172D01*
X211039600Y-27574340D01*
X210504991Y-27468000D01*
X209761009Y-27468000D01*
X209226400Y-27574340D01*
X208773181Y-27877172D01*
X208622287Y-28103000D01*
X205143712Y-28103000D01*
X204992819Y-27877172D01*
X204539600Y-27574340D01*
X204004991Y-27468000D01*
X203313630Y-27468000D01*
X202621815Y-26776185D01*
X202374605Y-26611004D01*
X202083000Y-26553000D01*
X201853273Y-26553000D01*
X201803000Y-26543000D01*
X201752726Y-26553000D01*
X184483000Y-26553000D01*
X184191395Y-26611004D01*
X183944185Y-26776185D01*
X181970927Y-28749442D01*
X181409511Y-28861115D01*
X180923330Y-29185971D01*
X180598474Y-29672152D01*
X180484400Y-30245641D01*
X180484400Y-30304359D01*
X180598474Y-30877848D01*
X180910300Y-31344529D01*
X180877277Y-31350937D01*
X180664473Y-31490727D01*
X180522023Y-31701760D01*
X180471960Y-31951400D01*
X180471960Y-33588409D01*
X178780622Y-35279747D01*
X178780622Y-32995922D01*
X178780440Y-32992777D01*
X178780440Y-30965000D01*
X178780440Y-29665000D01*
X178733463Y-29422877D01*
X178593673Y-29210073D01*
X178382640Y-29067623D01*
X178133000Y-29017560D01*
X176833000Y-29017560D01*
X176590877Y-29064537D01*
X176378073Y-29204327D01*
X176235623Y-29415360D01*
X176208020Y-29553000D01*
X173378630Y-29553000D01*
X172151815Y-28326185D01*
X171904605Y-28161004D01*
X171613000Y-28103000D01*
X171003712Y-28103000D01*
X170852819Y-27877172D01*
X170399600Y-27574340D01*
X169864991Y-27468000D01*
X169121009Y-27468000D01*
X168586400Y-27574340D01*
X168133181Y-27877172D01*
X167982287Y-28103000D01*
X164503712Y-28103000D01*
X164352819Y-27877172D01*
X163899600Y-27574340D01*
X163364991Y-27468000D01*
X162621009Y-27468000D01*
X162086400Y-27574340D01*
X161633181Y-27877172D01*
X161330349Y-28330391D01*
X161224009Y-28865000D01*
X161330349Y-29399609D01*
X161633181Y-29852828D01*
X162086400Y-30155660D01*
X162621009Y-30262000D01*
X163364991Y-30262000D01*
X163899600Y-30155660D01*
X164352819Y-29852828D01*
X164503712Y-29627000D01*
X167982287Y-29627000D01*
X168133181Y-29852828D01*
X168586400Y-30155660D01*
X169121009Y-30262000D01*
X169864991Y-30262000D01*
X170399600Y-30155660D01*
X170852819Y-29852828D01*
X171003712Y-29627000D01*
X171297369Y-29627000D01*
X172524185Y-30853816D01*
X172672376Y-30952834D01*
X172771395Y-31018996D01*
X172771396Y-31018996D01*
X173063000Y-31077000D01*
X176207290Y-31077000D01*
X176232537Y-31207123D01*
X176372327Y-31419927D01*
X176583360Y-31562377D01*
X176833000Y-31612440D01*
X176995385Y-31612440D01*
X176819271Y-31685389D01*
X176763590Y-31915984D01*
X177483000Y-32635395D01*
X178202410Y-31915984D01*
X178146729Y-31685389D01*
X177937098Y-31612440D01*
X178133000Y-31612440D01*
X178375123Y-31565463D01*
X178587927Y-31425673D01*
X178730377Y-31214640D01*
X178780440Y-30965000D01*
X178780440Y-32992777D01*
X178751083Y-32485572D01*
X178612611Y-32151271D01*
X178382016Y-32095590D01*
X177662605Y-32815000D01*
X178382016Y-33534410D01*
X178612611Y-33478729D01*
X178780622Y-32995922D01*
X178780622Y-35279747D01*
X178627369Y-35433000D01*
X178202410Y-35433000D01*
X178202410Y-33714016D01*
X177483000Y-32994605D01*
X177303395Y-33174210D01*
X177303395Y-32815000D01*
X176583984Y-32095590D01*
X176353389Y-32151271D01*
X176185378Y-32634078D01*
X176214917Y-33144428D01*
X176353389Y-33478729D01*
X176583984Y-33534410D01*
X177303395Y-32815000D01*
X177303395Y-33174210D01*
X176763590Y-33714016D01*
X176819271Y-33944611D01*
X177302078Y-34112622D01*
X177812428Y-34083083D01*
X178146729Y-33944611D01*
X178202410Y-33714016D01*
X178202410Y-35433000D01*
X172638630Y-35433000D01*
X171135458Y-33929828D01*
X171155651Y-33899609D01*
X171261991Y-33365000D01*
X171155651Y-32830391D01*
X170852819Y-32377172D01*
X170399600Y-32074340D01*
X169864991Y-31968000D01*
X169121009Y-31968000D01*
X168586400Y-32074340D01*
X168133181Y-32377172D01*
X167982287Y-32603000D01*
X164503712Y-32603000D01*
X164352819Y-32377172D01*
X163899600Y-32074340D01*
X163364991Y-31968000D01*
X162621009Y-31968000D01*
X162086400Y-32074340D01*
X161633181Y-32377172D01*
X161330349Y-32830391D01*
X161224009Y-33365000D01*
X161330349Y-33899609D01*
X161633181Y-34352828D01*
X162086400Y-34655660D01*
X162621009Y-34762000D01*
X163364991Y-34762000D01*
X163899600Y-34655660D01*
X164352819Y-34352828D01*
X164503712Y-34127000D01*
X167982287Y-34127000D01*
X168133181Y-34352828D01*
X168586400Y-34655660D01*
X169121009Y-34762000D01*
X169812369Y-34762000D01*
X171784184Y-36733815D01*
X171784185Y-36733815D01*
X172031395Y-36898996D01*
X172323000Y-36957000D01*
X178943000Y-36957000D01*
X178943000Y-36956999D01*
X179234604Y-36898996D01*
X179234605Y-36898996D01*
X179481815Y-36733815D01*
X181889590Y-34326040D01*
X182846600Y-34326040D01*
X183088723Y-34279063D01*
X183301527Y-34139273D01*
X183443977Y-33928240D01*
X183452179Y-33887340D01*
X183463330Y-33904029D01*
X183949511Y-34228885D01*
X184523000Y-34342959D01*
X185096489Y-34228885D01*
X185582670Y-33904029D01*
X185793000Y-33589248D01*
X186003330Y-33904029D01*
X186489511Y-34228885D01*
X187063000Y-34342959D01*
X187636489Y-34228885D01*
X188122670Y-33904029D01*
X188333000Y-33589248D01*
X188543330Y-33904029D01*
X189029511Y-34228885D01*
X189603000Y-34342959D01*
X190176489Y-34228885D01*
X190662670Y-33904029D01*
X190873000Y-33589248D01*
X191083330Y-33904029D01*
X191569511Y-34228885D01*
X192143000Y-34342959D01*
X192716489Y-34228885D01*
X193202670Y-33904029D01*
X193421183Y-33577000D01*
X201906178Y-33577000D01*
X201970349Y-33899609D01*
X202273181Y-34352828D01*
X202726400Y-34655660D01*
X203261009Y-34762000D01*
X204004991Y-34762000D01*
X204539600Y-34655660D01*
X204992819Y-34352828D01*
X205295651Y-33899609D01*
X205401991Y-33365000D01*
X205295651Y-32830391D01*
X204992819Y-32377172D01*
X204539600Y-32074340D01*
X204004991Y-31968000D01*
X203261009Y-31968000D01*
X202833683Y-32053000D01*
X193421183Y-32053000D01*
X193202670Y-31725971D01*
X192931839Y-31545007D01*
X193349821Y-31163490D01*
X193597968Y-30634027D01*
X193597968Y-29915973D01*
X193349821Y-29386510D01*
X192917947Y-28992312D01*
X192502026Y-28820042D01*
X192270000Y-28941183D01*
X192270000Y-30148000D01*
X193477469Y-30148000D01*
X193597968Y-29915973D01*
X193597968Y-30634027D01*
X193477469Y-30402000D01*
X192270000Y-30402000D01*
X192270000Y-30422000D01*
X192016000Y-30422000D01*
X192016000Y-30402000D01*
X191996000Y-30402000D01*
X191996000Y-30148000D01*
X192016000Y-30148000D01*
X192016000Y-28941183D01*
X191783974Y-28820042D01*
X191368053Y-28992312D01*
X190936179Y-29386510D01*
X190878663Y-29509228D01*
X190662670Y-29185971D01*
X190176489Y-28861115D01*
X189603000Y-28747041D01*
X189029511Y-28861115D01*
X188543330Y-29185971D01*
X188333000Y-29500751D01*
X188122670Y-29185971D01*
X187636489Y-28861115D01*
X187063000Y-28747041D01*
X186489511Y-28861115D01*
X186003330Y-29185971D01*
X185793000Y-29500751D01*
X185582670Y-29185971D01*
X185096489Y-28861115D01*
X184523000Y-28747041D01*
X184030655Y-28844974D01*
X184798630Y-28077000D01*
X201767370Y-28077000D01*
X201990541Y-28300171D01*
X201970349Y-28330391D01*
X201864009Y-28865000D01*
X201970349Y-29399609D01*
X202273181Y-29852828D01*
X202726400Y-30155660D01*
X203261009Y-30262000D01*
X204004991Y-30262000D01*
X204539600Y-30155660D01*
X204992819Y-29852828D01*
X205143712Y-29627000D01*
X208622287Y-29627000D01*
X208773181Y-29852828D01*
X209226400Y-30155660D01*
X209761009Y-30262000D01*
X210504991Y-30262000D01*
X211039600Y-30155660D01*
X211492819Y-29852828D01*
X211643712Y-29627000D01*
X213207369Y-29627000D01*
X221221000Y-37640630D01*
X221221000Y-37815000D01*
X221221000Y-41317795D01*
X220685459Y-41675632D01*
X220287681Y-42270949D01*
X220148000Y-42973173D01*
X220148000Y-43656827D01*
X220287681Y-44359051D01*
X220685459Y-44954368D01*
X221280776Y-45352146D01*
X221983000Y-45491827D01*
X222685224Y-45352146D01*
X223280541Y-44954368D01*
X223678319Y-44359051D01*
X223818000Y-43656827D01*
X223818000Y-47553000D01*
X211901991Y-47553000D01*
X211901991Y-33365000D01*
X211795651Y-32830391D01*
X211492819Y-32377172D01*
X211039600Y-32074340D01*
X210504991Y-31968000D01*
X209761009Y-31968000D01*
X209226400Y-32074340D01*
X208773181Y-32377172D01*
X208470349Y-32830391D01*
X208364009Y-33365000D01*
X208470349Y-33899609D01*
X208773181Y-34352828D01*
X209226400Y-34655660D01*
X209761009Y-34762000D01*
X210504991Y-34762000D01*
X211039600Y-34655660D01*
X211492819Y-34352828D01*
X211795651Y-33899609D01*
X211901991Y-33365000D01*
X211901991Y-47553000D01*
X153818000Y-47553000D01*
X153818000Y-43742000D01*
X153818000Y-43442000D01*
X153818000Y-43188000D01*
X153818000Y-42888000D01*
X153629718Y-42195443D01*
X153190738Y-41627656D01*
X152567891Y-41271080D01*
X152394805Y-41226805D01*
X152110000Y-41343568D01*
X152110000Y-43188000D01*
X153818000Y-43188000D01*
X153818000Y-43442000D01*
X152110000Y-43442000D01*
X152110000Y-45286432D01*
X152394805Y-45403195D01*
X152567891Y-45358920D01*
X153190738Y-45002344D01*
X153629718Y-44434557D01*
X153818000Y-43742000D01*
X153818000Y-47553000D01*
X151856000Y-47553000D01*
X151856000Y-45286432D01*
X151856000Y-43442000D01*
X151856000Y-43188000D01*
X151856000Y-41343568D01*
X151571195Y-41226805D01*
X151398109Y-41271080D01*
X150775262Y-41627656D01*
X150336282Y-42195443D01*
X150148000Y-42888000D01*
X150148000Y-43188000D01*
X151856000Y-43188000D01*
X151856000Y-43442000D01*
X150148000Y-43442000D01*
X150148000Y-43742000D01*
X150336282Y-44434557D01*
X150775262Y-45002344D01*
X151398109Y-45358920D01*
X151571195Y-45403195D01*
X151856000Y-45286432D01*
X151856000Y-47553000D01*
X148734422Y-47553000D01*
X148678319Y-47270949D01*
X148280541Y-46675632D01*
X147685224Y-46277854D01*
X147118457Y-46165117D01*
X147118457Y-29793166D01*
X146718147Y-28824342D01*
X145977557Y-28082458D01*
X145009433Y-27680458D01*
X143961166Y-27679543D01*
X142992342Y-28079853D01*
X142250458Y-28820443D01*
X141848458Y-29788567D01*
X141847543Y-30836834D01*
X142247853Y-31805658D01*
X142988443Y-32547542D01*
X143956567Y-32949542D01*
X145004834Y-32950457D01*
X145973658Y-32550147D01*
X146715542Y-31809557D01*
X147117542Y-30841433D01*
X147118457Y-29793166D01*
X147118457Y-46165117D01*
X146983000Y-46138173D01*
X146280776Y-46277854D01*
X145685459Y-46675632D01*
X145287681Y-47270949D01*
X145148000Y-47973173D01*
X145148000Y-48656827D01*
X145287681Y-49359051D01*
X145685459Y-49954368D01*
X146280776Y-50352146D01*
X146983000Y-50491827D01*
X147685224Y-50352146D01*
X148280541Y-49954368D01*
X148678319Y-49359051D01*
X148734422Y-49077000D01*
X225231577Y-49077000D01*
X225287681Y-49359051D01*
X225685459Y-49954368D01*
X226280776Y-50352146D01*
X226983000Y-50491827D01*
X227685224Y-50352146D01*
X228280541Y-49954368D01*
X228678319Y-49359051D01*
X228818000Y-48656827D01*
X228818000Y-65473173D01*
X228678319Y-64770949D01*
X228280541Y-64175632D01*
X227685224Y-63777854D01*
X226983000Y-63638173D01*
X226280776Y-63777854D01*
X225685459Y-64175632D01*
X225287681Y-64770949D01*
X225231577Y-65053000D01*
X223818000Y-65053000D01*
X223818000Y-61156827D01*
X223818000Y-60473173D01*
X223678319Y-59770949D01*
X223280541Y-59175632D01*
X222685224Y-58777854D01*
X221983000Y-58638173D01*
X221280776Y-58777854D01*
X220685459Y-59175632D01*
X220287681Y-59770949D01*
X220148000Y-60473173D01*
X220148000Y-61156827D01*
X220287681Y-61859051D01*
X220685459Y-62454368D01*
X221280776Y-62852146D01*
X221983000Y-62991827D01*
X222685224Y-62852146D01*
X223280541Y-62454368D01*
X223678319Y-61859051D01*
X223818000Y-61156827D01*
X223818000Y-65053000D01*
X153818000Y-65053000D01*
X153818000Y-61242000D01*
X153818000Y-60942000D01*
X153818000Y-60688000D01*
X153818000Y-60388000D01*
X153629718Y-59695443D01*
X153190738Y-59127656D01*
X152567891Y-58771080D01*
X152394805Y-58726805D01*
X152110000Y-58843568D01*
X152110000Y-60688000D01*
X153818000Y-60688000D01*
X153818000Y-60942000D01*
X152110000Y-60942000D01*
X152110000Y-62786432D01*
X152394805Y-62903195D01*
X152567891Y-62858920D01*
X153190738Y-62502344D01*
X153629718Y-61934557D01*
X153818000Y-61242000D01*
X153818000Y-65053000D01*
X151856000Y-65053000D01*
X151856000Y-62786432D01*
X151856000Y-60942000D01*
X151856000Y-60688000D01*
X151856000Y-58843568D01*
X151571195Y-58726805D01*
X151398109Y-58771080D01*
X150775262Y-59127656D01*
X150336282Y-59695443D01*
X150148000Y-60388000D01*
X150148000Y-60688000D01*
X151856000Y-60688000D01*
X151856000Y-60942000D01*
X150148000Y-60942000D01*
X150148000Y-61242000D01*
X150336282Y-61934557D01*
X150775262Y-62502344D01*
X151398109Y-62858920D01*
X151571195Y-62903195D01*
X151856000Y-62786432D01*
X151856000Y-65053000D01*
X148734422Y-65053000D01*
X148678319Y-64770949D01*
X148280541Y-64175632D01*
X147685224Y-63777854D01*
X146983000Y-63638173D01*
X146280776Y-63777854D01*
X145685459Y-64175632D01*
X145287681Y-64770949D01*
X145148000Y-65473173D01*
X145148000Y-66156827D01*
X145287681Y-66859051D01*
X145685459Y-67454368D01*
X146280776Y-67852146D01*
X146983000Y-67991827D01*
X147685224Y-67852146D01*
X148280541Y-67454368D01*
X148678319Y-66859051D01*
X148734422Y-66577000D01*
X225231577Y-66577000D01*
X225287681Y-66859051D01*
X225685459Y-67454368D01*
X226280776Y-67852146D01*
X226983000Y-67991827D01*
X227685224Y-67852146D01*
X228280541Y-67454368D01*
X228678319Y-66859051D01*
X228818000Y-66156827D01*
X228818000Y-82973173D01*
X228678319Y-82270949D01*
X228280541Y-81675632D01*
X227685224Y-81277854D01*
X226983000Y-81138173D01*
X226280776Y-81277854D01*
X225685459Y-81675632D01*
X225287681Y-82270949D01*
X225231577Y-82553000D01*
X223818000Y-82553000D01*
X223818000Y-78656827D01*
X223818000Y-77973173D01*
X223678319Y-77270949D01*
X223280541Y-76675632D01*
X222685224Y-76277854D01*
X221983000Y-76138173D01*
X221280776Y-76277854D01*
X220685459Y-76675632D01*
X220287681Y-77270949D01*
X220148000Y-77973173D01*
X220148000Y-78656827D01*
X220287681Y-79359051D01*
X220685459Y-79954368D01*
X221280776Y-80352146D01*
X221983000Y-80491827D01*
X222685224Y-80352146D01*
X223280541Y-79954368D01*
X223678319Y-79359051D01*
X223818000Y-78656827D01*
X223818000Y-82553000D01*
X153818000Y-82553000D01*
X153818000Y-78742000D01*
X153818000Y-78442000D01*
X153818000Y-78188000D01*
X153818000Y-77888000D01*
X153629718Y-77195443D01*
X153190738Y-76627656D01*
X152567891Y-76271080D01*
X152394805Y-76226805D01*
X152110000Y-76343568D01*
X152110000Y-78188000D01*
X153818000Y-78188000D01*
X153818000Y-78442000D01*
X152110000Y-78442000D01*
X152110000Y-80286432D01*
X152394805Y-80403195D01*
X152567891Y-80358920D01*
X153190738Y-80002344D01*
X153629718Y-79434557D01*
X153818000Y-78742000D01*
X153818000Y-82553000D01*
X151856000Y-82553000D01*
X151856000Y-80286432D01*
X151856000Y-78442000D01*
X151856000Y-78188000D01*
X151856000Y-76343568D01*
X151571195Y-76226805D01*
X151398109Y-76271080D01*
X150775262Y-76627656D01*
X150336282Y-77195443D01*
X150148000Y-77888000D01*
X150148000Y-78188000D01*
X151856000Y-78188000D01*
X151856000Y-78442000D01*
X150148000Y-78442000D01*
X150148000Y-78742000D01*
X150336282Y-79434557D01*
X150775262Y-80002344D01*
X151398109Y-80358920D01*
X151571195Y-80403195D01*
X151856000Y-80286432D01*
X151856000Y-82553000D01*
X148734422Y-82553000D01*
X148678319Y-82270949D01*
X148280541Y-81675632D01*
X147685224Y-81277854D01*
X146983000Y-81138173D01*
X146280776Y-81277854D01*
X145685459Y-81675632D01*
X145287681Y-82270949D01*
X145148000Y-82973173D01*
X145148000Y-83656827D01*
X145287681Y-84359051D01*
X145685459Y-84954368D01*
X146280776Y-85352146D01*
X146983000Y-85491827D01*
X147685224Y-85352146D01*
X148280541Y-84954368D01*
X148678319Y-84359051D01*
X148734422Y-84077000D01*
X225231577Y-84077000D01*
X225287681Y-84359051D01*
X225685459Y-84954368D01*
X226280776Y-85352146D01*
X226983000Y-85491827D01*
X227685224Y-85352146D01*
X228280541Y-84954368D01*
X228678319Y-84359051D01*
X228818000Y-83656827D01*
X228818000Y-100473173D01*
X228678319Y-99770949D01*
X228280541Y-99175632D01*
X227685224Y-98777854D01*
X226983000Y-98638173D01*
X226280776Y-98777854D01*
X225685459Y-99175632D01*
X225287681Y-99770949D01*
X225231577Y-100053000D01*
X223818000Y-100053000D01*
X223818000Y-96156827D01*
X223818000Y-95473173D01*
X223678319Y-94770949D01*
X223280541Y-94175632D01*
X222685224Y-93777854D01*
X221983000Y-93638173D01*
X221280776Y-93777854D01*
X220685459Y-94175632D01*
X220287681Y-94770949D01*
X220148000Y-95473173D01*
X220148000Y-96156827D01*
X220287681Y-96859051D01*
X220685459Y-97454368D01*
X221280776Y-97852146D01*
X221983000Y-97991827D01*
X222685224Y-97852146D01*
X223280541Y-97454368D01*
X223678319Y-96859051D01*
X223818000Y-96156827D01*
X223818000Y-100053000D01*
X153818000Y-100053000D01*
X153818000Y-96242000D01*
X153818000Y-95942000D01*
X153818000Y-95688000D01*
X153818000Y-95388000D01*
X153629718Y-94695443D01*
X153190738Y-94127656D01*
X152567891Y-93771080D01*
X152394805Y-93726805D01*
X152110000Y-93843568D01*
X152110000Y-95688000D01*
X153818000Y-95688000D01*
X153818000Y-95942000D01*
X152110000Y-95942000D01*
X152110000Y-97786432D01*
X152394805Y-97903195D01*
X152567891Y-97858920D01*
X153190738Y-97502344D01*
X153629718Y-96934557D01*
X153818000Y-96242000D01*
X153818000Y-100053000D01*
X151856000Y-100053000D01*
X151856000Y-97786432D01*
X151856000Y-95942000D01*
X151856000Y-95688000D01*
X151856000Y-93843568D01*
X151571195Y-93726805D01*
X151398109Y-93771080D01*
X150775262Y-94127656D01*
X150336282Y-94695443D01*
X150148000Y-95388000D01*
X150148000Y-95688000D01*
X151856000Y-95688000D01*
X151856000Y-95942000D01*
X150148000Y-95942000D01*
X150148000Y-96242000D01*
X150336282Y-96934557D01*
X150775262Y-97502344D01*
X151398109Y-97858920D01*
X151571195Y-97903195D01*
X151856000Y-97786432D01*
X151856000Y-100053000D01*
X148734422Y-100053000D01*
X148678319Y-99770949D01*
X148280541Y-99175632D01*
X147685224Y-98777854D01*
X146983000Y-98638173D01*
X146280776Y-98777854D01*
X145685459Y-99175632D01*
X145287681Y-99770949D01*
X145148000Y-100473173D01*
X145148000Y-101156827D01*
X145287681Y-101859051D01*
X145685459Y-102454368D01*
X146280776Y-102852146D01*
X146983000Y-102991827D01*
X147685224Y-102852146D01*
X148280541Y-102454368D01*
X148678319Y-101859051D01*
X148734422Y-101577000D01*
X225231577Y-101577000D01*
X225287681Y-101859051D01*
X225685459Y-102454368D01*
X226280776Y-102852146D01*
X226983000Y-102991827D01*
X227685224Y-102852146D01*
X228280541Y-102454368D01*
X228678319Y-101859051D01*
X228818000Y-101156827D01*
X228818000Y-105238697D01*
X227992342Y-105579853D01*
X227250458Y-106320443D01*
X226848458Y-107288567D01*
X226847543Y-108336834D01*
X227247853Y-109305658D01*
X227988443Y-110047542D01*
X228956567Y-110449542D01*
X230004834Y-110450457D01*
X230973658Y-110050147D01*
X231715542Y-109309557D01*
X232117542Y-108341433D01*
X232118457Y-107293166D01*
X232118457Y-112089635D01*
X231915532Y-112130000D01*
X147118457Y-112130000D01*
X147118457Y-107293166D01*
X146718147Y-106324342D01*
X145977557Y-105582458D01*
X145009433Y-105180458D01*
X143961166Y-105179543D01*
X142992342Y-105579853D01*
X142250458Y-106320443D01*
X141848458Y-107288567D01*
X141847543Y-108336834D01*
X142247853Y-109305658D01*
X142988443Y-110047542D01*
X143956567Y-110449542D01*
X145004834Y-110450457D01*
X145973658Y-110050147D01*
X146715542Y-109309557D01*
X147117542Y-108341433D01*
X147118457Y-107293166D01*
X147118457Y-112130000D01*
X142050467Y-112130000D01*
X141293564Y-111979442D01*
X140709089Y-111588908D01*
X140318556Y-111004434D01*
X140168000Y-110247532D01*
X140168000Y-107815000D01*
X140168000Y-105315000D01*
X140168000Y-27882467D01*
X140318556Y-27125565D01*
X140709089Y-26541091D01*
X141293564Y-26150557D01*
X142050467Y-26000000D01*
X231915532Y-26000000D01*
X232672434Y-26150556D01*
X233256908Y-26541089D01*
X233647442Y-27125564D01*
X233798000Y-27882467D01*
X233798000Y-105315000D01*
X233798000Y-107815000D01*
X233798000Y-110247532D01*
G36*
X233798000Y-204227532D02*
X233647442Y-204984435D01*
X233256908Y-205568910D01*
X232672434Y-205959443D01*
X232118457Y-206069635D01*
X232118457Y-201273166D01*
X232118457Y-123773166D01*
X231718147Y-122804342D01*
X230977557Y-122062458D01*
X230009433Y-121660458D01*
X228961166Y-121659543D01*
X227992342Y-122059853D01*
X227250458Y-122800443D01*
X226848458Y-123768567D01*
X226847543Y-124816834D01*
X227247853Y-125785658D01*
X227988443Y-126527542D01*
X228956567Y-126929542D01*
X230004834Y-126930457D01*
X230973658Y-126530147D01*
X231715542Y-125789557D01*
X232117542Y-124821433D01*
X232118457Y-123773166D01*
X232118457Y-201273166D01*
X231718147Y-200304342D01*
X230977557Y-199562458D01*
X230009433Y-199160458D01*
X228961166Y-199159543D01*
X228818000Y-199218697D01*
X228818000Y-195136827D01*
X228818000Y-194453173D01*
X228818000Y-177636827D01*
X228818000Y-176953173D01*
X228818000Y-160136827D01*
X228818000Y-159453173D01*
X228818000Y-142636827D01*
X228818000Y-141953173D01*
X228678319Y-141250949D01*
X228280541Y-140655632D01*
X227685224Y-140257854D01*
X226983000Y-140118173D01*
X226280776Y-140257854D01*
X225685459Y-140655632D01*
X225287681Y-141250949D01*
X225231577Y-141533000D01*
X223818000Y-141533000D01*
X223818000Y-137636827D01*
X223818000Y-136953173D01*
X223678319Y-136250949D01*
X223280541Y-135655632D01*
X222745000Y-135297795D01*
X222745000Y-131795000D01*
X222745000Y-131305000D01*
X222686996Y-131013396D01*
X222686996Y-131013395D01*
X222620834Y-130914376D01*
X222521816Y-130766185D01*
X214061815Y-122306185D01*
X213814605Y-122141004D01*
X213523000Y-122083000D01*
X211643712Y-122083000D01*
X211492819Y-121857172D01*
X211039600Y-121554340D01*
X210504991Y-121448000D01*
X209761009Y-121448000D01*
X209226400Y-121554340D01*
X208773181Y-121857172D01*
X208622287Y-122083000D01*
X205143712Y-122083000D01*
X204992819Y-121857172D01*
X204539600Y-121554340D01*
X204004991Y-121448000D01*
X203313630Y-121448000D01*
X202621815Y-120756185D01*
X202374605Y-120591004D01*
X202083000Y-120533000D01*
X201853273Y-120533000D01*
X201803000Y-120523000D01*
X201752726Y-120533000D01*
X184483000Y-120533000D01*
X184191395Y-120591004D01*
X183944185Y-120756185D01*
X181970927Y-122729442D01*
X181409511Y-122841115D01*
X180923330Y-123165971D01*
X180598474Y-123652152D01*
X180484400Y-124225641D01*
X180484400Y-124284359D01*
X180598474Y-124857848D01*
X180910300Y-125324529D01*
X180877277Y-125330937D01*
X180664473Y-125470727D01*
X180522023Y-125681760D01*
X180471960Y-125931400D01*
X180471960Y-127568409D01*
X178780622Y-129259747D01*
X178780622Y-126975922D01*
X178780440Y-126972777D01*
X178780440Y-124945000D01*
X178780440Y-123645000D01*
X178733463Y-123402877D01*
X178593673Y-123190073D01*
X178382640Y-123047623D01*
X178133000Y-122997560D01*
X176833000Y-122997560D01*
X176590877Y-123044537D01*
X176378073Y-123184327D01*
X176235623Y-123395360D01*
X176208020Y-123533000D01*
X173378630Y-123533000D01*
X172151815Y-122306185D01*
X171904605Y-122141004D01*
X171613000Y-122083000D01*
X171003712Y-122083000D01*
X170852819Y-121857172D01*
X170399600Y-121554340D01*
X169864991Y-121448000D01*
X169121009Y-121448000D01*
X168586400Y-121554340D01*
X168133181Y-121857172D01*
X167982287Y-122083000D01*
X164503712Y-122083000D01*
X164352819Y-121857172D01*
X163899600Y-121554340D01*
X163364991Y-121448000D01*
X162621009Y-121448000D01*
X162086400Y-121554340D01*
X161633181Y-121857172D01*
X161330349Y-122310391D01*
X161224009Y-122845000D01*
X161330349Y-123379609D01*
X161633181Y-123832828D01*
X162086400Y-124135660D01*
X162621009Y-124242000D01*
X163364991Y-124242000D01*
X163899600Y-124135660D01*
X164352819Y-123832828D01*
X164503712Y-123607000D01*
X167982287Y-123607000D01*
X168133181Y-123832828D01*
X168586400Y-124135660D01*
X169121009Y-124242000D01*
X169864991Y-124242000D01*
X170399600Y-124135660D01*
X170852819Y-123832828D01*
X171003712Y-123607000D01*
X171297369Y-123607000D01*
X172524185Y-124833816D01*
X172672376Y-124932834D01*
X172771395Y-124998996D01*
X172771396Y-124998996D01*
X173063000Y-125057000D01*
X176207290Y-125057000D01*
X176232537Y-125187123D01*
X176372327Y-125399927D01*
X176583360Y-125542377D01*
X176833000Y-125592440D01*
X176995385Y-125592440D01*
X176819271Y-125665389D01*
X176763590Y-125895984D01*
X177483000Y-126615395D01*
X178202410Y-125895984D01*
X178146729Y-125665389D01*
X177937098Y-125592440D01*
X178133000Y-125592440D01*
X178375123Y-125545463D01*
X178587927Y-125405673D01*
X178730377Y-125194640D01*
X178780440Y-124945000D01*
X178780440Y-126972777D01*
X178751083Y-126465572D01*
X178612611Y-126131271D01*
X178382016Y-126075590D01*
X177662605Y-126795000D01*
X178382016Y-127514410D01*
X178612611Y-127458729D01*
X178780622Y-126975922D01*
X178780622Y-129259747D01*
X178627369Y-129413000D01*
X178202410Y-129413000D01*
X178202410Y-127694016D01*
X177483000Y-126974605D01*
X177303395Y-127154210D01*
X177303395Y-126795000D01*
X176583984Y-126075590D01*
X176353389Y-126131271D01*
X176185378Y-126614078D01*
X176214917Y-127124428D01*
X176353389Y-127458729D01*
X176583984Y-127514410D01*
X177303395Y-126795000D01*
X177303395Y-127154210D01*
X176763590Y-127694016D01*
X176819271Y-127924611D01*
X177302078Y-128092622D01*
X177812428Y-128063083D01*
X178146729Y-127924611D01*
X178202410Y-127694016D01*
X178202410Y-129413000D01*
X172638630Y-129413000D01*
X171135458Y-127909828D01*
X171155651Y-127879609D01*
X171261991Y-127345000D01*
X171155651Y-126810391D01*
X170852819Y-126357172D01*
X170399600Y-126054340D01*
X169864991Y-125948000D01*
X169121009Y-125948000D01*
X168586400Y-126054340D01*
X168133181Y-126357172D01*
X167982287Y-126583000D01*
X164503712Y-126583000D01*
X164352819Y-126357172D01*
X163899600Y-126054340D01*
X163364991Y-125948000D01*
X162621009Y-125948000D01*
X162086400Y-126054340D01*
X161633181Y-126357172D01*
X161330349Y-126810391D01*
X161224009Y-127345000D01*
X161330349Y-127879609D01*
X161633181Y-128332828D01*
X162086400Y-128635660D01*
X162621009Y-128742000D01*
X163364991Y-128742000D01*
X163899600Y-128635660D01*
X164352819Y-128332828D01*
X164503712Y-128107000D01*
X167982287Y-128107000D01*
X168133181Y-128332828D01*
X168586400Y-128635660D01*
X169121009Y-128742000D01*
X169812369Y-128742000D01*
X171784184Y-130713815D01*
X171784185Y-130713815D01*
X172031395Y-130878996D01*
X172323000Y-130937000D01*
X178943000Y-130937000D01*
X178943000Y-130936999D01*
X179234604Y-130878996D01*
X179234605Y-130878996D01*
X179481815Y-130713815D01*
X181889590Y-128306040D01*
X182846600Y-128306040D01*
X183088723Y-128259063D01*
X183301527Y-128119273D01*
X183443977Y-127908240D01*
X183452179Y-127867340D01*
X183463330Y-127884029D01*
X183949511Y-128208885D01*
X184523000Y-128322959D01*
X185096489Y-128208885D01*
X185582670Y-127884029D01*
X185793000Y-127569248D01*
X186003330Y-127884029D01*
X186489511Y-128208885D01*
X187063000Y-128322959D01*
X187636489Y-128208885D01*
X188122670Y-127884029D01*
X188333000Y-127569248D01*
X188543330Y-127884029D01*
X189029511Y-128208885D01*
X189603000Y-128322959D01*
X190176489Y-128208885D01*
X190662670Y-127884029D01*
X190873000Y-127569248D01*
X191083330Y-127884029D01*
X191569511Y-128208885D01*
X192143000Y-128322959D01*
X192716489Y-128208885D01*
X193202670Y-127884029D01*
X193421183Y-127557000D01*
X201906178Y-127557000D01*
X201970349Y-127879609D01*
X202273181Y-128332828D01*
X202726400Y-128635660D01*
X203261009Y-128742000D01*
X204004991Y-128742000D01*
X204539600Y-128635660D01*
X204992819Y-128332828D01*
X205295651Y-127879609D01*
X205401991Y-127345000D01*
X205295651Y-126810391D01*
X204992819Y-126357172D01*
X204539600Y-126054340D01*
X204004991Y-125948000D01*
X203261009Y-125948000D01*
X202833683Y-126033000D01*
X193421183Y-126033000D01*
X193202670Y-125705971D01*
X192931839Y-125525007D01*
X193349821Y-125143490D01*
X193597968Y-124614027D01*
X193597968Y-123895973D01*
X193349821Y-123366510D01*
X192917947Y-122972312D01*
X192502026Y-122800042D01*
X192270000Y-122921183D01*
X192270000Y-124128000D01*
X193477469Y-124128000D01*
X193597968Y-123895973D01*
X193597968Y-124614027D01*
X193477469Y-124382000D01*
X192270000Y-124382000D01*
X192270000Y-124402000D01*
X192016000Y-124402000D01*
X192016000Y-124382000D01*
X191996000Y-124382000D01*
X191996000Y-124128000D01*
X192016000Y-124128000D01*
X192016000Y-122921183D01*
X191783974Y-122800042D01*
X191368053Y-122972312D01*
X190936179Y-123366510D01*
X190878663Y-123489228D01*
X190662670Y-123165971D01*
X190176489Y-122841115D01*
X189603000Y-122727041D01*
X189029511Y-122841115D01*
X188543330Y-123165971D01*
X188333000Y-123480751D01*
X188122670Y-123165971D01*
X187636489Y-122841115D01*
X187063000Y-122727041D01*
X186489511Y-122841115D01*
X186003330Y-123165971D01*
X185793000Y-123480751D01*
X185582670Y-123165971D01*
X185096489Y-122841115D01*
X184523000Y-122727041D01*
X184030655Y-122824974D01*
X184798630Y-122057000D01*
X201767370Y-122057000D01*
X201990541Y-122280171D01*
X201970349Y-122310391D01*
X201864009Y-122845000D01*
X201970349Y-123379609D01*
X202273181Y-123832828D01*
X202726400Y-124135660D01*
X203261009Y-124242000D01*
X204004991Y-124242000D01*
X204539600Y-124135660D01*
X204992819Y-123832828D01*
X205143712Y-123607000D01*
X208622287Y-123607000D01*
X208773181Y-123832828D01*
X209226400Y-124135660D01*
X209761009Y-124242000D01*
X210504991Y-124242000D01*
X211039600Y-124135660D01*
X211492819Y-123832828D01*
X211643712Y-123607000D01*
X213207369Y-123607000D01*
X221221000Y-131620630D01*
X221221000Y-131795000D01*
X221221000Y-135297795D01*
X220685459Y-135655632D01*
X220287681Y-136250949D01*
X220148000Y-136953173D01*
X220148000Y-137636827D01*
X220287681Y-138339051D01*
X220685459Y-138934368D01*
X221280776Y-139332146D01*
X221983000Y-139471827D01*
X222685224Y-139332146D01*
X223280541Y-138934368D01*
X223678319Y-138339051D01*
X223818000Y-137636827D01*
X223818000Y-141533000D01*
X211901991Y-141533000D01*
X211901991Y-127345000D01*
X211795651Y-126810391D01*
X211492819Y-126357172D01*
X211039600Y-126054340D01*
X210504991Y-125948000D01*
X209761009Y-125948000D01*
X209226400Y-126054340D01*
X208773181Y-126357172D01*
X208470349Y-126810391D01*
X208364009Y-127345000D01*
X208470349Y-127879609D01*
X208773181Y-128332828D01*
X209226400Y-128635660D01*
X209761009Y-128742000D01*
X210504991Y-128742000D01*
X211039600Y-128635660D01*
X211492819Y-128332828D01*
X211795651Y-127879609D01*
X211901991Y-127345000D01*
X211901991Y-141533000D01*
X153818000Y-141533000D01*
X153818000Y-137722000D01*
X153818000Y-137422000D01*
X153818000Y-137168000D01*
X153818000Y-136868000D01*
X153629718Y-136175443D01*
X153190738Y-135607656D01*
X152567891Y-135251080D01*
X152394805Y-135206805D01*
X152110000Y-135323568D01*
X152110000Y-137168000D01*
X153818000Y-137168000D01*
X153818000Y-137422000D01*
X152110000Y-137422000D01*
X152110000Y-139266432D01*
X152394805Y-139383195D01*
X152567891Y-139338920D01*
X153190738Y-138982344D01*
X153629718Y-138414557D01*
X153818000Y-137722000D01*
X153818000Y-141533000D01*
X151856000Y-141533000D01*
X151856000Y-139266432D01*
X151856000Y-137422000D01*
X151856000Y-137168000D01*
X151856000Y-135323568D01*
X151571195Y-135206805D01*
X151398109Y-135251080D01*
X150775262Y-135607656D01*
X150336282Y-136175443D01*
X150148000Y-136868000D01*
X150148000Y-137168000D01*
X151856000Y-137168000D01*
X151856000Y-137422000D01*
X150148000Y-137422000D01*
X150148000Y-137722000D01*
X150336282Y-138414557D01*
X150775262Y-138982344D01*
X151398109Y-139338920D01*
X151571195Y-139383195D01*
X151856000Y-139266432D01*
X151856000Y-141533000D01*
X148734422Y-141533000D01*
X148678319Y-141250949D01*
X148280541Y-140655632D01*
X147685224Y-140257854D01*
X147118457Y-140145117D01*
X147118457Y-123773166D01*
X146718147Y-122804342D01*
X145977557Y-122062458D01*
X145009433Y-121660458D01*
X143961166Y-121659543D01*
X142992342Y-122059853D01*
X142250458Y-122800443D01*
X141848458Y-123768567D01*
X141847543Y-124816834D01*
X142247853Y-125785658D01*
X142988443Y-126527542D01*
X143956567Y-126929542D01*
X145004834Y-126930457D01*
X145973658Y-126530147D01*
X146715542Y-125789557D01*
X147117542Y-124821433D01*
X147118457Y-123773166D01*
X147118457Y-140145117D01*
X146983000Y-140118173D01*
X146280776Y-140257854D01*
X145685459Y-140655632D01*
X145287681Y-141250949D01*
X145148000Y-141953173D01*
X145148000Y-142636827D01*
X145287681Y-143339051D01*
X145685459Y-143934368D01*
X146280776Y-144332146D01*
X146983000Y-144471827D01*
X147685224Y-144332146D01*
X148280541Y-143934368D01*
X148678319Y-143339051D01*
X148734422Y-143057000D01*
X225231577Y-143057000D01*
X225287681Y-143339051D01*
X225685459Y-143934368D01*
X226280776Y-144332146D01*
X226983000Y-144471827D01*
X227685224Y-144332146D01*
X228280541Y-143934368D01*
X228678319Y-143339051D01*
X228818000Y-142636827D01*
X228818000Y-159453173D01*
X228678319Y-158750949D01*
X228280541Y-158155632D01*
X227685224Y-157757854D01*
X226983000Y-157618173D01*
X226280776Y-157757854D01*
X225685459Y-158155632D01*
X225287681Y-158750949D01*
X225231577Y-159033000D01*
X223818000Y-159033000D01*
X223818000Y-155136827D01*
X223818000Y-154453173D01*
X223678319Y-153750949D01*
X223280541Y-153155632D01*
X222685224Y-152757854D01*
X221983000Y-152618173D01*
X221280776Y-152757854D01*
X220685459Y-153155632D01*
X220287681Y-153750949D01*
X220148000Y-154453173D01*
X220148000Y-155136827D01*
X220287681Y-155839051D01*
X220685459Y-156434368D01*
X221280776Y-156832146D01*
X221983000Y-156971827D01*
X222685224Y-156832146D01*
X223280541Y-156434368D01*
X223678319Y-155839051D01*
X223818000Y-155136827D01*
X223818000Y-159033000D01*
X153818000Y-159033000D01*
X153818000Y-155222000D01*
X153818000Y-154922000D01*
X153818000Y-154668000D01*
X153818000Y-154368000D01*
X153629718Y-153675443D01*
X153190738Y-153107656D01*
X152567891Y-152751080D01*
X152394805Y-152706805D01*
X152110000Y-152823568D01*
X152110000Y-154668000D01*
X153818000Y-154668000D01*
X153818000Y-154922000D01*
X152110000Y-154922000D01*
X152110000Y-156766432D01*
X152394805Y-156883195D01*
X152567891Y-156838920D01*
X153190738Y-156482344D01*
X153629718Y-155914557D01*
X153818000Y-155222000D01*
X153818000Y-159033000D01*
X151856000Y-159033000D01*
X151856000Y-156766432D01*
X151856000Y-154922000D01*
X151856000Y-154668000D01*
X151856000Y-152823568D01*
X151571195Y-152706805D01*
X151398109Y-152751080D01*
X150775262Y-153107656D01*
X150336282Y-153675443D01*
X150148000Y-154368000D01*
X150148000Y-154668000D01*
X151856000Y-154668000D01*
X151856000Y-154922000D01*
X150148000Y-154922000D01*
X150148000Y-155222000D01*
X150336282Y-155914557D01*
X150775262Y-156482344D01*
X151398109Y-156838920D01*
X151571195Y-156883195D01*
X151856000Y-156766432D01*
X151856000Y-159033000D01*
X148734422Y-159033000D01*
X148678319Y-158750949D01*
X148280541Y-158155632D01*
X147685224Y-157757854D01*
X146983000Y-157618173D01*
X146280776Y-157757854D01*
X145685459Y-158155632D01*
X145287681Y-158750949D01*
X145148000Y-159453173D01*
X145148000Y-160136827D01*
X145287681Y-160839051D01*
X145685459Y-161434368D01*
X146280776Y-161832146D01*
X146983000Y-161971827D01*
X147685224Y-161832146D01*
X148280541Y-161434368D01*
X148678319Y-160839051D01*
X148734422Y-160557000D01*
X225231577Y-160557000D01*
X225287681Y-160839051D01*
X225685459Y-161434368D01*
X226280776Y-161832146D01*
X226983000Y-161971827D01*
X227685224Y-161832146D01*
X228280541Y-161434368D01*
X228678319Y-160839051D01*
X228818000Y-160136827D01*
X228818000Y-176953173D01*
X228678319Y-176250949D01*
X228280541Y-175655632D01*
X227685224Y-175257854D01*
X226983000Y-175118173D01*
X226280776Y-175257854D01*
X225685459Y-175655632D01*
X225287681Y-176250949D01*
X225231577Y-176533000D01*
X223818000Y-176533000D01*
X223818000Y-172636827D01*
X223818000Y-171953173D01*
X223678319Y-171250949D01*
X223280541Y-170655632D01*
X222685224Y-170257854D01*
X221983000Y-170118173D01*
X221280776Y-170257854D01*
X220685459Y-170655632D01*
X220287681Y-171250949D01*
X220148000Y-171953173D01*
X220148000Y-172636827D01*
X220287681Y-173339051D01*
X220685459Y-173934368D01*
X221280776Y-174332146D01*
X221983000Y-174471827D01*
X222685224Y-174332146D01*
X223280541Y-173934368D01*
X223678319Y-173339051D01*
X223818000Y-172636827D01*
X223818000Y-176533000D01*
X153818000Y-176533000D01*
X153818000Y-172722000D01*
X153818000Y-172422000D01*
X153818000Y-172168000D01*
X153818000Y-171868000D01*
X153629718Y-171175443D01*
X153190738Y-170607656D01*
X152567891Y-170251080D01*
X152394805Y-170206805D01*
X152110000Y-170323568D01*
X152110000Y-172168000D01*
X153818000Y-172168000D01*
X153818000Y-172422000D01*
X152110000Y-172422000D01*
X152110000Y-174266432D01*
X152394805Y-174383195D01*
X152567891Y-174338920D01*
X153190738Y-173982344D01*
X153629718Y-173414557D01*
X153818000Y-172722000D01*
X153818000Y-176533000D01*
X151856000Y-176533000D01*
X151856000Y-174266432D01*
X151856000Y-172422000D01*
X151856000Y-172168000D01*
X151856000Y-170323568D01*
X151571195Y-170206805D01*
X151398109Y-170251080D01*
X150775262Y-170607656D01*
X150336282Y-171175443D01*
X150148000Y-171868000D01*
X150148000Y-172168000D01*
X151856000Y-172168000D01*
X151856000Y-172422000D01*
X150148000Y-172422000D01*
X150148000Y-172722000D01*
X150336282Y-173414557D01*
X150775262Y-173982344D01*
X151398109Y-174338920D01*
X151571195Y-174383195D01*
X151856000Y-174266432D01*
X151856000Y-176533000D01*
X148734422Y-176533000D01*
X148678319Y-176250949D01*
X148280541Y-175655632D01*
X147685224Y-175257854D01*
X146983000Y-175118173D01*
X146280776Y-175257854D01*
X145685459Y-175655632D01*
X145287681Y-176250949D01*
X145148000Y-176953173D01*
X145148000Y-177636827D01*
X145287681Y-178339051D01*
X145685459Y-178934368D01*
X146280776Y-179332146D01*
X146983000Y-179471827D01*
X147685224Y-179332146D01*
X148280541Y-178934368D01*
X148678319Y-178339051D01*
X148734422Y-178057000D01*
X225231577Y-178057000D01*
X225287681Y-178339051D01*
X225685459Y-178934368D01*
X226280776Y-179332146D01*
X226983000Y-179471827D01*
X227685224Y-179332146D01*
X228280541Y-178934368D01*
X228678319Y-178339051D01*
X228818000Y-177636827D01*
X228818000Y-194453173D01*
X228678319Y-193750949D01*
X228280541Y-193155632D01*
X227685224Y-192757854D01*
X226983000Y-192618173D01*
X226280776Y-192757854D01*
X225685459Y-193155632D01*
X225287681Y-193750949D01*
X225231577Y-194033000D01*
X223818000Y-194033000D01*
X223818000Y-190136827D01*
X223818000Y-189453173D01*
X223678319Y-188750949D01*
X223280541Y-188155632D01*
X222685224Y-187757854D01*
X221983000Y-187618173D01*
X221280776Y-187757854D01*
X220685459Y-188155632D01*
X220287681Y-188750949D01*
X220148000Y-189453173D01*
X220148000Y-190136827D01*
X220287681Y-190839051D01*
X220685459Y-191434368D01*
X221280776Y-191832146D01*
X221983000Y-191971827D01*
X222685224Y-191832146D01*
X223280541Y-191434368D01*
X223678319Y-190839051D01*
X223818000Y-190136827D01*
X223818000Y-194033000D01*
X153818000Y-194033000D01*
X153818000Y-190222000D01*
X153818000Y-189922000D01*
X153818000Y-189668000D01*
X153818000Y-189368000D01*
X153629718Y-188675443D01*
X153190738Y-188107656D01*
X152567891Y-187751080D01*
X152394805Y-187706805D01*
X152110000Y-187823568D01*
X152110000Y-189668000D01*
X153818000Y-189668000D01*
X153818000Y-189922000D01*
X152110000Y-189922000D01*
X152110000Y-191766432D01*
X152394805Y-191883195D01*
X152567891Y-191838920D01*
X153190738Y-191482344D01*
X153629718Y-190914557D01*
X153818000Y-190222000D01*
X153818000Y-194033000D01*
X151856000Y-194033000D01*
X151856000Y-191766432D01*
X151856000Y-189922000D01*
X151856000Y-189668000D01*
X151856000Y-187823568D01*
X151571195Y-187706805D01*
X151398109Y-187751080D01*
X150775262Y-188107656D01*
X150336282Y-188675443D01*
X150148000Y-189368000D01*
X150148000Y-189668000D01*
X151856000Y-189668000D01*
X151856000Y-189922000D01*
X150148000Y-189922000D01*
X150148000Y-190222000D01*
X150336282Y-190914557D01*
X150775262Y-191482344D01*
X151398109Y-191838920D01*
X151571195Y-191883195D01*
X151856000Y-191766432D01*
X151856000Y-194033000D01*
X148734422Y-194033000D01*
X148678319Y-193750949D01*
X148280541Y-193155632D01*
X147685224Y-192757854D01*
X146983000Y-192618173D01*
X146280776Y-192757854D01*
X145685459Y-193155632D01*
X145287681Y-193750949D01*
X145148000Y-194453173D01*
X145148000Y-195136827D01*
X145287681Y-195839051D01*
X145685459Y-196434368D01*
X146280776Y-196832146D01*
X146983000Y-196971827D01*
X147685224Y-196832146D01*
X148280541Y-196434368D01*
X148678319Y-195839051D01*
X148734422Y-195557000D01*
X225231577Y-195557000D01*
X225287681Y-195839051D01*
X225685459Y-196434368D01*
X226280776Y-196832146D01*
X226983000Y-196971827D01*
X227685224Y-196832146D01*
X228280541Y-196434368D01*
X228678319Y-195839051D01*
X228818000Y-195136827D01*
X228818000Y-199218697D01*
X227992342Y-199559853D01*
X227250458Y-200300443D01*
X226848458Y-201268567D01*
X226847543Y-202316834D01*
X227247853Y-203285658D01*
X227988443Y-204027542D01*
X228956567Y-204429542D01*
X230004834Y-204430457D01*
X230973658Y-204030147D01*
X231715542Y-203289557D01*
X232117542Y-202321433D01*
X232118457Y-201273166D01*
X232118457Y-206069635D01*
X231915532Y-206110000D01*
X147118457Y-206110000D01*
X147118457Y-201273166D01*
X146718147Y-200304342D01*
X145977557Y-199562458D01*
X145009433Y-199160458D01*
X143961166Y-199159543D01*
X142992342Y-199559853D01*
X142250458Y-200300443D01*
X141848458Y-201268567D01*
X141847543Y-202316834D01*
X142247853Y-203285658D01*
X142988443Y-204027542D01*
X143956567Y-204429542D01*
X145004834Y-204430457D01*
X145973658Y-204030147D01*
X146715542Y-203289557D01*
X147117542Y-202321433D01*
X147118457Y-201273166D01*
X147118457Y-206110000D01*
X142050467Y-206110000D01*
X141293564Y-205959442D01*
X140709089Y-205568908D01*
X140318556Y-204984434D01*
X140168000Y-204227532D01*
X140168000Y-201795000D01*
X140168000Y-199295000D01*
X140168000Y-121862467D01*
X140318556Y-121105565D01*
X140709089Y-120521091D01*
X141293564Y-120130557D01*
X142050467Y-119980000D01*
X231915532Y-119980000D01*
X232672434Y-120130556D01*
X233256908Y-120521089D01*
X233647442Y-121105564D01*
X233798000Y-121862467D01*
X233798000Y-199295000D01*
X233798000Y-201795000D01*
X233798000Y-204227532D01*
X233798000Y-204227532D01*
G37*
X233798000Y-204227532D02*
X233647442Y-204984435D01*
X233256908Y-205568910D01*
X232672434Y-205959443D01*
X232118457Y-206069635D01*
X232118457Y-201273166D01*
X232118457Y-123773166D01*
X231718147Y-122804342D01*
X230977557Y-122062458D01*
X230009433Y-121660458D01*
X228961166Y-121659543D01*
X227992342Y-122059853D01*
X227250458Y-122800443D01*
X226848458Y-123768567D01*
X226847543Y-124816834D01*
X227247853Y-125785658D01*
X227988443Y-126527542D01*
X228956567Y-126929542D01*
X230004834Y-126930457D01*
X230973658Y-126530147D01*
X231715542Y-125789557D01*
X232117542Y-124821433D01*
X232118457Y-123773166D01*
X232118457Y-201273166D01*
X231718147Y-200304342D01*
X230977557Y-199562458D01*
X230009433Y-199160458D01*
X228961166Y-199159543D01*
X228818000Y-199218697D01*
X228818000Y-195136827D01*
X228818000Y-194453173D01*
X228818000Y-177636827D01*
X228818000Y-176953173D01*
X228818000Y-160136827D01*
X228818000Y-159453173D01*
X228818000Y-142636827D01*
X228818000Y-141953173D01*
X228678319Y-141250949D01*
X228280541Y-140655632D01*
X227685224Y-140257854D01*
X226983000Y-140118173D01*
X226280776Y-140257854D01*
X225685459Y-140655632D01*
X225287681Y-141250949D01*
X225231577Y-141533000D01*
X223818000Y-141533000D01*
X223818000Y-137636827D01*
X223818000Y-136953173D01*
X223678319Y-136250949D01*
X223280541Y-135655632D01*
X222745000Y-135297795D01*
X222745000Y-131795000D01*
X222745000Y-131305000D01*
X222686996Y-131013396D01*
X222686996Y-131013395D01*
X222620834Y-130914376D01*
X222521816Y-130766185D01*
X214061815Y-122306185D01*
X213814605Y-122141004D01*
X213523000Y-122083000D01*
X211643712Y-122083000D01*
X211492819Y-121857172D01*
X211039600Y-121554340D01*
X210504991Y-121448000D01*
X209761009Y-121448000D01*
X209226400Y-121554340D01*
X208773181Y-121857172D01*
X208622287Y-122083000D01*
X205143712Y-122083000D01*
X204992819Y-121857172D01*
X204539600Y-121554340D01*
X204004991Y-121448000D01*
X203313630Y-121448000D01*
X202621815Y-120756185D01*
X202374605Y-120591004D01*
X202083000Y-120533000D01*
X201853273Y-120533000D01*
X201803000Y-120523000D01*
X201752726Y-120533000D01*
X184483000Y-120533000D01*
X184191395Y-120591004D01*
X183944185Y-120756185D01*
X181970927Y-122729442D01*
X181409511Y-122841115D01*
X180923330Y-123165971D01*
X180598474Y-123652152D01*
X180484400Y-124225641D01*
X180484400Y-124284359D01*
X180598474Y-124857848D01*
X180910300Y-125324529D01*
X180877277Y-125330937D01*
X180664473Y-125470727D01*
X180522023Y-125681760D01*
X180471960Y-125931400D01*
X180471960Y-127568409D01*
X178780622Y-129259747D01*
X178780622Y-126975922D01*
X178780440Y-126972777D01*
X178780440Y-124945000D01*
X178780440Y-123645000D01*
X178733463Y-123402877D01*
X178593673Y-123190073D01*
X178382640Y-123047623D01*
X178133000Y-122997560D01*
X176833000Y-122997560D01*
X176590877Y-123044537D01*
X176378073Y-123184327D01*
X176235623Y-123395360D01*
X176208020Y-123533000D01*
X173378630Y-123533000D01*
X172151815Y-122306185D01*
X171904605Y-122141004D01*
X171613000Y-122083000D01*
X171003712Y-122083000D01*
X170852819Y-121857172D01*
X170399600Y-121554340D01*
X169864991Y-121448000D01*
X169121009Y-121448000D01*
X168586400Y-121554340D01*
X168133181Y-121857172D01*
X167982287Y-122083000D01*
X164503712Y-122083000D01*
X164352819Y-121857172D01*
X163899600Y-121554340D01*
X163364991Y-121448000D01*
X162621009Y-121448000D01*
X162086400Y-121554340D01*
X161633181Y-121857172D01*
X161330349Y-122310391D01*
X161224009Y-122845000D01*
X161330349Y-123379609D01*
X161633181Y-123832828D01*
X162086400Y-124135660D01*
X162621009Y-124242000D01*
X163364991Y-124242000D01*
X163899600Y-124135660D01*
X164352819Y-123832828D01*
X164503712Y-123607000D01*
X167982287Y-123607000D01*
X168133181Y-123832828D01*
X168586400Y-124135660D01*
X169121009Y-124242000D01*
X169864991Y-124242000D01*
X170399600Y-124135660D01*
X170852819Y-123832828D01*
X171003712Y-123607000D01*
X171297369Y-123607000D01*
X172524185Y-124833816D01*
X172672376Y-124932834D01*
X172771395Y-124998996D01*
X172771396Y-124998996D01*
X173063000Y-125057000D01*
X176207290Y-125057000D01*
X176232537Y-125187123D01*
X176372327Y-125399927D01*
X176583360Y-125542377D01*
X176833000Y-125592440D01*
X176995385Y-125592440D01*
X176819271Y-125665389D01*
X176763590Y-125895984D01*
X177483000Y-126615395D01*
X178202410Y-125895984D01*
X178146729Y-125665389D01*
X177937098Y-125592440D01*
X178133000Y-125592440D01*
X178375123Y-125545463D01*
X178587927Y-125405673D01*
X178730377Y-125194640D01*
X178780440Y-124945000D01*
X178780440Y-126972777D01*
X178751083Y-126465572D01*
X178612611Y-126131271D01*
X178382016Y-126075590D01*
X177662605Y-126795000D01*
X178382016Y-127514410D01*
X178612611Y-127458729D01*
X178780622Y-126975922D01*
X178780622Y-129259747D01*
X178627369Y-129413000D01*
X178202410Y-129413000D01*
X178202410Y-127694016D01*
X177483000Y-126974605D01*
X177303395Y-127154210D01*
X177303395Y-126795000D01*
X176583984Y-126075590D01*
X176353389Y-126131271D01*
X176185378Y-126614078D01*
X176214917Y-127124428D01*
X176353389Y-127458729D01*
X176583984Y-127514410D01*
X177303395Y-126795000D01*
X177303395Y-127154210D01*
X176763590Y-127694016D01*
X176819271Y-127924611D01*
X177302078Y-128092622D01*
X177812428Y-128063083D01*
X178146729Y-127924611D01*
X178202410Y-127694016D01*
X178202410Y-129413000D01*
X172638630Y-129413000D01*
X171135458Y-127909828D01*
X171155651Y-127879609D01*
X171261991Y-127345000D01*
X171155651Y-126810391D01*
X170852819Y-126357172D01*
X170399600Y-126054340D01*
X169864991Y-125948000D01*
X169121009Y-125948000D01*
X168586400Y-126054340D01*
X168133181Y-126357172D01*
X167982287Y-126583000D01*
X164503712Y-126583000D01*
X164352819Y-126357172D01*
X163899600Y-126054340D01*
X163364991Y-125948000D01*
X162621009Y-125948000D01*
X162086400Y-126054340D01*
X161633181Y-126357172D01*
X161330349Y-126810391D01*
X161224009Y-127345000D01*
X161330349Y-127879609D01*
X161633181Y-128332828D01*
X162086400Y-128635660D01*
X162621009Y-128742000D01*
X163364991Y-128742000D01*
X163899600Y-128635660D01*
X164352819Y-128332828D01*
X164503712Y-128107000D01*
X167982287Y-128107000D01*
X168133181Y-128332828D01*
X168586400Y-128635660D01*
X169121009Y-128742000D01*
X169812369Y-128742000D01*
X171784184Y-130713815D01*
X171784185Y-130713815D01*
X172031395Y-130878996D01*
X172323000Y-130937000D01*
X178943000Y-130937000D01*
X178943000Y-130936999D01*
X179234604Y-130878996D01*
X179234605Y-130878996D01*
X179481815Y-130713815D01*
X181889590Y-128306040D01*
X182846600Y-128306040D01*
X183088723Y-128259063D01*
X183301527Y-128119273D01*
X183443977Y-127908240D01*
X183452179Y-127867340D01*
X183463330Y-127884029D01*
X183949511Y-128208885D01*
X184523000Y-128322959D01*
X185096489Y-128208885D01*
X185582670Y-127884029D01*
X185793000Y-127569248D01*
X186003330Y-127884029D01*
X186489511Y-128208885D01*
X187063000Y-128322959D01*
X187636489Y-128208885D01*
X188122670Y-127884029D01*
X188333000Y-127569248D01*
X188543330Y-127884029D01*
X189029511Y-128208885D01*
X189603000Y-128322959D01*
X190176489Y-128208885D01*
X190662670Y-127884029D01*
X190873000Y-127569248D01*
X191083330Y-127884029D01*
X191569511Y-128208885D01*
X192143000Y-128322959D01*
X192716489Y-128208885D01*
X193202670Y-127884029D01*
X193421183Y-127557000D01*
X201906178Y-127557000D01*
X201970349Y-127879609D01*
X202273181Y-128332828D01*
X202726400Y-128635660D01*
X203261009Y-128742000D01*
X204004991Y-128742000D01*
X204539600Y-128635660D01*
X204992819Y-128332828D01*
X205295651Y-127879609D01*
X205401991Y-127345000D01*
X205295651Y-126810391D01*
X204992819Y-126357172D01*
X204539600Y-126054340D01*
X204004991Y-125948000D01*
X203261009Y-125948000D01*
X202833683Y-126033000D01*
X193421183Y-126033000D01*
X193202670Y-125705971D01*
X192931839Y-125525007D01*
X193349821Y-125143490D01*
X193597968Y-124614027D01*
X193597968Y-123895973D01*
X193349821Y-123366510D01*
X192917947Y-122972312D01*
X192502026Y-122800042D01*
X192270000Y-122921183D01*
X192270000Y-124128000D01*
X193477469Y-124128000D01*
X193597968Y-123895973D01*
X193597968Y-124614027D01*
X193477469Y-124382000D01*
X192270000Y-124382000D01*
X192270000Y-124402000D01*
X192016000Y-124402000D01*
X192016000Y-124382000D01*
X191996000Y-124382000D01*
X191996000Y-124128000D01*
X192016000Y-124128000D01*
X192016000Y-122921183D01*
X191783974Y-122800042D01*
X191368053Y-122972312D01*
X190936179Y-123366510D01*
X190878663Y-123489228D01*
X190662670Y-123165971D01*
X190176489Y-122841115D01*
X189603000Y-122727041D01*
X189029511Y-122841115D01*
X188543330Y-123165971D01*
X188333000Y-123480751D01*
X188122670Y-123165971D01*
X187636489Y-122841115D01*
X187063000Y-122727041D01*
X186489511Y-122841115D01*
X186003330Y-123165971D01*
X185793000Y-123480751D01*
X185582670Y-123165971D01*
X185096489Y-122841115D01*
X184523000Y-122727041D01*
X184030655Y-122824974D01*
X184798630Y-122057000D01*
X201767370Y-122057000D01*
X201990541Y-122280171D01*
X201970349Y-122310391D01*
X201864009Y-122845000D01*
X201970349Y-123379609D01*
X202273181Y-123832828D01*
X202726400Y-124135660D01*
X203261009Y-124242000D01*
X204004991Y-124242000D01*
X204539600Y-124135660D01*
X204992819Y-123832828D01*
X205143712Y-123607000D01*
X208622287Y-123607000D01*
X208773181Y-123832828D01*
X209226400Y-124135660D01*
X209761009Y-124242000D01*
X210504991Y-124242000D01*
X211039600Y-124135660D01*
X211492819Y-123832828D01*
X211643712Y-123607000D01*
X213207369Y-123607000D01*
X221221000Y-131620630D01*
X221221000Y-131795000D01*
X221221000Y-135297795D01*
X220685459Y-135655632D01*
X220287681Y-136250949D01*
X220148000Y-136953173D01*
X220148000Y-137636827D01*
X220287681Y-138339051D01*
X220685459Y-138934368D01*
X221280776Y-139332146D01*
X221983000Y-139471827D01*
X222685224Y-139332146D01*
X223280541Y-138934368D01*
X223678319Y-138339051D01*
X223818000Y-137636827D01*
X223818000Y-141533000D01*
X211901991Y-141533000D01*
X211901991Y-127345000D01*
X211795651Y-126810391D01*
X211492819Y-126357172D01*
X211039600Y-126054340D01*
X210504991Y-125948000D01*
X209761009Y-125948000D01*
X209226400Y-126054340D01*
X208773181Y-126357172D01*
X208470349Y-126810391D01*
X208364009Y-127345000D01*
X208470349Y-127879609D01*
X208773181Y-128332828D01*
X209226400Y-128635660D01*
X209761009Y-128742000D01*
X210504991Y-128742000D01*
X211039600Y-128635660D01*
X211492819Y-128332828D01*
X211795651Y-127879609D01*
X211901991Y-127345000D01*
X211901991Y-141533000D01*
X153818000Y-141533000D01*
X153818000Y-137722000D01*
X153818000Y-137422000D01*
X153818000Y-137168000D01*
X153818000Y-136868000D01*
X153629718Y-136175443D01*
X153190738Y-135607656D01*
X152567891Y-135251080D01*
X152394805Y-135206805D01*
X152110000Y-135323568D01*
X152110000Y-137168000D01*
X153818000Y-137168000D01*
X153818000Y-137422000D01*
X152110000Y-137422000D01*
X152110000Y-139266432D01*
X152394805Y-139383195D01*
X152567891Y-139338920D01*
X153190738Y-138982344D01*
X153629718Y-138414557D01*
X153818000Y-137722000D01*
X153818000Y-141533000D01*
X151856000Y-141533000D01*
X151856000Y-139266432D01*
X151856000Y-137422000D01*
X151856000Y-137168000D01*
X151856000Y-135323568D01*
X151571195Y-135206805D01*
X151398109Y-135251080D01*
X150775262Y-135607656D01*
X150336282Y-136175443D01*
X150148000Y-136868000D01*
X150148000Y-137168000D01*
X151856000Y-137168000D01*
X151856000Y-137422000D01*
X150148000Y-137422000D01*
X150148000Y-137722000D01*
X150336282Y-138414557D01*
X150775262Y-138982344D01*
X151398109Y-139338920D01*
X151571195Y-139383195D01*
X151856000Y-139266432D01*
X151856000Y-141533000D01*
X148734422Y-141533000D01*
X148678319Y-141250949D01*
X148280541Y-140655632D01*
X147685224Y-140257854D01*
X147118457Y-140145117D01*
X147118457Y-123773166D01*
X146718147Y-122804342D01*
X145977557Y-122062458D01*
X145009433Y-121660458D01*
X143961166Y-121659543D01*
X142992342Y-122059853D01*
X142250458Y-122800443D01*
X141848458Y-123768567D01*
X141847543Y-124816834D01*
X142247853Y-125785658D01*
X142988443Y-126527542D01*
X143956567Y-126929542D01*
X145004834Y-126930457D01*
X145973658Y-126530147D01*
X146715542Y-125789557D01*
X147117542Y-124821433D01*
X147118457Y-123773166D01*
X147118457Y-140145117D01*
X146983000Y-140118173D01*
X146280776Y-140257854D01*
X145685459Y-140655632D01*
X145287681Y-141250949D01*
X145148000Y-141953173D01*
X145148000Y-142636827D01*
X145287681Y-143339051D01*
X145685459Y-143934368D01*
X146280776Y-144332146D01*
X146983000Y-144471827D01*
X147685224Y-144332146D01*
X148280541Y-143934368D01*
X148678319Y-143339051D01*
X148734422Y-143057000D01*
X225231577Y-143057000D01*
X225287681Y-143339051D01*
X225685459Y-143934368D01*
X226280776Y-144332146D01*
X226983000Y-144471827D01*
X227685224Y-144332146D01*
X228280541Y-143934368D01*
X228678319Y-143339051D01*
X228818000Y-142636827D01*
X228818000Y-159453173D01*
X228678319Y-158750949D01*
X228280541Y-158155632D01*
X227685224Y-157757854D01*
X226983000Y-157618173D01*
X226280776Y-157757854D01*
X225685459Y-158155632D01*
X225287681Y-158750949D01*
X225231577Y-159033000D01*
X223818000Y-159033000D01*
X223818000Y-155136827D01*
X223818000Y-154453173D01*
X223678319Y-153750949D01*
X223280541Y-153155632D01*
X222685224Y-152757854D01*
X221983000Y-152618173D01*
X221280776Y-152757854D01*
X220685459Y-153155632D01*
X220287681Y-153750949D01*
X220148000Y-154453173D01*
X220148000Y-155136827D01*
X220287681Y-155839051D01*
X220685459Y-156434368D01*
X221280776Y-156832146D01*
X221983000Y-156971827D01*
X222685224Y-156832146D01*
X223280541Y-156434368D01*
X223678319Y-155839051D01*
X223818000Y-155136827D01*
X223818000Y-159033000D01*
X153818000Y-159033000D01*
X153818000Y-155222000D01*
X153818000Y-154922000D01*
X153818000Y-154668000D01*
X153818000Y-154368000D01*
X153629718Y-153675443D01*
X153190738Y-153107656D01*
X152567891Y-152751080D01*
X152394805Y-152706805D01*
X152110000Y-152823568D01*
X152110000Y-154668000D01*
X153818000Y-154668000D01*
X153818000Y-154922000D01*
X152110000Y-154922000D01*
X152110000Y-156766432D01*
X152394805Y-156883195D01*
X152567891Y-156838920D01*
X153190738Y-156482344D01*
X153629718Y-155914557D01*
X153818000Y-155222000D01*
X153818000Y-159033000D01*
X151856000Y-159033000D01*
X151856000Y-156766432D01*
X151856000Y-154922000D01*
X151856000Y-154668000D01*
X151856000Y-152823568D01*
X151571195Y-152706805D01*
X151398109Y-152751080D01*
X150775262Y-153107656D01*
X150336282Y-153675443D01*
X150148000Y-154368000D01*
X150148000Y-154668000D01*
X151856000Y-154668000D01*
X151856000Y-154922000D01*
X150148000Y-154922000D01*
X150148000Y-155222000D01*
X150336282Y-155914557D01*
X150775262Y-156482344D01*
X151398109Y-156838920D01*
X151571195Y-156883195D01*
X151856000Y-156766432D01*
X151856000Y-159033000D01*
X148734422Y-159033000D01*
X148678319Y-158750949D01*
X148280541Y-158155632D01*
X147685224Y-157757854D01*
X146983000Y-157618173D01*
X146280776Y-157757854D01*
X145685459Y-158155632D01*
X145287681Y-158750949D01*
X145148000Y-159453173D01*
X145148000Y-160136827D01*
X145287681Y-160839051D01*
X145685459Y-161434368D01*
X146280776Y-161832146D01*
X146983000Y-161971827D01*
X147685224Y-161832146D01*
X148280541Y-161434368D01*
X148678319Y-160839051D01*
X148734422Y-160557000D01*
X225231577Y-160557000D01*
X225287681Y-160839051D01*
X225685459Y-161434368D01*
X226280776Y-161832146D01*
X226983000Y-161971827D01*
X227685224Y-161832146D01*
X228280541Y-161434368D01*
X228678319Y-160839051D01*
X228818000Y-160136827D01*
X228818000Y-176953173D01*
X228678319Y-176250949D01*
X228280541Y-175655632D01*
X227685224Y-175257854D01*
X226983000Y-175118173D01*
X226280776Y-175257854D01*
X225685459Y-175655632D01*
X225287681Y-176250949D01*
X225231577Y-176533000D01*
X223818000Y-176533000D01*
X223818000Y-172636827D01*
X223818000Y-171953173D01*
X223678319Y-171250949D01*
X223280541Y-170655632D01*
X222685224Y-170257854D01*
X221983000Y-170118173D01*
X221280776Y-170257854D01*
X220685459Y-170655632D01*
X220287681Y-171250949D01*
X220148000Y-171953173D01*
X220148000Y-172636827D01*
X220287681Y-173339051D01*
X220685459Y-173934368D01*
X221280776Y-174332146D01*
X221983000Y-174471827D01*
X222685224Y-174332146D01*
X223280541Y-173934368D01*
X223678319Y-173339051D01*
X223818000Y-172636827D01*
X223818000Y-176533000D01*
X153818000Y-176533000D01*
X153818000Y-172722000D01*
X153818000Y-172422000D01*
X153818000Y-172168000D01*
X153818000Y-171868000D01*
X153629718Y-171175443D01*
X153190738Y-170607656D01*
X152567891Y-170251080D01*
X152394805Y-170206805D01*
X152110000Y-170323568D01*
X152110000Y-172168000D01*
X153818000Y-172168000D01*
X153818000Y-172422000D01*
X152110000Y-172422000D01*
X152110000Y-174266432D01*
X152394805Y-174383195D01*
X152567891Y-174338920D01*
X153190738Y-173982344D01*
X153629718Y-173414557D01*
X153818000Y-172722000D01*
X153818000Y-176533000D01*
X151856000Y-176533000D01*
X151856000Y-174266432D01*
X151856000Y-172422000D01*
X151856000Y-172168000D01*
X151856000Y-170323568D01*
X151571195Y-170206805D01*
X151398109Y-170251080D01*
X150775262Y-170607656D01*
X150336282Y-171175443D01*
X150148000Y-171868000D01*
X150148000Y-172168000D01*
X151856000Y-172168000D01*
X151856000Y-172422000D01*
X150148000Y-172422000D01*
X150148000Y-172722000D01*
X150336282Y-173414557D01*
X150775262Y-173982344D01*
X151398109Y-174338920D01*
X151571195Y-174383195D01*
X151856000Y-174266432D01*
X151856000Y-176533000D01*
X148734422Y-176533000D01*
X148678319Y-176250949D01*
X148280541Y-175655632D01*
X147685224Y-175257854D01*
X146983000Y-175118173D01*
X146280776Y-175257854D01*
X145685459Y-175655632D01*
X145287681Y-176250949D01*
X145148000Y-176953173D01*
X145148000Y-177636827D01*
X145287681Y-178339051D01*
X145685459Y-178934368D01*
X146280776Y-179332146D01*
X146983000Y-179471827D01*
X147685224Y-179332146D01*
X148280541Y-178934368D01*
X148678319Y-178339051D01*
X148734422Y-178057000D01*
X225231577Y-178057000D01*
X225287681Y-178339051D01*
X225685459Y-178934368D01*
X226280776Y-179332146D01*
X226983000Y-179471827D01*
X227685224Y-179332146D01*
X228280541Y-178934368D01*
X228678319Y-178339051D01*
X228818000Y-177636827D01*
X228818000Y-194453173D01*
X228678319Y-193750949D01*
X228280541Y-193155632D01*
X227685224Y-192757854D01*
X226983000Y-192618173D01*
X226280776Y-192757854D01*
X225685459Y-193155632D01*
X225287681Y-193750949D01*
X225231577Y-194033000D01*
X223818000Y-194033000D01*
X223818000Y-190136827D01*
X223818000Y-189453173D01*
X223678319Y-188750949D01*
X223280541Y-188155632D01*
X222685224Y-187757854D01*
X221983000Y-187618173D01*
X221280776Y-187757854D01*
X220685459Y-188155632D01*
X220287681Y-188750949D01*
X220148000Y-189453173D01*
X220148000Y-190136827D01*
X220287681Y-190839051D01*
X220685459Y-191434368D01*
X221280776Y-191832146D01*
X221983000Y-191971827D01*
X222685224Y-191832146D01*
X223280541Y-191434368D01*
X223678319Y-190839051D01*
X223818000Y-190136827D01*
X223818000Y-194033000D01*
X153818000Y-194033000D01*
X153818000Y-190222000D01*
X153818000Y-189922000D01*
X153818000Y-189668000D01*
X153818000Y-189368000D01*
X153629718Y-188675443D01*
X153190738Y-188107656D01*
X152567891Y-187751080D01*
X152394805Y-187706805D01*
X152110000Y-187823568D01*
X152110000Y-189668000D01*
X153818000Y-189668000D01*
X153818000Y-189922000D01*
X152110000Y-189922000D01*
X152110000Y-191766432D01*
X152394805Y-191883195D01*
X152567891Y-191838920D01*
X153190738Y-191482344D01*
X153629718Y-190914557D01*
X153818000Y-190222000D01*
X153818000Y-194033000D01*
X151856000Y-194033000D01*
X151856000Y-191766432D01*
X151856000Y-189922000D01*
X151856000Y-189668000D01*
X151856000Y-187823568D01*
X151571195Y-187706805D01*
X151398109Y-187751080D01*
X150775262Y-188107656D01*
X150336282Y-188675443D01*
X150148000Y-189368000D01*
X150148000Y-189668000D01*
X151856000Y-189668000D01*
X151856000Y-189922000D01*
X150148000Y-189922000D01*
X150148000Y-190222000D01*
X150336282Y-190914557D01*
X150775262Y-191482344D01*
X151398109Y-191838920D01*
X151571195Y-191883195D01*
X151856000Y-191766432D01*
X151856000Y-194033000D01*
X148734422Y-194033000D01*
X148678319Y-193750949D01*
X148280541Y-193155632D01*
X147685224Y-192757854D01*
X146983000Y-192618173D01*
X146280776Y-192757854D01*
X145685459Y-193155632D01*
X145287681Y-193750949D01*
X145148000Y-194453173D01*
X145148000Y-195136827D01*
X145287681Y-195839051D01*
X145685459Y-196434368D01*
X146280776Y-196832146D01*
X146983000Y-196971827D01*
X147685224Y-196832146D01*
X148280541Y-196434368D01*
X148678319Y-195839051D01*
X148734422Y-195557000D01*
X225231577Y-195557000D01*
X225287681Y-195839051D01*
X225685459Y-196434368D01*
X226280776Y-196832146D01*
X226983000Y-196971827D01*
X227685224Y-196832146D01*
X228280541Y-196434368D01*
X228678319Y-195839051D01*
X228818000Y-195136827D01*
X228818000Y-199218697D01*
X227992342Y-199559853D01*
X227250458Y-200300443D01*
X226848458Y-201268567D01*
X226847543Y-202316834D01*
X227247853Y-203285658D01*
X227988443Y-204027542D01*
X228956567Y-204429542D01*
X230004834Y-204430457D01*
X230973658Y-204030147D01*
X231715542Y-203289557D01*
X232117542Y-202321433D01*
X232118457Y-201273166D01*
X232118457Y-206069635D01*
X231915532Y-206110000D01*
X147118457Y-206110000D01*
X147118457Y-201273166D01*
X146718147Y-200304342D01*
X145977557Y-199562458D01*
X145009433Y-199160458D01*
X143961166Y-199159543D01*
X142992342Y-199559853D01*
X142250458Y-200300443D01*
X141848458Y-201268567D01*
X141847543Y-202316834D01*
X142247853Y-203285658D01*
X142988443Y-204027542D01*
X143956567Y-204429542D01*
X145004834Y-204430457D01*
X145973658Y-204030147D01*
X146715542Y-203289557D01*
X147117542Y-202321433D01*
X147118457Y-201273166D01*
X147118457Y-206110000D01*
X142050467Y-206110000D01*
X141293564Y-205959442D01*
X140709089Y-205568908D01*
X140318556Y-204984434D01*
X140168000Y-204227532D01*
X140168000Y-201795000D01*
X140168000Y-199295000D01*
X140168000Y-121862467D01*
X140318556Y-121105565D01*
X140709089Y-120521091D01*
X141293564Y-120130557D01*
X142050467Y-119980000D01*
X231915532Y-119980000D01*
X232672434Y-120130556D01*
X233256908Y-120521089D01*
X233647442Y-121105564D01*
X233798000Y-121862467D01*
X233798000Y-199295000D01*
X233798000Y-201795000D01*
X233798000Y-204227532D01*
M02*
