M48
;DRILL file {pcbnew (2015-01-16 BZR 5376)-product} date 23/06/2015 15:27:29
;FORMAT={-:-/ absolute / inch / decimal}
FMAT,2
INCH,TZ
T1C0.012
T2C0.031
T3C0.032
T4C0.039
T5C0.040
T6C0.063
T7C0.118
%
G90
G05
M72
T1
X1.635Y-4.455
X1.635Y-8.155
X1.655Y-4.455
X1.655Y-8.155
X1.67Y-4.455
X1.67Y-8.155
X1.685Y-4.455
X1.685Y-8.155
X1.7Y-4.455
X1.7Y-8.155
X3.335Y-0.985
X3.335Y-4.685
X3.355Y-0.985
X3.355Y-4.685
X3.37Y-0.985
X3.37Y-4.685
X3.385Y-0.985
X3.385Y-4.685
X3.405Y-0.985
X3.405Y-4.685
X5.02Y-4.455
X5.02Y-8.155
X5.04Y-4.455
X5.04Y-8.155
X5.055Y-4.455
X5.055Y-8.155
X5.07Y-4.455
X5.07Y-8.155
X5.09Y-4.455
X5.09Y-8.155
X5.635Y-4.455
X5.635Y-8.155
X5.655Y-4.455
X5.655Y-8.155
X5.67Y-4.455
X5.67Y-8.155
X5.685Y-4.455
X5.685Y-8.155
X5.7Y-4.455
X5.7Y-8.155
X7.335Y-0.985
X7.335Y-4.685
X7.355Y-0.985
X7.355Y-4.685
X7.37Y-0.985
X7.37Y-4.685
X7.385Y-0.985
X7.385Y-4.685
X7.405Y-0.985
X7.405Y-4.685
X9.02Y-4.455
X9.02Y-8.155
X9.04Y-4.455
X9.04Y-8.155
X9.055Y-4.455
X9.055Y-8.155
X9.07Y-4.455
X9.07Y-8.155
X9.09Y-4.455
X9.09Y-8.155
T2
X2.9875Y-1.1935
X2.9875Y-4.8935
X6.9875Y-1.1935
X6.9875Y-4.8935
T3
X2.9875Y-1.2919
X2.9875Y-4.9919
X6.9875Y-1.2919
X6.9875Y-4.9919
T4
X2.417Y-1.1364
X2.417Y-1.3136
X2.417Y-4.8364
X2.417Y-5.0136
X2.673Y-1.1364
X2.673Y-1.3136
X2.673Y-4.8364
X2.673Y-5.0136
X4.017Y-1.1364
X4.017Y-1.3136
X4.017Y-4.8364
X4.017Y-5.0136
X4.273Y-1.1364
X4.273Y-1.3136
X4.273Y-4.8364
X4.273Y-5.0136
X6.417Y-1.1364
X6.417Y-1.3136
X6.417Y-4.8364
X6.417Y-5.0136
X6.673Y-1.1364
X6.673Y-1.3136
X6.673Y-4.8364
X6.673Y-5.0136
X8.017Y-1.1364
X8.017Y-1.3136
X8.017Y-4.8364
X8.017Y-5.0136
X8.273Y-1.1364
X8.273Y-1.3136
X8.273Y-4.8364
X8.273Y-5.0136
T5
X3.1647Y-1.1919
X3.1647Y-1.2919
X3.1647Y-4.8919
X3.1647Y-4.9919
X3.2647Y-1.1919
X3.2647Y-1.2919
X3.2647Y-4.8919
X3.2647Y-4.9919
X3.3647Y-1.1919
X3.3647Y-1.2919
X3.3647Y-4.8919
X3.3647Y-4.9919
X3.4647Y-1.1919
X3.4647Y-1.2919
X3.4647Y-4.8919
X3.4647Y-4.9919
X3.5647Y-1.1919
X3.5647Y-1.2919
X3.5647Y-4.8919
X3.5647Y-4.9919
X7.1647Y-1.1919
X7.1647Y-1.2919
X7.1647Y-4.8919
X7.1647Y-4.9919
X7.2647Y-1.1919
X7.2647Y-1.2919
X7.2647Y-4.8919
X7.2647Y-4.9919
X7.3647Y-1.1919
X7.3647Y-1.2919
X7.3647Y-4.8919
X7.3647Y-4.9919
X7.4647Y-1.1919
X7.4647Y-1.2919
X7.4647Y-4.8919
X7.4647Y-4.9919
X7.5647Y-1.1919
X7.5647Y-1.2919
X7.5647Y-4.8919
X7.5647Y-4.9919
T6
X1.7867Y-1.9022
X1.7867Y-2.5911
X1.7867Y-3.2801
X1.7867Y-3.9691
X1.7867Y-5.6022
X1.7867Y-6.2911
X1.7867Y-6.9801
X1.7867Y-7.6691
X1.9836Y-1.7053
X1.9836Y-2.3943
X1.9836Y-3.0833
X1.9836Y-3.7722
X1.9836Y-5.4053
X1.9836Y-6.0943
X1.9836Y-6.7833
X1.9836Y-7.4722
X4.7395Y-1.7053
X4.7395Y-2.3943
X4.7395Y-3.0833
X4.7395Y-3.7722
X4.7395Y-5.4053
X4.7395Y-6.0943
X4.7395Y-6.7833
X4.7395Y-7.4722
X4.9363Y-1.9022
X4.9363Y-2.5911
X4.9363Y-3.2801
X4.9363Y-3.9691
X4.9363Y-5.6022
X4.9363Y-6.2911
X4.9363Y-6.9801
X4.9363Y-7.6691
X5.7867Y-1.9022
X5.7867Y-2.5911
X5.7867Y-3.2801
X5.7867Y-3.9691
X5.7867Y-5.6022
X5.7867Y-6.2911
X5.7867Y-6.9801
X5.7867Y-7.6691
X5.9836Y-1.7053
X5.9836Y-2.3943
X5.9836Y-3.0833
X5.9836Y-3.7722
X5.9836Y-5.4053
X5.9836Y-6.0943
X5.9836Y-6.7833
X5.9836Y-7.4722
X8.7395Y-1.7053
X8.7395Y-2.3943
X8.7395Y-3.0833
X8.7395Y-3.7722
X8.7395Y-5.4053
X8.7395Y-6.0943
X8.7395Y-6.7833
X8.7395Y-7.4722
X8.9363Y-1.9022
X8.9363Y-2.5911
X8.9363Y-3.2801
X8.9363Y-3.9691
X8.9363Y-5.6022
X8.9363Y-6.2911
X8.9363Y-6.9801
X8.9363Y-7.6691
T7
X1.3Y-1.
X1.3Y-8.15
X1.6883Y-1.1935
X1.6883Y-4.2447
X1.6883Y-4.8935
X1.6883Y-7.9447
X5.0348Y-1.1935
X5.0348Y-4.2447
X5.0348Y-4.8935
X5.0348Y-7.9447
X5.6883Y-1.1935
X5.6883Y-4.2447
X5.6883Y-4.8935
X5.6883Y-7.9447
X9.0348Y-1.1935
X9.0348Y-4.2447
X9.0348Y-4.8935
X9.0348Y-7.9447
X9.4Y-1.
X9.45Y-8.
T0
M30
