G04 #@! TF.FileFunction,Copper,L1,Top,Signal*
%FSLAX46Y46*%
G04 Gerber Fmt 4.6, Leading zero omitted, Abs format (unit mm)*
G04 Created by KiCad (PCBNEW (2015-01-16 BZR 5376)-product) date 24/06/2015 09:07:54*
%MOMM*%
G01*
G04 APERTURE LIST*
%ADD10C,0.100000*%
%ADD11C,4.000000*%
%ADD12C,0.300000*%
%ADD13R,1.727200X1.727200*%
%ADD14O,1.727200X1.727200*%
%ADD15O,2.400000X3.000000*%
%ADD16R,1.300000X1.300000*%
%ADD17C,1.300000*%
%ADD18O,2.200000X1.524000*%
%ADD19C,0.254000*%
G04 APERTURE END LIST*
D10*
D11*
X240030000Y-203200000D03*
X33020000Y-207010000D03*
X238760000Y-25400000D03*
D12*
X188087000Y-25019000D03*
X187579000Y-25019000D03*
X187198000Y-25019000D03*
X186817000Y-25019000D03*
X186309000Y-25019000D03*
D11*
X229483000Y-107815000D03*
X144483000Y-107815000D03*
X229483000Y-30315000D03*
X144483000Y-30315000D03*
D13*
X181983000Y-32815000D03*
D14*
X181983000Y-30275000D03*
X184523000Y-32815000D03*
X184523000Y-30275000D03*
X187063000Y-32815000D03*
X187063000Y-30275000D03*
X189603000Y-32815000D03*
X189603000Y-30275000D03*
X192143000Y-32815000D03*
X192143000Y-30275000D03*
D15*
X151983000Y-95815000D03*
X146983000Y-100815000D03*
X221983000Y-95815000D03*
X226983000Y-100815000D03*
X151983000Y-78315000D03*
X146983000Y-83315000D03*
X221983000Y-78315000D03*
X226983000Y-83315000D03*
X151983000Y-60815000D03*
X146983000Y-65815000D03*
X221983000Y-60815000D03*
X226983000Y-65815000D03*
X151983000Y-43315000D03*
X146983000Y-48315000D03*
X221983000Y-43315000D03*
X226983000Y-48315000D03*
D16*
X177483000Y-30315000D03*
D17*
X177483000Y-32815000D03*
D18*
X169493000Y-28865000D03*
X169493000Y-33365000D03*
X162993000Y-28865000D03*
X162993000Y-33365000D03*
X210133000Y-28865000D03*
X210133000Y-33365000D03*
X203633000Y-28865000D03*
X203633000Y-33365000D03*
D12*
X143129000Y-113157000D03*
X143637000Y-113157000D03*
X144018000Y-113157000D03*
X144399000Y-113157000D03*
X144780000Y-113157000D03*
X230886000Y-113157000D03*
X230378000Y-113157000D03*
X229997000Y-113157000D03*
X229616000Y-113157000D03*
X229108000Y-113157000D03*
X229108000Y-207137000D03*
X229616000Y-207137000D03*
X229997000Y-207137000D03*
X230378000Y-207137000D03*
X230886000Y-207137000D03*
X144780000Y-207137000D03*
X144399000Y-207137000D03*
X144018000Y-207137000D03*
X143637000Y-207137000D03*
X143129000Y-207137000D03*
D18*
X210133000Y-122845000D03*
X210133000Y-127345000D03*
X203633000Y-122845000D03*
X203633000Y-127345000D03*
X169493000Y-122845000D03*
X169493000Y-127345000D03*
X162993000Y-122845000D03*
X162993000Y-127345000D03*
D16*
X177483000Y-124295000D03*
D17*
X177483000Y-126795000D03*
D15*
X151983000Y-137295000D03*
X146983000Y-142295000D03*
X221983000Y-137295000D03*
X226983000Y-142295000D03*
X151983000Y-154795000D03*
X146983000Y-159795000D03*
X221983000Y-154795000D03*
X226983000Y-159795000D03*
X151983000Y-172295000D03*
X146983000Y-177295000D03*
X221983000Y-172295000D03*
X226983000Y-177295000D03*
X151983000Y-189795000D03*
X146983000Y-194795000D03*
X221983000Y-189795000D03*
X226983000Y-194795000D03*
D13*
X181983000Y-126795000D03*
D14*
X181983000Y-124255000D03*
X184523000Y-126795000D03*
X184523000Y-124255000D03*
X187063000Y-126795000D03*
X187063000Y-124255000D03*
X189603000Y-126795000D03*
X189603000Y-124255000D03*
X192143000Y-126795000D03*
X192143000Y-124255000D03*
D11*
X144483000Y-124295000D03*
X229483000Y-124295000D03*
X144483000Y-201795000D03*
X229483000Y-201795000D03*
D12*
X186309000Y-118999000D03*
X186817000Y-118999000D03*
X187198000Y-118999000D03*
X187579000Y-118999000D03*
X188087000Y-118999000D03*
X86487000Y-118999000D03*
X85979000Y-118999000D03*
X85598000Y-118999000D03*
X85217000Y-118999000D03*
X84709000Y-118999000D03*
D11*
X127883000Y-201795000D03*
X42883000Y-201795000D03*
X127883000Y-124295000D03*
X42883000Y-124295000D03*
D13*
X80383000Y-126795000D03*
D14*
X80383000Y-124255000D03*
X82923000Y-126795000D03*
X82923000Y-124255000D03*
X85463000Y-126795000D03*
X85463000Y-124255000D03*
X88003000Y-126795000D03*
X88003000Y-124255000D03*
X90543000Y-126795000D03*
X90543000Y-124255000D03*
D15*
X50383000Y-189795000D03*
X45383000Y-194795000D03*
X120383000Y-189795000D03*
X125383000Y-194795000D03*
X50383000Y-172295000D03*
X45383000Y-177295000D03*
X120383000Y-172295000D03*
X125383000Y-177295000D03*
X50383000Y-154795000D03*
X45383000Y-159795000D03*
X120383000Y-154795000D03*
X125383000Y-159795000D03*
X50383000Y-137295000D03*
X45383000Y-142295000D03*
X120383000Y-137295000D03*
X125383000Y-142295000D03*
D16*
X75883000Y-124295000D03*
D17*
X75883000Y-126795000D03*
D18*
X67893000Y-122845000D03*
X67893000Y-127345000D03*
X61393000Y-122845000D03*
X61393000Y-127345000D03*
X108533000Y-122845000D03*
X108533000Y-127345000D03*
X102033000Y-122845000D03*
X102033000Y-127345000D03*
D12*
X41529000Y-207137000D03*
X42037000Y-207137000D03*
X42418000Y-207137000D03*
X42799000Y-207137000D03*
X43180000Y-207137000D03*
X129286000Y-207137000D03*
X128778000Y-207137000D03*
X128397000Y-207137000D03*
X128016000Y-207137000D03*
X127508000Y-207137000D03*
X127508000Y-113157000D03*
X128016000Y-113157000D03*
X128397000Y-113157000D03*
X128778000Y-113157000D03*
X129286000Y-113157000D03*
X43180000Y-113157000D03*
X42799000Y-113157000D03*
X42418000Y-113157000D03*
X42037000Y-113157000D03*
X41529000Y-113157000D03*
D18*
X108533000Y-28865000D03*
X108533000Y-33365000D03*
X102033000Y-28865000D03*
X102033000Y-33365000D03*
X67893000Y-28865000D03*
X67893000Y-33365000D03*
X61393000Y-28865000D03*
X61393000Y-33365000D03*
D16*
X75883000Y-30315000D03*
D17*
X75883000Y-32815000D03*
D15*
X50383000Y-43315000D03*
X45383000Y-48315000D03*
X120383000Y-43315000D03*
X125383000Y-48315000D03*
X50383000Y-60815000D03*
X45383000Y-65815000D03*
X120383000Y-60815000D03*
X125383000Y-65815000D03*
X50383000Y-78315000D03*
X45383000Y-83315000D03*
X120383000Y-78315000D03*
X125383000Y-83315000D03*
X50383000Y-95815000D03*
X45383000Y-100815000D03*
X120383000Y-95815000D03*
X125383000Y-100815000D03*
D13*
X80383000Y-32815000D03*
D14*
X80383000Y-30275000D03*
X82923000Y-32815000D03*
X82923000Y-30275000D03*
X85463000Y-32815000D03*
X85463000Y-30275000D03*
X88003000Y-32815000D03*
X88003000Y-30275000D03*
X90543000Y-32815000D03*
X90543000Y-30275000D03*
D11*
X42883000Y-30315000D03*
X127883000Y-30315000D03*
X42883000Y-107815000D03*
X127883000Y-107815000D03*
D12*
X84709000Y-25019000D03*
X85217000Y-25019000D03*
X85598000Y-25019000D03*
X85979000Y-25019000D03*
X86487000Y-25019000D03*
D11*
X33020000Y-25400000D03*
D19*
X69883000Y-48315000D02*
X82883000Y-37315000D01*
X82883000Y-37315000D02*
X82923000Y-32815000D01*
X45383000Y-48315000D02*
X69883000Y-48315000D01*
X45383000Y-142295000D02*
X69883000Y-142295000D01*
X82883000Y-131295000D02*
X82923000Y-126795000D01*
X69883000Y-142295000D02*
X82883000Y-131295000D01*
X171483000Y-142295000D02*
X184483000Y-131295000D01*
X184483000Y-131295000D02*
X184523000Y-126795000D01*
X146983000Y-142295000D02*
X171483000Y-142295000D01*
X146983000Y-48315000D02*
X171483000Y-48315000D01*
X184483000Y-37315000D02*
X184523000Y-32815000D01*
X171483000Y-48315000D02*
X184483000Y-37315000D01*
X69883000Y-65315000D02*
X92883000Y-42315000D01*
X92883000Y-42315000D02*
X92883000Y-29315000D01*
X92883000Y-29315000D02*
X91883000Y-28315000D01*
X91883000Y-28315000D02*
X88883000Y-28315000D01*
X88883000Y-28315000D02*
X88003000Y-29195000D01*
X88003000Y-29195000D02*
X88003000Y-30275000D01*
X45383000Y-65815000D02*
X69883000Y-65315000D01*
X45383000Y-159795000D02*
X69883000Y-159295000D01*
X88003000Y-123175000D02*
X88003000Y-124255000D01*
X88883000Y-122295000D02*
X88003000Y-123175000D01*
X91883000Y-122295000D02*
X88883000Y-122295000D01*
X92883000Y-123295000D02*
X91883000Y-122295000D01*
X92883000Y-136295000D02*
X92883000Y-123295000D01*
X69883000Y-159295000D02*
X92883000Y-136295000D01*
X171483000Y-159295000D02*
X194483000Y-136295000D01*
X194483000Y-136295000D02*
X194483000Y-123295000D01*
X194483000Y-123295000D02*
X193483000Y-122295000D01*
X193483000Y-122295000D02*
X190483000Y-122295000D01*
X190483000Y-122295000D02*
X189603000Y-123175000D01*
X189603000Y-123175000D02*
X189603000Y-124255000D01*
X146983000Y-159795000D02*
X171483000Y-159295000D01*
X146983000Y-65815000D02*
X171483000Y-65315000D01*
X189603000Y-29195000D02*
X189603000Y-30275000D01*
X190483000Y-28315000D02*
X189603000Y-29195000D01*
X193483000Y-28315000D02*
X190483000Y-28315000D01*
X194483000Y-29315000D02*
X193483000Y-28315000D01*
X194483000Y-42315000D02*
X194483000Y-29315000D01*
X171483000Y-65315000D02*
X194483000Y-42315000D01*
X120383000Y-95815000D02*
X120383000Y-78315000D01*
X120383000Y-78315000D02*
X120383000Y-60815000D01*
X120383000Y-60815000D02*
X120383000Y-43315000D01*
X80343000Y-30315000D02*
X80383000Y-30275000D01*
X75883000Y-30315000D02*
X80343000Y-30315000D01*
X75883000Y-124295000D02*
X80343000Y-124295000D01*
X80343000Y-124295000D02*
X80383000Y-124255000D01*
X120383000Y-154795000D02*
X120383000Y-137295000D01*
X120383000Y-172295000D02*
X120383000Y-154795000D01*
X120383000Y-189795000D02*
X120383000Y-172295000D01*
X221983000Y-189795000D02*
X221983000Y-172295000D01*
X221983000Y-172295000D02*
X221983000Y-154795000D01*
X221983000Y-154795000D02*
X221983000Y-137295000D01*
X181943000Y-124295000D02*
X181983000Y-124255000D01*
X177483000Y-124295000D02*
X181943000Y-124295000D01*
X177483000Y-30315000D02*
X181943000Y-30315000D01*
X181943000Y-30315000D02*
X181983000Y-30275000D01*
X221983000Y-60815000D02*
X221983000Y-43315000D01*
X221983000Y-78315000D02*
X221983000Y-60815000D01*
X221983000Y-95815000D02*
X221983000Y-78315000D01*
X85463000Y-28735000D02*
X86883000Y-27315000D01*
X86883000Y-27315000D02*
X92883000Y-27315000D01*
X92883000Y-27315000D02*
X93883000Y-28315000D01*
X93883000Y-28315000D02*
X93883000Y-59315000D01*
X93883000Y-59315000D02*
X69883000Y-83315000D01*
X69883000Y-83315000D02*
X45383000Y-83315000D01*
X85463000Y-30275000D02*
X85463000Y-28735000D01*
X85463000Y-124255000D02*
X85463000Y-122715000D01*
X69883000Y-177295000D02*
X45383000Y-177295000D01*
X93883000Y-153295000D02*
X69883000Y-177295000D01*
X93883000Y-122295000D02*
X93883000Y-153295000D01*
X92883000Y-121295000D02*
X93883000Y-122295000D01*
X86883000Y-121295000D02*
X92883000Y-121295000D01*
X85463000Y-122715000D02*
X86883000Y-121295000D01*
X187063000Y-122715000D02*
X188483000Y-121295000D01*
X188483000Y-121295000D02*
X194483000Y-121295000D01*
X194483000Y-121295000D02*
X195483000Y-122295000D01*
X195483000Y-122295000D02*
X195483000Y-153295000D01*
X195483000Y-153295000D02*
X171483000Y-177295000D01*
X171483000Y-177295000D02*
X146983000Y-177295000D01*
X187063000Y-124255000D02*
X187063000Y-122715000D01*
X187063000Y-30275000D02*
X187063000Y-28735000D01*
X171483000Y-83315000D02*
X146983000Y-83315000D01*
X195483000Y-59315000D02*
X171483000Y-83315000D01*
X195483000Y-28315000D02*
X195483000Y-59315000D01*
X194483000Y-27315000D02*
X195483000Y-28315000D01*
X188483000Y-27315000D02*
X194483000Y-27315000D01*
X187063000Y-28735000D02*
X188483000Y-27315000D01*
X82923000Y-29275000D02*
X85883000Y-26315000D01*
X85883000Y-26315000D02*
X93883000Y-26315000D01*
X93883000Y-26315000D02*
X94883000Y-27315000D01*
X94883000Y-27315000D02*
X94883000Y-75315000D01*
X94883000Y-75315000D02*
X69883000Y-100315000D01*
X69883000Y-100315000D02*
X45383000Y-100815000D01*
X82923000Y-30275000D02*
X82923000Y-29275000D01*
X82923000Y-124255000D02*
X82923000Y-123255000D01*
X69883000Y-194295000D02*
X45383000Y-194795000D01*
X94883000Y-169295000D02*
X69883000Y-194295000D01*
X94883000Y-121295000D02*
X94883000Y-169295000D01*
X93883000Y-120295000D02*
X94883000Y-121295000D01*
X85883000Y-120295000D02*
X93883000Y-120295000D01*
X82923000Y-123255000D02*
X85883000Y-120295000D01*
X184523000Y-123255000D02*
X187483000Y-120295000D01*
X187483000Y-120295000D02*
X195483000Y-120295000D01*
X195483000Y-120295000D02*
X196483000Y-121295000D01*
X196483000Y-121295000D02*
X196483000Y-169295000D01*
X196483000Y-169295000D02*
X171483000Y-194295000D01*
X171483000Y-194295000D02*
X146983000Y-194795000D01*
X184523000Y-124255000D02*
X184523000Y-123255000D01*
X184523000Y-30275000D02*
X184523000Y-29275000D01*
X171483000Y-100315000D02*
X146983000Y-100815000D01*
X196483000Y-75315000D02*
X171483000Y-100315000D01*
X196483000Y-27315000D02*
X196483000Y-75315000D01*
X195483000Y-26315000D02*
X196483000Y-27315000D01*
X187483000Y-26315000D02*
X195483000Y-26315000D01*
X184523000Y-29275000D02*
X187483000Y-26315000D01*
G36*
X132198000Y-110247532D02*
X132047442Y-111004435D01*
X131656908Y-111588910D01*
X131072434Y-111979443D01*
X130518457Y-112089635D01*
X130518457Y-107293166D01*
X130518457Y-29793166D01*
X130118147Y-28824342D01*
X129377557Y-28082458D01*
X128409433Y-27680458D01*
X127361166Y-27679543D01*
X126392342Y-28079853D01*
X125650458Y-28820443D01*
X125248458Y-29788567D01*
X125247543Y-30836834D01*
X125647853Y-31805658D01*
X126388443Y-32547542D01*
X127356567Y-32949542D01*
X128404834Y-32950457D01*
X129373658Y-32550147D01*
X130115542Y-31809557D01*
X130517542Y-30841433D01*
X130518457Y-29793166D01*
X130518457Y-107293166D01*
X130118147Y-106324342D01*
X129377557Y-105582458D01*
X128409433Y-105180458D01*
X127361166Y-105179543D01*
X127218000Y-105238697D01*
X127218000Y-101156827D01*
X127218000Y-100473173D01*
X127218000Y-83656827D01*
X127218000Y-82973173D01*
X127218000Y-66156827D01*
X127218000Y-65473173D01*
X127218000Y-48656827D01*
X127218000Y-47973173D01*
X127078319Y-47270949D01*
X126680541Y-46675632D01*
X126085224Y-46277854D01*
X125383000Y-46138173D01*
X124680776Y-46277854D01*
X124085459Y-46675632D01*
X123687681Y-47270949D01*
X123548000Y-47973173D01*
X123548000Y-48656827D01*
X123687681Y-49359051D01*
X124085459Y-49954368D01*
X124680776Y-50352146D01*
X125383000Y-50491827D01*
X126085224Y-50352146D01*
X126680541Y-49954368D01*
X127078319Y-49359051D01*
X127218000Y-48656827D01*
X127218000Y-65473173D01*
X127078319Y-64770949D01*
X126680541Y-64175632D01*
X126085224Y-63777854D01*
X125383000Y-63638173D01*
X124680776Y-63777854D01*
X124085459Y-64175632D01*
X123687681Y-64770949D01*
X123548000Y-65473173D01*
X123548000Y-66156827D01*
X123687681Y-66859051D01*
X124085459Y-67454368D01*
X124680776Y-67852146D01*
X125383000Y-67991827D01*
X126085224Y-67852146D01*
X126680541Y-67454368D01*
X127078319Y-66859051D01*
X127218000Y-66156827D01*
X127218000Y-82973173D01*
X127078319Y-82270949D01*
X126680541Y-81675632D01*
X126085224Y-81277854D01*
X125383000Y-81138173D01*
X124680776Y-81277854D01*
X124085459Y-81675632D01*
X123687681Y-82270949D01*
X123548000Y-82973173D01*
X123548000Y-83656827D01*
X123687681Y-84359051D01*
X124085459Y-84954368D01*
X124680776Y-85352146D01*
X125383000Y-85491827D01*
X126085224Y-85352146D01*
X126680541Y-84954368D01*
X127078319Y-84359051D01*
X127218000Y-83656827D01*
X127218000Y-100473173D01*
X127078319Y-99770949D01*
X126680541Y-99175632D01*
X126085224Y-98777854D01*
X125383000Y-98638173D01*
X124680776Y-98777854D01*
X124085459Y-99175632D01*
X123687681Y-99770949D01*
X123548000Y-100473173D01*
X123548000Y-101156827D01*
X123687681Y-101859051D01*
X124085459Y-102454368D01*
X124680776Y-102852146D01*
X125383000Y-102991827D01*
X126085224Y-102852146D01*
X126680541Y-102454368D01*
X127078319Y-101859051D01*
X127218000Y-101156827D01*
X127218000Y-105238697D01*
X126392342Y-105579853D01*
X125650458Y-106320443D01*
X125248458Y-107288567D01*
X125247543Y-108336834D01*
X125647853Y-109305658D01*
X126388443Y-110047542D01*
X127356567Y-110449542D01*
X128404834Y-110450457D01*
X129373658Y-110050147D01*
X130115542Y-109309557D01*
X130517542Y-108341433D01*
X130518457Y-107293166D01*
X130518457Y-112089635D01*
X130315532Y-112130000D01*
X122218000Y-112130000D01*
X122218000Y-96156827D01*
X122218000Y-95473173D01*
X122078319Y-94770949D01*
X121680541Y-94175632D01*
X121145000Y-93817795D01*
X121145000Y-80312204D01*
X121680541Y-79954368D01*
X122078319Y-79359051D01*
X122218000Y-78656827D01*
X122218000Y-77973173D01*
X122078319Y-77270949D01*
X121680541Y-76675632D01*
X121145000Y-76317795D01*
X121145000Y-62812204D01*
X121680541Y-62454368D01*
X122078319Y-61859051D01*
X122218000Y-61156827D01*
X122218000Y-60473173D01*
X122078319Y-59770949D01*
X121680541Y-59175632D01*
X121145000Y-58817795D01*
X121145000Y-45312204D01*
X121680541Y-44954368D01*
X122078319Y-44359051D01*
X122218000Y-43656827D01*
X122218000Y-42973173D01*
X122078319Y-42270949D01*
X121680541Y-41675632D01*
X121085224Y-41277854D01*
X120383000Y-41138173D01*
X119680776Y-41277854D01*
X119085459Y-41675632D01*
X118687681Y-42270949D01*
X118548000Y-42973173D01*
X118548000Y-43656827D01*
X118687681Y-44359051D01*
X119085459Y-44954368D01*
X119621000Y-45312204D01*
X119621000Y-58817795D01*
X119085459Y-59175632D01*
X118687681Y-59770949D01*
X118548000Y-60473173D01*
X118548000Y-61156827D01*
X118687681Y-61859051D01*
X119085459Y-62454368D01*
X119621000Y-62812204D01*
X119621000Y-76317795D01*
X119085459Y-76675632D01*
X118687681Y-77270949D01*
X118548000Y-77973173D01*
X118548000Y-78656827D01*
X118687681Y-79359051D01*
X119085459Y-79954368D01*
X119621000Y-80312204D01*
X119621000Y-93817795D01*
X119085459Y-94175632D01*
X118687681Y-94770949D01*
X118548000Y-95473173D01*
X118548000Y-96156827D01*
X118687681Y-96859051D01*
X119085459Y-97454368D01*
X119680776Y-97852146D01*
X120383000Y-97991827D01*
X121085224Y-97852146D01*
X121680541Y-97454368D01*
X122078319Y-96859051D01*
X122218000Y-96156827D01*
X122218000Y-112130000D01*
X110301991Y-112130000D01*
X110301991Y-33365000D01*
X110301991Y-28865000D01*
X110195651Y-28330391D01*
X109892819Y-27877172D01*
X109439600Y-27574340D01*
X108904991Y-27468000D01*
X108161009Y-27468000D01*
X107626400Y-27574340D01*
X107173181Y-27877172D01*
X106870349Y-28330391D01*
X106764009Y-28865000D01*
X106870349Y-29399609D01*
X107173181Y-29852828D01*
X107626400Y-30155660D01*
X108161009Y-30262000D01*
X108904991Y-30262000D01*
X109439600Y-30155660D01*
X109892819Y-29852828D01*
X110195651Y-29399609D01*
X110301991Y-28865000D01*
X110301991Y-33365000D01*
X110195651Y-32830391D01*
X109892819Y-32377172D01*
X109439600Y-32074340D01*
X108904991Y-31968000D01*
X108161009Y-31968000D01*
X107626400Y-32074340D01*
X107173181Y-32377172D01*
X106870349Y-32830391D01*
X106764009Y-33365000D01*
X106870349Y-33899609D01*
X107173181Y-34352828D01*
X107626400Y-34655660D01*
X108161009Y-34762000D01*
X108904991Y-34762000D01*
X109439600Y-34655660D01*
X109892819Y-34352828D01*
X110195651Y-33899609D01*
X110301991Y-33365000D01*
X110301991Y-112130000D01*
X103801991Y-112130000D01*
X103801991Y-33365000D01*
X103801991Y-28865000D01*
X103695651Y-28330391D01*
X103392819Y-27877172D01*
X102939600Y-27574340D01*
X102404991Y-27468000D01*
X101661009Y-27468000D01*
X101126400Y-27574340D01*
X100673181Y-27877172D01*
X100370349Y-28330391D01*
X100264009Y-28865000D01*
X100370349Y-29399609D01*
X100673181Y-29852828D01*
X101126400Y-30155660D01*
X101661009Y-30262000D01*
X102404991Y-30262000D01*
X102939600Y-30155660D01*
X103392819Y-29852828D01*
X103695651Y-29399609D01*
X103801991Y-28865000D01*
X103801991Y-33365000D01*
X103695651Y-32830391D01*
X103392819Y-32377172D01*
X102939600Y-32074340D01*
X102404991Y-31968000D01*
X101661009Y-31968000D01*
X101126400Y-32074340D01*
X100673181Y-32377172D01*
X100370349Y-32830391D01*
X100264009Y-33365000D01*
X100370349Y-33899609D01*
X100673181Y-34352828D01*
X101126400Y-34655660D01*
X101661009Y-34762000D01*
X102404991Y-34762000D01*
X102939600Y-34655660D01*
X103392819Y-34352828D01*
X103695651Y-33899609D01*
X103801991Y-33365000D01*
X103801991Y-112130000D01*
X45518457Y-112130000D01*
X45518457Y-107293166D01*
X45118147Y-106324342D01*
X44377557Y-105582458D01*
X43409433Y-105180458D01*
X42361166Y-105179543D01*
X41392342Y-105579853D01*
X40650458Y-106320443D01*
X40248458Y-107288567D01*
X40247543Y-108336834D01*
X40647853Y-109305658D01*
X41388443Y-110047542D01*
X42356567Y-110449542D01*
X43404834Y-110450457D01*
X44373658Y-110050147D01*
X45115542Y-109309557D01*
X45517542Y-108341433D01*
X45518457Y-107293166D01*
X45518457Y-112130000D01*
X40450467Y-112130000D01*
X39693564Y-111979442D01*
X39109089Y-111588908D01*
X38718556Y-111004434D01*
X38568000Y-110247532D01*
X38568000Y-107815000D01*
X38568000Y-105315000D01*
X38568000Y-27882467D01*
X38718556Y-27125565D01*
X39109089Y-26541091D01*
X39693564Y-26150557D01*
X40450467Y-26000000D01*
X85120370Y-26000000D01*
X82384185Y-28736185D01*
X82261347Y-28920024D01*
X81863330Y-29185971D01*
X81653000Y-29500751D01*
X81442670Y-29185971D01*
X80956489Y-28861115D01*
X80383000Y-28747041D01*
X79809511Y-28861115D01*
X79323330Y-29185971D01*
X79078088Y-29553000D01*
X77158709Y-29553000D01*
X77133463Y-29422877D01*
X76993673Y-29210073D01*
X76782640Y-29067623D01*
X76533000Y-29017560D01*
X75233000Y-29017560D01*
X74990877Y-29064537D01*
X74778073Y-29204327D01*
X74635623Y-29415360D01*
X74585560Y-29665000D01*
X74585560Y-30965000D01*
X74632537Y-31207123D01*
X74772327Y-31419927D01*
X74983360Y-31562377D01*
X75233000Y-31612440D01*
X75395385Y-31612440D01*
X75219271Y-31685389D01*
X75163590Y-31915984D01*
X75883000Y-32635395D01*
X76602410Y-31915984D01*
X76546729Y-31685389D01*
X76337098Y-31612440D01*
X76533000Y-31612440D01*
X76775123Y-31565463D01*
X76987927Y-31425673D01*
X77130377Y-31214640D01*
X77157979Y-31077000D01*
X79131543Y-31077000D01*
X79310300Y-31344529D01*
X79277277Y-31350937D01*
X79064473Y-31490727D01*
X78922023Y-31701760D01*
X78871960Y-31951400D01*
X78871960Y-33678600D01*
X78918937Y-33920723D01*
X79058727Y-34133527D01*
X79269760Y-34275977D01*
X79519400Y-34326040D01*
X81246600Y-34326040D01*
X81488723Y-34279063D01*
X81701527Y-34139273D01*
X81843977Y-33928240D01*
X81852179Y-33887340D01*
X81863330Y-33904029D01*
X82149589Y-34095301D01*
X82124134Y-36958932D01*
X77180622Y-41141904D01*
X77180622Y-32995922D01*
X77151083Y-32485572D01*
X77012611Y-32151271D01*
X76782016Y-32095590D01*
X76062605Y-32815000D01*
X76782016Y-33534410D01*
X77012611Y-33478729D01*
X77180622Y-32995922D01*
X77180622Y-41141904D01*
X76602410Y-41631160D01*
X76602410Y-33714016D01*
X75883000Y-32994605D01*
X75703395Y-33174210D01*
X75703395Y-32815000D01*
X74983984Y-32095590D01*
X74753389Y-32151271D01*
X74585378Y-32634078D01*
X74614917Y-33144428D01*
X74753389Y-33478729D01*
X74983984Y-33534410D01*
X75703395Y-32815000D01*
X75703395Y-33174210D01*
X75163590Y-33714016D01*
X75219271Y-33944611D01*
X75702078Y-34112622D01*
X76212428Y-34083083D01*
X76546729Y-33944611D01*
X76602410Y-33714016D01*
X76602410Y-41631160D01*
X69661991Y-47503823D01*
X69661991Y-33365000D01*
X69661991Y-28865000D01*
X69555651Y-28330391D01*
X69252819Y-27877172D01*
X68799600Y-27574340D01*
X68264991Y-27468000D01*
X67521009Y-27468000D01*
X66986400Y-27574340D01*
X66533181Y-27877172D01*
X66230349Y-28330391D01*
X66124009Y-28865000D01*
X66230349Y-29399609D01*
X66533181Y-29852828D01*
X66986400Y-30155660D01*
X67521009Y-30262000D01*
X68264991Y-30262000D01*
X68799600Y-30155660D01*
X69252819Y-29852828D01*
X69555651Y-29399609D01*
X69661991Y-28865000D01*
X69661991Y-33365000D01*
X69555651Y-32830391D01*
X69252819Y-32377172D01*
X68799600Y-32074340D01*
X68264991Y-31968000D01*
X67521009Y-31968000D01*
X66986400Y-32074340D01*
X66533181Y-32377172D01*
X66230349Y-32830391D01*
X66124009Y-33365000D01*
X66230349Y-33899609D01*
X66533181Y-34352828D01*
X66986400Y-34655660D01*
X67521009Y-34762000D01*
X68264991Y-34762000D01*
X68799600Y-34655660D01*
X69252819Y-34352828D01*
X69555651Y-33899609D01*
X69661991Y-33365000D01*
X69661991Y-47503823D01*
X69603873Y-47553000D01*
X63161991Y-47553000D01*
X63161991Y-33365000D01*
X63161991Y-28865000D01*
X63055651Y-28330391D01*
X62752819Y-27877172D01*
X62299600Y-27574340D01*
X61764991Y-27468000D01*
X61021009Y-27468000D01*
X60486400Y-27574340D01*
X60033181Y-27877172D01*
X59730349Y-28330391D01*
X59624009Y-28865000D01*
X59730349Y-29399609D01*
X60033181Y-29852828D01*
X60486400Y-30155660D01*
X61021009Y-30262000D01*
X61764991Y-30262000D01*
X62299600Y-30155660D01*
X62752819Y-29852828D01*
X63055651Y-29399609D01*
X63161991Y-28865000D01*
X63161991Y-33365000D01*
X63055651Y-32830391D01*
X62752819Y-32377172D01*
X62299600Y-32074340D01*
X61764991Y-31968000D01*
X61021009Y-31968000D01*
X60486400Y-32074340D01*
X60033181Y-32377172D01*
X59730349Y-32830391D01*
X59624009Y-33365000D01*
X59730349Y-33899609D01*
X60033181Y-34352828D01*
X60486400Y-34655660D01*
X61021009Y-34762000D01*
X61764991Y-34762000D01*
X62299600Y-34655660D01*
X62752819Y-34352828D01*
X63055651Y-33899609D01*
X63161991Y-33365000D01*
X63161991Y-47553000D01*
X52218000Y-47553000D01*
X52218000Y-43742000D01*
X52218000Y-43442000D01*
X52218000Y-43188000D01*
X52218000Y-42888000D01*
X52029718Y-42195443D01*
X51590738Y-41627656D01*
X50967891Y-41271080D01*
X50794805Y-41226805D01*
X50510000Y-41343568D01*
X50510000Y-43188000D01*
X52218000Y-43188000D01*
X52218000Y-43442000D01*
X50510000Y-43442000D01*
X50510000Y-45286432D01*
X50794805Y-45403195D01*
X50967891Y-45358920D01*
X51590738Y-45002344D01*
X52029718Y-44434557D01*
X52218000Y-43742000D01*
X52218000Y-47553000D01*
X50256000Y-47553000D01*
X50256000Y-45286432D01*
X50256000Y-43442000D01*
X50256000Y-43188000D01*
X50256000Y-41343568D01*
X49971195Y-41226805D01*
X49798109Y-41271080D01*
X49175262Y-41627656D01*
X48736282Y-42195443D01*
X48548000Y-42888000D01*
X48548000Y-43188000D01*
X50256000Y-43188000D01*
X50256000Y-43442000D01*
X48548000Y-43442000D01*
X48548000Y-43742000D01*
X48736282Y-44434557D01*
X49175262Y-45002344D01*
X49798109Y-45358920D01*
X49971195Y-45403195D01*
X50256000Y-45286432D01*
X50256000Y-47553000D01*
X47134422Y-47553000D01*
X47078319Y-47270949D01*
X46680541Y-46675632D01*
X46085224Y-46277854D01*
X45518457Y-46165117D01*
X45518457Y-29793166D01*
X45118147Y-28824342D01*
X44377557Y-28082458D01*
X43409433Y-27680458D01*
X42361166Y-27679543D01*
X41392342Y-28079853D01*
X40650458Y-28820443D01*
X40248458Y-29788567D01*
X40247543Y-30836834D01*
X40647853Y-31805658D01*
X41388443Y-32547542D01*
X42356567Y-32949542D01*
X43404834Y-32950457D01*
X44373658Y-32550147D01*
X45115542Y-31809557D01*
X45517542Y-30841433D01*
X45518457Y-29793166D01*
X45518457Y-46165117D01*
X45383000Y-46138173D01*
X44680776Y-46277854D01*
X44085459Y-46675632D01*
X43687681Y-47270949D01*
X43548000Y-47973173D01*
X43548000Y-48656827D01*
X43687681Y-49359051D01*
X44085459Y-49954368D01*
X44680776Y-50352146D01*
X45383000Y-50491827D01*
X46085224Y-50352146D01*
X46680541Y-49954368D01*
X47078319Y-49359051D01*
X47134422Y-49077000D01*
X69883000Y-49077000D01*
X69998316Y-49054061D01*
X70115133Y-49040781D01*
X70143169Y-49025248D01*
X70174605Y-49018996D01*
X70272363Y-48953675D01*
X70375208Y-48896700D01*
X83375208Y-37896701D01*
X83393048Y-37874283D01*
X83417004Y-37858583D01*
X83485057Y-37758667D01*
X83560348Y-37664061D01*
X83568250Y-37636526D01*
X83584376Y-37612851D01*
X83609016Y-37494485D01*
X83642367Y-37378281D01*
X83639131Y-37349820D01*
X83644970Y-37321773D01*
X83673513Y-34110600D01*
X83982670Y-33904029D01*
X84193000Y-33589248D01*
X84403330Y-33904029D01*
X84889511Y-34228885D01*
X85463000Y-34342959D01*
X86036489Y-34228885D01*
X86522670Y-33904029D01*
X86733000Y-33589248D01*
X86943330Y-33904029D01*
X87429511Y-34228885D01*
X88003000Y-34342959D01*
X88576489Y-34228885D01*
X89062670Y-33904029D01*
X89273000Y-33589248D01*
X89483330Y-33904029D01*
X89969511Y-34228885D01*
X90543000Y-34342959D01*
X91116489Y-34228885D01*
X91602670Y-33904029D01*
X91927526Y-33417848D01*
X92041600Y-32844359D01*
X92041600Y-32785641D01*
X91927526Y-32212152D01*
X91602670Y-31725971D01*
X91331839Y-31545007D01*
X91749821Y-31163490D01*
X91997968Y-30634027D01*
X91877469Y-30402000D01*
X90670000Y-30402000D01*
X90670000Y-30422000D01*
X90416000Y-30422000D01*
X90416000Y-30402000D01*
X90396000Y-30402000D01*
X90396000Y-30148000D01*
X90416000Y-30148000D01*
X90416000Y-30128000D01*
X90670000Y-30128000D01*
X90670000Y-30148000D01*
X91877469Y-30148000D01*
X91997968Y-29915973D01*
X91749821Y-29386510D01*
X91410729Y-29077000D01*
X91567369Y-29077000D01*
X92121000Y-29630630D01*
X92121000Y-41999370D01*
X69560955Y-64559414D01*
X52218000Y-64913351D01*
X52218000Y-61242000D01*
X52218000Y-60942000D01*
X52218000Y-60688000D01*
X52218000Y-60388000D01*
X52029718Y-59695443D01*
X51590738Y-59127656D01*
X50967891Y-58771080D01*
X50794805Y-58726805D01*
X50510000Y-58843568D01*
X50510000Y-60688000D01*
X52218000Y-60688000D01*
X52218000Y-60942000D01*
X50510000Y-60942000D01*
X50510000Y-62786432D01*
X50794805Y-62903195D01*
X50967891Y-62858920D01*
X51590738Y-62502344D01*
X52029718Y-61934557D01*
X52218000Y-61242000D01*
X52218000Y-64913351D01*
X50256000Y-64953392D01*
X50256000Y-62786432D01*
X50256000Y-60942000D01*
X50256000Y-60688000D01*
X50256000Y-58843568D01*
X49971195Y-58726805D01*
X49798109Y-58771080D01*
X49175262Y-59127656D01*
X48736282Y-59695443D01*
X48548000Y-60388000D01*
X48548000Y-60688000D01*
X50256000Y-60688000D01*
X50256000Y-60942000D01*
X48548000Y-60942000D01*
X48548000Y-61242000D01*
X48736282Y-61934557D01*
X49175262Y-62502344D01*
X49798109Y-62858920D01*
X49971195Y-62903195D01*
X50256000Y-62786432D01*
X50256000Y-64953392D01*
X47127310Y-65017243D01*
X47078319Y-64770949D01*
X46680541Y-64175632D01*
X46085224Y-63777854D01*
X45383000Y-63638173D01*
X44680776Y-63777854D01*
X44085459Y-64175632D01*
X43687681Y-64770949D01*
X43548000Y-65473173D01*
X43548000Y-66156827D01*
X43687681Y-66859051D01*
X44085459Y-67454368D01*
X44680776Y-67852146D01*
X45383000Y-67991827D01*
X46085224Y-67852146D01*
X46680541Y-67454368D01*
X47078319Y-66859051D01*
X47141529Y-66541269D01*
X69898548Y-66076841D01*
X70036312Y-66046503D01*
X70174604Y-66018996D01*
X70181180Y-66014601D01*
X70188909Y-66012900D01*
X70304579Y-65932149D01*
X70421815Y-65853815D01*
X93121000Y-43154630D01*
X93121000Y-58999369D01*
X69567369Y-82553000D01*
X52218000Y-82553000D01*
X52218000Y-78742000D01*
X52218000Y-78442000D01*
X52218000Y-78188000D01*
X52218000Y-77888000D01*
X52029718Y-77195443D01*
X51590738Y-76627656D01*
X50967891Y-76271080D01*
X50794805Y-76226805D01*
X50510000Y-76343568D01*
X50510000Y-78188000D01*
X52218000Y-78188000D01*
X52218000Y-78442000D01*
X50510000Y-78442000D01*
X50510000Y-80286432D01*
X50794805Y-80403195D01*
X50967891Y-80358920D01*
X51590738Y-80002344D01*
X52029718Y-79434557D01*
X52218000Y-78742000D01*
X52218000Y-82553000D01*
X50256000Y-82553000D01*
X50256000Y-80286432D01*
X50256000Y-78442000D01*
X50256000Y-78188000D01*
X50256000Y-76343568D01*
X49971195Y-76226805D01*
X49798109Y-76271080D01*
X49175262Y-76627656D01*
X48736282Y-77195443D01*
X48548000Y-77888000D01*
X48548000Y-78188000D01*
X50256000Y-78188000D01*
X50256000Y-78442000D01*
X48548000Y-78442000D01*
X48548000Y-78742000D01*
X48736282Y-79434557D01*
X49175262Y-80002344D01*
X49798109Y-80358920D01*
X49971195Y-80403195D01*
X50256000Y-80286432D01*
X50256000Y-82553000D01*
X47134422Y-82553000D01*
X47078319Y-82270949D01*
X46680541Y-81675632D01*
X46085224Y-81277854D01*
X45383000Y-81138173D01*
X44680776Y-81277854D01*
X44085459Y-81675632D01*
X43687681Y-82270949D01*
X43548000Y-82973173D01*
X43548000Y-83656827D01*
X43687681Y-84359051D01*
X44085459Y-84954368D01*
X44680776Y-85352146D01*
X45383000Y-85491827D01*
X46085224Y-85352146D01*
X46680541Y-84954368D01*
X47078319Y-84359051D01*
X47134422Y-84077000D01*
X69883000Y-84077000D01*
X69883000Y-84076999D01*
X70174604Y-84018996D01*
X70174605Y-84018996D01*
X70421815Y-83853815D01*
X94121000Y-60154630D01*
X94121000Y-74999370D01*
X69560955Y-99559414D01*
X52218000Y-99913351D01*
X52218000Y-96242000D01*
X52218000Y-95942000D01*
X52218000Y-95688000D01*
X52218000Y-95388000D01*
X52029718Y-94695443D01*
X51590738Y-94127656D01*
X50967891Y-93771080D01*
X50794805Y-93726805D01*
X50510000Y-93843568D01*
X50510000Y-95688000D01*
X52218000Y-95688000D01*
X52218000Y-95942000D01*
X50510000Y-95942000D01*
X50510000Y-97786432D01*
X50794805Y-97903195D01*
X50967891Y-97858920D01*
X51590738Y-97502344D01*
X52029718Y-96934557D01*
X52218000Y-96242000D01*
X52218000Y-99913351D01*
X50256000Y-99953392D01*
X50256000Y-97786432D01*
X50256000Y-95942000D01*
X50256000Y-95688000D01*
X50256000Y-93843568D01*
X49971195Y-93726805D01*
X49798109Y-93771080D01*
X49175262Y-94127656D01*
X48736282Y-94695443D01*
X48548000Y-95388000D01*
X48548000Y-95688000D01*
X50256000Y-95688000D01*
X50256000Y-95942000D01*
X48548000Y-95942000D01*
X48548000Y-96242000D01*
X48736282Y-96934557D01*
X49175262Y-97502344D01*
X49798109Y-97858920D01*
X49971195Y-97903195D01*
X50256000Y-97786432D01*
X50256000Y-99953392D01*
X47127310Y-100017243D01*
X47078319Y-99770949D01*
X46680541Y-99175632D01*
X46085224Y-98777854D01*
X45383000Y-98638173D01*
X44680776Y-98777854D01*
X44085459Y-99175632D01*
X43687681Y-99770949D01*
X43548000Y-100473173D01*
X43548000Y-101156827D01*
X43687681Y-101859051D01*
X44085459Y-102454368D01*
X44680776Y-102852146D01*
X45383000Y-102991827D01*
X46085224Y-102852146D01*
X46680541Y-102454368D01*
X47078319Y-101859051D01*
X47141529Y-101541269D01*
X69898548Y-101076841D01*
X70036312Y-101046503D01*
X70174604Y-101018996D01*
X70181180Y-101014601D01*
X70188909Y-101012900D01*
X70304579Y-100932149D01*
X70421815Y-100853815D01*
X95421815Y-75853815D01*
X95586996Y-75606605D01*
X95644999Y-75315000D01*
X95645000Y-75315000D01*
X95645000Y-27315000D01*
X95586997Y-27023396D01*
X95586996Y-27023395D01*
X95421816Y-26776185D01*
X94645630Y-26000000D01*
X130315532Y-26000000D01*
X131072434Y-26150556D01*
X131656908Y-26541089D01*
X132047442Y-27125564D01*
X132198000Y-27882467D01*
X132198000Y-105315000D01*
X132198000Y-107815000D01*
X132198000Y-110247532D01*
X132198000Y-110247532D01*
G37*
X132198000Y-110247532D02*
X132047442Y-111004435D01*
X131656908Y-111588910D01*
X131072434Y-111979443D01*
X130518457Y-112089635D01*
X130518457Y-107293166D01*
X130518457Y-29793166D01*
X130118147Y-28824342D01*
X129377557Y-28082458D01*
X128409433Y-27680458D01*
X127361166Y-27679543D01*
X126392342Y-28079853D01*
X125650458Y-28820443D01*
X125248458Y-29788567D01*
X125247543Y-30836834D01*
X125647853Y-31805658D01*
X126388443Y-32547542D01*
X127356567Y-32949542D01*
X128404834Y-32950457D01*
X129373658Y-32550147D01*
X130115542Y-31809557D01*
X130517542Y-30841433D01*
X130518457Y-29793166D01*
X130518457Y-107293166D01*
X130118147Y-106324342D01*
X129377557Y-105582458D01*
X128409433Y-105180458D01*
X127361166Y-105179543D01*
X127218000Y-105238697D01*
X127218000Y-101156827D01*
X127218000Y-100473173D01*
X127218000Y-83656827D01*
X127218000Y-82973173D01*
X127218000Y-66156827D01*
X127218000Y-65473173D01*
X127218000Y-48656827D01*
X127218000Y-47973173D01*
X127078319Y-47270949D01*
X126680541Y-46675632D01*
X126085224Y-46277854D01*
X125383000Y-46138173D01*
X124680776Y-46277854D01*
X124085459Y-46675632D01*
X123687681Y-47270949D01*
X123548000Y-47973173D01*
X123548000Y-48656827D01*
X123687681Y-49359051D01*
X124085459Y-49954368D01*
X124680776Y-50352146D01*
X125383000Y-50491827D01*
X126085224Y-50352146D01*
X126680541Y-49954368D01*
X127078319Y-49359051D01*
X127218000Y-48656827D01*
X127218000Y-65473173D01*
X127078319Y-64770949D01*
X126680541Y-64175632D01*
X126085224Y-63777854D01*
X125383000Y-63638173D01*
X124680776Y-63777854D01*
X124085459Y-64175632D01*
X123687681Y-64770949D01*
X123548000Y-65473173D01*
X123548000Y-66156827D01*
X123687681Y-66859051D01*
X124085459Y-67454368D01*
X124680776Y-67852146D01*
X125383000Y-67991827D01*
X126085224Y-67852146D01*
X126680541Y-67454368D01*
X127078319Y-66859051D01*
X127218000Y-66156827D01*
X127218000Y-82973173D01*
X127078319Y-82270949D01*
X126680541Y-81675632D01*
X126085224Y-81277854D01*
X125383000Y-81138173D01*
X124680776Y-81277854D01*
X124085459Y-81675632D01*
X123687681Y-82270949D01*
X123548000Y-82973173D01*
X123548000Y-83656827D01*
X123687681Y-84359051D01*
X124085459Y-84954368D01*
X124680776Y-85352146D01*
X125383000Y-85491827D01*
X126085224Y-85352146D01*
X126680541Y-84954368D01*
X127078319Y-84359051D01*
X127218000Y-83656827D01*
X127218000Y-100473173D01*
X127078319Y-99770949D01*
X126680541Y-99175632D01*
X126085224Y-98777854D01*
X125383000Y-98638173D01*
X124680776Y-98777854D01*
X124085459Y-99175632D01*
X123687681Y-99770949D01*
X123548000Y-100473173D01*
X123548000Y-101156827D01*
X123687681Y-101859051D01*
X124085459Y-102454368D01*
X124680776Y-102852146D01*
X125383000Y-102991827D01*
X126085224Y-102852146D01*
X126680541Y-102454368D01*
X127078319Y-101859051D01*
X127218000Y-101156827D01*
X127218000Y-105238697D01*
X126392342Y-105579853D01*
X125650458Y-106320443D01*
X125248458Y-107288567D01*
X125247543Y-108336834D01*
X125647853Y-109305658D01*
X126388443Y-110047542D01*
X127356567Y-110449542D01*
X128404834Y-110450457D01*
X129373658Y-110050147D01*
X130115542Y-109309557D01*
X130517542Y-108341433D01*
X130518457Y-107293166D01*
X130518457Y-112089635D01*
X130315532Y-112130000D01*
X122218000Y-112130000D01*
X122218000Y-96156827D01*
X122218000Y-95473173D01*
X122078319Y-94770949D01*
X121680541Y-94175632D01*
X121145000Y-93817795D01*
X121145000Y-80312204D01*
X121680541Y-79954368D01*
X122078319Y-79359051D01*
X122218000Y-78656827D01*
X122218000Y-77973173D01*
X122078319Y-77270949D01*
X121680541Y-76675632D01*
X121145000Y-76317795D01*
X121145000Y-62812204D01*
X121680541Y-62454368D01*
X122078319Y-61859051D01*
X122218000Y-61156827D01*
X122218000Y-60473173D01*
X122078319Y-59770949D01*
X121680541Y-59175632D01*
X121145000Y-58817795D01*
X121145000Y-45312204D01*
X121680541Y-44954368D01*
X122078319Y-44359051D01*
X122218000Y-43656827D01*
X122218000Y-42973173D01*
X122078319Y-42270949D01*
X121680541Y-41675632D01*
X121085224Y-41277854D01*
X120383000Y-41138173D01*
X119680776Y-41277854D01*
X119085459Y-41675632D01*
X118687681Y-42270949D01*
X118548000Y-42973173D01*
X118548000Y-43656827D01*
X118687681Y-44359051D01*
X119085459Y-44954368D01*
X119621000Y-45312204D01*
X119621000Y-58817795D01*
X119085459Y-59175632D01*
X118687681Y-59770949D01*
X118548000Y-60473173D01*
X118548000Y-61156827D01*
X118687681Y-61859051D01*
X119085459Y-62454368D01*
X119621000Y-62812204D01*
X119621000Y-76317795D01*
X119085459Y-76675632D01*
X118687681Y-77270949D01*
X118548000Y-77973173D01*
X118548000Y-78656827D01*
X118687681Y-79359051D01*
X119085459Y-79954368D01*
X119621000Y-80312204D01*
X119621000Y-93817795D01*
X119085459Y-94175632D01*
X118687681Y-94770949D01*
X118548000Y-95473173D01*
X118548000Y-96156827D01*
X118687681Y-96859051D01*
X119085459Y-97454368D01*
X119680776Y-97852146D01*
X120383000Y-97991827D01*
X121085224Y-97852146D01*
X121680541Y-97454368D01*
X122078319Y-96859051D01*
X122218000Y-96156827D01*
X122218000Y-112130000D01*
X110301991Y-112130000D01*
X110301991Y-33365000D01*
X110301991Y-28865000D01*
X110195651Y-28330391D01*
X109892819Y-27877172D01*
X109439600Y-27574340D01*
X108904991Y-27468000D01*
X108161009Y-27468000D01*
X107626400Y-27574340D01*
X107173181Y-27877172D01*
X106870349Y-28330391D01*
X106764009Y-28865000D01*
X106870349Y-29399609D01*
X107173181Y-29852828D01*
X107626400Y-30155660D01*
X108161009Y-30262000D01*
X108904991Y-30262000D01*
X109439600Y-30155660D01*
X109892819Y-29852828D01*
X110195651Y-29399609D01*
X110301991Y-28865000D01*
X110301991Y-33365000D01*
X110195651Y-32830391D01*
X109892819Y-32377172D01*
X109439600Y-32074340D01*
X108904991Y-31968000D01*
X108161009Y-31968000D01*
X107626400Y-32074340D01*
X107173181Y-32377172D01*
X106870349Y-32830391D01*
X106764009Y-33365000D01*
X106870349Y-33899609D01*
X107173181Y-34352828D01*
X107626400Y-34655660D01*
X108161009Y-34762000D01*
X108904991Y-34762000D01*
X109439600Y-34655660D01*
X109892819Y-34352828D01*
X110195651Y-33899609D01*
X110301991Y-33365000D01*
X110301991Y-112130000D01*
X103801991Y-112130000D01*
X103801991Y-33365000D01*
X103801991Y-28865000D01*
X103695651Y-28330391D01*
X103392819Y-27877172D01*
X102939600Y-27574340D01*
X102404991Y-27468000D01*
X101661009Y-27468000D01*
X101126400Y-27574340D01*
X100673181Y-27877172D01*
X100370349Y-28330391D01*
X100264009Y-28865000D01*
X100370349Y-29399609D01*
X100673181Y-29852828D01*
X101126400Y-30155660D01*
X101661009Y-30262000D01*
X102404991Y-30262000D01*
X102939600Y-30155660D01*
X103392819Y-29852828D01*
X103695651Y-29399609D01*
X103801991Y-28865000D01*
X103801991Y-33365000D01*
X103695651Y-32830391D01*
X103392819Y-32377172D01*
X102939600Y-32074340D01*
X102404991Y-31968000D01*
X101661009Y-31968000D01*
X101126400Y-32074340D01*
X100673181Y-32377172D01*
X100370349Y-32830391D01*
X100264009Y-33365000D01*
X100370349Y-33899609D01*
X100673181Y-34352828D01*
X101126400Y-34655660D01*
X101661009Y-34762000D01*
X102404991Y-34762000D01*
X102939600Y-34655660D01*
X103392819Y-34352828D01*
X103695651Y-33899609D01*
X103801991Y-33365000D01*
X103801991Y-112130000D01*
X45518457Y-112130000D01*
X45518457Y-107293166D01*
X45118147Y-106324342D01*
X44377557Y-105582458D01*
X43409433Y-105180458D01*
X42361166Y-105179543D01*
X41392342Y-105579853D01*
X40650458Y-106320443D01*
X40248458Y-107288567D01*
X40247543Y-108336834D01*
X40647853Y-109305658D01*
X41388443Y-110047542D01*
X42356567Y-110449542D01*
X43404834Y-110450457D01*
X44373658Y-110050147D01*
X45115542Y-109309557D01*
X45517542Y-108341433D01*
X45518457Y-107293166D01*
X45518457Y-112130000D01*
X40450467Y-112130000D01*
X39693564Y-111979442D01*
X39109089Y-111588908D01*
X38718556Y-111004434D01*
X38568000Y-110247532D01*
X38568000Y-107815000D01*
X38568000Y-105315000D01*
X38568000Y-27882467D01*
X38718556Y-27125565D01*
X39109089Y-26541091D01*
X39693564Y-26150557D01*
X40450467Y-26000000D01*
X85120370Y-26000000D01*
X82384185Y-28736185D01*
X82261347Y-28920024D01*
X81863330Y-29185971D01*
X81653000Y-29500751D01*
X81442670Y-29185971D01*
X80956489Y-28861115D01*
X80383000Y-28747041D01*
X79809511Y-28861115D01*
X79323330Y-29185971D01*
X79078088Y-29553000D01*
X77158709Y-29553000D01*
X77133463Y-29422877D01*
X76993673Y-29210073D01*
X76782640Y-29067623D01*
X76533000Y-29017560D01*
X75233000Y-29017560D01*
X74990877Y-29064537D01*
X74778073Y-29204327D01*
X74635623Y-29415360D01*
X74585560Y-29665000D01*
X74585560Y-30965000D01*
X74632537Y-31207123D01*
X74772327Y-31419927D01*
X74983360Y-31562377D01*
X75233000Y-31612440D01*
X75395385Y-31612440D01*
X75219271Y-31685389D01*
X75163590Y-31915984D01*
X75883000Y-32635395D01*
X76602410Y-31915984D01*
X76546729Y-31685389D01*
X76337098Y-31612440D01*
X76533000Y-31612440D01*
X76775123Y-31565463D01*
X76987927Y-31425673D01*
X77130377Y-31214640D01*
X77157979Y-31077000D01*
X79131543Y-31077000D01*
X79310300Y-31344529D01*
X79277277Y-31350937D01*
X79064473Y-31490727D01*
X78922023Y-31701760D01*
X78871960Y-31951400D01*
X78871960Y-33678600D01*
X78918937Y-33920723D01*
X79058727Y-34133527D01*
X79269760Y-34275977D01*
X79519400Y-34326040D01*
X81246600Y-34326040D01*
X81488723Y-34279063D01*
X81701527Y-34139273D01*
X81843977Y-33928240D01*
X81852179Y-33887340D01*
X81863330Y-33904029D01*
X82149589Y-34095301D01*
X82124134Y-36958932D01*
X77180622Y-41141904D01*
X77180622Y-32995922D01*
X77151083Y-32485572D01*
X77012611Y-32151271D01*
X76782016Y-32095590D01*
X76062605Y-32815000D01*
X76782016Y-33534410D01*
X77012611Y-33478729D01*
X77180622Y-32995922D01*
X77180622Y-41141904D01*
X76602410Y-41631160D01*
X76602410Y-33714016D01*
X75883000Y-32994605D01*
X75703395Y-33174210D01*
X75703395Y-32815000D01*
X74983984Y-32095590D01*
X74753389Y-32151271D01*
X74585378Y-32634078D01*
X74614917Y-33144428D01*
X74753389Y-33478729D01*
X74983984Y-33534410D01*
X75703395Y-32815000D01*
X75703395Y-33174210D01*
X75163590Y-33714016D01*
X75219271Y-33944611D01*
X75702078Y-34112622D01*
X76212428Y-34083083D01*
X76546729Y-33944611D01*
X76602410Y-33714016D01*
X76602410Y-41631160D01*
X69661991Y-47503823D01*
X69661991Y-33365000D01*
X69661991Y-28865000D01*
X69555651Y-28330391D01*
X69252819Y-27877172D01*
X68799600Y-27574340D01*
X68264991Y-27468000D01*
X67521009Y-27468000D01*
X66986400Y-27574340D01*
X66533181Y-27877172D01*
X66230349Y-28330391D01*
X66124009Y-28865000D01*
X66230349Y-29399609D01*
X66533181Y-29852828D01*
X66986400Y-30155660D01*
X67521009Y-30262000D01*
X68264991Y-30262000D01*
X68799600Y-30155660D01*
X69252819Y-29852828D01*
X69555651Y-29399609D01*
X69661991Y-28865000D01*
X69661991Y-33365000D01*
X69555651Y-32830391D01*
X69252819Y-32377172D01*
X68799600Y-32074340D01*
X68264991Y-31968000D01*
X67521009Y-31968000D01*
X66986400Y-32074340D01*
X66533181Y-32377172D01*
X66230349Y-32830391D01*
X66124009Y-33365000D01*
X66230349Y-33899609D01*
X66533181Y-34352828D01*
X66986400Y-34655660D01*
X67521009Y-34762000D01*
X68264991Y-34762000D01*
X68799600Y-34655660D01*
X69252819Y-34352828D01*
X69555651Y-33899609D01*
X69661991Y-33365000D01*
X69661991Y-47503823D01*
X69603873Y-47553000D01*
X63161991Y-47553000D01*
X63161991Y-33365000D01*
X63161991Y-28865000D01*
X63055651Y-28330391D01*
X62752819Y-27877172D01*
X62299600Y-27574340D01*
X61764991Y-27468000D01*
X61021009Y-27468000D01*
X60486400Y-27574340D01*
X60033181Y-27877172D01*
X59730349Y-28330391D01*
X59624009Y-28865000D01*
X59730349Y-29399609D01*
X60033181Y-29852828D01*
X60486400Y-30155660D01*
X61021009Y-30262000D01*
X61764991Y-30262000D01*
X62299600Y-30155660D01*
X62752819Y-29852828D01*
X63055651Y-29399609D01*
X63161991Y-28865000D01*
X63161991Y-33365000D01*
X63055651Y-32830391D01*
X62752819Y-32377172D01*
X62299600Y-32074340D01*
X61764991Y-31968000D01*
X61021009Y-31968000D01*
X60486400Y-32074340D01*
X60033181Y-32377172D01*
X59730349Y-32830391D01*
X59624009Y-33365000D01*
X59730349Y-33899609D01*
X60033181Y-34352828D01*
X60486400Y-34655660D01*
X61021009Y-34762000D01*
X61764991Y-34762000D01*
X62299600Y-34655660D01*
X62752819Y-34352828D01*
X63055651Y-33899609D01*
X63161991Y-33365000D01*
X63161991Y-47553000D01*
X52218000Y-47553000D01*
X52218000Y-43742000D01*
X52218000Y-43442000D01*
X52218000Y-43188000D01*
X52218000Y-42888000D01*
X52029718Y-42195443D01*
X51590738Y-41627656D01*
X50967891Y-41271080D01*
X50794805Y-41226805D01*
X50510000Y-41343568D01*
X50510000Y-43188000D01*
X52218000Y-43188000D01*
X52218000Y-43442000D01*
X50510000Y-43442000D01*
X50510000Y-45286432D01*
X50794805Y-45403195D01*
X50967891Y-45358920D01*
X51590738Y-45002344D01*
X52029718Y-44434557D01*
X52218000Y-43742000D01*
X52218000Y-47553000D01*
X50256000Y-47553000D01*
X50256000Y-45286432D01*
X50256000Y-43442000D01*
X50256000Y-43188000D01*
X50256000Y-41343568D01*
X49971195Y-41226805D01*
X49798109Y-41271080D01*
X49175262Y-41627656D01*
X48736282Y-42195443D01*
X48548000Y-42888000D01*
X48548000Y-43188000D01*
X50256000Y-43188000D01*
X50256000Y-43442000D01*
X48548000Y-43442000D01*
X48548000Y-43742000D01*
X48736282Y-44434557D01*
X49175262Y-45002344D01*
X49798109Y-45358920D01*
X49971195Y-45403195D01*
X50256000Y-45286432D01*
X50256000Y-47553000D01*
X47134422Y-47553000D01*
X47078319Y-47270949D01*
X46680541Y-46675632D01*
X46085224Y-46277854D01*
X45518457Y-46165117D01*
X45518457Y-29793166D01*
X45118147Y-28824342D01*
X44377557Y-28082458D01*
X43409433Y-27680458D01*
X42361166Y-27679543D01*
X41392342Y-28079853D01*
X40650458Y-28820443D01*
X40248458Y-29788567D01*
X40247543Y-30836834D01*
X40647853Y-31805658D01*
X41388443Y-32547542D01*
X42356567Y-32949542D01*
X43404834Y-32950457D01*
X44373658Y-32550147D01*
X45115542Y-31809557D01*
X45517542Y-30841433D01*
X45518457Y-29793166D01*
X45518457Y-46165117D01*
X45383000Y-46138173D01*
X44680776Y-46277854D01*
X44085459Y-46675632D01*
X43687681Y-47270949D01*
X43548000Y-47973173D01*
X43548000Y-48656827D01*
X43687681Y-49359051D01*
X44085459Y-49954368D01*
X44680776Y-50352146D01*
X45383000Y-50491827D01*
X46085224Y-50352146D01*
X46680541Y-49954368D01*
X47078319Y-49359051D01*
X47134422Y-49077000D01*
X69883000Y-49077000D01*
X69998316Y-49054061D01*
X70115133Y-49040781D01*
X70143169Y-49025248D01*
X70174605Y-49018996D01*
X70272363Y-48953675D01*
X70375208Y-48896700D01*
X83375208Y-37896701D01*
X83393048Y-37874283D01*
X83417004Y-37858583D01*
X83485057Y-37758667D01*
X83560348Y-37664061D01*
X83568250Y-37636526D01*
X83584376Y-37612851D01*
X83609016Y-37494485D01*
X83642367Y-37378281D01*
X83639131Y-37349820D01*
X83644970Y-37321773D01*
X83673513Y-34110600D01*
X83982670Y-33904029D01*
X84193000Y-33589248D01*
X84403330Y-33904029D01*
X84889511Y-34228885D01*
X85463000Y-34342959D01*
X86036489Y-34228885D01*
X86522670Y-33904029D01*
X86733000Y-33589248D01*
X86943330Y-33904029D01*
X87429511Y-34228885D01*
X88003000Y-34342959D01*
X88576489Y-34228885D01*
X89062670Y-33904029D01*
X89273000Y-33589248D01*
X89483330Y-33904029D01*
X89969511Y-34228885D01*
X90543000Y-34342959D01*
X91116489Y-34228885D01*
X91602670Y-33904029D01*
X91927526Y-33417848D01*
X92041600Y-32844359D01*
X92041600Y-32785641D01*
X91927526Y-32212152D01*
X91602670Y-31725971D01*
X91331839Y-31545007D01*
X91749821Y-31163490D01*
X91997968Y-30634027D01*
X91877469Y-30402000D01*
X90670000Y-30402000D01*
X90670000Y-30422000D01*
X90416000Y-30422000D01*
X90416000Y-30402000D01*
X90396000Y-30402000D01*
X90396000Y-30148000D01*
X90416000Y-30148000D01*
X90416000Y-30128000D01*
X90670000Y-30128000D01*
X90670000Y-30148000D01*
X91877469Y-30148000D01*
X91997968Y-29915973D01*
X91749821Y-29386510D01*
X91410729Y-29077000D01*
X91567369Y-29077000D01*
X92121000Y-29630630D01*
X92121000Y-41999370D01*
X69560955Y-64559414D01*
X52218000Y-64913351D01*
X52218000Y-61242000D01*
X52218000Y-60942000D01*
X52218000Y-60688000D01*
X52218000Y-60388000D01*
X52029718Y-59695443D01*
X51590738Y-59127656D01*
X50967891Y-58771080D01*
X50794805Y-58726805D01*
X50510000Y-58843568D01*
X50510000Y-60688000D01*
X52218000Y-60688000D01*
X52218000Y-60942000D01*
X50510000Y-60942000D01*
X50510000Y-62786432D01*
X50794805Y-62903195D01*
X50967891Y-62858920D01*
X51590738Y-62502344D01*
X52029718Y-61934557D01*
X52218000Y-61242000D01*
X52218000Y-64913351D01*
X50256000Y-64953392D01*
X50256000Y-62786432D01*
X50256000Y-60942000D01*
X50256000Y-60688000D01*
X50256000Y-58843568D01*
X49971195Y-58726805D01*
X49798109Y-58771080D01*
X49175262Y-59127656D01*
X48736282Y-59695443D01*
X48548000Y-60388000D01*
X48548000Y-60688000D01*
X50256000Y-60688000D01*
X50256000Y-60942000D01*
X48548000Y-60942000D01*
X48548000Y-61242000D01*
X48736282Y-61934557D01*
X49175262Y-62502344D01*
X49798109Y-62858920D01*
X49971195Y-62903195D01*
X50256000Y-62786432D01*
X50256000Y-64953392D01*
X47127310Y-65017243D01*
X47078319Y-64770949D01*
X46680541Y-64175632D01*
X46085224Y-63777854D01*
X45383000Y-63638173D01*
X44680776Y-63777854D01*
X44085459Y-64175632D01*
X43687681Y-64770949D01*
X43548000Y-65473173D01*
X43548000Y-66156827D01*
X43687681Y-66859051D01*
X44085459Y-67454368D01*
X44680776Y-67852146D01*
X45383000Y-67991827D01*
X46085224Y-67852146D01*
X46680541Y-67454368D01*
X47078319Y-66859051D01*
X47141529Y-66541269D01*
X69898548Y-66076841D01*
X70036312Y-66046503D01*
X70174604Y-66018996D01*
X70181180Y-66014601D01*
X70188909Y-66012900D01*
X70304579Y-65932149D01*
X70421815Y-65853815D01*
X93121000Y-43154630D01*
X93121000Y-58999369D01*
X69567369Y-82553000D01*
X52218000Y-82553000D01*
X52218000Y-78742000D01*
X52218000Y-78442000D01*
X52218000Y-78188000D01*
X52218000Y-77888000D01*
X52029718Y-77195443D01*
X51590738Y-76627656D01*
X50967891Y-76271080D01*
X50794805Y-76226805D01*
X50510000Y-76343568D01*
X50510000Y-78188000D01*
X52218000Y-78188000D01*
X52218000Y-78442000D01*
X50510000Y-78442000D01*
X50510000Y-80286432D01*
X50794805Y-80403195D01*
X50967891Y-80358920D01*
X51590738Y-80002344D01*
X52029718Y-79434557D01*
X52218000Y-78742000D01*
X52218000Y-82553000D01*
X50256000Y-82553000D01*
X50256000Y-80286432D01*
X50256000Y-78442000D01*
X50256000Y-78188000D01*
X50256000Y-76343568D01*
X49971195Y-76226805D01*
X49798109Y-76271080D01*
X49175262Y-76627656D01*
X48736282Y-77195443D01*
X48548000Y-77888000D01*
X48548000Y-78188000D01*
X50256000Y-78188000D01*
X50256000Y-78442000D01*
X48548000Y-78442000D01*
X48548000Y-78742000D01*
X48736282Y-79434557D01*
X49175262Y-80002344D01*
X49798109Y-80358920D01*
X49971195Y-80403195D01*
X50256000Y-80286432D01*
X50256000Y-82553000D01*
X47134422Y-82553000D01*
X47078319Y-82270949D01*
X46680541Y-81675632D01*
X46085224Y-81277854D01*
X45383000Y-81138173D01*
X44680776Y-81277854D01*
X44085459Y-81675632D01*
X43687681Y-82270949D01*
X43548000Y-82973173D01*
X43548000Y-83656827D01*
X43687681Y-84359051D01*
X44085459Y-84954368D01*
X44680776Y-85352146D01*
X45383000Y-85491827D01*
X46085224Y-85352146D01*
X46680541Y-84954368D01*
X47078319Y-84359051D01*
X47134422Y-84077000D01*
X69883000Y-84077000D01*
X69883000Y-84076999D01*
X70174604Y-84018996D01*
X70174605Y-84018996D01*
X70421815Y-83853815D01*
X94121000Y-60154630D01*
X94121000Y-74999370D01*
X69560955Y-99559414D01*
X52218000Y-99913351D01*
X52218000Y-96242000D01*
X52218000Y-95942000D01*
X52218000Y-95688000D01*
X52218000Y-95388000D01*
X52029718Y-94695443D01*
X51590738Y-94127656D01*
X50967891Y-93771080D01*
X50794805Y-93726805D01*
X50510000Y-93843568D01*
X50510000Y-95688000D01*
X52218000Y-95688000D01*
X52218000Y-95942000D01*
X50510000Y-95942000D01*
X50510000Y-97786432D01*
X50794805Y-97903195D01*
X50967891Y-97858920D01*
X51590738Y-97502344D01*
X52029718Y-96934557D01*
X52218000Y-96242000D01*
X52218000Y-99913351D01*
X50256000Y-99953392D01*
X50256000Y-97786432D01*
X50256000Y-95942000D01*
X50256000Y-95688000D01*
X50256000Y-93843568D01*
X49971195Y-93726805D01*
X49798109Y-93771080D01*
X49175262Y-94127656D01*
X48736282Y-94695443D01*
X48548000Y-95388000D01*
X48548000Y-95688000D01*
X50256000Y-95688000D01*
X50256000Y-95942000D01*
X48548000Y-95942000D01*
X48548000Y-96242000D01*
X48736282Y-96934557D01*
X49175262Y-97502344D01*
X49798109Y-97858920D01*
X49971195Y-97903195D01*
X50256000Y-97786432D01*
X50256000Y-99953392D01*
X47127310Y-100017243D01*
X47078319Y-99770949D01*
X46680541Y-99175632D01*
X46085224Y-98777854D01*
X45383000Y-98638173D01*
X44680776Y-98777854D01*
X44085459Y-99175632D01*
X43687681Y-99770949D01*
X43548000Y-100473173D01*
X43548000Y-101156827D01*
X43687681Y-101859051D01*
X44085459Y-102454368D01*
X44680776Y-102852146D01*
X45383000Y-102991827D01*
X46085224Y-102852146D01*
X46680541Y-102454368D01*
X47078319Y-101859051D01*
X47141529Y-101541269D01*
X69898548Y-101076841D01*
X70036312Y-101046503D01*
X70174604Y-101018996D01*
X70181180Y-101014601D01*
X70188909Y-101012900D01*
X70304579Y-100932149D01*
X70421815Y-100853815D01*
X95421815Y-75853815D01*
X95586996Y-75606605D01*
X95644999Y-75315000D01*
X95645000Y-75315000D01*
X95645000Y-27315000D01*
X95586997Y-27023396D01*
X95586996Y-27023395D01*
X95421816Y-26776185D01*
X94645630Y-26000000D01*
X130315532Y-26000000D01*
X131072434Y-26150556D01*
X131656908Y-26541089D01*
X132047442Y-27125564D01*
X132198000Y-27882467D01*
X132198000Y-105315000D01*
X132198000Y-107815000D01*
X132198000Y-110247532D01*
G36*
X132198000Y-204227532D02*
X132047442Y-204984435D01*
X131656908Y-205568910D01*
X131072434Y-205959443D01*
X130518457Y-206069635D01*
X130518457Y-201273166D01*
X130518457Y-123773166D01*
X130118147Y-122804342D01*
X129377557Y-122062458D01*
X128409433Y-121660458D01*
X127361166Y-121659543D01*
X126392342Y-122059853D01*
X125650458Y-122800443D01*
X125248458Y-123768567D01*
X125247543Y-124816834D01*
X125647853Y-125785658D01*
X126388443Y-126527542D01*
X127356567Y-126929542D01*
X128404834Y-126930457D01*
X129373658Y-126530147D01*
X130115542Y-125789557D01*
X130517542Y-124821433D01*
X130518457Y-123773166D01*
X130518457Y-201273166D01*
X130118147Y-200304342D01*
X129377557Y-199562458D01*
X128409433Y-199160458D01*
X127361166Y-199159543D01*
X127218000Y-199218697D01*
X127218000Y-195136827D01*
X127218000Y-194453173D01*
X127218000Y-177636827D01*
X127218000Y-176953173D01*
X127218000Y-160136827D01*
X127218000Y-159453173D01*
X127218000Y-142636827D01*
X127218000Y-141953173D01*
X127078319Y-141250949D01*
X126680541Y-140655632D01*
X126085224Y-140257854D01*
X125383000Y-140118173D01*
X124680776Y-140257854D01*
X124085459Y-140655632D01*
X123687681Y-141250949D01*
X123548000Y-141953173D01*
X123548000Y-142636827D01*
X123687681Y-143339051D01*
X124085459Y-143934368D01*
X124680776Y-144332146D01*
X125383000Y-144471827D01*
X126085224Y-144332146D01*
X126680541Y-143934368D01*
X127078319Y-143339051D01*
X127218000Y-142636827D01*
X127218000Y-159453173D01*
X127078319Y-158750949D01*
X126680541Y-158155632D01*
X126085224Y-157757854D01*
X125383000Y-157618173D01*
X124680776Y-157757854D01*
X124085459Y-158155632D01*
X123687681Y-158750949D01*
X123548000Y-159453173D01*
X123548000Y-160136827D01*
X123687681Y-160839051D01*
X124085459Y-161434368D01*
X124680776Y-161832146D01*
X125383000Y-161971827D01*
X126085224Y-161832146D01*
X126680541Y-161434368D01*
X127078319Y-160839051D01*
X127218000Y-160136827D01*
X127218000Y-176953173D01*
X127078319Y-176250949D01*
X126680541Y-175655632D01*
X126085224Y-175257854D01*
X125383000Y-175118173D01*
X124680776Y-175257854D01*
X124085459Y-175655632D01*
X123687681Y-176250949D01*
X123548000Y-176953173D01*
X123548000Y-177636827D01*
X123687681Y-178339051D01*
X124085459Y-178934368D01*
X124680776Y-179332146D01*
X125383000Y-179471827D01*
X126085224Y-179332146D01*
X126680541Y-178934368D01*
X127078319Y-178339051D01*
X127218000Y-177636827D01*
X127218000Y-194453173D01*
X127078319Y-193750949D01*
X126680541Y-193155632D01*
X126085224Y-192757854D01*
X125383000Y-192618173D01*
X124680776Y-192757854D01*
X124085459Y-193155632D01*
X123687681Y-193750949D01*
X123548000Y-194453173D01*
X123548000Y-195136827D01*
X123687681Y-195839051D01*
X124085459Y-196434368D01*
X124680776Y-196832146D01*
X125383000Y-196971827D01*
X126085224Y-196832146D01*
X126680541Y-196434368D01*
X127078319Y-195839051D01*
X127218000Y-195136827D01*
X127218000Y-199218697D01*
X126392342Y-199559853D01*
X125650458Y-200300443D01*
X125248458Y-201268567D01*
X125247543Y-202316834D01*
X125647853Y-203285658D01*
X126388443Y-204027542D01*
X127356567Y-204429542D01*
X128404834Y-204430457D01*
X129373658Y-204030147D01*
X130115542Y-203289557D01*
X130517542Y-202321433D01*
X130518457Y-201273166D01*
X130518457Y-206069635D01*
X130315532Y-206110000D01*
X122218000Y-206110000D01*
X122218000Y-190136827D01*
X122218000Y-189453173D01*
X122078319Y-188750949D01*
X121680541Y-188155632D01*
X121145000Y-187797795D01*
X121145000Y-174292204D01*
X121680541Y-173934368D01*
X122078319Y-173339051D01*
X122218000Y-172636827D01*
X122218000Y-171953173D01*
X122078319Y-171250949D01*
X121680541Y-170655632D01*
X121145000Y-170297795D01*
X121145000Y-156792204D01*
X121680541Y-156434368D01*
X122078319Y-155839051D01*
X122218000Y-155136827D01*
X122218000Y-154453173D01*
X122078319Y-153750949D01*
X121680541Y-153155632D01*
X121145000Y-152797795D01*
X121145000Y-139292204D01*
X121680541Y-138934368D01*
X122078319Y-138339051D01*
X122218000Y-137636827D01*
X122218000Y-136953173D01*
X122078319Y-136250949D01*
X121680541Y-135655632D01*
X121085224Y-135257854D01*
X120383000Y-135118173D01*
X119680776Y-135257854D01*
X119085459Y-135655632D01*
X118687681Y-136250949D01*
X118548000Y-136953173D01*
X118548000Y-137636827D01*
X118687681Y-138339051D01*
X119085459Y-138934368D01*
X119621000Y-139292204D01*
X119621000Y-152797795D01*
X119085459Y-153155632D01*
X118687681Y-153750949D01*
X118548000Y-154453173D01*
X118548000Y-155136827D01*
X118687681Y-155839051D01*
X119085459Y-156434368D01*
X119621000Y-156792204D01*
X119621000Y-170297795D01*
X119085459Y-170655632D01*
X118687681Y-171250949D01*
X118548000Y-171953173D01*
X118548000Y-172636827D01*
X118687681Y-173339051D01*
X119085459Y-173934368D01*
X119621000Y-174292204D01*
X119621000Y-187797795D01*
X119085459Y-188155632D01*
X118687681Y-188750949D01*
X118548000Y-189453173D01*
X118548000Y-190136827D01*
X118687681Y-190839051D01*
X119085459Y-191434368D01*
X119680776Y-191832146D01*
X120383000Y-191971827D01*
X121085224Y-191832146D01*
X121680541Y-191434368D01*
X122078319Y-190839051D01*
X122218000Y-190136827D01*
X122218000Y-206110000D01*
X110301991Y-206110000D01*
X110301991Y-127345000D01*
X110301991Y-122845000D01*
X110195651Y-122310391D01*
X109892819Y-121857172D01*
X109439600Y-121554340D01*
X108904991Y-121448000D01*
X108161009Y-121448000D01*
X107626400Y-121554340D01*
X107173181Y-121857172D01*
X106870349Y-122310391D01*
X106764009Y-122845000D01*
X106870349Y-123379609D01*
X107173181Y-123832828D01*
X107626400Y-124135660D01*
X108161009Y-124242000D01*
X108904991Y-124242000D01*
X109439600Y-124135660D01*
X109892819Y-123832828D01*
X110195651Y-123379609D01*
X110301991Y-122845000D01*
X110301991Y-127345000D01*
X110195651Y-126810391D01*
X109892819Y-126357172D01*
X109439600Y-126054340D01*
X108904991Y-125948000D01*
X108161009Y-125948000D01*
X107626400Y-126054340D01*
X107173181Y-126357172D01*
X106870349Y-126810391D01*
X106764009Y-127345000D01*
X106870349Y-127879609D01*
X107173181Y-128332828D01*
X107626400Y-128635660D01*
X108161009Y-128742000D01*
X108904991Y-128742000D01*
X109439600Y-128635660D01*
X109892819Y-128332828D01*
X110195651Y-127879609D01*
X110301991Y-127345000D01*
X110301991Y-206110000D01*
X103801991Y-206110000D01*
X103801991Y-127345000D01*
X103801991Y-122845000D01*
X103695651Y-122310391D01*
X103392819Y-121857172D01*
X102939600Y-121554340D01*
X102404991Y-121448000D01*
X101661009Y-121448000D01*
X101126400Y-121554340D01*
X100673181Y-121857172D01*
X100370349Y-122310391D01*
X100264009Y-122845000D01*
X100370349Y-123379609D01*
X100673181Y-123832828D01*
X101126400Y-124135660D01*
X101661009Y-124242000D01*
X102404991Y-124242000D01*
X102939600Y-124135660D01*
X103392819Y-123832828D01*
X103695651Y-123379609D01*
X103801991Y-122845000D01*
X103801991Y-127345000D01*
X103695651Y-126810391D01*
X103392819Y-126357172D01*
X102939600Y-126054340D01*
X102404991Y-125948000D01*
X101661009Y-125948000D01*
X101126400Y-126054340D01*
X100673181Y-126357172D01*
X100370349Y-126810391D01*
X100264009Y-127345000D01*
X100370349Y-127879609D01*
X100673181Y-128332828D01*
X101126400Y-128635660D01*
X101661009Y-128742000D01*
X102404991Y-128742000D01*
X102939600Y-128635660D01*
X103392819Y-128332828D01*
X103695651Y-127879609D01*
X103801991Y-127345000D01*
X103801991Y-206110000D01*
X45518457Y-206110000D01*
X45518457Y-201273166D01*
X45118147Y-200304342D01*
X44377557Y-199562458D01*
X43409433Y-199160458D01*
X42361166Y-199159543D01*
X41392342Y-199559853D01*
X40650458Y-200300443D01*
X40248458Y-201268567D01*
X40247543Y-202316834D01*
X40647853Y-203285658D01*
X41388443Y-204027542D01*
X42356567Y-204429542D01*
X43404834Y-204430457D01*
X44373658Y-204030147D01*
X45115542Y-203289557D01*
X45517542Y-202321433D01*
X45518457Y-201273166D01*
X45518457Y-206110000D01*
X40450467Y-206110000D01*
X39693564Y-205959442D01*
X39109089Y-205568908D01*
X38718556Y-204984434D01*
X38568000Y-204227532D01*
X38568000Y-201795000D01*
X38568000Y-199295000D01*
X38568000Y-121862467D01*
X38718556Y-121105565D01*
X39109089Y-120521091D01*
X39693564Y-120130557D01*
X40450467Y-119980000D01*
X85120370Y-119980000D01*
X82384185Y-122716185D01*
X82261347Y-122900024D01*
X81863330Y-123165971D01*
X81653000Y-123480751D01*
X81442670Y-123165971D01*
X80956489Y-122841115D01*
X80383000Y-122727041D01*
X79809511Y-122841115D01*
X79323330Y-123165971D01*
X79078088Y-123533000D01*
X77158709Y-123533000D01*
X77133463Y-123402877D01*
X76993673Y-123190073D01*
X76782640Y-123047623D01*
X76533000Y-122997560D01*
X75233000Y-122997560D01*
X74990877Y-123044537D01*
X74778073Y-123184327D01*
X74635623Y-123395360D01*
X74585560Y-123645000D01*
X74585560Y-124945000D01*
X74632537Y-125187123D01*
X74772327Y-125399927D01*
X74983360Y-125542377D01*
X75233000Y-125592440D01*
X75395385Y-125592440D01*
X75219271Y-125665389D01*
X75163590Y-125895984D01*
X75883000Y-126615395D01*
X76602410Y-125895984D01*
X76546729Y-125665389D01*
X76337098Y-125592440D01*
X76533000Y-125592440D01*
X76775123Y-125545463D01*
X76987927Y-125405673D01*
X77130377Y-125194640D01*
X77157979Y-125057000D01*
X79131543Y-125057000D01*
X79310300Y-125324529D01*
X79277277Y-125330937D01*
X79064473Y-125470727D01*
X78922023Y-125681760D01*
X78871960Y-125931400D01*
X78871960Y-127658600D01*
X78918937Y-127900723D01*
X79058727Y-128113527D01*
X79269760Y-128255977D01*
X79519400Y-128306040D01*
X81246600Y-128306040D01*
X81488723Y-128259063D01*
X81701527Y-128119273D01*
X81843977Y-127908240D01*
X81852179Y-127867340D01*
X81863330Y-127884029D01*
X82149589Y-128075301D01*
X82124134Y-130938932D01*
X77180622Y-135121904D01*
X77180622Y-126975922D01*
X77151083Y-126465572D01*
X77012611Y-126131271D01*
X76782016Y-126075590D01*
X76062605Y-126795000D01*
X76782016Y-127514410D01*
X77012611Y-127458729D01*
X77180622Y-126975922D01*
X77180622Y-135121904D01*
X76602410Y-135611160D01*
X76602410Y-127694016D01*
X75883000Y-126974605D01*
X75703395Y-127154210D01*
X75703395Y-126795000D01*
X74983984Y-126075590D01*
X74753389Y-126131271D01*
X74585378Y-126614078D01*
X74614917Y-127124428D01*
X74753389Y-127458729D01*
X74983984Y-127514410D01*
X75703395Y-126795000D01*
X75703395Y-127154210D01*
X75163590Y-127694016D01*
X75219271Y-127924611D01*
X75702078Y-128092622D01*
X76212428Y-128063083D01*
X76546729Y-127924611D01*
X76602410Y-127694016D01*
X76602410Y-135611160D01*
X69661991Y-141483823D01*
X69661991Y-127345000D01*
X69661991Y-122845000D01*
X69555651Y-122310391D01*
X69252819Y-121857172D01*
X68799600Y-121554340D01*
X68264991Y-121448000D01*
X67521009Y-121448000D01*
X66986400Y-121554340D01*
X66533181Y-121857172D01*
X66230349Y-122310391D01*
X66124009Y-122845000D01*
X66230349Y-123379609D01*
X66533181Y-123832828D01*
X66986400Y-124135660D01*
X67521009Y-124242000D01*
X68264991Y-124242000D01*
X68799600Y-124135660D01*
X69252819Y-123832828D01*
X69555651Y-123379609D01*
X69661991Y-122845000D01*
X69661991Y-127345000D01*
X69555651Y-126810391D01*
X69252819Y-126357172D01*
X68799600Y-126054340D01*
X68264991Y-125948000D01*
X67521009Y-125948000D01*
X66986400Y-126054340D01*
X66533181Y-126357172D01*
X66230349Y-126810391D01*
X66124009Y-127345000D01*
X66230349Y-127879609D01*
X66533181Y-128332828D01*
X66986400Y-128635660D01*
X67521009Y-128742000D01*
X68264991Y-128742000D01*
X68799600Y-128635660D01*
X69252819Y-128332828D01*
X69555651Y-127879609D01*
X69661991Y-127345000D01*
X69661991Y-141483823D01*
X69603873Y-141533000D01*
X63161991Y-141533000D01*
X63161991Y-127345000D01*
X63161991Y-122845000D01*
X63055651Y-122310391D01*
X62752819Y-121857172D01*
X62299600Y-121554340D01*
X61764991Y-121448000D01*
X61021009Y-121448000D01*
X60486400Y-121554340D01*
X60033181Y-121857172D01*
X59730349Y-122310391D01*
X59624009Y-122845000D01*
X59730349Y-123379609D01*
X60033181Y-123832828D01*
X60486400Y-124135660D01*
X61021009Y-124242000D01*
X61764991Y-124242000D01*
X62299600Y-124135660D01*
X62752819Y-123832828D01*
X63055651Y-123379609D01*
X63161991Y-122845000D01*
X63161991Y-127345000D01*
X63055651Y-126810391D01*
X62752819Y-126357172D01*
X62299600Y-126054340D01*
X61764991Y-125948000D01*
X61021009Y-125948000D01*
X60486400Y-126054340D01*
X60033181Y-126357172D01*
X59730349Y-126810391D01*
X59624009Y-127345000D01*
X59730349Y-127879609D01*
X60033181Y-128332828D01*
X60486400Y-128635660D01*
X61021009Y-128742000D01*
X61764991Y-128742000D01*
X62299600Y-128635660D01*
X62752819Y-128332828D01*
X63055651Y-127879609D01*
X63161991Y-127345000D01*
X63161991Y-141533000D01*
X52218000Y-141533000D01*
X52218000Y-137722000D01*
X52218000Y-137422000D01*
X52218000Y-137168000D01*
X52218000Y-136868000D01*
X52029718Y-136175443D01*
X51590738Y-135607656D01*
X50967891Y-135251080D01*
X50794805Y-135206805D01*
X50510000Y-135323568D01*
X50510000Y-137168000D01*
X52218000Y-137168000D01*
X52218000Y-137422000D01*
X50510000Y-137422000D01*
X50510000Y-139266432D01*
X50794805Y-139383195D01*
X50967891Y-139338920D01*
X51590738Y-138982344D01*
X52029718Y-138414557D01*
X52218000Y-137722000D01*
X52218000Y-141533000D01*
X50256000Y-141533000D01*
X50256000Y-139266432D01*
X50256000Y-137422000D01*
X50256000Y-137168000D01*
X50256000Y-135323568D01*
X49971195Y-135206805D01*
X49798109Y-135251080D01*
X49175262Y-135607656D01*
X48736282Y-136175443D01*
X48548000Y-136868000D01*
X48548000Y-137168000D01*
X50256000Y-137168000D01*
X50256000Y-137422000D01*
X48548000Y-137422000D01*
X48548000Y-137722000D01*
X48736282Y-138414557D01*
X49175262Y-138982344D01*
X49798109Y-139338920D01*
X49971195Y-139383195D01*
X50256000Y-139266432D01*
X50256000Y-141533000D01*
X47134422Y-141533000D01*
X47078319Y-141250949D01*
X46680541Y-140655632D01*
X46085224Y-140257854D01*
X45518457Y-140145117D01*
X45518457Y-123773166D01*
X45118147Y-122804342D01*
X44377557Y-122062458D01*
X43409433Y-121660458D01*
X42361166Y-121659543D01*
X41392342Y-122059853D01*
X40650458Y-122800443D01*
X40248458Y-123768567D01*
X40247543Y-124816834D01*
X40647853Y-125785658D01*
X41388443Y-126527542D01*
X42356567Y-126929542D01*
X43404834Y-126930457D01*
X44373658Y-126530147D01*
X45115542Y-125789557D01*
X45517542Y-124821433D01*
X45518457Y-123773166D01*
X45518457Y-140145117D01*
X45383000Y-140118173D01*
X44680776Y-140257854D01*
X44085459Y-140655632D01*
X43687681Y-141250949D01*
X43548000Y-141953173D01*
X43548000Y-142636827D01*
X43687681Y-143339051D01*
X44085459Y-143934368D01*
X44680776Y-144332146D01*
X45383000Y-144471827D01*
X46085224Y-144332146D01*
X46680541Y-143934368D01*
X47078319Y-143339051D01*
X47134422Y-143057000D01*
X69883000Y-143057000D01*
X69998316Y-143034061D01*
X70115133Y-143020781D01*
X70143169Y-143005248D01*
X70174605Y-142998996D01*
X70272363Y-142933675D01*
X70375208Y-142876700D01*
X83375208Y-131876701D01*
X83393048Y-131854283D01*
X83417004Y-131838583D01*
X83485057Y-131738667D01*
X83560348Y-131644061D01*
X83568250Y-131616526D01*
X83584376Y-131592851D01*
X83609016Y-131474485D01*
X83642367Y-131358281D01*
X83639131Y-131329820D01*
X83644970Y-131301773D01*
X83673513Y-128090600D01*
X83982670Y-127884029D01*
X84193000Y-127569248D01*
X84403330Y-127884029D01*
X84889511Y-128208885D01*
X85463000Y-128322959D01*
X86036489Y-128208885D01*
X86522670Y-127884029D01*
X86733000Y-127569248D01*
X86943330Y-127884029D01*
X87429511Y-128208885D01*
X88003000Y-128322959D01*
X88576489Y-128208885D01*
X89062670Y-127884029D01*
X89273000Y-127569248D01*
X89483330Y-127884029D01*
X89969511Y-128208885D01*
X90543000Y-128322959D01*
X91116489Y-128208885D01*
X91602670Y-127884029D01*
X91927526Y-127397848D01*
X92041600Y-126824359D01*
X92041600Y-126765641D01*
X91927526Y-126192152D01*
X91602670Y-125705971D01*
X91331839Y-125525007D01*
X91749821Y-125143490D01*
X91997968Y-124614027D01*
X91877469Y-124382000D01*
X90670000Y-124382000D01*
X90670000Y-124402000D01*
X90416000Y-124402000D01*
X90416000Y-124382000D01*
X90396000Y-124382000D01*
X90396000Y-124128000D01*
X90416000Y-124128000D01*
X90416000Y-124108000D01*
X90670000Y-124108000D01*
X90670000Y-124128000D01*
X91877469Y-124128000D01*
X91997968Y-123895973D01*
X91749821Y-123366510D01*
X91410729Y-123057000D01*
X91567369Y-123057000D01*
X92121000Y-123610630D01*
X92121000Y-135979370D01*
X69560955Y-158539414D01*
X52218000Y-158893351D01*
X52218000Y-155222000D01*
X52218000Y-154922000D01*
X52218000Y-154668000D01*
X52218000Y-154368000D01*
X52029718Y-153675443D01*
X51590738Y-153107656D01*
X50967891Y-152751080D01*
X50794805Y-152706805D01*
X50510000Y-152823568D01*
X50510000Y-154668000D01*
X52218000Y-154668000D01*
X52218000Y-154922000D01*
X50510000Y-154922000D01*
X50510000Y-156766432D01*
X50794805Y-156883195D01*
X50967891Y-156838920D01*
X51590738Y-156482344D01*
X52029718Y-155914557D01*
X52218000Y-155222000D01*
X52218000Y-158893351D01*
X50256000Y-158933392D01*
X50256000Y-156766432D01*
X50256000Y-154922000D01*
X50256000Y-154668000D01*
X50256000Y-152823568D01*
X49971195Y-152706805D01*
X49798109Y-152751080D01*
X49175262Y-153107656D01*
X48736282Y-153675443D01*
X48548000Y-154368000D01*
X48548000Y-154668000D01*
X50256000Y-154668000D01*
X50256000Y-154922000D01*
X48548000Y-154922000D01*
X48548000Y-155222000D01*
X48736282Y-155914557D01*
X49175262Y-156482344D01*
X49798109Y-156838920D01*
X49971195Y-156883195D01*
X50256000Y-156766432D01*
X50256000Y-158933392D01*
X47127310Y-158997243D01*
X47078319Y-158750949D01*
X46680541Y-158155632D01*
X46085224Y-157757854D01*
X45383000Y-157618173D01*
X44680776Y-157757854D01*
X44085459Y-158155632D01*
X43687681Y-158750949D01*
X43548000Y-159453173D01*
X43548000Y-160136827D01*
X43687681Y-160839051D01*
X44085459Y-161434368D01*
X44680776Y-161832146D01*
X45383000Y-161971827D01*
X46085224Y-161832146D01*
X46680541Y-161434368D01*
X47078319Y-160839051D01*
X47141529Y-160521269D01*
X69898548Y-160056841D01*
X70036312Y-160026503D01*
X70174604Y-159998996D01*
X70181180Y-159994601D01*
X70188909Y-159992900D01*
X70304579Y-159912149D01*
X70421815Y-159833815D01*
X93121000Y-137134630D01*
X93121000Y-152979369D01*
X69567369Y-176533000D01*
X52218000Y-176533000D01*
X52218000Y-172722000D01*
X52218000Y-172422000D01*
X52218000Y-172168000D01*
X52218000Y-171868000D01*
X52029718Y-171175443D01*
X51590738Y-170607656D01*
X50967891Y-170251080D01*
X50794805Y-170206805D01*
X50510000Y-170323568D01*
X50510000Y-172168000D01*
X52218000Y-172168000D01*
X52218000Y-172422000D01*
X50510000Y-172422000D01*
X50510000Y-174266432D01*
X50794805Y-174383195D01*
X50967891Y-174338920D01*
X51590738Y-173982344D01*
X52029718Y-173414557D01*
X52218000Y-172722000D01*
X52218000Y-176533000D01*
X50256000Y-176533000D01*
X50256000Y-174266432D01*
X50256000Y-172422000D01*
X50256000Y-172168000D01*
X50256000Y-170323568D01*
X49971195Y-170206805D01*
X49798109Y-170251080D01*
X49175262Y-170607656D01*
X48736282Y-171175443D01*
X48548000Y-171868000D01*
X48548000Y-172168000D01*
X50256000Y-172168000D01*
X50256000Y-172422000D01*
X48548000Y-172422000D01*
X48548000Y-172722000D01*
X48736282Y-173414557D01*
X49175262Y-173982344D01*
X49798109Y-174338920D01*
X49971195Y-174383195D01*
X50256000Y-174266432D01*
X50256000Y-176533000D01*
X47134422Y-176533000D01*
X47078319Y-176250949D01*
X46680541Y-175655632D01*
X46085224Y-175257854D01*
X45383000Y-175118173D01*
X44680776Y-175257854D01*
X44085459Y-175655632D01*
X43687681Y-176250949D01*
X43548000Y-176953173D01*
X43548000Y-177636827D01*
X43687681Y-178339051D01*
X44085459Y-178934368D01*
X44680776Y-179332146D01*
X45383000Y-179471827D01*
X46085224Y-179332146D01*
X46680541Y-178934368D01*
X47078319Y-178339051D01*
X47134422Y-178057000D01*
X69883000Y-178057000D01*
X69883000Y-178056999D01*
X70174604Y-177998996D01*
X70174605Y-177998996D01*
X70421815Y-177833815D01*
X94121000Y-154134630D01*
X94121000Y-168979370D01*
X69560955Y-193539414D01*
X52218000Y-193893351D01*
X52218000Y-190222000D01*
X52218000Y-189922000D01*
X52218000Y-189668000D01*
X52218000Y-189368000D01*
X52029718Y-188675443D01*
X51590738Y-188107656D01*
X50967891Y-187751080D01*
X50794805Y-187706805D01*
X50510000Y-187823568D01*
X50510000Y-189668000D01*
X52218000Y-189668000D01*
X52218000Y-189922000D01*
X50510000Y-189922000D01*
X50510000Y-191766432D01*
X50794805Y-191883195D01*
X50967891Y-191838920D01*
X51590738Y-191482344D01*
X52029718Y-190914557D01*
X52218000Y-190222000D01*
X52218000Y-193893351D01*
X50256000Y-193933392D01*
X50256000Y-191766432D01*
X50256000Y-189922000D01*
X50256000Y-189668000D01*
X50256000Y-187823568D01*
X49971195Y-187706805D01*
X49798109Y-187751080D01*
X49175262Y-188107656D01*
X48736282Y-188675443D01*
X48548000Y-189368000D01*
X48548000Y-189668000D01*
X50256000Y-189668000D01*
X50256000Y-189922000D01*
X48548000Y-189922000D01*
X48548000Y-190222000D01*
X48736282Y-190914557D01*
X49175262Y-191482344D01*
X49798109Y-191838920D01*
X49971195Y-191883195D01*
X50256000Y-191766432D01*
X50256000Y-193933392D01*
X47127310Y-193997243D01*
X47078319Y-193750949D01*
X46680541Y-193155632D01*
X46085224Y-192757854D01*
X45383000Y-192618173D01*
X44680776Y-192757854D01*
X44085459Y-193155632D01*
X43687681Y-193750949D01*
X43548000Y-194453173D01*
X43548000Y-195136827D01*
X43687681Y-195839051D01*
X44085459Y-196434368D01*
X44680776Y-196832146D01*
X45383000Y-196971827D01*
X46085224Y-196832146D01*
X46680541Y-196434368D01*
X47078319Y-195839051D01*
X47141529Y-195521269D01*
X69898548Y-195056841D01*
X70036312Y-195026503D01*
X70174604Y-194998996D01*
X70181180Y-194994601D01*
X70188909Y-194992900D01*
X70304579Y-194912149D01*
X70421815Y-194833815D01*
X95421815Y-169833815D01*
X95586996Y-169586605D01*
X95644999Y-169295000D01*
X95645000Y-169295000D01*
X95645000Y-121295000D01*
X95586997Y-121003396D01*
X95586996Y-121003395D01*
X95421816Y-120756185D01*
X94645630Y-119980000D01*
X130315532Y-119980000D01*
X131072434Y-120130556D01*
X131656908Y-120521089D01*
X132047442Y-121105564D01*
X132198000Y-121862467D01*
X132198000Y-199295000D01*
X132198000Y-201795000D01*
X132198000Y-204227532D01*
X132198000Y-204227532D01*
G37*
X132198000Y-204227532D02*
X132047442Y-204984435D01*
X131656908Y-205568910D01*
X131072434Y-205959443D01*
X130518457Y-206069635D01*
X130518457Y-201273166D01*
X130518457Y-123773166D01*
X130118147Y-122804342D01*
X129377557Y-122062458D01*
X128409433Y-121660458D01*
X127361166Y-121659543D01*
X126392342Y-122059853D01*
X125650458Y-122800443D01*
X125248458Y-123768567D01*
X125247543Y-124816834D01*
X125647853Y-125785658D01*
X126388443Y-126527542D01*
X127356567Y-126929542D01*
X128404834Y-126930457D01*
X129373658Y-126530147D01*
X130115542Y-125789557D01*
X130517542Y-124821433D01*
X130518457Y-123773166D01*
X130518457Y-201273166D01*
X130118147Y-200304342D01*
X129377557Y-199562458D01*
X128409433Y-199160458D01*
X127361166Y-199159543D01*
X127218000Y-199218697D01*
X127218000Y-195136827D01*
X127218000Y-194453173D01*
X127218000Y-177636827D01*
X127218000Y-176953173D01*
X127218000Y-160136827D01*
X127218000Y-159453173D01*
X127218000Y-142636827D01*
X127218000Y-141953173D01*
X127078319Y-141250949D01*
X126680541Y-140655632D01*
X126085224Y-140257854D01*
X125383000Y-140118173D01*
X124680776Y-140257854D01*
X124085459Y-140655632D01*
X123687681Y-141250949D01*
X123548000Y-141953173D01*
X123548000Y-142636827D01*
X123687681Y-143339051D01*
X124085459Y-143934368D01*
X124680776Y-144332146D01*
X125383000Y-144471827D01*
X126085224Y-144332146D01*
X126680541Y-143934368D01*
X127078319Y-143339051D01*
X127218000Y-142636827D01*
X127218000Y-159453173D01*
X127078319Y-158750949D01*
X126680541Y-158155632D01*
X126085224Y-157757854D01*
X125383000Y-157618173D01*
X124680776Y-157757854D01*
X124085459Y-158155632D01*
X123687681Y-158750949D01*
X123548000Y-159453173D01*
X123548000Y-160136827D01*
X123687681Y-160839051D01*
X124085459Y-161434368D01*
X124680776Y-161832146D01*
X125383000Y-161971827D01*
X126085224Y-161832146D01*
X126680541Y-161434368D01*
X127078319Y-160839051D01*
X127218000Y-160136827D01*
X127218000Y-176953173D01*
X127078319Y-176250949D01*
X126680541Y-175655632D01*
X126085224Y-175257854D01*
X125383000Y-175118173D01*
X124680776Y-175257854D01*
X124085459Y-175655632D01*
X123687681Y-176250949D01*
X123548000Y-176953173D01*
X123548000Y-177636827D01*
X123687681Y-178339051D01*
X124085459Y-178934368D01*
X124680776Y-179332146D01*
X125383000Y-179471827D01*
X126085224Y-179332146D01*
X126680541Y-178934368D01*
X127078319Y-178339051D01*
X127218000Y-177636827D01*
X127218000Y-194453173D01*
X127078319Y-193750949D01*
X126680541Y-193155632D01*
X126085224Y-192757854D01*
X125383000Y-192618173D01*
X124680776Y-192757854D01*
X124085459Y-193155632D01*
X123687681Y-193750949D01*
X123548000Y-194453173D01*
X123548000Y-195136827D01*
X123687681Y-195839051D01*
X124085459Y-196434368D01*
X124680776Y-196832146D01*
X125383000Y-196971827D01*
X126085224Y-196832146D01*
X126680541Y-196434368D01*
X127078319Y-195839051D01*
X127218000Y-195136827D01*
X127218000Y-199218697D01*
X126392342Y-199559853D01*
X125650458Y-200300443D01*
X125248458Y-201268567D01*
X125247543Y-202316834D01*
X125647853Y-203285658D01*
X126388443Y-204027542D01*
X127356567Y-204429542D01*
X128404834Y-204430457D01*
X129373658Y-204030147D01*
X130115542Y-203289557D01*
X130517542Y-202321433D01*
X130518457Y-201273166D01*
X130518457Y-206069635D01*
X130315532Y-206110000D01*
X122218000Y-206110000D01*
X122218000Y-190136827D01*
X122218000Y-189453173D01*
X122078319Y-188750949D01*
X121680541Y-188155632D01*
X121145000Y-187797795D01*
X121145000Y-174292204D01*
X121680541Y-173934368D01*
X122078319Y-173339051D01*
X122218000Y-172636827D01*
X122218000Y-171953173D01*
X122078319Y-171250949D01*
X121680541Y-170655632D01*
X121145000Y-170297795D01*
X121145000Y-156792204D01*
X121680541Y-156434368D01*
X122078319Y-155839051D01*
X122218000Y-155136827D01*
X122218000Y-154453173D01*
X122078319Y-153750949D01*
X121680541Y-153155632D01*
X121145000Y-152797795D01*
X121145000Y-139292204D01*
X121680541Y-138934368D01*
X122078319Y-138339051D01*
X122218000Y-137636827D01*
X122218000Y-136953173D01*
X122078319Y-136250949D01*
X121680541Y-135655632D01*
X121085224Y-135257854D01*
X120383000Y-135118173D01*
X119680776Y-135257854D01*
X119085459Y-135655632D01*
X118687681Y-136250949D01*
X118548000Y-136953173D01*
X118548000Y-137636827D01*
X118687681Y-138339051D01*
X119085459Y-138934368D01*
X119621000Y-139292204D01*
X119621000Y-152797795D01*
X119085459Y-153155632D01*
X118687681Y-153750949D01*
X118548000Y-154453173D01*
X118548000Y-155136827D01*
X118687681Y-155839051D01*
X119085459Y-156434368D01*
X119621000Y-156792204D01*
X119621000Y-170297795D01*
X119085459Y-170655632D01*
X118687681Y-171250949D01*
X118548000Y-171953173D01*
X118548000Y-172636827D01*
X118687681Y-173339051D01*
X119085459Y-173934368D01*
X119621000Y-174292204D01*
X119621000Y-187797795D01*
X119085459Y-188155632D01*
X118687681Y-188750949D01*
X118548000Y-189453173D01*
X118548000Y-190136827D01*
X118687681Y-190839051D01*
X119085459Y-191434368D01*
X119680776Y-191832146D01*
X120383000Y-191971827D01*
X121085224Y-191832146D01*
X121680541Y-191434368D01*
X122078319Y-190839051D01*
X122218000Y-190136827D01*
X122218000Y-206110000D01*
X110301991Y-206110000D01*
X110301991Y-127345000D01*
X110301991Y-122845000D01*
X110195651Y-122310391D01*
X109892819Y-121857172D01*
X109439600Y-121554340D01*
X108904991Y-121448000D01*
X108161009Y-121448000D01*
X107626400Y-121554340D01*
X107173181Y-121857172D01*
X106870349Y-122310391D01*
X106764009Y-122845000D01*
X106870349Y-123379609D01*
X107173181Y-123832828D01*
X107626400Y-124135660D01*
X108161009Y-124242000D01*
X108904991Y-124242000D01*
X109439600Y-124135660D01*
X109892819Y-123832828D01*
X110195651Y-123379609D01*
X110301991Y-122845000D01*
X110301991Y-127345000D01*
X110195651Y-126810391D01*
X109892819Y-126357172D01*
X109439600Y-126054340D01*
X108904991Y-125948000D01*
X108161009Y-125948000D01*
X107626400Y-126054340D01*
X107173181Y-126357172D01*
X106870349Y-126810391D01*
X106764009Y-127345000D01*
X106870349Y-127879609D01*
X107173181Y-128332828D01*
X107626400Y-128635660D01*
X108161009Y-128742000D01*
X108904991Y-128742000D01*
X109439600Y-128635660D01*
X109892819Y-128332828D01*
X110195651Y-127879609D01*
X110301991Y-127345000D01*
X110301991Y-206110000D01*
X103801991Y-206110000D01*
X103801991Y-127345000D01*
X103801991Y-122845000D01*
X103695651Y-122310391D01*
X103392819Y-121857172D01*
X102939600Y-121554340D01*
X102404991Y-121448000D01*
X101661009Y-121448000D01*
X101126400Y-121554340D01*
X100673181Y-121857172D01*
X100370349Y-122310391D01*
X100264009Y-122845000D01*
X100370349Y-123379609D01*
X100673181Y-123832828D01*
X101126400Y-124135660D01*
X101661009Y-124242000D01*
X102404991Y-124242000D01*
X102939600Y-124135660D01*
X103392819Y-123832828D01*
X103695651Y-123379609D01*
X103801991Y-122845000D01*
X103801991Y-127345000D01*
X103695651Y-126810391D01*
X103392819Y-126357172D01*
X102939600Y-126054340D01*
X102404991Y-125948000D01*
X101661009Y-125948000D01*
X101126400Y-126054340D01*
X100673181Y-126357172D01*
X100370349Y-126810391D01*
X100264009Y-127345000D01*
X100370349Y-127879609D01*
X100673181Y-128332828D01*
X101126400Y-128635660D01*
X101661009Y-128742000D01*
X102404991Y-128742000D01*
X102939600Y-128635660D01*
X103392819Y-128332828D01*
X103695651Y-127879609D01*
X103801991Y-127345000D01*
X103801991Y-206110000D01*
X45518457Y-206110000D01*
X45518457Y-201273166D01*
X45118147Y-200304342D01*
X44377557Y-199562458D01*
X43409433Y-199160458D01*
X42361166Y-199159543D01*
X41392342Y-199559853D01*
X40650458Y-200300443D01*
X40248458Y-201268567D01*
X40247543Y-202316834D01*
X40647853Y-203285658D01*
X41388443Y-204027542D01*
X42356567Y-204429542D01*
X43404834Y-204430457D01*
X44373658Y-204030147D01*
X45115542Y-203289557D01*
X45517542Y-202321433D01*
X45518457Y-201273166D01*
X45518457Y-206110000D01*
X40450467Y-206110000D01*
X39693564Y-205959442D01*
X39109089Y-205568908D01*
X38718556Y-204984434D01*
X38568000Y-204227532D01*
X38568000Y-201795000D01*
X38568000Y-199295000D01*
X38568000Y-121862467D01*
X38718556Y-121105565D01*
X39109089Y-120521091D01*
X39693564Y-120130557D01*
X40450467Y-119980000D01*
X85120370Y-119980000D01*
X82384185Y-122716185D01*
X82261347Y-122900024D01*
X81863330Y-123165971D01*
X81653000Y-123480751D01*
X81442670Y-123165971D01*
X80956489Y-122841115D01*
X80383000Y-122727041D01*
X79809511Y-122841115D01*
X79323330Y-123165971D01*
X79078088Y-123533000D01*
X77158709Y-123533000D01*
X77133463Y-123402877D01*
X76993673Y-123190073D01*
X76782640Y-123047623D01*
X76533000Y-122997560D01*
X75233000Y-122997560D01*
X74990877Y-123044537D01*
X74778073Y-123184327D01*
X74635623Y-123395360D01*
X74585560Y-123645000D01*
X74585560Y-124945000D01*
X74632537Y-125187123D01*
X74772327Y-125399927D01*
X74983360Y-125542377D01*
X75233000Y-125592440D01*
X75395385Y-125592440D01*
X75219271Y-125665389D01*
X75163590Y-125895984D01*
X75883000Y-126615395D01*
X76602410Y-125895984D01*
X76546729Y-125665389D01*
X76337098Y-125592440D01*
X76533000Y-125592440D01*
X76775123Y-125545463D01*
X76987927Y-125405673D01*
X77130377Y-125194640D01*
X77157979Y-125057000D01*
X79131543Y-125057000D01*
X79310300Y-125324529D01*
X79277277Y-125330937D01*
X79064473Y-125470727D01*
X78922023Y-125681760D01*
X78871960Y-125931400D01*
X78871960Y-127658600D01*
X78918937Y-127900723D01*
X79058727Y-128113527D01*
X79269760Y-128255977D01*
X79519400Y-128306040D01*
X81246600Y-128306040D01*
X81488723Y-128259063D01*
X81701527Y-128119273D01*
X81843977Y-127908240D01*
X81852179Y-127867340D01*
X81863330Y-127884029D01*
X82149589Y-128075301D01*
X82124134Y-130938932D01*
X77180622Y-135121904D01*
X77180622Y-126975922D01*
X77151083Y-126465572D01*
X77012611Y-126131271D01*
X76782016Y-126075590D01*
X76062605Y-126795000D01*
X76782016Y-127514410D01*
X77012611Y-127458729D01*
X77180622Y-126975922D01*
X77180622Y-135121904D01*
X76602410Y-135611160D01*
X76602410Y-127694016D01*
X75883000Y-126974605D01*
X75703395Y-127154210D01*
X75703395Y-126795000D01*
X74983984Y-126075590D01*
X74753389Y-126131271D01*
X74585378Y-126614078D01*
X74614917Y-127124428D01*
X74753389Y-127458729D01*
X74983984Y-127514410D01*
X75703395Y-126795000D01*
X75703395Y-127154210D01*
X75163590Y-127694016D01*
X75219271Y-127924611D01*
X75702078Y-128092622D01*
X76212428Y-128063083D01*
X76546729Y-127924611D01*
X76602410Y-127694016D01*
X76602410Y-135611160D01*
X69661991Y-141483823D01*
X69661991Y-127345000D01*
X69661991Y-122845000D01*
X69555651Y-122310391D01*
X69252819Y-121857172D01*
X68799600Y-121554340D01*
X68264991Y-121448000D01*
X67521009Y-121448000D01*
X66986400Y-121554340D01*
X66533181Y-121857172D01*
X66230349Y-122310391D01*
X66124009Y-122845000D01*
X66230349Y-123379609D01*
X66533181Y-123832828D01*
X66986400Y-124135660D01*
X67521009Y-124242000D01*
X68264991Y-124242000D01*
X68799600Y-124135660D01*
X69252819Y-123832828D01*
X69555651Y-123379609D01*
X69661991Y-122845000D01*
X69661991Y-127345000D01*
X69555651Y-126810391D01*
X69252819Y-126357172D01*
X68799600Y-126054340D01*
X68264991Y-125948000D01*
X67521009Y-125948000D01*
X66986400Y-126054340D01*
X66533181Y-126357172D01*
X66230349Y-126810391D01*
X66124009Y-127345000D01*
X66230349Y-127879609D01*
X66533181Y-128332828D01*
X66986400Y-128635660D01*
X67521009Y-128742000D01*
X68264991Y-128742000D01*
X68799600Y-128635660D01*
X69252819Y-128332828D01*
X69555651Y-127879609D01*
X69661991Y-127345000D01*
X69661991Y-141483823D01*
X69603873Y-141533000D01*
X63161991Y-141533000D01*
X63161991Y-127345000D01*
X63161991Y-122845000D01*
X63055651Y-122310391D01*
X62752819Y-121857172D01*
X62299600Y-121554340D01*
X61764991Y-121448000D01*
X61021009Y-121448000D01*
X60486400Y-121554340D01*
X60033181Y-121857172D01*
X59730349Y-122310391D01*
X59624009Y-122845000D01*
X59730349Y-123379609D01*
X60033181Y-123832828D01*
X60486400Y-124135660D01*
X61021009Y-124242000D01*
X61764991Y-124242000D01*
X62299600Y-124135660D01*
X62752819Y-123832828D01*
X63055651Y-123379609D01*
X63161991Y-122845000D01*
X63161991Y-127345000D01*
X63055651Y-126810391D01*
X62752819Y-126357172D01*
X62299600Y-126054340D01*
X61764991Y-125948000D01*
X61021009Y-125948000D01*
X60486400Y-126054340D01*
X60033181Y-126357172D01*
X59730349Y-126810391D01*
X59624009Y-127345000D01*
X59730349Y-127879609D01*
X60033181Y-128332828D01*
X60486400Y-128635660D01*
X61021009Y-128742000D01*
X61764991Y-128742000D01*
X62299600Y-128635660D01*
X62752819Y-128332828D01*
X63055651Y-127879609D01*
X63161991Y-127345000D01*
X63161991Y-141533000D01*
X52218000Y-141533000D01*
X52218000Y-137722000D01*
X52218000Y-137422000D01*
X52218000Y-137168000D01*
X52218000Y-136868000D01*
X52029718Y-136175443D01*
X51590738Y-135607656D01*
X50967891Y-135251080D01*
X50794805Y-135206805D01*
X50510000Y-135323568D01*
X50510000Y-137168000D01*
X52218000Y-137168000D01*
X52218000Y-137422000D01*
X50510000Y-137422000D01*
X50510000Y-139266432D01*
X50794805Y-139383195D01*
X50967891Y-139338920D01*
X51590738Y-138982344D01*
X52029718Y-138414557D01*
X52218000Y-137722000D01*
X52218000Y-141533000D01*
X50256000Y-141533000D01*
X50256000Y-139266432D01*
X50256000Y-137422000D01*
X50256000Y-137168000D01*
X50256000Y-135323568D01*
X49971195Y-135206805D01*
X49798109Y-135251080D01*
X49175262Y-135607656D01*
X48736282Y-136175443D01*
X48548000Y-136868000D01*
X48548000Y-137168000D01*
X50256000Y-137168000D01*
X50256000Y-137422000D01*
X48548000Y-137422000D01*
X48548000Y-137722000D01*
X48736282Y-138414557D01*
X49175262Y-138982344D01*
X49798109Y-139338920D01*
X49971195Y-139383195D01*
X50256000Y-139266432D01*
X50256000Y-141533000D01*
X47134422Y-141533000D01*
X47078319Y-141250949D01*
X46680541Y-140655632D01*
X46085224Y-140257854D01*
X45518457Y-140145117D01*
X45518457Y-123773166D01*
X45118147Y-122804342D01*
X44377557Y-122062458D01*
X43409433Y-121660458D01*
X42361166Y-121659543D01*
X41392342Y-122059853D01*
X40650458Y-122800443D01*
X40248458Y-123768567D01*
X40247543Y-124816834D01*
X40647853Y-125785658D01*
X41388443Y-126527542D01*
X42356567Y-126929542D01*
X43404834Y-126930457D01*
X44373658Y-126530147D01*
X45115542Y-125789557D01*
X45517542Y-124821433D01*
X45518457Y-123773166D01*
X45518457Y-140145117D01*
X45383000Y-140118173D01*
X44680776Y-140257854D01*
X44085459Y-140655632D01*
X43687681Y-141250949D01*
X43548000Y-141953173D01*
X43548000Y-142636827D01*
X43687681Y-143339051D01*
X44085459Y-143934368D01*
X44680776Y-144332146D01*
X45383000Y-144471827D01*
X46085224Y-144332146D01*
X46680541Y-143934368D01*
X47078319Y-143339051D01*
X47134422Y-143057000D01*
X69883000Y-143057000D01*
X69998316Y-143034061D01*
X70115133Y-143020781D01*
X70143169Y-143005248D01*
X70174605Y-142998996D01*
X70272363Y-142933675D01*
X70375208Y-142876700D01*
X83375208Y-131876701D01*
X83393048Y-131854283D01*
X83417004Y-131838583D01*
X83485057Y-131738667D01*
X83560348Y-131644061D01*
X83568250Y-131616526D01*
X83584376Y-131592851D01*
X83609016Y-131474485D01*
X83642367Y-131358281D01*
X83639131Y-131329820D01*
X83644970Y-131301773D01*
X83673513Y-128090600D01*
X83982670Y-127884029D01*
X84193000Y-127569248D01*
X84403330Y-127884029D01*
X84889511Y-128208885D01*
X85463000Y-128322959D01*
X86036489Y-128208885D01*
X86522670Y-127884029D01*
X86733000Y-127569248D01*
X86943330Y-127884029D01*
X87429511Y-128208885D01*
X88003000Y-128322959D01*
X88576489Y-128208885D01*
X89062670Y-127884029D01*
X89273000Y-127569248D01*
X89483330Y-127884029D01*
X89969511Y-128208885D01*
X90543000Y-128322959D01*
X91116489Y-128208885D01*
X91602670Y-127884029D01*
X91927526Y-127397848D01*
X92041600Y-126824359D01*
X92041600Y-126765641D01*
X91927526Y-126192152D01*
X91602670Y-125705971D01*
X91331839Y-125525007D01*
X91749821Y-125143490D01*
X91997968Y-124614027D01*
X91877469Y-124382000D01*
X90670000Y-124382000D01*
X90670000Y-124402000D01*
X90416000Y-124402000D01*
X90416000Y-124382000D01*
X90396000Y-124382000D01*
X90396000Y-124128000D01*
X90416000Y-124128000D01*
X90416000Y-124108000D01*
X90670000Y-124108000D01*
X90670000Y-124128000D01*
X91877469Y-124128000D01*
X91997968Y-123895973D01*
X91749821Y-123366510D01*
X91410729Y-123057000D01*
X91567369Y-123057000D01*
X92121000Y-123610630D01*
X92121000Y-135979370D01*
X69560955Y-158539414D01*
X52218000Y-158893351D01*
X52218000Y-155222000D01*
X52218000Y-154922000D01*
X52218000Y-154668000D01*
X52218000Y-154368000D01*
X52029718Y-153675443D01*
X51590738Y-153107656D01*
X50967891Y-152751080D01*
X50794805Y-152706805D01*
X50510000Y-152823568D01*
X50510000Y-154668000D01*
X52218000Y-154668000D01*
X52218000Y-154922000D01*
X50510000Y-154922000D01*
X50510000Y-156766432D01*
X50794805Y-156883195D01*
X50967891Y-156838920D01*
X51590738Y-156482344D01*
X52029718Y-155914557D01*
X52218000Y-155222000D01*
X52218000Y-158893351D01*
X50256000Y-158933392D01*
X50256000Y-156766432D01*
X50256000Y-154922000D01*
X50256000Y-154668000D01*
X50256000Y-152823568D01*
X49971195Y-152706805D01*
X49798109Y-152751080D01*
X49175262Y-153107656D01*
X48736282Y-153675443D01*
X48548000Y-154368000D01*
X48548000Y-154668000D01*
X50256000Y-154668000D01*
X50256000Y-154922000D01*
X48548000Y-154922000D01*
X48548000Y-155222000D01*
X48736282Y-155914557D01*
X49175262Y-156482344D01*
X49798109Y-156838920D01*
X49971195Y-156883195D01*
X50256000Y-156766432D01*
X50256000Y-158933392D01*
X47127310Y-158997243D01*
X47078319Y-158750949D01*
X46680541Y-158155632D01*
X46085224Y-157757854D01*
X45383000Y-157618173D01*
X44680776Y-157757854D01*
X44085459Y-158155632D01*
X43687681Y-158750949D01*
X43548000Y-159453173D01*
X43548000Y-160136827D01*
X43687681Y-160839051D01*
X44085459Y-161434368D01*
X44680776Y-161832146D01*
X45383000Y-161971827D01*
X46085224Y-161832146D01*
X46680541Y-161434368D01*
X47078319Y-160839051D01*
X47141529Y-160521269D01*
X69898548Y-160056841D01*
X70036312Y-160026503D01*
X70174604Y-159998996D01*
X70181180Y-159994601D01*
X70188909Y-159992900D01*
X70304579Y-159912149D01*
X70421815Y-159833815D01*
X93121000Y-137134630D01*
X93121000Y-152979369D01*
X69567369Y-176533000D01*
X52218000Y-176533000D01*
X52218000Y-172722000D01*
X52218000Y-172422000D01*
X52218000Y-172168000D01*
X52218000Y-171868000D01*
X52029718Y-171175443D01*
X51590738Y-170607656D01*
X50967891Y-170251080D01*
X50794805Y-170206805D01*
X50510000Y-170323568D01*
X50510000Y-172168000D01*
X52218000Y-172168000D01*
X52218000Y-172422000D01*
X50510000Y-172422000D01*
X50510000Y-174266432D01*
X50794805Y-174383195D01*
X50967891Y-174338920D01*
X51590738Y-173982344D01*
X52029718Y-173414557D01*
X52218000Y-172722000D01*
X52218000Y-176533000D01*
X50256000Y-176533000D01*
X50256000Y-174266432D01*
X50256000Y-172422000D01*
X50256000Y-172168000D01*
X50256000Y-170323568D01*
X49971195Y-170206805D01*
X49798109Y-170251080D01*
X49175262Y-170607656D01*
X48736282Y-171175443D01*
X48548000Y-171868000D01*
X48548000Y-172168000D01*
X50256000Y-172168000D01*
X50256000Y-172422000D01*
X48548000Y-172422000D01*
X48548000Y-172722000D01*
X48736282Y-173414557D01*
X49175262Y-173982344D01*
X49798109Y-174338920D01*
X49971195Y-174383195D01*
X50256000Y-174266432D01*
X50256000Y-176533000D01*
X47134422Y-176533000D01*
X47078319Y-176250949D01*
X46680541Y-175655632D01*
X46085224Y-175257854D01*
X45383000Y-175118173D01*
X44680776Y-175257854D01*
X44085459Y-175655632D01*
X43687681Y-176250949D01*
X43548000Y-176953173D01*
X43548000Y-177636827D01*
X43687681Y-178339051D01*
X44085459Y-178934368D01*
X44680776Y-179332146D01*
X45383000Y-179471827D01*
X46085224Y-179332146D01*
X46680541Y-178934368D01*
X47078319Y-178339051D01*
X47134422Y-178057000D01*
X69883000Y-178057000D01*
X69883000Y-178056999D01*
X70174604Y-177998996D01*
X70174605Y-177998996D01*
X70421815Y-177833815D01*
X94121000Y-154134630D01*
X94121000Y-168979370D01*
X69560955Y-193539414D01*
X52218000Y-193893351D01*
X52218000Y-190222000D01*
X52218000Y-189922000D01*
X52218000Y-189668000D01*
X52218000Y-189368000D01*
X52029718Y-188675443D01*
X51590738Y-188107656D01*
X50967891Y-187751080D01*
X50794805Y-187706805D01*
X50510000Y-187823568D01*
X50510000Y-189668000D01*
X52218000Y-189668000D01*
X52218000Y-189922000D01*
X50510000Y-189922000D01*
X50510000Y-191766432D01*
X50794805Y-191883195D01*
X50967891Y-191838920D01*
X51590738Y-191482344D01*
X52029718Y-190914557D01*
X52218000Y-190222000D01*
X52218000Y-193893351D01*
X50256000Y-193933392D01*
X50256000Y-191766432D01*
X50256000Y-189922000D01*
X50256000Y-189668000D01*
X50256000Y-187823568D01*
X49971195Y-187706805D01*
X49798109Y-187751080D01*
X49175262Y-188107656D01*
X48736282Y-188675443D01*
X48548000Y-189368000D01*
X48548000Y-189668000D01*
X50256000Y-189668000D01*
X50256000Y-189922000D01*
X48548000Y-189922000D01*
X48548000Y-190222000D01*
X48736282Y-190914557D01*
X49175262Y-191482344D01*
X49798109Y-191838920D01*
X49971195Y-191883195D01*
X50256000Y-191766432D01*
X50256000Y-193933392D01*
X47127310Y-193997243D01*
X47078319Y-193750949D01*
X46680541Y-193155632D01*
X46085224Y-192757854D01*
X45383000Y-192618173D01*
X44680776Y-192757854D01*
X44085459Y-193155632D01*
X43687681Y-193750949D01*
X43548000Y-194453173D01*
X43548000Y-195136827D01*
X43687681Y-195839051D01*
X44085459Y-196434368D01*
X44680776Y-196832146D01*
X45383000Y-196971827D01*
X46085224Y-196832146D01*
X46680541Y-196434368D01*
X47078319Y-195839051D01*
X47141529Y-195521269D01*
X69898548Y-195056841D01*
X70036312Y-195026503D01*
X70174604Y-194998996D01*
X70181180Y-194994601D01*
X70188909Y-194992900D01*
X70304579Y-194912149D01*
X70421815Y-194833815D01*
X95421815Y-169833815D01*
X95586996Y-169586605D01*
X95644999Y-169295000D01*
X95645000Y-169295000D01*
X95645000Y-121295000D01*
X95586997Y-121003396D01*
X95586996Y-121003395D01*
X95421816Y-120756185D01*
X94645630Y-119980000D01*
X130315532Y-119980000D01*
X131072434Y-120130556D01*
X131656908Y-120521089D01*
X132047442Y-121105564D01*
X132198000Y-121862467D01*
X132198000Y-199295000D01*
X132198000Y-201795000D01*
X132198000Y-204227532D01*
G36*
X233798000Y-110247532D02*
X233647442Y-111004435D01*
X233256908Y-111588910D01*
X232672434Y-111979443D01*
X232118457Y-112089635D01*
X232118457Y-107293166D01*
X232118457Y-29793166D01*
X231718147Y-28824342D01*
X230977557Y-28082458D01*
X230009433Y-27680458D01*
X228961166Y-27679543D01*
X227992342Y-28079853D01*
X227250458Y-28820443D01*
X226848458Y-29788567D01*
X226847543Y-30836834D01*
X227247853Y-31805658D01*
X227988443Y-32547542D01*
X228956567Y-32949542D01*
X230004834Y-32950457D01*
X230973658Y-32550147D01*
X231715542Y-31809557D01*
X232117542Y-30841433D01*
X232118457Y-29793166D01*
X232118457Y-107293166D01*
X231718147Y-106324342D01*
X230977557Y-105582458D01*
X230009433Y-105180458D01*
X228961166Y-105179543D01*
X228818000Y-105238697D01*
X228818000Y-101156827D01*
X228818000Y-100473173D01*
X228818000Y-83656827D01*
X228818000Y-82973173D01*
X228818000Y-66156827D01*
X228818000Y-65473173D01*
X228818000Y-48656827D01*
X228818000Y-47973173D01*
X228678319Y-47270949D01*
X228280541Y-46675632D01*
X227685224Y-46277854D01*
X226983000Y-46138173D01*
X226280776Y-46277854D01*
X225685459Y-46675632D01*
X225287681Y-47270949D01*
X225148000Y-47973173D01*
X225148000Y-48656827D01*
X225287681Y-49359051D01*
X225685459Y-49954368D01*
X226280776Y-50352146D01*
X226983000Y-50491827D01*
X227685224Y-50352146D01*
X228280541Y-49954368D01*
X228678319Y-49359051D01*
X228818000Y-48656827D01*
X228818000Y-65473173D01*
X228678319Y-64770949D01*
X228280541Y-64175632D01*
X227685224Y-63777854D01*
X226983000Y-63638173D01*
X226280776Y-63777854D01*
X225685459Y-64175632D01*
X225287681Y-64770949D01*
X225148000Y-65473173D01*
X225148000Y-66156827D01*
X225287681Y-66859051D01*
X225685459Y-67454368D01*
X226280776Y-67852146D01*
X226983000Y-67991827D01*
X227685224Y-67852146D01*
X228280541Y-67454368D01*
X228678319Y-66859051D01*
X228818000Y-66156827D01*
X228818000Y-82973173D01*
X228678319Y-82270949D01*
X228280541Y-81675632D01*
X227685224Y-81277854D01*
X226983000Y-81138173D01*
X226280776Y-81277854D01*
X225685459Y-81675632D01*
X225287681Y-82270949D01*
X225148000Y-82973173D01*
X225148000Y-83656827D01*
X225287681Y-84359051D01*
X225685459Y-84954368D01*
X226280776Y-85352146D01*
X226983000Y-85491827D01*
X227685224Y-85352146D01*
X228280541Y-84954368D01*
X228678319Y-84359051D01*
X228818000Y-83656827D01*
X228818000Y-100473173D01*
X228678319Y-99770949D01*
X228280541Y-99175632D01*
X227685224Y-98777854D01*
X226983000Y-98638173D01*
X226280776Y-98777854D01*
X225685459Y-99175632D01*
X225287681Y-99770949D01*
X225148000Y-100473173D01*
X225148000Y-101156827D01*
X225287681Y-101859051D01*
X225685459Y-102454368D01*
X226280776Y-102852146D01*
X226983000Y-102991827D01*
X227685224Y-102852146D01*
X228280541Y-102454368D01*
X228678319Y-101859051D01*
X228818000Y-101156827D01*
X228818000Y-105238697D01*
X227992342Y-105579853D01*
X227250458Y-106320443D01*
X226848458Y-107288567D01*
X226847543Y-108336834D01*
X227247853Y-109305658D01*
X227988443Y-110047542D01*
X228956567Y-110449542D01*
X230004834Y-110450457D01*
X230973658Y-110050147D01*
X231715542Y-109309557D01*
X232117542Y-108341433D01*
X232118457Y-107293166D01*
X232118457Y-112089635D01*
X231915532Y-112130000D01*
X223818000Y-112130000D01*
X223818000Y-96156827D01*
X223818000Y-95473173D01*
X223678319Y-94770949D01*
X223280541Y-94175632D01*
X222745000Y-93817795D01*
X222745000Y-80312204D01*
X223280541Y-79954368D01*
X223678319Y-79359051D01*
X223818000Y-78656827D01*
X223818000Y-77973173D01*
X223678319Y-77270949D01*
X223280541Y-76675632D01*
X222745000Y-76317795D01*
X222745000Y-62812204D01*
X223280541Y-62454368D01*
X223678319Y-61859051D01*
X223818000Y-61156827D01*
X223818000Y-60473173D01*
X223678319Y-59770949D01*
X223280541Y-59175632D01*
X222745000Y-58817795D01*
X222745000Y-45312204D01*
X223280541Y-44954368D01*
X223678319Y-44359051D01*
X223818000Y-43656827D01*
X223818000Y-42973173D01*
X223678319Y-42270949D01*
X223280541Y-41675632D01*
X222685224Y-41277854D01*
X221983000Y-41138173D01*
X221280776Y-41277854D01*
X220685459Y-41675632D01*
X220287681Y-42270949D01*
X220148000Y-42973173D01*
X220148000Y-43656827D01*
X220287681Y-44359051D01*
X220685459Y-44954368D01*
X221221000Y-45312204D01*
X221221000Y-58817795D01*
X220685459Y-59175632D01*
X220287681Y-59770949D01*
X220148000Y-60473173D01*
X220148000Y-61156827D01*
X220287681Y-61859051D01*
X220685459Y-62454368D01*
X221221000Y-62812204D01*
X221221000Y-76317795D01*
X220685459Y-76675632D01*
X220287681Y-77270949D01*
X220148000Y-77973173D01*
X220148000Y-78656827D01*
X220287681Y-79359051D01*
X220685459Y-79954368D01*
X221221000Y-80312204D01*
X221221000Y-93817795D01*
X220685459Y-94175632D01*
X220287681Y-94770949D01*
X220148000Y-95473173D01*
X220148000Y-96156827D01*
X220287681Y-96859051D01*
X220685459Y-97454368D01*
X221280776Y-97852146D01*
X221983000Y-97991827D01*
X222685224Y-97852146D01*
X223280541Y-97454368D01*
X223678319Y-96859051D01*
X223818000Y-96156827D01*
X223818000Y-112130000D01*
X211901991Y-112130000D01*
X211901991Y-33365000D01*
X211901991Y-28865000D01*
X211795651Y-28330391D01*
X211492819Y-27877172D01*
X211039600Y-27574340D01*
X210504991Y-27468000D01*
X209761009Y-27468000D01*
X209226400Y-27574340D01*
X208773181Y-27877172D01*
X208470349Y-28330391D01*
X208364009Y-28865000D01*
X208470349Y-29399609D01*
X208773181Y-29852828D01*
X209226400Y-30155660D01*
X209761009Y-30262000D01*
X210504991Y-30262000D01*
X211039600Y-30155660D01*
X211492819Y-29852828D01*
X211795651Y-29399609D01*
X211901991Y-28865000D01*
X211901991Y-33365000D01*
X211795651Y-32830391D01*
X211492819Y-32377172D01*
X211039600Y-32074340D01*
X210504991Y-31968000D01*
X209761009Y-31968000D01*
X209226400Y-32074340D01*
X208773181Y-32377172D01*
X208470349Y-32830391D01*
X208364009Y-33365000D01*
X208470349Y-33899609D01*
X208773181Y-34352828D01*
X209226400Y-34655660D01*
X209761009Y-34762000D01*
X210504991Y-34762000D01*
X211039600Y-34655660D01*
X211492819Y-34352828D01*
X211795651Y-33899609D01*
X211901991Y-33365000D01*
X211901991Y-112130000D01*
X205401991Y-112130000D01*
X205401991Y-33365000D01*
X205401991Y-28865000D01*
X205295651Y-28330391D01*
X204992819Y-27877172D01*
X204539600Y-27574340D01*
X204004991Y-27468000D01*
X203261009Y-27468000D01*
X202726400Y-27574340D01*
X202273181Y-27877172D01*
X201970349Y-28330391D01*
X201864009Y-28865000D01*
X201970349Y-29399609D01*
X202273181Y-29852828D01*
X202726400Y-30155660D01*
X203261009Y-30262000D01*
X204004991Y-30262000D01*
X204539600Y-30155660D01*
X204992819Y-29852828D01*
X205295651Y-29399609D01*
X205401991Y-28865000D01*
X205401991Y-33365000D01*
X205295651Y-32830391D01*
X204992819Y-32377172D01*
X204539600Y-32074340D01*
X204004991Y-31968000D01*
X203261009Y-31968000D01*
X202726400Y-32074340D01*
X202273181Y-32377172D01*
X201970349Y-32830391D01*
X201864009Y-33365000D01*
X201970349Y-33899609D01*
X202273181Y-34352828D01*
X202726400Y-34655660D01*
X203261009Y-34762000D01*
X204004991Y-34762000D01*
X204539600Y-34655660D01*
X204992819Y-34352828D01*
X205295651Y-33899609D01*
X205401991Y-33365000D01*
X205401991Y-112130000D01*
X147118457Y-112130000D01*
X147118457Y-107293166D01*
X146718147Y-106324342D01*
X145977557Y-105582458D01*
X145009433Y-105180458D01*
X143961166Y-105179543D01*
X142992342Y-105579853D01*
X142250458Y-106320443D01*
X141848458Y-107288567D01*
X141847543Y-108336834D01*
X142247853Y-109305658D01*
X142988443Y-110047542D01*
X143956567Y-110449542D01*
X145004834Y-110450457D01*
X145973658Y-110050147D01*
X146715542Y-109309557D01*
X147117542Y-108341433D01*
X147118457Y-107293166D01*
X147118457Y-112130000D01*
X142050467Y-112130000D01*
X141293564Y-111979442D01*
X140709089Y-111588908D01*
X140318556Y-111004434D01*
X140168000Y-110247532D01*
X140168000Y-107815000D01*
X140168000Y-105315000D01*
X140168000Y-27882467D01*
X140318556Y-27125565D01*
X140709089Y-26541091D01*
X141293564Y-26150557D01*
X142050467Y-26000000D01*
X186720370Y-26000000D01*
X183984185Y-28736185D01*
X183861347Y-28920024D01*
X183463330Y-29185971D01*
X183253000Y-29500751D01*
X183042670Y-29185971D01*
X182556489Y-28861115D01*
X181983000Y-28747041D01*
X181409511Y-28861115D01*
X180923330Y-29185971D01*
X180678088Y-29553000D01*
X178758709Y-29553000D01*
X178733463Y-29422877D01*
X178593673Y-29210073D01*
X178382640Y-29067623D01*
X178133000Y-29017560D01*
X176833000Y-29017560D01*
X176590877Y-29064537D01*
X176378073Y-29204327D01*
X176235623Y-29415360D01*
X176185560Y-29665000D01*
X176185560Y-30965000D01*
X176232537Y-31207123D01*
X176372327Y-31419927D01*
X176583360Y-31562377D01*
X176833000Y-31612440D01*
X176995385Y-31612440D01*
X176819271Y-31685389D01*
X176763590Y-31915984D01*
X177483000Y-32635395D01*
X178202410Y-31915984D01*
X178146729Y-31685389D01*
X177937098Y-31612440D01*
X178133000Y-31612440D01*
X178375123Y-31565463D01*
X178587927Y-31425673D01*
X178730377Y-31214640D01*
X178757979Y-31077000D01*
X180731543Y-31077000D01*
X180910300Y-31344529D01*
X180877277Y-31350937D01*
X180664473Y-31490727D01*
X180522023Y-31701760D01*
X180471960Y-31951400D01*
X180471960Y-33678600D01*
X180518937Y-33920723D01*
X180658727Y-34133527D01*
X180869760Y-34275977D01*
X181119400Y-34326040D01*
X182846600Y-34326040D01*
X183088723Y-34279063D01*
X183301527Y-34139273D01*
X183443977Y-33928240D01*
X183452179Y-33887340D01*
X183463330Y-33904029D01*
X183749589Y-34095301D01*
X183724134Y-36958932D01*
X178780622Y-41141904D01*
X178780622Y-32995922D01*
X178751083Y-32485572D01*
X178612611Y-32151271D01*
X178382016Y-32095590D01*
X177662605Y-32815000D01*
X178382016Y-33534410D01*
X178612611Y-33478729D01*
X178780622Y-32995922D01*
X178780622Y-41141904D01*
X178202410Y-41631160D01*
X178202410Y-33714016D01*
X177483000Y-32994605D01*
X177303395Y-33174210D01*
X177303395Y-32815000D01*
X176583984Y-32095590D01*
X176353389Y-32151271D01*
X176185378Y-32634078D01*
X176214917Y-33144428D01*
X176353389Y-33478729D01*
X176583984Y-33534410D01*
X177303395Y-32815000D01*
X177303395Y-33174210D01*
X176763590Y-33714016D01*
X176819271Y-33944611D01*
X177302078Y-34112622D01*
X177812428Y-34083083D01*
X178146729Y-33944611D01*
X178202410Y-33714016D01*
X178202410Y-41631160D01*
X171261991Y-47503823D01*
X171261991Y-33365000D01*
X171261991Y-28865000D01*
X171155651Y-28330391D01*
X170852819Y-27877172D01*
X170399600Y-27574340D01*
X169864991Y-27468000D01*
X169121009Y-27468000D01*
X168586400Y-27574340D01*
X168133181Y-27877172D01*
X167830349Y-28330391D01*
X167724009Y-28865000D01*
X167830349Y-29399609D01*
X168133181Y-29852828D01*
X168586400Y-30155660D01*
X169121009Y-30262000D01*
X169864991Y-30262000D01*
X170399600Y-30155660D01*
X170852819Y-29852828D01*
X171155651Y-29399609D01*
X171261991Y-28865000D01*
X171261991Y-33365000D01*
X171155651Y-32830391D01*
X170852819Y-32377172D01*
X170399600Y-32074340D01*
X169864991Y-31968000D01*
X169121009Y-31968000D01*
X168586400Y-32074340D01*
X168133181Y-32377172D01*
X167830349Y-32830391D01*
X167724009Y-33365000D01*
X167830349Y-33899609D01*
X168133181Y-34352828D01*
X168586400Y-34655660D01*
X169121009Y-34762000D01*
X169864991Y-34762000D01*
X170399600Y-34655660D01*
X170852819Y-34352828D01*
X171155651Y-33899609D01*
X171261991Y-33365000D01*
X171261991Y-47503823D01*
X171203873Y-47553000D01*
X164761991Y-47553000D01*
X164761991Y-33365000D01*
X164761991Y-28865000D01*
X164655651Y-28330391D01*
X164352819Y-27877172D01*
X163899600Y-27574340D01*
X163364991Y-27468000D01*
X162621009Y-27468000D01*
X162086400Y-27574340D01*
X161633181Y-27877172D01*
X161330349Y-28330391D01*
X161224009Y-28865000D01*
X161330349Y-29399609D01*
X161633181Y-29852828D01*
X162086400Y-30155660D01*
X162621009Y-30262000D01*
X163364991Y-30262000D01*
X163899600Y-30155660D01*
X164352819Y-29852828D01*
X164655651Y-29399609D01*
X164761991Y-28865000D01*
X164761991Y-33365000D01*
X164655651Y-32830391D01*
X164352819Y-32377172D01*
X163899600Y-32074340D01*
X163364991Y-31968000D01*
X162621009Y-31968000D01*
X162086400Y-32074340D01*
X161633181Y-32377172D01*
X161330349Y-32830391D01*
X161224009Y-33365000D01*
X161330349Y-33899609D01*
X161633181Y-34352828D01*
X162086400Y-34655660D01*
X162621009Y-34762000D01*
X163364991Y-34762000D01*
X163899600Y-34655660D01*
X164352819Y-34352828D01*
X164655651Y-33899609D01*
X164761991Y-33365000D01*
X164761991Y-47553000D01*
X153818000Y-47553000D01*
X153818000Y-43742000D01*
X153818000Y-43442000D01*
X153818000Y-43188000D01*
X153818000Y-42888000D01*
X153629718Y-42195443D01*
X153190738Y-41627656D01*
X152567891Y-41271080D01*
X152394805Y-41226805D01*
X152110000Y-41343568D01*
X152110000Y-43188000D01*
X153818000Y-43188000D01*
X153818000Y-43442000D01*
X152110000Y-43442000D01*
X152110000Y-45286432D01*
X152394805Y-45403195D01*
X152567891Y-45358920D01*
X153190738Y-45002344D01*
X153629718Y-44434557D01*
X153818000Y-43742000D01*
X153818000Y-47553000D01*
X151856000Y-47553000D01*
X151856000Y-45286432D01*
X151856000Y-43442000D01*
X151856000Y-43188000D01*
X151856000Y-41343568D01*
X151571195Y-41226805D01*
X151398109Y-41271080D01*
X150775262Y-41627656D01*
X150336282Y-42195443D01*
X150148000Y-42888000D01*
X150148000Y-43188000D01*
X151856000Y-43188000D01*
X151856000Y-43442000D01*
X150148000Y-43442000D01*
X150148000Y-43742000D01*
X150336282Y-44434557D01*
X150775262Y-45002344D01*
X151398109Y-45358920D01*
X151571195Y-45403195D01*
X151856000Y-45286432D01*
X151856000Y-47553000D01*
X148734422Y-47553000D01*
X148678319Y-47270949D01*
X148280541Y-46675632D01*
X147685224Y-46277854D01*
X147118457Y-46165117D01*
X147118457Y-29793166D01*
X146718147Y-28824342D01*
X145977557Y-28082458D01*
X145009433Y-27680458D01*
X143961166Y-27679543D01*
X142992342Y-28079853D01*
X142250458Y-28820443D01*
X141848458Y-29788567D01*
X141847543Y-30836834D01*
X142247853Y-31805658D01*
X142988443Y-32547542D01*
X143956567Y-32949542D01*
X145004834Y-32950457D01*
X145973658Y-32550147D01*
X146715542Y-31809557D01*
X147117542Y-30841433D01*
X147118457Y-29793166D01*
X147118457Y-46165117D01*
X146983000Y-46138173D01*
X146280776Y-46277854D01*
X145685459Y-46675632D01*
X145287681Y-47270949D01*
X145148000Y-47973173D01*
X145148000Y-48656827D01*
X145287681Y-49359051D01*
X145685459Y-49954368D01*
X146280776Y-50352146D01*
X146983000Y-50491827D01*
X147685224Y-50352146D01*
X148280541Y-49954368D01*
X148678319Y-49359051D01*
X148734422Y-49077000D01*
X171483000Y-49077000D01*
X171598316Y-49054061D01*
X171715133Y-49040781D01*
X171743169Y-49025248D01*
X171774605Y-49018996D01*
X171872363Y-48953675D01*
X171975208Y-48896700D01*
X184975208Y-37896701D01*
X184993048Y-37874283D01*
X185017004Y-37858583D01*
X185085057Y-37758667D01*
X185160348Y-37664061D01*
X185168250Y-37636526D01*
X185184376Y-37612851D01*
X185209016Y-37494485D01*
X185242367Y-37378281D01*
X185239131Y-37349820D01*
X185244970Y-37321773D01*
X185273513Y-34110600D01*
X185582670Y-33904029D01*
X185793000Y-33589248D01*
X186003330Y-33904029D01*
X186489511Y-34228885D01*
X187063000Y-34342959D01*
X187636489Y-34228885D01*
X188122670Y-33904029D01*
X188333000Y-33589248D01*
X188543330Y-33904029D01*
X189029511Y-34228885D01*
X189603000Y-34342959D01*
X190176489Y-34228885D01*
X190662670Y-33904029D01*
X190873000Y-33589248D01*
X191083330Y-33904029D01*
X191569511Y-34228885D01*
X192143000Y-34342959D01*
X192716489Y-34228885D01*
X193202670Y-33904029D01*
X193527526Y-33417848D01*
X193641600Y-32844359D01*
X193641600Y-32785641D01*
X193527526Y-32212152D01*
X193202670Y-31725971D01*
X192931839Y-31545007D01*
X193349821Y-31163490D01*
X193597968Y-30634027D01*
X193477469Y-30402000D01*
X192270000Y-30402000D01*
X192270000Y-30422000D01*
X192016000Y-30422000D01*
X192016000Y-30402000D01*
X191996000Y-30402000D01*
X191996000Y-30148000D01*
X192016000Y-30148000D01*
X192016000Y-30128000D01*
X192270000Y-30128000D01*
X192270000Y-30148000D01*
X193477469Y-30148000D01*
X193597968Y-29915973D01*
X193349821Y-29386510D01*
X193010729Y-29077000D01*
X193167369Y-29077000D01*
X193721000Y-29630630D01*
X193721000Y-41999370D01*
X171160955Y-64559414D01*
X153818000Y-64913351D01*
X153818000Y-61242000D01*
X153818000Y-60942000D01*
X153818000Y-60688000D01*
X153818000Y-60388000D01*
X153629718Y-59695443D01*
X153190738Y-59127656D01*
X152567891Y-58771080D01*
X152394805Y-58726805D01*
X152110000Y-58843568D01*
X152110000Y-60688000D01*
X153818000Y-60688000D01*
X153818000Y-60942000D01*
X152110000Y-60942000D01*
X152110000Y-62786432D01*
X152394805Y-62903195D01*
X152567891Y-62858920D01*
X153190738Y-62502344D01*
X153629718Y-61934557D01*
X153818000Y-61242000D01*
X153818000Y-64913351D01*
X151856000Y-64953392D01*
X151856000Y-62786432D01*
X151856000Y-60942000D01*
X151856000Y-60688000D01*
X151856000Y-58843568D01*
X151571195Y-58726805D01*
X151398109Y-58771080D01*
X150775262Y-59127656D01*
X150336282Y-59695443D01*
X150148000Y-60388000D01*
X150148000Y-60688000D01*
X151856000Y-60688000D01*
X151856000Y-60942000D01*
X150148000Y-60942000D01*
X150148000Y-61242000D01*
X150336282Y-61934557D01*
X150775262Y-62502344D01*
X151398109Y-62858920D01*
X151571195Y-62903195D01*
X151856000Y-62786432D01*
X151856000Y-64953392D01*
X148727310Y-65017243D01*
X148678319Y-64770949D01*
X148280541Y-64175632D01*
X147685224Y-63777854D01*
X146983000Y-63638173D01*
X146280776Y-63777854D01*
X145685459Y-64175632D01*
X145287681Y-64770949D01*
X145148000Y-65473173D01*
X145148000Y-66156827D01*
X145287681Y-66859051D01*
X145685459Y-67454368D01*
X146280776Y-67852146D01*
X146983000Y-67991827D01*
X147685224Y-67852146D01*
X148280541Y-67454368D01*
X148678319Y-66859051D01*
X148741529Y-66541269D01*
X171498548Y-66076841D01*
X171636312Y-66046503D01*
X171774604Y-66018996D01*
X171781180Y-66014601D01*
X171788909Y-66012900D01*
X171904579Y-65932149D01*
X172021815Y-65853815D01*
X194721000Y-43154630D01*
X194721000Y-58999369D01*
X171167369Y-82553000D01*
X153818000Y-82553000D01*
X153818000Y-78742000D01*
X153818000Y-78442000D01*
X153818000Y-78188000D01*
X153818000Y-77888000D01*
X153629718Y-77195443D01*
X153190738Y-76627656D01*
X152567891Y-76271080D01*
X152394805Y-76226805D01*
X152110000Y-76343568D01*
X152110000Y-78188000D01*
X153818000Y-78188000D01*
X153818000Y-78442000D01*
X152110000Y-78442000D01*
X152110000Y-80286432D01*
X152394805Y-80403195D01*
X152567891Y-80358920D01*
X153190738Y-80002344D01*
X153629718Y-79434557D01*
X153818000Y-78742000D01*
X153818000Y-82553000D01*
X151856000Y-82553000D01*
X151856000Y-80286432D01*
X151856000Y-78442000D01*
X151856000Y-78188000D01*
X151856000Y-76343568D01*
X151571195Y-76226805D01*
X151398109Y-76271080D01*
X150775262Y-76627656D01*
X150336282Y-77195443D01*
X150148000Y-77888000D01*
X150148000Y-78188000D01*
X151856000Y-78188000D01*
X151856000Y-78442000D01*
X150148000Y-78442000D01*
X150148000Y-78742000D01*
X150336282Y-79434557D01*
X150775262Y-80002344D01*
X151398109Y-80358920D01*
X151571195Y-80403195D01*
X151856000Y-80286432D01*
X151856000Y-82553000D01*
X148734422Y-82553000D01*
X148678319Y-82270949D01*
X148280541Y-81675632D01*
X147685224Y-81277854D01*
X146983000Y-81138173D01*
X146280776Y-81277854D01*
X145685459Y-81675632D01*
X145287681Y-82270949D01*
X145148000Y-82973173D01*
X145148000Y-83656827D01*
X145287681Y-84359051D01*
X145685459Y-84954368D01*
X146280776Y-85352146D01*
X146983000Y-85491827D01*
X147685224Y-85352146D01*
X148280541Y-84954368D01*
X148678319Y-84359051D01*
X148734422Y-84077000D01*
X171483000Y-84077000D01*
X171483000Y-84076999D01*
X171774604Y-84018996D01*
X171774605Y-84018996D01*
X172021815Y-83853815D01*
X195721000Y-60154630D01*
X195721000Y-74999370D01*
X171160955Y-99559414D01*
X153818000Y-99913351D01*
X153818000Y-96242000D01*
X153818000Y-95942000D01*
X153818000Y-95688000D01*
X153818000Y-95388000D01*
X153629718Y-94695443D01*
X153190738Y-94127656D01*
X152567891Y-93771080D01*
X152394805Y-93726805D01*
X152110000Y-93843568D01*
X152110000Y-95688000D01*
X153818000Y-95688000D01*
X153818000Y-95942000D01*
X152110000Y-95942000D01*
X152110000Y-97786432D01*
X152394805Y-97903195D01*
X152567891Y-97858920D01*
X153190738Y-97502344D01*
X153629718Y-96934557D01*
X153818000Y-96242000D01*
X153818000Y-99913351D01*
X151856000Y-99953392D01*
X151856000Y-97786432D01*
X151856000Y-95942000D01*
X151856000Y-95688000D01*
X151856000Y-93843568D01*
X151571195Y-93726805D01*
X151398109Y-93771080D01*
X150775262Y-94127656D01*
X150336282Y-94695443D01*
X150148000Y-95388000D01*
X150148000Y-95688000D01*
X151856000Y-95688000D01*
X151856000Y-95942000D01*
X150148000Y-95942000D01*
X150148000Y-96242000D01*
X150336282Y-96934557D01*
X150775262Y-97502344D01*
X151398109Y-97858920D01*
X151571195Y-97903195D01*
X151856000Y-97786432D01*
X151856000Y-99953392D01*
X148727310Y-100017243D01*
X148678319Y-99770949D01*
X148280541Y-99175632D01*
X147685224Y-98777854D01*
X146983000Y-98638173D01*
X146280776Y-98777854D01*
X145685459Y-99175632D01*
X145287681Y-99770949D01*
X145148000Y-100473173D01*
X145148000Y-101156827D01*
X145287681Y-101859051D01*
X145685459Y-102454368D01*
X146280776Y-102852146D01*
X146983000Y-102991827D01*
X147685224Y-102852146D01*
X148280541Y-102454368D01*
X148678319Y-101859051D01*
X148741529Y-101541269D01*
X171498548Y-101076841D01*
X171636312Y-101046503D01*
X171774604Y-101018996D01*
X171781180Y-101014601D01*
X171788909Y-101012900D01*
X171904579Y-100932149D01*
X172021815Y-100853815D01*
X197021815Y-75853815D01*
X197186996Y-75606605D01*
X197244999Y-75315000D01*
X197245000Y-75315000D01*
X197245000Y-27315000D01*
X197186997Y-27023396D01*
X197186996Y-27023395D01*
X197021816Y-26776185D01*
X196245630Y-26000000D01*
X231915532Y-26000000D01*
X232672434Y-26150556D01*
X233256908Y-26541089D01*
X233647442Y-27125564D01*
X233798000Y-27882467D01*
X233798000Y-105315000D01*
X233798000Y-107815000D01*
X233798000Y-110247532D01*
X233798000Y-110247532D01*
G37*
X233798000Y-110247532D02*
X233647442Y-111004435D01*
X233256908Y-111588910D01*
X232672434Y-111979443D01*
X232118457Y-112089635D01*
X232118457Y-107293166D01*
X232118457Y-29793166D01*
X231718147Y-28824342D01*
X230977557Y-28082458D01*
X230009433Y-27680458D01*
X228961166Y-27679543D01*
X227992342Y-28079853D01*
X227250458Y-28820443D01*
X226848458Y-29788567D01*
X226847543Y-30836834D01*
X227247853Y-31805658D01*
X227988443Y-32547542D01*
X228956567Y-32949542D01*
X230004834Y-32950457D01*
X230973658Y-32550147D01*
X231715542Y-31809557D01*
X232117542Y-30841433D01*
X232118457Y-29793166D01*
X232118457Y-107293166D01*
X231718147Y-106324342D01*
X230977557Y-105582458D01*
X230009433Y-105180458D01*
X228961166Y-105179543D01*
X228818000Y-105238697D01*
X228818000Y-101156827D01*
X228818000Y-100473173D01*
X228818000Y-83656827D01*
X228818000Y-82973173D01*
X228818000Y-66156827D01*
X228818000Y-65473173D01*
X228818000Y-48656827D01*
X228818000Y-47973173D01*
X228678319Y-47270949D01*
X228280541Y-46675632D01*
X227685224Y-46277854D01*
X226983000Y-46138173D01*
X226280776Y-46277854D01*
X225685459Y-46675632D01*
X225287681Y-47270949D01*
X225148000Y-47973173D01*
X225148000Y-48656827D01*
X225287681Y-49359051D01*
X225685459Y-49954368D01*
X226280776Y-50352146D01*
X226983000Y-50491827D01*
X227685224Y-50352146D01*
X228280541Y-49954368D01*
X228678319Y-49359051D01*
X228818000Y-48656827D01*
X228818000Y-65473173D01*
X228678319Y-64770949D01*
X228280541Y-64175632D01*
X227685224Y-63777854D01*
X226983000Y-63638173D01*
X226280776Y-63777854D01*
X225685459Y-64175632D01*
X225287681Y-64770949D01*
X225148000Y-65473173D01*
X225148000Y-66156827D01*
X225287681Y-66859051D01*
X225685459Y-67454368D01*
X226280776Y-67852146D01*
X226983000Y-67991827D01*
X227685224Y-67852146D01*
X228280541Y-67454368D01*
X228678319Y-66859051D01*
X228818000Y-66156827D01*
X228818000Y-82973173D01*
X228678319Y-82270949D01*
X228280541Y-81675632D01*
X227685224Y-81277854D01*
X226983000Y-81138173D01*
X226280776Y-81277854D01*
X225685459Y-81675632D01*
X225287681Y-82270949D01*
X225148000Y-82973173D01*
X225148000Y-83656827D01*
X225287681Y-84359051D01*
X225685459Y-84954368D01*
X226280776Y-85352146D01*
X226983000Y-85491827D01*
X227685224Y-85352146D01*
X228280541Y-84954368D01*
X228678319Y-84359051D01*
X228818000Y-83656827D01*
X228818000Y-100473173D01*
X228678319Y-99770949D01*
X228280541Y-99175632D01*
X227685224Y-98777854D01*
X226983000Y-98638173D01*
X226280776Y-98777854D01*
X225685459Y-99175632D01*
X225287681Y-99770949D01*
X225148000Y-100473173D01*
X225148000Y-101156827D01*
X225287681Y-101859051D01*
X225685459Y-102454368D01*
X226280776Y-102852146D01*
X226983000Y-102991827D01*
X227685224Y-102852146D01*
X228280541Y-102454368D01*
X228678319Y-101859051D01*
X228818000Y-101156827D01*
X228818000Y-105238697D01*
X227992342Y-105579853D01*
X227250458Y-106320443D01*
X226848458Y-107288567D01*
X226847543Y-108336834D01*
X227247853Y-109305658D01*
X227988443Y-110047542D01*
X228956567Y-110449542D01*
X230004834Y-110450457D01*
X230973658Y-110050147D01*
X231715542Y-109309557D01*
X232117542Y-108341433D01*
X232118457Y-107293166D01*
X232118457Y-112089635D01*
X231915532Y-112130000D01*
X223818000Y-112130000D01*
X223818000Y-96156827D01*
X223818000Y-95473173D01*
X223678319Y-94770949D01*
X223280541Y-94175632D01*
X222745000Y-93817795D01*
X222745000Y-80312204D01*
X223280541Y-79954368D01*
X223678319Y-79359051D01*
X223818000Y-78656827D01*
X223818000Y-77973173D01*
X223678319Y-77270949D01*
X223280541Y-76675632D01*
X222745000Y-76317795D01*
X222745000Y-62812204D01*
X223280541Y-62454368D01*
X223678319Y-61859051D01*
X223818000Y-61156827D01*
X223818000Y-60473173D01*
X223678319Y-59770949D01*
X223280541Y-59175632D01*
X222745000Y-58817795D01*
X222745000Y-45312204D01*
X223280541Y-44954368D01*
X223678319Y-44359051D01*
X223818000Y-43656827D01*
X223818000Y-42973173D01*
X223678319Y-42270949D01*
X223280541Y-41675632D01*
X222685224Y-41277854D01*
X221983000Y-41138173D01*
X221280776Y-41277854D01*
X220685459Y-41675632D01*
X220287681Y-42270949D01*
X220148000Y-42973173D01*
X220148000Y-43656827D01*
X220287681Y-44359051D01*
X220685459Y-44954368D01*
X221221000Y-45312204D01*
X221221000Y-58817795D01*
X220685459Y-59175632D01*
X220287681Y-59770949D01*
X220148000Y-60473173D01*
X220148000Y-61156827D01*
X220287681Y-61859051D01*
X220685459Y-62454368D01*
X221221000Y-62812204D01*
X221221000Y-76317795D01*
X220685459Y-76675632D01*
X220287681Y-77270949D01*
X220148000Y-77973173D01*
X220148000Y-78656827D01*
X220287681Y-79359051D01*
X220685459Y-79954368D01*
X221221000Y-80312204D01*
X221221000Y-93817795D01*
X220685459Y-94175632D01*
X220287681Y-94770949D01*
X220148000Y-95473173D01*
X220148000Y-96156827D01*
X220287681Y-96859051D01*
X220685459Y-97454368D01*
X221280776Y-97852146D01*
X221983000Y-97991827D01*
X222685224Y-97852146D01*
X223280541Y-97454368D01*
X223678319Y-96859051D01*
X223818000Y-96156827D01*
X223818000Y-112130000D01*
X211901991Y-112130000D01*
X211901991Y-33365000D01*
X211901991Y-28865000D01*
X211795651Y-28330391D01*
X211492819Y-27877172D01*
X211039600Y-27574340D01*
X210504991Y-27468000D01*
X209761009Y-27468000D01*
X209226400Y-27574340D01*
X208773181Y-27877172D01*
X208470349Y-28330391D01*
X208364009Y-28865000D01*
X208470349Y-29399609D01*
X208773181Y-29852828D01*
X209226400Y-30155660D01*
X209761009Y-30262000D01*
X210504991Y-30262000D01*
X211039600Y-30155660D01*
X211492819Y-29852828D01*
X211795651Y-29399609D01*
X211901991Y-28865000D01*
X211901991Y-33365000D01*
X211795651Y-32830391D01*
X211492819Y-32377172D01*
X211039600Y-32074340D01*
X210504991Y-31968000D01*
X209761009Y-31968000D01*
X209226400Y-32074340D01*
X208773181Y-32377172D01*
X208470349Y-32830391D01*
X208364009Y-33365000D01*
X208470349Y-33899609D01*
X208773181Y-34352828D01*
X209226400Y-34655660D01*
X209761009Y-34762000D01*
X210504991Y-34762000D01*
X211039600Y-34655660D01*
X211492819Y-34352828D01*
X211795651Y-33899609D01*
X211901991Y-33365000D01*
X211901991Y-112130000D01*
X205401991Y-112130000D01*
X205401991Y-33365000D01*
X205401991Y-28865000D01*
X205295651Y-28330391D01*
X204992819Y-27877172D01*
X204539600Y-27574340D01*
X204004991Y-27468000D01*
X203261009Y-27468000D01*
X202726400Y-27574340D01*
X202273181Y-27877172D01*
X201970349Y-28330391D01*
X201864009Y-28865000D01*
X201970349Y-29399609D01*
X202273181Y-29852828D01*
X202726400Y-30155660D01*
X203261009Y-30262000D01*
X204004991Y-30262000D01*
X204539600Y-30155660D01*
X204992819Y-29852828D01*
X205295651Y-29399609D01*
X205401991Y-28865000D01*
X205401991Y-33365000D01*
X205295651Y-32830391D01*
X204992819Y-32377172D01*
X204539600Y-32074340D01*
X204004991Y-31968000D01*
X203261009Y-31968000D01*
X202726400Y-32074340D01*
X202273181Y-32377172D01*
X201970349Y-32830391D01*
X201864009Y-33365000D01*
X201970349Y-33899609D01*
X202273181Y-34352828D01*
X202726400Y-34655660D01*
X203261009Y-34762000D01*
X204004991Y-34762000D01*
X204539600Y-34655660D01*
X204992819Y-34352828D01*
X205295651Y-33899609D01*
X205401991Y-33365000D01*
X205401991Y-112130000D01*
X147118457Y-112130000D01*
X147118457Y-107293166D01*
X146718147Y-106324342D01*
X145977557Y-105582458D01*
X145009433Y-105180458D01*
X143961166Y-105179543D01*
X142992342Y-105579853D01*
X142250458Y-106320443D01*
X141848458Y-107288567D01*
X141847543Y-108336834D01*
X142247853Y-109305658D01*
X142988443Y-110047542D01*
X143956567Y-110449542D01*
X145004834Y-110450457D01*
X145973658Y-110050147D01*
X146715542Y-109309557D01*
X147117542Y-108341433D01*
X147118457Y-107293166D01*
X147118457Y-112130000D01*
X142050467Y-112130000D01*
X141293564Y-111979442D01*
X140709089Y-111588908D01*
X140318556Y-111004434D01*
X140168000Y-110247532D01*
X140168000Y-107815000D01*
X140168000Y-105315000D01*
X140168000Y-27882467D01*
X140318556Y-27125565D01*
X140709089Y-26541091D01*
X141293564Y-26150557D01*
X142050467Y-26000000D01*
X186720370Y-26000000D01*
X183984185Y-28736185D01*
X183861347Y-28920024D01*
X183463330Y-29185971D01*
X183253000Y-29500751D01*
X183042670Y-29185971D01*
X182556489Y-28861115D01*
X181983000Y-28747041D01*
X181409511Y-28861115D01*
X180923330Y-29185971D01*
X180678088Y-29553000D01*
X178758709Y-29553000D01*
X178733463Y-29422877D01*
X178593673Y-29210073D01*
X178382640Y-29067623D01*
X178133000Y-29017560D01*
X176833000Y-29017560D01*
X176590877Y-29064537D01*
X176378073Y-29204327D01*
X176235623Y-29415360D01*
X176185560Y-29665000D01*
X176185560Y-30965000D01*
X176232537Y-31207123D01*
X176372327Y-31419927D01*
X176583360Y-31562377D01*
X176833000Y-31612440D01*
X176995385Y-31612440D01*
X176819271Y-31685389D01*
X176763590Y-31915984D01*
X177483000Y-32635395D01*
X178202410Y-31915984D01*
X178146729Y-31685389D01*
X177937098Y-31612440D01*
X178133000Y-31612440D01*
X178375123Y-31565463D01*
X178587927Y-31425673D01*
X178730377Y-31214640D01*
X178757979Y-31077000D01*
X180731543Y-31077000D01*
X180910300Y-31344529D01*
X180877277Y-31350937D01*
X180664473Y-31490727D01*
X180522023Y-31701760D01*
X180471960Y-31951400D01*
X180471960Y-33678600D01*
X180518937Y-33920723D01*
X180658727Y-34133527D01*
X180869760Y-34275977D01*
X181119400Y-34326040D01*
X182846600Y-34326040D01*
X183088723Y-34279063D01*
X183301527Y-34139273D01*
X183443977Y-33928240D01*
X183452179Y-33887340D01*
X183463330Y-33904029D01*
X183749589Y-34095301D01*
X183724134Y-36958932D01*
X178780622Y-41141904D01*
X178780622Y-32995922D01*
X178751083Y-32485572D01*
X178612611Y-32151271D01*
X178382016Y-32095590D01*
X177662605Y-32815000D01*
X178382016Y-33534410D01*
X178612611Y-33478729D01*
X178780622Y-32995922D01*
X178780622Y-41141904D01*
X178202410Y-41631160D01*
X178202410Y-33714016D01*
X177483000Y-32994605D01*
X177303395Y-33174210D01*
X177303395Y-32815000D01*
X176583984Y-32095590D01*
X176353389Y-32151271D01*
X176185378Y-32634078D01*
X176214917Y-33144428D01*
X176353389Y-33478729D01*
X176583984Y-33534410D01*
X177303395Y-32815000D01*
X177303395Y-33174210D01*
X176763590Y-33714016D01*
X176819271Y-33944611D01*
X177302078Y-34112622D01*
X177812428Y-34083083D01*
X178146729Y-33944611D01*
X178202410Y-33714016D01*
X178202410Y-41631160D01*
X171261991Y-47503823D01*
X171261991Y-33365000D01*
X171261991Y-28865000D01*
X171155651Y-28330391D01*
X170852819Y-27877172D01*
X170399600Y-27574340D01*
X169864991Y-27468000D01*
X169121009Y-27468000D01*
X168586400Y-27574340D01*
X168133181Y-27877172D01*
X167830349Y-28330391D01*
X167724009Y-28865000D01*
X167830349Y-29399609D01*
X168133181Y-29852828D01*
X168586400Y-30155660D01*
X169121009Y-30262000D01*
X169864991Y-30262000D01*
X170399600Y-30155660D01*
X170852819Y-29852828D01*
X171155651Y-29399609D01*
X171261991Y-28865000D01*
X171261991Y-33365000D01*
X171155651Y-32830391D01*
X170852819Y-32377172D01*
X170399600Y-32074340D01*
X169864991Y-31968000D01*
X169121009Y-31968000D01*
X168586400Y-32074340D01*
X168133181Y-32377172D01*
X167830349Y-32830391D01*
X167724009Y-33365000D01*
X167830349Y-33899609D01*
X168133181Y-34352828D01*
X168586400Y-34655660D01*
X169121009Y-34762000D01*
X169864991Y-34762000D01*
X170399600Y-34655660D01*
X170852819Y-34352828D01*
X171155651Y-33899609D01*
X171261991Y-33365000D01*
X171261991Y-47503823D01*
X171203873Y-47553000D01*
X164761991Y-47553000D01*
X164761991Y-33365000D01*
X164761991Y-28865000D01*
X164655651Y-28330391D01*
X164352819Y-27877172D01*
X163899600Y-27574340D01*
X163364991Y-27468000D01*
X162621009Y-27468000D01*
X162086400Y-27574340D01*
X161633181Y-27877172D01*
X161330349Y-28330391D01*
X161224009Y-28865000D01*
X161330349Y-29399609D01*
X161633181Y-29852828D01*
X162086400Y-30155660D01*
X162621009Y-30262000D01*
X163364991Y-30262000D01*
X163899600Y-30155660D01*
X164352819Y-29852828D01*
X164655651Y-29399609D01*
X164761991Y-28865000D01*
X164761991Y-33365000D01*
X164655651Y-32830391D01*
X164352819Y-32377172D01*
X163899600Y-32074340D01*
X163364991Y-31968000D01*
X162621009Y-31968000D01*
X162086400Y-32074340D01*
X161633181Y-32377172D01*
X161330349Y-32830391D01*
X161224009Y-33365000D01*
X161330349Y-33899609D01*
X161633181Y-34352828D01*
X162086400Y-34655660D01*
X162621009Y-34762000D01*
X163364991Y-34762000D01*
X163899600Y-34655660D01*
X164352819Y-34352828D01*
X164655651Y-33899609D01*
X164761991Y-33365000D01*
X164761991Y-47553000D01*
X153818000Y-47553000D01*
X153818000Y-43742000D01*
X153818000Y-43442000D01*
X153818000Y-43188000D01*
X153818000Y-42888000D01*
X153629718Y-42195443D01*
X153190738Y-41627656D01*
X152567891Y-41271080D01*
X152394805Y-41226805D01*
X152110000Y-41343568D01*
X152110000Y-43188000D01*
X153818000Y-43188000D01*
X153818000Y-43442000D01*
X152110000Y-43442000D01*
X152110000Y-45286432D01*
X152394805Y-45403195D01*
X152567891Y-45358920D01*
X153190738Y-45002344D01*
X153629718Y-44434557D01*
X153818000Y-43742000D01*
X153818000Y-47553000D01*
X151856000Y-47553000D01*
X151856000Y-45286432D01*
X151856000Y-43442000D01*
X151856000Y-43188000D01*
X151856000Y-41343568D01*
X151571195Y-41226805D01*
X151398109Y-41271080D01*
X150775262Y-41627656D01*
X150336282Y-42195443D01*
X150148000Y-42888000D01*
X150148000Y-43188000D01*
X151856000Y-43188000D01*
X151856000Y-43442000D01*
X150148000Y-43442000D01*
X150148000Y-43742000D01*
X150336282Y-44434557D01*
X150775262Y-45002344D01*
X151398109Y-45358920D01*
X151571195Y-45403195D01*
X151856000Y-45286432D01*
X151856000Y-47553000D01*
X148734422Y-47553000D01*
X148678319Y-47270949D01*
X148280541Y-46675632D01*
X147685224Y-46277854D01*
X147118457Y-46165117D01*
X147118457Y-29793166D01*
X146718147Y-28824342D01*
X145977557Y-28082458D01*
X145009433Y-27680458D01*
X143961166Y-27679543D01*
X142992342Y-28079853D01*
X142250458Y-28820443D01*
X141848458Y-29788567D01*
X141847543Y-30836834D01*
X142247853Y-31805658D01*
X142988443Y-32547542D01*
X143956567Y-32949542D01*
X145004834Y-32950457D01*
X145973658Y-32550147D01*
X146715542Y-31809557D01*
X147117542Y-30841433D01*
X147118457Y-29793166D01*
X147118457Y-46165117D01*
X146983000Y-46138173D01*
X146280776Y-46277854D01*
X145685459Y-46675632D01*
X145287681Y-47270949D01*
X145148000Y-47973173D01*
X145148000Y-48656827D01*
X145287681Y-49359051D01*
X145685459Y-49954368D01*
X146280776Y-50352146D01*
X146983000Y-50491827D01*
X147685224Y-50352146D01*
X148280541Y-49954368D01*
X148678319Y-49359051D01*
X148734422Y-49077000D01*
X171483000Y-49077000D01*
X171598316Y-49054061D01*
X171715133Y-49040781D01*
X171743169Y-49025248D01*
X171774605Y-49018996D01*
X171872363Y-48953675D01*
X171975208Y-48896700D01*
X184975208Y-37896701D01*
X184993048Y-37874283D01*
X185017004Y-37858583D01*
X185085057Y-37758667D01*
X185160348Y-37664061D01*
X185168250Y-37636526D01*
X185184376Y-37612851D01*
X185209016Y-37494485D01*
X185242367Y-37378281D01*
X185239131Y-37349820D01*
X185244970Y-37321773D01*
X185273513Y-34110600D01*
X185582670Y-33904029D01*
X185793000Y-33589248D01*
X186003330Y-33904029D01*
X186489511Y-34228885D01*
X187063000Y-34342959D01*
X187636489Y-34228885D01*
X188122670Y-33904029D01*
X188333000Y-33589248D01*
X188543330Y-33904029D01*
X189029511Y-34228885D01*
X189603000Y-34342959D01*
X190176489Y-34228885D01*
X190662670Y-33904029D01*
X190873000Y-33589248D01*
X191083330Y-33904029D01*
X191569511Y-34228885D01*
X192143000Y-34342959D01*
X192716489Y-34228885D01*
X193202670Y-33904029D01*
X193527526Y-33417848D01*
X193641600Y-32844359D01*
X193641600Y-32785641D01*
X193527526Y-32212152D01*
X193202670Y-31725971D01*
X192931839Y-31545007D01*
X193349821Y-31163490D01*
X193597968Y-30634027D01*
X193477469Y-30402000D01*
X192270000Y-30402000D01*
X192270000Y-30422000D01*
X192016000Y-30422000D01*
X192016000Y-30402000D01*
X191996000Y-30402000D01*
X191996000Y-30148000D01*
X192016000Y-30148000D01*
X192016000Y-30128000D01*
X192270000Y-30128000D01*
X192270000Y-30148000D01*
X193477469Y-30148000D01*
X193597968Y-29915973D01*
X193349821Y-29386510D01*
X193010729Y-29077000D01*
X193167369Y-29077000D01*
X193721000Y-29630630D01*
X193721000Y-41999370D01*
X171160955Y-64559414D01*
X153818000Y-64913351D01*
X153818000Y-61242000D01*
X153818000Y-60942000D01*
X153818000Y-60688000D01*
X153818000Y-60388000D01*
X153629718Y-59695443D01*
X153190738Y-59127656D01*
X152567891Y-58771080D01*
X152394805Y-58726805D01*
X152110000Y-58843568D01*
X152110000Y-60688000D01*
X153818000Y-60688000D01*
X153818000Y-60942000D01*
X152110000Y-60942000D01*
X152110000Y-62786432D01*
X152394805Y-62903195D01*
X152567891Y-62858920D01*
X153190738Y-62502344D01*
X153629718Y-61934557D01*
X153818000Y-61242000D01*
X153818000Y-64913351D01*
X151856000Y-64953392D01*
X151856000Y-62786432D01*
X151856000Y-60942000D01*
X151856000Y-60688000D01*
X151856000Y-58843568D01*
X151571195Y-58726805D01*
X151398109Y-58771080D01*
X150775262Y-59127656D01*
X150336282Y-59695443D01*
X150148000Y-60388000D01*
X150148000Y-60688000D01*
X151856000Y-60688000D01*
X151856000Y-60942000D01*
X150148000Y-60942000D01*
X150148000Y-61242000D01*
X150336282Y-61934557D01*
X150775262Y-62502344D01*
X151398109Y-62858920D01*
X151571195Y-62903195D01*
X151856000Y-62786432D01*
X151856000Y-64953392D01*
X148727310Y-65017243D01*
X148678319Y-64770949D01*
X148280541Y-64175632D01*
X147685224Y-63777854D01*
X146983000Y-63638173D01*
X146280776Y-63777854D01*
X145685459Y-64175632D01*
X145287681Y-64770949D01*
X145148000Y-65473173D01*
X145148000Y-66156827D01*
X145287681Y-66859051D01*
X145685459Y-67454368D01*
X146280776Y-67852146D01*
X146983000Y-67991827D01*
X147685224Y-67852146D01*
X148280541Y-67454368D01*
X148678319Y-66859051D01*
X148741529Y-66541269D01*
X171498548Y-66076841D01*
X171636312Y-66046503D01*
X171774604Y-66018996D01*
X171781180Y-66014601D01*
X171788909Y-66012900D01*
X171904579Y-65932149D01*
X172021815Y-65853815D01*
X194721000Y-43154630D01*
X194721000Y-58999369D01*
X171167369Y-82553000D01*
X153818000Y-82553000D01*
X153818000Y-78742000D01*
X153818000Y-78442000D01*
X153818000Y-78188000D01*
X153818000Y-77888000D01*
X153629718Y-77195443D01*
X153190738Y-76627656D01*
X152567891Y-76271080D01*
X152394805Y-76226805D01*
X152110000Y-76343568D01*
X152110000Y-78188000D01*
X153818000Y-78188000D01*
X153818000Y-78442000D01*
X152110000Y-78442000D01*
X152110000Y-80286432D01*
X152394805Y-80403195D01*
X152567891Y-80358920D01*
X153190738Y-80002344D01*
X153629718Y-79434557D01*
X153818000Y-78742000D01*
X153818000Y-82553000D01*
X151856000Y-82553000D01*
X151856000Y-80286432D01*
X151856000Y-78442000D01*
X151856000Y-78188000D01*
X151856000Y-76343568D01*
X151571195Y-76226805D01*
X151398109Y-76271080D01*
X150775262Y-76627656D01*
X150336282Y-77195443D01*
X150148000Y-77888000D01*
X150148000Y-78188000D01*
X151856000Y-78188000D01*
X151856000Y-78442000D01*
X150148000Y-78442000D01*
X150148000Y-78742000D01*
X150336282Y-79434557D01*
X150775262Y-80002344D01*
X151398109Y-80358920D01*
X151571195Y-80403195D01*
X151856000Y-80286432D01*
X151856000Y-82553000D01*
X148734422Y-82553000D01*
X148678319Y-82270949D01*
X148280541Y-81675632D01*
X147685224Y-81277854D01*
X146983000Y-81138173D01*
X146280776Y-81277854D01*
X145685459Y-81675632D01*
X145287681Y-82270949D01*
X145148000Y-82973173D01*
X145148000Y-83656827D01*
X145287681Y-84359051D01*
X145685459Y-84954368D01*
X146280776Y-85352146D01*
X146983000Y-85491827D01*
X147685224Y-85352146D01*
X148280541Y-84954368D01*
X148678319Y-84359051D01*
X148734422Y-84077000D01*
X171483000Y-84077000D01*
X171483000Y-84076999D01*
X171774604Y-84018996D01*
X171774605Y-84018996D01*
X172021815Y-83853815D01*
X195721000Y-60154630D01*
X195721000Y-74999370D01*
X171160955Y-99559414D01*
X153818000Y-99913351D01*
X153818000Y-96242000D01*
X153818000Y-95942000D01*
X153818000Y-95688000D01*
X153818000Y-95388000D01*
X153629718Y-94695443D01*
X153190738Y-94127656D01*
X152567891Y-93771080D01*
X152394805Y-93726805D01*
X152110000Y-93843568D01*
X152110000Y-95688000D01*
X153818000Y-95688000D01*
X153818000Y-95942000D01*
X152110000Y-95942000D01*
X152110000Y-97786432D01*
X152394805Y-97903195D01*
X152567891Y-97858920D01*
X153190738Y-97502344D01*
X153629718Y-96934557D01*
X153818000Y-96242000D01*
X153818000Y-99913351D01*
X151856000Y-99953392D01*
X151856000Y-97786432D01*
X151856000Y-95942000D01*
X151856000Y-95688000D01*
X151856000Y-93843568D01*
X151571195Y-93726805D01*
X151398109Y-93771080D01*
X150775262Y-94127656D01*
X150336282Y-94695443D01*
X150148000Y-95388000D01*
X150148000Y-95688000D01*
X151856000Y-95688000D01*
X151856000Y-95942000D01*
X150148000Y-95942000D01*
X150148000Y-96242000D01*
X150336282Y-96934557D01*
X150775262Y-97502344D01*
X151398109Y-97858920D01*
X151571195Y-97903195D01*
X151856000Y-97786432D01*
X151856000Y-99953392D01*
X148727310Y-100017243D01*
X148678319Y-99770949D01*
X148280541Y-99175632D01*
X147685224Y-98777854D01*
X146983000Y-98638173D01*
X146280776Y-98777854D01*
X145685459Y-99175632D01*
X145287681Y-99770949D01*
X145148000Y-100473173D01*
X145148000Y-101156827D01*
X145287681Y-101859051D01*
X145685459Y-102454368D01*
X146280776Y-102852146D01*
X146983000Y-102991827D01*
X147685224Y-102852146D01*
X148280541Y-102454368D01*
X148678319Y-101859051D01*
X148741529Y-101541269D01*
X171498548Y-101076841D01*
X171636312Y-101046503D01*
X171774604Y-101018996D01*
X171781180Y-101014601D01*
X171788909Y-101012900D01*
X171904579Y-100932149D01*
X172021815Y-100853815D01*
X197021815Y-75853815D01*
X197186996Y-75606605D01*
X197244999Y-75315000D01*
X197245000Y-75315000D01*
X197245000Y-27315000D01*
X197186997Y-27023396D01*
X197186996Y-27023395D01*
X197021816Y-26776185D01*
X196245630Y-26000000D01*
X231915532Y-26000000D01*
X232672434Y-26150556D01*
X233256908Y-26541089D01*
X233647442Y-27125564D01*
X233798000Y-27882467D01*
X233798000Y-105315000D01*
X233798000Y-107815000D01*
X233798000Y-110247532D01*
G36*
X233798000Y-204227532D02*
X233647442Y-204984435D01*
X233256908Y-205568910D01*
X232672434Y-205959443D01*
X232118457Y-206069635D01*
X232118457Y-201273166D01*
X232118457Y-123773166D01*
X231718147Y-122804342D01*
X230977557Y-122062458D01*
X230009433Y-121660458D01*
X228961166Y-121659543D01*
X227992342Y-122059853D01*
X227250458Y-122800443D01*
X226848458Y-123768567D01*
X226847543Y-124816834D01*
X227247853Y-125785658D01*
X227988443Y-126527542D01*
X228956567Y-126929542D01*
X230004834Y-126930457D01*
X230973658Y-126530147D01*
X231715542Y-125789557D01*
X232117542Y-124821433D01*
X232118457Y-123773166D01*
X232118457Y-201273166D01*
X231718147Y-200304342D01*
X230977557Y-199562458D01*
X230009433Y-199160458D01*
X228961166Y-199159543D01*
X228818000Y-199218697D01*
X228818000Y-195136827D01*
X228818000Y-194453173D01*
X228818000Y-177636827D01*
X228818000Y-176953173D01*
X228818000Y-160136827D01*
X228818000Y-159453173D01*
X228818000Y-142636827D01*
X228818000Y-141953173D01*
X228678319Y-141250949D01*
X228280541Y-140655632D01*
X227685224Y-140257854D01*
X226983000Y-140118173D01*
X226280776Y-140257854D01*
X225685459Y-140655632D01*
X225287681Y-141250949D01*
X225148000Y-141953173D01*
X225148000Y-142636827D01*
X225287681Y-143339051D01*
X225685459Y-143934368D01*
X226280776Y-144332146D01*
X226983000Y-144471827D01*
X227685224Y-144332146D01*
X228280541Y-143934368D01*
X228678319Y-143339051D01*
X228818000Y-142636827D01*
X228818000Y-159453173D01*
X228678319Y-158750949D01*
X228280541Y-158155632D01*
X227685224Y-157757854D01*
X226983000Y-157618173D01*
X226280776Y-157757854D01*
X225685459Y-158155632D01*
X225287681Y-158750949D01*
X225148000Y-159453173D01*
X225148000Y-160136827D01*
X225287681Y-160839051D01*
X225685459Y-161434368D01*
X226280776Y-161832146D01*
X226983000Y-161971827D01*
X227685224Y-161832146D01*
X228280541Y-161434368D01*
X228678319Y-160839051D01*
X228818000Y-160136827D01*
X228818000Y-176953173D01*
X228678319Y-176250949D01*
X228280541Y-175655632D01*
X227685224Y-175257854D01*
X226983000Y-175118173D01*
X226280776Y-175257854D01*
X225685459Y-175655632D01*
X225287681Y-176250949D01*
X225148000Y-176953173D01*
X225148000Y-177636827D01*
X225287681Y-178339051D01*
X225685459Y-178934368D01*
X226280776Y-179332146D01*
X226983000Y-179471827D01*
X227685224Y-179332146D01*
X228280541Y-178934368D01*
X228678319Y-178339051D01*
X228818000Y-177636827D01*
X228818000Y-194453173D01*
X228678319Y-193750949D01*
X228280541Y-193155632D01*
X227685224Y-192757854D01*
X226983000Y-192618173D01*
X226280776Y-192757854D01*
X225685459Y-193155632D01*
X225287681Y-193750949D01*
X225148000Y-194453173D01*
X225148000Y-195136827D01*
X225287681Y-195839051D01*
X225685459Y-196434368D01*
X226280776Y-196832146D01*
X226983000Y-196971827D01*
X227685224Y-196832146D01*
X228280541Y-196434368D01*
X228678319Y-195839051D01*
X228818000Y-195136827D01*
X228818000Y-199218697D01*
X227992342Y-199559853D01*
X227250458Y-200300443D01*
X226848458Y-201268567D01*
X226847543Y-202316834D01*
X227247853Y-203285658D01*
X227988443Y-204027542D01*
X228956567Y-204429542D01*
X230004834Y-204430457D01*
X230973658Y-204030147D01*
X231715542Y-203289557D01*
X232117542Y-202321433D01*
X232118457Y-201273166D01*
X232118457Y-206069635D01*
X231915532Y-206110000D01*
X223818000Y-206110000D01*
X223818000Y-190136827D01*
X223818000Y-189453173D01*
X223678319Y-188750949D01*
X223280541Y-188155632D01*
X222745000Y-187797795D01*
X222745000Y-174292204D01*
X223280541Y-173934368D01*
X223678319Y-173339051D01*
X223818000Y-172636827D01*
X223818000Y-171953173D01*
X223678319Y-171250949D01*
X223280541Y-170655632D01*
X222745000Y-170297795D01*
X222745000Y-156792204D01*
X223280541Y-156434368D01*
X223678319Y-155839051D01*
X223818000Y-155136827D01*
X223818000Y-154453173D01*
X223678319Y-153750949D01*
X223280541Y-153155632D01*
X222745000Y-152797795D01*
X222745000Y-139292204D01*
X223280541Y-138934368D01*
X223678319Y-138339051D01*
X223818000Y-137636827D01*
X223818000Y-136953173D01*
X223678319Y-136250949D01*
X223280541Y-135655632D01*
X222685224Y-135257854D01*
X221983000Y-135118173D01*
X221280776Y-135257854D01*
X220685459Y-135655632D01*
X220287681Y-136250949D01*
X220148000Y-136953173D01*
X220148000Y-137636827D01*
X220287681Y-138339051D01*
X220685459Y-138934368D01*
X221221000Y-139292204D01*
X221221000Y-152797795D01*
X220685459Y-153155632D01*
X220287681Y-153750949D01*
X220148000Y-154453173D01*
X220148000Y-155136827D01*
X220287681Y-155839051D01*
X220685459Y-156434368D01*
X221221000Y-156792204D01*
X221221000Y-170297795D01*
X220685459Y-170655632D01*
X220287681Y-171250949D01*
X220148000Y-171953173D01*
X220148000Y-172636827D01*
X220287681Y-173339051D01*
X220685459Y-173934368D01*
X221221000Y-174292204D01*
X221221000Y-187797795D01*
X220685459Y-188155632D01*
X220287681Y-188750949D01*
X220148000Y-189453173D01*
X220148000Y-190136827D01*
X220287681Y-190839051D01*
X220685459Y-191434368D01*
X221280776Y-191832146D01*
X221983000Y-191971827D01*
X222685224Y-191832146D01*
X223280541Y-191434368D01*
X223678319Y-190839051D01*
X223818000Y-190136827D01*
X223818000Y-206110000D01*
X211901991Y-206110000D01*
X211901991Y-127345000D01*
X211901991Y-122845000D01*
X211795651Y-122310391D01*
X211492819Y-121857172D01*
X211039600Y-121554340D01*
X210504991Y-121448000D01*
X209761009Y-121448000D01*
X209226400Y-121554340D01*
X208773181Y-121857172D01*
X208470349Y-122310391D01*
X208364009Y-122845000D01*
X208470349Y-123379609D01*
X208773181Y-123832828D01*
X209226400Y-124135660D01*
X209761009Y-124242000D01*
X210504991Y-124242000D01*
X211039600Y-124135660D01*
X211492819Y-123832828D01*
X211795651Y-123379609D01*
X211901991Y-122845000D01*
X211901991Y-127345000D01*
X211795651Y-126810391D01*
X211492819Y-126357172D01*
X211039600Y-126054340D01*
X210504991Y-125948000D01*
X209761009Y-125948000D01*
X209226400Y-126054340D01*
X208773181Y-126357172D01*
X208470349Y-126810391D01*
X208364009Y-127345000D01*
X208470349Y-127879609D01*
X208773181Y-128332828D01*
X209226400Y-128635660D01*
X209761009Y-128742000D01*
X210504991Y-128742000D01*
X211039600Y-128635660D01*
X211492819Y-128332828D01*
X211795651Y-127879609D01*
X211901991Y-127345000D01*
X211901991Y-206110000D01*
X205401991Y-206110000D01*
X205401991Y-127345000D01*
X205401991Y-122845000D01*
X205295651Y-122310391D01*
X204992819Y-121857172D01*
X204539600Y-121554340D01*
X204004991Y-121448000D01*
X203261009Y-121448000D01*
X202726400Y-121554340D01*
X202273181Y-121857172D01*
X201970349Y-122310391D01*
X201864009Y-122845000D01*
X201970349Y-123379609D01*
X202273181Y-123832828D01*
X202726400Y-124135660D01*
X203261009Y-124242000D01*
X204004991Y-124242000D01*
X204539600Y-124135660D01*
X204992819Y-123832828D01*
X205295651Y-123379609D01*
X205401991Y-122845000D01*
X205401991Y-127345000D01*
X205295651Y-126810391D01*
X204992819Y-126357172D01*
X204539600Y-126054340D01*
X204004991Y-125948000D01*
X203261009Y-125948000D01*
X202726400Y-126054340D01*
X202273181Y-126357172D01*
X201970349Y-126810391D01*
X201864009Y-127345000D01*
X201970349Y-127879609D01*
X202273181Y-128332828D01*
X202726400Y-128635660D01*
X203261009Y-128742000D01*
X204004991Y-128742000D01*
X204539600Y-128635660D01*
X204992819Y-128332828D01*
X205295651Y-127879609D01*
X205401991Y-127345000D01*
X205401991Y-206110000D01*
X147118457Y-206110000D01*
X147118457Y-201273166D01*
X146718147Y-200304342D01*
X145977557Y-199562458D01*
X145009433Y-199160458D01*
X143961166Y-199159543D01*
X142992342Y-199559853D01*
X142250458Y-200300443D01*
X141848458Y-201268567D01*
X141847543Y-202316834D01*
X142247853Y-203285658D01*
X142988443Y-204027542D01*
X143956567Y-204429542D01*
X145004834Y-204430457D01*
X145973658Y-204030147D01*
X146715542Y-203289557D01*
X147117542Y-202321433D01*
X147118457Y-201273166D01*
X147118457Y-206110000D01*
X142050467Y-206110000D01*
X141293564Y-205959442D01*
X140709089Y-205568908D01*
X140318556Y-204984434D01*
X140168000Y-204227532D01*
X140168000Y-201795000D01*
X140168000Y-199295000D01*
X140168000Y-121862467D01*
X140318556Y-121105565D01*
X140709089Y-120521091D01*
X141293564Y-120130557D01*
X142050467Y-119980000D01*
X186720370Y-119980000D01*
X183984185Y-122716185D01*
X183861347Y-122900024D01*
X183463330Y-123165971D01*
X183253000Y-123480751D01*
X183042670Y-123165971D01*
X182556489Y-122841115D01*
X181983000Y-122727041D01*
X181409511Y-122841115D01*
X180923330Y-123165971D01*
X180678088Y-123533000D01*
X178758709Y-123533000D01*
X178733463Y-123402877D01*
X178593673Y-123190073D01*
X178382640Y-123047623D01*
X178133000Y-122997560D01*
X176833000Y-122997560D01*
X176590877Y-123044537D01*
X176378073Y-123184327D01*
X176235623Y-123395360D01*
X176185560Y-123645000D01*
X176185560Y-124945000D01*
X176232537Y-125187123D01*
X176372327Y-125399927D01*
X176583360Y-125542377D01*
X176833000Y-125592440D01*
X176995385Y-125592440D01*
X176819271Y-125665389D01*
X176763590Y-125895984D01*
X177483000Y-126615395D01*
X178202410Y-125895984D01*
X178146729Y-125665389D01*
X177937098Y-125592440D01*
X178133000Y-125592440D01*
X178375123Y-125545463D01*
X178587927Y-125405673D01*
X178730377Y-125194640D01*
X178757979Y-125057000D01*
X180731543Y-125057000D01*
X180910300Y-125324529D01*
X180877277Y-125330937D01*
X180664473Y-125470727D01*
X180522023Y-125681760D01*
X180471960Y-125931400D01*
X180471960Y-127658600D01*
X180518937Y-127900723D01*
X180658727Y-128113527D01*
X180869760Y-128255977D01*
X181119400Y-128306040D01*
X182846600Y-128306040D01*
X183088723Y-128259063D01*
X183301527Y-128119273D01*
X183443977Y-127908240D01*
X183452179Y-127867340D01*
X183463330Y-127884029D01*
X183749589Y-128075301D01*
X183724134Y-130938932D01*
X178780622Y-135121904D01*
X178780622Y-126975922D01*
X178751083Y-126465572D01*
X178612611Y-126131271D01*
X178382016Y-126075590D01*
X177662605Y-126795000D01*
X178382016Y-127514410D01*
X178612611Y-127458729D01*
X178780622Y-126975922D01*
X178780622Y-135121904D01*
X178202410Y-135611160D01*
X178202410Y-127694016D01*
X177483000Y-126974605D01*
X177303395Y-127154210D01*
X177303395Y-126795000D01*
X176583984Y-126075590D01*
X176353389Y-126131271D01*
X176185378Y-126614078D01*
X176214917Y-127124428D01*
X176353389Y-127458729D01*
X176583984Y-127514410D01*
X177303395Y-126795000D01*
X177303395Y-127154210D01*
X176763590Y-127694016D01*
X176819271Y-127924611D01*
X177302078Y-128092622D01*
X177812428Y-128063083D01*
X178146729Y-127924611D01*
X178202410Y-127694016D01*
X178202410Y-135611160D01*
X171261991Y-141483823D01*
X171261991Y-127345000D01*
X171261991Y-122845000D01*
X171155651Y-122310391D01*
X170852819Y-121857172D01*
X170399600Y-121554340D01*
X169864991Y-121448000D01*
X169121009Y-121448000D01*
X168586400Y-121554340D01*
X168133181Y-121857172D01*
X167830349Y-122310391D01*
X167724009Y-122845000D01*
X167830349Y-123379609D01*
X168133181Y-123832828D01*
X168586400Y-124135660D01*
X169121009Y-124242000D01*
X169864991Y-124242000D01*
X170399600Y-124135660D01*
X170852819Y-123832828D01*
X171155651Y-123379609D01*
X171261991Y-122845000D01*
X171261991Y-127345000D01*
X171155651Y-126810391D01*
X170852819Y-126357172D01*
X170399600Y-126054340D01*
X169864991Y-125948000D01*
X169121009Y-125948000D01*
X168586400Y-126054340D01*
X168133181Y-126357172D01*
X167830349Y-126810391D01*
X167724009Y-127345000D01*
X167830349Y-127879609D01*
X168133181Y-128332828D01*
X168586400Y-128635660D01*
X169121009Y-128742000D01*
X169864991Y-128742000D01*
X170399600Y-128635660D01*
X170852819Y-128332828D01*
X171155651Y-127879609D01*
X171261991Y-127345000D01*
X171261991Y-141483823D01*
X171203873Y-141533000D01*
X164761991Y-141533000D01*
X164761991Y-127345000D01*
X164761991Y-122845000D01*
X164655651Y-122310391D01*
X164352819Y-121857172D01*
X163899600Y-121554340D01*
X163364991Y-121448000D01*
X162621009Y-121448000D01*
X162086400Y-121554340D01*
X161633181Y-121857172D01*
X161330349Y-122310391D01*
X161224009Y-122845000D01*
X161330349Y-123379609D01*
X161633181Y-123832828D01*
X162086400Y-124135660D01*
X162621009Y-124242000D01*
X163364991Y-124242000D01*
X163899600Y-124135660D01*
X164352819Y-123832828D01*
X164655651Y-123379609D01*
X164761991Y-122845000D01*
X164761991Y-127345000D01*
X164655651Y-126810391D01*
X164352819Y-126357172D01*
X163899600Y-126054340D01*
X163364991Y-125948000D01*
X162621009Y-125948000D01*
X162086400Y-126054340D01*
X161633181Y-126357172D01*
X161330349Y-126810391D01*
X161224009Y-127345000D01*
X161330349Y-127879609D01*
X161633181Y-128332828D01*
X162086400Y-128635660D01*
X162621009Y-128742000D01*
X163364991Y-128742000D01*
X163899600Y-128635660D01*
X164352819Y-128332828D01*
X164655651Y-127879609D01*
X164761991Y-127345000D01*
X164761991Y-141533000D01*
X153818000Y-141533000D01*
X153818000Y-137722000D01*
X153818000Y-137422000D01*
X153818000Y-137168000D01*
X153818000Y-136868000D01*
X153629718Y-136175443D01*
X153190738Y-135607656D01*
X152567891Y-135251080D01*
X152394805Y-135206805D01*
X152110000Y-135323568D01*
X152110000Y-137168000D01*
X153818000Y-137168000D01*
X153818000Y-137422000D01*
X152110000Y-137422000D01*
X152110000Y-139266432D01*
X152394805Y-139383195D01*
X152567891Y-139338920D01*
X153190738Y-138982344D01*
X153629718Y-138414557D01*
X153818000Y-137722000D01*
X153818000Y-141533000D01*
X151856000Y-141533000D01*
X151856000Y-139266432D01*
X151856000Y-137422000D01*
X151856000Y-137168000D01*
X151856000Y-135323568D01*
X151571195Y-135206805D01*
X151398109Y-135251080D01*
X150775262Y-135607656D01*
X150336282Y-136175443D01*
X150148000Y-136868000D01*
X150148000Y-137168000D01*
X151856000Y-137168000D01*
X151856000Y-137422000D01*
X150148000Y-137422000D01*
X150148000Y-137722000D01*
X150336282Y-138414557D01*
X150775262Y-138982344D01*
X151398109Y-139338920D01*
X151571195Y-139383195D01*
X151856000Y-139266432D01*
X151856000Y-141533000D01*
X148734422Y-141533000D01*
X148678319Y-141250949D01*
X148280541Y-140655632D01*
X147685224Y-140257854D01*
X147118457Y-140145117D01*
X147118457Y-123773166D01*
X146718147Y-122804342D01*
X145977557Y-122062458D01*
X145009433Y-121660458D01*
X143961166Y-121659543D01*
X142992342Y-122059853D01*
X142250458Y-122800443D01*
X141848458Y-123768567D01*
X141847543Y-124816834D01*
X142247853Y-125785658D01*
X142988443Y-126527542D01*
X143956567Y-126929542D01*
X145004834Y-126930457D01*
X145973658Y-126530147D01*
X146715542Y-125789557D01*
X147117542Y-124821433D01*
X147118457Y-123773166D01*
X147118457Y-140145117D01*
X146983000Y-140118173D01*
X146280776Y-140257854D01*
X145685459Y-140655632D01*
X145287681Y-141250949D01*
X145148000Y-141953173D01*
X145148000Y-142636827D01*
X145287681Y-143339051D01*
X145685459Y-143934368D01*
X146280776Y-144332146D01*
X146983000Y-144471827D01*
X147685224Y-144332146D01*
X148280541Y-143934368D01*
X148678319Y-143339051D01*
X148734422Y-143057000D01*
X171483000Y-143057000D01*
X171598316Y-143034061D01*
X171715133Y-143020781D01*
X171743169Y-143005248D01*
X171774605Y-142998996D01*
X171872363Y-142933675D01*
X171975208Y-142876700D01*
X184975208Y-131876701D01*
X184993048Y-131854283D01*
X185017004Y-131838583D01*
X185085057Y-131738667D01*
X185160348Y-131644061D01*
X185168250Y-131616526D01*
X185184376Y-131592851D01*
X185209016Y-131474485D01*
X185242367Y-131358281D01*
X185239131Y-131329820D01*
X185244970Y-131301773D01*
X185273513Y-128090600D01*
X185582670Y-127884029D01*
X185793000Y-127569248D01*
X186003330Y-127884029D01*
X186489511Y-128208885D01*
X187063000Y-128322959D01*
X187636489Y-128208885D01*
X188122670Y-127884029D01*
X188333000Y-127569248D01*
X188543330Y-127884029D01*
X189029511Y-128208885D01*
X189603000Y-128322959D01*
X190176489Y-128208885D01*
X190662670Y-127884029D01*
X190873000Y-127569248D01*
X191083330Y-127884029D01*
X191569511Y-128208885D01*
X192143000Y-128322959D01*
X192716489Y-128208885D01*
X193202670Y-127884029D01*
X193527526Y-127397848D01*
X193641600Y-126824359D01*
X193641600Y-126765641D01*
X193527526Y-126192152D01*
X193202670Y-125705971D01*
X192931839Y-125525007D01*
X193349821Y-125143490D01*
X193597968Y-124614027D01*
X193477469Y-124382000D01*
X192270000Y-124382000D01*
X192270000Y-124402000D01*
X192016000Y-124402000D01*
X192016000Y-124382000D01*
X191996000Y-124382000D01*
X191996000Y-124128000D01*
X192016000Y-124128000D01*
X192016000Y-124108000D01*
X192270000Y-124108000D01*
X192270000Y-124128000D01*
X193477469Y-124128000D01*
X193597968Y-123895973D01*
X193349821Y-123366510D01*
X193010729Y-123057000D01*
X193167369Y-123057000D01*
X193721000Y-123610630D01*
X193721000Y-135979370D01*
X171160955Y-158539414D01*
X153818000Y-158893351D01*
X153818000Y-155222000D01*
X153818000Y-154922000D01*
X153818000Y-154668000D01*
X153818000Y-154368000D01*
X153629718Y-153675443D01*
X153190738Y-153107656D01*
X152567891Y-152751080D01*
X152394805Y-152706805D01*
X152110000Y-152823568D01*
X152110000Y-154668000D01*
X153818000Y-154668000D01*
X153818000Y-154922000D01*
X152110000Y-154922000D01*
X152110000Y-156766432D01*
X152394805Y-156883195D01*
X152567891Y-156838920D01*
X153190738Y-156482344D01*
X153629718Y-155914557D01*
X153818000Y-155222000D01*
X153818000Y-158893351D01*
X151856000Y-158933392D01*
X151856000Y-156766432D01*
X151856000Y-154922000D01*
X151856000Y-154668000D01*
X151856000Y-152823568D01*
X151571195Y-152706805D01*
X151398109Y-152751080D01*
X150775262Y-153107656D01*
X150336282Y-153675443D01*
X150148000Y-154368000D01*
X150148000Y-154668000D01*
X151856000Y-154668000D01*
X151856000Y-154922000D01*
X150148000Y-154922000D01*
X150148000Y-155222000D01*
X150336282Y-155914557D01*
X150775262Y-156482344D01*
X151398109Y-156838920D01*
X151571195Y-156883195D01*
X151856000Y-156766432D01*
X151856000Y-158933392D01*
X148727310Y-158997243D01*
X148678319Y-158750949D01*
X148280541Y-158155632D01*
X147685224Y-157757854D01*
X146983000Y-157618173D01*
X146280776Y-157757854D01*
X145685459Y-158155632D01*
X145287681Y-158750949D01*
X145148000Y-159453173D01*
X145148000Y-160136827D01*
X145287681Y-160839051D01*
X145685459Y-161434368D01*
X146280776Y-161832146D01*
X146983000Y-161971827D01*
X147685224Y-161832146D01*
X148280541Y-161434368D01*
X148678319Y-160839051D01*
X148741529Y-160521269D01*
X171498548Y-160056841D01*
X171636312Y-160026503D01*
X171774604Y-159998996D01*
X171781180Y-159994601D01*
X171788909Y-159992900D01*
X171904579Y-159912149D01*
X172021815Y-159833815D01*
X194721000Y-137134630D01*
X194721000Y-152979369D01*
X171167369Y-176533000D01*
X153818000Y-176533000D01*
X153818000Y-172722000D01*
X153818000Y-172422000D01*
X153818000Y-172168000D01*
X153818000Y-171868000D01*
X153629718Y-171175443D01*
X153190738Y-170607656D01*
X152567891Y-170251080D01*
X152394805Y-170206805D01*
X152110000Y-170323568D01*
X152110000Y-172168000D01*
X153818000Y-172168000D01*
X153818000Y-172422000D01*
X152110000Y-172422000D01*
X152110000Y-174266432D01*
X152394805Y-174383195D01*
X152567891Y-174338920D01*
X153190738Y-173982344D01*
X153629718Y-173414557D01*
X153818000Y-172722000D01*
X153818000Y-176533000D01*
X151856000Y-176533000D01*
X151856000Y-174266432D01*
X151856000Y-172422000D01*
X151856000Y-172168000D01*
X151856000Y-170323568D01*
X151571195Y-170206805D01*
X151398109Y-170251080D01*
X150775262Y-170607656D01*
X150336282Y-171175443D01*
X150148000Y-171868000D01*
X150148000Y-172168000D01*
X151856000Y-172168000D01*
X151856000Y-172422000D01*
X150148000Y-172422000D01*
X150148000Y-172722000D01*
X150336282Y-173414557D01*
X150775262Y-173982344D01*
X151398109Y-174338920D01*
X151571195Y-174383195D01*
X151856000Y-174266432D01*
X151856000Y-176533000D01*
X148734422Y-176533000D01*
X148678319Y-176250949D01*
X148280541Y-175655632D01*
X147685224Y-175257854D01*
X146983000Y-175118173D01*
X146280776Y-175257854D01*
X145685459Y-175655632D01*
X145287681Y-176250949D01*
X145148000Y-176953173D01*
X145148000Y-177636827D01*
X145287681Y-178339051D01*
X145685459Y-178934368D01*
X146280776Y-179332146D01*
X146983000Y-179471827D01*
X147685224Y-179332146D01*
X148280541Y-178934368D01*
X148678319Y-178339051D01*
X148734422Y-178057000D01*
X171483000Y-178057000D01*
X171483000Y-178056999D01*
X171774604Y-177998996D01*
X171774605Y-177998996D01*
X172021815Y-177833815D01*
X195721000Y-154134630D01*
X195721000Y-168979370D01*
X171160955Y-193539414D01*
X153818000Y-193893351D01*
X153818000Y-190222000D01*
X153818000Y-189922000D01*
X153818000Y-189668000D01*
X153818000Y-189368000D01*
X153629718Y-188675443D01*
X153190738Y-188107656D01*
X152567891Y-187751080D01*
X152394805Y-187706805D01*
X152110000Y-187823568D01*
X152110000Y-189668000D01*
X153818000Y-189668000D01*
X153818000Y-189922000D01*
X152110000Y-189922000D01*
X152110000Y-191766432D01*
X152394805Y-191883195D01*
X152567891Y-191838920D01*
X153190738Y-191482344D01*
X153629718Y-190914557D01*
X153818000Y-190222000D01*
X153818000Y-193893351D01*
X151856000Y-193933392D01*
X151856000Y-191766432D01*
X151856000Y-189922000D01*
X151856000Y-189668000D01*
X151856000Y-187823568D01*
X151571195Y-187706805D01*
X151398109Y-187751080D01*
X150775262Y-188107656D01*
X150336282Y-188675443D01*
X150148000Y-189368000D01*
X150148000Y-189668000D01*
X151856000Y-189668000D01*
X151856000Y-189922000D01*
X150148000Y-189922000D01*
X150148000Y-190222000D01*
X150336282Y-190914557D01*
X150775262Y-191482344D01*
X151398109Y-191838920D01*
X151571195Y-191883195D01*
X151856000Y-191766432D01*
X151856000Y-193933392D01*
X148727310Y-193997243D01*
X148678319Y-193750949D01*
X148280541Y-193155632D01*
X147685224Y-192757854D01*
X146983000Y-192618173D01*
X146280776Y-192757854D01*
X145685459Y-193155632D01*
X145287681Y-193750949D01*
X145148000Y-194453173D01*
X145148000Y-195136827D01*
X145287681Y-195839051D01*
X145685459Y-196434368D01*
X146280776Y-196832146D01*
X146983000Y-196971827D01*
X147685224Y-196832146D01*
X148280541Y-196434368D01*
X148678319Y-195839051D01*
X148741529Y-195521269D01*
X171498548Y-195056841D01*
X171636312Y-195026503D01*
X171774604Y-194998996D01*
X171781180Y-194994601D01*
X171788909Y-194992900D01*
X171904579Y-194912149D01*
X172021815Y-194833815D01*
X197021815Y-169833815D01*
X197186996Y-169586605D01*
X197244999Y-169295000D01*
X197245000Y-169295000D01*
X197245000Y-121295000D01*
X197186997Y-121003396D01*
X197186996Y-121003395D01*
X197021816Y-120756185D01*
X196245630Y-119980000D01*
X231915532Y-119980000D01*
X232672434Y-120130556D01*
X233256908Y-120521089D01*
X233647442Y-121105564D01*
X233798000Y-121862467D01*
X233798000Y-199295000D01*
X233798000Y-201795000D01*
X233798000Y-204227532D01*
X233798000Y-204227532D01*
G37*
X233798000Y-204227532D02*
X233647442Y-204984435D01*
X233256908Y-205568910D01*
X232672434Y-205959443D01*
X232118457Y-206069635D01*
X232118457Y-201273166D01*
X232118457Y-123773166D01*
X231718147Y-122804342D01*
X230977557Y-122062458D01*
X230009433Y-121660458D01*
X228961166Y-121659543D01*
X227992342Y-122059853D01*
X227250458Y-122800443D01*
X226848458Y-123768567D01*
X226847543Y-124816834D01*
X227247853Y-125785658D01*
X227988443Y-126527542D01*
X228956567Y-126929542D01*
X230004834Y-126930457D01*
X230973658Y-126530147D01*
X231715542Y-125789557D01*
X232117542Y-124821433D01*
X232118457Y-123773166D01*
X232118457Y-201273166D01*
X231718147Y-200304342D01*
X230977557Y-199562458D01*
X230009433Y-199160458D01*
X228961166Y-199159543D01*
X228818000Y-199218697D01*
X228818000Y-195136827D01*
X228818000Y-194453173D01*
X228818000Y-177636827D01*
X228818000Y-176953173D01*
X228818000Y-160136827D01*
X228818000Y-159453173D01*
X228818000Y-142636827D01*
X228818000Y-141953173D01*
X228678319Y-141250949D01*
X228280541Y-140655632D01*
X227685224Y-140257854D01*
X226983000Y-140118173D01*
X226280776Y-140257854D01*
X225685459Y-140655632D01*
X225287681Y-141250949D01*
X225148000Y-141953173D01*
X225148000Y-142636827D01*
X225287681Y-143339051D01*
X225685459Y-143934368D01*
X226280776Y-144332146D01*
X226983000Y-144471827D01*
X227685224Y-144332146D01*
X228280541Y-143934368D01*
X228678319Y-143339051D01*
X228818000Y-142636827D01*
X228818000Y-159453173D01*
X228678319Y-158750949D01*
X228280541Y-158155632D01*
X227685224Y-157757854D01*
X226983000Y-157618173D01*
X226280776Y-157757854D01*
X225685459Y-158155632D01*
X225287681Y-158750949D01*
X225148000Y-159453173D01*
X225148000Y-160136827D01*
X225287681Y-160839051D01*
X225685459Y-161434368D01*
X226280776Y-161832146D01*
X226983000Y-161971827D01*
X227685224Y-161832146D01*
X228280541Y-161434368D01*
X228678319Y-160839051D01*
X228818000Y-160136827D01*
X228818000Y-176953173D01*
X228678319Y-176250949D01*
X228280541Y-175655632D01*
X227685224Y-175257854D01*
X226983000Y-175118173D01*
X226280776Y-175257854D01*
X225685459Y-175655632D01*
X225287681Y-176250949D01*
X225148000Y-176953173D01*
X225148000Y-177636827D01*
X225287681Y-178339051D01*
X225685459Y-178934368D01*
X226280776Y-179332146D01*
X226983000Y-179471827D01*
X227685224Y-179332146D01*
X228280541Y-178934368D01*
X228678319Y-178339051D01*
X228818000Y-177636827D01*
X228818000Y-194453173D01*
X228678319Y-193750949D01*
X228280541Y-193155632D01*
X227685224Y-192757854D01*
X226983000Y-192618173D01*
X226280776Y-192757854D01*
X225685459Y-193155632D01*
X225287681Y-193750949D01*
X225148000Y-194453173D01*
X225148000Y-195136827D01*
X225287681Y-195839051D01*
X225685459Y-196434368D01*
X226280776Y-196832146D01*
X226983000Y-196971827D01*
X227685224Y-196832146D01*
X228280541Y-196434368D01*
X228678319Y-195839051D01*
X228818000Y-195136827D01*
X228818000Y-199218697D01*
X227992342Y-199559853D01*
X227250458Y-200300443D01*
X226848458Y-201268567D01*
X226847543Y-202316834D01*
X227247853Y-203285658D01*
X227988443Y-204027542D01*
X228956567Y-204429542D01*
X230004834Y-204430457D01*
X230973658Y-204030147D01*
X231715542Y-203289557D01*
X232117542Y-202321433D01*
X232118457Y-201273166D01*
X232118457Y-206069635D01*
X231915532Y-206110000D01*
X223818000Y-206110000D01*
X223818000Y-190136827D01*
X223818000Y-189453173D01*
X223678319Y-188750949D01*
X223280541Y-188155632D01*
X222745000Y-187797795D01*
X222745000Y-174292204D01*
X223280541Y-173934368D01*
X223678319Y-173339051D01*
X223818000Y-172636827D01*
X223818000Y-171953173D01*
X223678319Y-171250949D01*
X223280541Y-170655632D01*
X222745000Y-170297795D01*
X222745000Y-156792204D01*
X223280541Y-156434368D01*
X223678319Y-155839051D01*
X223818000Y-155136827D01*
X223818000Y-154453173D01*
X223678319Y-153750949D01*
X223280541Y-153155632D01*
X222745000Y-152797795D01*
X222745000Y-139292204D01*
X223280541Y-138934368D01*
X223678319Y-138339051D01*
X223818000Y-137636827D01*
X223818000Y-136953173D01*
X223678319Y-136250949D01*
X223280541Y-135655632D01*
X222685224Y-135257854D01*
X221983000Y-135118173D01*
X221280776Y-135257854D01*
X220685459Y-135655632D01*
X220287681Y-136250949D01*
X220148000Y-136953173D01*
X220148000Y-137636827D01*
X220287681Y-138339051D01*
X220685459Y-138934368D01*
X221221000Y-139292204D01*
X221221000Y-152797795D01*
X220685459Y-153155632D01*
X220287681Y-153750949D01*
X220148000Y-154453173D01*
X220148000Y-155136827D01*
X220287681Y-155839051D01*
X220685459Y-156434368D01*
X221221000Y-156792204D01*
X221221000Y-170297795D01*
X220685459Y-170655632D01*
X220287681Y-171250949D01*
X220148000Y-171953173D01*
X220148000Y-172636827D01*
X220287681Y-173339051D01*
X220685459Y-173934368D01*
X221221000Y-174292204D01*
X221221000Y-187797795D01*
X220685459Y-188155632D01*
X220287681Y-188750949D01*
X220148000Y-189453173D01*
X220148000Y-190136827D01*
X220287681Y-190839051D01*
X220685459Y-191434368D01*
X221280776Y-191832146D01*
X221983000Y-191971827D01*
X222685224Y-191832146D01*
X223280541Y-191434368D01*
X223678319Y-190839051D01*
X223818000Y-190136827D01*
X223818000Y-206110000D01*
X211901991Y-206110000D01*
X211901991Y-127345000D01*
X211901991Y-122845000D01*
X211795651Y-122310391D01*
X211492819Y-121857172D01*
X211039600Y-121554340D01*
X210504991Y-121448000D01*
X209761009Y-121448000D01*
X209226400Y-121554340D01*
X208773181Y-121857172D01*
X208470349Y-122310391D01*
X208364009Y-122845000D01*
X208470349Y-123379609D01*
X208773181Y-123832828D01*
X209226400Y-124135660D01*
X209761009Y-124242000D01*
X210504991Y-124242000D01*
X211039600Y-124135660D01*
X211492819Y-123832828D01*
X211795651Y-123379609D01*
X211901991Y-122845000D01*
X211901991Y-127345000D01*
X211795651Y-126810391D01*
X211492819Y-126357172D01*
X211039600Y-126054340D01*
X210504991Y-125948000D01*
X209761009Y-125948000D01*
X209226400Y-126054340D01*
X208773181Y-126357172D01*
X208470349Y-126810391D01*
X208364009Y-127345000D01*
X208470349Y-127879609D01*
X208773181Y-128332828D01*
X209226400Y-128635660D01*
X209761009Y-128742000D01*
X210504991Y-128742000D01*
X211039600Y-128635660D01*
X211492819Y-128332828D01*
X211795651Y-127879609D01*
X211901991Y-127345000D01*
X211901991Y-206110000D01*
X205401991Y-206110000D01*
X205401991Y-127345000D01*
X205401991Y-122845000D01*
X205295651Y-122310391D01*
X204992819Y-121857172D01*
X204539600Y-121554340D01*
X204004991Y-121448000D01*
X203261009Y-121448000D01*
X202726400Y-121554340D01*
X202273181Y-121857172D01*
X201970349Y-122310391D01*
X201864009Y-122845000D01*
X201970349Y-123379609D01*
X202273181Y-123832828D01*
X202726400Y-124135660D01*
X203261009Y-124242000D01*
X204004991Y-124242000D01*
X204539600Y-124135660D01*
X204992819Y-123832828D01*
X205295651Y-123379609D01*
X205401991Y-122845000D01*
X205401991Y-127345000D01*
X205295651Y-126810391D01*
X204992819Y-126357172D01*
X204539600Y-126054340D01*
X204004991Y-125948000D01*
X203261009Y-125948000D01*
X202726400Y-126054340D01*
X202273181Y-126357172D01*
X201970349Y-126810391D01*
X201864009Y-127345000D01*
X201970349Y-127879609D01*
X202273181Y-128332828D01*
X202726400Y-128635660D01*
X203261009Y-128742000D01*
X204004991Y-128742000D01*
X204539600Y-128635660D01*
X204992819Y-128332828D01*
X205295651Y-127879609D01*
X205401991Y-127345000D01*
X205401991Y-206110000D01*
X147118457Y-206110000D01*
X147118457Y-201273166D01*
X146718147Y-200304342D01*
X145977557Y-199562458D01*
X145009433Y-199160458D01*
X143961166Y-199159543D01*
X142992342Y-199559853D01*
X142250458Y-200300443D01*
X141848458Y-201268567D01*
X141847543Y-202316834D01*
X142247853Y-203285658D01*
X142988443Y-204027542D01*
X143956567Y-204429542D01*
X145004834Y-204430457D01*
X145973658Y-204030147D01*
X146715542Y-203289557D01*
X147117542Y-202321433D01*
X147118457Y-201273166D01*
X147118457Y-206110000D01*
X142050467Y-206110000D01*
X141293564Y-205959442D01*
X140709089Y-205568908D01*
X140318556Y-204984434D01*
X140168000Y-204227532D01*
X140168000Y-201795000D01*
X140168000Y-199295000D01*
X140168000Y-121862467D01*
X140318556Y-121105565D01*
X140709089Y-120521091D01*
X141293564Y-120130557D01*
X142050467Y-119980000D01*
X186720370Y-119980000D01*
X183984185Y-122716185D01*
X183861347Y-122900024D01*
X183463330Y-123165971D01*
X183253000Y-123480751D01*
X183042670Y-123165971D01*
X182556489Y-122841115D01*
X181983000Y-122727041D01*
X181409511Y-122841115D01*
X180923330Y-123165971D01*
X180678088Y-123533000D01*
X178758709Y-123533000D01*
X178733463Y-123402877D01*
X178593673Y-123190073D01*
X178382640Y-123047623D01*
X178133000Y-122997560D01*
X176833000Y-122997560D01*
X176590877Y-123044537D01*
X176378073Y-123184327D01*
X176235623Y-123395360D01*
X176185560Y-123645000D01*
X176185560Y-124945000D01*
X176232537Y-125187123D01*
X176372327Y-125399927D01*
X176583360Y-125542377D01*
X176833000Y-125592440D01*
X176995385Y-125592440D01*
X176819271Y-125665389D01*
X176763590Y-125895984D01*
X177483000Y-126615395D01*
X178202410Y-125895984D01*
X178146729Y-125665389D01*
X177937098Y-125592440D01*
X178133000Y-125592440D01*
X178375123Y-125545463D01*
X178587927Y-125405673D01*
X178730377Y-125194640D01*
X178757979Y-125057000D01*
X180731543Y-125057000D01*
X180910300Y-125324529D01*
X180877277Y-125330937D01*
X180664473Y-125470727D01*
X180522023Y-125681760D01*
X180471960Y-125931400D01*
X180471960Y-127658600D01*
X180518937Y-127900723D01*
X180658727Y-128113527D01*
X180869760Y-128255977D01*
X181119400Y-128306040D01*
X182846600Y-128306040D01*
X183088723Y-128259063D01*
X183301527Y-128119273D01*
X183443977Y-127908240D01*
X183452179Y-127867340D01*
X183463330Y-127884029D01*
X183749589Y-128075301D01*
X183724134Y-130938932D01*
X178780622Y-135121904D01*
X178780622Y-126975922D01*
X178751083Y-126465572D01*
X178612611Y-126131271D01*
X178382016Y-126075590D01*
X177662605Y-126795000D01*
X178382016Y-127514410D01*
X178612611Y-127458729D01*
X178780622Y-126975922D01*
X178780622Y-135121904D01*
X178202410Y-135611160D01*
X178202410Y-127694016D01*
X177483000Y-126974605D01*
X177303395Y-127154210D01*
X177303395Y-126795000D01*
X176583984Y-126075590D01*
X176353389Y-126131271D01*
X176185378Y-126614078D01*
X176214917Y-127124428D01*
X176353389Y-127458729D01*
X176583984Y-127514410D01*
X177303395Y-126795000D01*
X177303395Y-127154210D01*
X176763590Y-127694016D01*
X176819271Y-127924611D01*
X177302078Y-128092622D01*
X177812428Y-128063083D01*
X178146729Y-127924611D01*
X178202410Y-127694016D01*
X178202410Y-135611160D01*
X171261991Y-141483823D01*
X171261991Y-127345000D01*
X171261991Y-122845000D01*
X171155651Y-122310391D01*
X170852819Y-121857172D01*
X170399600Y-121554340D01*
X169864991Y-121448000D01*
X169121009Y-121448000D01*
X168586400Y-121554340D01*
X168133181Y-121857172D01*
X167830349Y-122310391D01*
X167724009Y-122845000D01*
X167830349Y-123379609D01*
X168133181Y-123832828D01*
X168586400Y-124135660D01*
X169121009Y-124242000D01*
X169864991Y-124242000D01*
X170399600Y-124135660D01*
X170852819Y-123832828D01*
X171155651Y-123379609D01*
X171261991Y-122845000D01*
X171261991Y-127345000D01*
X171155651Y-126810391D01*
X170852819Y-126357172D01*
X170399600Y-126054340D01*
X169864991Y-125948000D01*
X169121009Y-125948000D01*
X168586400Y-126054340D01*
X168133181Y-126357172D01*
X167830349Y-126810391D01*
X167724009Y-127345000D01*
X167830349Y-127879609D01*
X168133181Y-128332828D01*
X168586400Y-128635660D01*
X169121009Y-128742000D01*
X169864991Y-128742000D01*
X170399600Y-128635660D01*
X170852819Y-128332828D01*
X171155651Y-127879609D01*
X171261991Y-127345000D01*
X171261991Y-141483823D01*
X171203873Y-141533000D01*
X164761991Y-141533000D01*
X164761991Y-127345000D01*
X164761991Y-122845000D01*
X164655651Y-122310391D01*
X164352819Y-121857172D01*
X163899600Y-121554340D01*
X163364991Y-121448000D01*
X162621009Y-121448000D01*
X162086400Y-121554340D01*
X161633181Y-121857172D01*
X161330349Y-122310391D01*
X161224009Y-122845000D01*
X161330349Y-123379609D01*
X161633181Y-123832828D01*
X162086400Y-124135660D01*
X162621009Y-124242000D01*
X163364991Y-124242000D01*
X163899600Y-124135660D01*
X164352819Y-123832828D01*
X164655651Y-123379609D01*
X164761991Y-122845000D01*
X164761991Y-127345000D01*
X164655651Y-126810391D01*
X164352819Y-126357172D01*
X163899600Y-126054340D01*
X163364991Y-125948000D01*
X162621009Y-125948000D01*
X162086400Y-126054340D01*
X161633181Y-126357172D01*
X161330349Y-126810391D01*
X161224009Y-127345000D01*
X161330349Y-127879609D01*
X161633181Y-128332828D01*
X162086400Y-128635660D01*
X162621009Y-128742000D01*
X163364991Y-128742000D01*
X163899600Y-128635660D01*
X164352819Y-128332828D01*
X164655651Y-127879609D01*
X164761991Y-127345000D01*
X164761991Y-141533000D01*
X153818000Y-141533000D01*
X153818000Y-137722000D01*
X153818000Y-137422000D01*
X153818000Y-137168000D01*
X153818000Y-136868000D01*
X153629718Y-136175443D01*
X153190738Y-135607656D01*
X152567891Y-135251080D01*
X152394805Y-135206805D01*
X152110000Y-135323568D01*
X152110000Y-137168000D01*
X153818000Y-137168000D01*
X153818000Y-137422000D01*
X152110000Y-137422000D01*
X152110000Y-139266432D01*
X152394805Y-139383195D01*
X152567891Y-139338920D01*
X153190738Y-138982344D01*
X153629718Y-138414557D01*
X153818000Y-137722000D01*
X153818000Y-141533000D01*
X151856000Y-141533000D01*
X151856000Y-139266432D01*
X151856000Y-137422000D01*
X151856000Y-137168000D01*
X151856000Y-135323568D01*
X151571195Y-135206805D01*
X151398109Y-135251080D01*
X150775262Y-135607656D01*
X150336282Y-136175443D01*
X150148000Y-136868000D01*
X150148000Y-137168000D01*
X151856000Y-137168000D01*
X151856000Y-137422000D01*
X150148000Y-137422000D01*
X150148000Y-137722000D01*
X150336282Y-138414557D01*
X150775262Y-138982344D01*
X151398109Y-139338920D01*
X151571195Y-139383195D01*
X151856000Y-139266432D01*
X151856000Y-141533000D01*
X148734422Y-141533000D01*
X148678319Y-141250949D01*
X148280541Y-140655632D01*
X147685224Y-140257854D01*
X147118457Y-140145117D01*
X147118457Y-123773166D01*
X146718147Y-122804342D01*
X145977557Y-122062458D01*
X145009433Y-121660458D01*
X143961166Y-121659543D01*
X142992342Y-122059853D01*
X142250458Y-122800443D01*
X141848458Y-123768567D01*
X141847543Y-124816834D01*
X142247853Y-125785658D01*
X142988443Y-126527542D01*
X143956567Y-126929542D01*
X145004834Y-126930457D01*
X145973658Y-126530147D01*
X146715542Y-125789557D01*
X147117542Y-124821433D01*
X147118457Y-123773166D01*
X147118457Y-140145117D01*
X146983000Y-140118173D01*
X146280776Y-140257854D01*
X145685459Y-140655632D01*
X145287681Y-141250949D01*
X145148000Y-141953173D01*
X145148000Y-142636827D01*
X145287681Y-143339051D01*
X145685459Y-143934368D01*
X146280776Y-144332146D01*
X146983000Y-144471827D01*
X147685224Y-144332146D01*
X148280541Y-143934368D01*
X148678319Y-143339051D01*
X148734422Y-143057000D01*
X171483000Y-143057000D01*
X171598316Y-143034061D01*
X171715133Y-143020781D01*
X171743169Y-143005248D01*
X171774605Y-142998996D01*
X171872363Y-142933675D01*
X171975208Y-142876700D01*
X184975208Y-131876701D01*
X184993048Y-131854283D01*
X185017004Y-131838583D01*
X185085057Y-131738667D01*
X185160348Y-131644061D01*
X185168250Y-131616526D01*
X185184376Y-131592851D01*
X185209016Y-131474485D01*
X185242367Y-131358281D01*
X185239131Y-131329820D01*
X185244970Y-131301773D01*
X185273513Y-128090600D01*
X185582670Y-127884029D01*
X185793000Y-127569248D01*
X186003330Y-127884029D01*
X186489511Y-128208885D01*
X187063000Y-128322959D01*
X187636489Y-128208885D01*
X188122670Y-127884029D01*
X188333000Y-127569248D01*
X188543330Y-127884029D01*
X189029511Y-128208885D01*
X189603000Y-128322959D01*
X190176489Y-128208885D01*
X190662670Y-127884029D01*
X190873000Y-127569248D01*
X191083330Y-127884029D01*
X191569511Y-128208885D01*
X192143000Y-128322959D01*
X192716489Y-128208885D01*
X193202670Y-127884029D01*
X193527526Y-127397848D01*
X193641600Y-126824359D01*
X193641600Y-126765641D01*
X193527526Y-126192152D01*
X193202670Y-125705971D01*
X192931839Y-125525007D01*
X193349821Y-125143490D01*
X193597968Y-124614027D01*
X193477469Y-124382000D01*
X192270000Y-124382000D01*
X192270000Y-124402000D01*
X192016000Y-124402000D01*
X192016000Y-124382000D01*
X191996000Y-124382000D01*
X191996000Y-124128000D01*
X192016000Y-124128000D01*
X192016000Y-124108000D01*
X192270000Y-124108000D01*
X192270000Y-124128000D01*
X193477469Y-124128000D01*
X193597968Y-123895973D01*
X193349821Y-123366510D01*
X193010729Y-123057000D01*
X193167369Y-123057000D01*
X193721000Y-123610630D01*
X193721000Y-135979370D01*
X171160955Y-158539414D01*
X153818000Y-158893351D01*
X153818000Y-155222000D01*
X153818000Y-154922000D01*
X153818000Y-154668000D01*
X153818000Y-154368000D01*
X153629718Y-153675443D01*
X153190738Y-153107656D01*
X152567891Y-152751080D01*
X152394805Y-152706805D01*
X152110000Y-152823568D01*
X152110000Y-154668000D01*
X153818000Y-154668000D01*
X153818000Y-154922000D01*
X152110000Y-154922000D01*
X152110000Y-156766432D01*
X152394805Y-156883195D01*
X152567891Y-156838920D01*
X153190738Y-156482344D01*
X153629718Y-155914557D01*
X153818000Y-155222000D01*
X153818000Y-158893351D01*
X151856000Y-158933392D01*
X151856000Y-156766432D01*
X151856000Y-154922000D01*
X151856000Y-154668000D01*
X151856000Y-152823568D01*
X151571195Y-152706805D01*
X151398109Y-152751080D01*
X150775262Y-153107656D01*
X150336282Y-153675443D01*
X150148000Y-154368000D01*
X150148000Y-154668000D01*
X151856000Y-154668000D01*
X151856000Y-154922000D01*
X150148000Y-154922000D01*
X150148000Y-155222000D01*
X150336282Y-155914557D01*
X150775262Y-156482344D01*
X151398109Y-156838920D01*
X151571195Y-156883195D01*
X151856000Y-156766432D01*
X151856000Y-158933392D01*
X148727310Y-158997243D01*
X148678319Y-158750949D01*
X148280541Y-158155632D01*
X147685224Y-157757854D01*
X146983000Y-157618173D01*
X146280776Y-157757854D01*
X145685459Y-158155632D01*
X145287681Y-158750949D01*
X145148000Y-159453173D01*
X145148000Y-160136827D01*
X145287681Y-160839051D01*
X145685459Y-161434368D01*
X146280776Y-161832146D01*
X146983000Y-161971827D01*
X147685224Y-161832146D01*
X148280541Y-161434368D01*
X148678319Y-160839051D01*
X148741529Y-160521269D01*
X171498548Y-160056841D01*
X171636312Y-160026503D01*
X171774604Y-159998996D01*
X171781180Y-159994601D01*
X171788909Y-159992900D01*
X171904579Y-159912149D01*
X172021815Y-159833815D01*
X194721000Y-137134630D01*
X194721000Y-152979369D01*
X171167369Y-176533000D01*
X153818000Y-176533000D01*
X153818000Y-172722000D01*
X153818000Y-172422000D01*
X153818000Y-172168000D01*
X153818000Y-171868000D01*
X153629718Y-171175443D01*
X153190738Y-170607656D01*
X152567891Y-170251080D01*
X152394805Y-170206805D01*
X152110000Y-170323568D01*
X152110000Y-172168000D01*
X153818000Y-172168000D01*
X153818000Y-172422000D01*
X152110000Y-172422000D01*
X152110000Y-174266432D01*
X152394805Y-174383195D01*
X152567891Y-174338920D01*
X153190738Y-173982344D01*
X153629718Y-173414557D01*
X153818000Y-172722000D01*
X153818000Y-176533000D01*
X151856000Y-176533000D01*
X151856000Y-174266432D01*
X151856000Y-172422000D01*
X151856000Y-172168000D01*
X151856000Y-170323568D01*
X151571195Y-170206805D01*
X151398109Y-170251080D01*
X150775262Y-170607656D01*
X150336282Y-171175443D01*
X150148000Y-171868000D01*
X150148000Y-172168000D01*
X151856000Y-172168000D01*
X151856000Y-172422000D01*
X150148000Y-172422000D01*
X150148000Y-172722000D01*
X150336282Y-173414557D01*
X150775262Y-173982344D01*
X151398109Y-174338920D01*
X151571195Y-174383195D01*
X151856000Y-174266432D01*
X151856000Y-176533000D01*
X148734422Y-176533000D01*
X148678319Y-176250949D01*
X148280541Y-175655632D01*
X147685224Y-175257854D01*
X146983000Y-175118173D01*
X146280776Y-175257854D01*
X145685459Y-175655632D01*
X145287681Y-176250949D01*
X145148000Y-176953173D01*
X145148000Y-177636827D01*
X145287681Y-178339051D01*
X145685459Y-178934368D01*
X146280776Y-179332146D01*
X146983000Y-179471827D01*
X147685224Y-179332146D01*
X148280541Y-178934368D01*
X148678319Y-178339051D01*
X148734422Y-178057000D01*
X171483000Y-178057000D01*
X171483000Y-178056999D01*
X171774604Y-177998996D01*
X171774605Y-177998996D01*
X172021815Y-177833815D01*
X195721000Y-154134630D01*
X195721000Y-168979370D01*
X171160955Y-193539414D01*
X153818000Y-193893351D01*
X153818000Y-190222000D01*
X153818000Y-189922000D01*
X153818000Y-189668000D01*
X153818000Y-189368000D01*
X153629718Y-188675443D01*
X153190738Y-188107656D01*
X152567891Y-187751080D01*
X152394805Y-187706805D01*
X152110000Y-187823568D01*
X152110000Y-189668000D01*
X153818000Y-189668000D01*
X153818000Y-189922000D01*
X152110000Y-189922000D01*
X152110000Y-191766432D01*
X152394805Y-191883195D01*
X152567891Y-191838920D01*
X153190738Y-191482344D01*
X153629718Y-190914557D01*
X153818000Y-190222000D01*
X153818000Y-193893351D01*
X151856000Y-193933392D01*
X151856000Y-191766432D01*
X151856000Y-189922000D01*
X151856000Y-189668000D01*
X151856000Y-187823568D01*
X151571195Y-187706805D01*
X151398109Y-187751080D01*
X150775262Y-188107656D01*
X150336282Y-188675443D01*
X150148000Y-189368000D01*
X150148000Y-189668000D01*
X151856000Y-189668000D01*
X151856000Y-189922000D01*
X150148000Y-189922000D01*
X150148000Y-190222000D01*
X150336282Y-190914557D01*
X150775262Y-191482344D01*
X151398109Y-191838920D01*
X151571195Y-191883195D01*
X151856000Y-191766432D01*
X151856000Y-193933392D01*
X148727310Y-193997243D01*
X148678319Y-193750949D01*
X148280541Y-193155632D01*
X147685224Y-192757854D01*
X146983000Y-192618173D01*
X146280776Y-192757854D01*
X145685459Y-193155632D01*
X145287681Y-193750949D01*
X145148000Y-194453173D01*
X145148000Y-195136827D01*
X145287681Y-195839051D01*
X145685459Y-196434368D01*
X146280776Y-196832146D01*
X146983000Y-196971827D01*
X147685224Y-196832146D01*
X148280541Y-196434368D01*
X148678319Y-195839051D01*
X148741529Y-195521269D01*
X171498548Y-195056841D01*
X171636312Y-195026503D01*
X171774604Y-194998996D01*
X171781180Y-194994601D01*
X171788909Y-194992900D01*
X171904579Y-194912149D01*
X172021815Y-194833815D01*
X197021815Y-169833815D01*
X197186996Y-169586605D01*
X197244999Y-169295000D01*
X197245000Y-169295000D01*
X197245000Y-121295000D01*
X197186997Y-121003396D01*
X197186996Y-121003395D01*
X197021816Y-120756185D01*
X196245630Y-119980000D01*
X231915532Y-119980000D01*
X232672434Y-120130556D01*
X233256908Y-120521089D01*
X233647442Y-121105564D01*
X233798000Y-121862467D01*
X233798000Y-199295000D01*
X233798000Y-201795000D01*
X233798000Y-204227532D01*
M02*
