G04 #@! TF.FileFunction,Soldermask,Top*
%FSLAX46Y46*%
G04 Gerber Fmt 4.6, Leading zero omitted, Abs format (unit mm)*
G04 Created by KiCad (PCBNEW (2015-01-16 BZR 5376)-product) date 24/06/2015 09:06:33*
%MOMM*%
G01*
G04 APERTURE LIST*
%ADD10C,0.100000*%
%ADD11C,2.000000*%
%ADD12C,0.300000*%
%ADD13O,2.200000X1.524000*%
%ADD14R,1.300000X1.300000*%
%ADD15C,1.300000*%
%ADD16O,2.400000X3.000000*%
%ADD17R,1.727200X1.727200*%
%ADD18O,1.727200X1.727200*%
%ADD19C,4.000000*%
G04 APERTURE END LIST*
D10*
D11*
X134493000Y-43815000D02*
X177546000Y-43815000D01*
X87693500Y-43815000D02*
X131000500Y-43815000D01*
X91249500Y-133667500D02*
X173672500Y-133667500D01*
X181165500Y-47625000D02*
X181165500Y-130048000D01*
X83820000Y-47625000D02*
X83820000Y-129921000D01*
X83820000Y-129857500D02*
G75*
G03X87630000Y-133667500I3810000J0D01*
G01*
X181165500Y-47625000D02*
G75*
G03X177355500Y-43815000I-3810000J0D01*
G01*
X177355500Y-133667500D02*
G75*
G03X181165500Y-129857500I0J3810000D01*
G01*
X87630000Y-43815000D02*
G75*
G03X83820000Y-47625000I0J-3810000D01*
G01*
D10*
X180000000Y-125000000D02*
X180000000Y-127500000D01*
D12*
X174625000Y-132842000D03*
X175133000Y-132842000D03*
X175514000Y-132842000D03*
X175895000Y-132842000D03*
X176403000Y-132842000D03*
X90297000Y-132842000D03*
X89916000Y-132842000D03*
X89535000Y-132842000D03*
X89154000Y-132842000D03*
X88646000Y-132842000D03*
D13*
X155650000Y-48550000D03*
X155650000Y-53050000D03*
X149150000Y-48550000D03*
X149150000Y-53050000D03*
X115010000Y-48550000D03*
X115010000Y-53050000D03*
X108510000Y-48550000D03*
X108510000Y-53050000D03*
D14*
X123000000Y-50000000D03*
D15*
X123000000Y-52500000D03*
D16*
X97500000Y-63000000D03*
X92500000Y-68000000D03*
X167500000Y-63000000D03*
X172500000Y-68000000D03*
X97500000Y-80500000D03*
X92500000Y-85500000D03*
X167500000Y-80500000D03*
X172500000Y-85500000D03*
X97500000Y-98000000D03*
X92500000Y-103000000D03*
X167500000Y-98000000D03*
X172500000Y-103000000D03*
X97500000Y-115500000D03*
X92500000Y-120500000D03*
X167500000Y-115500000D03*
X172500000Y-120500000D03*
D17*
X127500000Y-52500000D03*
D18*
X127500000Y-49960000D03*
X130040000Y-52500000D03*
X130040000Y-49960000D03*
X132580000Y-52500000D03*
X132580000Y-49960000D03*
X135120000Y-52500000D03*
X135120000Y-49960000D03*
X137660000Y-52500000D03*
X137660000Y-49960000D03*
D19*
X90000000Y-50000000D03*
X175000000Y-50000000D03*
X90000000Y-127500000D03*
X175000000Y-127500000D03*
D12*
X131826000Y-44704000D03*
X132334000Y-44704000D03*
X132715000Y-44704000D03*
X133096000Y-44704000D03*
X133604000Y-44704000D03*
M02*
