G04 #@! TF.FileFunction,Legend,Top*
%FSLAX46Y46*%
G04 Gerber Fmt 4.6, Leading zero omitted, Abs format (unit mm)*
G04 Created by KiCad (PCBNEW (2015-01-16 BZR 5376)-product) date 24/06/2015 09:06:33*
%MOMM*%
G01*
G04 APERTURE LIST*
%ADD10C,0.100000*%
%ADD11C,2.000000*%
%ADD12C,0.300000*%
%ADD13C,0.150000*%
%ADD14C,0.300000*%
%ADD15O,2.200000X1.524000*%
%ADD16R,1.300000X1.300000*%
%ADD17C,1.300000*%
%ADD18O,2.400000X3.000000*%
%ADD19R,1.727200X1.727200*%
%ADD20O,1.727200X1.727200*%
%ADD21C,4.000000*%
G04 APERTURE END LIST*
D10*
D11*
X134493000Y-43815000D02*
X177546000Y-43815000D01*
X87693500Y-43815000D02*
X131000500Y-43815000D01*
X91249500Y-133667500D02*
X173672500Y-133667500D01*
X181165500Y-47625000D02*
X181165500Y-130048000D01*
X83820000Y-47625000D02*
X83820000Y-129921000D01*
X83820000Y-129857500D02*
G75*
G03X87630000Y-133667500I3810000J0D01*
G01*
X181165500Y-47625000D02*
G75*
G03X177355500Y-43815000I-3810000J0D01*
G01*
X177355500Y-133667500D02*
G75*
G03X181165500Y-129857500I0J3810000D01*
G01*
X87630000Y-43815000D02*
G75*
G03X83820000Y-47625000I0J-3810000D01*
G01*
D12*
X164068572Y-52747143D02*
X164282858Y-52818571D01*
X164640001Y-52818571D01*
X164782858Y-52747143D01*
X164854287Y-52675714D01*
X164925715Y-52532857D01*
X164925715Y-52390000D01*
X164854287Y-52247143D01*
X164782858Y-52175714D01*
X164640001Y-52104286D01*
X164354287Y-52032857D01*
X164211429Y-51961429D01*
X164140001Y-51890000D01*
X164068572Y-51747143D01*
X164068572Y-51604286D01*
X164140001Y-51461429D01*
X164211429Y-51390000D01*
X164354287Y-51318571D01*
X164711429Y-51318571D01*
X164925715Y-51390000D01*
X165782858Y-52818571D02*
X165640000Y-52747143D01*
X165568572Y-52604286D01*
X165568572Y-51318571D01*
X166354286Y-52818571D02*
X166354286Y-51818571D01*
X166354286Y-51318571D02*
X166282857Y-51390000D01*
X166354286Y-51461429D01*
X166425714Y-51390000D01*
X166354286Y-51318571D01*
X166354286Y-51461429D01*
X167711429Y-52818571D02*
X167711429Y-51318571D01*
X167711429Y-52747143D02*
X167568572Y-52818571D01*
X167282858Y-52818571D01*
X167140000Y-52747143D01*
X167068572Y-52675714D01*
X166997143Y-52532857D01*
X166997143Y-52104286D01*
X167068572Y-51961429D01*
X167140000Y-51890000D01*
X167282858Y-51818571D01*
X167568572Y-51818571D01*
X167711429Y-51890000D01*
X168997143Y-52747143D02*
X168854286Y-52818571D01*
X168568572Y-52818571D01*
X168425715Y-52747143D01*
X168354286Y-52604286D01*
X168354286Y-52032857D01*
X168425715Y-51890000D01*
X168568572Y-51818571D01*
X168854286Y-51818571D01*
X168997143Y-51890000D01*
X169068572Y-52032857D01*
X169068572Y-52175714D01*
X168354286Y-52318571D01*
X169711429Y-52818571D02*
X169711429Y-51818571D01*
X169711429Y-52104286D02*
X169782857Y-51961429D01*
X169854286Y-51890000D01*
X169997143Y-51818571D01*
X170140000Y-51818571D01*
X170568571Y-52747143D02*
X170711428Y-52818571D01*
X170997143Y-52818571D01*
X171140000Y-52747143D01*
X171211428Y-52604286D01*
X171211428Y-52532857D01*
X171140000Y-52390000D01*
X170997143Y-52318571D01*
X170782857Y-52318571D01*
X170640000Y-52247143D01*
X170568571Y-52104286D01*
X170568571Y-52032857D01*
X170640000Y-51890000D01*
X170782857Y-51818571D01*
X170997143Y-51818571D01*
X171140000Y-51890000D01*
X159568571Y-53718571D02*
X160425714Y-53718571D01*
X159997143Y-55218571D02*
X159997143Y-53718571D01*
X160925714Y-55218571D02*
X160925714Y-53718571D01*
X161568571Y-55218571D02*
X161568571Y-54432857D01*
X161497142Y-54290000D01*
X161354285Y-54218571D01*
X161140000Y-54218571D01*
X160997142Y-54290000D01*
X160925714Y-54361429D01*
X162854285Y-55147143D02*
X162711428Y-55218571D01*
X162425714Y-55218571D01*
X162282857Y-55147143D01*
X162211428Y-55004286D01*
X162211428Y-54432857D01*
X162282857Y-54290000D01*
X162425714Y-54218571D01*
X162711428Y-54218571D01*
X162854285Y-54290000D01*
X162925714Y-54432857D01*
X162925714Y-54575714D01*
X162211428Y-54718571D01*
X163425714Y-54218571D02*
X163782857Y-55218571D01*
X164139999Y-54218571D02*
X163782857Y-55218571D01*
X163639999Y-55575714D01*
X163568571Y-55647143D01*
X163425714Y-55718571D01*
X165854285Y-54218571D02*
X165854285Y-55504286D01*
X165782856Y-55647143D01*
X165639999Y-55718571D01*
X165568571Y-55718571D01*
X165854285Y-53718571D02*
X165782856Y-53790000D01*
X165854285Y-53861429D01*
X165925713Y-53790000D01*
X165854285Y-53718571D01*
X165854285Y-53861429D01*
X167211428Y-54218571D02*
X167211428Y-55218571D01*
X166568571Y-54218571D02*
X166568571Y-55004286D01*
X166639999Y-55147143D01*
X166782857Y-55218571D01*
X166997142Y-55218571D01*
X167139999Y-55147143D01*
X167211428Y-55075714D01*
X167854285Y-55147143D02*
X167997142Y-55218571D01*
X168282857Y-55218571D01*
X168425714Y-55147143D01*
X168497142Y-55004286D01*
X168497142Y-54932857D01*
X168425714Y-54790000D01*
X168282857Y-54718571D01*
X168068571Y-54718571D01*
X167925714Y-54647143D01*
X167854285Y-54504286D01*
X167854285Y-54432857D01*
X167925714Y-54290000D01*
X168068571Y-54218571D01*
X168282857Y-54218571D01*
X168425714Y-54290000D01*
X168925714Y-54218571D02*
X169497143Y-54218571D01*
X169140000Y-53718571D02*
X169140000Y-55004286D01*
X169211428Y-55147143D01*
X169354286Y-55218571D01*
X169497143Y-55218571D01*
X170997143Y-54218571D02*
X171282857Y-55218571D01*
X171568571Y-54504286D01*
X171854286Y-55218571D01*
X172140000Y-54218571D01*
X172925715Y-55218571D02*
X172782857Y-55147143D01*
X172711429Y-55075714D01*
X172640000Y-54932857D01*
X172640000Y-54504286D01*
X172711429Y-54361429D01*
X172782857Y-54290000D01*
X172925715Y-54218571D01*
X173140000Y-54218571D01*
X173282857Y-54290000D01*
X173354286Y-54361429D01*
X173425715Y-54504286D01*
X173425715Y-54932857D01*
X173354286Y-55075714D01*
X173282857Y-55147143D01*
X173140000Y-55218571D01*
X172925715Y-55218571D01*
X174068572Y-55218571D02*
X174068572Y-54218571D01*
X174068572Y-54504286D02*
X174140000Y-54361429D01*
X174211429Y-54290000D01*
X174354286Y-54218571D01*
X174497143Y-54218571D01*
X174997143Y-55218571D02*
X174997143Y-53718571D01*
X175140000Y-54647143D02*
X175568571Y-55218571D01*
X175568571Y-54218571D02*
X174997143Y-54790000D01*
D10*
X180000000Y-125000000D02*
X180000000Y-127500000D01*
D13*
X149400000Y-53800000D02*
X149400000Y-47800000D01*
X149400000Y-47800000D02*
X155400000Y-47800000D01*
X155400000Y-47800000D02*
X155400000Y-53800000D01*
X155400000Y-53800000D02*
X149400000Y-53800000D01*
X153857738Y-50800000D02*
G75*
G03X153857738Y-50800000I-1457738J0D01*
G01*
X108760000Y-53800000D02*
X108760000Y-47800000D01*
X108760000Y-47800000D02*
X114760000Y-47800000D01*
X114760000Y-47800000D02*
X114760000Y-53800000D01*
X114760000Y-53800000D02*
X108760000Y-53800000D01*
X113217738Y-50800000D02*
G75*
G03X113217738Y-50800000I-1457738J0D01*
G01*
X124250000Y-49750000D02*
X124250000Y-52750000D01*
X121750000Y-52750000D02*
X121750000Y-49750000D01*
X88500000Y-58750000D02*
X176500000Y-58750000D01*
X176500000Y-58750000D02*
X176500000Y-71250000D01*
X176500000Y-71250000D02*
X88500000Y-71250000D01*
X88500000Y-58750000D02*
X88500000Y-71250000D01*
X88500000Y-76250000D02*
X176500000Y-76250000D01*
X176500000Y-76250000D02*
X176500000Y-88750000D01*
X176500000Y-88750000D02*
X88500000Y-88750000D01*
X88500000Y-76250000D02*
X88500000Y-88750000D01*
X88500000Y-93750000D02*
X176500000Y-93750000D01*
X176500000Y-93750000D02*
X176500000Y-106250000D01*
X176500000Y-106250000D02*
X88500000Y-106250000D01*
X88500000Y-93750000D02*
X88500000Y-106250000D01*
X88500000Y-111250000D02*
X176500000Y-111250000D01*
X176500000Y-111250000D02*
X176500000Y-123750000D01*
X176500000Y-123750000D02*
X88500000Y-123750000D01*
X88500000Y-111250000D02*
X88500000Y-123750000D01*
X126230000Y-48690000D02*
X138930000Y-48690000D01*
X138930000Y-48690000D02*
X138930000Y-53770000D01*
X138930000Y-53770000D02*
X128770000Y-53770000D01*
X126230000Y-48690000D02*
X126230000Y-51230000D01*
X125950000Y-52500000D02*
X125950000Y-54050000D01*
X126230000Y-51230000D02*
X128770000Y-51230000D01*
X128770000Y-51230000D02*
X128770000Y-53770000D01*
X125950000Y-54050000D02*
X127500000Y-54050000D01*
D10*
G36*
X96654350Y-56578500D02*
X96651023Y-56690311D01*
X96520447Y-56726127D01*
X96486958Y-56726667D01*
X96372593Y-56710694D01*
X96287545Y-56640160D01*
X96210006Y-56481140D01*
X96118168Y-56199711D01*
X96092357Y-56112833D01*
X95996587Y-55807471D01*
X95910128Y-55566137D01*
X95849726Y-55435038D01*
X95844101Y-55427896D01*
X95784657Y-55461073D01*
X95700162Y-55620167D01*
X95629923Y-55808896D01*
X95539432Y-56068891D01*
X95461582Y-56260305D01*
X95426123Y-56324236D01*
X95350711Y-56295198D01*
X95208440Y-56157973D01*
X95034364Y-55947654D01*
X94855030Y-55718128D01*
X94750893Y-55610421D01*
X94697960Y-55609109D01*
X94672239Y-55698770D01*
X94670050Y-55713463D01*
X94659421Y-55903606D01*
X94661030Y-56195840D01*
X94672818Y-56492212D01*
X94686222Y-56795713D01*
X94676862Y-56967555D01*
X94635087Y-57044905D01*
X94551246Y-57064928D01*
X94523996Y-57065333D01*
X94421497Y-57045761D01*
X94357897Y-56961684D01*
X94315973Y-56775059D01*
X94288395Y-56544913D01*
X94259677Y-56175683D01*
X94239965Y-55741573D01*
X94234000Y-55401913D01*
X94238423Y-55080457D01*
X94257839Y-54893060D01*
X94301463Y-54804549D01*
X94378515Y-54779746D01*
X94397148Y-54779333D01*
X94541967Y-54846386D01*
X94738434Y-55026577D01*
X94883981Y-55199060D01*
X95061104Y-55418433D01*
X95199976Y-55571665D01*
X95264264Y-55622393D01*
X95317077Y-55550332D01*
X95401908Y-55357657D01*
X95500712Y-55085521D01*
X95504000Y-55075667D01*
X95620397Y-54763574D01*
X95721143Y-54589926D01*
X95823462Y-54527052D01*
X95846566Y-54525333D01*
X95899562Y-54533208D01*
X95949828Y-54569134D01*
X96004624Y-54651562D01*
X96071210Y-54798943D01*
X96156843Y-55029729D01*
X96268785Y-55362370D01*
X96414294Y-55815319D01*
X96600629Y-56407026D01*
X96654350Y-56578500D01*
X96654350Y-56578500D01*
X96654350Y-56578500D01*
G37*
X96654350Y-56578500D02*
X96651023Y-56690311D01*
X96520447Y-56726127D01*
X96486958Y-56726667D01*
X96372593Y-56710694D01*
X96287545Y-56640160D01*
X96210006Y-56481140D01*
X96118168Y-56199711D01*
X96092357Y-56112833D01*
X95996587Y-55807471D01*
X95910128Y-55566137D01*
X95849726Y-55435038D01*
X95844101Y-55427896D01*
X95784657Y-55461073D01*
X95700162Y-55620167D01*
X95629923Y-55808896D01*
X95539432Y-56068891D01*
X95461582Y-56260305D01*
X95426123Y-56324236D01*
X95350711Y-56295198D01*
X95208440Y-56157973D01*
X95034364Y-55947654D01*
X94855030Y-55718128D01*
X94750893Y-55610421D01*
X94697960Y-55609109D01*
X94672239Y-55698770D01*
X94670050Y-55713463D01*
X94659421Y-55903606D01*
X94661030Y-56195840D01*
X94672818Y-56492212D01*
X94686222Y-56795713D01*
X94676862Y-56967555D01*
X94635087Y-57044905D01*
X94551246Y-57064928D01*
X94523996Y-57065333D01*
X94421497Y-57045761D01*
X94357897Y-56961684D01*
X94315973Y-56775059D01*
X94288395Y-56544913D01*
X94259677Y-56175683D01*
X94239965Y-55741573D01*
X94234000Y-55401913D01*
X94238423Y-55080457D01*
X94257839Y-54893060D01*
X94301463Y-54804549D01*
X94378515Y-54779746D01*
X94397148Y-54779333D01*
X94541967Y-54846386D01*
X94738434Y-55026577D01*
X94883981Y-55199060D01*
X95061104Y-55418433D01*
X95199976Y-55571665D01*
X95264264Y-55622393D01*
X95317077Y-55550332D01*
X95401908Y-55357657D01*
X95500712Y-55085521D01*
X95504000Y-55075667D01*
X95620397Y-54763574D01*
X95721143Y-54589926D01*
X95823462Y-54527052D01*
X95846566Y-54525333D01*
X95899562Y-54533208D01*
X95949828Y-54569134D01*
X96004624Y-54651562D01*
X96071210Y-54798943D01*
X96156843Y-55029729D01*
X96268785Y-55362370D01*
X96414294Y-55815319D01*
X96600629Y-56407026D01*
X96654350Y-56578500D01*
X96654350Y-56578500D01*
G36*
X98213334Y-56196018D02*
X98137784Y-56353175D01*
X97943685Y-56472902D01*
X97679861Y-56543454D01*
X97395138Y-56553085D01*
X97138339Y-56490051D01*
X97091498Y-56465884D01*
X96921566Y-56297675D01*
X96774923Y-56041450D01*
X96694278Y-55777410D01*
X96689334Y-55710667D01*
X96762462Y-55386307D01*
X96955295Y-55124207D01*
X97228005Y-54953394D01*
X97540763Y-54902894D01*
X97739287Y-54945481D01*
X97897657Y-55059620D01*
X98046153Y-55248001D01*
X98149462Y-55452408D01*
X98172269Y-55614627D01*
X98161460Y-55641436D01*
X98046626Y-55702758D01*
X97830807Y-55747610D01*
X97582054Y-55769530D01*
X97368421Y-55762058D01*
X97264109Y-55726642D01*
X97253333Y-55649686D01*
X97397009Y-55580440D01*
X97460974Y-55562525D01*
X97673940Y-55478108D01*
X97719467Y-55376561D01*
X97598893Y-55254458D01*
X97584872Y-55245433D01*
X97409256Y-55206593D01*
X97262678Y-55295576D01*
X97161769Y-55471325D01*
X97123162Y-55692787D01*
X97163489Y-55918905D01*
X97253162Y-56064245D01*
X97470721Y-56184670D01*
X97774944Y-56185337D01*
X98065167Y-56095510D01*
X98183269Y-56081944D01*
X98213334Y-56196018D01*
X98213334Y-56196018D01*
X98213334Y-56196018D01*
G37*
X98213334Y-56196018D02*
X98137784Y-56353175D01*
X97943685Y-56472902D01*
X97679861Y-56543454D01*
X97395138Y-56553085D01*
X97138339Y-56490051D01*
X97091498Y-56465884D01*
X96921566Y-56297675D01*
X96774923Y-56041450D01*
X96694278Y-55777410D01*
X96689334Y-55710667D01*
X96762462Y-55386307D01*
X96955295Y-55124207D01*
X97228005Y-54953394D01*
X97540763Y-54902894D01*
X97739287Y-54945481D01*
X97897657Y-55059620D01*
X98046153Y-55248001D01*
X98149462Y-55452408D01*
X98172269Y-55614627D01*
X98161460Y-55641436D01*
X98046626Y-55702758D01*
X97830807Y-55747610D01*
X97582054Y-55769530D01*
X97368421Y-55762058D01*
X97264109Y-55726642D01*
X97253333Y-55649686D01*
X97397009Y-55580440D01*
X97460974Y-55562525D01*
X97673940Y-55478108D01*
X97719467Y-55376561D01*
X97598893Y-55254458D01*
X97584872Y-55245433D01*
X97409256Y-55206593D01*
X97262678Y-55295576D01*
X97161769Y-55471325D01*
X97123162Y-55692787D01*
X97163489Y-55918905D01*
X97253162Y-56064245D01*
X97470721Y-56184670D01*
X97774944Y-56185337D01*
X98065167Y-56095510D01*
X98183269Y-56081944D01*
X98213334Y-56196018D01*
X98213334Y-56196018D01*
G36*
X99137660Y-54157345D02*
X99109987Y-54454020D01*
X99041751Y-54887652D01*
X98931737Y-55468792D01*
X98856603Y-55837667D01*
X98786959Y-56126952D01*
X98715378Y-56287664D01*
X98619696Y-56359353D01*
X98555937Y-56374166D01*
X98415633Y-56371152D01*
X98393730Y-56271239D01*
X98407097Y-56204832D01*
X98438845Y-56042140D01*
X98488599Y-55755834D01*
X98548926Y-55389712D01*
X98598731Y-55075667D01*
X98685875Y-54588660D01*
X98775610Y-54251222D01*
X98876152Y-54043679D01*
X98995719Y-53946360D01*
X99076182Y-53932667D01*
X99125986Y-53987078D01*
X99137660Y-54157345D01*
X99137660Y-54157345D01*
X99137660Y-54157345D01*
G37*
X99137660Y-54157345D02*
X99109987Y-54454020D01*
X99041751Y-54887652D01*
X98931737Y-55468792D01*
X98856603Y-55837667D01*
X98786959Y-56126952D01*
X98715378Y-56287664D01*
X98619696Y-56359353D01*
X98555937Y-56374166D01*
X98415633Y-56371152D01*
X98393730Y-56271239D01*
X98407097Y-56204832D01*
X98438845Y-56042140D01*
X98488599Y-55755834D01*
X98548926Y-55389712D01*
X98598731Y-55075667D01*
X98685875Y-54588660D01*
X98775610Y-54251222D01*
X98876152Y-54043679D01*
X98995719Y-53946360D01*
X99076182Y-53932667D01*
X99125986Y-53987078D01*
X99137660Y-54157345D01*
X99137660Y-54157345D01*
G36*
X100236870Y-55989016D02*
X100219684Y-56066977D01*
X100060308Y-56126111D01*
X99927149Y-56056107D01*
X99799506Y-55870291D01*
X99679529Y-55696003D01*
X99547526Y-55640984D01*
X99355006Y-55662996D01*
X99158447Y-55688882D01*
X99076649Y-55647106D01*
X99060012Y-55510739D01*
X99060000Y-55502836D01*
X99098193Y-55334939D01*
X99229334Y-55287333D01*
X99357547Y-55274409D01*
X99387084Y-55209053D01*
X99324000Y-55051395D01*
X99278713Y-54962293D01*
X99199023Y-54627866D01*
X99218035Y-54440506D01*
X99277310Y-54150683D01*
X99799173Y-55076615D01*
X100032791Y-55505222D01*
X100176989Y-55805350D01*
X100236870Y-55989016D01*
X100236870Y-55989016D01*
X100236870Y-55989016D01*
G37*
X100236870Y-55989016D02*
X100219684Y-56066977D01*
X100060308Y-56126111D01*
X99927149Y-56056107D01*
X99799506Y-55870291D01*
X99679529Y-55696003D01*
X99547526Y-55640984D01*
X99355006Y-55662996D01*
X99158447Y-55688882D01*
X99076649Y-55647106D01*
X99060012Y-55510739D01*
X99060000Y-55502836D01*
X99098193Y-55334939D01*
X99229334Y-55287333D01*
X99357547Y-55274409D01*
X99387084Y-55209053D01*
X99324000Y-55051395D01*
X99278713Y-54962293D01*
X99199023Y-54627866D01*
X99218035Y-54440506D01*
X99277310Y-54150683D01*
X99799173Y-55076615D01*
X100032791Y-55505222D01*
X100176989Y-55805350D01*
X100236870Y-55989016D01*
X100236870Y-55989016D01*
G36*
X101092000Y-54440667D02*
X101059051Y-54578286D01*
X101013381Y-54610000D01*
X100894184Y-54663864D01*
X100813842Y-54730920D01*
X100751804Y-54824206D01*
X100734287Y-54964653D01*
X100760094Y-55197232D01*
X100796050Y-55400629D01*
X100848424Y-55694374D01*
X100862538Y-55861769D01*
X100832581Y-55942656D01*
X100752746Y-55976880D01*
X100710789Y-55985429D01*
X100619980Y-55990800D01*
X100554514Y-55945644D01*
X100500982Y-55819964D01*
X100445975Y-55583763D01*
X100384961Y-55256542D01*
X100320142Y-54843393D01*
X100305683Y-54572774D01*
X100346747Y-54424023D01*
X100448494Y-54376479D01*
X100598042Y-54403710D01*
X100745675Y-54398314D01*
X100793538Y-54359444D01*
X100916976Y-54272957D01*
X101041996Y-54313011D01*
X101092000Y-54440667D01*
X101092000Y-54440667D01*
X101092000Y-54440667D01*
G37*
X101092000Y-54440667D02*
X101059051Y-54578286D01*
X101013381Y-54610000D01*
X100894184Y-54663864D01*
X100813842Y-54730920D01*
X100751804Y-54824206D01*
X100734287Y-54964653D01*
X100760094Y-55197232D01*
X100796050Y-55400629D01*
X100848424Y-55694374D01*
X100862538Y-55861769D01*
X100832581Y-55942656D01*
X100752746Y-55976880D01*
X100710789Y-55985429D01*
X100619980Y-55990800D01*
X100554514Y-55945644D01*
X100500982Y-55819964D01*
X100445975Y-55583763D01*
X100384961Y-55256542D01*
X100320142Y-54843393D01*
X100305683Y-54572774D01*
X100346747Y-54424023D01*
X100448494Y-54376479D01*
X100598042Y-54403710D01*
X100745675Y-54398314D01*
X100793538Y-54359444D01*
X100916976Y-54272957D01*
X101041996Y-54313011D01*
X101092000Y-54440667D01*
X101092000Y-54440667D01*
G36*
X103955900Y-55270412D02*
X103946124Y-55402976D01*
X103887170Y-55451111D01*
X103814984Y-55456667D01*
X103704967Y-55436027D01*
X103628634Y-55351730D01*
X103569939Y-55170207D01*
X103512837Y-54857889D01*
X103505062Y-54808309D01*
X103443822Y-54546614D01*
X103360230Y-54337654D01*
X103338819Y-54303659D01*
X103235792Y-54204427D01*
X103104897Y-54211673D01*
X102995918Y-54256421D01*
X102891618Y-54309342D01*
X102827350Y-54374980D01*
X102801118Y-54484482D01*
X102810930Y-54668996D01*
X102854792Y-54959669D01*
X102925396Y-55358136D01*
X102948310Y-55547090D01*
X102904645Y-55616401D01*
X102776990Y-55612136D01*
X102644893Y-55562889D01*
X102565743Y-55432577D01*
X102514506Y-55202667D01*
X102433152Y-54788319D01*
X102344326Y-54525316D01*
X102233982Y-54395799D01*
X102088075Y-54381906D01*
X101922192Y-54449484D01*
X101832924Y-54524440D01*
X101789049Y-54649237D01*
X101790047Y-54853803D01*
X101835398Y-55168072D01*
X101903586Y-55520167D01*
X101929027Y-55707591D01*
X101880271Y-55782497D01*
X101751216Y-55795333D01*
X101649950Y-55784877D01*
X101580488Y-55731870D01*
X101528864Y-55603857D01*
X101481108Y-55368382D01*
X101432381Y-55054500D01*
X101386712Y-54719566D01*
X101358195Y-54453097D01*
X101350818Y-54295605D01*
X101355248Y-54271333D01*
X101456687Y-54236376D01*
X101557667Y-54229000D01*
X101754794Y-54195068D01*
X101836023Y-54158532D01*
X101988578Y-54117238D01*
X102220803Y-54107796D01*
X102259357Y-54109912D01*
X102552834Y-54087623D01*
X102854773Y-54004228D01*
X102887117Y-53990436D01*
X103212948Y-53900382D01*
X103475923Y-53956528D01*
X103680388Y-54163142D01*
X103830689Y-54524496D01*
X103926885Y-55012167D01*
X103955900Y-55270412D01*
X103955900Y-55270412D01*
X103955900Y-55270412D01*
G37*
X103955900Y-55270412D02*
X103946124Y-55402976D01*
X103887170Y-55451111D01*
X103814984Y-55456667D01*
X103704967Y-55436027D01*
X103628634Y-55351730D01*
X103569939Y-55170207D01*
X103512837Y-54857889D01*
X103505062Y-54808309D01*
X103443822Y-54546614D01*
X103360230Y-54337654D01*
X103338819Y-54303659D01*
X103235792Y-54204427D01*
X103104897Y-54211673D01*
X102995918Y-54256421D01*
X102891618Y-54309342D01*
X102827350Y-54374980D01*
X102801118Y-54484482D01*
X102810930Y-54668996D01*
X102854792Y-54959669D01*
X102925396Y-55358136D01*
X102948310Y-55547090D01*
X102904645Y-55616401D01*
X102776990Y-55612136D01*
X102644893Y-55562889D01*
X102565743Y-55432577D01*
X102514506Y-55202667D01*
X102433152Y-54788319D01*
X102344326Y-54525316D01*
X102233982Y-54395799D01*
X102088075Y-54381906D01*
X101922192Y-54449484D01*
X101832924Y-54524440D01*
X101789049Y-54649237D01*
X101790047Y-54853803D01*
X101835398Y-55168072D01*
X101903586Y-55520167D01*
X101929027Y-55707591D01*
X101880271Y-55782497D01*
X101751216Y-55795333D01*
X101649950Y-55784877D01*
X101580488Y-55731870D01*
X101528864Y-55603857D01*
X101481108Y-55368382D01*
X101432381Y-55054500D01*
X101386712Y-54719566D01*
X101358195Y-54453097D01*
X101350818Y-54295605D01*
X101355248Y-54271333D01*
X101456687Y-54236376D01*
X101557667Y-54229000D01*
X101754794Y-54195068D01*
X101836023Y-54158532D01*
X101988578Y-54117238D01*
X102220803Y-54107796D01*
X102259357Y-54109912D01*
X102552834Y-54087623D01*
X102854773Y-54004228D01*
X102887117Y-53990436D01*
X103212948Y-53900382D01*
X103475923Y-53956528D01*
X103680388Y-54163142D01*
X103830689Y-54524496D01*
X103926885Y-55012167D01*
X103955900Y-55270412D01*
X103955900Y-55270412D01*
G36*
X103420334Y-52027667D02*
X103400515Y-52301970D01*
X103321041Y-52485387D01*
X103182779Y-52627664D01*
X103075038Y-52711847D01*
X102960461Y-52769085D01*
X102805414Y-52804548D01*
X102576266Y-52823405D01*
X102239381Y-52830824D01*
X101853263Y-52832000D01*
X101410364Y-52824912D01*
X101023465Y-52805449D01*
X100730149Y-52776308D01*
X100567996Y-52740188D01*
X100566817Y-52739637D01*
X100458428Y-52649866D01*
X100260912Y-52448685D01*
X99992202Y-52155878D01*
X99670236Y-51791226D01*
X99312946Y-51374513D01*
X99108871Y-51131488D01*
X98751153Y-50704026D01*
X98431255Y-50324999D01*
X98164406Y-50012184D01*
X97965832Y-49783356D01*
X97850761Y-49656291D01*
X97828073Y-49636351D01*
X97795737Y-49718422D01*
X97714557Y-49937235D01*
X97592804Y-50270122D01*
X97438751Y-50694415D01*
X97260668Y-51187447D01*
X97156327Y-51477333D01*
X96923598Y-52114985D01*
X96734128Y-52610113D01*
X96579674Y-52981505D01*
X96451995Y-53247950D01*
X96342849Y-53428236D01*
X96255623Y-53530500D01*
X95948464Y-53722648D01*
X95611966Y-53748236D01*
X95336335Y-53654583D01*
X95101497Y-53453074D01*
X94947419Y-53162564D01*
X94912582Y-52956087D01*
X94940420Y-52841316D01*
X95018905Y-52591302D01*
X95139634Y-52229505D01*
X95294205Y-51779388D01*
X95474218Y-51264411D01*
X95671270Y-50708037D01*
X95876960Y-50133726D01*
X96082886Y-49564940D01*
X96280646Y-49025139D01*
X96461840Y-48537786D01*
X96618065Y-48126342D01*
X96740919Y-47814268D01*
X96820647Y-47627869D01*
X97034058Y-47350176D01*
X97326425Y-47193959D01*
X97652958Y-47169297D01*
X97968865Y-47286266D01*
X98054602Y-47350254D01*
X98165981Y-47463724D01*
X98369090Y-47688847D01*
X98647656Y-48006856D01*
X98985405Y-48398986D01*
X99366065Y-48846470D01*
X99773362Y-49330542D01*
X99816263Y-49381833D01*
X101355656Y-51223333D01*
X102150440Y-51223333D01*
X102533030Y-51227445D01*
X102789239Y-51245436D01*
X102961933Y-51285791D01*
X103093979Y-51356996D01*
X103182779Y-51427669D01*
X103337235Y-51593536D01*
X103406315Y-51785324D01*
X103420334Y-52027667D01*
X103420334Y-52027667D01*
X103420334Y-52027667D01*
G37*
X103420334Y-52027667D02*
X103400515Y-52301970D01*
X103321041Y-52485387D01*
X103182779Y-52627664D01*
X103075038Y-52711847D01*
X102960461Y-52769085D01*
X102805414Y-52804548D01*
X102576266Y-52823405D01*
X102239381Y-52830824D01*
X101853263Y-52832000D01*
X101410364Y-52824912D01*
X101023465Y-52805449D01*
X100730149Y-52776308D01*
X100567996Y-52740188D01*
X100566817Y-52739637D01*
X100458428Y-52649866D01*
X100260912Y-52448685D01*
X99992202Y-52155878D01*
X99670236Y-51791226D01*
X99312946Y-51374513D01*
X99108871Y-51131488D01*
X98751153Y-50704026D01*
X98431255Y-50324999D01*
X98164406Y-50012184D01*
X97965832Y-49783356D01*
X97850761Y-49656291D01*
X97828073Y-49636351D01*
X97795737Y-49718422D01*
X97714557Y-49937235D01*
X97592804Y-50270122D01*
X97438751Y-50694415D01*
X97260668Y-51187447D01*
X97156327Y-51477333D01*
X96923598Y-52114985D01*
X96734128Y-52610113D01*
X96579674Y-52981505D01*
X96451995Y-53247950D01*
X96342849Y-53428236D01*
X96255623Y-53530500D01*
X95948464Y-53722648D01*
X95611966Y-53748236D01*
X95336335Y-53654583D01*
X95101497Y-53453074D01*
X94947419Y-53162564D01*
X94912582Y-52956087D01*
X94940420Y-52841316D01*
X95018905Y-52591302D01*
X95139634Y-52229505D01*
X95294205Y-51779388D01*
X95474218Y-51264411D01*
X95671270Y-50708037D01*
X95876960Y-50133726D01*
X96082886Y-49564940D01*
X96280646Y-49025139D01*
X96461840Y-48537786D01*
X96618065Y-48126342D01*
X96740919Y-47814268D01*
X96820647Y-47627869D01*
X97034058Y-47350176D01*
X97326425Y-47193959D01*
X97652958Y-47169297D01*
X97968865Y-47286266D01*
X98054602Y-47350254D01*
X98165981Y-47463724D01*
X98369090Y-47688847D01*
X98647656Y-48006856D01*
X98985405Y-48398986D01*
X99366065Y-48846470D01*
X99773362Y-49330542D01*
X99816263Y-49381833D01*
X101355656Y-51223333D01*
X102150440Y-51223333D01*
X102533030Y-51227445D01*
X102789239Y-51245436D01*
X102961933Y-51285791D01*
X103093979Y-51356996D01*
X103182779Y-51427669D01*
X103337235Y-51593536D01*
X103406315Y-51785324D01*
X103420334Y-52027667D01*
X103420334Y-52027667D01*
D13*
X151066667Y-50204762D02*
X151209524Y-50252381D01*
X151447620Y-50252381D01*
X151542858Y-50204762D01*
X151590477Y-50157143D01*
X151638096Y-50061905D01*
X151638096Y-49966667D01*
X151590477Y-49871429D01*
X151542858Y-49823810D01*
X151447620Y-49776190D01*
X151257143Y-49728571D01*
X151161905Y-49680952D01*
X151114286Y-49633333D01*
X151066667Y-49538095D01*
X151066667Y-49442857D01*
X151114286Y-49347619D01*
X151161905Y-49300000D01*
X151257143Y-49252381D01*
X151495239Y-49252381D01*
X151638096Y-49300000D01*
X151971429Y-49252381D02*
X152209524Y-50252381D01*
X152400001Y-49538095D01*
X152590477Y-50252381D01*
X152828572Y-49252381D01*
X153161905Y-49347619D02*
X153209524Y-49300000D01*
X153304762Y-49252381D01*
X153542858Y-49252381D01*
X153638096Y-49300000D01*
X153685715Y-49347619D01*
X153733334Y-49442857D01*
X153733334Y-49538095D01*
X153685715Y-49680952D01*
X153114286Y-50252381D01*
X153733334Y-50252381D01*
X110426667Y-50204762D02*
X110569524Y-50252381D01*
X110807620Y-50252381D01*
X110902858Y-50204762D01*
X110950477Y-50157143D01*
X110998096Y-50061905D01*
X110998096Y-49966667D01*
X110950477Y-49871429D01*
X110902858Y-49823810D01*
X110807620Y-49776190D01*
X110617143Y-49728571D01*
X110521905Y-49680952D01*
X110474286Y-49633333D01*
X110426667Y-49538095D01*
X110426667Y-49442857D01*
X110474286Y-49347619D01*
X110521905Y-49300000D01*
X110617143Y-49252381D01*
X110855239Y-49252381D01*
X110998096Y-49300000D01*
X111331429Y-49252381D02*
X111569524Y-50252381D01*
X111760001Y-49538095D01*
X111950477Y-50252381D01*
X112188572Y-49252381D01*
X113093334Y-50252381D02*
X112521905Y-50252381D01*
X112807619Y-50252381D02*
X112807619Y-49252381D01*
X112712381Y-49395238D01*
X112617143Y-49490476D01*
X112521905Y-49538095D01*
X125857143Y-51416666D02*
X125904762Y-51464285D01*
X125952381Y-51607142D01*
X125952381Y-51702380D01*
X125904762Y-51845238D01*
X125809524Y-51940476D01*
X125714286Y-51988095D01*
X125523810Y-52035714D01*
X125380952Y-52035714D01*
X125190476Y-51988095D01*
X125095238Y-51940476D01*
X125000000Y-51845238D01*
X124952381Y-51702380D01*
X124952381Y-51607142D01*
X125000000Y-51464285D01*
X125047619Y-51416666D01*
X125952381Y-50464285D02*
X125952381Y-51035714D01*
X125952381Y-50750000D02*
X124952381Y-50750000D01*
X125095238Y-50845238D01*
X125190476Y-50940476D01*
X125238095Y-51035714D01*
X131738095Y-60904762D02*
X131880952Y-60952381D01*
X132119048Y-60952381D01*
X132214286Y-60904762D01*
X132261905Y-60857143D01*
X132309524Y-60761905D01*
X132309524Y-60666667D01*
X132261905Y-60571429D01*
X132214286Y-60523810D01*
X132119048Y-60476190D01*
X131928571Y-60428571D01*
X131833333Y-60380952D01*
X131785714Y-60333333D01*
X131738095Y-60238095D01*
X131738095Y-60142857D01*
X131785714Y-60047619D01*
X131833333Y-60000000D01*
X131928571Y-59952381D01*
X132166667Y-59952381D01*
X132309524Y-60000000D01*
X133261905Y-60952381D02*
X132690476Y-60952381D01*
X132976190Y-60952381D02*
X132976190Y-59952381D01*
X132880952Y-60095238D01*
X132785714Y-60190476D01*
X132690476Y-60238095D01*
X128904761Y-69654762D02*
X129047618Y-69702381D01*
X129285714Y-69702381D01*
X129380952Y-69654762D01*
X129428571Y-69607143D01*
X129476190Y-69511905D01*
X129476190Y-69416667D01*
X129428571Y-69321429D01*
X129380952Y-69273810D01*
X129285714Y-69226190D01*
X129095237Y-69178571D01*
X128999999Y-69130952D01*
X128952380Y-69083333D01*
X128904761Y-68988095D01*
X128904761Y-68892857D01*
X128952380Y-68797619D01*
X128999999Y-68750000D01*
X129095237Y-68702381D01*
X129333333Y-68702381D01*
X129476190Y-68750000D01*
X130047618Y-69702381D02*
X129952380Y-69654762D01*
X129904761Y-69559524D01*
X129904761Y-68702381D01*
X130428571Y-69702381D02*
X130428571Y-69035714D01*
X130428571Y-68702381D02*
X130380952Y-68750000D01*
X130428571Y-68797619D01*
X130476190Y-68750000D01*
X130428571Y-68702381D01*
X130428571Y-68797619D01*
X131333333Y-69702381D02*
X131333333Y-68702381D01*
X131333333Y-69654762D02*
X131238095Y-69702381D01*
X131047618Y-69702381D01*
X130952380Y-69654762D01*
X130904761Y-69607143D01*
X130857142Y-69511905D01*
X130857142Y-69226190D01*
X130904761Y-69130952D01*
X130952380Y-69083333D01*
X131047618Y-69035714D01*
X131238095Y-69035714D01*
X131333333Y-69083333D01*
X132190476Y-69654762D02*
X132095238Y-69702381D01*
X131904761Y-69702381D01*
X131809523Y-69654762D01*
X131761904Y-69559524D01*
X131761904Y-69178571D01*
X131809523Y-69083333D01*
X131904761Y-69035714D01*
X132095238Y-69035714D01*
X132190476Y-69083333D01*
X132238095Y-69178571D01*
X132238095Y-69273810D01*
X131761904Y-69369048D01*
X132666666Y-69702381D02*
X132666666Y-69035714D01*
X132666666Y-69226190D02*
X132714285Y-69130952D01*
X132761904Y-69083333D01*
X132857142Y-69035714D01*
X132952381Y-69035714D01*
X133047619Y-69797619D02*
X133809524Y-69797619D01*
X134047619Y-69702381D02*
X134047619Y-68702381D01*
X134428572Y-68702381D01*
X134523810Y-68750000D01*
X134571429Y-68797619D01*
X134619048Y-68892857D01*
X134619048Y-69035714D01*
X134571429Y-69130952D01*
X134523810Y-69178571D01*
X134428572Y-69226190D01*
X134047619Y-69226190D01*
X135190476Y-69702381D02*
X135095238Y-69654762D01*
X135047619Y-69607143D01*
X135000000Y-69511905D01*
X135000000Y-69226190D01*
X135047619Y-69130952D01*
X135095238Y-69083333D01*
X135190476Y-69035714D01*
X135333334Y-69035714D01*
X135428572Y-69083333D01*
X135476191Y-69130952D01*
X135523810Y-69226190D01*
X135523810Y-69511905D01*
X135476191Y-69607143D01*
X135428572Y-69654762D01*
X135333334Y-69702381D01*
X135190476Y-69702381D01*
X135809524Y-69035714D02*
X136190476Y-69035714D01*
X135952381Y-68702381D02*
X135952381Y-69559524D01*
X136000000Y-69654762D01*
X136095238Y-69702381D01*
X136190476Y-69702381D01*
X131738095Y-78404762D02*
X131880952Y-78452381D01*
X132119048Y-78452381D01*
X132214286Y-78404762D01*
X132261905Y-78357143D01*
X132309524Y-78261905D01*
X132309524Y-78166667D01*
X132261905Y-78071429D01*
X132214286Y-78023810D01*
X132119048Y-77976190D01*
X131928571Y-77928571D01*
X131833333Y-77880952D01*
X131785714Y-77833333D01*
X131738095Y-77738095D01*
X131738095Y-77642857D01*
X131785714Y-77547619D01*
X131833333Y-77500000D01*
X131928571Y-77452381D01*
X132166667Y-77452381D01*
X132309524Y-77500000D01*
X132690476Y-77547619D02*
X132738095Y-77500000D01*
X132833333Y-77452381D01*
X133071429Y-77452381D01*
X133166667Y-77500000D01*
X133214286Y-77547619D01*
X133261905Y-77642857D01*
X133261905Y-77738095D01*
X133214286Y-77880952D01*
X132642857Y-78452381D01*
X133261905Y-78452381D01*
X128904761Y-87154762D02*
X129047618Y-87202381D01*
X129285714Y-87202381D01*
X129380952Y-87154762D01*
X129428571Y-87107143D01*
X129476190Y-87011905D01*
X129476190Y-86916667D01*
X129428571Y-86821429D01*
X129380952Y-86773810D01*
X129285714Y-86726190D01*
X129095237Y-86678571D01*
X128999999Y-86630952D01*
X128952380Y-86583333D01*
X128904761Y-86488095D01*
X128904761Y-86392857D01*
X128952380Y-86297619D01*
X128999999Y-86250000D01*
X129095237Y-86202381D01*
X129333333Y-86202381D01*
X129476190Y-86250000D01*
X130047618Y-87202381D02*
X129952380Y-87154762D01*
X129904761Y-87059524D01*
X129904761Y-86202381D01*
X130428571Y-87202381D02*
X130428571Y-86535714D01*
X130428571Y-86202381D02*
X130380952Y-86250000D01*
X130428571Y-86297619D01*
X130476190Y-86250000D01*
X130428571Y-86202381D01*
X130428571Y-86297619D01*
X131333333Y-87202381D02*
X131333333Y-86202381D01*
X131333333Y-87154762D02*
X131238095Y-87202381D01*
X131047618Y-87202381D01*
X130952380Y-87154762D01*
X130904761Y-87107143D01*
X130857142Y-87011905D01*
X130857142Y-86726190D01*
X130904761Y-86630952D01*
X130952380Y-86583333D01*
X131047618Y-86535714D01*
X131238095Y-86535714D01*
X131333333Y-86583333D01*
X132190476Y-87154762D02*
X132095238Y-87202381D01*
X131904761Y-87202381D01*
X131809523Y-87154762D01*
X131761904Y-87059524D01*
X131761904Y-86678571D01*
X131809523Y-86583333D01*
X131904761Y-86535714D01*
X132095238Y-86535714D01*
X132190476Y-86583333D01*
X132238095Y-86678571D01*
X132238095Y-86773810D01*
X131761904Y-86869048D01*
X132666666Y-87202381D02*
X132666666Y-86535714D01*
X132666666Y-86726190D02*
X132714285Y-86630952D01*
X132761904Y-86583333D01*
X132857142Y-86535714D01*
X132952381Y-86535714D01*
X133047619Y-87297619D02*
X133809524Y-87297619D01*
X134047619Y-87202381D02*
X134047619Y-86202381D01*
X134428572Y-86202381D01*
X134523810Y-86250000D01*
X134571429Y-86297619D01*
X134619048Y-86392857D01*
X134619048Y-86535714D01*
X134571429Y-86630952D01*
X134523810Y-86678571D01*
X134428572Y-86726190D01*
X134047619Y-86726190D01*
X135190476Y-87202381D02*
X135095238Y-87154762D01*
X135047619Y-87107143D01*
X135000000Y-87011905D01*
X135000000Y-86726190D01*
X135047619Y-86630952D01*
X135095238Y-86583333D01*
X135190476Y-86535714D01*
X135333334Y-86535714D01*
X135428572Y-86583333D01*
X135476191Y-86630952D01*
X135523810Y-86726190D01*
X135523810Y-87011905D01*
X135476191Y-87107143D01*
X135428572Y-87154762D01*
X135333334Y-87202381D01*
X135190476Y-87202381D01*
X135809524Y-86535714D02*
X136190476Y-86535714D01*
X135952381Y-86202381D02*
X135952381Y-87059524D01*
X136000000Y-87154762D01*
X136095238Y-87202381D01*
X136190476Y-87202381D01*
X131738095Y-95904762D02*
X131880952Y-95952381D01*
X132119048Y-95952381D01*
X132214286Y-95904762D01*
X132261905Y-95857143D01*
X132309524Y-95761905D01*
X132309524Y-95666667D01*
X132261905Y-95571429D01*
X132214286Y-95523810D01*
X132119048Y-95476190D01*
X131928571Y-95428571D01*
X131833333Y-95380952D01*
X131785714Y-95333333D01*
X131738095Y-95238095D01*
X131738095Y-95142857D01*
X131785714Y-95047619D01*
X131833333Y-95000000D01*
X131928571Y-94952381D01*
X132166667Y-94952381D01*
X132309524Y-95000000D01*
X132642857Y-94952381D02*
X133261905Y-94952381D01*
X132928571Y-95333333D01*
X133071429Y-95333333D01*
X133166667Y-95380952D01*
X133214286Y-95428571D01*
X133261905Y-95523810D01*
X133261905Y-95761905D01*
X133214286Y-95857143D01*
X133166667Y-95904762D01*
X133071429Y-95952381D01*
X132785714Y-95952381D01*
X132690476Y-95904762D01*
X132642857Y-95857143D01*
X128904761Y-104654762D02*
X129047618Y-104702381D01*
X129285714Y-104702381D01*
X129380952Y-104654762D01*
X129428571Y-104607143D01*
X129476190Y-104511905D01*
X129476190Y-104416667D01*
X129428571Y-104321429D01*
X129380952Y-104273810D01*
X129285714Y-104226190D01*
X129095237Y-104178571D01*
X128999999Y-104130952D01*
X128952380Y-104083333D01*
X128904761Y-103988095D01*
X128904761Y-103892857D01*
X128952380Y-103797619D01*
X128999999Y-103750000D01*
X129095237Y-103702381D01*
X129333333Y-103702381D01*
X129476190Y-103750000D01*
X130047618Y-104702381D02*
X129952380Y-104654762D01*
X129904761Y-104559524D01*
X129904761Y-103702381D01*
X130428571Y-104702381D02*
X130428571Y-104035714D01*
X130428571Y-103702381D02*
X130380952Y-103750000D01*
X130428571Y-103797619D01*
X130476190Y-103750000D01*
X130428571Y-103702381D01*
X130428571Y-103797619D01*
X131333333Y-104702381D02*
X131333333Y-103702381D01*
X131333333Y-104654762D02*
X131238095Y-104702381D01*
X131047618Y-104702381D01*
X130952380Y-104654762D01*
X130904761Y-104607143D01*
X130857142Y-104511905D01*
X130857142Y-104226190D01*
X130904761Y-104130952D01*
X130952380Y-104083333D01*
X131047618Y-104035714D01*
X131238095Y-104035714D01*
X131333333Y-104083333D01*
X132190476Y-104654762D02*
X132095238Y-104702381D01*
X131904761Y-104702381D01*
X131809523Y-104654762D01*
X131761904Y-104559524D01*
X131761904Y-104178571D01*
X131809523Y-104083333D01*
X131904761Y-104035714D01*
X132095238Y-104035714D01*
X132190476Y-104083333D01*
X132238095Y-104178571D01*
X132238095Y-104273810D01*
X131761904Y-104369048D01*
X132666666Y-104702381D02*
X132666666Y-104035714D01*
X132666666Y-104226190D02*
X132714285Y-104130952D01*
X132761904Y-104083333D01*
X132857142Y-104035714D01*
X132952381Y-104035714D01*
X133047619Y-104797619D02*
X133809524Y-104797619D01*
X134047619Y-104702381D02*
X134047619Y-103702381D01*
X134428572Y-103702381D01*
X134523810Y-103750000D01*
X134571429Y-103797619D01*
X134619048Y-103892857D01*
X134619048Y-104035714D01*
X134571429Y-104130952D01*
X134523810Y-104178571D01*
X134428572Y-104226190D01*
X134047619Y-104226190D01*
X135190476Y-104702381D02*
X135095238Y-104654762D01*
X135047619Y-104607143D01*
X135000000Y-104511905D01*
X135000000Y-104226190D01*
X135047619Y-104130952D01*
X135095238Y-104083333D01*
X135190476Y-104035714D01*
X135333334Y-104035714D01*
X135428572Y-104083333D01*
X135476191Y-104130952D01*
X135523810Y-104226190D01*
X135523810Y-104511905D01*
X135476191Y-104607143D01*
X135428572Y-104654762D01*
X135333334Y-104702381D01*
X135190476Y-104702381D01*
X135809524Y-104035714D02*
X136190476Y-104035714D01*
X135952381Y-103702381D02*
X135952381Y-104559524D01*
X136000000Y-104654762D01*
X136095238Y-104702381D01*
X136190476Y-104702381D01*
X131738095Y-113404762D02*
X131880952Y-113452381D01*
X132119048Y-113452381D01*
X132214286Y-113404762D01*
X132261905Y-113357143D01*
X132309524Y-113261905D01*
X132309524Y-113166667D01*
X132261905Y-113071429D01*
X132214286Y-113023810D01*
X132119048Y-112976190D01*
X131928571Y-112928571D01*
X131833333Y-112880952D01*
X131785714Y-112833333D01*
X131738095Y-112738095D01*
X131738095Y-112642857D01*
X131785714Y-112547619D01*
X131833333Y-112500000D01*
X131928571Y-112452381D01*
X132166667Y-112452381D01*
X132309524Y-112500000D01*
X133166667Y-112785714D02*
X133166667Y-113452381D01*
X132928571Y-112404762D02*
X132690476Y-113119048D01*
X133309524Y-113119048D01*
X128904761Y-122154762D02*
X129047618Y-122202381D01*
X129285714Y-122202381D01*
X129380952Y-122154762D01*
X129428571Y-122107143D01*
X129476190Y-122011905D01*
X129476190Y-121916667D01*
X129428571Y-121821429D01*
X129380952Y-121773810D01*
X129285714Y-121726190D01*
X129095237Y-121678571D01*
X128999999Y-121630952D01*
X128952380Y-121583333D01*
X128904761Y-121488095D01*
X128904761Y-121392857D01*
X128952380Y-121297619D01*
X128999999Y-121250000D01*
X129095237Y-121202381D01*
X129333333Y-121202381D01*
X129476190Y-121250000D01*
X130047618Y-122202381D02*
X129952380Y-122154762D01*
X129904761Y-122059524D01*
X129904761Y-121202381D01*
X130428571Y-122202381D02*
X130428571Y-121535714D01*
X130428571Y-121202381D02*
X130380952Y-121250000D01*
X130428571Y-121297619D01*
X130476190Y-121250000D01*
X130428571Y-121202381D01*
X130428571Y-121297619D01*
X131333333Y-122202381D02*
X131333333Y-121202381D01*
X131333333Y-122154762D02*
X131238095Y-122202381D01*
X131047618Y-122202381D01*
X130952380Y-122154762D01*
X130904761Y-122107143D01*
X130857142Y-122011905D01*
X130857142Y-121726190D01*
X130904761Y-121630952D01*
X130952380Y-121583333D01*
X131047618Y-121535714D01*
X131238095Y-121535714D01*
X131333333Y-121583333D01*
X132190476Y-122154762D02*
X132095238Y-122202381D01*
X131904761Y-122202381D01*
X131809523Y-122154762D01*
X131761904Y-122059524D01*
X131761904Y-121678571D01*
X131809523Y-121583333D01*
X131904761Y-121535714D01*
X132095238Y-121535714D01*
X132190476Y-121583333D01*
X132238095Y-121678571D01*
X132238095Y-121773810D01*
X131761904Y-121869048D01*
X132666666Y-122202381D02*
X132666666Y-121535714D01*
X132666666Y-121726190D02*
X132714285Y-121630952D01*
X132761904Y-121583333D01*
X132857142Y-121535714D01*
X132952381Y-121535714D01*
X133047619Y-122297619D02*
X133809524Y-122297619D01*
X134047619Y-122202381D02*
X134047619Y-121202381D01*
X134428572Y-121202381D01*
X134523810Y-121250000D01*
X134571429Y-121297619D01*
X134619048Y-121392857D01*
X134619048Y-121535714D01*
X134571429Y-121630952D01*
X134523810Y-121678571D01*
X134428572Y-121726190D01*
X134047619Y-121726190D01*
X135190476Y-122202381D02*
X135095238Y-122154762D01*
X135047619Y-122107143D01*
X135000000Y-122011905D01*
X135000000Y-121726190D01*
X135047619Y-121630952D01*
X135095238Y-121583333D01*
X135190476Y-121535714D01*
X135333334Y-121535714D01*
X135428572Y-121583333D01*
X135476191Y-121630952D01*
X135523810Y-121726190D01*
X135523810Y-122011905D01*
X135476191Y-122107143D01*
X135428572Y-122154762D01*
X135333334Y-122202381D01*
X135190476Y-122202381D01*
X135809524Y-121535714D02*
X136190476Y-121535714D01*
X135952381Y-121202381D02*
X135952381Y-122059524D01*
X136000000Y-122154762D01*
X136095238Y-122202381D01*
X136190476Y-122202381D01*
X121852381Y-53261905D02*
X122661905Y-53261905D01*
X122757143Y-53214286D01*
X122804762Y-53166667D01*
X122852381Y-53071429D01*
X122852381Y-52880952D01*
X122804762Y-52785714D01*
X122757143Y-52738095D01*
X122661905Y-52690476D01*
X121852381Y-52690476D01*
X122852381Y-51690476D02*
X122852381Y-52261905D01*
X122852381Y-51976191D02*
X121852381Y-51976191D01*
X121995238Y-52071429D01*
X122090476Y-52166667D01*
X122138095Y-52261905D01*
%LPC*%
D14*
X174625000Y-132842000D03*
X175133000Y-132842000D03*
X175514000Y-132842000D03*
X175895000Y-132842000D03*
X176403000Y-132842000D03*
X90297000Y-132842000D03*
X89916000Y-132842000D03*
X89535000Y-132842000D03*
X89154000Y-132842000D03*
X88646000Y-132842000D03*
D15*
X155650000Y-48550000D03*
X155650000Y-53050000D03*
X149150000Y-48550000D03*
X149150000Y-53050000D03*
X115010000Y-48550000D03*
X115010000Y-53050000D03*
X108510000Y-48550000D03*
X108510000Y-53050000D03*
D16*
X123000000Y-50000000D03*
D17*
X123000000Y-52500000D03*
D18*
X97500000Y-63000000D03*
X92500000Y-68000000D03*
X167500000Y-63000000D03*
X172500000Y-68000000D03*
X97500000Y-80500000D03*
X92500000Y-85500000D03*
X167500000Y-80500000D03*
X172500000Y-85500000D03*
X97500000Y-98000000D03*
X92500000Y-103000000D03*
X167500000Y-98000000D03*
X172500000Y-103000000D03*
X97500000Y-115500000D03*
X92500000Y-120500000D03*
X167500000Y-115500000D03*
X172500000Y-120500000D03*
D19*
X127500000Y-52500000D03*
D20*
X127500000Y-49960000D03*
X130040000Y-52500000D03*
X130040000Y-49960000D03*
X132580000Y-52500000D03*
X132580000Y-49960000D03*
X135120000Y-52500000D03*
X135120000Y-49960000D03*
X137660000Y-52500000D03*
X137660000Y-49960000D03*
D21*
X90000000Y-50000000D03*
X175000000Y-50000000D03*
X90000000Y-127500000D03*
X175000000Y-127500000D03*
D14*
X131826000Y-44704000D03*
X132334000Y-44704000D03*
X132715000Y-44704000D03*
X133096000Y-44704000D03*
X133604000Y-44704000D03*
M02*
