<?xml version="1.0" standalone="no"?>
 <!DOCTYPE svg PUBLIC "-//W3C//DTD SVG 1.1//EN" 
 "http://www.w3.org/Graphics/SVG/1.1/DTD/svg11.dtd"> 
<svg xmlns="http://www.w3.org/2000/svg" version="1.1" 
    width="29.7002cm" height="21.0007cm" viewBox="0 0 116930 82680 ">
<title>SVG Picture created as slide-F_SilkS.svg date 2015/07/29 10:25:37 </title>
  <desc>Picture generated by PCBNEW </desc>
<g style="fill:#000000; fill-opacity:1;stroke:#000000; stroke-opacity:1;
stroke-linecap:round; stroke-linejoin:round; "
 transform="translate(0 0) scale(1 1)">
</g>
<g style="fill:#000000; fill-opacity:0.0; 
stroke:#000000; stroke-width:787.402; stroke-opacity:1; 
stroke-linecap:round; stroke-linejoin:round;">
<path d="M52950 17250
L69900 17250
" />
<path d="M34525 17250
L51575 17250
" />
<path d="M35925 52625
L68375 52625
" />
<path d="M71325 18750
L71325 51200
" />
<path d="M33000 18750
L33000 51150
" />
<path d="M33000 51125 A1500 1500 0.0 0 0 34500 52625 " />
<path d="M71325 18750 A1500 1500 0.0 0 0 69825 17250 " />
<path d="M69825 52625 A1500 1500 0.0 0 0 71325 51125 " />
<path d="M34500 17250 A1500 1500 0.0 0 0 33000 18750 " />
</g>
<g style="fill:#000000; fill-opacity:0.0; 
stroke:#000000; stroke-width:118.11; stroke-opacity:1; 
stroke-linecap:round; stroke-linejoin:round;">
<path d="M64593 20766
L64678 20794
L64818 20794
L64875 20766
L64903 20738
L64931 20682
L64931 20625
L64903 20569
L64875 20541
L64818 20513
L64706 20485
L64650 20457
L64622 20429
L64593 20372
L64593 20316
L64622 20260
L64650 20232
L64706 20204
L64847 20204
L64931 20232
" />
<path d="M65268 20794
L65212 20766
L65184 20710
L65184 20204
" />
<path d="M65493 20794
L65493 20401
" />
<path d="M65493 20204
L65465 20232
L65493 20260
L65521 20232
L65493 20204
L65493 20260
" />
<path d="M66028 20794
L66028 20204
" />
<path d="M66028 20766
L65971 20794
L65859 20794
L65803 20766
L65775 20738
L65746 20682
L65746 20513
L65775 20457
L65803 20429
L65859 20401
L65971 20401
L66028 20429
" />
<path d="M66534 20766
L66478 20794
L66365 20794
L66309 20766
L66281 20710
L66281 20485
L66309 20429
L66365 20401
L66478 20401
L66534 20429
L66562 20485
L66562 20541
L66281 20597
" />
<path d="M66815 20794
L66815 20401
" />
<path d="M66815 20513
L66843 20457
L66871 20429
L66928 20401
L66984 20401
" />
<path d="M67152 20766
L67209 20794
L67321 20794
L67377 20766
L67406 20710
L67406 20682
L67377 20625
L67321 20597
L67237 20597
L67181 20569
L67152 20513
L67152 20485
L67181 20429
L67237 20401
L67321 20401
L67377 20429
" />
<path d="M62822 21149
L63159 21149
" />
<path d="M62991 21739
L62991 21149
" />
<path d="M63356 21739
L63356 21149
" />
<path d="M63609 21739
L63609 21430
L63581 21374
L63525 21345
L63440 21345
L63384 21374
L63356 21402
" />
<path d="M64115 21711
L64059 21739
L63947 21739
L63890 21711
L63862 21655
L63862 21430
L63890 21374
L63947 21345
L64059 21345
L64115 21374
L64143 21430
L64143 21486
L63862 21542
" />
<path d="M64340 21345
L64481 21739
" />
<path d="M64622 21345
L64481 21739
L64425 21880
L64397 21908
L64340 21936
" />
<path d="M65296 21345
L65296 21852
L65268 21908
L65212 21936
L65184 21936
" />
<path d="M65296 21149
L65268 21177
L65296 21205
L65325 21177
L65296 21149
L65296 21205
" />
<path d="M65831 21345
L65831 21739
" />
<path d="M65578 21345
L65578 21655
L65606 21711
L65662 21739
L65746 21739
L65803 21711
L65831 21683
" />
<path d="M66084 21711
L66140 21739
L66253 21739
L66309 21711
L66337 21655
L66337 21627
L66309 21570
L66253 21542
L66168 21542
L66112 21514
L66084 21458
L66084 21430
L66112 21374
L66168 21345
L66253 21345
L66309 21374
" />
<path d="M66506 21345
L66731 21345
" />
<path d="M66590 21149
L66590 21655
L66618 21711
L66674 21739
L66731 21739
" />
<path d="M67321 21345
L67434 21739
L67546 21458
L67659 21739
L67771 21345
" />
<path d="M68080 21739
L68024 21711
L67996 21683
L67968 21627
L67968 21458
L67996 21402
L68024 21374
L68080 21345
L68165 21345
L68221 21374
L68249 21402
L68277 21458
L68277 21627
L68249 21683
L68221 21711
L68165 21739
L68080 21739
" />
<path d="M68530 21739
L68530 21345
" />
<path d="M68530 21458
L68559 21402
L68587 21374
L68643 21345
L68699 21345
" />
<path d="M68896 21739
L68896 21149
" />
<path d="M68952 21514
L69121 21739
" />
<path d="M69121 21345
L68896 21570
" />
</g>
<g style="fill:#000000; fill-opacity:0.0; 
stroke:#000000; stroke-width:59.0551; stroke-opacity:1; 
stroke-linecap:round; stroke-linejoin:round;">
<path d="M59475 19765
L59531 19784
L59625 19784
L59662 19765
L59681 19746
L59700 19709
L59700 19671
L59681 19634
L59662 19615
L59625 19596
L59550 19578
L59512 19559
L59493 19540
L59475 19503
L59475 19465
L59493 19428
L59512 19409
L59550 19390
L59643 19390
L59700 19409
" />
<path d="M59831 19390
L59925 19784
L60000 19503
L60074 19784
L60168 19390
" />
<path d="M60299 19428
L60318 19409
L60356 19390
L60449 19390
L60487 19409
L60506 19428
L60524 19465
L60524 19503
L60506 19559
L60281 19784
L60524 19784
" />
<path d="M43475 19765
L43531 19784
L43625 19784
L43662 19765
L43681 19746
L43700 19709
L43700 19671
L43681 19634
L43662 19615
L43625 19596
L43550 19578
L43512 19559
L43493 19540
L43475 19503
L43475 19465
L43493 19428
L43512 19409
L43550 19390
L43643 19390
L43700 19409
" />
<path d="M43831 19390
L43925 19784
L44000 19503
L44074 19784
L44168 19390
" />
<path d="M44524 19784
L44299 19784
" />
<path d="M44412 19784
L44412 19390
L44374 19446
L44337 19484
L44299 19503
" />
<path d="M49550 20242
L49568 20261
L49587 20317
L49587 20355
L49568 20411
L49531 20449
L49493 20467
L49418 20486
L49362 20486
L49287 20467
L49250 20449
L49212 20411
L49193 20355
L49193 20317
L49212 20261
L49231 20242
" />
<path d="M49587 19867
L49587 20092
" />
<path d="M49587 19980
L49193 19980
L49250 20017
L49287 20055
L49306 20092
" />
<path d="M51865 23978
L51921 23997
L52015 23997
L52052 23978
L52071 23959
L52090 23922
L52090 23884
L52071 23847
L52052 23828
L52015 23809
L51940 23790
L51902 23772
L51884 23753
L51865 23715
L51865 23678
L51884 23640
L51902 23622
L51940 23603
L52034 23603
L52090 23622
" />
<path d="M52465 23997
L52240 23997
" />
<path d="M52352 23997
L52352 23603
L52315 23659
L52277 23697
L52240 23715
" />
<path d="M50749 27423
L50806 27441
L50899 27441
L50937 27423
L50956 27404
L50974 27366
L50974 27329
L50956 27291
L50937 27273
L50899 27254
L50824 27235
L50787 27216
L50768 27198
L50749 27160
L50749 27123
L50768 27085
L50787 27066
L50824 27048
L50918 27048
L50974 27066
" />
<path d="M51199 27441
L51162 27423
L51143 27385
L51143 27048
" />
<path d="M51349 27441
L51349 27179
" />
<path d="M51349 27048
L51331 27066
L51349 27085
L51368 27066
L51349 27048
L51349 27085
" />
<path d="M51706 27441
L51706 27048
" />
<path d="M51706 27423
L51668 27441
L51593 27441
L51556 27423
L51537 27404
L51518 27366
L51518 27254
L51537 27216
L51556 27198
L51593 27179
L51668 27179
L51706 27198
" />
<path d="M52043 27423
L52005 27441
L51931 27441
L51893 27423
L51874 27385
L51874 27235
L51893 27198
L51931 27179
L52005 27179
L52043 27198
L52062 27235
L52062 27273
L51874 27310
" />
<path d="M52230 27441
L52230 27179
" />
<path d="M52230 27254
L52249 27216
L52268 27198
L52305 27179
L52343 27179
" />
<path d="M52380 27479
L52680 27479
" />
<path d="M52774 27441
L52774 27048
L52924 27048
L52962 27066
L52980 27085
L52999 27123
L52999 27179
L52980 27216
L52962 27235
L52924 27254
L52774 27254
" />
<path d="M53224 27441
L53187 27423
L53168 27404
L53149 27366
L53149 27254
L53168 27216
L53187 27198
L53224 27179
L53280 27179
L53318 27198
L53337 27216
L53355 27254
L53355 27366
L53337 27404
L53318 27423
L53280 27441
L53224 27441
" />
<path d="M53468 27179
L53618 27179
" />
<path d="M53524 27048
L53524 27385
L53543 27423
L53580 27441
L53618 27441
" />
<path d="M51865 30868
L51921 30886
L52015 30886
L52052 30868
L52071 30849
L52090 30811
L52090 30774
L52071 30736
L52052 30718
L52015 30699
L51940 30680
L51902 30661
L51884 30643
L51865 30605
L51865 30568
L51884 30530
L51902 30511
L51940 30493
L52034 30493
L52090 30511
" />
<path d="M52240 30530
L52259 30511
L52296 30493
L52390 30493
L52427 30511
L52446 30530
L52465 30568
L52465 30605
L52446 30661
L52221 30886
L52465 30886
" />
<path d="M50749 34312
L50806 34331
L50899 34331
L50937 34312
L50956 34294
L50974 34256
L50974 34219
L50956 34181
L50937 34162
L50899 34144
L50824 34125
L50787 34106
L50768 34087
L50749 34050
L50749 34012
L50768 33975
L50787 33956
L50824 33937
L50918 33937
L50974 33956
" />
<path d="M51199 34331
L51162 34312
L51143 34275
L51143 33937
" />
<path d="M51349 34331
L51349 34069
" />
<path d="M51349 33937
L51331 33956
L51349 33975
L51368 33956
L51349 33937
L51349 33975
" />
<path d="M51706 34331
L51706 33937
" />
<path d="M51706 34312
L51668 34331
L51593 34331
L51556 34312
L51537 34294
L51518 34256
L51518 34144
L51537 34106
L51556 34087
L51593 34069
L51668 34069
L51706 34087
" />
<path d="M52043 34312
L52005 34331
L51931 34331
L51893 34312
L51874 34275
L51874 34125
L51893 34087
L51931 34069
L52005 34069
L52043 34087
L52062 34125
L52062 34162
L51874 34200
" />
<path d="M52230 34331
L52230 34069
" />
<path d="M52230 34144
L52249 34106
L52268 34087
L52305 34069
L52343 34069
" />
<path d="M52380 34369
L52680 34369
" />
<path d="M52774 34331
L52774 33937
L52924 33937
L52962 33956
L52980 33975
L52999 34012
L52999 34069
L52980 34106
L52962 34125
L52924 34144
L52774 34144
" />
<path d="M53224 34331
L53187 34312
L53168 34294
L53149 34256
L53149 34144
L53168 34106
L53187 34087
L53224 34069
L53280 34069
L53318 34087
L53337 34106
L53355 34144
L53355 34256
L53337 34294
L53318 34312
L53280 34331
L53224 34331
" />
<path d="M53468 34069
L53618 34069
" />
<path d="M53524 33937
L53524 34275
L53543 34312
L53580 34331
L53618 34331
" />
<path d="M51865 37757
L51921 37776
L52015 37776
L52052 37757
L52071 37739
L52090 37701
L52090 37664
L52071 37626
L52052 37607
L52015 37589
L51940 37570
L51902 37551
L51884 37532
L51865 37495
L51865 37457
L51884 37420
L51902 37401
L51940 37382
L52034 37382
L52090 37401
" />
<path d="M52221 37382
L52465 37382
L52334 37532
L52390 37532
L52427 37551
L52446 37570
L52465 37607
L52465 37701
L52446 37739
L52427 37757
L52390 37776
L52277 37776
L52240 37757
L52221 37739
" />
<path d="M50749 41202
L50806 41221
L50899 41221
L50937 41202
L50956 41183
L50974 41146
L50974 41108
L50956 41071
L50937 41052
L50899 41033
L50824 41015
L50787 40996
L50768 40977
L50749 40940
L50749 40902
L50768 40865
L50787 40846
L50824 40827
L50918 40827
L50974 40846
" />
<path d="M51199 41221
L51162 41202
L51143 41165
L51143 40827
" />
<path d="M51349 41221
L51349 40958
" />
<path d="M51349 40827
L51331 40846
L51349 40865
L51368 40846
L51349 40827
L51349 40865
" />
<path d="M51706 41221
L51706 40827
" />
<path d="M51706 41202
L51668 41221
L51593 41221
L51556 41202
L51537 41183
L51518 41146
L51518 41033
L51537 40996
L51556 40977
L51593 40958
L51668 40958
L51706 40977
" />
<path d="M52043 41202
L52005 41221
L51931 41221
L51893 41202
L51874 41165
L51874 41015
L51893 40977
L51931 40958
L52005 40958
L52043 40977
L52062 41015
L52062 41052
L51874 41090
" />
<path d="M52230 41221
L52230 40958
" />
<path d="M52230 41033
L52249 40996
L52268 40977
L52305 40958
L52343 40958
" />
<path d="M52380 41258
L52680 41258
" />
<path d="M52774 41221
L52774 40827
L52924 40827
L52962 40846
L52980 40865
L52999 40902
L52999 40958
L52980 40996
L52962 41015
L52924 41033
L52774 41033
" />
<path d="M53224 41221
L53187 41202
L53168 41183
L53149 41146
L53149 41033
L53168 40996
L53187 40977
L53224 40958
L53280 40958
L53318 40977
L53337 40996
L53355 41033
L53355 41146
L53337 41183
L53318 41202
L53280 41221
L53224 41221
" />
<path d="M53468 40958
L53618 40958
" />
<path d="M53524 40827
L53524 41165
L53543 41202
L53580 41221
L53618 41221
" />
<path d="M51865 44647
L51921 44666
L52015 44666
L52052 44647
L52071 44628
L52090 44591
L52090 44553
L52071 44516
L52052 44497
L52015 44478
L51940 44460
L51902 44441
L51884 44422
L51865 44385
L51865 44347
L51884 44310
L51902 44291
L51940 44272
L52034 44272
L52090 44291
" />
<path d="M52427 44403
L52427 44666
" />
<path d="M52334 44253
L52240 44535
L52484 44535
" />
<path d="M50749 48092
L50806 48111
L50899 48111
L50937 48092
L50956 48073
L50974 48036
L50974 47998
L50956 47961
L50937 47942
L50899 47923
L50824 47904
L50787 47886
L50768 47867
L50749 47829
L50749 47792
L50768 47754
L50787 47736
L50824 47717
L50918 47717
L50974 47736
" />
<path d="M51199 48111
L51162 48092
L51143 48054
L51143 47717
" />
<path d="M51349 48111
L51349 47848
" />
<path d="M51349 47717
L51331 47736
L51349 47754
L51368 47736
L51349 47717
L51349 47754
" />
<path d="M51706 48111
L51706 47717
" />
<path d="M51706 48092
L51668 48111
L51593 48111
L51556 48092
L51537 48073
L51518 48036
L51518 47923
L51537 47886
L51556 47867
L51593 47848
L51668 47848
L51706 47867
" />
<path d="M52043 48092
L52005 48111
L51931 48111
L51893 48092
L51874 48054
L51874 47904
L51893 47867
L51931 47848
L52005 47848
L52043 47867
L52062 47904
L52062 47942
L51874 47979
" />
<path d="M52230 48111
L52230 47848
" />
<path d="M52230 47923
L52249 47886
L52268 47867
L52305 47848
L52343 47848
" />
<path d="M52380 48148
L52680 48148
" />
<path d="M52774 48111
L52774 47717
L52924 47717
L52962 47736
L52980 47754
L52999 47792
L52999 47848
L52980 47886
L52962 47904
L52924 47923
L52774 47923
" />
<path d="M53224 48111
L53187 48092
L53168 48073
L53149 48036
L53149 47923
L53168 47886
L53187 47867
L53224 47848
L53280 47848
L53318 47867
L53337 47886
L53355 47923
L53355 48036
L53337 48073
L53318 48092
L53280 48111
L53224 48111
" />
<path d="M53468 47848
L53618 47848
" />
<path d="M53524 47717
L53524 48054
L53543 48092
L53580 48111
L53618 48111
" />
<path d="M47973 20969
L48292 20969
L48329 20950
L48348 20931
L48367 20894
L48367 20819
L48348 20781
L48329 20763
L48292 20744
L47973 20744
" />
<path d="M48367 20350
L48367 20575
" />
<path d="M48367 20463
L47973 20463
L48029 20500
L48067 20538
L48085 20575
" />
<path d="M58818 21181
L58818 18818
" />
<path d="M58818 18818
L61181 18818
" />
<path d="M61181 18818
L61181 21181
" />
<path d="M61181 21181
L58818 21181
" />
<circle cx="60000" cy="20000" r="573.913" /> 
<path d="M42818 21181
L42818 18818
" />
<path d="M42818 18818
L45181 18818
" />
<path d="M45181 18818
L45181 21181
" />
<path d="M45181 21181
L42818 21181
" />
<circle cx="44000" cy="20000" r="573.913" /> 
<path d="M48917 19586
L48917 20767
" />
<path d="M47933 20767
L47933 19586
" />
<path d="M34842 23129
L69488 23129
" />
<path d="M69488 23129
L69488 28051
" />
<path d="M69488 28051
L34842 28051
" />
<path d="M34842 23129
L34842 28051
" />
<path d="M34842 30019
L69488 30019
" />
<path d="M69488 30019
L69488 34940
" />
<path d="M69488 34940
L34842 34940
" />
<path d="M34842 30019
L34842 34940
" />
<path d="M34842 36909
L69488 36909
" />
<path d="M69488 36909
L69488 41830
" />
<path d="M69488 41830
L34842 41830
" />
<path d="M34842 36909
L34842 41830
" />
<path d="M34842 43799
L69488 43799
" />
<path d="M69488 43799
L69488 48720
" />
<path d="M69488 48720
L34842 48720
" />
<path d="M34842 43799
L34842 48720
" />
<path d="M49696 19169
L54696 19169
" />
<path d="M54696 19169
L54696 21169
" />
<path d="M54696 21169
L50696 21169
" />
<path d="M49696 19169
L49696 20169
" />
<path d="M49586 20669
L49586 21279
" />
<path d="M49696 20169
L50696 20169
" />
<path d="M50696 20169
L50696 21169
" />
<path d="M49586 21279
L50196 21279
" />
</g>
<g style="fill:#000000; fill-opacity:1.0; 
stroke:#000000; stroke-width:39.3701; stroke-opacity:1; 
stroke-linecap:round; stroke-linejoin:round;">
<polyline style="fill-rule:evenodd;"
points="38052,22275
38051,22319
38000,22333
37986,22333
37941,22327
37908,22299
37877,22236
37841,22125
37831,22091
37793,21971
37759,21876
37736,21824
37733,21822
37710,21835
37677,21897
37649,21972
37613,22074
37583,22149
37569,22174
37539,22163
37483,22109
37415,22026
37344,21936
37303,21893
37282,21893
37272,21928
37271,21934
37267,22009
37268,22124
37272,22241
37278,22360
37274,22428
37257,22458
37224,22466
37214,22466
37173,22458
37148,22425
37132,22352
37121,22261
37110,22116
37102,21945
37100,21811
37101,21685
37109,21611
37126,21576
37156,21566
37164,21566
37221,21593
37298,21664
37355,21731
37425,21818
37480,21878
37505,21898
37526,21870
37559,21794
37598,21687
37600,21683
37645,21560
37685,21492
37725,21467
37734,21466
37755,21469
37775,21483
37797,21516
37823,21574
37857,21665
37901,21796
37958,21974
38031,22207
38052,22275
38052,22275
" /> 
<polyline style="fill-rule:evenodd;"
points="38666,22124
38636,22186
38560,22233
38456,22261
38344,22264
38243,22240
38224,22230
38158,22164
38100,22063
38068,21959
38066,21933
38095,21805
38171,21702
38278,21635
38401,21615
38480,21632
38542,21677
38600,21751
38641,21831
38650,21895
38646,21906
38601,21930
38516,21947
38418,21956
38334,21953
38292,21939
38288,21909
38345,21882
38370,21875
38454,21841
38472,21801
38424,21753
38419,21750
38350,21734
38292,21769
38252,21839
38237,21926
38253,22015
38288,22072
38374,22119
38494,22120
38608,22084
38654,22079
38666,22124
38666,22124
" /> 
<polyline style="fill-rule:evenodd;"
points="39030,21321
39019,21438
38992,21609
38949,21838
38919,21983
38892,22097
38864,22160
38826,22188
38801,22194
38746,22193
38737,22154
38742,22127
38755,22063
38775,21951
38798,21806
38818,21683
38852,21491
38888,21358
38927,21277
38974,21238
39006,21233
39025,21254
39030,21321
39030,21321
" /> 
<polyline style="fill-rule:evenodd;"
points="39463,22042
39456,22073
39393,22096
39341,22069
39291,21996
39243,21927
39191,21905
39116,21914
39038,21924
39006,21908
39000,21854
39000,21851
39015,21785
39066,21766
39117,21761
39128,21735
39103,21673
39086,21638
39054,21507
39062,21433
39085,21319
39291,21683
39382,21852
39439,21970
39463,22042
39463,22042
" /> 
<polyline style="fill-rule:evenodd;"
points="39800,21433
39787,21487
39769,21500
39722,21521
39690,21547
39666,21584
39659,21639
39669,21731
39683,21811
39704,21926
39709,21992
39697,22024
39666,22038
39649,22041
39614,22043
39588,22025
39567,21976
39545,21883
39521,21754
39496,21591
39490,21485
39506,21426
39546,21408
39605,21418
39663,21416
39682,21401
39731,21367
39780,21383
39800,21433
39800,21433
" /> 
<polyline style="fill-rule:evenodd;"
points="40927,21760
40923,21812
40900,21831
40872,21833
40828,21825
40798,21792
40775,21720
40753,21597
40750,21578
40725,21475
40693,21392
40684,21379
40644,21340
40592,21343
40549,21360
40508,21381
40483,21407
40472,21450
40476,21523
40494,21637
40521,21794
40530,21868
40513,21896
40463,21894
40411,21875
40380,21823
40360,21733
40328,21570
40293,21466
40249,21415
40192,21410
40126,21436
40091,21466
40074,21515
40074,21595
40092,21719
40119,21858
40129,21932
40110,21961
40059,21966
40019,21962
39992,21941
39971,21891
39953,21798
39934,21675
39916,21543
39904,21438
39901,21376
39903,21366
39943,21352
39983,21350
40060,21336
40092,21322
40152,21305
40244,21302
40259,21303
40375,21294
40494,21261
40506,21256
40635,21220
40738,21242
40819,21324
40878,21466
40916,21658
40927,21760
40927,21760
" /> 
<polyline style="fill-rule:evenodd;"
points="40716,20483
40708,20591
40677,20663
40623,20719
40580,20752
40535,20775
40474,20789
40384,20796
40251,20799
40099,20800
39925,20797
39773,20789
39657,20778
39593,20763
39593,20763
39550,20728
39472,20649
39367,20533
39240,20390
39099,20226
39019,20130
38878,19962
38752,19812
38647,19689
38569,19599
38523,19549
38514,19541
38502,19574
38470,19660
38422,19791
38361,19958
38291,20152
38250,20266
38158,20517
38084,20712
38023,20858
37973,20963
37930,21034
37895,21075
37774,21150
37642,21160
37533,21123
37441,21044
37380,20930
37367,20848
37378,20803
37409,20705
37456,20562
37517,20385
37588,20182
37665,19963
37746,19737
37827,19513
37905,19301
37977,19109
38038,18947
38086,18824
38118,18751
38202,18641
38317,18580
38446,18570
38570,18616
38604,18641
38648,18686
38727,18775
38837,18900
38970,19054
39120,19230
39280,19421
39297,19441
39903,20166
40216,20166
40367,20168
40468,20175
40536,20191
40588,20219
40623,20247
40683,20312
40711,20387
40716,20483
40716,20483
" /> 
<circle cx="68750" cy="52300" r="39.3701" /> 
<circle cx="68950" cy="52300" r="39.3701" /> 
<circle cx="69100" cy="52300" r="39.3701" /> 
<circle cx="69250" cy="52300" r="39.3701" /> 
<circle cx="69450" cy="52300" r="39.3701" /> 
<circle cx="35550" cy="52300" r="39.3701" /> 
<circle cx="35400" cy="52300" r="39.3701" /> 
<circle cx="35250" cy="52300" r="39.3701" /> 
<circle cx="35100" cy="52300" r="39.3701" /> 
<circle cx="34900" cy="52300" r="39.3701" /> 
</g>
<g style="fill:#000000; fill-opacity:1.0; 
stroke:#000000; stroke-width:600; stroke-opacity:1; 
stroke-linecap:round; stroke-linejoin:round;">
</g>
<g style="fill:#000000; fill-opacity:0.0; 
stroke:#000000; stroke-width:600; stroke-opacity:1; 
stroke-linecap:round; stroke-linejoin:round;">
<path d="M61412 19114
L61146 19114
" />
<path d="M61412 20885
L61146 20885
" />
<path d="M58853 19114
L58587 19114
" />
<path d="M58853 20885
L58587 20885
" />
<path d="M45412 19114
L45146 19114
" />
<path d="M45412 20885
L45146 20885
" />
<path d="M42853 19114
L42587 19114
" />
<path d="M42853 20885
L42587 20885
" />
</g>
<g style="fill:#000000; fill-opacity:0.0; 
stroke:#000000; stroke-width:39.3701; stroke-opacity:1; 
stroke-linecap:round; stroke-linejoin:round;">
</g>
<g style="fill:#000000; fill-opacity:1.0; 
stroke:#000000; stroke-width:39.3701; stroke-opacity:1; 
stroke-linecap:round; stroke-linejoin:round;">
<polyline style="fill-rule:evenodd;"
points="48188,19448
48661,19448
48661,19921
48188,19921
48188,19448
" /> 
<circle cx="48425.2" cy="20669.3" r="236.22" /> 
</g>
<g style="fill:#000000; fill-opacity:1.0; 
stroke:#000000; stroke-width:944.882; stroke-opacity:1; 
stroke-linecap:round; stroke-linejoin:round;">
</g>
<g style="fill:#000000; fill-opacity:0.0; 
stroke:#000000; stroke-width:944.882; stroke-opacity:1; 
stroke-linecap:round; stroke-linejoin:round;">
<path d="M38385 24685
L38385 24921
" />
<path d="M36417 26653
L36417 26889
" />
<path d="M65944 24685
L65944 24921
" />
<path d="M67913 26653
L67913 26889
" />
<path d="M38385 31574
L38385 31811
" />
<path d="M36417 33543
L36417 33779
" />
<path d="M65944 31574
L65944 31811
" />
<path d="M67913 33543
L67913 33779
" />
<path d="M38385 38464
L38385 38700
" />
<path d="M36417 40433
L36417 40669
" />
<path d="M65944 38464
L65944 38700
" />
<path d="M67913 40433
L67913 40669
" />
<path d="M38385 45354
L38385 45590
" />
<path d="M36417 47322
L36417 47559
" />
<path d="M65944 45354
L65944 45590
" />
<path d="M67913 47322
L67913 47559
" />
</g>
<g style="fill:#000000; fill-opacity:0.0; 
stroke:#000000; stroke-width:39.3701; stroke-opacity:1; 
stroke-linecap:round; stroke-linejoin:round;">
</g>
<g style="fill:#000000; fill-opacity:1.0; 
stroke:#000000; stroke-width:39.3701; stroke-opacity:1; 
stroke-linecap:round; stroke-linejoin:round;">
<polyline style="fill-rule:evenodd;"
points="50517,20989
49876,20989
49876,20348
50517,20348
50517,20989
" /> 
</g>
<g style="fill:#000000; fill-opacity:1.0; 
stroke:#000000; stroke-width:680; stroke-opacity:1; 
stroke-linecap:round; stroke-linejoin:round;">
</g>
<g style="fill:#000000; fill-opacity:0.0; 
stroke:#000000; stroke-width:680; stroke-opacity:1; 
stroke-linecap:round; stroke-linejoin:round;">
<path d="M50196 19669
L50196 19669
" />
<path d="M51196 20669
L51196 20669
" />
<path d="M51196 19669
L51196 19669
" />
<path d="M52196 20669
L52196 20669
" />
<path d="M52196 19669
L52196 19669
" />
<path d="M53196 20669
L53196 20669
" />
<path d="M53196 19669
L53196 19669
" />
<path d="M54196 20669
L54196 20669
" />
<path d="M54196 19669
L54196 19669
" />
</g>
<g style="fill:#000000; fill-opacity:0.0; 
stroke:#000000; stroke-width:39.3701; stroke-opacity:1; 
stroke-linecap:round; stroke-linejoin:round;">
</g>
<g style="fill:#000000; fill-opacity:1.0; 
stroke:#000000; stroke-width:39.3701; stroke-opacity:1; 
stroke-linecap:round; stroke-linejoin:round;">
<circle cx="35433.1" cy="19685" r="767.717" /> 
<circle cx="68897.6" cy="19685" r="767.717" /> 
<circle cx="35433.1" cy="50196.9" r="767.717" /> 
<circle cx="68897.6" cy="50196.9" r="767.717" /> 
<circle cx="51900" cy="17600" r="39.3701" /> 
<circle cx="52100" cy="17600" r="39.3701" /> 
<circle cx="52250" cy="17600" r="39.3701" /> 
<circle cx="52400" cy="17600" r="39.3701" /> 
<circle cx="52600" cy="17600" r="39.3701" /> 
</g> 
</svg>
