G04 #@! TF.FileFunction,Soldermask,Bot*
%FSLAX46Y46*%
G04 Gerber Fmt 4.6, Leading zero omitted, Abs format (unit mm)*
G04 Created by KiCad (PCBNEW (2015-01-16 BZR 5376)-product) date 24/06/2015 09:07:54*
%MOMM*%
G01*
G04 APERTURE LIST*
%ADD10C,0.100000*%
%ADD11C,4.000000*%
%ADD12C,0.300000*%
%ADD13R,1.727200X1.727200*%
%ADD14O,1.727200X1.727200*%
%ADD15O,2.400000X3.000000*%
%ADD16R,1.300000X1.300000*%
%ADD17C,1.300000*%
%ADD18O,2.200000X1.524000*%
G04 APERTURE END LIST*
D10*
D11*
X240030000Y-203200000D03*
X33020000Y-207010000D03*
X238760000Y-25400000D03*
D12*
X188087000Y-25019000D03*
X187579000Y-25019000D03*
X187198000Y-25019000D03*
X186817000Y-25019000D03*
X186309000Y-25019000D03*
D11*
X229483000Y-107815000D03*
X144483000Y-107815000D03*
X229483000Y-30315000D03*
X144483000Y-30315000D03*
D13*
X181983000Y-32815000D03*
D14*
X181983000Y-30275000D03*
X184523000Y-32815000D03*
X184523000Y-30275000D03*
X187063000Y-32815000D03*
X187063000Y-30275000D03*
X189603000Y-32815000D03*
X189603000Y-30275000D03*
X192143000Y-32815000D03*
X192143000Y-30275000D03*
D15*
X151983000Y-95815000D03*
X146983000Y-100815000D03*
X221983000Y-95815000D03*
X226983000Y-100815000D03*
X151983000Y-78315000D03*
X146983000Y-83315000D03*
X221983000Y-78315000D03*
X226983000Y-83315000D03*
X151983000Y-60815000D03*
X146983000Y-65815000D03*
X221983000Y-60815000D03*
X226983000Y-65815000D03*
X151983000Y-43315000D03*
X146983000Y-48315000D03*
X221983000Y-43315000D03*
X226983000Y-48315000D03*
D16*
X177483000Y-30315000D03*
D17*
X177483000Y-32815000D03*
D18*
X169493000Y-28865000D03*
X169493000Y-33365000D03*
X162993000Y-28865000D03*
X162993000Y-33365000D03*
X210133000Y-28865000D03*
X210133000Y-33365000D03*
X203633000Y-28865000D03*
X203633000Y-33365000D03*
D12*
X143129000Y-113157000D03*
X143637000Y-113157000D03*
X144018000Y-113157000D03*
X144399000Y-113157000D03*
X144780000Y-113157000D03*
X230886000Y-113157000D03*
X230378000Y-113157000D03*
X229997000Y-113157000D03*
X229616000Y-113157000D03*
X229108000Y-113157000D03*
X229108000Y-207137000D03*
X229616000Y-207137000D03*
X229997000Y-207137000D03*
X230378000Y-207137000D03*
X230886000Y-207137000D03*
X144780000Y-207137000D03*
X144399000Y-207137000D03*
X144018000Y-207137000D03*
X143637000Y-207137000D03*
X143129000Y-207137000D03*
D18*
X210133000Y-122845000D03*
X210133000Y-127345000D03*
X203633000Y-122845000D03*
X203633000Y-127345000D03*
X169493000Y-122845000D03*
X169493000Y-127345000D03*
X162993000Y-122845000D03*
X162993000Y-127345000D03*
D16*
X177483000Y-124295000D03*
D17*
X177483000Y-126795000D03*
D15*
X151983000Y-137295000D03*
X146983000Y-142295000D03*
X221983000Y-137295000D03*
X226983000Y-142295000D03*
X151983000Y-154795000D03*
X146983000Y-159795000D03*
X221983000Y-154795000D03*
X226983000Y-159795000D03*
X151983000Y-172295000D03*
X146983000Y-177295000D03*
X221983000Y-172295000D03*
X226983000Y-177295000D03*
X151983000Y-189795000D03*
X146983000Y-194795000D03*
X221983000Y-189795000D03*
X226983000Y-194795000D03*
D13*
X181983000Y-126795000D03*
D14*
X181983000Y-124255000D03*
X184523000Y-126795000D03*
X184523000Y-124255000D03*
X187063000Y-126795000D03*
X187063000Y-124255000D03*
X189603000Y-126795000D03*
X189603000Y-124255000D03*
X192143000Y-126795000D03*
X192143000Y-124255000D03*
D11*
X144483000Y-124295000D03*
X229483000Y-124295000D03*
X144483000Y-201795000D03*
X229483000Y-201795000D03*
D12*
X186309000Y-118999000D03*
X186817000Y-118999000D03*
X187198000Y-118999000D03*
X187579000Y-118999000D03*
X188087000Y-118999000D03*
X86487000Y-118999000D03*
X85979000Y-118999000D03*
X85598000Y-118999000D03*
X85217000Y-118999000D03*
X84709000Y-118999000D03*
D11*
X127883000Y-201795000D03*
X42883000Y-201795000D03*
X127883000Y-124295000D03*
X42883000Y-124295000D03*
D13*
X80383000Y-126795000D03*
D14*
X80383000Y-124255000D03*
X82923000Y-126795000D03*
X82923000Y-124255000D03*
X85463000Y-126795000D03*
X85463000Y-124255000D03*
X88003000Y-126795000D03*
X88003000Y-124255000D03*
X90543000Y-126795000D03*
X90543000Y-124255000D03*
D15*
X50383000Y-189795000D03*
X45383000Y-194795000D03*
X120383000Y-189795000D03*
X125383000Y-194795000D03*
X50383000Y-172295000D03*
X45383000Y-177295000D03*
X120383000Y-172295000D03*
X125383000Y-177295000D03*
X50383000Y-154795000D03*
X45383000Y-159795000D03*
X120383000Y-154795000D03*
X125383000Y-159795000D03*
X50383000Y-137295000D03*
X45383000Y-142295000D03*
X120383000Y-137295000D03*
X125383000Y-142295000D03*
D16*
X75883000Y-124295000D03*
D17*
X75883000Y-126795000D03*
D18*
X67893000Y-122845000D03*
X67893000Y-127345000D03*
X61393000Y-122845000D03*
X61393000Y-127345000D03*
X108533000Y-122845000D03*
X108533000Y-127345000D03*
X102033000Y-122845000D03*
X102033000Y-127345000D03*
D12*
X41529000Y-207137000D03*
X42037000Y-207137000D03*
X42418000Y-207137000D03*
X42799000Y-207137000D03*
X43180000Y-207137000D03*
X129286000Y-207137000D03*
X128778000Y-207137000D03*
X128397000Y-207137000D03*
X128016000Y-207137000D03*
X127508000Y-207137000D03*
X127508000Y-113157000D03*
X128016000Y-113157000D03*
X128397000Y-113157000D03*
X128778000Y-113157000D03*
X129286000Y-113157000D03*
X43180000Y-113157000D03*
X42799000Y-113157000D03*
X42418000Y-113157000D03*
X42037000Y-113157000D03*
X41529000Y-113157000D03*
D18*
X108533000Y-28865000D03*
X108533000Y-33365000D03*
X102033000Y-28865000D03*
X102033000Y-33365000D03*
X67893000Y-28865000D03*
X67893000Y-33365000D03*
X61393000Y-28865000D03*
X61393000Y-33365000D03*
D16*
X75883000Y-30315000D03*
D17*
X75883000Y-32815000D03*
D15*
X50383000Y-43315000D03*
X45383000Y-48315000D03*
X120383000Y-43315000D03*
X125383000Y-48315000D03*
X50383000Y-60815000D03*
X45383000Y-65815000D03*
X120383000Y-60815000D03*
X125383000Y-65815000D03*
X50383000Y-78315000D03*
X45383000Y-83315000D03*
X120383000Y-78315000D03*
X125383000Y-83315000D03*
X50383000Y-95815000D03*
X45383000Y-100815000D03*
X120383000Y-95815000D03*
X125383000Y-100815000D03*
D13*
X80383000Y-32815000D03*
D14*
X80383000Y-30275000D03*
X82923000Y-32815000D03*
X82923000Y-30275000D03*
X85463000Y-32815000D03*
X85463000Y-30275000D03*
X88003000Y-32815000D03*
X88003000Y-30275000D03*
X90543000Y-32815000D03*
X90543000Y-30275000D03*
D11*
X42883000Y-30315000D03*
X127883000Y-30315000D03*
X42883000Y-107815000D03*
X127883000Y-107815000D03*
D12*
X84709000Y-25019000D03*
X85217000Y-25019000D03*
X85598000Y-25019000D03*
X85979000Y-25019000D03*
X86487000Y-25019000D03*
D11*
X33020000Y-25400000D03*
M02*
