G04 #@! TF.FileFunction,Legend,Top*
%FSLAX46Y46*%
G04 Gerber Fmt 4.6, Leading zero omitted, Abs format (unit mm)*
G04 Created by KiCad (PCBNEW (2015-01-16 BZR 5376)-product) date 27/05/2015 14:11:43*
%MOMM*%
G01*
G04 APERTURE LIST*
%ADD10C,0.100000*%
%ADD11C,0.300000*%
%ADD12C,0.150000*%
%ADD13R,1.000000X8.000000*%
%ADD14R,2.032000X1.524000*%
%ADD15C,2.000000*%
%ADD16R,2.000000X2.000000*%
%ADD17R,1.574800X2.286000*%
%ADD18O,1.574800X2.286000*%
%ADD19R,1.727200X1.727200*%
%ADD20O,1.727200X1.727200*%
%ADD21C,4.800600*%
%ADD22R,4.800600X4.800600*%
%ADD23R,2.000000X1.200000*%
%ADD24R,3.657600X2.032000*%
%ADD25R,1.016000X2.032000*%
%ADD26R,2.032000X1.727200*%
%ADD27O,2.032000X1.727200*%
%ADD28C,1.500000*%
%ADD29R,1.780000X3.500000*%
%ADD30C,4.000000*%
%ADD31R,0.920000X3.600000*%
%ADD32R,1.600000X1.000000*%
%ADD33R,1.250000X1.000000*%
G04 APERTURE END LIST*
D10*
D11*
X150388573Y-88447857D02*
X151074287Y-88447857D01*
X150731430Y-89647857D02*
X150731430Y-88447857D01*
X151474287Y-89647857D02*
X151474287Y-88447857D01*
X151988573Y-89647857D02*
X151988573Y-89019286D01*
X151931430Y-88905000D01*
X151817144Y-88847857D01*
X151645716Y-88847857D01*
X151531430Y-88905000D01*
X151474287Y-88962143D01*
X153017144Y-89590714D02*
X152902858Y-89647857D01*
X152674287Y-89647857D01*
X152560001Y-89590714D01*
X152502858Y-89476429D01*
X152502858Y-89019286D01*
X152560001Y-88905000D01*
X152674287Y-88847857D01*
X152902858Y-88847857D01*
X153017144Y-88905000D01*
X153074287Y-89019286D01*
X153074287Y-89133571D01*
X152502858Y-89247857D01*
X154502858Y-89647857D02*
X154502858Y-88447857D01*
X154502858Y-88905000D02*
X154617144Y-88847857D01*
X154845715Y-88847857D01*
X154960001Y-88905000D01*
X155017144Y-88962143D01*
X155074287Y-89076429D01*
X155074287Y-89419286D01*
X155017144Y-89533571D01*
X154960001Y-89590714D01*
X154845715Y-89647857D01*
X154617144Y-89647857D01*
X154502858Y-89590714D01*
X155760001Y-89647857D02*
X155645715Y-89590714D01*
X155588572Y-89533571D01*
X155531429Y-89419286D01*
X155531429Y-89076429D01*
X155588572Y-88962143D01*
X155645715Y-88905000D01*
X155760001Y-88847857D01*
X155931429Y-88847857D01*
X156045715Y-88905000D01*
X156102858Y-88962143D01*
X156160001Y-89076429D01*
X156160001Y-89419286D01*
X156102858Y-89533571D01*
X156045715Y-89590714D01*
X155931429Y-89647857D01*
X155760001Y-89647857D01*
X157188572Y-89647857D02*
X157188572Y-89019286D01*
X157131429Y-88905000D01*
X157017143Y-88847857D01*
X156788572Y-88847857D01*
X156674286Y-88905000D01*
X157188572Y-89590714D02*
X157074286Y-89647857D01*
X156788572Y-89647857D01*
X156674286Y-89590714D01*
X156617143Y-89476429D01*
X156617143Y-89362143D01*
X156674286Y-89247857D01*
X156788572Y-89190714D01*
X157074286Y-89190714D01*
X157188572Y-89133571D01*
X157760000Y-89647857D02*
X157760000Y-88847857D01*
X157760000Y-89076429D02*
X157817143Y-88962143D01*
X157874286Y-88905000D01*
X157988572Y-88847857D01*
X158102857Y-88847857D01*
X159017143Y-89647857D02*
X159017143Y-88447857D01*
X159017143Y-89590714D02*
X158902857Y-89647857D01*
X158674286Y-89647857D01*
X158560000Y-89590714D01*
X158502857Y-89533571D01*
X158445714Y-89419286D01*
X158445714Y-89076429D01*
X158502857Y-88962143D01*
X158560000Y-88905000D01*
X158674286Y-88847857D01*
X158902857Y-88847857D01*
X159017143Y-88905000D01*
X161017143Y-89647857D02*
X161017143Y-89019286D01*
X160960000Y-88905000D01*
X160845714Y-88847857D01*
X160617143Y-88847857D01*
X160502857Y-88905000D01*
X161017143Y-89590714D02*
X160902857Y-89647857D01*
X160617143Y-89647857D01*
X160502857Y-89590714D01*
X160445714Y-89476429D01*
X160445714Y-89362143D01*
X160502857Y-89247857D01*
X160617143Y-89190714D01*
X160902857Y-89190714D01*
X161017143Y-89133571D01*
X161588571Y-89647857D02*
X161588571Y-88447857D01*
X161588571Y-88905000D02*
X161702857Y-88847857D01*
X161931428Y-88847857D01*
X162045714Y-88905000D01*
X162102857Y-88962143D01*
X162160000Y-89076429D01*
X162160000Y-89419286D01*
X162102857Y-89533571D01*
X162045714Y-89590714D01*
X161931428Y-89647857D01*
X161702857Y-89647857D01*
X161588571Y-89590714D01*
X162845714Y-89647857D02*
X162731428Y-89590714D01*
X162674285Y-89533571D01*
X162617142Y-89419286D01*
X162617142Y-89076429D01*
X162674285Y-88962143D01*
X162731428Y-88905000D01*
X162845714Y-88847857D01*
X163017142Y-88847857D01*
X163131428Y-88905000D01*
X163188571Y-88962143D01*
X163245714Y-89076429D01*
X163245714Y-89419286D01*
X163188571Y-89533571D01*
X163131428Y-89590714D01*
X163017142Y-89647857D01*
X162845714Y-89647857D01*
X163645714Y-88847857D02*
X163931428Y-89647857D01*
X164217142Y-88847857D01*
X165131428Y-89590714D02*
X165017142Y-89647857D01*
X164788571Y-89647857D01*
X164674285Y-89590714D01*
X164617142Y-89476429D01*
X164617142Y-89019286D01*
X164674285Y-88905000D01*
X164788571Y-88847857D01*
X165017142Y-88847857D01*
X165131428Y-88905000D01*
X165188571Y-89019286D01*
X165188571Y-89133571D01*
X164617142Y-89247857D01*
X166445714Y-88847857D02*
X166902857Y-88847857D01*
X166617142Y-88447857D02*
X166617142Y-89476429D01*
X166674285Y-89590714D01*
X166788571Y-89647857D01*
X166902857Y-89647857D01*
X167302856Y-89647857D02*
X167302856Y-88447857D01*
X167817142Y-89647857D02*
X167817142Y-89019286D01*
X167759999Y-88905000D01*
X167645713Y-88847857D01*
X167474285Y-88847857D01*
X167359999Y-88905000D01*
X167302856Y-88962143D01*
X168388570Y-89647857D02*
X168388570Y-88847857D01*
X168388570Y-88447857D02*
X168331427Y-88505000D01*
X168388570Y-88562143D01*
X168445713Y-88505000D01*
X168388570Y-88447857D01*
X168388570Y-88562143D01*
X168902856Y-89590714D02*
X169017142Y-89647857D01*
X169245714Y-89647857D01*
X169359999Y-89590714D01*
X169417142Y-89476429D01*
X169417142Y-89419286D01*
X169359999Y-89305000D01*
X169245714Y-89247857D01*
X169074285Y-89247857D01*
X168959999Y-89190714D01*
X168902856Y-89076429D01*
X168902856Y-89019286D01*
X168959999Y-88905000D01*
X169074285Y-88847857D01*
X169245714Y-88847857D01*
X169359999Y-88905000D01*
X170674286Y-88847857D02*
X171131429Y-88847857D01*
X170845714Y-88447857D02*
X170845714Y-89476429D01*
X170902857Y-89590714D01*
X171017143Y-89647857D01*
X171131429Y-89647857D01*
X171988571Y-89590714D02*
X171874285Y-89647857D01*
X171645714Y-89647857D01*
X171531428Y-89590714D01*
X171474285Y-89476429D01*
X171474285Y-89019286D01*
X171531428Y-88905000D01*
X171645714Y-88847857D01*
X171874285Y-88847857D01*
X171988571Y-88905000D01*
X172045714Y-89019286D01*
X172045714Y-89133571D01*
X171474285Y-89247857D01*
X172445714Y-89647857D02*
X173074285Y-88847857D01*
X172445714Y-88847857D02*
X173074285Y-89647857D01*
X173360000Y-88847857D02*
X173817143Y-88847857D01*
X173531428Y-88447857D02*
X173531428Y-89476429D01*
X173588571Y-89590714D01*
X173702857Y-89647857D01*
X173817143Y-89647857D01*
X155131429Y-91627857D02*
X155131429Y-90827857D01*
X155131429Y-90427857D02*
X155074286Y-90485000D01*
X155131429Y-90542143D01*
X155188572Y-90485000D01*
X155131429Y-90427857D01*
X155131429Y-90542143D01*
X155645715Y-91570714D02*
X155760001Y-91627857D01*
X155988573Y-91627857D01*
X156102858Y-91570714D01*
X156160001Y-91456429D01*
X156160001Y-91399286D01*
X156102858Y-91285000D01*
X155988573Y-91227857D01*
X155817144Y-91227857D01*
X155702858Y-91170714D01*
X155645715Y-91056429D01*
X155645715Y-90999286D01*
X155702858Y-90885000D01*
X155817144Y-90827857D01*
X155988573Y-90827857D01*
X156102858Y-90885000D01*
X157588573Y-91627857D02*
X157588573Y-90427857D01*
X157588573Y-90885000D02*
X157702859Y-90827857D01*
X157931430Y-90827857D01*
X158045716Y-90885000D01*
X158102859Y-90942143D01*
X158160002Y-91056429D01*
X158160002Y-91399286D01*
X158102859Y-91513571D01*
X158045716Y-91570714D01*
X157931430Y-91627857D01*
X157702859Y-91627857D01*
X157588573Y-91570714D01*
X159188573Y-91627857D02*
X159188573Y-90999286D01*
X159131430Y-90885000D01*
X159017144Y-90827857D01*
X158788573Y-90827857D01*
X158674287Y-90885000D01*
X159188573Y-91570714D02*
X159074287Y-91627857D01*
X158788573Y-91627857D01*
X158674287Y-91570714D01*
X158617144Y-91456429D01*
X158617144Y-91342143D01*
X158674287Y-91227857D01*
X158788573Y-91170714D01*
X159074287Y-91170714D01*
X159188573Y-91113571D01*
X159702858Y-91570714D02*
X159817144Y-91627857D01*
X160045716Y-91627857D01*
X160160001Y-91570714D01*
X160217144Y-91456429D01*
X160217144Y-91399286D01*
X160160001Y-91285000D01*
X160045716Y-91227857D01*
X159874287Y-91227857D01*
X159760001Y-91170714D01*
X159702858Y-91056429D01*
X159702858Y-90999286D01*
X159760001Y-90885000D01*
X159874287Y-90827857D01*
X160045716Y-90827857D01*
X160160001Y-90885000D01*
X161188573Y-91570714D02*
X161074287Y-91627857D01*
X160845716Y-91627857D01*
X160731430Y-91570714D01*
X160674287Y-91456429D01*
X160674287Y-90999286D01*
X160731430Y-90885000D01*
X160845716Y-90827857D01*
X161074287Y-90827857D01*
X161188573Y-90885000D01*
X161245716Y-90999286D01*
X161245716Y-91113571D01*
X160674287Y-91227857D01*
X162274287Y-91627857D02*
X162274287Y-90427857D01*
X162274287Y-91570714D02*
X162160001Y-91627857D01*
X161931430Y-91627857D01*
X161817144Y-91570714D01*
X161760001Y-91513571D01*
X161702858Y-91399286D01*
X161702858Y-91056429D01*
X161760001Y-90942143D01*
X161817144Y-90885000D01*
X161931430Y-90827857D01*
X162160001Y-90827857D01*
X162274287Y-90885000D01*
X163931430Y-91627857D02*
X163817144Y-91570714D01*
X163760001Y-91513571D01*
X163702858Y-91399286D01*
X163702858Y-91056429D01*
X163760001Y-90942143D01*
X163817144Y-90885000D01*
X163931430Y-90827857D01*
X164102858Y-90827857D01*
X164217144Y-90885000D01*
X164274287Y-90942143D01*
X164331430Y-91056429D01*
X164331430Y-91399286D01*
X164274287Y-91513571D01*
X164217144Y-91570714D01*
X164102858Y-91627857D01*
X163931430Y-91627857D01*
X164845715Y-90827857D02*
X164845715Y-91627857D01*
X164845715Y-90942143D02*
X164902858Y-90885000D01*
X165017144Y-90827857D01*
X165188572Y-90827857D01*
X165302858Y-90885000D01*
X165360001Y-90999286D01*
X165360001Y-91627857D01*
X166674287Y-90827857D02*
X167131430Y-90827857D01*
X166845715Y-90427857D02*
X166845715Y-91456429D01*
X166902858Y-91570714D01*
X167017144Y-91627857D01*
X167131430Y-91627857D01*
X167531429Y-91627857D02*
X167531429Y-90427857D01*
X168045715Y-91627857D02*
X168045715Y-90999286D01*
X167988572Y-90885000D01*
X167874286Y-90827857D01*
X167702858Y-90827857D01*
X167588572Y-90885000D01*
X167531429Y-90942143D01*
X169074286Y-91570714D02*
X168960000Y-91627857D01*
X168731429Y-91627857D01*
X168617143Y-91570714D01*
X168560000Y-91456429D01*
X168560000Y-90999286D01*
X168617143Y-90885000D01*
X168731429Y-90827857D01*
X168960000Y-90827857D01*
X169074286Y-90885000D01*
X169131429Y-90999286D01*
X169131429Y-91113571D01*
X168560000Y-91227857D01*
X147188573Y-93607857D02*
X147188573Y-92407857D01*
X147645716Y-92407857D01*
X147760002Y-92465000D01*
X147817145Y-92522143D01*
X147874288Y-92636429D01*
X147874288Y-92807857D01*
X147817145Y-92922143D01*
X147760002Y-92979286D01*
X147645716Y-93036429D01*
X147188573Y-93036429D01*
X148388573Y-93607857D02*
X148388573Y-92807857D01*
X148388573Y-93036429D02*
X148445716Y-92922143D01*
X148502859Y-92865000D01*
X148617145Y-92807857D01*
X148731430Y-92807857D01*
X149302859Y-93607857D02*
X149188573Y-93550714D01*
X149131430Y-93493571D01*
X149074287Y-93379286D01*
X149074287Y-93036429D01*
X149131430Y-92922143D01*
X149188573Y-92865000D01*
X149302859Y-92807857D01*
X149474287Y-92807857D01*
X149588573Y-92865000D01*
X149645716Y-92922143D01*
X149702859Y-93036429D01*
X149702859Y-93379286D01*
X149645716Y-93493571D01*
X149588573Y-93550714D01*
X149474287Y-93607857D01*
X149302859Y-93607857D01*
X151131430Y-93607857D02*
X151131430Y-92407857D01*
X151531430Y-93265000D01*
X151931430Y-92407857D01*
X151931430Y-93607857D01*
X152502859Y-93607857D02*
X152502859Y-92807857D01*
X152502859Y-92407857D02*
X152445716Y-92465000D01*
X152502859Y-92522143D01*
X152560002Y-92465000D01*
X152502859Y-92407857D01*
X152502859Y-92522143D01*
X153588574Y-93550714D02*
X153474288Y-93607857D01*
X153245717Y-93607857D01*
X153131431Y-93550714D01*
X153074288Y-93493571D01*
X153017145Y-93379286D01*
X153017145Y-93036429D01*
X153074288Y-92922143D01*
X153131431Y-92865000D01*
X153245717Y-92807857D01*
X153474288Y-92807857D01*
X153588574Y-92865000D01*
X154102859Y-93607857D02*
X154102859Y-92807857D01*
X154102859Y-93036429D02*
X154160002Y-92922143D01*
X154217145Y-92865000D01*
X154331431Y-92807857D01*
X154445716Y-92807857D01*
X155017145Y-93607857D02*
X154902859Y-93550714D01*
X154845716Y-93493571D01*
X154788573Y-93379286D01*
X154788573Y-93036429D01*
X154845716Y-92922143D01*
X154902859Y-92865000D01*
X155017145Y-92807857D01*
X155188573Y-92807857D01*
X155302859Y-92865000D01*
X155360002Y-92922143D01*
X155417145Y-93036429D01*
X155417145Y-93379286D01*
X155360002Y-93493571D01*
X155302859Y-93550714D01*
X155188573Y-93607857D01*
X155017145Y-93607857D01*
X156845716Y-93607857D02*
X156845716Y-92407857D01*
X156845716Y-92865000D02*
X156960002Y-92807857D01*
X157188573Y-92807857D01*
X157302859Y-92865000D01*
X157360002Y-92922143D01*
X157417145Y-93036429D01*
X157417145Y-93379286D01*
X157360002Y-93493571D01*
X157302859Y-93550714D01*
X157188573Y-93607857D01*
X156960002Y-93607857D01*
X156845716Y-93550714D01*
X157817145Y-92807857D02*
X158102859Y-93607857D01*
X158388573Y-92807857D02*
X158102859Y-93607857D01*
X157988573Y-93893571D01*
X157931430Y-93950714D01*
X157817145Y-94007857D01*
X159702859Y-93550714D02*
X159874288Y-93607857D01*
X160160002Y-93607857D01*
X160274288Y-93550714D01*
X160331431Y-93493571D01*
X160388574Y-93379286D01*
X160388574Y-93265000D01*
X160331431Y-93150714D01*
X160274288Y-93093571D01*
X160160002Y-93036429D01*
X159931431Y-92979286D01*
X159817145Y-92922143D01*
X159760002Y-92865000D01*
X159702859Y-92750714D01*
X159702859Y-92636429D01*
X159760002Y-92522143D01*
X159817145Y-92465000D01*
X159931431Y-92407857D01*
X160217145Y-92407857D01*
X160388574Y-92465000D01*
X160902859Y-92807857D02*
X160902859Y-94007857D01*
X160902859Y-92865000D02*
X161017145Y-92807857D01*
X161245716Y-92807857D01*
X161360002Y-92865000D01*
X161417145Y-92922143D01*
X161474288Y-93036429D01*
X161474288Y-93379286D01*
X161417145Y-93493571D01*
X161360002Y-93550714D01*
X161245716Y-93607857D01*
X161017145Y-93607857D01*
X160902859Y-93550714D01*
X162502859Y-93607857D02*
X162502859Y-92979286D01*
X162445716Y-92865000D01*
X162331430Y-92807857D01*
X162102859Y-92807857D01*
X161988573Y-92865000D01*
X162502859Y-93550714D02*
X162388573Y-93607857D01*
X162102859Y-93607857D01*
X161988573Y-93550714D01*
X161931430Y-93436429D01*
X161931430Y-93322143D01*
X161988573Y-93207857D01*
X162102859Y-93150714D01*
X162388573Y-93150714D01*
X162502859Y-93093571D01*
X163074287Y-93607857D02*
X163074287Y-92807857D01*
X163074287Y-93036429D02*
X163131430Y-92922143D01*
X163188573Y-92865000D01*
X163302859Y-92807857D01*
X163417144Y-92807857D01*
X163817144Y-93607857D02*
X163817144Y-92407857D01*
X163931430Y-93150714D02*
X164274287Y-93607857D01*
X164274287Y-92807857D02*
X163817144Y-93265000D01*
X164617145Y-92807857D02*
X165074288Y-92807857D01*
X164788573Y-93607857D02*
X164788573Y-92579286D01*
X164845716Y-92465000D01*
X164960002Y-92407857D01*
X165074288Y-92407857D01*
X165988573Y-92807857D02*
X165988573Y-93607857D01*
X165474287Y-92807857D02*
X165474287Y-93436429D01*
X165531430Y-93550714D01*
X165645716Y-93607857D01*
X165817144Y-93607857D01*
X165931430Y-93550714D01*
X165988573Y-93493571D01*
X166560001Y-92807857D02*
X166560001Y-93607857D01*
X166560001Y-92922143D02*
X166617144Y-92865000D01*
X166731430Y-92807857D01*
X166902858Y-92807857D01*
X167017144Y-92865000D01*
X167074287Y-92979286D01*
X167074287Y-93607857D01*
X168560001Y-92979286D02*
X168960001Y-92979286D01*
X169131430Y-93607857D02*
X168560001Y-93607857D01*
X168560001Y-92407857D01*
X169131430Y-92407857D01*
X169817144Y-93607857D02*
X169702858Y-93550714D01*
X169645715Y-93436429D01*
X169645715Y-92407857D01*
X170731429Y-93550714D02*
X170617143Y-93607857D01*
X170388572Y-93607857D01*
X170274286Y-93550714D01*
X170217143Y-93436429D01*
X170217143Y-92979286D01*
X170274286Y-92865000D01*
X170388572Y-92807857D01*
X170617143Y-92807857D01*
X170731429Y-92865000D01*
X170788572Y-92979286D01*
X170788572Y-93093571D01*
X170217143Y-93207857D01*
X171817143Y-93550714D02*
X171702857Y-93607857D01*
X171474286Y-93607857D01*
X171360000Y-93550714D01*
X171302857Y-93493571D01*
X171245714Y-93379286D01*
X171245714Y-93036429D01*
X171302857Y-92922143D01*
X171360000Y-92865000D01*
X171474286Y-92807857D01*
X171702857Y-92807857D01*
X171817143Y-92865000D01*
X172160000Y-92807857D02*
X172617143Y-92807857D01*
X172331428Y-92407857D02*
X172331428Y-93436429D01*
X172388571Y-93550714D01*
X172502857Y-93607857D01*
X172617143Y-93607857D01*
X173017142Y-93607857D02*
X173017142Y-92807857D01*
X173017142Y-93036429D02*
X173074285Y-92922143D01*
X173131428Y-92865000D01*
X173245714Y-92807857D01*
X173359999Y-92807857D01*
X173931428Y-93607857D02*
X173817142Y-93550714D01*
X173759999Y-93493571D01*
X173702856Y-93379286D01*
X173702856Y-93036429D01*
X173759999Y-92922143D01*
X173817142Y-92865000D01*
X173931428Y-92807857D01*
X174102856Y-92807857D01*
X174217142Y-92865000D01*
X174274285Y-92922143D01*
X174331428Y-93036429D01*
X174331428Y-93379286D01*
X174274285Y-93493571D01*
X174217142Y-93550714D01*
X174102856Y-93607857D01*
X173931428Y-93607857D01*
X174845713Y-92807857D02*
X174845713Y-93607857D01*
X174845713Y-92922143D02*
X174902856Y-92865000D01*
X175017142Y-92807857D01*
X175188570Y-92807857D01*
X175302856Y-92865000D01*
X175359999Y-92979286D01*
X175359999Y-93607857D01*
X175931427Y-93607857D02*
X175931427Y-92807857D01*
X175931427Y-92407857D02*
X175874284Y-92465000D01*
X175931427Y-92522143D01*
X175988570Y-92465000D01*
X175931427Y-92407857D01*
X175931427Y-92522143D01*
X177017142Y-93550714D02*
X176902856Y-93607857D01*
X176674285Y-93607857D01*
X176559999Y-93550714D01*
X176502856Y-93493571D01*
X176445713Y-93379286D01*
X176445713Y-93036429D01*
X176502856Y-92922143D01*
X176559999Y-92865000D01*
X176674285Y-92807857D01*
X176902856Y-92807857D01*
X177017142Y-92865000D01*
X177474284Y-93550714D02*
X177588570Y-93607857D01*
X177817142Y-93607857D01*
X177931427Y-93550714D01*
X177988570Y-93436429D01*
X177988570Y-93379286D01*
X177931427Y-93265000D01*
X177817142Y-93207857D01*
X177645713Y-93207857D01*
X177531427Y-93150714D01*
X177474284Y-93036429D01*
X177474284Y-92979286D01*
X177531427Y-92865000D01*
X177645713Y-92807857D01*
X177817142Y-92807857D01*
X177931427Y-92865000D01*
X146560002Y-94787857D02*
X146788573Y-95587857D01*
X147017144Y-95016429D01*
X147245716Y-95587857D01*
X147474287Y-94787857D01*
X147817145Y-94787857D02*
X148045716Y-95587857D01*
X148274287Y-95016429D01*
X148502859Y-95587857D01*
X148731430Y-94787857D01*
X149074288Y-94787857D02*
X149302859Y-95587857D01*
X149531430Y-95016429D01*
X149760002Y-95587857D01*
X149988573Y-94787857D01*
X150445716Y-95473571D02*
X150502859Y-95530714D01*
X150445716Y-95587857D01*
X150388573Y-95530714D01*
X150445716Y-95473571D01*
X150445716Y-95587857D01*
X150960002Y-95530714D02*
X151074288Y-95587857D01*
X151302860Y-95587857D01*
X151417145Y-95530714D01*
X151474288Y-95416429D01*
X151474288Y-95359286D01*
X151417145Y-95245000D01*
X151302860Y-95187857D01*
X151131431Y-95187857D01*
X151017145Y-95130714D01*
X150960002Y-95016429D01*
X150960002Y-94959286D01*
X151017145Y-94845000D01*
X151131431Y-94787857D01*
X151302860Y-94787857D01*
X151417145Y-94845000D01*
X151988574Y-94787857D02*
X151988574Y-95987857D01*
X151988574Y-94845000D02*
X152102860Y-94787857D01*
X152331431Y-94787857D01*
X152445717Y-94845000D01*
X152502860Y-94902143D01*
X152560003Y-95016429D01*
X152560003Y-95359286D01*
X152502860Y-95473571D01*
X152445717Y-95530714D01*
X152331431Y-95587857D01*
X152102860Y-95587857D01*
X151988574Y-95530714D01*
X153588574Y-95587857D02*
X153588574Y-94959286D01*
X153531431Y-94845000D01*
X153417145Y-94787857D01*
X153188574Y-94787857D01*
X153074288Y-94845000D01*
X153588574Y-95530714D02*
X153474288Y-95587857D01*
X153188574Y-95587857D01*
X153074288Y-95530714D01*
X153017145Y-95416429D01*
X153017145Y-95302143D01*
X153074288Y-95187857D01*
X153188574Y-95130714D01*
X153474288Y-95130714D01*
X153588574Y-95073571D01*
X154160002Y-95587857D02*
X154160002Y-94787857D01*
X154160002Y-95016429D02*
X154217145Y-94902143D01*
X154274288Y-94845000D01*
X154388574Y-94787857D01*
X154502859Y-94787857D01*
X154902859Y-95587857D02*
X154902859Y-94387857D01*
X155017145Y-95130714D02*
X155360002Y-95587857D01*
X155360002Y-94787857D02*
X154902859Y-95245000D01*
X155702860Y-94787857D02*
X156160003Y-94787857D01*
X155874288Y-95587857D02*
X155874288Y-94559286D01*
X155931431Y-94445000D01*
X156045717Y-94387857D01*
X156160003Y-94387857D01*
X157074288Y-94787857D02*
X157074288Y-95587857D01*
X156560002Y-94787857D02*
X156560002Y-95416429D01*
X156617145Y-95530714D01*
X156731431Y-95587857D01*
X156902859Y-95587857D01*
X157017145Y-95530714D01*
X157074288Y-95473571D01*
X157645716Y-94787857D02*
X157645716Y-95587857D01*
X157645716Y-94902143D02*
X157702859Y-94845000D01*
X157817145Y-94787857D01*
X157988573Y-94787857D01*
X158102859Y-94845000D01*
X158160002Y-94959286D01*
X158160002Y-95587857D01*
X158731430Y-95473571D02*
X158788573Y-95530714D01*
X158731430Y-95587857D01*
X158674287Y-95530714D01*
X158731430Y-95473571D01*
X158731430Y-95587857D01*
X159817145Y-95530714D02*
X159702859Y-95587857D01*
X159474288Y-95587857D01*
X159360002Y-95530714D01*
X159302859Y-95473571D01*
X159245716Y-95359286D01*
X159245716Y-95016429D01*
X159302859Y-94902143D01*
X159360002Y-94845000D01*
X159474288Y-94787857D01*
X159702859Y-94787857D01*
X159817145Y-94845000D01*
X160502859Y-95587857D02*
X160388573Y-95530714D01*
X160331430Y-95473571D01*
X160274287Y-95359286D01*
X160274287Y-95016429D01*
X160331430Y-94902143D01*
X160388573Y-94845000D01*
X160502859Y-94787857D01*
X160674287Y-94787857D01*
X160788573Y-94845000D01*
X160845716Y-94902143D01*
X160902859Y-95016429D01*
X160902859Y-95359286D01*
X160845716Y-95473571D01*
X160788573Y-95530714D01*
X160674287Y-95587857D01*
X160502859Y-95587857D01*
X161417144Y-95587857D02*
X161417144Y-94787857D01*
X161417144Y-94902143D02*
X161474287Y-94845000D01*
X161588573Y-94787857D01*
X161760001Y-94787857D01*
X161874287Y-94845000D01*
X161931430Y-94959286D01*
X161931430Y-95587857D01*
X161931430Y-94959286D02*
X161988573Y-94845000D01*
X162102859Y-94787857D01*
X162274287Y-94787857D01*
X162388573Y-94845000D01*
X162445716Y-94959286D01*
X162445716Y-95587857D01*
X163874287Y-94330714D02*
X162845716Y-95873571D01*
X164274287Y-94787857D02*
X164274287Y-95987857D01*
X164274287Y-94845000D02*
X164388573Y-94787857D01*
X164617144Y-94787857D01*
X164731430Y-94845000D01*
X164788573Y-94902143D01*
X164845716Y-95016429D01*
X164845716Y-95359286D01*
X164788573Y-95473571D01*
X164731430Y-95530714D01*
X164617144Y-95587857D01*
X164388573Y-95587857D01*
X164274287Y-95530714D01*
X165360001Y-95587857D02*
X165360001Y-94787857D01*
X165360001Y-95016429D02*
X165417144Y-94902143D01*
X165474287Y-94845000D01*
X165588573Y-94787857D01*
X165702858Y-94787857D01*
X166274287Y-95587857D02*
X166160001Y-95530714D01*
X166102858Y-95473571D01*
X166045715Y-95359286D01*
X166045715Y-95016429D01*
X166102858Y-94902143D01*
X166160001Y-94845000D01*
X166274287Y-94787857D01*
X166445715Y-94787857D01*
X166560001Y-94845000D01*
X166617144Y-94902143D01*
X166674287Y-95016429D01*
X166674287Y-95359286D01*
X166617144Y-95473571D01*
X166560001Y-95530714D01*
X166445715Y-95587857D01*
X166274287Y-95587857D01*
X167702858Y-95587857D02*
X167702858Y-94387857D01*
X167702858Y-95530714D02*
X167588572Y-95587857D01*
X167360001Y-95587857D01*
X167245715Y-95530714D01*
X167188572Y-95473571D01*
X167131429Y-95359286D01*
X167131429Y-95016429D01*
X167188572Y-94902143D01*
X167245715Y-94845000D01*
X167360001Y-94787857D01*
X167588572Y-94787857D01*
X167702858Y-94845000D01*
X168788572Y-94787857D02*
X168788572Y-95587857D01*
X168274286Y-94787857D02*
X168274286Y-95416429D01*
X168331429Y-95530714D01*
X168445715Y-95587857D01*
X168617143Y-95587857D01*
X168731429Y-95530714D01*
X168788572Y-95473571D01*
X169874286Y-95530714D02*
X169760000Y-95587857D01*
X169531429Y-95587857D01*
X169417143Y-95530714D01*
X169360000Y-95473571D01*
X169302857Y-95359286D01*
X169302857Y-95016429D01*
X169360000Y-94902143D01*
X169417143Y-94845000D01*
X169531429Y-94787857D01*
X169760000Y-94787857D01*
X169874286Y-94845000D01*
X170217143Y-94787857D02*
X170674286Y-94787857D01*
X170388571Y-94387857D02*
X170388571Y-95416429D01*
X170445714Y-95530714D01*
X170560000Y-95587857D01*
X170674286Y-95587857D01*
X171017142Y-95530714D02*
X171131428Y-95587857D01*
X171360000Y-95587857D01*
X171474285Y-95530714D01*
X171531428Y-95416429D01*
X171531428Y-95359286D01*
X171474285Y-95245000D01*
X171360000Y-95187857D01*
X171188571Y-95187857D01*
X171074285Y-95130714D01*
X171017142Y-95016429D01*
X171017142Y-94959286D01*
X171074285Y-94845000D01*
X171188571Y-94787857D01*
X171360000Y-94787857D01*
X171474285Y-94845000D01*
X172902857Y-94330714D02*
X171874286Y-95873571D01*
X173931429Y-95587857D02*
X173245714Y-95587857D01*
X173588572Y-95587857D02*
X173588572Y-94387857D01*
X173474286Y-94559286D01*
X173360000Y-94673571D01*
X173245714Y-94730714D01*
X174388571Y-94502143D02*
X174445714Y-94445000D01*
X174560000Y-94387857D01*
X174845714Y-94387857D01*
X174960000Y-94445000D01*
X175017143Y-94502143D01*
X175074286Y-94616429D01*
X175074286Y-94730714D01*
X175017143Y-94902143D01*
X174331429Y-95587857D01*
X175074286Y-95587857D01*
X176160000Y-94387857D02*
X175588571Y-94387857D01*
X175531428Y-94959286D01*
X175588571Y-94902143D01*
X175702857Y-94845000D01*
X175988571Y-94845000D01*
X176102857Y-94902143D01*
X176160000Y-94959286D01*
X176217143Y-95073571D01*
X176217143Y-95359286D01*
X176160000Y-95473571D01*
X176102857Y-95530714D01*
X175988571Y-95587857D01*
X175702857Y-95587857D01*
X175588571Y-95530714D01*
X175531428Y-95473571D01*
X176902857Y-94902143D02*
X176788571Y-94845000D01*
X176731428Y-94787857D01*
X176674285Y-94673571D01*
X176674285Y-94616429D01*
X176731428Y-94502143D01*
X176788571Y-94445000D01*
X176902857Y-94387857D01*
X177131428Y-94387857D01*
X177245714Y-94445000D01*
X177302857Y-94502143D01*
X177360000Y-94616429D01*
X177360000Y-94673571D01*
X177302857Y-94787857D01*
X177245714Y-94845000D01*
X177131428Y-94902143D01*
X176902857Y-94902143D01*
X176788571Y-94959286D01*
X176731428Y-95016429D01*
X176674285Y-95130714D01*
X176674285Y-95359286D01*
X176731428Y-95473571D01*
X176788571Y-95530714D01*
X176902857Y-95587857D01*
X177131428Y-95587857D01*
X177245714Y-95530714D01*
X177302857Y-95473571D01*
X177360000Y-95359286D01*
X177360000Y-95130714D01*
X177302857Y-95016429D01*
X177245714Y-94959286D01*
X177131428Y-94902143D01*
X177760000Y-94387857D02*
X178560000Y-94387857D01*
X178045714Y-95587857D01*
X116058858Y-82512857D02*
X116273144Y-82584286D01*
X116344572Y-82655714D01*
X116416001Y-82798571D01*
X116416001Y-83012857D01*
X116344572Y-83155714D01*
X116273144Y-83227143D01*
X116130286Y-83298571D01*
X115558858Y-83298571D01*
X115558858Y-81798571D01*
X116058858Y-81798571D01*
X116201715Y-81870000D01*
X116273144Y-81941429D01*
X116344572Y-82084286D01*
X116344572Y-82227143D01*
X116273144Y-82370000D01*
X116201715Y-82441429D01*
X116058858Y-82512857D01*
X115558858Y-82512857D01*
X117058858Y-83298571D02*
X117058858Y-82298571D01*
X117058858Y-82584286D02*
X117130286Y-82441429D01*
X117201715Y-82370000D01*
X117344572Y-82298571D01*
X117487429Y-82298571D01*
X118630286Y-83298571D02*
X118630286Y-82512857D01*
X118558857Y-82370000D01*
X118416000Y-82298571D01*
X118130286Y-82298571D01*
X117987429Y-82370000D01*
X118630286Y-83227143D02*
X118487429Y-83298571D01*
X118130286Y-83298571D01*
X117987429Y-83227143D01*
X117916000Y-83084286D01*
X117916000Y-82941429D01*
X117987429Y-82798571D01*
X118130286Y-82727143D01*
X118487429Y-82727143D01*
X118630286Y-82655714D01*
X119344572Y-83298571D02*
X119344572Y-82298571D01*
X119344572Y-81798571D02*
X119273143Y-81870000D01*
X119344572Y-81941429D01*
X119416000Y-81870000D01*
X119344572Y-81798571D01*
X119344572Y-81941429D01*
X120058858Y-82298571D02*
X120058858Y-83298571D01*
X120058858Y-82441429D02*
X120130286Y-82370000D01*
X120273144Y-82298571D01*
X120487429Y-82298571D01*
X120630286Y-82370000D01*
X120701715Y-82512857D01*
X120701715Y-83298571D01*
X121344572Y-83227143D02*
X121487429Y-83298571D01*
X121773144Y-83298571D01*
X121916001Y-83227143D01*
X121987429Y-83084286D01*
X121987429Y-83012857D01*
X121916001Y-82870000D01*
X121773144Y-82798571D01*
X121558858Y-82798571D01*
X121416001Y-82727143D01*
X121344572Y-82584286D01*
X121344572Y-82512857D01*
X121416001Y-82370000D01*
X121558858Y-82298571D01*
X121773144Y-82298571D01*
X121916001Y-82370000D01*
X123630287Y-82298571D02*
X123987430Y-83298571D01*
X124344572Y-82298571D01*
X125701715Y-83298571D02*
X124844572Y-83298571D01*
X125273144Y-83298571D02*
X125273144Y-81798571D01*
X125130287Y-82012857D01*
X124987429Y-82155714D01*
X124844572Y-82227143D01*
X126344572Y-83155714D02*
X126416000Y-83227143D01*
X126344572Y-83298571D01*
X126273143Y-83227143D01*
X126344572Y-83155714D01*
X126344572Y-83298571D01*
X127344572Y-81798571D02*
X127487429Y-81798571D01*
X127630286Y-81870000D01*
X127701715Y-81941429D01*
X127773144Y-82084286D01*
X127844572Y-82370000D01*
X127844572Y-82727143D01*
X127773144Y-83012857D01*
X127701715Y-83155714D01*
X127630286Y-83227143D01*
X127487429Y-83298571D01*
X127344572Y-83298571D01*
X127201715Y-83227143D01*
X127130286Y-83155714D01*
X127058858Y-83012857D01*
X126987429Y-82727143D01*
X126987429Y-82370000D01*
X127058858Y-82084286D01*
X127130286Y-81941429D01*
X127201715Y-81870000D01*
X127344572Y-81798571D01*
X97773145Y-84270000D02*
X97630288Y-84198571D01*
X97416002Y-84198571D01*
X97201717Y-84270000D01*
X97058859Y-84412857D01*
X96987431Y-84555714D01*
X96916002Y-84841429D01*
X96916002Y-85055714D01*
X96987431Y-85341429D01*
X97058859Y-85484286D01*
X97201717Y-85627143D01*
X97416002Y-85698571D01*
X97558859Y-85698571D01*
X97773145Y-85627143D01*
X97844574Y-85555714D01*
X97844574Y-85055714D01*
X97558859Y-85055714D01*
X98487431Y-85698571D02*
X98487431Y-84698571D01*
X98487431Y-84984286D02*
X98558859Y-84841429D01*
X98630288Y-84770000D01*
X98773145Y-84698571D01*
X98916002Y-84698571D01*
X99987430Y-85627143D02*
X99844573Y-85698571D01*
X99558859Y-85698571D01*
X99416002Y-85627143D01*
X99344573Y-85484286D01*
X99344573Y-84912857D01*
X99416002Y-84770000D01*
X99558859Y-84698571D01*
X99844573Y-84698571D01*
X99987430Y-84770000D01*
X100058859Y-84912857D01*
X100058859Y-85055714D01*
X99344573Y-85198571D01*
X101344573Y-85698571D02*
X101344573Y-84912857D01*
X101273144Y-84770000D01*
X101130287Y-84698571D01*
X100844573Y-84698571D01*
X100701716Y-84770000D01*
X101344573Y-85627143D02*
X101201716Y-85698571D01*
X100844573Y-85698571D01*
X100701716Y-85627143D01*
X100630287Y-85484286D01*
X100630287Y-85341429D01*
X100701716Y-85198571D01*
X100844573Y-85127143D01*
X101201716Y-85127143D01*
X101344573Y-85055714D01*
X101844573Y-84698571D02*
X102416002Y-84698571D01*
X102058859Y-84198571D02*
X102058859Y-85484286D01*
X102130287Y-85627143D01*
X102273145Y-85698571D01*
X102416002Y-85698571D01*
X104058859Y-85698571D02*
X104058859Y-84698571D01*
X104058859Y-84198571D02*
X103987430Y-84270000D01*
X104058859Y-84341429D01*
X104130287Y-84270000D01*
X104058859Y-84198571D01*
X104058859Y-84341429D01*
X105416002Y-85698571D02*
X105416002Y-84198571D01*
X105416002Y-85627143D02*
X105273145Y-85698571D01*
X104987431Y-85698571D01*
X104844573Y-85627143D01*
X104773145Y-85555714D01*
X104701716Y-85412857D01*
X104701716Y-84984286D01*
X104773145Y-84841429D01*
X104844573Y-84770000D01*
X104987431Y-84698571D01*
X105273145Y-84698571D01*
X105416002Y-84770000D01*
X106701716Y-85627143D02*
X106558859Y-85698571D01*
X106273145Y-85698571D01*
X106130288Y-85627143D01*
X106058859Y-85484286D01*
X106058859Y-84912857D01*
X106130288Y-84770000D01*
X106273145Y-84698571D01*
X106558859Y-84698571D01*
X106701716Y-84770000D01*
X106773145Y-84912857D01*
X106773145Y-85055714D01*
X106058859Y-85198571D01*
X108058859Y-85698571D02*
X108058859Y-84912857D01*
X107987430Y-84770000D01*
X107844573Y-84698571D01*
X107558859Y-84698571D01*
X107416002Y-84770000D01*
X108058859Y-85627143D02*
X107916002Y-85698571D01*
X107558859Y-85698571D01*
X107416002Y-85627143D01*
X107344573Y-85484286D01*
X107344573Y-85341429D01*
X107416002Y-85198571D01*
X107558859Y-85127143D01*
X107916002Y-85127143D01*
X108058859Y-85055714D01*
X108701716Y-85627143D02*
X108844573Y-85698571D01*
X109130288Y-85698571D01*
X109273145Y-85627143D01*
X109344573Y-85484286D01*
X109344573Y-85412857D01*
X109273145Y-85270000D01*
X109130288Y-85198571D01*
X108916002Y-85198571D01*
X108773145Y-85127143D01*
X108701716Y-84984286D01*
X108701716Y-84912857D01*
X108773145Y-84770000D01*
X108916002Y-84698571D01*
X109130288Y-84698571D01*
X109273145Y-84770000D01*
X111058859Y-85627143D02*
X111201716Y-85698571D01*
X111487431Y-85698571D01*
X111630288Y-85627143D01*
X111701716Y-85484286D01*
X111701716Y-85412857D01*
X111630288Y-85270000D01*
X111487431Y-85198571D01*
X111273145Y-85198571D01*
X111130288Y-85127143D01*
X111058859Y-84984286D01*
X111058859Y-84912857D01*
X111130288Y-84770000D01*
X111273145Y-84698571D01*
X111487431Y-84698571D01*
X111630288Y-84770000D01*
X112130288Y-84698571D02*
X112701717Y-84698571D01*
X112344574Y-84198571D02*
X112344574Y-85484286D01*
X112416002Y-85627143D01*
X112558860Y-85698571D01*
X112701717Y-85698571D01*
X113416003Y-85698571D02*
X113273145Y-85627143D01*
X113201717Y-85555714D01*
X113130288Y-85412857D01*
X113130288Y-84984286D01*
X113201717Y-84841429D01*
X113273145Y-84770000D01*
X113416003Y-84698571D01*
X113630288Y-84698571D01*
X113773145Y-84770000D01*
X113844574Y-84841429D01*
X113916003Y-84984286D01*
X113916003Y-85412857D01*
X113844574Y-85555714D01*
X113773145Y-85627143D01*
X113630288Y-85698571D01*
X113416003Y-85698571D01*
X114773146Y-85698571D02*
X114630288Y-85627143D01*
X114558860Y-85484286D01*
X114558860Y-84198571D01*
X115916002Y-85627143D02*
X115773145Y-85698571D01*
X115487431Y-85698571D01*
X115344574Y-85627143D01*
X115273145Y-85484286D01*
X115273145Y-84912857D01*
X115344574Y-84770000D01*
X115487431Y-84698571D01*
X115773145Y-84698571D01*
X115916002Y-84770000D01*
X115987431Y-84912857D01*
X115987431Y-85055714D01*
X115273145Y-85198571D01*
X116630288Y-84698571D02*
X116630288Y-85698571D01*
X116630288Y-84841429D02*
X116701716Y-84770000D01*
X116844574Y-84698571D01*
X117058859Y-84698571D01*
X117201716Y-84770000D01*
X117273145Y-84912857D01*
X117273145Y-85698571D01*
X118916002Y-84698571D02*
X119487431Y-84698571D01*
X119130288Y-85698571D02*
X119130288Y-84412857D01*
X119201716Y-84270000D01*
X119344574Y-84198571D01*
X119487431Y-84198571D01*
X119987431Y-85698571D02*
X119987431Y-84698571D01*
X119987431Y-84984286D02*
X120058859Y-84841429D01*
X120130288Y-84770000D01*
X120273145Y-84698571D01*
X120416002Y-84698571D01*
X121130288Y-85698571D02*
X120987430Y-85627143D01*
X120916002Y-85555714D01*
X120844573Y-85412857D01*
X120844573Y-84984286D01*
X120916002Y-84841429D01*
X120987430Y-84770000D01*
X121130288Y-84698571D01*
X121344573Y-84698571D01*
X121487430Y-84770000D01*
X121558859Y-84841429D01*
X121630288Y-84984286D01*
X121630288Y-85412857D01*
X121558859Y-85555714D01*
X121487430Y-85627143D01*
X121344573Y-85698571D01*
X121130288Y-85698571D01*
X122273145Y-85698571D02*
X122273145Y-84698571D01*
X122273145Y-84841429D02*
X122344573Y-84770000D01*
X122487431Y-84698571D01*
X122701716Y-84698571D01*
X122844573Y-84770000D01*
X122916002Y-84912857D01*
X122916002Y-85698571D01*
X122916002Y-84912857D02*
X122987431Y-84770000D01*
X123130288Y-84698571D01*
X123344573Y-84698571D01*
X123487431Y-84770000D01*
X123558859Y-84912857D01*
X123558859Y-85698571D01*
X125273145Y-84698571D02*
X125630288Y-85698571D01*
X125987430Y-84698571D01*
X127130287Y-85627143D02*
X126987430Y-85698571D01*
X126701716Y-85698571D01*
X126558859Y-85627143D01*
X126487430Y-85484286D01*
X126487430Y-84912857D01*
X126558859Y-84770000D01*
X126701716Y-84698571D01*
X126987430Y-84698571D01*
X127130287Y-84770000D01*
X127201716Y-84912857D01*
X127201716Y-85055714D01*
X126487430Y-85198571D01*
X127844573Y-85698571D02*
X127844573Y-84698571D01*
X127844573Y-84984286D02*
X127916001Y-84841429D01*
X127987430Y-84770000D01*
X128130287Y-84698571D01*
X128273144Y-84698571D01*
X128630287Y-84698571D02*
X128987430Y-85698571D01*
X129344572Y-84698571D02*
X128987430Y-85698571D01*
X128844572Y-86055714D01*
X128773144Y-86127143D01*
X128630287Y-86198571D01*
X131701715Y-85627143D02*
X131558858Y-85698571D01*
X131273144Y-85698571D01*
X131130286Y-85627143D01*
X131058858Y-85555714D01*
X130987429Y-85412857D01*
X130987429Y-84984286D01*
X131058858Y-84841429D01*
X131130286Y-84770000D01*
X131273144Y-84698571D01*
X131558858Y-84698571D01*
X131701715Y-84770000D01*
X132558858Y-85698571D02*
X132416000Y-85627143D01*
X132344572Y-85484286D01*
X132344572Y-84198571D01*
X133701714Y-85627143D02*
X133558857Y-85698571D01*
X133273143Y-85698571D01*
X133130286Y-85627143D01*
X133058857Y-85484286D01*
X133058857Y-84912857D01*
X133130286Y-84770000D01*
X133273143Y-84698571D01*
X133558857Y-84698571D01*
X133701714Y-84770000D01*
X133773143Y-84912857D01*
X133773143Y-85055714D01*
X133058857Y-85198571D01*
X134273143Y-84698571D02*
X134630286Y-85698571D01*
X134987428Y-84698571D01*
X136130285Y-85627143D02*
X135987428Y-85698571D01*
X135701714Y-85698571D01*
X135558857Y-85627143D01*
X135487428Y-85484286D01*
X135487428Y-84912857D01*
X135558857Y-84770000D01*
X135701714Y-84698571D01*
X135987428Y-84698571D01*
X136130285Y-84770000D01*
X136201714Y-84912857D01*
X136201714Y-85055714D01*
X135487428Y-85198571D01*
X136844571Y-85698571D02*
X136844571Y-84698571D01*
X136844571Y-84984286D02*
X136915999Y-84841429D01*
X136987428Y-84770000D01*
X137130285Y-84698571D01*
X137273142Y-84698571D01*
X138915999Y-84698571D02*
X138915999Y-86198571D01*
X138915999Y-84770000D02*
X139058856Y-84698571D01*
X139344570Y-84698571D01*
X139487427Y-84770000D01*
X139558856Y-84841429D01*
X139630285Y-84984286D01*
X139630285Y-85412857D01*
X139558856Y-85555714D01*
X139487427Y-85627143D01*
X139344570Y-85698571D01*
X139058856Y-85698571D01*
X138915999Y-85627143D01*
X140844570Y-85627143D02*
X140701713Y-85698571D01*
X140415999Y-85698571D01*
X140273142Y-85627143D01*
X140201713Y-85484286D01*
X140201713Y-84912857D01*
X140273142Y-84770000D01*
X140415999Y-84698571D01*
X140701713Y-84698571D01*
X140844570Y-84770000D01*
X140915999Y-84912857D01*
X140915999Y-85055714D01*
X140201713Y-85198571D01*
X141773142Y-85698571D02*
X141630284Y-85627143D01*
X141558856Y-85555714D01*
X141487427Y-85412857D01*
X141487427Y-84984286D01*
X141558856Y-84841429D01*
X141630284Y-84770000D01*
X141773142Y-84698571D01*
X141987427Y-84698571D01*
X142130284Y-84770000D01*
X142201713Y-84841429D01*
X142273142Y-84984286D01*
X142273142Y-85412857D01*
X142201713Y-85555714D01*
X142130284Y-85627143D01*
X141987427Y-85698571D01*
X141773142Y-85698571D01*
X142915999Y-84698571D02*
X142915999Y-86198571D01*
X142915999Y-84770000D02*
X143058856Y-84698571D01*
X143344570Y-84698571D01*
X143487427Y-84770000D01*
X143558856Y-84841429D01*
X143630285Y-84984286D01*
X143630285Y-85412857D01*
X143558856Y-85555714D01*
X143487427Y-85627143D01*
X143344570Y-85698571D01*
X143058856Y-85698571D01*
X142915999Y-85627143D01*
X144487428Y-85698571D02*
X144344570Y-85627143D01*
X144273142Y-85484286D01*
X144273142Y-84198571D01*
X145630284Y-85627143D02*
X145487427Y-85698571D01*
X145201713Y-85698571D01*
X145058856Y-85627143D01*
X144987427Y-85484286D01*
X144987427Y-84912857D01*
X145058856Y-84770000D01*
X145201713Y-84698571D01*
X145487427Y-84698571D01*
X145630284Y-84770000D01*
X145701713Y-84912857D01*
X145701713Y-85055714D01*
X144987427Y-85198571D01*
X146344570Y-85555714D02*
X146415998Y-85627143D01*
X146344570Y-85698571D01*
X146273141Y-85627143D01*
X146344570Y-85555714D01*
X146344570Y-85698571D01*
X146344570Y-85127143D02*
X146273141Y-84270000D01*
X146344570Y-84198571D01*
X146415998Y-84270000D01*
X146344570Y-85127143D01*
X146344570Y-84198571D01*
D12*
X118618000Y-130429000D02*
X118618000Y-119634000D01*
X113538000Y-130429000D02*
X113538000Y-119634000D01*
X113538000Y-130429000D02*
X118618000Y-130429000D01*
X125222000Y-78740000D02*
X125222000Y-78994000D01*
X125222000Y-78994000D02*
X127508000Y-78994000D01*
X127508000Y-78994000D02*
X127508000Y-78740000D01*
X125222000Y-78740000D02*
X127508000Y-78740000D01*
X127508000Y-78740000D02*
X127508000Y-77089000D01*
X125222000Y-75311000D02*
X125222000Y-73660000D01*
X125222000Y-73660000D02*
X127508000Y-73660000D01*
X127508000Y-73660000D02*
X127508000Y-75311000D01*
X125222000Y-77089000D02*
X125222000Y-78740000D01*
X135128000Y-72644000D02*
X91948000Y-72644000D01*
X91948000Y-72644000D02*
X91948000Y-118364000D01*
X135128000Y-118364000D02*
X135128000Y-72644000D01*
X91948000Y-118364000D02*
X135128000Y-118364000D01*
X103378000Y-113284000D02*
X121158000Y-113284000D01*
X103378000Y-113284000D02*
X103378000Y-115824000D01*
X103378000Y-115824000D02*
X121158000Y-115824000D01*
X179578000Y-94234000D02*
X178308000Y-94234000D01*
X178308000Y-94234000D02*
X178308000Y-91694000D01*
X178308000Y-91694000D02*
X179578000Y-91694000D01*
X179578000Y-99314000D02*
X146558000Y-99314000D01*
X146558000Y-99314000D02*
X146558000Y-86614000D01*
X146558000Y-86614000D02*
X179578000Y-86614000D01*
X179578000Y-86614000D02*
X179578000Y-99314000D01*
X128778000Y-122174000D02*
X141478000Y-122174000D01*
X141478000Y-122174000D02*
X141478000Y-127254000D01*
X141478000Y-127254000D02*
X131318000Y-127254000D01*
X128778000Y-122174000D02*
X128778000Y-124714000D01*
X128498000Y-125984000D02*
X128498000Y-127534000D01*
X128778000Y-124714000D02*
X131318000Y-124714000D01*
X131318000Y-124714000D02*
X131318000Y-127254000D01*
X128498000Y-127534000D02*
X130048000Y-127534000D01*
X92710000Y-131826000D02*
X92710000Y-132588000D01*
X92710000Y-132588000D02*
X101346000Y-132588000D01*
X101346000Y-132588000D02*
X101346000Y-131826000D01*
X92710000Y-128778000D02*
X101346000Y-128778000D01*
X92710000Y-119126000D02*
X101346000Y-119126000D01*
X101346000Y-131826000D02*
X101346000Y-119126000D01*
X92710000Y-131826000D02*
X92710000Y-119126000D01*
X167028000Y-133554000D02*
X167028000Y-114554000D01*
X153528000Y-133554000D02*
X167028000Y-133554000D01*
X154028000Y-115554000D02*
X167028000Y-115554000D01*
X153528000Y-132554000D02*
X153528000Y-133554000D01*
X153528000Y-114554000D02*
X153528000Y-132554000D01*
X167028000Y-114554000D02*
X153528000Y-114554000D01*
X115951000Y-97790000D02*
X115951000Y-94742000D01*
X115951000Y-94742000D02*
X108839000Y-94742000D01*
X108839000Y-94742000D02*
X108839000Y-97790000D01*
X115951000Y-100838000D02*
X115951000Y-101600000D01*
X115951000Y-101600000D02*
X114427000Y-103886000D01*
X114427000Y-103886000D02*
X110363000Y-103886000D01*
X110363000Y-103886000D02*
X108839000Y-101600000D01*
X108839000Y-101600000D02*
X108839000Y-100838000D01*
X146812000Y-76454000D02*
X146812000Y-81534000D01*
X146812000Y-81534000D02*
X149352000Y-81534000D01*
X149352000Y-81534000D02*
X149352000Y-76454000D01*
X149632000Y-73634000D02*
X149632000Y-75184000D01*
X149352000Y-76454000D02*
X146812000Y-76454000D01*
X146532000Y-75184000D02*
X146532000Y-73634000D01*
X146532000Y-73634000D02*
X149632000Y-73634000D01*
X156972000Y-76454000D02*
X156972000Y-81534000D01*
X156972000Y-81534000D02*
X159512000Y-81534000D01*
X159512000Y-81534000D02*
X159512000Y-76454000D01*
X159792000Y-73634000D02*
X159792000Y-75184000D01*
X159512000Y-76454000D02*
X156972000Y-76454000D01*
X156692000Y-75184000D02*
X156692000Y-73634000D01*
X156692000Y-73634000D02*
X159792000Y-73634000D01*
X167132000Y-76454000D02*
X167132000Y-81534000D01*
X167132000Y-81534000D02*
X169672000Y-81534000D01*
X169672000Y-81534000D02*
X169672000Y-76454000D01*
X169952000Y-73634000D02*
X169952000Y-75184000D01*
X169672000Y-76454000D02*
X167132000Y-76454000D01*
X166852000Y-75184000D02*
X166852000Y-73634000D01*
X166852000Y-73634000D02*
X169952000Y-73634000D01*
X136398000Y-76454000D02*
X136398000Y-81534000D01*
X136398000Y-81534000D02*
X138938000Y-81534000D01*
X138938000Y-81534000D02*
X138938000Y-76454000D01*
X139218000Y-73634000D02*
X139218000Y-75184000D01*
X138938000Y-76454000D02*
X136398000Y-76454000D01*
X136118000Y-75184000D02*
X136118000Y-73634000D01*
X136118000Y-73634000D02*
X139218000Y-73634000D01*
X172655000Y-127935000D02*
X163655000Y-133935000D01*
X163655000Y-133935000D02*
X157655000Y-133935000D01*
X157655000Y-133935000D02*
X148655000Y-127935000D01*
X148655000Y-127935000D02*
X148655000Y-101935000D01*
X172655000Y-127935000D02*
X172655000Y-101935000D01*
X171655000Y-101435000D02*
X149655000Y-101435000D01*
X164522000Y-72926000D02*
X164522000Y-76426000D01*
X162072000Y-72926000D02*
X162072000Y-76426000D01*
X144202000Y-72926000D02*
X144202000Y-76426000D01*
X141752000Y-72926000D02*
X141752000Y-76426000D01*
X154362000Y-72926000D02*
X154362000Y-76426000D01*
X151912000Y-72926000D02*
X151912000Y-76426000D01*
X133534000Y-72926000D02*
X133534000Y-76426000D01*
X131084000Y-72926000D02*
X131084000Y-76426000D01*
D10*
G36*
X105907673Y-94713117D02*
X105902423Y-95011990D01*
X105785252Y-95290951D01*
X105710182Y-95380848D01*
X105628058Y-95457331D01*
X105540128Y-95512292D01*
X105418770Y-95549285D01*
X105236361Y-95571865D01*
X104965278Y-95583586D01*
X104577901Y-95588001D01*
X104095002Y-95588666D01*
X102687641Y-95588666D01*
X102460860Y-95355833D01*
X102363900Y-95228727D01*
X102192737Y-94974759D01*
X101959316Y-94612854D01*
X101675579Y-94161931D01*
X101353471Y-93640914D01*
X101004936Y-93068723D01*
X100752873Y-92649946D01*
X100401944Y-92066276D01*
X100077820Y-91531500D01*
X99790852Y-91062361D01*
X99551390Y-90675605D01*
X99369784Y-90387973D01*
X99256383Y-90216211D01*
X99222029Y-90173446D01*
X99184313Y-90249897D01*
X99096976Y-90469754D01*
X98966075Y-90816503D01*
X98797664Y-91273633D01*
X98597799Y-91824628D01*
X98372536Y-92452978D01*
X98127930Y-93142168D01*
X97994362Y-93521211D01*
X97693394Y-94369480D01*
X97420252Y-95123457D01*
X97179278Y-95771827D01*
X96974813Y-96303274D01*
X96811200Y-96706482D01*
X96692782Y-96970134D01*
X96629876Y-97077211D01*
X96397202Y-97225393D01*
X96096686Y-97283973D01*
X95804377Y-97245356D01*
X95665996Y-97173473D01*
X95469767Y-96944462D01*
X95350361Y-96656254D01*
X95334667Y-96526976D01*
X95362198Y-96415432D01*
X95441252Y-96160060D01*
X95566515Y-95776544D01*
X95732674Y-95280566D01*
X95934418Y-94687809D01*
X96166434Y-94013955D01*
X96423410Y-93274689D01*
X96700032Y-92485693D01*
X96792078Y-92224576D01*
X97135861Y-91252213D01*
X97429640Y-90427571D01*
X97679228Y-89738501D01*
X97890438Y-89172854D01*
X98069083Y-88718482D01*
X98220977Y-88363237D01*
X98351933Y-88094969D01*
X98467764Y-87901530D01*
X98574283Y-87770772D01*
X98677304Y-87690546D01*
X98782639Y-87648703D01*
X98896101Y-87633094D01*
X98989987Y-87631296D01*
X99223625Y-87654886D01*
X99393897Y-87709917D01*
X99395452Y-87710888D01*
X99464148Y-87797848D01*
X99610406Y-88014773D01*
X99824647Y-88346441D01*
X100097292Y-88777625D01*
X100418763Y-89293101D01*
X100779479Y-89877646D01*
X101169863Y-90516033D01*
X101432226Y-90948091D01*
X103345213Y-94107000D01*
X104398773Y-94151834D01*
X104816360Y-94174616D01*
X105181553Y-94203814D01*
X105455830Y-94235725D01*
X105600669Y-94266642D01*
X105602852Y-94267628D01*
X105806113Y-94447331D01*
X105907673Y-94713117D01*
X105907673Y-94713117D01*
X105907673Y-94713117D01*
G37*
X105907673Y-94713117D02*
X105902423Y-95011990D01*
X105785252Y-95290951D01*
X105710182Y-95380848D01*
X105628058Y-95457331D01*
X105540128Y-95512292D01*
X105418770Y-95549285D01*
X105236361Y-95571865D01*
X104965278Y-95583586D01*
X104577901Y-95588001D01*
X104095002Y-95588666D01*
X102687641Y-95588666D01*
X102460860Y-95355833D01*
X102363900Y-95228727D01*
X102192737Y-94974759D01*
X101959316Y-94612854D01*
X101675579Y-94161931D01*
X101353471Y-93640914D01*
X101004936Y-93068723D01*
X100752873Y-92649946D01*
X100401944Y-92066276D01*
X100077820Y-91531500D01*
X99790852Y-91062361D01*
X99551390Y-90675605D01*
X99369784Y-90387973D01*
X99256383Y-90216211D01*
X99222029Y-90173446D01*
X99184313Y-90249897D01*
X99096976Y-90469754D01*
X98966075Y-90816503D01*
X98797664Y-91273633D01*
X98597799Y-91824628D01*
X98372536Y-92452978D01*
X98127930Y-93142168D01*
X97994362Y-93521211D01*
X97693394Y-94369480D01*
X97420252Y-95123457D01*
X97179278Y-95771827D01*
X96974813Y-96303274D01*
X96811200Y-96706482D01*
X96692782Y-96970134D01*
X96629876Y-97077211D01*
X96397202Y-97225393D01*
X96096686Y-97283973D01*
X95804377Y-97245356D01*
X95665996Y-97173473D01*
X95469767Y-96944462D01*
X95350361Y-96656254D01*
X95334667Y-96526976D01*
X95362198Y-96415432D01*
X95441252Y-96160060D01*
X95566515Y-95776544D01*
X95732674Y-95280566D01*
X95934418Y-94687809D01*
X96166434Y-94013955D01*
X96423410Y-93274689D01*
X96700032Y-92485693D01*
X96792078Y-92224576D01*
X97135861Y-91252213D01*
X97429640Y-90427571D01*
X97679228Y-89738501D01*
X97890438Y-89172854D01*
X98069083Y-88718482D01*
X98220977Y-88363237D01*
X98351933Y-88094969D01*
X98467764Y-87901530D01*
X98574283Y-87770772D01*
X98677304Y-87690546D01*
X98782639Y-87648703D01*
X98896101Y-87633094D01*
X98989987Y-87631296D01*
X99223625Y-87654886D01*
X99393897Y-87709917D01*
X99395452Y-87710888D01*
X99464148Y-87797848D01*
X99610406Y-88014773D01*
X99824647Y-88346441D01*
X100097292Y-88777625D01*
X100418763Y-89293101D01*
X100779479Y-89877646D01*
X101169863Y-90516033D01*
X101432226Y-90948091D01*
X103345213Y-94107000D01*
X104398773Y-94151834D01*
X104816360Y-94174616D01*
X105181553Y-94203814D01*
X105455830Y-94235725D01*
X105600669Y-94266642D01*
X105602852Y-94267628D01*
X105806113Y-94447331D01*
X105907673Y-94713117D01*
X105907673Y-94713117D01*
G36*
X104563333Y-93187612D02*
X104495227Y-93296630D01*
X104326346Y-93440552D01*
X104109849Y-93583721D01*
X103898892Y-93690482D01*
X103760682Y-93726000D01*
X103647145Y-93668811D01*
X103632000Y-93618253D01*
X103700233Y-93512971D01*
X103869944Y-93384510D01*
X103928839Y-93350648D01*
X104106127Y-93242476D01*
X104189027Y-93166098D01*
X104188314Y-93153425D01*
X104100744Y-93168733D01*
X103957303Y-93251697D01*
X103758980Y-93354116D01*
X103613161Y-93387333D01*
X103480692Y-93347803D01*
X103479463Y-93249291D01*
X103596714Y-93121909D01*
X103769482Y-93018385D01*
X103949904Y-92917094D01*
X104031451Y-92840025D01*
X104028957Y-92824735D01*
X103934051Y-92832857D01*
X103787970Y-92913030D01*
X103575595Y-93020294D01*
X103397082Y-93041452D01*
X103299677Y-92974298D01*
X103293333Y-92936139D01*
X103364953Y-92839674D01*
X103543236Y-92719102D01*
X103773316Y-92601131D01*
X104000328Y-92512469D01*
X104169405Y-92479823D01*
X104210583Y-92489629D01*
X104315092Y-92610397D01*
X104433675Y-92818172D01*
X104528799Y-93038684D01*
X104563333Y-93187612D01*
X104563333Y-93187612D01*
X104563333Y-93187612D01*
G37*
X104563333Y-93187612D02*
X104495227Y-93296630D01*
X104326346Y-93440552D01*
X104109849Y-93583721D01*
X103898892Y-93690482D01*
X103760682Y-93726000D01*
X103647145Y-93668811D01*
X103632000Y-93618253D01*
X103700233Y-93512971D01*
X103869944Y-93384510D01*
X103928839Y-93350648D01*
X104106127Y-93242476D01*
X104189027Y-93166098D01*
X104188314Y-93153425D01*
X104100744Y-93168733D01*
X103957303Y-93251697D01*
X103758980Y-93354116D01*
X103613161Y-93387333D01*
X103480692Y-93347803D01*
X103479463Y-93249291D01*
X103596714Y-93121909D01*
X103769482Y-93018385D01*
X103949904Y-92917094D01*
X104031451Y-92840025D01*
X104028957Y-92824735D01*
X103934051Y-92832857D01*
X103787970Y-92913030D01*
X103575595Y-93020294D01*
X103397082Y-93041452D01*
X103299677Y-92974298D01*
X103293333Y-92936139D01*
X103364953Y-92839674D01*
X103543236Y-92719102D01*
X103773316Y-92601131D01*
X104000328Y-92512469D01*
X104169405Y-92479823D01*
X104210583Y-92489629D01*
X104315092Y-92610397D01*
X104433675Y-92818172D01*
X104528799Y-93038684D01*
X104563333Y-93187612D01*
X104563333Y-93187612D01*
G36*
X103861515Y-91973581D02*
X103780257Y-92135647D01*
X103683392Y-92188649D01*
X103568703Y-92180484D01*
X103564078Y-92064116D01*
X103570900Y-92036357D01*
X103553595Y-91856739D01*
X103421862Y-91750613D01*
X103221115Y-91735578D01*
X103011200Y-91819481D01*
X102808608Y-91906227D01*
X102663159Y-91884756D01*
X102616000Y-91780908D01*
X102684748Y-91700936D01*
X102856648Y-91581256D01*
X103080179Y-91451087D01*
X103303823Y-91339648D01*
X103476060Y-91276158D01*
X103515664Y-91270666D01*
X103620935Y-91337799D01*
X103632000Y-91387299D01*
X103691767Y-91534583D01*
X103763280Y-91612885D01*
X103859159Y-91775523D01*
X103861515Y-91973581D01*
X103861515Y-91973581D01*
X103861515Y-91973581D01*
G37*
X103861515Y-91973581D02*
X103780257Y-92135647D01*
X103683392Y-92188649D01*
X103568703Y-92180484D01*
X103564078Y-92064116D01*
X103570900Y-92036357D01*
X103553595Y-91856739D01*
X103421862Y-91750613D01*
X103221115Y-91735578D01*
X103011200Y-91819481D01*
X102808608Y-91906227D01*
X102663159Y-91884756D01*
X102616000Y-91780908D01*
X102684748Y-91700936D01*
X102856648Y-91581256D01*
X103080179Y-91451087D01*
X103303823Y-91339648D01*
X103476060Y-91276158D01*
X103515664Y-91270666D01*
X103620935Y-91337799D01*
X103632000Y-91387299D01*
X103691767Y-91534583D01*
X103763280Y-91612885D01*
X103859159Y-91775523D01*
X103861515Y-91973581D01*
X103861515Y-91973581D01*
G36*
X103469030Y-90304888D02*
X103412419Y-90449655D01*
X103235466Y-90679534D01*
X102973378Y-90955817D01*
X102770357Y-91154187D01*
X102770357Y-90731688D01*
X102757111Y-90706222D01*
X102656631Y-90696089D01*
X102644222Y-90706222D01*
X102655844Y-90756556D01*
X102700667Y-90762666D01*
X102770357Y-90731688D01*
X102770357Y-91154187D01*
X102716036Y-91207264D01*
X102549893Y-91356332D01*
X102447580Y-91421540D01*
X102381729Y-91421403D01*
X102336757Y-91386534D01*
X102327593Y-91278555D01*
X102364675Y-91181001D01*
X102412739Y-90987833D01*
X102358626Y-90842930D01*
X102226282Y-90797645D01*
X102189765Y-90805920D01*
X102047840Y-90800321D01*
X101953394Y-90723399D01*
X101964443Y-90624297D01*
X101969282Y-90619161D01*
X102064167Y-90582159D01*
X102276156Y-90519942D01*
X102557210Y-90444734D01*
X102859291Y-90368757D01*
X103134359Y-90304236D01*
X103334377Y-90263393D01*
X103399167Y-90255327D01*
X103469030Y-90304888D01*
X103469030Y-90304888D01*
X103469030Y-90304888D01*
G37*
X103469030Y-90304888D02*
X103412419Y-90449655D01*
X103235466Y-90679534D01*
X102973378Y-90955817D01*
X102770357Y-91154187D01*
X102770357Y-90731688D01*
X102757111Y-90706222D01*
X102656631Y-90696089D01*
X102644222Y-90706222D01*
X102655844Y-90756556D01*
X102700667Y-90762666D01*
X102770357Y-90731688D01*
X102770357Y-91154187D01*
X102716036Y-91207264D01*
X102549893Y-91356332D01*
X102447580Y-91421540D01*
X102381729Y-91421403D01*
X102336757Y-91386534D01*
X102327593Y-91278555D01*
X102364675Y-91181001D01*
X102412739Y-90987833D01*
X102358626Y-90842930D01*
X102226282Y-90797645D01*
X102189765Y-90805920D01*
X102047840Y-90800321D01*
X101953394Y-90723399D01*
X101964443Y-90624297D01*
X101969282Y-90619161D01*
X102064167Y-90582159D01*
X102276156Y-90519942D01*
X102557210Y-90444734D01*
X102859291Y-90368757D01*
X103134359Y-90304236D01*
X103334377Y-90263393D01*
X103399167Y-90255327D01*
X103469030Y-90304888D01*
X103469030Y-90304888D01*
G36*
X102518522Y-89533442D02*
X102488410Y-89783469D01*
X102343161Y-89953532D01*
X102247015Y-90012668D01*
X102247015Y-89538315D01*
X102195645Y-89453921D01*
X102060205Y-89334044D01*
X101995966Y-89357395D01*
X102028103Y-89510505D01*
X102039785Y-89537296D01*
X102139431Y-89679636D01*
X102220648Y-89667884D01*
X102247015Y-89538315D01*
X102247015Y-90012668D01*
X102174049Y-90057548D01*
X102060348Y-90057261D01*
X101947091Y-89936234D01*
X101863741Y-89810166D01*
X101753588Y-89657745D01*
X101691226Y-89609344D01*
X101686093Y-89621994D01*
X101729777Y-89751052D01*
X101816571Y-89897309D01*
X101896675Y-90082720D01*
X101867920Y-90216881D01*
X101774074Y-90254666D01*
X101682314Y-90191127D01*
X101567404Y-90045978D01*
X101437644Y-89741312D01*
X101448938Y-89465595D01*
X101596809Y-89252389D01*
X101680462Y-89198507D01*
X101996902Y-89083392D01*
X102236965Y-89111331D01*
X102399532Y-89257505D01*
X102518522Y-89533442D01*
X102518522Y-89533442D01*
X102518522Y-89533442D01*
G37*
X102518522Y-89533442D02*
X102488410Y-89783469D01*
X102343161Y-89953532D01*
X102247015Y-90012668D01*
X102247015Y-89538315D01*
X102195645Y-89453921D01*
X102060205Y-89334044D01*
X101995966Y-89357395D01*
X102028103Y-89510505D01*
X102039785Y-89537296D01*
X102139431Y-89679636D01*
X102220648Y-89667884D01*
X102247015Y-89538315D01*
X102247015Y-90012668D01*
X102174049Y-90057548D01*
X102060348Y-90057261D01*
X101947091Y-89936234D01*
X101863741Y-89810166D01*
X101753588Y-89657745D01*
X101691226Y-89609344D01*
X101686093Y-89621994D01*
X101729777Y-89751052D01*
X101816571Y-89897309D01*
X101896675Y-90082720D01*
X101867920Y-90216881D01*
X101774074Y-90254666D01*
X101682314Y-90191127D01*
X101567404Y-90045978D01*
X101437644Y-89741312D01*
X101448938Y-89465595D01*
X101596809Y-89252389D01*
X101680462Y-89198507D01*
X101996902Y-89083392D01*
X102236965Y-89111331D01*
X102399532Y-89257505D01*
X102518522Y-89533442D01*
X102518522Y-89533442D01*
G36*
X102310947Y-88313265D02*
X102232426Y-88459194D01*
X102168778Y-88506288D01*
X101807589Y-88719949D01*
X101488013Y-88896417D01*
X101242795Y-89018472D01*
X101104680Y-89068893D01*
X101098090Y-89069333D01*
X101017307Y-89000978D01*
X101007333Y-88944054D01*
X101076940Y-88834135D01*
X101253233Y-88699311D01*
X101361031Y-88638331D01*
X101566687Y-88524351D01*
X101637309Y-88450683D01*
X101593574Y-88391095D01*
X101568003Y-88375776D01*
X101471197Y-88283819D01*
X101521005Y-88173498D01*
X101584573Y-88081985D01*
X101552249Y-88065996D01*
X101407772Y-88129857D01*
X101140589Y-88274702D01*
X100863299Y-88411500D01*
X100709168Y-88440418D01*
X100670885Y-88361517D01*
X100694105Y-88278496D01*
X100788908Y-88180302D01*
X100988241Y-88040349D01*
X101242559Y-87887131D01*
X101502320Y-87749141D01*
X101717979Y-87654872D01*
X101821705Y-87630000D01*
X101961476Y-87690763D01*
X101984711Y-87847442D01*
X101939603Y-87966916D01*
X101893505Y-88093912D01*
X101972691Y-88135360D01*
X102053629Y-88137999D01*
X102246266Y-88189944D01*
X102310947Y-88313265D01*
X102310947Y-88313265D01*
X102310947Y-88313265D01*
G37*
X102310947Y-88313265D02*
X102232426Y-88459194D01*
X102168778Y-88506288D01*
X101807589Y-88719949D01*
X101488013Y-88896417D01*
X101242795Y-89018472D01*
X101104680Y-89068893D01*
X101098090Y-89069333D01*
X101017307Y-89000978D01*
X101007333Y-88944054D01*
X101076940Y-88834135D01*
X101253233Y-88699311D01*
X101361031Y-88638331D01*
X101566687Y-88524351D01*
X101637309Y-88450683D01*
X101593574Y-88391095D01*
X101568003Y-88375776D01*
X101471197Y-88283819D01*
X101521005Y-88173498D01*
X101584573Y-88081985D01*
X101552249Y-88065996D01*
X101407772Y-88129857D01*
X101140589Y-88274702D01*
X100863299Y-88411500D01*
X100709168Y-88440418D01*
X100670885Y-88361517D01*
X100694105Y-88278496D01*
X100788908Y-88180302D01*
X100988241Y-88040349D01*
X101242559Y-87887131D01*
X101502320Y-87749141D01*
X101717979Y-87654872D01*
X101821705Y-87630000D01*
X101961476Y-87690763D01*
X101984711Y-87847442D01*
X101939603Y-87966916D01*
X101893505Y-88093912D01*
X101972691Y-88135360D01*
X102053629Y-88137999D01*
X102246266Y-88189944D01*
X102310947Y-88313265D01*
X102310947Y-88313265D01*
D12*
X93605000Y-108440000D02*
X92905000Y-107740000D01*
X101205000Y-100140000D02*
X101205000Y-108440000D01*
X101205000Y-108440000D02*
X92905000Y-108440000D01*
X92905000Y-108440000D02*
X92905000Y-100140000D01*
X92905000Y-100140000D02*
X101105000Y-100140000D01*
X117085000Y-103140000D02*
X117085000Y-105140000D01*
X119135000Y-105140000D02*
X119135000Y-103140000D01*
X107530000Y-104005000D02*
X107530000Y-103005000D01*
X105830000Y-103005000D02*
X105830000Y-104005000D01*
X111530381Y-117816381D02*
X111768476Y-118816381D01*
X111958953Y-118102095D01*
X112149429Y-118816381D01*
X112387524Y-117816381D01*
X112768476Y-118816381D02*
X112768476Y-118149714D01*
X112768476Y-117816381D02*
X112720857Y-117864000D01*
X112768476Y-117911619D01*
X112816095Y-117864000D01*
X112768476Y-117816381D01*
X112768476Y-117911619D01*
X113244666Y-118816381D02*
X113244666Y-118149714D01*
X113244666Y-117816381D02*
X113197047Y-117864000D01*
X113244666Y-117911619D01*
X113292285Y-117864000D01*
X113244666Y-117816381D01*
X113244666Y-117911619D01*
X114292285Y-118721143D02*
X114244666Y-118768762D01*
X114101809Y-118816381D01*
X114006571Y-118816381D01*
X113863713Y-118768762D01*
X113768475Y-118673524D01*
X113720856Y-118578286D01*
X113673237Y-118387810D01*
X113673237Y-118244952D01*
X113720856Y-118054476D01*
X113768475Y-117959238D01*
X113863713Y-117864000D01*
X114006571Y-117816381D01*
X114101809Y-117816381D01*
X114244666Y-117864000D01*
X114292285Y-117911619D01*
X114720856Y-118816381D02*
X114720856Y-117816381D01*
X115149428Y-118816381D02*
X115149428Y-118292571D01*
X115101809Y-118197333D01*
X115006571Y-118149714D01*
X114863713Y-118149714D01*
X114768475Y-118197333D01*
X114720856Y-118244952D01*
X116054190Y-118149714D02*
X116054190Y-118816381D01*
X115625618Y-118149714D02*
X115625618Y-118673524D01*
X115673237Y-118768762D01*
X115768475Y-118816381D01*
X115911333Y-118816381D01*
X116006571Y-118768762D01*
X116054190Y-118721143D01*
X116958952Y-118768762D02*
X116863714Y-118816381D01*
X116673237Y-118816381D01*
X116577999Y-118768762D01*
X116530380Y-118721143D01*
X116482761Y-118625905D01*
X116482761Y-118340190D01*
X116530380Y-118244952D01*
X116577999Y-118197333D01*
X116673237Y-118149714D01*
X116863714Y-118149714D01*
X116958952Y-118197333D01*
X117387523Y-118816381D02*
X117387523Y-117816381D01*
X117482761Y-118435429D02*
X117768476Y-118816381D01*
X117768476Y-118149714D02*
X117387523Y-118530667D01*
X118768476Y-118721143D02*
X118720857Y-118768762D01*
X118578000Y-118816381D01*
X118482762Y-118816381D01*
X118339904Y-118768762D01*
X118244666Y-118673524D01*
X118197047Y-118578286D01*
X118149428Y-118387810D01*
X118149428Y-118244952D01*
X118197047Y-118054476D01*
X118244666Y-117959238D01*
X118339904Y-117864000D01*
X118482762Y-117816381D01*
X118578000Y-117816381D01*
X118720857Y-117864000D01*
X118768476Y-117911619D01*
X119339904Y-118816381D02*
X119244666Y-118768762D01*
X119197047Y-118721143D01*
X119149428Y-118625905D01*
X119149428Y-118340190D01*
X119197047Y-118244952D01*
X119244666Y-118197333D01*
X119339904Y-118149714D01*
X119482762Y-118149714D01*
X119578000Y-118197333D01*
X119625619Y-118244952D01*
X119673238Y-118340190D01*
X119673238Y-118625905D01*
X119625619Y-118721143D01*
X119578000Y-118768762D01*
X119482762Y-118816381D01*
X119339904Y-118816381D01*
X120101809Y-118149714D02*
X120101809Y-118816381D01*
X120101809Y-118244952D02*
X120149428Y-118197333D01*
X120244666Y-118149714D01*
X120387524Y-118149714D01*
X120482762Y-118197333D01*
X120530381Y-118292571D01*
X120530381Y-118816381D01*
X104680858Y-117772571D02*
X104680858Y-116272571D01*
X105538001Y-117772571D01*
X105538001Y-116272571D01*
X106466573Y-117772571D02*
X106323715Y-117701143D01*
X106252287Y-117629714D01*
X106180858Y-117486857D01*
X106180858Y-117058286D01*
X106252287Y-116915429D01*
X106323715Y-116844000D01*
X106466573Y-116772571D01*
X106680858Y-116772571D01*
X106823715Y-116844000D01*
X106895144Y-116915429D01*
X106966573Y-117058286D01*
X106966573Y-117486857D01*
X106895144Y-117629714D01*
X106823715Y-117701143D01*
X106680858Y-117772571D01*
X106466573Y-117772571D01*
X107609430Y-117772571D02*
X107609430Y-116272571D01*
X107752287Y-117201143D02*
X108180858Y-117772571D01*
X108180858Y-116772571D02*
X107609430Y-117344000D01*
X108823716Y-117772571D02*
X108823716Y-116772571D01*
X108823716Y-116272571D02*
X108752287Y-116344000D01*
X108823716Y-116415429D01*
X108895144Y-116344000D01*
X108823716Y-116272571D01*
X108823716Y-116415429D01*
X110180859Y-117772571D02*
X110180859Y-116986857D01*
X110109430Y-116844000D01*
X109966573Y-116772571D01*
X109680859Y-116772571D01*
X109538002Y-116844000D01*
X110180859Y-117701143D02*
X110038002Y-117772571D01*
X109680859Y-117772571D01*
X109538002Y-117701143D01*
X109466573Y-117558286D01*
X109466573Y-117415429D01*
X109538002Y-117272571D01*
X109680859Y-117201143D01*
X110038002Y-117201143D01*
X110180859Y-117129714D01*
X110538002Y-117915429D02*
X111680859Y-117915429D01*
X112752288Y-116272571D02*
X112038002Y-116272571D01*
X111966573Y-116986857D01*
X112038002Y-116915429D01*
X112180859Y-116844000D01*
X112538002Y-116844000D01*
X112680859Y-116915429D01*
X112752288Y-116986857D01*
X112823716Y-117129714D01*
X112823716Y-117486857D01*
X112752288Y-117629714D01*
X112680859Y-117701143D01*
X112538002Y-117772571D01*
X112180859Y-117772571D01*
X112038002Y-117701143D01*
X111966573Y-117629714D01*
X114180859Y-116272571D02*
X113466573Y-116272571D01*
X113395144Y-116986857D01*
X113466573Y-116915429D01*
X113609430Y-116844000D01*
X113966573Y-116844000D01*
X114109430Y-116915429D01*
X114180859Y-116986857D01*
X114252287Y-117129714D01*
X114252287Y-117486857D01*
X114180859Y-117629714D01*
X114109430Y-117701143D01*
X113966573Y-117772571D01*
X113609430Y-117772571D01*
X113466573Y-117701143D01*
X113395144Y-117629714D01*
X115680858Y-117772571D02*
X114823715Y-117772571D01*
X115252287Y-117772571D02*
X115252287Y-116272571D01*
X115109430Y-116486857D01*
X114966572Y-116629714D01*
X114823715Y-116701143D01*
X116609429Y-116272571D02*
X116752286Y-116272571D01*
X116895143Y-116344000D01*
X116966572Y-116415429D01*
X117038001Y-116558286D01*
X117109429Y-116844000D01*
X117109429Y-117201143D01*
X117038001Y-117486857D01*
X116966572Y-117629714D01*
X116895143Y-117701143D01*
X116752286Y-117772571D01*
X116609429Y-117772571D01*
X116466572Y-117701143D01*
X116395143Y-117629714D01*
X116323715Y-117486857D01*
X116252286Y-117201143D01*
X116252286Y-116844000D01*
X116323715Y-116558286D01*
X116395143Y-116415429D01*
X116466572Y-116344000D01*
X116609429Y-116272571D01*
X117395143Y-117915429D02*
X118538000Y-117915429D01*
X119609429Y-117772571D02*
X118895143Y-117772571D01*
X118895143Y-116272571D01*
X120966572Y-117629714D02*
X120895143Y-117701143D01*
X120680857Y-117772571D01*
X120538000Y-117772571D01*
X120323715Y-117701143D01*
X120180857Y-117558286D01*
X120109429Y-117415429D01*
X120038000Y-117129714D01*
X120038000Y-116915429D01*
X120109429Y-116629714D01*
X120180857Y-116486857D01*
X120323715Y-116344000D01*
X120538000Y-116272571D01*
X120680857Y-116272571D01*
X120895143Y-116344000D01*
X120966572Y-116415429D01*
X121609429Y-117772571D02*
X121609429Y-116272571D01*
X121966572Y-116272571D01*
X122180857Y-116344000D01*
X122323715Y-116486857D01*
X122395143Y-116629714D01*
X122466572Y-116915429D01*
X122466572Y-117129714D01*
X122395143Y-117415429D01*
X122323715Y-117558286D01*
X122180857Y-117701143D01*
X121966572Y-117772571D01*
X121609429Y-117772571D01*
X121285143Y-116344000D02*
X121142286Y-116272571D01*
X120928000Y-116272571D01*
X120713715Y-116344000D01*
X120570857Y-116486857D01*
X120499429Y-116629714D01*
X120428000Y-116915429D01*
X120428000Y-117129714D01*
X120499429Y-117415429D01*
X120570857Y-117558286D01*
X120713715Y-117701143D01*
X120928000Y-117772571D01*
X121070857Y-117772571D01*
X121285143Y-117701143D01*
X121356572Y-117629714D01*
X121356572Y-117129714D01*
X121070857Y-117129714D01*
X121999429Y-117772571D02*
X121999429Y-116272571D01*
X122856572Y-117772571D01*
X122856572Y-116272571D01*
X123570858Y-117772571D02*
X123570858Y-116272571D01*
X123928001Y-116272571D01*
X124142286Y-116344000D01*
X124285144Y-116486857D01*
X124356572Y-116629714D01*
X124428001Y-116915429D01*
X124428001Y-117129714D01*
X124356572Y-117415429D01*
X124285144Y-117558286D01*
X124142286Y-117701143D01*
X123928001Y-117772571D01*
X123570858Y-117772571D01*
X154147047Y-121006381D02*
X154147047Y-120006381D01*
X154147047Y-120482571D02*
X154718476Y-120482571D01*
X154718476Y-121006381D02*
X154718476Y-120006381D01*
X155194666Y-121006381D02*
X155194666Y-120006381D01*
X155528000Y-120720667D01*
X155861333Y-120006381D01*
X155861333Y-121006381D01*
X156337523Y-120625429D02*
X157099428Y-120625429D01*
X158099428Y-121006381D02*
X157527999Y-121006381D01*
X157813713Y-121006381D02*
X157813713Y-120006381D01*
X157718475Y-120149238D01*
X157623237Y-120244476D01*
X157527999Y-120292095D01*
X159051809Y-121006381D02*
X158480380Y-121006381D01*
X158766094Y-121006381D02*
X158766094Y-120006381D01*
X158670856Y-120149238D01*
X158575618Y-120244476D01*
X158480380Y-120292095D01*
X159242285Y-121101619D02*
X160004190Y-121101619D01*
X160575619Y-120482571D02*
X160718476Y-120530190D01*
X160766095Y-120577810D01*
X160813714Y-120673048D01*
X160813714Y-120815905D01*
X160766095Y-120911143D01*
X160718476Y-120958762D01*
X160623238Y-121006381D01*
X160242285Y-121006381D01*
X160242285Y-120006381D01*
X160575619Y-120006381D01*
X160670857Y-120054000D01*
X160718476Y-120101619D01*
X160766095Y-120196857D01*
X160766095Y-120292095D01*
X160718476Y-120387333D01*
X160670857Y-120434952D01*
X160575619Y-120482571D01*
X160242285Y-120482571D01*
X161385142Y-121006381D02*
X161289904Y-120958762D01*
X161242285Y-120863524D01*
X161242285Y-120006381D01*
X162194667Y-120339714D02*
X162194667Y-121006381D01*
X161766095Y-120339714D02*
X161766095Y-120863524D01*
X161813714Y-120958762D01*
X161908952Y-121006381D01*
X162051810Y-121006381D01*
X162147048Y-120958762D01*
X162194667Y-120911143D01*
X163051810Y-120958762D02*
X162956572Y-121006381D01*
X162766095Y-121006381D01*
X162670857Y-120958762D01*
X162623238Y-120863524D01*
X162623238Y-120482571D01*
X162670857Y-120387333D01*
X162766095Y-120339714D01*
X162956572Y-120339714D01*
X163051810Y-120387333D01*
X163099429Y-120482571D01*
X163099429Y-120577810D01*
X162623238Y-120673048D01*
X163385143Y-120339714D02*
X163766095Y-120339714D01*
X163528000Y-120006381D02*
X163528000Y-120863524D01*
X163575619Y-120958762D01*
X163670857Y-121006381D01*
X163766095Y-121006381D01*
X164242286Y-121006381D02*
X164147048Y-120958762D01*
X164099429Y-120911143D01*
X164051810Y-120815905D01*
X164051810Y-120530190D01*
X164099429Y-120434952D01*
X164147048Y-120387333D01*
X164242286Y-120339714D01*
X164385144Y-120339714D01*
X164480382Y-120387333D01*
X164528001Y-120434952D01*
X164575620Y-120530190D01*
X164575620Y-120815905D01*
X164528001Y-120911143D01*
X164480382Y-120958762D01*
X164385144Y-121006381D01*
X164242286Y-121006381D01*
X165147048Y-121006381D02*
X165051810Y-120958762D01*
X165004191Y-120911143D01*
X164956572Y-120815905D01*
X164956572Y-120530190D01*
X165004191Y-120434952D01*
X165051810Y-120387333D01*
X165147048Y-120339714D01*
X165289906Y-120339714D01*
X165385144Y-120387333D01*
X165432763Y-120434952D01*
X165480382Y-120530190D01*
X165480382Y-120815905D01*
X165432763Y-120911143D01*
X165385144Y-120958762D01*
X165289906Y-121006381D01*
X165147048Y-121006381D01*
X165766096Y-120339714D02*
X166147048Y-120339714D01*
X165908953Y-120006381D02*
X165908953Y-120863524D01*
X165956572Y-120958762D01*
X166051810Y-121006381D01*
X166147048Y-121006381D01*
X166480382Y-121006381D02*
X166480382Y-120006381D01*
X166908954Y-121006381D02*
X166908954Y-120482571D01*
X166861335Y-120387333D01*
X166766097Y-120339714D01*
X166623239Y-120339714D01*
X166528001Y-120387333D01*
X166480382Y-120434952D01*
X159916905Y-101887381D02*
X160583572Y-102887381D01*
X160583572Y-101887381D02*
X159916905Y-102887381D01*
X161297858Y-102363571D02*
X161440715Y-102411190D01*
X161488334Y-102458810D01*
X161535953Y-102554048D01*
X161535953Y-102696905D01*
X161488334Y-102792143D01*
X161440715Y-102839762D01*
X161345477Y-102887381D01*
X160964524Y-102887381D01*
X160964524Y-101887381D01*
X161297858Y-101887381D01*
X161393096Y-101935000D01*
X161440715Y-101982619D01*
X161488334Y-102077857D01*
X161488334Y-102173095D01*
X161440715Y-102268333D01*
X161393096Y-102315952D01*
X161297858Y-102363571D01*
X160964524Y-102363571D01*
X161964524Y-102363571D02*
X162297858Y-102363571D01*
X162440715Y-102887381D02*
X161964524Y-102887381D01*
X161964524Y-101887381D01*
X162440715Y-101887381D01*
X162869286Y-102363571D02*
X163202620Y-102363571D01*
X163345477Y-102887381D02*
X162869286Y-102887381D01*
X162869286Y-101887381D01*
X163345477Y-101887381D01*
X159064857Y-76690285D02*
X159064857Y-77190285D01*
X159850571Y-77190285D02*
X158350571Y-77190285D01*
X158350571Y-76475999D01*
X158350571Y-75904571D02*
X159564857Y-75904571D01*
X159707714Y-75833143D01*
X159779143Y-75761714D01*
X159850571Y-75618857D01*
X159850571Y-75333143D01*
X159779143Y-75190285D01*
X159707714Y-75118857D01*
X159564857Y-75047428D01*
X158350571Y-75047428D01*
X159779143Y-74404571D02*
X159850571Y-74190285D01*
X159850571Y-73833142D01*
X159779143Y-73690285D01*
X159707714Y-73618856D01*
X159564857Y-73547428D01*
X159422000Y-73547428D01*
X159279143Y-73618856D01*
X159207714Y-73690285D01*
X159136286Y-73833142D01*
X159064857Y-74118856D01*
X158993429Y-74261714D01*
X158922000Y-74333142D01*
X158779143Y-74404571D01*
X158636286Y-74404571D01*
X158493429Y-74333142D01*
X158422000Y-74261714D01*
X158350571Y-74118856D01*
X158350571Y-73761714D01*
X158422000Y-73547428D01*
X159064857Y-72904571D02*
X159064857Y-72404571D01*
X159850571Y-72190285D02*
X159850571Y-72904571D01*
X158350571Y-72904571D01*
X158350571Y-72190285D01*
X138744857Y-76690285D02*
X138744857Y-77190285D01*
X139530571Y-77190285D02*
X138030571Y-77190285D01*
X138030571Y-76475999D01*
X138030571Y-75904571D02*
X139244857Y-75904571D01*
X139387714Y-75833143D01*
X139459143Y-75761714D01*
X139530571Y-75618857D01*
X139530571Y-75333143D01*
X139459143Y-75190285D01*
X139387714Y-75118857D01*
X139244857Y-75047428D01*
X138030571Y-75047428D01*
X139459143Y-74404571D02*
X139530571Y-74190285D01*
X139530571Y-73833142D01*
X139459143Y-73690285D01*
X139387714Y-73618856D01*
X139244857Y-73547428D01*
X139102000Y-73547428D01*
X138959143Y-73618856D01*
X138887714Y-73690285D01*
X138816286Y-73833142D01*
X138744857Y-74118856D01*
X138673429Y-74261714D01*
X138602000Y-74333142D01*
X138459143Y-74404571D01*
X138316286Y-74404571D01*
X138173429Y-74333142D01*
X138102000Y-74261714D01*
X138030571Y-74118856D01*
X138030571Y-73761714D01*
X138102000Y-73547428D01*
X138744857Y-72904571D02*
X138744857Y-72404571D01*
X139530571Y-72190285D02*
X139530571Y-72904571D01*
X138030571Y-72904571D01*
X138030571Y-72190285D01*
X148904857Y-76690285D02*
X148904857Y-77190285D01*
X149690571Y-77190285D02*
X148190571Y-77190285D01*
X148190571Y-76475999D01*
X148190571Y-75904571D02*
X149404857Y-75904571D01*
X149547714Y-75833143D01*
X149619143Y-75761714D01*
X149690571Y-75618857D01*
X149690571Y-75333143D01*
X149619143Y-75190285D01*
X149547714Y-75118857D01*
X149404857Y-75047428D01*
X148190571Y-75047428D01*
X149619143Y-74404571D02*
X149690571Y-74190285D01*
X149690571Y-73833142D01*
X149619143Y-73690285D01*
X149547714Y-73618856D01*
X149404857Y-73547428D01*
X149262000Y-73547428D01*
X149119143Y-73618856D01*
X149047714Y-73690285D01*
X148976286Y-73833142D01*
X148904857Y-74118856D01*
X148833429Y-74261714D01*
X148762000Y-74333142D01*
X148619143Y-74404571D01*
X148476286Y-74404571D01*
X148333429Y-74333142D01*
X148262000Y-74261714D01*
X148190571Y-74118856D01*
X148190571Y-73761714D01*
X148262000Y-73547428D01*
X148904857Y-72904571D02*
X148904857Y-72404571D01*
X149690571Y-72190285D02*
X149690571Y-72904571D01*
X148190571Y-72904571D01*
X148190571Y-72190285D01*
X128076857Y-76690285D02*
X128076857Y-77190285D01*
X128862571Y-77190285D02*
X127362571Y-77190285D01*
X127362571Y-76475999D01*
X127362571Y-75904571D02*
X128576857Y-75904571D01*
X128719714Y-75833143D01*
X128791143Y-75761714D01*
X128862571Y-75618857D01*
X128862571Y-75333143D01*
X128791143Y-75190285D01*
X128719714Y-75118857D01*
X128576857Y-75047428D01*
X127362571Y-75047428D01*
X128791143Y-74404571D02*
X128862571Y-74190285D01*
X128862571Y-73833142D01*
X128791143Y-73690285D01*
X128719714Y-73618856D01*
X128576857Y-73547428D01*
X128434000Y-73547428D01*
X128291143Y-73618856D01*
X128219714Y-73690285D01*
X128148286Y-73833142D01*
X128076857Y-74118856D01*
X128005429Y-74261714D01*
X127934000Y-74333142D01*
X127791143Y-74404571D01*
X127648286Y-74404571D01*
X127505429Y-74333142D01*
X127434000Y-74261714D01*
X127362571Y-74118856D01*
X127362571Y-73761714D01*
X127434000Y-73547428D01*
X128076857Y-72904571D02*
X128076857Y-72404571D01*
X128862571Y-72190285D02*
X128862571Y-72904571D01*
X127362571Y-72904571D01*
X127362571Y-72190285D01*
X93956428Y-81287381D02*
X94289761Y-82287381D01*
X94623095Y-81287381D01*
X94908809Y-82001667D02*
X95385000Y-82001667D01*
X94813571Y-82287381D02*
X95146904Y-81287381D01*
X95480238Y-82287381D01*
X96289762Y-82287381D02*
X95813571Y-82287381D01*
X95813571Y-81287381D01*
X96765952Y-81287381D02*
X96765952Y-81525476D01*
X96527857Y-81430238D02*
X96765952Y-81525476D01*
X97004048Y-81430238D01*
X96623095Y-81715952D02*
X96765952Y-81525476D01*
X96908810Y-81715952D01*
X97527857Y-81287381D02*
X97527857Y-81525476D01*
X97289762Y-81430238D02*
X97527857Y-81525476D01*
X97765953Y-81430238D01*
X97385000Y-81715952D02*
X97527857Y-81525476D01*
X97670715Y-81715952D01*
X172696428Y-80652381D02*
X173029761Y-81652381D01*
X173363095Y-80652381D01*
X173648809Y-81366667D02*
X174125000Y-81366667D01*
X173553571Y-81652381D02*
X173886904Y-80652381D01*
X174220238Y-81652381D01*
X175029762Y-81652381D02*
X174553571Y-81652381D01*
X174553571Y-80652381D01*
X175505952Y-80652381D02*
X175505952Y-80890476D01*
X175267857Y-80795238D02*
X175505952Y-80890476D01*
X175744048Y-80795238D01*
X175363095Y-81080952D02*
X175505952Y-80890476D01*
X175648810Y-81080952D01*
X176267857Y-80652381D02*
X176267857Y-80890476D01*
X176029762Y-80795238D02*
X176267857Y-80890476D01*
X176505953Y-80795238D01*
X176125000Y-81080952D02*
X176267857Y-80890476D01*
X176410715Y-81080952D01*
X98401428Y-117482381D02*
X98734761Y-118482381D01*
X99068095Y-117482381D01*
X99353809Y-118196667D02*
X99830000Y-118196667D01*
X99258571Y-118482381D02*
X99591904Y-117482381D01*
X99925238Y-118482381D01*
X100734762Y-118482381D02*
X100258571Y-118482381D01*
X100258571Y-117482381D01*
X101210952Y-117482381D02*
X101210952Y-117720476D01*
X100972857Y-117625238D02*
X101210952Y-117720476D01*
X101449048Y-117625238D01*
X101068095Y-117910952D02*
X101210952Y-117720476D01*
X101353810Y-117910952D01*
X101972857Y-117482381D02*
X101972857Y-117720476D01*
X101734762Y-117625238D02*
X101972857Y-117720476D01*
X102210953Y-117625238D01*
X101830000Y-117910952D02*
X101972857Y-117720476D01*
X102115715Y-117910952D01*
X164441428Y-115577381D02*
X164774761Y-116577381D01*
X165108095Y-115577381D01*
X165393809Y-116291667D02*
X165870000Y-116291667D01*
X165298571Y-116577381D02*
X165631904Y-115577381D01*
X165965238Y-116577381D01*
X166774762Y-116577381D02*
X166298571Y-116577381D01*
X166298571Y-115577381D01*
X167250952Y-115577381D02*
X167250952Y-115815476D01*
X167012857Y-115720238D02*
X167250952Y-115815476D01*
X167489048Y-115720238D01*
X167108095Y-116005952D02*
X167250952Y-115815476D01*
X167393810Y-116005952D01*
X168012857Y-115577381D02*
X168012857Y-115815476D01*
X167774762Y-115720238D02*
X168012857Y-115815476D01*
X168250953Y-115720238D01*
X167870000Y-116005952D02*
X168012857Y-115815476D01*
X168155715Y-116005952D01*
X97519286Y-96475714D02*
X97447857Y-96547143D01*
X97233571Y-96618571D01*
X97090714Y-96618571D01*
X96876429Y-96547143D01*
X96733571Y-96404286D01*
X96662143Y-96261429D01*
X96590714Y-95975714D01*
X96590714Y-95761429D01*
X96662143Y-95475714D01*
X96733571Y-95332857D01*
X96876429Y-95190000D01*
X97090714Y-95118571D01*
X97233571Y-95118571D01*
X97447857Y-95190000D01*
X97519286Y-95261429D01*
%LPC*%
D13*
X114173000Y-125984000D03*
X116078000Y-125984000D03*
X117983000Y-125984000D03*
D14*
X126365000Y-77851000D03*
X126365000Y-74549000D03*
D15*
X104648000Y-114554000D03*
X107188000Y-114554000D03*
X109728000Y-114554000D03*
X112268000Y-114554000D03*
X114808000Y-114554000D03*
X117348000Y-114554000D03*
X119888000Y-114554000D03*
D16*
X122428000Y-114554000D03*
D17*
X177038000Y-85344000D03*
D18*
X174498000Y-85344000D03*
X171958000Y-85344000D03*
X169418000Y-85344000D03*
X166878000Y-85344000D03*
X164338000Y-85344000D03*
X161798000Y-85344000D03*
X159258000Y-85344000D03*
X156718000Y-85344000D03*
X154178000Y-85344000D03*
X151638000Y-85344000D03*
X149098000Y-85344000D03*
X149098000Y-100584000D03*
X151638000Y-100584000D03*
X154178000Y-100584000D03*
X156718000Y-100584000D03*
X159258000Y-100584000D03*
X161798000Y-100584000D03*
X164338000Y-100584000D03*
X166878000Y-100584000D03*
X169418000Y-100584000D03*
X171958000Y-100584000D03*
X174498000Y-100584000D03*
X177038000Y-100584000D03*
D19*
X130048000Y-125984000D03*
D20*
X130048000Y-123444000D03*
X132588000Y-125984000D03*
X132588000Y-123444000D03*
X135128000Y-125984000D03*
X135128000Y-123444000D03*
X137668000Y-125984000D03*
X137668000Y-123444000D03*
X140208000Y-125984000D03*
X140208000Y-123444000D03*
D21*
X97028000Y-124714000D03*
D22*
X97028000Y-118618000D03*
D21*
X102108000Y-122428000D03*
D23*
X167028000Y-126054000D03*
X167028000Y-124554000D03*
X167028000Y-123054000D03*
X167028000Y-121554000D03*
X167028000Y-120054000D03*
X167028000Y-118554000D03*
X167028000Y-117054000D03*
X167028000Y-115554000D03*
X153528000Y-115554000D03*
X153528000Y-117054000D03*
X153528000Y-118554000D03*
X153528000Y-120054000D03*
X153528000Y-121554000D03*
X153528000Y-123054000D03*
X153528000Y-124554000D03*
X153528000Y-126054000D03*
D24*
X112395000Y-102616000D03*
D25*
X112395000Y-96012000D03*
X110109000Y-96012000D03*
X114681000Y-96012000D03*
D26*
X148082000Y-75184000D03*
D27*
X148082000Y-77724000D03*
X148082000Y-80264000D03*
D26*
X158242000Y-75184000D03*
D27*
X158242000Y-77724000D03*
X158242000Y-80264000D03*
D26*
X168402000Y-75184000D03*
D27*
X168402000Y-77724000D03*
X168402000Y-80264000D03*
D26*
X137668000Y-75184000D03*
D27*
X137668000Y-77724000D03*
X137668000Y-80264000D03*
D28*
X171655000Y-126435000D03*
X171655000Y-124435000D03*
X171655000Y-122435000D03*
X171655000Y-120435000D03*
X171655000Y-118435000D03*
X171655000Y-116435000D03*
X171655000Y-114435000D03*
X171655000Y-112435000D03*
X171655000Y-110435000D03*
X171655000Y-108435000D03*
X149655000Y-108435000D03*
X149655000Y-110435000D03*
X149655000Y-112435000D03*
X149655000Y-114435000D03*
X149655000Y-116435000D03*
X149655000Y-118435000D03*
X149655000Y-120435000D03*
X149655000Y-122435000D03*
X149655000Y-124435000D03*
X149655000Y-126435000D03*
D29*
X165492000Y-74676000D03*
X161152000Y-74676000D03*
X145172000Y-74676000D03*
X140832000Y-74676000D03*
X155332000Y-74676000D03*
X150992000Y-74676000D03*
X134504000Y-74676000D03*
X130164000Y-74676000D03*
D30*
X95885000Y-76835000D03*
X174625000Y-76200000D03*
X100330000Y-113030000D03*
X166370000Y-111125000D03*
D31*
X97155000Y-107390000D03*
X97155000Y-100890000D03*
D32*
X118110000Y-105640000D03*
X118110000Y-102640000D03*
D33*
X106680000Y-102505000D03*
X106680000Y-104505000D03*
M02*
