G04 #@! TF.FileFunction,Copper,L1,Top,Signal*
%FSLAX46Y46*%
G04 Gerber Fmt 4.6, Leading zero omitted, Abs format (unit mm)*
G04 Created by KiCad (PCBNEW (2015-01-16 BZR 5376)-product) date 27/05/2015 14:11:43*
%MOMM*%
G01*
G04 APERTURE LIST*
%ADD10C,0.100000*%
%ADD11R,1.000000X8.000000*%
%ADD12R,2.032000X1.524000*%
%ADD13C,2.000000*%
%ADD14R,2.000000X2.000000*%
%ADD15R,1.574800X2.286000*%
%ADD16O,1.574800X2.286000*%
%ADD17R,1.727200X1.727200*%
%ADD18O,1.727200X1.727200*%
%ADD19C,4.800600*%
%ADD20R,4.800600X4.800600*%
%ADD21R,2.000000X1.200000*%
%ADD22R,3.657600X2.032000*%
%ADD23R,1.016000X2.032000*%
%ADD24R,2.032000X1.727200*%
%ADD25O,2.032000X1.727200*%
%ADD26C,1.500000*%
%ADD27R,1.780000X3.500000*%
%ADD28C,4.000000*%
%ADD29R,0.920000X3.600000*%
%ADD30R,1.600000X1.000000*%
%ADD31R,1.250000X1.000000*%
%ADD32C,0.889000*%
%ADD33C,1.100000*%
%ADD34C,0.254000*%
G04 APERTURE END LIST*
D10*
D11*
X114173000Y-125984000D03*
X116078000Y-125984000D03*
X117983000Y-125984000D03*
D12*
X126365000Y-77851000D03*
X126365000Y-74549000D03*
D13*
X104648000Y-114554000D03*
X107188000Y-114554000D03*
X109728000Y-114554000D03*
X112268000Y-114554000D03*
X114808000Y-114554000D03*
X117348000Y-114554000D03*
X119888000Y-114554000D03*
D14*
X122428000Y-114554000D03*
D15*
X177038000Y-85344000D03*
D16*
X174498000Y-85344000D03*
X171958000Y-85344000D03*
X169418000Y-85344000D03*
X166878000Y-85344000D03*
X164338000Y-85344000D03*
X161798000Y-85344000D03*
X159258000Y-85344000D03*
X156718000Y-85344000D03*
X154178000Y-85344000D03*
X151638000Y-85344000D03*
X149098000Y-85344000D03*
X149098000Y-100584000D03*
X151638000Y-100584000D03*
X154178000Y-100584000D03*
X156718000Y-100584000D03*
X159258000Y-100584000D03*
X161798000Y-100584000D03*
X164338000Y-100584000D03*
X166878000Y-100584000D03*
X169418000Y-100584000D03*
X171958000Y-100584000D03*
X174498000Y-100584000D03*
X177038000Y-100584000D03*
D17*
X130048000Y-125984000D03*
D18*
X130048000Y-123444000D03*
X132588000Y-125984000D03*
X132588000Y-123444000D03*
X135128000Y-125984000D03*
X135128000Y-123444000D03*
X137668000Y-125984000D03*
X137668000Y-123444000D03*
X140208000Y-125984000D03*
X140208000Y-123444000D03*
D19*
X97028000Y-124714000D03*
D20*
X97028000Y-118618000D03*
D19*
X102108000Y-122428000D03*
D21*
X167028000Y-126054000D03*
X167028000Y-124554000D03*
X167028000Y-123054000D03*
X167028000Y-121554000D03*
X167028000Y-120054000D03*
X167028000Y-118554000D03*
X167028000Y-117054000D03*
X167028000Y-115554000D03*
X153528000Y-115554000D03*
X153528000Y-117054000D03*
X153528000Y-118554000D03*
X153528000Y-120054000D03*
X153528000Y-121554000D03*
X153528000Y-123054000D03*
X153528000Y-124554000D03*
X153528000Y-126054000D03*
D22*
X112395000Y-102616000D03*
D23*
X112395000Y-96012000D03*
X110109000Y-96012000D03*
X114681000Y-96012000D03*
D24*
X148082000Y-75184000D03*
D25*
X148082000Y-77724000D03*
X148082000Y-80264000D03*
D24*
X158242000Y-75184000D03*
D25*
X158242000Y-77724000D03*
X158242000Y-80264000D03*
D24*
X168402000Y-75184000D03*
D25*
X168402000Y-77724000D03*
X168402000Y-80264000D03*
D24*
X137668000Y-75184000D03*
D25*
X137668000Y-77724000D03*
X137668000Y-80264000D03*
D26*
X171655000Y-126435000D03*
X171655000Y-124435000D03*
X171655000Y-122435000D03*
X171655000Y-120435000D03*
X171655000Y-118435000D03*
X171655000Y-116435000D03*
X171655000Y-114435000D03*
X171655000Y-112435000D03*
X171655000Y-110435000D03*
X171655000Y-108435000D03*
X149655000Y-108435000D03*
X149655000Y-110435000D03*
X149655000Y-112435000D03*
X149655000Y-114435000D03*
X149655000Y-116435000D03*
X149655000Y-118435000D03*
X149655000Y-120435000D03*
X149655000Y-122435000D03*
X149655000Y-124435000D03*
X149655000Y-126435000D03*
D27*
X165492000Y-74676000D03*
X161152000Y-74676000D03*
X145172000Y-74676000D03*
X140832000Y-74676000D03*
X155332000Y-74676000D03*
X150992000Y-74676000D03*
X134504000Y-74676000D03*
X130164000Y-74676000D03*
D28*
X95885000Y-76835000D03*
X174625000Y-76200000D03*
X100330000Y-113030000D03*
X166370000Y-111125000D03*
D29*
X97155000Y-107390000D03*
X97155000Y-100890000D03*
D30*
X118110000Y-105640000D03*
X118110000Y-102640000D03*
D31*
X106680000Y-102505000D03*
X106680000Y-104505000D03*
D32*
X163322000Y-74676000D03*
X153162000Y-74676000D03*
X143002000Y-74676000D03*
X132334000Y-74676000D03*
X121539000Y-110744000D03*
X141478000Y-120650000D03*
X143764000Y-96266000D03*
X138938000Y-91440000D03*
X126238000Y-124587000D03*
X125476000Y-114554000D03*
X151638000Y-120142000D03*
X160528000Y-120142000D03*
X112268000Y-121920000D03*
X124968000Y-123698000D03*
X153416000Y-112776000D03*
X126746000Y-121666000D03*
X126746000Y-114808000D03*
X116586000Y-116586000D03*
X162052000Y-93472000D03*
X166116000Y-90678000D03*
X166116000Y-93726000D03*
X161798000Y-94742000D03*
X138684000Y-103886000D03*
X144018000Y-103124000D03*
X141478000Y-104394000D03*
X147447000Y-105537000D03*
X138684000Y-105664000D03*
X155575000Y-127000000D03*
D33*
X161152000Y-74676000D02*
X163322000Y-74676000D01*
X150992000Y-74676000D02*
X153162000Y-74676000D01*
X140832000Y-74676000D02*
X143002000Y-74676000D01*
X130164000Y-74676000D02*
X132334000Y-74676000D01*
D34*
X171831000Y-88900000D02*
X171831000Y-85471000D01*
X171831000Y-85471000D02*
X171958000Y-85344000D01*
X171831000Y-88900000D02*
X172212000Y-88900000D01*
X122428000Y-114554000D02*
X122428000Y-111633000D01*
X122428000Y-111633000D02*
X121539000Y-110744000D01*
X140208000Y-123444000D02*
X140208000Y-121920000D01*
X140208000Y-121920000D02*
X141478000Y-120650000D01*
X140208000Y-123444000D02*
X140208000Y-123698000D01*
X138938000Y-91440000D02*
X125984000Y-91440000D01*
X125984000Y-91440000D02*
X122428000Y-94996000D01*
X122428000Y-94996000D02*
X122428000Y-111633000D01*
X154559000Y-96266000D02*
X143764000Y-96266000D01*
X131826000Y-124714000D02*
X131318000Y-125222000D01*
X131318000Y-125222000D02*
X131318000Y-127000000D01*
X131318000Y-127000000D02*
X130556000Y-127762000D01*
X130556000Y-127762000D02*
X127000000Y-127762000D01*
X127000000Y-127762000D02*
X126238000Y-127000000D01*
X126238000Y-127000000D02*
X126238000Y-124587000D01*
X140208000Y-123698000D02*
X139192000Y-124714000D01*
X139192000Y-124714000D02*
X131826000Y-124714000D01*
X125476000Y-114554000D02*
X123444000Y-114554000D01*
X123444000Y-114554000D02*
X122428000Y-114554000D01*
X151726000Y-120054000D02*
X151638000Y-120142000D01*
X153528000Y-120054000D02*
X151726000Y-120054000D01*
X126365000Y-77851000D02*
X126365000Y-78867000D01*
X126365000Y-78867000D02*
X126365000Y-78740000D01*
X126365000Y-78740000D02*
X126365000Y-78867000D01*
X126365000Y-77851000D02*
X127381000Y-77851000D01*
X127381000Y-77851000D02*
X127635000Y-77597000D01*
X127635000Y-77597000D02*
X127635000Y-77470000D01*
X127635000Y-77470000D02*
X127635000Y-77724000D01*
X97155000Y-107390000D02*
X97155000Y-109220000D01*
X97155000Y-109220000D02*
X97028000Y-109220000D01*
D33*
X158242000Y-77724000D02*
X168402000Y-77724000D01*
X158242000Y-77724000D02*
X152908000Y-77724000D01*
X152908000Y-77724000D02*
X147828000Y-77724000D01*
X136144000Y-77724000D02*
X137668000Y-77724000D01*
X137668000Y-77724000D02*
X142748000Y-77724000D01*
X142748000Y-77724000D02*
X147828000Y-77724000D01*
D34*
X97028000Y-110617000D02*
X98425000Y-110617000D01*
D33*
X97028000Y-118618000D02*
X97028000Y-110617000D01*
X127508000Y-77724000D02*
X127635000Y-77724000D01*
X126365000Y-78867000D02*
X127508000Y-77724000D01*
X127635000Y-77724000D02*
X136144000Y-77724000D01*
X115951000Y-89281000D02*
X126365000Y-78867000D01*
X110363000Y-94869000D02*
X115951000Y-89281000D01*
D34*
X137668000Y-77724000D02*
X136144000Y-77724000D01*
D33*
X97028000Y-108204000D02*
X110363000Y-94869000D01*
X97028000Y-110617000D02*
X97028000Y-109220000D01*
X97028000Y-109220000D02*
X97028000Y-108204000D01*
D34*
X137668000Y-77724000D02*
X131699000Y-77724000D01*
X131699000Y-77724000D02*
X131318000Y-78105000D01*
X106680000Y-101600000D02*
X106680000Y-102489000D01*
X110109000Y-98171000D02*
X106680000Y-101600000D01*
X110109000Y-96012000D02*
X110109000Y-95123000D01*
X110109000Y-95123000D02*
X110363000Y-94869000D01*
X110109000Y-96012000D02*
X110109000Y-98171000D01*
X112268000Y-121920000D02*
X113792000Y-121920000D01*
X113792000Y-121920000D02*
X114173000Y-122301000D01*
X114173000Y-122301000D02*
X114173000Y-125984000D01*
X114173000Y-123825000D02*
X114173000Y-125984000D01*
X117348000Y-113284000D02*
X117348000Y-114554000D01*
X117348000Y-114554000D02*
X119888000Y-114554000D01*
X118110000Y-100330000D02*
X118110000Y-102489000D01*
X115570000Y-104140000D02*
X115570000Y-110490000D01*
X115570000Y-110490000D02*
X117348000Y-112268000D01*
X117348000Y-112268000D02*
X117348000Y-114554000D01*
X117221000Y-102489000D02*
X115570000Y-104140000D01*
X118110000Y-102489000D02*
X117221000Y-102489000D01*
X159582000Y-127324000D02*
X156210000Y-123952000D01*
X161925000Y-127324000D02*
X161868000Y-127324000D01*
X161868000Y-127324000D02*
X159582000Y-127324000D01*
X170766000Y-127324000D02*
X171655000Y-126435000D01*
X161868000Y-127324000D02*
X170766000Y-127324000D01*
X124968000Y-123698000D02*
X125222000Y-123444000D01*
X125222000Y-123444000D02*
X130048000Y-123444000D01*
X116840000Y-99060000D02*
X118110000Y-100330000D01*
X113030000Y-99060000D02*
X116840000Y-99060000D01*
X112395000Y-98425000D02*
X113030000Y-99060000D01*
X112395000Y-94869000D02*
X112395000Y-96012000D01*
X112395000Y-96012000D02*
X112395000Y-98425000D01*
X156210000Y-123952000D02*
X156210000Y-116078000D01*
X156210000Y-116078000D02*
X155686000Y-115554000D01*
X155686000Y-115554000D02*
X153528000Y-115554000D01*
X153528000Y-112888000D02*
X153528000Y-115554000D01*
X153416000Y-112776000D02*
X153528000Y-112888000D01*
X133096000Y-99314000D02*
X126238000Y-106172000D01*
X141478000Y-90932000D02*
X133096000Y-99314000D01*
X141478000Y-89154000D02*
X141478000Y-90932000D01*
X148082000Y-82550000D02*
X141478000Y-89154000D01*
X164592000Y-82550000D02*
X148082000Y-82550000D01*
X166878000Y-84836000D02*
X164592000Y-82550000D01*
X118618000Y-121412000D02*
X117983000Y-122047000D01*
X126492000Y-121412000D02*
X118618000Y-121412000D01*
X126746000Y-121666000D02*
X126492000Y-121412000D01*
X126238000Y-114046000D02*
X126746000Y-114808000D01*
X126238000Y-106172000D02*
X126238000Y-114046000D01*
X117983000Y-122047000D02*
X117983000Y-125984000D01*
X166878000Y-85344000D02*
X166878000Y-84836000D01*
X164338000Y-85344000D02*
X164338000Y-85090000D01*
X127254000Y-113792000D02*
X127762000Y-114300000D01*
X142240000Y-91186000D02*
X142240000Y-91440000D01*
X127254000Y-113792000D02*
X127254000Y-106426000D01*
X164338000Y-85090000D02*
X162560000Y-83312000D01*
X162560000Y-83312000D02*
X148590000Y-83312000D01*
X148590000Y-83312000D02*
X142240000Y-89662000D01*
X142240000Y-89662000D02*
X142240000Y-91186000D01*
X142240000Y-91440000D02*
X127254000Y-106426000D01*
X127508000Y-116840000D02*
X116586000Y-116840000D01*
X127762000Y-116586000D02*
X127508000Y-116840000D01*
X127762000Y-114300000D02*
X127762000Y-116586000D01*
X116586000Y-116840000D02*
X116586000Y-116586000D01*
X169258000Y-124554000D02*
X167028000Y-124554000D01*
X176123600Y-98958400D02*
X175768000Y-99314000D01*
X175768000Y-99314000D02*
X175768000Y-122555000D01*
X176123600Y-91338400D02*
X177038000Y-90424000D01*
X177038000Y-85344000D02*
X177038000Y-90424000D01*
X176123600Y-91338400D02*
X176123600Y-98958400D01*
X171536000Y-124554000D02*
X171655000Y-124435000D01*
X171536000Y-124554000D02*
X169258000Y-124554000D01*
X174015000Y-124435000D02*
X175768000Y-122682000D01*
X171655000Y-124435000D02*
X174015000Y-124435000D01*
X174498000Y-90170000D02*
X173228000Y-91440000D01*
X174498000Y-89789000D02*
X174498000Y-85344000D01*
X174498000Y-89789000D02*
X174498000Y-90170000D01*
X173228000Y-91440000D02*
X173228000Y-121285000D01*
X170695000Y-122435000D02*
X171655000Y-122435000D01*
X172205000Y-122435000D02*
X173228000Y-121412000D01*
X171655000Y-122435000D02*
X172205000Y-122435000D01*
X169814000Y-121554000D02*
X170695000Y-122435000D01*
X168910000Y-121554000D02*
X169814000Y-121554000D01*
X169052000Y-121554000D02*
X168910000Y-121554000D01*
X168910000Y-121554000D02*
X167028000Y-121554000D01*
X161290000Y-93294200D02*
X160604200Y-93294200D01*
X161340800Y-93294200D02*
X161290000Y-93294200D01*
X160401000Y-93294200D02*
X160604200Y-93294200D01*
X142925800Y-93294200D02*
X136144000Y-100076000D01*
X136144000Y-100076000D02*
X136144000Y-117348000D01*
X136144000Y-117348000D02*
X134366000Y-119126000D01*
X134366000Y-119126000D02*
X111506000Y-119126000D01*
X111506000Y-119126000D02*
X109728000Y-117348000D01*
X109728000Y-117348000D02*
X109728000Y-114554000D01*
X160401000Y-93294200D02*
X142925800Y-93294200D01*
X161874200Y-93294200D02*
X162052000Y-93472000D01*
X161290000Y-93294200D02*
X161874200Y-93294200D01*
X154178000Y-85344000D02*
X154178000Y-85598000D01*
X156210000Y-87630000D02*
X154178000Y-85598000D01*
X156210000Y-87630000D02*
X164846000Y-87630000D01*
X164846000Y-87630000D02*
X166116000Y-88900000D01*
X166116000Y-88900000D02*
X166116000Y-90678000D01*
X166116000Y-93726000D02*
X163830000Y-96012000D01*
X163830000Y-96012000D02*
X160782000Y-96012000D01*
X160782000Y-96012000D02*
X159512000Y-94742000D01*
X143154400Y-94589600D02*
X137668000Y-100076000D01*
X137668000Y-100076000D02*
X137668000Y-117856000D01*
X137668000Y-117856000D02*
X134874000Y-120650000D01*
X134874000Y-120650000D02*
X106934000Y-120650000D01*
X106934000Y-120650000D02*
X104648000Y-118364000D01*
X104648000Y-114554000D02*
X104648000Y-118364000D01*
X146050000Y-94589600D02*
X145948400Y-94589600D01*
X145948400Y-94589600D02*
X143154400Y-94589600D01*
X146050000Y-94589600D02*
X159359600Y-94589600D01*
X159359600Y-94589600D02*
X159512000Y-94742000D01*
X145846800Y-93929200D02*
X143052800Y-93929200D01*
X107188000Y-118364000D02*
X107188000Y-114554000D01*
X108712000Y-119888000D02*
X107188000Y-118364000D01*
X134620000Y-119888000D02*
X108712000Y-119888000D01*
X136906000Y-117602000D02*
X134620000Y-119888000D01*
X136906000Y-100076000D02*
X136906000Y-117602000D01*
X143052800Y-93929200D02*
X136906000Y-100076000D01*
X145846800Y-93929200D02*
X145796000Y-93980000D01*
X160985200Y-93929200D02*
X161798000Y-94742000D01*
X145846800Y-93929200D02*
X160401000Y-93929200D01*
X160401000Y-93929200D02*
X160985200Y-93929200D01*
X149098000Y-98044000D02*
X140970000Y-98044000D01*
X140970000Y-98044000D02*
X138684000Y-100330000D01*
X138684000Y-100330000D02*
X138684000Y-103886000D01*
X151638000Y-100584000D02*
X149098000Y-98044000D01*
X166116000Y-98044000D02*
X169545000Y-98044000D01*
X166116000Y-98044000D02*
X154178000Y-98044000D01*
X154178000Y-98044000D02*
X151638000Y-100584000D01*
X169799000Y-92964000D02*
X169468800Y-92633800D01*
X169799000Y-97790000D02*
X169799000Y-92964000D01*
X169545000Y-98044000D02*
X169799000Y-97790000D01*
X146888200Y-92633800D02*
X142824200Y-92633800D01*
X160401000Y-92633800D02*
X146888200Y-92633800D01*
X112268000Y-114554000D02*
X112268000Y-117094000D01*
X113538000Y-118364000D02*
X112268000Y-117094000D01*
X134112000Y-118364000D02*
X113538000Y-118364000D01*
X135382000Y-117094000D02*
X134112000Y-118364000D01*
X135382000Y-100076000D02*
X135382000Y-117094000D01*
X142824200Y-92633800D02*
X135382000Y-100076000D01*
X160401000Y-92633800D02*
X169468800Y-92633800D01*
X154178000Y-100584000D02*
X154178000Y-101854000D01*
X142748000Y-125984000D02*
X140208000Y-125984000D01*
X143764000Y-124968000D02*
X142748000Y-125984000D01*
X143764000Y-105156000D02*
X143764000Y-124968000D01*
X146558000Y-102362000D02*
X143764000Y-105156000D01*
X153670000Y-102362000D02*
X146558000Y-102362000D01*
X154178000Y-101854000D02*
X153670000Y-102362000D01*
X156718000Y-100584000D02*
X156718000Y-102108000D01*
X137668000Y-127000000D02*
X137668000Y-125984000D01*
X137922000Y-127254000D02*
X137668000Y-127000000D01*
X156718000Y-102108000D02*
X155702000Y-103124000D01*
X146812000Y-91948000D02*
X142748000Y-91948000D01*
X146837400Y-91973400D02*
X146812000Y-91948000D01*
X160401000Y-91973400D02*
X146837400Y-91973400D01*
X142748000Y-91948000D02*
X134620000Y-100076000D01*
X114808000Y-116840000D02*
X114808000Y-114554000D01*
X115570000Y-117602000D02*
X114808000Y-116840000D01*
X133858000Y-117602000D02*
X115570000Y-117602000D01*
X134620000Y-116840000D02*
X133858000Y-117602000D01*
X134620000Y-100076000D02*
X134620000Y-116840000D01*
X169951400Y-91973400D02*
X170434000Y-92456000D01*
X170434000Y-92456000D02*
X170434000Y-98298000D01*
X170434000Y-98298000D02*
X169926000Y-98806000D01*
X169926000Y-98806000D02*
X166370000Y-98806000D01*
X156718000Y-100584000D02*
X158496000Y-98806000D01*
X166370000Y-98806000D02*
X158496000Y-98806000D01*
X160401000Y-91973400D02*
X169951400Y-91973400D01*
X155702000Y-103124000D02*
X147066000Y-103124000D01*
X147066000Y-103124000D02*
X144526000Y-105664000D01*
X144526000Y-105664000D02*
X144526000Y-125222000D01*
X142494000Y-127254000D02*
X137922000Y-127254000D01*
X144526000Y-125222000D02*
X142494000Y-127254000D01*
X159258000Y-100584000D02*
X159258000Y-101854000D01*
X132588000Y-127254000D02*
X132588000Y-125984000D01*
X133350000Y-128016000D02*
X132588000Y-127254000D01*
X159258000Y-101854000D02*
X157226000Y-103886000D01*
X157226000Y-103886000D02*
X147574000Y-103886000D01*
X147574000Y-103886000D02*
X145288000Y-106172000D01*
X145288000Y-106172000D02*
X145288000Y-125730000D01*
X143002000Y-128016000D02*
X133350000Y-128016000D01*
X145288000Y-125730000D02*
X143002000Y-128016000D01*
X140716000Y-118110000D02*
X140716000Y-106426000D01*
X140716000Y-106426000D02*
X144018000Y-103124000D01*
X137668000Y-123444000D02*
X137668000Y-121158000D01*
X137668000Y-121158000D02*
X140716000Y-118110000D01*
X137668000Y-123444000D02*
X137922000Y-123444000D01*
X141478000Y-104394000D02*
X139700000Y-106172000D01*
X139700000Y-106172000D02*
X139700000Y-118110000D01*
X135128000Y-123444000D02*
X135128000Y-122682000D01*
X135128000Y-122682000D02*
X139700000Y-118110000D01*
X166878000Y-100584000D02*
X166878000Y-101600000D01*
X166878000Y-101600000D02*
X162941000Y-105537000D01*
X162941000Y-105537000D02*
X147447000Y-105537000D01*
X135382000Y-121412000D02*
X138684000Y-118110000D01*
X134366000Y-121412000D02*
X135382000Y-121412000D01*
X134366000Y-121412000D02*
X132588000Y-123190000D01*
X138684000Y-105664000D02*
X138684000Y-118110000D01*
X132588000Y-123444000D02*
X132588000Y-123190000D01*
X171958000Y-100584000D02*
X171958000Y-101727000D01*
X155956000Y-107696000D02*
X155829000Y-107696000D01*
X165989000Y-107696000D02*
X155956000Y-107696000D01*
X171958000Y-101727000D02*
X165989000Y-107696000D01*
X151828000Y-118554000D02*
X153528000Y-118554000D01*
X151638000Y-118364000D02*
X151828000Y-118554000D01*
X151638000Y-110744000D02*
X151638000Y-118364000D01*
X154686000Y-107696000D02*
X151638000Y-110744000D01*
X155956000Y-107696000D02*
X154686000Y-107696000D01*
X155575000Y-127000000D02*
X155575000Y-119380000D01*
X155575000Y-119380000D02*
X154749000Y-118554000D01*
X154749000Y-118554000D02*
X153528000Y-118554000D01*
D33*
X168402000Y-75184000D02*
X166000000Y-75184000D01*
X166000000Y-75184000D02*
X165492000Y-74676000D01*
X148082000Y-75184000D02*
X145680000Y-75184000D01*
X145680000Y-75184000D02*
X145172000Y-74676000D01*
X158242000Y-75184000D02*
X155840000Y-75184000D01*
X155840000Y-75184000D02*
X155332000Y-74676000D01*
X137668000Y-75184000D02*
X135012000Y-75184000D01*
X135012000Y-75184000D02*
X134504000Y-74676000D01*
D34*
G36*
X132095369Y-127839000D02*
X123113000Y-127839000D01*
X123113000Y-124714000D01*
X123113000Y-123444000D01*
X123060857Y-123181862D01*
X122912368Y-122959632D01*
X122690138Y-122811143D01*
X122428000Y-122759000D01*
X119130440Y-122759000D01*
X119130440Y-122174000D01*
X125787880Y-122174000D01*
X125830311Y-122276689D01*
X126133714Y-122580622D01*
X126377858Y-122682000D01*
X125336141Y-122682000D01*
X125183668Y-122618687D01*
X124754216Y-122618313D01*
X124357311Y-122782311D01*
X124053378Y-123085714D01*
X123888687Y-123482332D01*
X123888313Y-123911784D01*
X124052311Y-124308689D01*
X124355714Y-124612622D01*
X124752332Y-124777313D01*
X125181784Y-124777687D01*
X125578689Y-124613689D01*
X125882622Y-124310286D01*
X125925925Y-124206000D01*
X128769816Y-124206000D01*
X128975300Y-124513529D01*
X128942277Y-124519937D01*
X128729473Y-124659727D01*
X128587023Y-124870760D01*
X128536960Y-125120400D01*
X128536960Y-126847600D01*
X128583937Y-127089723D01*
X128723727Y-127302527D01*
X128934760Y-127444977D01*
X129184400Y-127495040D01*
X130911600Y-127495040D01*
X131153723Y-127448063D01*
X131366527Y-127308273D01*
X131508977Y-127097240D01*
X131517179Y-127056340D01*
X131528330Y-127073029D01*
X131830112Y-127274673D01*
X131884004Y-127545605D01*
X132049185Y-127792815D01*
X132095369Y-127839000D01*
X132095369Y-127839000D01*
G37*
X132095369Y-127839000D02*
X123113000Y-127839000D01*
X123113000Y-124714000D01*
X123113000Y-123444000D01*
X123060857Y-123181862D01*
X122912368Y-122959632D01*
X122690138Y-122811143D01*
X122428000Y-122759000D01*
X119130440Y-122759000D01*
X119130440Y-122174000D01*
X125787880Y-122174000D01*
X125830311Y-122276689D01*
X126133714Y-122580622D01*
X126377858Y-122682000D01*
X125336141Y-122682000D01*
X125183668Y-122618687D01*
X124754216Y-122618313D01*
X124357311Y-122782311D01*
X124053378Y-123085714D01*
X123888687Y-123482332D01*
X123888313Y-123911784D01*
X124052311Y-124308689D01*
X124355714Y-124612622D01*
X124752332Y-124777313D01*
X125181784Y-124777687D01*
X125578689Y-124613689D01*
X125882622Y-124310286D01*
X125925925Y-124206000D01*
X128769816Y-124206000D01*
X128975300Y-124513529D01*
X128942277Y-124519937D01*
X128729473Y-124659727D01*
X128587023Y-124870760D01*
X128536960Y-125120400D01*
X128536960Y-126847600D01*
X128583937Y-127089723D01*
X128723727Y-127302527D01*
X128934760Y-127444977D01*
X129184400Y-127495040D01*
X130911600Y-127495040D01*
X131153723Y-127448063D01*
X131366527Y-127308273D01*
X131508977Y-127097240D01*
X131517179Y-127056340D01*
X131528330Y-127073029D01*
X131830112Y-127274673D01*
X131884004Y-127545605D01*
X132049185Y-127792815D01*
X132095369Y-127839000D01*
G36*
X132988484Y-76539000D02*
X131689000Y-76539000D01*
X131689000Y-74961750D01*
X131530250Y-74803000D01*
X130291000Y-74803000D01*
X130291000Y-74823000D01*
X130037000Y-74823000D01*
X130037000Y-74803000D01*
X128797750Y-74803000D01*
X128639000Y-74961750D01*
X128639000Y-76539000D01*
X128016000Y-76539000D01*
X128016000Y-75437309D01*
X128016000Y-74834750D01*
X127857250Y-74676000D01*
X126492000Y-74676000D01*
X126492000Y-75787250D01*
X126650750Y-75946000D01*
X127254691Y-75946000D01*
X127507310Y-75946000D01*
X127740699Y-75849327D01*
X127919327Y-75670698D01*
X128016000Y-75437309D01*
X128016000Y-76539000D01*
X127700826Y-76539000D01*
X127630640Y-76491623D01*
X127381000Y-76441560D01*
X126238000Y-76441560D01*
X126238000Y-75787250D01*
X126238000Y-74676000D01*
X124872750Y-74676000D01*
X124714000Y-74834750D01*
X124714000Y-75437309D01*
X124810673Y-75670698D01*
X124989301Y-75849327D01*
X125222690Y-75946000D01*
X125475309Y-75946000D01*
X126079250Y-75946000D01*
X126238000Y-75787250D01*
X126238000Y-76441560D01*
X125349000Y-76441560D01*
X125106877Y-76488537D01*
X124894073Y-76628327D01*
X124751623Y-76839360D01*
X124701560Y-77089000D01*
X124701560Y-78613000D01*
X124740817Y-78815338D01*
X115113078Y-88443078D01*
X115113075Y-88443081D01*
X109525078Y-94031078D01*
X109525075Y-94031081D01*
X98520457Y-105035698D01*
X98520457Y-76313166D01*
X98120147Y-75344342D01*
X97379557Y-74602458D01*
X96411433Y-74200458D01*
X95363166Y-74199543D01*
X94394342Y-74599853D01*
X93652458Y-75340443D01*
X93250458Y-76308567D01*
X93249543Y-77356834D01*
X93649853Y-78325658D01*
X94390443Y-79067542D01*
X95358567Y-79469542D01*
X96406834Y-79470457D01*
X97375658Y-79070147D01*
X98117542Y-78329557D01*
X98519542Y-77361433D01*
X98520457Y-76313166D01*
X98520457Y-105035698D01*
X98250000Y-105306155D01*
X98250000Y-102816310D01*
X98250000Y-102563691D01*
X98250000Y-101175750D01*
X98250000Y-100604250D01*
X98250000Y-99216309D01*
X98250000Y-98963690D01*
X98153327Y-98730301D01*
X97974698Y-98551673D01*
X97741309Y-98455000D01*
X97440750Y-98455000D01*
X97282000Y-98613750D01*
X97282000Y-100763000D01*
X98091250Y-100763000D01*
X98250000Y-100604250D01*
X98250000Y-101175750D01*
X98091250Y-101017000D01*
X97282000Y-101017000D01*
X97282000Y-103166250D01*
X97440750Y-103325000D01*
X97741309Y-103325000D01*
X97974698Y-103228327D01*
X98153327Y-103049699D01*
X98250000Y-102816310D01*
X98250000Y-105306155D01*
X98212614Y-105343541D01*
X98075673Y-105135073D01*
X97864640Y-104992623D01*
X97615000Y-104942560D01*
X97028000Y-104942560D01*
X97028000Y-103166250D01*
X97028000Y-101017000D01*
X97028000Y-100763000D01*
X97028000Y-98613750D01*
X96869250Y-98455000D01*
X96568691Y-98455000D01*
X96335302Y-98551673D01*
X96156673Y-98730301D01*
X96060000Y-98963690D01*
X96060000Y-99216309D01*
X96060000Y-100604250D01*
X96218750Y-100763000D01*
X97028000Y-100763000D01*
X97028000Y-101017000D01*
X96218750Y-101017000D01*
X96060000Y-101175750D01*
X96060000Y-102563691D01*
X96060000Y-102816310D01*
X96156673Y-103049699D01*
X96335302Y-103228327D01*
X96568691Y-103325000D01*
X96869250Y-103325000D01*
X97028000Y-103166250D01*
X97028000Y-104942560D01*
X96695000Y-104942560D01*
X96452877Y-104989537D01*
X96240073Y-105129327D01*
X96097623Y-105340360D01*
X96047560Y-105590000D01*
X96047560Y-107579372D01*
X95933203Y-107750520D01*
X95842999Y-108204000D01*
X95843000Y-108204005D01*
X95843000Y-109220000D01*
X95843000Y-110617000D01*
X95843000Y-115570260D01*
X94627700Y-115570260D01*
X94385577Y-115617237D01*
X94172773Y-115757027D01*
X94030323Y-115968060D01*
X93980260Y-116217700D01*
X93980260Y-121018300D01*
X94027237Y-121260423D01*
X94167027Y-121473227D01*
X94378060Y-121615677D01*
X94627700Y-121665740D01*
X99139180Y-121665740D01*
X99071631Y-121829642D01*
X99072804Y-122489587D01*
X99012329Y-122550062D01*
X98742779Y-122137743D01*
X97626358Y-121677631D01*
X96418843Y-121679779D01*
X95313221Y-122137743D01*
X95043670Y-122550064D01*
X97028000Y-124534395D01*
X97042142Y-124520252D01*
X97221747Y-124699857D01*
X97207605Y-124714000D01*
X99191936Y-126698330D01*
X99604257Y-126428779D01*
X100064369Y-125312358D01*
X100063194Y-124652413D01*
X100123670Y-124591937D01*
X100393221Y-125004257D01*
X101509642Y-125464369D01*
X102717157Y-125462221D01*
X103822779Y-125004257D01*
X104092330Y-124591936D01*
X102108000Y-122607605D01*
X102093857Y-122621747D01*
X101914252Y-122442142D01*
X101928395Y-122428000D01*
X101914252Y-122413857D01*
X102093857Y-122234252D01*
X102108000Y-122248395D01*
X104092330Y-120264064D01*
X103822779Y-119851743D01*
X102706358Y-119391631D01*
X101498843Y-119393779D01*
X100393221Y-119851743D01*
X100123670Y-120264062D01*
X100075740Y-120216132D01*
X100075740Y-116217700D01*
X100028763Y-115975577D01*
X99888973Y-115762773D01*
X99677940Y-115620323D01*
X99428300Y-115570260D01*
X98213000Y-115570260D01*
X98213000Y-114639011D01*
X98835443Y-115262542D01*
X99803567Y-115664542D01*
X100851834Y-115665457D01*
X101820658Y-115265147D01*
X102562542Y-114524557D01*
X102964542Y-113556433D01*
X102965457Y-112508166D01*
X102565147Y-111539342D01*
X101824557Y-110797458D01*
X100856433Y-110395458D01*
X99808166Y-110394543D01*
X99179587Y-110654266D01*
X99187000Y-110617000D01*
X99128996Y-110325395D01*
X98963815Y-110078185D01*
X98716605Y-109913004D01*
X98425000Y-109855000D01*
X98213000Y-109855000D01*
X98213000Y-109436533D01*
X98262440Y-109190000D01*
X98262440Y-108645403D01*
X109310229Y-97597613D01*
X109347000Y-97622433D01*
X109347000Y-97855369D01*
X106141185Y-101061185D01*
X105976004Y-101308395D01*
X105962660Y-101375475D01*
X105812877Y-101404537D01*
X105600073Y-101544327D01*
X105457623Y-101755360D01*
X105407560Y-102005000D01*
X105407560Y-103005000D01*
X105454537Y-103247123D01*
X105594327Y-103459927D01*
X105658637Y-103503337D01*
X105516673Y-103645302D01*
X105420000Y-103878691D01*
X105420000Y-104219250D01*
X105578750Y-104378000D01*
X106553000Y-104378000D01*
X106553000Y-104358000D01*
X106807000Y-104358000D01*
X106807000Y-104378000D01*
X107781250Y-104378000D01*
X107940000Y-104219250D01*
X107940000Y-103878691D01*
X107843327Y-103645302D01*
X107701849Y-103503823D01*
X107759927Y-103465673D01*
X107902377Y-103254640D01*
X107952440Y-103005000D01*
X107952440Y-102005000D01*
X107905463Y-101762877D01*
X107782278Y-101575351D01*
X110647815Y-98709816D01*
X110647815Y-98709815D01*
X110812996Y-98462605D01*
X110870999Y-98171000D01*
X110871000Y-98171000D01*
X110871000Y-97620661D01*
X111071927Y-97488673D01*
X111214377Y-97277640D01*
X111251794Y-97091057D01*
X111286537Y-97270123D01*
X111426327Y-97482927D01*
X111633000Y-97622433D01*
X111633000Y-98425000D01*
X111691004Y-98716605D01*
X111856185Y-98963815D01*
X112491185Y-99598816D01*
X112639376Y-99697834D01*
X112738395Y-99763996D01*
X112738396Y-99763996D01*
X113030000Y-99822000D01*
X116524369Y-99822000D01*
X117348000Y-100645630D01*
X117348000Y-101492560D01*
X117310000Y-101492560D01*
X117067877Y-101539537D01*
X116855073Y-101679327D01*
X116712623Y-101890360D01*
X116703479Y-101935955D01*
X116703478Y-101935956D01*
X116682185Y-101950184D01*
X115031185Y-103601185D01*
X114871240Y-103840558D01*
X114871240Y-103632000D01*
X114871240Y-101600000D01*
X114824263Y-101357877D01*
X114684473Y-101145073D01*
X114473440Y-101002623D01*
X114223800Y-100952560D01*
X110566200Y-100952560D01*
X110324077Y-100999537D01*
X110111273Y-101139327D01*
X109968823Y-101350360D01*
X109918760Y-101600000D01*
X109918760Y-103632000D01*
X109965737Y-103874123D01*
X110105527Y-104086927D01*
X110316560Y-104229377D01*
X110566200Y-104279440D01*
X114223800Y-104279440D01*
X114465923Y-104232463D01*
X114678727Y-104092673D01*
X114821177Y-103881640D01*
X114871240Y-103632000D01*
X114871240Y-103840558D01*
X114866004Y-103848395D01*
X114808000Y-104140000D01*
X114808000Y-110490000D01*
X114866004Y-110781605D01*
X115031185Y-111028815D01*
X116586000Y-112583630D01*
X116586000Y-113099779D01*
X116423057Y-113167106D01*
X116077800Y-113511759D01*
X115735363Y-113168722D01*
X115134648Y-112919284D01*
X114484205Y-112918716D01*
X113883057Y-113167106D01*
X113537800Y-113511759D01*
X113195363Y-113168722D01*
X112594648Y-112919284D01*
X111944205Y-112918716D01*
X111343057Y-113167106D01*
X110997800Y-113511759D01*
X110655363Y-113168722D01*
X110054648Y-112919284D01*
X109404205Y-112918716D01*
X108803057Y-113167106D01*
X108457800Y-113511759D01*
X108115363Y-113168722D01*
X107940000Y-113095905D01*
X107940000Y-105131309D01*
X107940000Y-104790750D01*
X107781250Y-104632000D01*
X106807000Y-104632000D01*
X106807000Y-105481250D01*
X106965750Y-105640000D01*
X107178691Y-105640000D01*
X107431310Y-105640000D01*
X107664699Y-105543327D01*
X107843327Y-105364698D01*
X107940000Y-105131309D01*
X107940000Y-113095905D01*
X107514648Y-112919284D01*
X106864205Y-112918716D01*
X106553000Y-113047303D01*
X106553000Y-105481250D01*
X106553000Y-104632000D01*
X105578750Y-104632000D01*
X105420000Y-104790750D01*
X105420000Y-105131309D01*
X105516673Y-105364698D01*
X105695301Y-105543327D01*
X105928690Y-105640000D01*
X106181309Y-105640000D01*
X106394250Y-105640000D01*
X106553000Y-105481250D01*
X106553000Y-113047303D01*
X106263057Y-113167106D01*
X105917800Y-113511759D01*
X105575363Y-113168722D01*
X104974648Y-112919284D01*
X104324205Y-112918716D01*
X103723057Y-113167106D01*
X103262722Y-113626637D01*
X103013284Y-114227352D01*
X103012716Y-114877795D01*
X103261106Y-115478943D01*
X103720637Y-115939278D01*
X103886000Y-116007942D01*
X103886000Y-118364000D01*
X103944004Y-118655605D01*
X104109185Y-118902815D01*
X106395184Y-121188815D01*
X106395185Y-121188815D01*
X106642395Y-121353996D01*
X106934000Y-121412000D01*
X111310074Y-121412000D01*
X111188687Y-121704332D01*
X111188313Y-122133784D01*
X111352311Y-122530689D01*
X111580223Y-122759000D01*
X109728000Y-122759000D01*
X109465862Y-122811143D01*
X109243632Y-122959632D01*
X109095143Y-123181862D01*
X109043000Y-123444000D01*
X109043000Y-124714000D01*
X109043000Y-127839000D01*
X105144369Y-127839000D01*
X105144369Y-123026358D01*
X105142221Y-121818843D01*
X104684257Y-120713221D01*
X104271936Y-120443670D01*
X104092330Y-120623275D01*
X102287605Y-122428000D01*
X104271936Y-124412330D01*
X104684257Y-124142779D01*
X105144369Y-123026358D01*
X105144369Y-127839000D01*
X104092330Y-127839000D01*
X97095467Y-127839000D01*
X96647936Y-127749980D01*
X97637157Y-127748221D01*
X98742779Y-127290257D01*
X99012330Y-126877936D01*
X97028000Y-124893605D01*
X96848395Y-125073210D01*
X96848395Y-124714000D01*
X94864064Y-122729670D01*
X94451743Y-122999221D01*
X93991631Y-124115642D01*
X93993779Y-125323157D01*
X94451743Y-126428779D01*
X94864064Y-126698330D01*
X96848395Y-124714000D01*
X96848395Y-125073210D01*
X95043670Y-126877936D01*
X95313221Y-127290257D01*
X96224173Y-127665688D01*
X95351241Y-127492051D01*
X93929754Y-126542243D01*
X92979947Y-125120757D01*
X92633000Y-123376532D01*
X92633000Y-77791467D01*
X92979947Y-76047242D01*
X93929754Y-74625756D01*
X95351241Y-73675948D01*
X97095467Y-73329000D01*
X124908974Y-73329000D01*
X124810673Y-73427302D01*
X124714000Y-73660691D01*
X124714000Y-74263250D01*
X124872750Y-74422000D01*
X126238000Y-74422000D01*
X126238000Y-74402000D01*
X126492000Y-74402000D01*
X126492000Y-74422000D01*
X127857250Y-74422000D01*
X128016000Y-74263250D01*
X128016000Y-73660691D01*
X127919327Y-73427302D01*
X127821025Y-73329000D01*
X128639000Y-73329000D01*
X128639000Y-74390250D01*
X128797750Y-74549000D01*
X130037000Y-74549000D01*
X130037000Y-74529000D01*
X130291000Y-74529000D01*
X130291000Y-74549000D01*
X131530250Y-74549000D01*
X131689000Y-74390250D01*
X131689000Y-73329000D01*
X132966560Y-73329000D01*
X132966560Y-76426000D01*
X132988484Y-76539000D01*
X132988484Y-76539000D01*
G37*
X132988484Y-76539000D02*
X131689000Y-76539000D01*
X131689000Y-74961750D01*
X131530250Y-74803000D01*
X130291000Y-74803000D01*
X130291000Y-74823000D01*
X130037000Y-74823000D01*
X130037000Y-74803000D01*
X128797750Y-74803000D01*
X128639000Y-74961750D01*
X128639000Y-76539000D01*
X128016000Y-76539000D01*
X128016000Y-75437309D01*
X128016000Y-74834750D01*
X127857250Y-74676000D01*
X126492000Y-74676000D01*
X126492000Y-75787250D01*
X126650750Y-75946000D01*
X127254691Y-75946000D01*
X127507310Y-75946000D01*
X127740699Y-75849327D01*
X127919327Y-75670698D01*
X128016000Y-75437309D01*
X128016000Y-76539000D01*
X127700826Y-76539000D01*
X127630640Y-76491623D01*
X127381000Y-76441560D01*
X126238000Y-76441560D01*
X126238000Y-75787250D01*
X126238000Y-74676000D01*
X124872750Y-74676000D01*
X124714000Y-74834750D01*
X124714000Y-75437309D01*
X124810673Y-75670698D01*
X124989301Y-75849327D01*
X125222690Y-75946000D01*
X125475309Y-75946000D01*
X126079250Y-75946000D01*
X126238000Y-75787250D01*
X126238000Y-76441560D01*
X125349000Y-76441560D01*
X125106877Y-76488537D01*
X124894073Y-76628327D01*
X124751623Y-76839360D01*
X124701560Y-77089000D01*
X124701560Y-78613000D01*
X124740817Y-78815338D01*
X115113078Y-88443078D01*
X115113075Y-88443081D01*
X109525078Y-94031078D01*
X109525075Y-94031081D01*
X98520457Y-105035698D01*
X98520457Y-76313166D01*
X98120147Y-75344342D01*
X97379557Y-74602458D01*
X96411433Y-74200458D01*
X95363166Y-74199543D01*
X94394342Y-74599853D01*
X93652458Y-75340443D01*
X93250458Y-76308567D01*
X93249543Y-77356834D01*
X93649853Y-78325658D01*
X94390443Y-79067542D01*
X95358567Y-79469542D01*
X96406834Y-79470457D01*
X97375658Y-79070147D01*
X98117542Y-78329557D01*
X98519542Y-77361433D01*
X98520457Y-76313166D01*
X98520457Y-105035698D01*
X98250000Y-105306155D01*
X98250000Y-102816310D01*
X98250000Y-102563691D01*
X98250000Y-101175750D01*
X98250000Y-100604250D01*
X98250000Y-99216309D01*
X98250000Y-98963690D01*
X98153327Y-98730301D01*
X97974698Y-98551673D01*
X97741309Y-98455000D01*
X97440750Y-98455000D01*
X97282000Y-98613750D01*
X97282000Y-100763000D01*
X98091250Y-100763000D01*
X98250000Y-100604250D01*
X98250000Y-101175750D01*
X98091250Y-101017000D01*
X97282000Y-101017000D01*
X97282000Y-103166250D01*
X97440750Y-103325000D01*
X97741309Y-103325000D01*
X97974698Y-103228327D01*
X98153327Y-103049699D01*
X98250000Y-102816310D01*
X98250000Y-105306155D01*
X98212614Y-105343541D01*
X98075673Y-105135073D01*
X97864640Y-104992623D01*
X97615000Y-104942560D01*
X97028000Y-104942560D01*
X97028000Y-103166250D01*
X97028000Y-101017000D01*
X97028000Y-100763000D01*
X97028000Y-98613750D01*
X96869250Y-98455000D01*
X96568691Y-98455000D01*
X96335302Y-98551673D01*
X96156673Y-98730301D01*
X96060000Y-98963690D01*
X96060000Y-99216309D01*
X96060000Y-100604250D01*
X96218750Y-100763000D01*
X97028000Y-100763000D01*
X97028000Y-101017000D01*
X96218750Y-101017000D01*
X96060000Y-101175750D01*
X96060000Y-102563691D01*
X96060000Y-102816310D01*
X96156673Y-103049699D01*
X96335302Y-103228327D01*
X96568691Y-103325000D01*
X96869250Y-103325000D01*
X97028000Y-103166250D01*
X97028000Y-104942560D01*
X96695000Y-104942560D01*
X96452877Y-104989537D01*
X96240073Y-105129327D01*
X96097623Y-105340360D01*
X96047560Y-105590000D01*
X96047560Y-107579372D01*
X95933203Y-107750520D01*
X95842999Y-108204000D01*
X95843000Y-108204005D01*
X95843000Y-109220000D01*
X95843000Y-110617000D01*
X95843000Y-115570260D01*
X94627700Y-115570260D01*
X94385577Y-115617237D01*
X94172773Y-115757027D01*
X94030323Y-115968060D01*
X93980260Y-116217700D01*
X93980260Y-121018300D01*
X94027237Y-121260423D01*
X94167027Y-121473227D01*
X94378060Y-121615677D01*
X94627700Y-121665740D01*
X99139180Y-121665740D01*
X99071631Y-121829642D01*
X99072804Y-122489587D01*
X99012329Y-122550062D01*
X98742779Y-122137743D01*
X97626358Y-121677631D01*
X96418843Y-121679779D01*
X95313221Y-122137743D01*
X95043670Y-122550064D01*
X97028000Y-124534395D01*
X97042142Y-124520252D01*
X97221747Y-124699857D01*
X97207605Y-124714000D01*
X99191936Y-126698330D01*
X99604257Y-126428779D01*
X100064369Y-125312358D01*
X100063194Y-124652413D01*
X100123670Y-124591937D01*
X100393221Y-125004257D01*
X101509642Y-125464369D01*
X102717157Y-125462221D01*
X103822779Y-125004257D01*
X104092330Y-124591936D01*
X102108000Y-122607605D01*
X102093857Y-122621747D01*
X101914252Y-122442142D01*
X101928395Y-122428000D01*
X101914252Y-122413857D01*
X102093857Y-122234252D01*
X102108000Y-122248395D01*
X104092330Y-120264064D01*
X103822779Y-119851743D01*
X102706358Y-119391631D01*
X101498843Y-119393779D01*
X100393221Y-119851743D01*
X100123670Y-120264062D01*
X100075740Y-120216132D01*
X100075740Y-116217700D01*
X100028763Y-115975577D01*
X99888973Y-115762773D01*
X99677940Y-115620323D01*
X99428300Y-115570260D01*
X98213000Y-115570260D01*
X98213000Y-114639011D01*
X98835443Y-115262542D01*
X99803567Y-115664542D01*
X100851834Y-115665457D01*
X101820658Y-115265147D01*
X102562542Y-114524557D01*
X102964542Y-113556433D01*
X102965457Y-112508166D01*
X102565147Y-111539342D01*
X101824557Y-110797458D01*
X100856433Y-110395458D01*
X99808166Y-110394543D01*
X99179587Y-110654266D01*
X99187000Y-110617000D01*
X99128996Y-110325395D01*
X98963815Y-110078185D01*
X98716605Y-109913004D01*
X98425000Y-109855000D01*
X98213000Y-109855000D01*
X98213000Y-109436533D01*
X98262440Y-109190000D01*
X98262440Y-108645403D01*
X109310229Y-97597613D01*
X109347000Y-97622433D01*
X109347000Y-97855369D01*
X106141185Y-101061185D01*
X105976004Y-101308395D01*
X105962660Y-101375475D01*
X105812877Y-101404537D01*
X105600073Y-101544327D01*
X105457623Y-101755360D01*
X105407560Y-102005000D01*
X105407560Y-103005000D01*
X105454537Y-103247123D01*
X105594327Y-103459927D01*
X105658637Y-103503337D01*
X105516673Y-103645302D01*
X105420000Y-103878691D01*
X105420000Y-104219250D01*
X105578750Y-104378000D01*
X106553000Y-104378000D01*
X106553000Y-104358000D01*
X106807000Y-104358000D01*
X106807000Y-104378000D01*
X107781250Y-104378000D01*
X107940000Y-104219250D01*
X107940000Y-103878691D01*
X107843327Y-103645302D01*
X107701849Y-103503823D01*
X107759927Y-103465673D01*
X107902377Y-103254640D01*
X107952440Y-103005000D01*
X107952440Y-102005000D01*
X107905463Y-101762877D01*
X107782278Y-101575351D01*
X110647815Y-98709816D01*
X110647815Y-98709815D01*
X110812996Y-98462605D01*
X110870999Y-98171000D01*
X110871000Y-98171000D01*
X110871000Y-97620661D01*
X111071927Y-97488673D01*
X111214377Y-97277640D01*
X111251794Y-97091057D01*
X111286537Y-97270123D01*
X111426327Y-97482927D01*
X111633000Y-97622433D01*
X111633000Y-98425000D01*
X111691004Y-98716605D01*
X111856185Y-98963815D01*
X112491185Y-99598816D01*
X112639376Y-99697834D01*
X112738395Y-99763996D01*
X112738396Y-99763996D01*
X113030000Y-99822000D01*
X116524369Y-99822000D01*
X117348000Y-100645630D01*
X117348000Y-101492560D01*
X117310000Y-101492560D01*
X117067877Y-101539537D01*
X116855073Y-101679327D01*
X116712623Y-101890360D01*
X116703479Y-101935955D01*
X116703478Y-101935956D01*
X116682185Y-101950184D01*
X115031185Y-103601185D01*
X114871240Y-103840558D01*
X114871240Y-103632000D01*
X114871240Y-101600000D01*
X114824263Y-101357877D01*
X114684473Y-101145073D01*
X114473440Y-101002623D01*
X114223800Y-100952560D01*
X110566200Y-100952560D01*
X110324077Y-100999537D01*
X110111273Y-101139327D01*
X109968823Y-101350360D01*
X109918760Y-101600000D01*
X109918760Y-103632000D01*
X109965737Y-103874123D01*
X110105527Y-104086927D01*
X110316560Y-104229377D01*
X110566200Y-104279440D01*
X114223800Y-104279440D01*
X114465923Y-104232463D01*
X114678727Y-104092673D01*
X114821177Y-103881640D01*
X114871240Y-103632000D01*
X114871240Y-103840558D01*
X114866004Y-103848395D01*
X114808000Y-104140000D01*
X114808000Y-110490000D01*
X114866004Y-110781605D01*
X115031185Y-111028815D01*
X116586000Y-112583630D01*
X116586000Y-113099779D01*
X116423057Y-113167106D01*
X116077800Y-113511759D01*
X115735363Y-113168722D01*
X115134648Y-112919284D01*
X114484205Y-112918716D01*
X113883057Y-113167106D01*
X113537800Y-113511759D01*
X113195363Y-113168722D01*
X112594648Y-112919284D01*
X111944205Y-112918716D01*
X111343057Y-113167106D01*
X110997800Y-113511759D01*
X110655363Y-113168722D01*
X110054648Y-112919284D01*
X109404205Y-112918716D01*
X108803057Y-113167106D01*
X108457800Y-113511759D01*
X108115363Y-113168722D01*
X107940000Y-113095905D01*
X107940000Y-105131309D01*
X107940000Y-104790750D01*
X107781250Y-104632000D01*
X106807000Y-104632000D01*
X106807000Y-105481250D01*
X106965750Y-105640000D01*
X107178691Y-105640000D01*
X107431310Y-105640000D01*
X107664699Y-105543327D01*
X107843327Y-105364698D01*
X107940000Y-105131309D01*
X107940000Y-113095905D01*
X107514648Y-112919284D01*
X106864205Y-112918716D01*
X106553000Y-113047303D01*
X106553000Y-105481250D01*
X106553000Y-104632000D01*
X105578750Y-104632000D01*
X105420000Y-104790750D01*
X105420000Y-105131309D01*
X105516673Y-105364698D01*
X105695301Y-105543327D01*
X105928690Y-105640000D01*
X106181309Y-105640000D01*
X106394250Y-105640000D01*
X106553000Y-105481250D01*
X106553000Y-113047303D01*
X106263057Y-113167106D01*
X105917800Y-113511759D01*
X105575363Y-113168722D01*
X104974648Y-112919284D01*
X104324205Y-112918716D01*
X103723057Y-113167106D01*
X103262722Y-113626637D01*
X103013284Y-114227352D01*
X103012716Y-114877795D01*
X103261106Y-115478943D01*
X103720637Y-115939278D01*
X103886000Y-116007942D01*
X103886000Y-118364000D01*
X103944004Y-118655605D01*
X104109185Y-118902815D01*
X106395184Y-121188815D01*
X106395185Y-121188815D01*
X106642395Y-121353996D01*
X106934000Y-121412000D01*
X111310074Y-121412000D01*
X111188687Y-121704332D01*
X111188313Y-122133784D01*
X111352311Y-122530689D01*
X111580223Y-122759000D01*
X109728000Y-122759000D01*
X109465862Y-122811143D01*
X109243632Y-122959632D01*
X109095143Y-123181862D01*
X109043000Y-123444000D01*
X109043000Y-124714000D01*
X109043000Y-127839000D01*
X105144369Y-127839000D01*
X105144369Y-123026358D01*
X105142221Y-121818843D01*
X104684257Y-120713221D01*
X104271936Y-120443670D01*
X104092330Y-120623275D01*
X102287605Y-122428000D01*
X104271936Y-124412330D01*
X104684257Y-124142779D01*
X105144369Y-123026358D01*
X105144369Y-127839000D01*
X104092330Y-127839000D01*
X97095467Y-127839000D01*
X96647936Y-127749980D01*
X97637157Y-127748221D01*
X98742779Y-127290257D01*
X99012330Y-126877936D01*
X97028000Y-124893605D01*
X96848395Y-125073210D01*
X96848395Y-124714000D01*
X94864064Y-122729670D01*
X94451743Y-122999221D01*
X93991631Y-124115642D01*
X93993779Y-125323157D01*
X94451743Y-126428779D01*
X94864064Y-126698330D01*
X96848395Y-124714000D01*
X96848395Y-125073210D01*
X95043670Y-126877936D01*
X95313221Y-127290257D01*
X96224173Y-127665688D01*
X95351241Y-127492051D01*
X93929754Y-126542243D01*
X92979947Y-125120757D01*
X92633000Y-123376532D01*
X92633000Y-77791467D01*
X92979947Y-76047242D01*
X93929754Y-74625756D01*
X95351241Y-73675948D01*
X97095467Y-73329000D01*
X124908974Y-73329000D01*
X124810673Y-73427302D01*
X124714000Y-73660691D01*
X124714000Y-74263250D01*
X124872750Y-74422000D01*
X126238000Y-74422000D01*
X126238000Y-74402000D01*
X126492000Y-74402000D01*
X126492000Y-74422000D01*
X127857250Y-74422000D01*
X128016000Y-74263250D01*
X128016000Y-73660691D01*
X127919327Y-73427302D01*
X127821025Y-73329000D01*
X128639000Y-73329000D01*
X128639000Y-74390250D01*
X128797750Y-74549000D01*
X130037000Y-74549000D01*
X130037000Y-74529000D01*
X130291000Y-74529000D01*
X130291000Y-74549000D01*
X131530250Y-74549000D01*
X131689000Y-74390250D01*
X131689000Y-73329000D01*
X132966560Y-73329000D01*
X132966560Y-76426000D01*
X132988484Y-76539000D01*
G36*
X139419160Y-124714007D02*
X139148330Y-124894971D01*
X138938000Y-125209751D01*
X138727670Y-124894971D01*
X138456827Y-124714000D01*
X138727670Y-124533029D01*
X138943663Y-124209771D01*
X139001179Y-124332490D01*
X139419160Y-124714007D01*
X139419160Y-124714007D01*
G37*
X139419160Y-124714007D02*
X139148330Y-124894971D01*
X138938000Y-125209751D01*
X138727670Y-124894971D01*
X138456827Y-124714000D01*
X138727670Y-124533029D01*
X138943663Y-124209771D01*
X139001179Y-124332490D01*
X139419160Y-124714007D01*
G36*
X143002000Y-124652370D02*
X142432370Y-125222000D01*
X141486183Y-125222000D01*
X141267670Y-124894971D01*
X140996839Y-124714007D01*
X141414821Y-124332490D01*
X141662968Y-123803027D01*
X141662968Y-123084973D01*
X141414821Y-122555510D01*
X140982947Y-122161312D01*
X140567026Y-121989042D01*
X140335000Y-122110183D01*
X140335000Y-123317000D01*
X141542469Y-123317000D01*
X141662968Y-123084973D01*
X141662968Y-123803027D01*
X141542469Y-123571000D01*
X140335000Y-123571000D01*
X140335000Y-123591000D01*
X140081000Y-123591000D01*
X140081000Y-123571000D01*
X140061000Y-123571000D01*
X140061000Y-123317000D01*
X140081000Y-123317000D01*
X140081000Y-122110183D01*
X139848974Y-121989042D01*
X139433053Y-122161312D01*
X139001179Y-122555510D01*
X138943663Y-122678228D01*
X138727670Y-122354971D01*
X138430000Y-122156074D01*
X138430000Y-121473630D01*
X141254815Y-118648815D01*
X141419996Y-118401605D01*
X141419996Y-118401604D01*
X141478000Y-118110000D01*
X141478000Y-106741630D01*
X143002000Y-105217630D01*
X143002000Y-124652370D01*
X143002000Y-124652370D01*
G37*
X143002000Y-124652370D02*
X142432370Y-125222000D01*
X141486183Y-125222000D01*
X141267670Y-124894971D01*
X140996839Y-124714007D01*
X141414821Y-124332490D01*
X141662968Y-123803027D01*
X141662968Y-123084973D01*
X141414821Y-122555510D01*
X140982947Y-122161312D01*
X140567026Y-121989042D01*
X140335000Y-122110183D01*
X140335000Y-123317000D01*
X141542469Y-123317000D01*
X141662968Y-123084973D01*
X141662968Y-123803027D01*
X141542469Y-123571000D01*
X140335000Y-123571000D01*
X140335000Y-123591000D01*
X140081000Y-123591000D01*
X140081000Y-123571000D01*
X140061000Y-123571000D01*
X140061000Y-123317000D01*
X140081000Y-123317000D01*
X140081000Y-122110183D01*
X139848974Y-121989042D01*
X139433053Y-122161312D01*
X139001179Y-122555510D01*
X138943663Y-122678228D01*
X138727670Y-122354971D01*
X138430000Y-122156074D01*
X138430000Y-121473630D01*
X141254815Y-118648815D01*
X141419996Y-118401605D01*
X141419996Y-118401604D01*
X141478000Y-118110000D01*
X141478000Y-106741630D01*
X143002000Y-105217630D01*
X143002000Y-124652370D01*
G36*
X143656484Y-76539000D02*
X142748000Y-76539000D01*
X142357000Y-76539000D01*
X142357000Y-74961750D01*
X142198250Y-74803000D01*
X140959000Y-74803000D01*
X140959000Y-74823000D01*
X140705000Y-74823000D01*
X140705000Y-74803000D01*
X140685000Y-74803000D01*
X140685000Y-74549000D01*
X140705000Y-74549000D01*
X140705000Y-74529000D01*
X140959000Y-74529000D01*
X140959000Y-74549000D01*
X142198250Y-74549000D01*
X142357000Y-74390250D01*
X142357000Y-73329000D01*
X143634560Y-73329000D01*
X143634560Y-76426000D01*
X143656484Y-76539000D01*
X143656484Y-76539000D01*
G37*
X143656484Y-76539000D02*
X142748000Y-76539000D01*
X142357000Y-76539000D01*
X142357000Y-74961750D01*
X142198250Y-74803000D01*
X140959000Y-74803000D01*
X140959000Y-74823000D01*
X140705000Y-74823000D01*
X140705000Y-74803000D01*
X140685000Y-74803000D01*
X140685000Y-74549000D01*
X140705000Y-74549000D01*
X140705000Y-74529000D01*
X140959000Y-74529000D01*
X140959000Y-74549000D01*
X142198250Y-74549000D01*
X142357000Y-74390250D01*
X142357000Y-73329000D01*
X143634560Y-73329000D01*
X143634560Y-76426000D01*
X143656484Y-76539000D01*
G36*
X153816484Y-76539000D02*
X152908000Y-76539000D01*
X152517000Y-76539000D01*
X152517000Y-74961750D01*
X152358250Y-74803000D01*
X151119000Y-74803000D01*
X151119000Y-74823000D01*
X150865000Y-74823000D01*
X150865000Y-74803000D01*
X150845000Y-74803000D01*
X150845000Y-74549000D01*
X150865000Y-74549000D01*
X150865000Y-74529000D01*
X151119000Y-74529000D01*
X151119000Y-74549000D01*
X152358250Y-74549000D01*
X152517000Y-74390250D01*
X152517000Y-73329000D01*
X153794560Y-73329000D01*
X153794560Y-76426000D01*
X153816484Y-76539000D01*
X153816484Y-76539000D01*
G37*
X153816484Y-76539000D02*
X152908000Y-76539000D01*
X152517000Y-76539000D01*
X152517000Y-74961750D01*
X152358250Y-74803000D01*
X151119000Y-74803000D01*
X151119000Y-74823000D01*
X150865000Y-74823000D01*
X150865000Y-74803000D01*
X150845000Y-74803000D01*
X150845000Y-74549000D01*
X150865000Y-74549000D01*
X150865000Y-74529000D01*
X151119000Y-74529000D01*
X151119000Y-74549000D01*
X152358250Y-74549000D01*
X152517000Y-74390250D01*
X152517000Y-73329000D01*
X153794560Y-73329000D01*
X153794560Y-76426000D01*
X153816484Y-76539000D01*
G36*
X163976484Y-76539000D02*
X162677000Y-76539000D01*
X162677000Y-74961750D01*
X162518250Y-74803000D01*
X161279000Y-74803000D01*
X161279000Y-74823000D01*
X161025000Y-74823000D01*
X161025000Y-74803000D01*
X161005000Y-74803000D01*
X161005000Y-74549000D01*
X161025000Y-74549000D01*
X161025000Y-74529000D01*
X161279000Y-74529000D01*
X161279000Y-74549000D01*
X162518250Y-74549000D01*
X162677000Y-74390250D01*
X162677000Y-73329000D01*
X163954560Y-73329000D01*
X163954560Y-76426000D01*
X163976484Y-76539000D01*
X163976484Y-76539000D01*
G37*
X163976484Y-76539000D02*
X162677000Y-76539000D01*
X162677000Y-74961750D01*
X162518250Y-74803000D01*
X161279000Y-74803000D01*
X161279000Y-74823000D01*
X161025000Y-74823000D01*
X161025000Y-74803000D01*
X161005000Y-74803000D01*
X161005000Y-74549000D01*
X161025000Y-74549000D01*
X161025000Y-74529000D01*
X161279000Y-74529000D01*
X161279000Y-74549000D01*
X162518250Y-74549000D01*
X162677000Y-74390250D01*
X162677000Y-73329000D01*
X163954560Y-73329000D01*
X163954560Y-76426000D01*
X163976484Y-76539000D01*
G36*
X169037000Y-97282000D02*
X166116000Y-97282000D01*
X154178000Y-97282000D01*
X153886395Y-97340004D01*
X153639184Y-97505185D01*
X152231843Y-98912525D01*
X152182329Y-98879441D01*
X151638000Y-98771167D01*
X151093671Y-98879441D01*
X151044156Y-98912525D01*
X149636815Y-97505185D01*
X149389605Y-97340004D01*
X149098000Y-97282000D01*
X141539630Y-97282000D01*
X143470030Y-95351600D01*
X145948400Y-95351600D01*
X146050000Y-95351600D01*
X159043969Y-95351600D01*
X160243184Y-96550815D01*
X160243185Y-96550815D01*
X160490395Y-96715996D01*
X160782000Y-96774000D01*
X163830000Y-96774000D01*
X163830000Y-96773999D01*
X164121604Y-96715996D01*
X164121605Y-96715996D01*
X164368815Y-96550815D01*
X166114131Y-94805499D01*
X166329784Y-94805687D01*
X166726689Y-94641689D01*
X167030622Y-94338286D01*
X167195313Y-93941668D01*
X167195687Y-93512216D01*
X167147584Y-93395800D01*
X169037000Y-93395800D01*
X169037000Y-97282000D01*
X169037000Y-97282000D01*
G37*
X169037000Y-97282000D02*
X166116000Y-97282000D01*
X154178000Y-97282000D01*
X153886395Y-97340004D01*
X153639184Y-97505185D01*
X152231843Y-98912525D01*
X152182329Y-98879441D01*
X151638000Y-98771167D01*
X151093671Y-98879441D01*
X151044156Y-98912525D01*
X149636815Y-97505185D01*
X149389605Y-97340004D01*
X149098000Y-97282000D01*
X141539630Y-97282000D01*
X143470030Y-95351600D01*
X145948400Y-95351600D01*
X146050000Y-95351600D01*
X159043969Y-95351600D01*
X160243184Y-96550815D01*
X160243185Y-96550815D01*
X160490395Y-96715996D01*
X160782000Y-96774000D01*
X163830000Y-96774000D01*
X163830000Y-96773999D01*
X164121604Y-96715996D01*
X164121605Y-96715996D01*
X164368815Y-96550815D01*
X166114131Y-94805499D01*
X166329784Y-94805687D01*
X166726689Y-94641689D01*
X167030622Y-94338286D01*
X167195313Y-93941668D01*
X167195687Y-93512216D01*
X167147584Y-93395800D01*
X169037000Y-93395800D01*
X169037000Y-97282000D01*
G36*
X170822008Y-101785360D02*
X165673369Y-106934000D01*
X155956000Y-106934000D01*
X155829000Y-106934000D01*
X154686000Y-106934000D01*
X154394395Y-106992004D01*
X154147185Y-107157185D01*
X151099185Y-110205185D01*
X151040124Y-110293575D01*
X151040240Y-110160715D01*
X150829831Y-109651485D01*
X150613687Y-109434964D01*
X150828461Y-109220564D01*
X151039759Y-108711702D01*
X151040240Y-108160715D01*
X150829831Y-107651485D01*
X150440564Y-107261539D01*
X149931702Y-107050241D01*
X149380715Y-107049760D01*
X148871485Y-107260169D01*
X148481539Y-107649436D01*
X148270241Y-108158298D01*
X148269760Y-108709285D01*
X148480169Y-109218515D01*
X148696312Y-109435035D01*
X148481539Y-109649436D01*
X148270241Y-110158298D01*
X148269760Y-110709285D01*
X148480169Y-111218515D01*
X148696312Y-111435035D01*
X148481539Y-111649436D01*
X148270241Y-112158298D01*
X148269760Y-112709285D01*
X148480169Y-113218515D01*
X148696312Y-113435035D01*
X148481539Y-113649436D01*
X148270241Y-114158298D01*
X148269760Y-114709285D01*
X148480169Y-115218515D01*
X148696312Y-115435035D01*
X148481539Y-115649436D01*
X148270241Y-116158298D01*
X148269760Y-116709285D01*
X148480169Y-117218515D01*
X148696312Y-117435035D01*
X148481539Y-117649436D01*
X148270241Y-118158298D01*
X148269760Y-118709285D01*
X148480169Y-119218515D01*
X148696312Y-119435035D01*
X148481539Y-119649436D01*
X148270241Y-120158298D01*
X148269760Y-120709285D01*
X148480169Y-121218515D01*
X148696312Y-121435035D01*
X148481539Y-121649436D01*
X148270241Y-122158298D01*
X148269760Y-122709285D01*
X148480169Y-123218515D01*
X148696312Y-123435035D01*
X148481539Y-123649436D01*
X148270241Y-124158298D01*
X148269760Y-124709285D01*
X148480169Y-125218515D01*
X148696312Y-125435035D01*
X148481539Y-125649436D01*
X148270241Y-126158298D01*
X148269760Y-126709285D01*
X148480169Y-127218515D01*
X148869436Y-127608461D01*
X149378298Y-127819759D01*
X149929285Y-127820240D01*
X150438515Y-127609831D01*
X150828461Y-127220564D01*
X151039759Y-126711702D01*
X151040240Y-126160715D01*
X150829831Y-125651485D01*
X150613687Y-125434964D01*
X150828461Y-125220564D01*
X151039759Y-124711702D01*
X151040240Y-124160715D01*
X150829831Y-123651485D01*
X150613687Y-123434964D01*
X150828461Y-123220564D01*
X151039759Y-122711702D01*
X151040240Y-122160715D01*
X150829831Y-121651485D01*
X150613687Y-121434964D01*
X150828461Y-121220564D01*
X151039759Y-120711702D01*
X151040240Y-120160715D01*
X150829831Y-119651485D01*
X150613687Y-119434964D01*
X150828461Y-119220564D01*
X151013592Y-118774717D01*
X151099185Y-118902815D01*
X151289185Y-119092816D01*
X151536395Y-119257996D01*
X151536396Y-119257997D01*
X151828000Y-119316000D01*
X151897842Y-119316000D01*
X151893000Y-119327690D01*
X151893000Y-119580309D01*
X151893000Y-119768250D01*
X152051750Y-119927000D01*
X153401000Y-119927000D01*
X153401000Y-119907000D01*
X153655000Y-119907000D01*
X153655000Y-119927000D01*
X153675000Y-119927000D01*
X153675000Y-120181000D01*
X153655000Y-120181000D01*
X153655000Y-120201000D01*
X153401000Y-120201000D01*
X153401000Y-120181000D01*
X152051750Y-120181000D01*
X151893000Y-120339750D01*
X151893000Y-120527691D01*
X151893000Y-120780310D01*
X151908087Y-120816734D01*
X151880560Y-120954000D01*
X151880560Y-122154000D01*
X151910144Y-122306478D01*
X151880560Y-122454000D01*
X151880560Y-123654000D01*
X151910144Y-123806478D01*
X151880560Y-123954000D01*
X151880560Y-125154000D01*
X151910144Y-125306478D01*
X151880560Y-125454000D01*
X151880560Y-126654000D01*
X151927537Y-126896123D01*
X152067327Y-127108927D01*
X152278360Y-127251377D01*
X152528000Y-127301440D01*
X154528000Y-127301440D01*
X154531269Y-127300805D01*
X154659311Y-127610689D01*
X154887223Y-127839000D01*
X144256630Y-127839000D01*
X145826815Y-126268816D01*
X145826815Y-126268815D01*
X145991996Y-126021605D01*
X146049999Y-125730000D01*
X146050000Y-125730000D01*
X146050000Y-106487630D01*
X146489977Y-106047653D01*
X146531311Y-106147689D01*
X146834714Y-106451622D01*
X147231332Y-106616313D01*
X147660784Y-106616687D01*
X148057689Y-106452689D01*
X148211646Y-106299000D01*
X162941000Y-106299000D01*
X162941000Y-106298999D01*
X163232604Y-106240996D01*
X163232605Y-106240996D01*
X163479815Y-106075815D01*
X167228521Y-102327109D01*
X167422329Y-102288559D01*
X167883789Y-101980222D01*
X168148000Y-101584801D01*
X168412211Y-101980222D01*
X168873671Y-102288559D01*
X169418000Y-102396833D01*
X169962329Y-102288559D01*
X170423789Y-101980222D01*
X170688000Y-101584801D01*
X170822008Y-101785360D01*
X170822008Y-101785360D01*
G37*
X170822008Y-101785360D02*
X165673369Y-106934000D01*
X155956000Y-106934000D01*
X155829000Y-106934000D01*
X154686000Y-106934000D01*
X154394395Y-106992004D01*
X154147185Y-107157185D01*
X151099185Y-110205185D01*
X151040124Y-110293575D01*
X151040240Y-110160715D01*
X150829831Y-109651485D01*
X150613687Y-109434964D01*
X150828461Y-109220564D01*
X151039759Y-108711702D01*
X151040240Y-108160715D01*
X150829831Y-107651485D01*
X150440564Y-107261539D01*
X149931702Y-107050241D01*
X149380715Y-107049760D01*
X148871485Y-107260169D01*
X148481539Y-107649436D01*
X148270241Y-108158298D01*
X148269760Y-108709285D01*
X148480169Y-109218515D01*
X148696312Y-109435035D01*
X148481539Y-109649436D01*
X148270241Y-110158298D01*
X148269760Y-110709285D01*
X148480169Y-111218515D01*
X148696312Y-111435035D01*
X148481539Y-111649436D01*
X148270241Y-112158298D01*
X148269760Y-112709285D01*
X148480169Y-113218515D01*
X148696312Y-113435035D01*
X148481539Y-113649436D01*
X148270241Y-114158298D01*
X148269760Y-114709285D01*
X148480169Y-115218515D01*
X148696312Y-115435035D01*
X148481539Y-115649436D01*
X148270241Y-116158298D01*
X148269760Y-116709285D01*
X148480169Y-117218515D01*
X148696312Y-117435035D01*
X148481539Y-117649436D01*
X148270241Y-118158298D01*
X148269760Y-118709285D01*
X148480169Y-119218515D01*
X148696312Y-119435035D01*
X148481539Y-119649436D01*
X148270241Y-120158298D01*
X148269760Y-120709285D01*
X148480169Y-121218515D01*
X148696312Y-121435035D01*
X148481539Y-121649436D01*
X148270241Y-122158298D01*
X148269760Y-122709285D01*
X148480169Y-123218515D01*
X148696312Y-123435035D01*
X148481539Y-123649436D01*
X148270241Y-124158298D01*
X148269760Y-124709285D01*
X148480169Y-125218515D01*
X148696312Y-125435035D01*
X148481539Y-125649436D01*
X148270241Y-126158298D01*
X148269760Y-126709285D01*
X148480169Y-127218515D01*
X148869436Y-127608461D01*
X149378298Y-127819759D01*
X149929285Y-127820240D01*
X150438515Y-127609831D01*
X150828461Y-127220564D01*
X151039759Y-126711702D01*
X151040240Y-126160715D01*
X150829831Y-125651485D01*
X150613687Y-125434964D01*
X150828461Y-125220564D01*
X151039759Y-124711702D01*
X151040240Y-124160715D01*
X150829831Y-123651485D01*
X150613687Y-123434964D01*
X150828461Y-123220564D01*
X151039759Y-122711702D01*
X151040240Y-122160715D01*
X150829831Y-121651485D01*
X150613687Y-121434964D01*
X150828461Y-121220564D01*
X151039759Y-120711702D01*
X151040240Y-120160715D01*
X150829831Y-119651485D01*
X150613687Y-119434964D01*
X150828461Y-119220564D01*
X151013592Y-118774717D01*
X151099185Y-118902815D01*
X151289185Y-119092816D01*
X151536395Y-119257996D01*
X151536396Y-119257997D01*
X151828000Y-119316000D01*
X151897842Y-119316000D01*
X151893000Y-119327690D01*
X151893000Y-119580309D01*
X151893000Y-119768250D01*
X152051750Y-119927000D01*
X153401000Y-119927000D01*
X153401000Y-119907000D01*
X153655000Y-119907000D01*
X153655000Y-119927000D01*
X153675000Y-119927000D01*
X153675000Y-120181000D01*
X153655000Y-120181000D01*
X153655000Y-120201000D01*
X153401000Y-120201000D01*
X153401000Y-120181000D01*
X152051750Y-120181000D01*
X151893000Y-120339750D01*
X151893000Y-120527691D01*
X151893000Y-120780310D01*
X151908087Y-120816734D01*
X151880560Y-120954000D01*
X151880560Y-122154000D01*
X151910144Y-122306478D01*
X151880560Y-122454000D01*
X151880560Y-123654000D01*
X151910144Y-123806478D01*
X151880560Y-123954000D01*
X151880560Y-125154000D01*
X151910144Y-125306478D01*
X151880560Y-125454000D01*
X151880560Y-126654000D01*
X151927537Y-126896123D01*
X152067327Y-127108927D01*
X152278360Y-127251377D01*
X152528000Y-127301440D01*
X154528000Y-127301440D01*
X154531269Y-127300805D01*
X154659311Y-127610689D01*
X154887223Y-127839000D01*
X144256630Y-127839000D01*
X145826815Y-126268816D01*
X145826815Y-126268815D01*
X145991996Y-126021605D01*
X146049999Y-125730000D01*
X146050000Y-125730000D01*
X146050000Y-106487630D01*
X146489977Y-106047653D01*
X146531311Y-106147689D01*
X146834714Y-106451622D01*
X147231332Y-106616313D01*
X147660784Y-106616687D01*
X148057689Y-106452689D01*
X148211646Y-106299000D01*
X162941000Y-106299000D01*
X162941000Y-106298999D01*
X163232604Y-106240996D01*
X163232605Y-106240996D01*
X163479815Y-106075815D01*
X167228521Y-102327109D01*
X167422329Y-102288559D01*
X167883789Y-101980222D01*
X168148000Y-101584801D01*
X168412211Y-101980222D01*
X168873671Y-102288559D01*
X169418000Y-102396833D01*
X169962329Y-102288559D01*
X170423789Y-101980222D01*
X170688000Y-101584801D01*
X170822008Y-101785360D01*
G36*
X172466000Y-107444392D02*
X172446911Y-107463480D01*
X172378923Y-107222540D01*
X171859829Y-107037799D01*
X171309552Y-107065770D01*
X170931077Y-107222540D01*
X170863088Y-107463483D01*
X171655000Y-108255395D01*
X171669142Y-108241252D01*
X171848747Y-108420857D01*
X171834605Y-108435000D01*
X171848747Y-108449142D01*
X171669142Y-108628747D01*
X171655000Y-108614605D01*
X171475395Y-108794209D01*
X171475395Y-108435000D01*
X170683483Y-107643088D01*
X170442540Y-107711077D01*
X170257799Y-108230171D01*
X170285770Y-108780448D01*
X170442540Y-109158923D01*
X170683483Y-109226912D01*
X171475395Y-108435000D01*
X171475395Y-108794209D01*
X171106571Y-109163033D01*
X170871485Y-109260169D01*
X170481539Y-109649436D01*
X170270241Y-110158298D01*
X170269760Y-110709285D01*
X170480169Y-111218515D01*
X170696312Y-111435035D01*
X170481539Y-111649436D01*
X170270241Y-112158298D01*
X170269760Y-112709285D01*
X170480169Y-113218515D01*
X170696312Y-113435035D01*
X170481539Y-113649436D01*
X170270241Y-114158298D01*
X170269760Y-114709285D01*
X170480169Y-115218515D01*
X170696312Y-115435035D01*
X170481539Y-115649436D01*
X170270241Y-116158298D01*
X170269760Y-116709285D01*
X170480169Y-117218515D01*
X170696312Y-117435035D01*
X170481539Y-117649436D01*
X170270241Y-118158298D01*
X170269760Y-118709285D01*
X170480169Y-119218515D01*
X170696312Y-119435035D01*
X170481539Y-119649436D01*
X170270241Y-120158298D01*
X170269760Y-120709285D01*
X170426671Y-121089041D01*
X170352815Y-121015185D01*
X170105605Y-120850004D01*
X169814000Y-120792000D01*
X169052000Y-120792000D01*
X169005457Y-120792000D01*
X169005457Y-110603166D01*
X168605147Y-109634342D01*
X167864557Y-108892458D01*
X166896433Y-108490458D01*
X165848166Y-108489543D01*
X164879342Y-108889853D01*
X164137458Y-109630443D01*
X163735458Y-110598567D01*
X163734543Y-111646834D01*
X164134853Y-112615658D01*
X164875443Y-113357542D01*
X165843567Y-113759542D01*
X166891834Y-113760457D01*
X167860658Y-113360147D01*
X168602542Y-112619557D01*
X169004542Y-111651433D01*
X169005457Y-110603166D01*
X169005457Y-120792000D01*
X168910000Y-120792000D01*
X168647765Y-120792000D01*
X168675440Y-120654000D01*
X168675440Y-119454000D01*
X168645855Y-119301521D01*
X168675440Y-119154000D01*
X168675440Y-117954000D01*
X168645855Y-117801521D01*
X168675440Y-117654000D01*
X168675440Y-116454000D01*
X168645855Y-116301521D01*
X168675440Y-116154000D01*
X168675440Y-114954000D01*
X168628463Y-114711877D01*
X168488673Y-114499073D01*
X168277640Y-114356623D01*
X168028000Y-114306560D01*
X166028000Y-114306560D01*
X165785877Y-114353537D01*
X165573073Y-114493327D01*
X165430623Y-114704360D01*
X165380560Y-114954000D01*
X165380560Y-116154000D01*
X165410144Y-116306478D01*
X165380560Y-116454000D01*
X165380560Y-117654000D01*
X165410144Y-117806478D01*
X165380560Y-117954000D01*
X165380560Y-119154000D01*
X165410144Y-119306478D01*
X165380560Y-119454000D01*
X165380560Y-120654000D01*
X165410144Y-120806478D01*
X165380560Y-120954000D01*
X165380560Y-122154000D01*
X165410144Y-122306478D01*
X165380560Y-122454000D01*
X165380560Y-123654000D01*
X165410144Y-123806478D01*
X165380560Y-123954000D01*
X165380560Y-125154000D01*
X165410144Y-125306478D01*
X165380560Y-125454000D01*
X165380560Y-126562000D01*
X161925000Y-126562000D01*
X161868000Y-126562000D01*
X159897630Y-126562000D01*
X156972000Y-123636370D01*
X156972000Y-116078000D01*
X156913996Y-115786396D01*
X156913996Y-115786395D01*
X156748815Y-115539185D01*
X156224815Y-115015185D01*
X155977605Y-114850004D01*
X155686000Y-114792000D01*
X155144008Y-114792000D01*
X155128463Y-114711877D01*
X154988673Y-114499073D01*
X154777640Y-114356623D01*
X154528000Y-114306560D01*
X154290000Y-114306560D01*
X154290000Y-113428837D01*
X154330622Y-113388286D01*
X154495313Y-112991668D01*
X154495687Y-112562216D01*
X154331689Y-112165311D01*
X154028286Y-111861378D01*
X153631668Y-111696687D01*
X153202216Y-111696313D01*
X152805311Y-111860311D01*
X152501378Y-112163714D01*
X152400000Y-112407858D01*
X152400000Y-111059630D01*
X155001630Y-108458000D01*
X155829000Y-108458000D01*
X155956000Y-108458000D01*
X165989000Y-108458000D01*
X165989000Y-108457999D01*
X166280604Y-108399996D01*
X166280605Y-108399996D01*
X166527815Y-108234815D01*
X172466000Y-102296630D01*
X172466000Y-107444392D01*
X172466000Y-107444392D01*
G37*
X172466000Y-107444392D02*
X172446911Y-107463480D01*
X172378923Y-107222540D01*
X171859829Y-107037799D01*
X171309552Y-107065770D01*
X170931077Y-107222540D01*
X170863088Y-107463483D01*
X171655000Y-108255395D01*
X171669142Y-108241252D01*
X171848747Y-108420857D01*
X171834605Y-108435000D01*
X171848747Y-108449142D01*
X171669142Y-108628747D01*
X171655000Y-108614605D01*
X171475395Y-108794209D01*
X171475395Y-108435000D01*
X170683483Y-107643088D01*
X170442540Y-107711077D01*
X170257799Y-108230171D01*
X170285770Y-108780448D01*
X170442540Y-109158923D01*
X170683483Y-109226912D01*
X171475395Y-108435000D01*
X171475395Y-108794209D01*
X171106571Y-109163033D01*
X170871485Y-109260169D01*
X170481539Y-109649436D01*
X170270241Y-110158298D01*
X170269760Y-110709285D01*
X170480169Y-111218515D01*
X170696312Y-111435035D01*
X170481539Y-111649436D01*
X170270241Y-112158298D01*
X170269760Y-112709285D01*
X170480169Y-113218515D01*
X170696312Y-113435035D01*
X170481539Y-113649436D01*
X170270241Y-114158298D01*
X170269760Y-114709285D01*
X170480169Y-115218515D01*
X170696312Y-115435035D01*
X170481539Y-115649436D01*
X170270241Y-116158298D01*
X170269760Y-116709285D01*
X170480169Y-117218515D01*
X170696312Y-117435035D01*
X170481539Y-117649436D01*
X170270241Y-118158298D01*
X170269760Y-118709285D01*
X170480169Y-119218515D01*
X170696312Y-119435035D01*
X170481539Y-119649436D01*
X170270241Y-120158298D01*
X170269760Y-120709285D01*
X170426671Y-121089041D01*
X170352815Y-121015185D01*
X170105605Y-120850004D01*
X169814000Y-120792000D01*
X169052000Y-120792000D01*
X169005457Y-120792000D01*
X169005457Y-110603166D01*
X168605147Y-109634342D01*
X167864557Y-108892458D01*
X166896433Y-108490458D01*
X165848166Y-108489543D01*
X164879342Y-108889853D01*
X164137458Y-109630443D01*
X163735458Y-110598567D01*
X163734543Y-111646834D01*
X164134853Y-112615658D01*
X164875443Y-113357542D01*
X165843567Y-113759542D01*
X166891834Y-113760457D01*
X167860658Y-113360147D01*
X168602542Y-112619557D01*
X169004542Y-111651433D01*
X169005457Y-110603166D01*
X169005457Y-120792000D01*
X168910000Y-120792000D01*
X168647765Y-120792000D01*
X168675440Y-120654000D01*
X168675440Y-119454000D01*
X168645855Y-119301521D01*
X168675440Y-119154000D01*
X168675440Y-117954000D01*
X168645855Y-117801521D01*
X168675440Y-117654000D01*
X168675440Y-116454000D01*
X168645855Y-116301521D01*
X168675440Y-116154000D01*
X168675440Y-114954000D01*
X168628463Y-114711877D01*
X168488673Y-114499073D01*
X168277640Y-114356623D01*
X168028000Y-114306560D01*
X166028000Y-114306560D01*
X165785877Y-114353537D01*
X165573073Y-114493327D01*
X165430623Y-114704360D01*
X165380560Y-114954000D01*
X165380560Y-116154000D01*
X165410144Y-116306478D01*
X165380560Y-116454000D01*
X165380560Y-117654000D01*
X165410144Y-117806478D01*
X165380560Y-117954000D01*
X165380560Y-119154000D01*
X165410144Y-119306478D01*
X165380560Y-119454000D01*
X165380560Y-120654000D01*
X165410144Y-120806478D01*
X165380560Y-120954000D01*
X165380560Y-122154000D01*
X165410144Y-122306478D01*
X165380560Y-122454000D01*
X165380560Y-123654000D01*
X165410144Y-123806478D01*
X165380560Y-123954000D01*
X165380560Y-125154000D01*
X165410144Y-125306478D01*
X165380560Y-125454000D01*
X165380560Y-126562000D01*
X161925000Y-126562000D01*
X161868000Y-126562000D01*
X159897630Y-126562000D01*
X156972000Y-123636370D01*
X156972000Y-116078000D01*
X156913996Y-115786396D01*
X156913996Y-115786395D01*
X156748815Y-115539185D01*
X156224815Y-115015185D01*
X155977605Y-114850004D01*
X155686000Y-114792000D01*
X155144008Y-114792000D01*
X155128463Y-114711877D01*
X154988673Y-114499073D01*
X154777640Y-114356623D01*
X154528000Y-114306560D01*
X154290000Y-114306560D01*
X154290000Y-113428837D01*
X154330622Y-113388286D01*
X154495313Y-112991668D01*
X154495687Y-112562216D01*
X154331689Y-112165311D01*
X154028286Y-111861378D01*
X153631668Y-111696687D01*
X153202216Y-111696313D01*
X152805311Y-111860311D01*
X152501378Y-112163714D01*
X152400000Y-112407858D01*
X152400000Y-111059630D01*
X155001630Y-108458000D01*
X155829000Y-108458000D01*
X155956000Y-108458000D01*
X165989000Y-108458000D01*
X165989000Y-108457999D01*
X166280604Y-108399996D01*
X166280605Y-108399996D01*
X166527815Y-108234815D01*
X172466000Y-102296630D01*
X172466000Y-107444392D01*
G36*
X176276000Y-90108370D02*
X175584785Y-90799585D01*
X175419604Y-91046795D01*
X175361600Y-91338400D01*
X175361600Y-98642769D01*
X175229185Y-98775185D01*
X175103546Y-98963215D01*
X174924996Y-98865673D01*
X174845060Y-98848990D01*
X174625000Y-98971148D01*
X174625000Y-100457000D01*
X174645000Y-100457000D01*
X174645000Y-100711000D01*
X174625000Y-100711000D01*
X174625000Y-102196852D01*
X174845060Y-102319010D01*
X174924996Y-102302327D01*
X175006000Y-102258074D01*
X175006000Y-122366369D01*
X173699369Y-123673000D01*
X172838720Y-123673000D01*
X172829831Y-123651485D01*
X172613687Y-123434964D01*
X172828461Y-123220564D01*
X173039759Y-122711702D01*
X173039788Y-122677841D01*
X173766815Y-121950816D01*
X173931996Y-121703605D01*
X173989999Y-121412000D01*
X173977368Y-121348502D01*
X173990000Y-121285000D01*
X173990000Y-102258074D01*
X174071004Y-102302327D01*
X174150940Y-102319010D01*
X174371000Y-102196852D01*
X174371000Y-100711000D01*
X174351000Y-100711000D01*
X174351000Y-100457000D01*
X174371000Y-100457000D01*
X174371000Y-98971148D01*
X174150940Y-98848990D01*
X174071004Y-98865673D01*
X173990000Y-98909925D01*
X173990000Y-91755630D01*
X175036815Y-90708816D01*
X175036815Y-90708815D01*
X175201996Y-90461605D01*
X175259999Y-90170000D01*
X175260000Y-90170000D01*
X175260000Y-89789000D01*
X175260000Y-86903116D01*
X175503789Y-86740222D01*
X175618873Y-86567986D01*
X175650137Y-86729123D01*
X175789927Y-86941927D01*
X176000960Y-87084377D01*
X176250600Y-87134440D01*
X176276000Y-87134440D01*
X176276000Y-90108370D01*
X176276000Y-90108370D01*
G37*
X176276000Y-90108370D02*
X175584785Y-90799585D01*
X175419604Y-91046795D01*
X175361600Y-91338400D01*
X175361600Y-98642769D01*
X175229185Y-98775185D01*
X175103546Y-98963215D01*
X174924996Y-98865673D01*
X174845060Y-98848990D01*
X174625000Y-98971148D01*
X174625000Y-100457000D01*
X174645000Y-100457000D01*
X174645000Y-100711000D01*
X174625000Y-100711000D01*
X174625000Y-102196852D01*
X174845060Y-102319010D01*
X174924996Y-102302327D01*
X175006000Y-102258074D01*
X175006000Y-122366369D01*
X173699369Y-123673000D01*
X172838720Y-123673000D01*
X172829831Y-123651485D01*
X172613687Y-123434964D01*
X172828461Y-123220564D01*
X173039759Y-122711702D01*
X173039788Y-122677841D01*
X173766815Y-121950816D01*
X173931996Y-121703605D01*
X173989999Y-121412000D01*
X173977368Y-121348502D01*
X173990000Y-121285000D01*
X173990000Y-102258074D01*
X174071004Y-102302327D01*
X174150940Y-102319010D01*
X174371000Y-102196852D01*
X174371000Y-100711000D01*
X174351000Y-100711000D01*
X174351000Y-100457000D01*
X174371000Y-100457000D01*
X174371000Y-98971148D01*
X174150940Y-98848990D01*
X174071004Y-98865673D01*
X173990000Y-98909925D01*
X173990000Y-91755630D01*
X175036815Y-90708816D01*
X175036815Y-90708815D01*
X175201996Y-90461605D01*
X175259999Y-90170000D01*
X175260000Y-90170000D01*
X175260000Y-89789000D01*
X175260000Y-86903116D01*
X175503789Y-86740222D01*
X175618873Y-86567986D01*
X175650137Y-86729123D01*
X175789927Y-86941927D01*
X176000960Y-87084377D01*
X176250600Y-87134440D01*
X176276000Y-87134440D01*
X176276000Y-90108370D01*
G36*
X177623000Y-83553560D02*
X176250600Y-83553560D01*
X176008477Y-83600537D01*
X175795673Y-83740327D01*
X175653223Y-83951360D01*
X175619279Y-84120621D01*
X175503789Y-83947778D01*
X175042329Y-83639441D01*
X174498000Y-83531167D01*
X173953671Y-83639441D01*
X173492211Y-83947778D01*
X173228246Y-84342829D01*
X173223525Y-84326738D01*
X172873986Y-83892809D01*
X172384996Y-83625673D01*
X172305060Y-83608990D01*
X172085000Y-83731148D01*
X172085000Y-85217000D01*
X172105000Y-85217000D01*
X172105000Y-85471000D01*
X172085000Y-85471000D01*
X172085000Y-86956852D01*
X172305060Y-87079010D01*
X172384996Y-87062327D01*
X172873986Y-86795191D01*
X173223525Y-86361262D01*
X173228246Y-86345170D01*
X173492211Y-86740222D01*
X173736000Y-86903116D01*
X173736000Y-89789000D01*
X173736000Y-89854369D01*
X172689185Y-90901185D01*
X172524004Y-91148395D01*
X172466000Y-91440000D01*
X172466000Y-98872214D01*
X171958000Y-98771167D01*
X171831000Y-98796428D01*
X171831000Y-86956852D01*
X171831000Y-85471000D01*
X171831000Y-85217000D01*
X171831000Y-83731148D01*
X171610940Y-83608990D01*
X171531004Y-83625673D01*
X171042014Y-83892809D01*
X170692475Y-84326738D01*
X170688000Y-84341989D01*
X170683525Y-84326738D01*
X170333986Y-83892809D01*
X169844996Y-83625673D01*
X169765060Y-83608990D01*
X169545000Y-83731148D01*
X169545000Y-85217000D01*
X170535600Y-85217000D01*
X170840400Y-85217000D01*
X171831000Y-85217000D01*
X171831000Y-85471000D01*
X170840400Y-85471000D01*
X170535600Y-85471000D01*
X169545000Y-85471000D01*
X169545000Y-86956852D01*
X169765060Y-87079010D01*
X169844996Y-87062327D01*
X170333986Y-86795191D01*
X170683525Y-86361262D01*
X170688000Y-86346010D01*
X170692475Y-86361262D01*
X171042014Y-86795191D01*
X171531004Y-87062327D01*
X171610940Y-87079010D01*
X171831000Y-86956852D01*
X171831000Y-98796428D01*
X171413671Y-98879441D01*
X170952211Y-99187778D01*
X170688000Y-99583198D01*
X170503121Y-99306508D01*
X170972815Y-98836816D01*
X170972815Y-98836815D01*
X171137996Y-98589605D01*
X171195999Y-98298000D01*
X171196000Y-98298000D01*
X171196000Y-92456000D01*
X171137996Y-92164395D01*
X170972815Y-91917185D01*
X170972815Y-91917184D01*
X170490215Y-91434585D01*
X170243005Y-91269404D01*
X169951400Y-91211400D01*
X167063378Y-91211400D01*
X167195313Y-90893668D01*
X167195687Y-90464216D01*
X167031689Y-90067311D01*
X166878000Y-89913353D01*
X166878000Y-88900000D01*
X166819996Y-88608395D01*
X166654815Y-88361185D01*
X166654815Y-88361184D01*
X165384815Y-87091185D01*
X165137605Y-86926004D01*
X165082230Y-86914989D01*
X165343789Y-86740222D01*
X165608000Y-86344801D01*
X165872211Y-86740222D01*
X166333671Y-87048559D01*
X166878000Y-87156833D01*
X167422329Y-87048559D01*
X167883789Y-86740222D01*
X168147753Y-86345170D01*
X168152475Y-86361262D01*
X168502014Y-86795191D01*
X168991004Y-87062327D01*
X169070940Y-87079010D01*
X169291000Y-86956852D01*
X169291000Y-85471000D01*
X169271000Y-85471000D01*
X169271000Y-85217000D01*
X169291000Y-85217000D01*
X169291000Y-83731148D01*
X169070940Y-83608990D01*
X168991004Y-83625673D01*
X168502014Y-83892809D01*
X168152475Y-84326738D01*
X168147753Y-84342829D01*
X167883789Y-83947778D01*
X167422329Y-83639441D01*
X166878000Y-83531167D01*
X166688493Y-83568862D01*
X165130815Y-82011185D01*
X164883605Y-81846004D01*
X164592000Y-81788000D01*
X148082000Y-81788000D01*
X147790395Y-81846004D01*
X147543184Y-82011185D01*
X140939185Y-88615185D01*
X140774004Y-88862395D01*
X140716000Y-89154000D01*
X140716000Y-90616370D01*
X132557188Y-98775181D01*
X132557185Y-98775184D01*
X125699185Y-105633185D01*
X125534004Y-105880395D01*
X125476000Y-106172000D01*
X125476000Y-114046000D01*
X125490565Y-114119223D01*
X125490487Y-114193877D01*
X125519285Y-114263608D01*
X125534004Y-114337605D01*
X125575480Y-114399678D01*
X125603978Y-114468682D01*
X125674257Y-114574100D01*
X125666687Y-114592332D01*
X125666313Y-115021784D01*
X125830311Y-115418689D01*
X126133714Y-115722622D01*
X126530332Y-115887313D01*
X126959784Y-115887687D01*
X127000000Y-115871070D01*
X127000000Y-116078000D01*
X123802025Y-116078000D01*
X123966327Y-115913699D01*
X124063000Y-115680310D01*
X124063000Y-115427691D01*
X124063000Y-114839750D01*
X124063000Y-114268250D01*
X124063000Y-113680309D01*
X124063000Y-113427690D01*
X123966327Y-113194301D01*
X123787698Y-113015673D01*
X123554309Y-112919000D01*
X122713750Y-112919000D01*
X122555000Y-113077750D01*
X122555000Y-114427000D01*
X123904250Y-114427000D01*
X124063000Y-114268250D01*
X124063000Y-114839750D01*
X123904250Y-114681000D01*
X122555000Y-114681000D01*
X122555000Y-114701000D01*
X122301000Y-114701000D01*
X122301000Y-114681000D01*
X122281000Y-114681000D01*
X122281000Y-114427000D01*
X122301000Y-114427000D01*
X122301000Y-113077750D01*
X122142250Y-112919000D01*
X121301691Y-112919000D01*
X121068302Y-113015673D01*
X120889673Y-113194301D01*
X120875369Y-113228833D01*
X120815363Y-113168722D01*
X120214648Y-112919284D01*
X119564205Y-112918716D01*
X119545000Y-112926651D01*
X119545000Y-106266309D01*
X119545000Y-105925750D01*
X119545000Y-105354250D01*
X119545000Y-105013691D01*
X119448327Y-104780302D01*
X119269699Y-104601673D01*
X119036310Y-104505000D01*
X118783691Y-104505000D01*
X118395750Y-104505000D01*
X118237000Y-104663750D01*
X118237000Y-105513000D01*
X119386250Y-105513000D01*
X119545000Y-105354250D01*
X119545000Y-105925750D01*
X119386250Y-105767000D01*
X118237000Y-105767000D01*
X118237000Y-106616250D01*
X118395750Y-106775000D01*
X118783691Y-106775000D01*
X119036310Y-106775000D01*
X119269699Y-106678327D01*
X119448327Y-106499698D01*
X119545000Y-106266309D01*
X119545000Y-112926651D01*
X118963057Y-113167106D01*
X118617800Y-113511759D01*
X118275363Y-113168722D01*
X118110000Y-113100057D01*
X118110000Y-112268000D01*
X118051996Y-111976396D01*
X118051996Y-111976395D01*
X117985834Y-111877376D01*
X117983000Y-111873134D01*
X117983000Y-106616250D01*
X117983000Y-105767000D01*
X117983000Y-105513000D01*
X117983000Y-104663750D01*
X117824250Y-104505000D01*
X117436309Y-104505000D01*
X117183690Y-104505000D01*
X116950301Y-104601673D01*
X116771673Y-104780302D01*
X116675000Y-105013691D01*
X116675000Y-105354250D01*
X116833750Y-105513000D01*
X117983000Y-105513000D01*
X117983000Y-105767000D01*
X116833750Y-105767000D01*
X116675000Y-105925750D01*
X116675000Y-106266309D01*
X116771673Y-106499698D01*
X116950301Y-106678327D01*
X117183690Y-106775000D01*
X117436309Y-106775000D01*
X117824250Y-106775000D01*
X117983000Y-106616250D01*
X117983000Y-111873134D01*
X117886816Y-111729185D01*
X116332000Y-110174369D01*
X116332000Y-104455630D01*
X117054326Y-103733304D01*
X117060360Y-103737377D01*
X117310000Y-103787440D01*
X118910000Y-103787440D01*
X119152123Y-103740463D01*
X119364927Y-103600673D01*
X119507377Y-103389640D01*
X119557440Y-103140000D01*
X119557440Y-102140000D01*
X119510463Y-101897877D01*
X119370673Y-101685073D01*
X119159640Y-101542623D01*
X118910000Y-101492560D01*
X118872000Y-101492560D01*
X118872000Y-100330000D01*
X118813996Y-100038395D01*
X118648815Y-99791185D01*
X118648815Y-99791184D01*
X117378815Y-98521185D01*
X117131605Y-98356004D01*
X116840000Y-98298000D01*
X115824000Y-98298000D01*
X115824000Y-97154310D01*
X115824000Y-96901691D01*
X115824000Y-96297750D01*
X115824000Y-95726250D01*
X115824000Y-95122309D01*
X115824000Y-94869690D01*
X115727327Y-94636301D01*
X115548698Y-94457673D01*
X115315309Y-94361000D01*
X114966750Y-94361000D01*
X114808000Y-94519750D01*
X114808000Y-95885000D01*
X115665250Y-95885000D01*
X115824000Y-95726250D01*
X115824000Y-96297750D01*
X115665250Y-96139000D01*
X114808000Y-96139000D01*
X114808000Y-97504250D01*
X114966750Y-97663000D01*
X115315309Y-97663000D01*
X115548698Y-97566327D01*
X115727327Y-97387699D01*
X115824000Y-97154310D01*
X115824000Y-98298000D01*
X113345630Y-98298000D01*
X113157000Y-98109369D01*
X113157000Y-97620661D01*
X113357927Y-97488673D01*
X113500377Y-97277640D01*
X113538000Y-97090032D01*
X113538000Y-97154310D01*
X113634673Y-97387699D01*
X113813302Y-97566327D01*
X114046691Y-97663000D01*
X114395250Y-97663000D01*
X114554000Y-97504250D01*
X114554000Y-96139000D01*
X114534000Y-96139000D01*
X114534000Y-95885000D01*
X114554000Y-95885000D01*
X114554000Y-94519750D01*
X114395250Y-94361000D01*
X114046691Y-94361000D01*
X113813302Y-94457673D01*
X113634673Y-94636301D01*
X113538000Y-94869690D01*
X113538000Y-94931883D01*
X113503463Y-94753877D01*
X113363673Y-94541073D01*
X113152640Y-94398623D01*
X112952760Y-94358539D01*
X112933815Y-94330185D01*
X112720315Y-94187528D01*
X116788918Y-90118924D01*
X116788921Y-90118922D01*
X116788922Y-90118922D01*
X127202922Y-79704922D01*
X127830807Y-79077036D01*
X127835927Y-79073673D01*
X127839575Y-79068267D01*
X127998843Y-78909000D01*
X136144000Y-78909000D01*
X136611154Y-78909000D01*
X136738365Y-78994000D01*
X136423585Y-79204330D01*
X136098729Y-79690511D01*
X135984655Y-80264000D01*
X136098729Y-80837489D01*
X136423585Y-81323670D01*
X136909766Y-81648526D01*
X137483255Y-81762600D01*
X137852745Y-81762600D01*
X138426234Y-81648526D01*
X138912415Y-81323670D01*
X139237271Y-80837489D01*
X139351345Y-80264000D01*
X139237271Y-79690511D01*
X138912415Y-79204330D01*
X138597634Y-78994000D01*
X138724845Y-78909000D01*
X142748000Y-78909000D01*
X147025154Y-78909000D01*
X147152365Y-78994000D01*
X146837585Y-79204330D01*
X146512729Y-79690511D01*
X146398655Y-80264000D01*
X146512729Y-80837489D01*
X146837585Y-81323670D01*
X147323766Y-81648526D01*
X147897255Y-81762600D01*
X148266745Y-81762600D01*
X148840234Y-81648526D01*
X149326415Y-81323670D01*
X149651271Y-80837489D01*
X149765345Y-80264000D01*
X149651271Y-79690511D01*
X149326415Y-79204330D01*
X149011634Y-78994000D01*
X149138845Y-78909000D01*
X152908000Y-78909000D01*
X157185154Y-78909000D01*
X157312365Y-78994000D01*
X156997585Y-79204330D01*
X156672729Y-79690511D01*
X156558655Y-80264000D01*
X156672729Y-80837489D01*
X156997585Y-81323670D01*
X157483766Y-81648526D01*
X158057255Y-81762600D01*
X158426745Y-81762600D01*
X159000234Y-81648526D01*
X159486415Y-81323670D01*
X159811271Y-80837489D01*
X159925345Y-80264000D01*
X159811271Y-79690511D01*
X159486415Y-79204330D01*
X159171634Y-78994000D01*
X159298845Y-78909000D01*
X167345154Y-78909000D01*
X167472365Y-78994000D01*
X167157585Y-79204330D01*
X166832729Y-79690511D01*
X166718655Y-80264000D01*
X166832729Y-80837489D01*
X167157585Y-81323670D01*
X167643766Y-81648526D01*
X168217255Y-81762600D01*
X168586745Y-81762600D01*
X169160234Y-81648526D01*
X169646415Y-81323670D01*
X169971271Y-80837489D01*
X170085345Y-80264000D01*
X169971271Y-79690511D01*
X169646415Y-79204330D01*
X169331634Y-78994000D01*
X169646415Y-78783670D01*
X169971271Y-78297489D01*
X170085345Y-77724000D01*
X169971271Y-77150511D01*
X169646415Y-76664330D01*
X169630632Y-76653784D01*
X169660123Y-76648063D01*
X169872927Y-76508273D01*
X170015377Y-76297240D01*
X170065440Y-76047600D01*
X170065440Y-74320400D01*
X170018463Y-74078277D01*
X169878673Y-73865473D01*
X169667640Y-73723023D01*
X169418000Y-73672960D01*
X167386000Y-73672960D01*
X167143877Y-73719937D01*
X167029440Y-73795110D01*
X167029440Y-73329000D01*
X173160532Y-73329000D01*
X174345752Y-73564754D01*
X174103166Y-73564543D01*
X173134342Y-73964853D01*
X172392458Y-74705443D01*
X171990458Y-75673567D01*
X171989543Y-76721834D01*
X172389853Y-77690658D01*
X173130443Y-78432542D01*
X174098567Y-78834542D01*
X175146834Y-78835457D01*
X176115658Y-78435147D01*
X176857542Y-77694557D01*
X177259542Y-76726433D01*
X177260155Y-76023451D01*
X177276051Y-76047241D01*
X177623000Y-77791467D01*
X177623000Y-83553560D01*
X177623000Y-83553560D01*
G37*
X177623000Y-83553560D02*
X176250600Y-83553560D01*
X176008477Y-83600537D01*
X175795673Y-83740327D01*
X175653223Y-83951360D01*
X175619279Y-84120621D01*
X175503789Y-83947778D01*
X175042329Y-83639441D01*
X174498000Y-83531167D01*
X173953671Y-83639441D01*
X173492211Y-83947778D01*
X173228246Y-84342829D01*
X173223525Y-84326738D01*
X172873986Y-83892809D01*
X172384996Y-83625673D01*
X172305060Y-83608990D01*
X172085000Y-83731148D01*
X172085000Y-85217000D01*
X172105000Y-85217000D01*
X172105000Y-85471000D01*
X172085000Y-85471000D01*
X172085000Y-86956852D01*
X172305060Y-87079010D01*
X172384996Y-87062327D01*
X172873986Y-86795191D01*
X173223525Y-86361262D01*
X173228246Y-86345170D01*
X173492211Y-86740222D01*
X173736000Y-86903116D01*
X173736000Y-89789000D01*
X173736000Y-89854369D01*
X172689185Y-90901185D01*
X172524004Y-91148395D01*
X172466000Y-91440000D01*
X172466000Y-98872214D01*
X171958000Y-98771167D01*
X171831000Y-98796428D01*
X171831000Y-86956852D01*
X171831000Y-85471000D01*
X171831000Y-85217000D01*
X171831000Y-83731148D01*
X171610940Y-83608990D01*
X171531004Y-83625673D01*
X171042014Y-83892809D01*
X170692475Y-84326738D01*
X170688000Y-84341989D01*
X170683525Y-84326738D01*
X170333986Y-83892809D01*
X169844996Y-83625673D01*
X169765060Y-83608990D01*
X169545000Y-83731148D01*
X169545000Y-85217000D01*
X170535600Y-85217000D01*
X170840400Y-85217000D01*
X171831000Y-85217000D01*
X171831000Y-85471000D01*
X170840400Y-85471000D01*
X170535600Y-85471000D01*
X169545000Y-85471000D01*
X169545000Y-86956852D01*
X169765060Y-87079010D01*
X169844996Y-87062327D01*
X170333986Y-86795191D01*
X170683525Y-86361262D01*
X170688000Y-86346010D01*
X170692475Y-86361262D01*
X171042014Y-86795191D01*
X171531004Y-87062327D01*
X171610940Y-87079010D01*
X171831000Y-86956852D01*
X171831000Y-98796428D01*
X171413671Y-98879441D01*
X170952211Y-99187778D01*
X170688000Y-99583198D01*
X170503121Y-99306508D01*
X170972815Y-98836816D01*
X170972815Y-98836815D01*
X171137996Y-98589605D01*
X171195999Y-98298000D01*
X171196000Y-98298000D01*
X171196000Y-92456000D01*
X171137996Y-92164395D01*
X170972815Y-91917185D01*
X170972815Y-91917184D01*
X170490215Y-91434585D01*
X170243005Y-91269404D01*
X169951400Y-91211400D01*
X167063378Y-91211400D01*
X167195313Y-90893668D01*
X167195687Y-90464216D01*
X167031689Y-90067311D01*
X166878000Y-89913353D01*
X166878000Y-88900000D01*
X166819996Y-88608395D01*
X166654815Y-88361185D01*
X166654815Y-88361184D01*
X165384815Y-87091185D01*
X165137605Y-86926004D01*
X165082230Y-86914989D01*
X165343789Y-86740222D01*
X165608000Y-86344801D01*
X165872211Y-86740222D01*
X166333671Y-87048559D01*
X166878000Y-87156833D01*
X167422329Y-87048559D01*
X167883789Y-86740222D01*
X168147753Y-86345170D01*
X168152475Y-86361262D01*
X168502014Y-86795191D01*
X168991004Y-87062327D01*
X169070940Y-87079010D01*
X169291000Y-86956852D01*
X169291000Y-85471000D01*
X169271000Y-85471000D01*
X169271000Y-85217000D01*
X169291000Y-85217000D01*
X169291000Y-83731148D01*
X169070940Y-83608990D01*
X168991004Y-83625673D01*
X168502014Y-83892809D01*
X168152475Y-84326738D01*
X168147753Y-84342829D01*
X167883789Y-83947778D01*
X167422329Y-83639441D01*
X166878000Y-83531167D01*
X166688493Y-83568862D01*
X165130815Y-82011185D01*
X164883605Y-81846004D01*
X164592000Y-81788000D01*
X148082000Y-81788000D01*
X147790395Y-81846004D01*
X147543184Y-82011185D01*
X140939185Y-88615185D01*
X140774004Y-88862395D01*
X140716000Y-89154000D01*
X140716000Y-90616370D01*
X132557188Y-98775181D01*
X132557185Y-98775184D01*
X125699185Y-105633185D01*
X125534004Y-105880395D01*
X125476000Y-106172000D01*
X125476000Y-114046000D01*
X125490565Y-114119223D01*
X125490487Y-114193877D01*
X125519285Y-114263608D01*
X125534004Y-114337605D01*
X125575480Y-114399678D01*
X125603978Y-114468682D01*
X125674257Y-114574100D01*
X125666687Y-114592332D01*
X125666313Y-115021784D01*
X125830311Y-115418689D01*
X126133714Y-115722622D01*
X126530332Y-115887313D01*
X126959784Y-115887687D01*
X127000000Y-115871070D01*
X127000000Y-116078000D01*
X123802025Y-116078000D01*
X123966327Y-115913699D01*
X124063000Y-115680310D01*
X124063000Y-115427691D01*
X124063000Y-114839750D01*
X124063000Y-114268250D01*
X124063000Y-113680309D01*
X124063000Y-113427690D01*
X123966327Y-113194301D01*
X123787698Y-113015673D01*
X123554309Y-112919000D01*
X122713750Y-112919000D01*
X122555000Y-113077750D01*
X122555000Y-114427000D01*
X123904250Y-114427000D01*
X124063000Y-114268250D01*
X124063000Y-114839750D01*
X123904250Y-114681000D01*
X122555000Y-114681000D01*
X122555000Y-114701000D01*
X122301000Y-114701000D01*
X122301000Y-114681000D01*
X122281000Y-114681000D01*
X122281000Y-114427000D01*
X122301000Y-114427000D01*
X122301000Y-113077750D01*
X122142250Y-112919000D01*
X121301691Y-112919000D01*
X121068302Y-113015673D01*
X120889673Y-113194301D01*
X120875369Y-113228833D01*
X120815363Y-113168722D01*
X120214648Y-112919284D01*
X119564205Y-112918716D01*
X119545000Y-112926651D01*
X119545000Y-106266309D01*
X119545000Y-105925750D01*
X119545000Y-105354250D01*
X119545000Y-105013691D01*
X119448327Y-104780302D01*
X119269699Y-104601673D01*
X119036310Y-104505000D01*
X118783691Y-104505000D01*
X118395750Y-104505000D01*
X118237000Y-104663750D01*
X118237000Y-105513000D01*
X119386250Y-105513000D01*
X119545000Y-105354250D01*
X119545000Y-105925750D01*
X119386250Y-105767000D01*
X118237000Y-105767000D01*
X118237000Y-106616250D01*
X118395750Y-106775000D01*
X118783691Y-106775000D01*
X119036310Y-106775000D01*
X119269699Y-106678327D01*
X119448327Y-106499698D01*
X119545000Y-106266309D01*
X119545000Y-112926651D01*
X118963057Y-113167106D01*
X118617800Y-113511759D01*
X118275363Y-113168722D01*
X118110000Y-113100057D01*
X118110000Y-112268000D01*
X118051996Y-111976396D01*
X118051996Y-111976395D01*
X117985834Y-111877376D01*
X117983000Y-111873134D01*
X117983000Y-106616250D01*
X117983000Y-105767000D01*
X117983000Y-105513000D01*
X117983000Y-104663750D01*
X117824250Y-104505000D01*
X117436309Y-104505000D01*
X117183690Y-104505000D01*
X116950301Y-104601673D01*
X116771673Y-104780302D01*
X116675000Y-105013691D01*
X116675000Y-105354250D01*
X116833750Y-105513000D01*
X117983000Y-105513000D01*
X117983000Y-105767000D01*
X116833750Y-105767000D01*
X116675000Y-105925750D01*
X116675000Y-106266309D01*
X116771673Y-106499698D01*
X116950301Y-106678327D01*
X117183690Y-106775000D01*
X117436309Y-106775000D01*
X117824250Y-106775000D01*
X117983000Y-106616250D01*
X117983000Y-111873134D01*
X117886816Y-111729185D01*
X116332000Y-110174369D01*
X116332000Y-104455630D01*
X117054326Y-103733304D01*
X117060360Y-103737377D01*
X117310000Y-103787440D01*
X118910000Y-103787440D01*
X119152123Y-103740463D01*
X119364927Y-103600673D01*
X119507377Y-103389640D01*
X119557440Y-103140000D01*
X119557440Y-102140000D01*
X119510463Y-101897877D01*
X119370673Y-101685073D01*
X119159640Y-101542623D01*
X118910000Y-101492560D01*
X118872000Y-101492560D01*
X118872000Y-100330000D01*
X118813996Y-100038395D01*
X118648815Y-99791185D01*
X118648815Y-99791184D01*
X117378815Y-98521185D01*
X117131605Y-98356004D01*
X116840000Y-98298000D01*
X115824000Y-98298000D01*
X115824000Y-97154310D01*
X115824000Y-96901691D01*
X115824000Y-96297750D01*
X115824000Y-95726250D01*
X115824000Y-95122309D01*
X115824000Y-94869690D01*
X115727327Y-94636301D01*
X115548698Y-94457673D01*
X115315309Y-94361000D01*
X114966750Y-94361000D01*
X114808000Y-94519750D01*
X114808000Y-95885000D01*
X115665250Y-95885000D01*
X115824000Y-95726250D01*
X115824000Y-96297750D01*
X115665250Y-96139000D01*
X114808000Y-96139000D01*
X114808000Y-97504250D01*
X114966750Y-97663000D01*
X115315309Y-97663000D01*
X115548698Y-97566327D01*
X115727327Y-97387699D01*
X115824000Y-97154310D01*
X115824000Y-98298000D01*
X113345630Y-98298000D01*
X113157000Y-98109369D01*
X113157000Y-97620661D01*
X113357927Y-97488673D01*
X113500377Y-97277640D01*
X113538000Y-97090032D01*
X113538000Y-97154310D01*
X113634673Y-97387699D01*
X113813302Y-97566327D01*
X114046691Y-97663000D01*
X114395250Y-97663000D01*
X114554000Y-97504250D01*
X114554000Y-96139000D01*
X114534000Y-96139000D01*
X114534000Y-95885000D01*
X114554000Y-95885000D01*
X114554000Y-94519750D01*
X114395250Y-94361000D01*
X114046691Y-94361000D01*
X113813302Y-94457673D01*
X113634673Y-94636301D01*
X113538000Y-94869690D01*
X113538000Y-94931883D01*
X113503463Y-94753877D01*
X113363673Y-94541073D01*
X113152640Y-94398623D01*
X112952760Y-94358539D01*
X112933815Y-94330185D01*
X112720315Y-94187528D01*
X116788918Y-90118924D01*
X116788921Y-90118922D01*
X116788922Y-90118922D01*
X127202922Y-79704922D01*
X127830807Y-79077036D01*
X127835927Y-79073673D01*
X127839575Y-79068267D01*
X127998843Y-78909000D01*
X136144000Y-78909000D01*
X136611154Y-78909000D01*
X136738365Y-78994000D01*
X136423585Y-79204330D01*
X136098729Y-79690511D01*
X135984655Y-80264000D01*
X136098729Y-80837489D01*
X136423585Y-81323670D01*
X136909766Y-81648526D01*
X137483255Y-81762600D01*
X137852745Y-81762600D01*
X138426234Y-81648526D01*
X138912415Y-81323670D01*
X139237271Y-80837489D01*
X139351345Y-80264000D01*
X139237271Y-79690511D01*
X138912415Y-79204330D01*
X138597634Y-78994000D01*
X138724845Y-78909000D01*
X142748000Y-78909000D01*
X147025154Y-78909000D01*
X147152365Y-78994000D01*
X146837585Y-79204330D01*
X146512729Y-79690511D01*
X146398655Y-80264000D01*
X146512729Y-80837489D01*
X146837585Y-81323670D01*
X147323766Y-81648526D01*
X147897255Y-81762600D01*
X148266745Y-81762600D01*
X148840234Y-81648526D01*
X149326415Y-81323670D01*
X149651271Y-80837489D01*
X149765345Y-80264000D01*
X149651271Y-79690511D01*
X149326415Y-79204330D01*
X149011634Y-78994000D01*
X149138845Y-78909000D01*
X152908000Y-78909000D01*
X157185154Y-78909000D01*
X157312365Y-78994000D01*
X156997585Y-79204330D01*
X156672729Y-79690511D01*
X156558655Y-80264000D01*
X156672729Y-80837489D01*
X156997585Y-81323670D01*
X157483766Y-81648526D01*
X158057255Y-81762600D01*
X158426745Y-81762600D01*
X159000234Y-81648526D01*
X159486415Y-81323670D01*
X159811271Y-80837489D01*
X159925345Y-80264000D01*
X159811271Y-79690511D01*
X159486415Y-79204330D01*
X159171634Y-78994000D01*
X159298845Y-78909000D01*
X167345154Y-78909000D01*
X167472365Y-78994000D01*
X167157585Y-79204330D01*
X166832729Y-79690511D01*
X166718655Y-80264000D01*
X166832729Y-80837489D01*
X167157585Y-81323670D01*
X167643766Y-81648526D01*
X168217255Y-81762600D01*
X168586745Y-81762600D01*
X169160234Y-81648526D01*
X169646415Y-81323670D01*
X169971271Y-80837489D01*
X170085345Y-80264000D01*
X169971271Y-79690511D01*
X169646415Y-79204330D01*
X169331634Y-78994000D01*
X169646415Y-78783670D01*
X169971271Y-78297489D01*
X170085345Y-77724000D01*
X169971271Y-77150511D01*
X169646415Y-76664330D01*
X169630632Y-76653784D01*
X169660123Y-76648063D01*
X169872927Y-76508273D01*
X170015377Y-76297240D01*
X170065440Y-76047600D01*
X170065440Y-74320400D01*
X170018463Y-74078277D01*
X169878673Y-73865473D01*
X169667640Y-73723023D01*
X169418000Y-73672960D01*
X167386000Y-73672960D01*
X167143877Y-73719937D01*
X167029440Y-73795110D01*
X167029440Y-73329000D01*
X173160532Y-73329000D01*
X174345752Y-73564754D01*
X174103166Y-73564543D01*
X173134342Y-73964853D01*
X172392458Y-74705443D01*
X171990458Y-75673567D01*
X171989543Y-76721834D01*
X172389853Y-77690658D01*
X173130443Y-78432542D01*
X174098567Y-78834542D01*
X175146834Y-78835457D01*
X176115658Y-78435147D01*
X176857542Y-77694557D01*
X177259542Y-76726433D01*
X177260155Y-76023451D01*
X177276051Y-76047241D01*
X177623000Y-77791467D01*
X177623000Y-83553560D01*
M02*
