M48
;DRILL file {kicad (2015-01-16 BZR 5376)-product} date 27/05/2015 14:14:07
;FORMAT={-:-/ absolute / inch / decimal}
FMAT,2
INCH,TZ
T1C0.025
T2C0.031
T3C0.032
T4C0.035
T5C0.039
T6C0.040
T7C0.118
%
G90
G05
M72
T1
X4.42Y-4.8
X4.59Y-4.59
X4.785Y-4.36
X4.92Y-4.87
X4.94Y-4.51
X4.97Y-4.905
X4.99Y-4.52
X4.99Y-4.79
X5.21Y-2.94
X5.46Y-4.09
X5.46Y-4.16
X5.47Y-3.6
X5.57Y-4.11
X5.57Y-4.75
X5.63Y-2.94
X5.66Y-3.79
X5.67Y-4.06
X5.805Y-4.155
X5.97Y-4.73
X6.03Y-2.94
X6.04Y-4.44
X6.125Y-5.
X6.32Y-4.73
X6.37Y-3.73
X6.38Y-3.68
X6.43Y-2.94
X6.54Y-3.57
X6.54Y-3.69
T2
X5.8919Y-4.2691
X5.8919Y-4.3478
X5.8919Y-4.4266
X5.8919Y-4.5053
X5.8919Y-4.5841
X5.8919Y-4.6628
X5.8919Y-4.7415
X5.8919Y-4.8203
X5.8919Y-4.899
X5.8919Y-4.9778
X6.7581Y-4.2691
X6.7581Y-4.3478
X6.7581Y-4.4266
X6.7581Y-4.5053
X6.7581Y-4.5841
X6.7581Y-4.6628
X6.7581Y-4.7415
X6.7581Y-4.8203
X6.7581Y-4.899
X6.7581Y-4.9778
T3
X5.87Y-3.36
X5.87Y-3.96
X5.97Y-3.36
X5.97Y-3.96
X6.07Y-3.36
X6.07Y-3.96
X6.17Y-3.36
X6.17Y-3.96
X6.27Y-3.36
X6.27Y-3.96
X6.37Y-3.36
X6.37Y-3.96
X6.47Y-3.36
X6.47Y-3.96
X6.57Y-3.36
X6.57Y-3.96
X6.67Y-3.36
X6.67Y-3.96
X6.77Y-3.36
X6.77Y-3.96
X6.87Y-3.36
X6.87Y-3.96
X6.97Y-3.36
X6.97Y-3.96
T4
X4.12Y-4.51
T5
X4.22Y-4.51
X4.32Y-4.51
X4.42Y-4.51
X4.52Y-4.51
X4.62Y-4.51
X4.72Y-4.51
X4.82Y-4.51
T6
X5.12Y-4.86
X5.12Y-4.96
X5.22Y-4.86
X5.22Y-4.96
X5.32Y-4.86
X5.32Y-4.96
X5.42Y-2.96
X5.42Y-3.06
X5.42Y-3.16
X5.42Y-4.86
X5.42Y-4.96
X5.52Y-4.86
X5.52Y-4.96
X5.83Y-2.96
X5.83Y-3.06
X5.83Y-3.16
X6.23Y-2.96
X6.23Y-3.06
X6.23Y-3.16
X6.63Y-2.96
X6.63Y-3.06
X6.63Y-3.16
T7
X3.775Y-3.025
X3.95Y-4.45
X6.55Y-4.375
X6.875Y-3.
T6
X3.79Y-4.67G85X3.85Y-4.67
G05
X3.79Y-4.91G85X3.85Y-4.91
G05
X4.02Y-4.85G85X4.02Y-4.79
G05
T0
M30
