G04 #@! TF.FileFunction,Soldermask,Bot*
%FSLAX46Y46*%
G04 Gerber Fmt 4.6, Leading zero omitted, Abs format (unit mm)*
G04 Created by KiCad (PCBNEW (2015-01-16 BZR 5376)-product) date 27/05/2015 14:11:43*
%MOMM*%
G01*
G04 APERTURE LIST*
%ADD10C,0.100000*%
%ADD11R,1.000000X8.000000*%
%ADD12C,2.000000*%
%ADD13R,2.000000X2.000000*%
%ADD14R,1.574800X2.286000*%
%ADD15O,1.574800X2.286000*%
%ADD16R,1.727200X1.727200*%
%ADD17O,1.727200X1.727200*%
%ADD18C,4.800600*%
%ADD19R,4.800600X4.800600*%
%ADD20R,2.032000X1.727200*%
%ADD21O,2.032000X1.727200*%
%ADD22C,1.500000*%
%ADD23C,4.000000*%
G04 APERTURE END LIST*
D10*
D11*
X114173000Y-125984000D03*
X116078000Y-125984000D03*
X117983000Y-125984000D03*
D12*
X104648000Y-114554000D03*
X107188000Y-114554000D03*
X109728000Y-114554000D03*
X112268000Y-114554000D03*
X114808000Y-114554000D03*
X117348000Y-114554000D03*
X119888000Y-114554000D03*
D13*
X122428000Y-114554000D03*
D14*
X177038000Y-85344000D03*
D15*
X174498000Y-85344000D03*
X171958000Y-85344000D03*
X169418000Y-85344000D03*
X166878000Y-85344000D03*
X164338000Y-85344000D03*
X161798000Y-85344000D03*
X159258000Y-85344000D03*
X156718000Y-85344000D03*
X154178000Y-85344000D03*
X151638000Y-85344000D03*
X149098000Y-85344000D03*
X149098000Y-100584000D03*
X151638000Y-100584000D03*
X154178000Y-100584000D03*
X156718000Y-100584000D03*
X159258000Y-100584000D03*
X161798000Y-100584000D03*
X164338000Y-100584000D03*
X166878000Y-100584000D03*
X169418000Y-100584000D03*
X171958000Y-100584000D03*
X174498000Y-100584000D03*
X177038000Y-100584000D03*
D16*
X130048000Y-125984000D03*
D17*
X130048000Y-123444000D03*
X132588000Y-125984000D03*
X132588000Y-123444000D03*
X135128000Y-125984000D03*
X135128000Y-123444000D03*
X137668000Y-125984000D03*
X137668000Y-123444000D03*
X140208000Y-125984000D03*
X140208000Y-123444000D03*
D18*
X97028000Y-124714000D03*
D19*
X97028000Y-118618000D03*
D18*
X102108000Y-122428000D03*
D20*
X148082000Y-75184000D03*
D21*
X148082000Y-77724000D03*
X148082000Y-80264000D03*
D20*
X158242000Y-75184000D03*
D21*
X158242000Y-77724000D03*
X158242000Y-80264000D03*
D20*
X168402000Y-75184000D03*
D21*
X168402000Y-77724000D03*
X168402000Y-80264000D03*
D20*
X137668000Y-75184000D03*
D21*
X137668000Y-77724000D03*
X137668000Y-80264000D03*
D22*
X171655000Y-126435000D03*
X171655000Y-124435000D03*
X171655000Y-122435000D03*
X171655000Y-120435000D03*
X171655000Y-118435000D03*
X171655000Y-116435000D03*
X171655000Y-114435000D03*
X171655000Y-112435000D03*
X171655000Y-110435000D03*
X171655000Y-108435000D03*
X149655000Y-108435000D03*
X149655000Y-110435000D03*
X149655000Y-112435000D03*
X149655000Y-114435000D03*
X149655000Y-116435000D03*
X149655000Y-118435000D03*
X149655000Y-120435000D03*
X149655000Y-122435000D03*
X149655000Y-124435000D03*
X149655000Y-126435000D03*
D23*
X95885000Y-76835000D03*
X174625000Y-76200000D03*
X100330000Y-113030000D03*
X166370000Y-111125000D03*
M02*
