G04 #@! TF.FileFunction,Legend,Bot*
%FSLAX46Y46*%
G04 Gerber Fmt 4.6, Leading zero omitted, Abs format (unit mm)*
G04 Created by KiCad (PCBNEW (2015-01-16 BZR 5376)-product) date 27/05/2015 14:11:43*
%MOMM*%
G01*
G04 APERTURE LIST*
%ADD10C,0.100000*%
%ADD11C,0.300000*%
%ADD12R,1.000000X8.000000*%
%ADD13C,2.000000*%
%ADD14R,2.000000X2.000000*%
%ADD15R,1.574800X2.286000*%
%ADD16O,1.574800X2.286000*%
%ADD17R,1.727200X1.727200*%
%ADD18O,1.727200X1.727200*%
%ADD19C,4.800600*%
%ADD20R,4.800600X4.800600*%
%ADD21R,2.032000X1.727200*%
%ADD22O,2.032000X1.727200*%
%ADD23C,1.500000*%
%ADD24C,4.000000*%
G04 APERTURE END LIST*
D10*
D11*
X176950714Y-85253571D02*
X176593571Y-86753571D01*
X176307857Y-85682143D01*
X176022143Y-86753571D01*
X175665000Y-85253571D01*
X175093571Y-86753571D02*
X175093571Y-85753571D01*
X175093571Y-85253571D02*
X175165000Y-85325000D01*
X175093571Y-85396429D01*
X175022143Y-85325000D01*
X175093571Y-85253571D01*
X175093571Y-85396429D01*
X174593571Y-85753571D02*
X174022142Y-85753571D01*
X174379285Y-85253571D02*
X174379285Y-86539286D01*
X174307857Y-86682143D01*
X174164999Y-86753571D01*
X174022142Y-86753571D01*
X173522142Y-86753571D02*
X173522142Y-85253571D01*
X172879285Y-86753571D02*
X172879285Y-85967857D01*
X172950714Y-85825000D01*
X173093571Y-85753571D01*
X173307856Y-85753571D01*
X173450714Y-85825000D01*
X173522142Y-85896429D01*
X171236428Y-85753571D02*
X170664999Y-85753571D01*
X171022142Y-85253571D02*
X171022142Y-86539286D01*
X170950714Y-86682143D01*
X170807856Y-86753571D01*
X170664999Y-86753571D01*
X170164999Y-86753571D02*
X170164999Y-85253571D01*
X169522142Y-86753571D02*
X169522142Y-85967857D01*
X169593571Y-85825000D01*
X169736428Y-85753571D01*
X169950713Y-85753571D01*
X170093571Y-85825000D01*
X170164999Y-85896429D01*
X168164999Y-86753571D02*
X168164999Y-85967857D01*
X168236428Y-85825000D01*
X168379285Y-85753571D01*
X168664999Y-85753571D01*
X168807856Y-85825000D01*
X168164999Y-86682143D02*
X168307856Y-86753571D01*
X168664999Y-86753571D01*
X168807856Y-86682143D01*
X168879285Y-86539286D01*
X168879285Y-86396429D01*
X168807856Y-86253571D01*
X168664999Y-86182143D01*
X168307856Y-86182143D01*
X168164999Y-86110714D01*
X167450713Y-85753571D02*
X167450713Y-86753571D01*
X167450713Y-85896429D02*
X167379285Y-85825000D01*
X167236427Y-85753571D01*
X167022142Y-85753571D01*
X166879285Y-85825000D01*
X166807856Y-85967857D01*
X166807856Y-86753571D01*
X166093570Y-86753571D02*
X166093570Y-85253571D01*
X165950713Y-86182143D02*
X165522142Y-86753571D01*
X165522142Y-85753571D02*
X166093570Y-86325000D01*
X164950713Y-86682143D02*
X164807856Y-86753571D01*
X164522141Y-86753571D01*
X164379284Y-86682143D01*
X164307856Y-86539286D01*
X164307856Y-86467857D01*
X164379284Y-86325000D01*
X164522141Y-86253571D01*
X164736427Y-86253571D01*
X164879284Y-86182143D01*
X164950713Y-86039286D01*
X164950713Y-85967857D01*
X164879284Y-85825000D01*
X164736427Y-85753571D01*
X164522141Y-85753571D01*
X164379284Y-85825000D01*
X162736427Y-85753571D02*
X162164998Y-85753571D01*
X162522141Y-85253571D02*
X162522141Y-86539286D01*
X162450713Y-86682143D01*
X162307855Y-86753571D01*
X162164998Y-86753571D01*
X161450712Y-86753571D02*
X161593570Y-86682143D01*
X161664998Y-86610714D01*
X161736427Y-86467857D01*
X161736427Y-86039286D01*
X161664998Y-85896429D01*
X161593570Y-85825000D01*
X161450712Y-85753571D01*
X161236427Y-85753571D01*
X161093570Y-85825000D01*
X161022141Y-85896429D01*
X160950712Y-86039286D01*
X160950712Y-86467857D01*
X161022141Y-86610714D01*
X161093570Y-86682143D01*
X161236427Y-86753571D01*
X161450712Y-86753571D01*
X160307855Y-86610714D02*
X160236427Y-86682143D01*
X160307855Y-86753571D01*
X160379284Y-86682143D01*
X160307855Y-86610714D01*
X160307855Y-86753571D01*
X160307855Y-85825000D02*
X160236427Y-85896429D01*
X160307855Y-85967857D01*
X160379284Y-85896429D01*
X160307855Y-85825000D01*
X160307855Y-85967857D01*
X176379286Y-87653571D02*
X176379286Y-88725000D01*
X176450714Y-88939286D01*
X176593571Y-89082143D01*
X176807857Y-89153571D01*
X176950714Y-89153571D01*
X175022143Y-89153571D02*
X175022143Y-88367857D01*
X175093572Y-88225000D01*
X175236429Y-88153571D01*
X175522143Y-88153571D01*
X175665000Y-88225000D01*
X175022143Y-89082143D02*
X175165000Y-89153571D01*
X175522143Y-89153571D01*
X175665000Y-89082143D01*
X175736429Y-88939286D01*
X175736429Y-88796429D01*
X175665000Y-88653571D01*
X175522143Y-88582143D01*
X175165000Y-88582143D01*
X175022143Y-88510714D01*
X173665000Y-89082143D02*
X173807857Y-89153571D01*
X174093571Y-89153571D01*
X174236429Y-89082143D01*
X174307857Y-89010714D01*
X174379286Y-88867857D01*
X174379286Y-88439286D01*
X174307857Y-88296429D01*
X174236429Y-88225000D01*
X174093571Y-88153571D01*
X173807857Y-88153571D01*
X173665000Y-88225000D01*
X173022143Y-89153571D02*
X173022143Y-87653571D01*
X172879286Y-88582143D02*
X172450715Y-89153571D01*
X172450715Y-88153571D02*
X173022143Y-88725000D01*
X170665000Y-89153571D02*
X170665000Y-87653571D01*
X170665000Y-88367857D02*
X169807857Y-88367857D01*
X169807857Y-89153571D02*
X169807857Y-87653571D01*
X168879285Y-89153571D02*
X169022143Y-89082143D01*
X169093571Y-89010714D01*
X169165000Y-88867857D01*
X169165000Y-88439286D01*
X169093571Y-88296429D01*
X169022143Y-88225000D01*
X168879285Y-88153571D01*
X168665000Y-88153571D01*
X168522143Y-88225000D01*
X168450714Y-88296429D01*
X168379285Y-88439286D01*
X168379285Y-88867857D01*
X168450714Y-89010714D01*
X168522143Y-89082143D01*
X168665000Y-89153571D01*
X168879285Y-89153571D01*
X167879285Y-88153571D02*
X167593571Y-89153571D01*
X167307857Y-88439286D01*
X167022142Y-89153571D01*
X166736428Y-88153571D01*
X165522142Y-89153571D02*
X165522142Y-88367857D01*
X165593571Y-88225000D01*
X165736428Y-88153571D01*
X166022142Y-88153571D01*
X166164999Y-88225000D01*
X165522142Y-89082143D02*
X165664999Y-89153571D01*
X166022142Y-89153571D01*
X166164999Y-89082143D01*
X166236428Y-88939286D01*
X166236428Y-88796429D01*
X166164999Y-88653571D01*
X166022142Y-88582143D01*
X165664999Y-88582143D01*
X165522142Y-88510714D01*
X164807856Y-89153571D02*
X164807856Y-88153571D01*
X164807856Y-88439286D02*
X164736428Y-88296429D01*
X164664999Y-88225000D01*
X164522142Y-88153571D01*
X164379285Y-88153571D01*
X163236428Y-89153571D02*
X163236428Y-87653571D01*
X163236428Y-89082143D02*
X163379285Y-89153571D01*
X163664999Y-89153571D01*
X163807857Y-89082143D01*
X163879285Y-89010714D01*
X163950714Y-88867857D01*
X163950714Y-88439286D01*
X163879285Y-88296429D01*
X163807857Y-88225000D01*
X163664999Y-88153571D01*
X163379285Y-88153571D01*
X163236428Y-88225000D01*
X162450714Y-89082143D02*
X162450714Y-89153571D01*
X162522142Y-89296429D01*
X162593571Y-89367857D01*
X160164999Y-88367857D02*
X159950713Y-88439286D01*
X159879285Y-88510714D01*
X159807856Y-88653571D01*
X159807856Y-88867857D01*
X159879285Y-89010714D01*
X159950713Y-89082143D01*
X160093571Y-89153571D01*
X160664999Y-89153571D01*
X160664999Y-87653571D01*
X160164999Y-87653571D01*
X160022142Y-87725000D01*
X159950713Y-87796429D01*
X159879285Y-87939286D01*
X159879285Y-88082143D01*
X159950713Y-88225000D01*
X160022142Y-88296429D01*
X160164999Y-88367857D01*
X160664999Y-88367857D01*
X158593571Y-89082143D02*
X158736428Y-89153571D01*
X159022142Y-89153571D01*
X159164999Y-89082143D01*
X159236428Y-88939286D01*
X159236428Y-88367857D01*
X159164999Y-88225000D01*
X159022142Y-88153571D01*
X158736428Y-88153571D01*
X158593571Y-88225000D01*
X158522142Y-88367857D01*
X158522142Y-88510714D01*
X159236428Y-88653571D01*
X157879285Y-88153571D02*
X157879285Y-89153571D01*
X157879285Y-88296429D02*
X157807857Y-88225000D01*
X157664999Y-88153571D01*
X157450714Y-88153571D01*
X157307857Y-88225000D01*
X157236428Y-88367857D01*
X157236428Y-89153571D01*
X155379285Y-89153571D02*
X155379285Y-87653571D01*
X154807857Y-87653571D01*
X154664999Y-87725000D01*
X154593571Y-87796429D01*
X154522142Y-87939286D01*
X154522142Y-88153571D01*
X154593571Y-88296429D01*
X154664999Y-88367857D01*
X154807857Y-88439286D01*
X155379285Y-88439286D01*
X153879285Y-89153571D02*
X153879285Y-88153571D01*
X153879285Y-87653571D02*
X153950714Y-87725000D01*
X153879285Y-87796429D01*
X153807857Y-87725000D01*
X153879285Y-87653571D01*
X153879285Y-87796429D01*
X153164999Y-89153571D02*
X153164999Y-88153571D01*
X153164999Y-88439286D02*
X153093571Y-88296429D01*
X153022142Y-88225000D01*
X152879285Y-88153571D01*
X152736428Y-88153571D01*
X152450714Y-88153571D02*
X151879285Y-88153571D01*
X152236428Y-87653571D02*
X152236428Y-88939286D01*
X152165000Y-89082143D01*
X152022142Y-89153571D01*
X151879285Y-89153571D01*
X151307857Y-89082143D02*
X151307857Y-89153571D01*
X151379285Y-89296429D01*
X151450714Y-89367857D01*
X149593571Y-88725000D02*
X148879285Y-88725000D01*
X149736428Y-89153571D02*
X149236428Y-87653571D01*
X148736428Y-89153571D01*
X148236428Y-89153571D02*
X148236428Y-88153571D01*
X148236428Y-88439286D02*
X148165000Y-88296429D01*
X148093571Y-88225000D01*
X147950714Y-88153571D01*
X147807857Y-88153571D01*
X146665000Y-89153571D02*
X146665000Y-87653571D01*
X146665000Y-89082143D02*
X146807857Y-89153571D01*
X147093571Y-89153571D01*
X147236429Y-89082143D01*
X147307857Y-89010714D01*
X147379286Y-88867857D01*
X147379286Y-88439286D01*
X147307857Y-88296429D01*
X147236429Y-88225000D01*
X147093571Y-88153571D01*
X146807857Y-88153571D01*
X146665000Y-88225000D01*
X145307857Y-88153571D02*
X145307857Y-89153571D01*
X145950714Y-88153571D02*
X145950714Y-88939286D01*
X145879286Y-89082143D01*
X145736428Y-89153571D01*
X145522143Y-89153571D01*
X145379286Y-89082143D01*
X145307857Y-89010714D01*
X144593571Y-89153571D02*
X144593571Y-88153571D01*
X144593571Y-87653571D02*
X144665000Y-87725000D01*
X144593571Y-87796429D01*
X144522143Y-87725000D01*
X144593571Y-87653571D01*
X144593571Y-87796429D01*
X143879285Y-88153571D02*
X143879285Y-89153571D01*
X143879285Y-88296429D02*
X143807857Y-88225000D01*
X143664999Y-88153571D01*
X143450714Y-88153571D01*
X143307857Y-88225000D01*
X143236428Y-88367857D01*
X143236428Y-89153571D01*
X142307856Y-89153571D02*
X142450714Y-89082143D01*
X142522142Y-89010714D01*
X142593571Y-88867857D01*
X142593571Y-88439286D01*
X142522142Y-88296429D01*
X142450714Y-88225000D01*
X142307856Y-88153571D01*
X142093571Y-88153571D01*
X141950714Y-88225000D01*
X141879285Y-88296429D01*
X141807856Y-88439286D01*
X141807856Y-88867857D01*
X141879285Y-89010714D01*
X141950714Y-89082143D01*
X142093571Y-89153571D01*
X142307856Y-89153571D01*
X141093571Y-89082143D02*
X141093571Y-89153571D01*
X141164999Y-89296429D01*
X141236428Y-89367857D01*
X176879286Y-91482143D02*
X176665000Y-91553571D01*
X176307857Y-91553571D01*
X176165000Y-91482143D01*
X176093571Y-91410714D01*
X176022143Y-91267857D01*
X176022143Y-91125000D01*
X176093571Y-90982143D01*
X176165000Y-90910714D01*
X176307857Y-90839286D01*
X176593571Y-90767857D01*
X176736429Y-90696429D01*
X176807857Y-90625000D01*
X176879286Y-90482143D01*
X176879286Y-90339286D01*
X176807857Y-90196429D01*
X176736429Y-90125000D01*
X176593571Y-90053571D01*
X176236429Y-90053571D01*
X176022143Y-90125000D01*
X175379286Y-90553571D02*
X175379286Y-92053571D01*
X175379286Y-90625000D02*
X175236429Y-90553571D01*
X174950715Y-90553571D01*
X174807858Y-90625000D01*
X174736429Y-90696429D01*
X174665000Y-90839286D01*
X174665000Y-91267857D01*
X174736429Y-91410714D01*
X174807858Y-91482143D01*
X174950715Y-91553571D01*
X175236429Y-91553571D01*
X175379286Y-91482143D01*
X173379286Y-91553571D02*
X173379286Y-90767857D01*
X173450715Y-90625000D01*
X173593572Y-90553571D01*
X173879286Y-90553571D01*
X174022143Y-90625000D01*
X173379286Y-91482143D02*
X173522143Y-91553571D01*
X173879286Y-91553571D01*
X174022143Y-91482143D01*
X174093572Y-91339286D01*
X174093572Y-91196429D01*
X174022143Y-91053571D01*
X173879286Y-90982143D01*
X173522143Y-90982143D01*
X173379286Y-90910714D01*
X172665000Y-91553571D02*
X172665000Y-90553571D01*
X172665000Y-90839286D02*
X172593572Y-90696429D01*
X172522143Y-90625000D01*
X172379286Y-90553571D01*
X172236429Y-90553571D01*
X171736429Y-91553571D02*
X171736429Y-90053571D01*
X171593572Y-90982143D02*
X171165001Y-91553571D01*
X171165001Y-90553571D02*
X171736429Y-91125000D01*
X170736429Y-90553571D02*
X170165000Y-90553571D01*
X170522143Y-91553571D02*
X170522143Y-90267857D01*
X170450715Y-90125000D01*
X170307857Y-90053571D01*
X170165000Y-90053571D01*
X169022143Y-90553571D02*
X169022143Y-91553571D01*
X169665000Y-90553571D02*
X169665000Y-91339286D01*
X169593572Y-91482143D01*
X169450714Y-91553571D01*
X169236429Y-91553571D01*
X169093572Y-91482143D01*
X169022143Y-91410714D01*
X168307857Y-90553571D02*
X168307857Y-91553571D01*
X168307857Y-90696429D02*
X168236429Y-90625000D01*
X168093571Y-90553571D01*
X167879286Y-90553571D01*
X167736429Y-90625000D01*
X167665000Y-90767857D01*
X167665000Y-91553571D01*
X166879286Y-91482143D02*
X166879286Y-91553571D01*
X166950714Y-91696429D01*
X167022143Y-91767857D01*
X165165000Y-91125000D02*
X164450714Y-91125000D01*
X165307857Y-91553571D02*
X164807857Y-90053571D01*
X164307857Y-91553571D01*
X163165000Y-91553571D02*
X163165000Y-90053571D01*
X163165000Y-91482143D02*
X163307857Y-91553571D01*
X163593571Y-91553571D01*
X163736429Y-91482143D01*
X163807857Y-91410714D01*
X163879286Y-91267857D01*
X163879286Y-90839286D01*
X163807857Y-90696429D01*
X163736429Y-90625000D01*
X163593571Y-90553571D01*
X163307857Y-90553571D01*
X163165000Y-90625000D01*
X161807857Y-91553571D02*
X161807857Y-90767857D01*
X161879286Y-90625000D01*
X162022143Y-90553571D01*
X162307857Y-90553571D01*
X162450714Y-90625000D01*
X161807857Y-91482143D02*
X161950714Y-91553571D01*
X162307857Y-91553571D01*
X162450714Y-91482143D01*
X162522143Y-91339286D01*
X162522143Y-91196429D01*
X162450714Y-91053571D01*
X162307857Y-90982143D01*
X161950714Y-90982143D01*
X161807857Y-90910714D01*
X161307857Y-90553571D02*
X160736428Y-90553571D01*
X161093571Y-91553571D02*
X161093571Y-90267857D01*
X161022143Y-90125000D01*
X160879285Y-90053571D01*
X160736428Y-90053571D01*
X160236428Y-91553571D02*
X160236428Y-90553571D01*
X160236428Y-90839286D02*
X160165000Y-90696429D01*
X160093571Y-90625000D01*
X159950714Y-90553571D01*
X159807857Y-90553571D01*
X158665000Y-90553571D02*
X158665000Y-91553571D01*
X159307857Y-90553571D02*
X159307857Y-91339286D01*
X159236429Y-91482143D01*
X159093571Y-91553571D01*
X158879286Y-91553571D01*
X158736429Y-91482143D01*
X158665000Y-91410714D01*
X157950714Y-91553571D02*
X157950714Y-90553571D01*
X157950714Y-90053571D02*
X158022143Y-90125000D01*
X157950714Y-90196429D01*
X157879286Y-90125000D01*
X157950714Y-90053571D01*
X157950714Y-90196429D01*
X157450714Y-90553571D02*
X156879285Y-90553571D01*
X157236428Y-90053571D02*
X157236428Y-91339286D01*
X157165000Y-91482143D01*
X157022142Y-91553571D01*
X156879285Y-91553571D01*
X156307857Y-91482143D02*
X156307857Y-91553571D01*
X156379285Y-91696429D01*
X156450714Y-91767857D01*
X154522142Y-91553571D02*
X154522142Y-90053571D01*
X153664999Y-91553571D02*
X154307856Y-90696429D01*
X153664999Y-90053571D02*
X154522142Y-90910714D01*
X153022142Y-91553571D02*
X153022142Y-90553571D01*
X153022142Y-90053571D02*
X153093571Y-90125000D01*
X153022142Y-90196429D01*
X152950714Y-90125000D01*
X153022142Y-90053571D01*
X153022142Y-90196429D01*
X151450713Y-91410714D02*
X151522142Y-91482143D01*
X151736428Y-91553571D01*
X151879285Y-91553571D01*
X152093570Y-91482143D01*
X152236428Y-91339286D01*
X152307856Y-91196429D01*
X152379285Y-90910714D01*
X152379285Y-90696429D01*
X152307856Y-90410714D01*
X152236428Y-90267857D01*
X152093570Y-90125000D01*
X151879285Y-90053571D01*
X151736428Y-90053571D01*
X151522142Y-90125000D01*
X151450713Y-90196429D01*
X150164999Y-91553571D02*
X150164999Y-90767857D01*
X150236428Y-90625000D01*
X150379285Y-90553571D01*
X150664999Y-90553571D01*
X150807856Y-90625000D01*
X150164999Y-91482143D02*
X150307856Y-91553571D01*
X150664999Y-91553571D01*
X150807856Y-91482143D01*
X150879285Y-91339286D01*
X150879285Y-91196429D01*
X150807856Y-91053571D01*
X150664999Y-90982143D01*
X150307856Y-90982143D01*
X150164999Y-90910714D01*
X148807856Y-91553571D02*
X148807856Y-90053571D01*
X148807856Y-91482143D02*
X148950713Y-91553571D01*
X149236427Y-91553571D01*
X149379285Y-91482143D01*
X149450713Y-91410714D01*
X149522142Y-91267857D01*
X149522142Y-90839286D01*
X149450713Y-90696429D01*
X149379285Y-90625000D01*
X149236427Y-90553571D01*
X148950713Y-90553571D01*
X148807856Y-90625000D01*
X176165000Y-93953571D02*
X176165000Y-93167857D01*
X176236429Y-93025000D01*
X176379286Y-92953571D01*
X176665000Y-92953571D01*
X176807857Y-93025000D01*
X176165000Y-93882143D02*
X176307857Y-93953571D01*
X176665000Y-93953571D01*
X176807857Y-93882143D01*
X176879286Y-93739286D01*
X176879286Y-93596429D01*
X176807857Y-93453571D01*
X176665000Y-93382143D01*
X176307857Y-93382143D01*
X176165000Y-93310714D01*
X175450714Y-92953571D02*
X175450714Y-93953571D01*
X175450714Y-93096429D02*
X175379286Y-93025000D01*
X175236428Y-92953571D01*
X175022143Y-92953571D01*
X174879286Y-93025000D01*
X174807857Y-93167857D01*
X174807857Y-93953571D01*
X173450714Y-93953571D02*
X173450714Y-92453571D01*
X173450714Y-93882143D02*
X173593571Y-93953571D01*
X173879285Y-93953571D01*
X174022143Y-93882143D01*
X174093571Y-93810714D01*
X174165000Y-93667857D01*
X174165000Y-93239286D01*
X174093571Y-93096429D01*
X174022143Y-93025000D01*
X173879285Y-92953571D01*
X173593571Y-92953571D01*
X173450714Y-93025000D01*
X171022143Y-93882143D02*
X171165000Y-93953571D01*
X171450714Y-93953571D01*
X171593571Y-93882143D01*
X171665000Y-93739286D01*
X171665000Y-93167857D01*
X171593571Y-93025000D01*
X171450714Y-92953571D01*
X171165000Y-92953571D01*
X171022143Y-93025000D01*
X170950714Y-93167857D01*
X170950714Y-93310714D01*
X171665000Y-93453571D01*
X170450714Y-92953571D02*
X170093571Y-93953571D01*
X169736429Y-92953571D01*
X168593572Y-93882143D02*
X168736429Y-93953571D01*
X169022143Y-93953571D01*
X169165000Y-93882143D01*
X169236429Y-93739286D01*
X169236429Y-93167857D01*
X169165000Y-93025000D01*
X169022143Y-92953571D01*
X168736429Y-92953571D01*
X168593572Y-93025000D01*
X168522143Y-93167857D01*
X168522143Y-93310714D01*
X169236429Y-93453571D01*
X167879286Y-93953571D02*
X167879286Y-92953571D01*
X167879286Y-93239286D02*
X167807858Y-93096429D01*
X167736429Y-93025000D01*
X167593572Y-92953571D01*
X167450715Y-92953571D01*
X167093572Y-92953571D02*
X166736429Y-93953571D01*
X166379287Y-92953571D02*
X166736429Y-93953571D01*
X166879287Y-94310714D01*
X166950715Y-94382143D01*
X167093572Y-94453571D01*
X165593572Y-93953571D02*
X165736430Y-93882143D01*
X165807858Y-93810714D01*
X165879287Y-93667857D01*
X165879287Y-93239286D01*
X165807858Y-93096429D01*
X165736430Y-93025000D01*
X165593572Y-92953571D01*
X165379287Y-92953571D01*
X165236430Y-93025000D01*
X165165001Y-93096429D01*
X165093572Y-93239286D01*
X165093572Y-93667857D01*
X165165001Y-93810714D01*
X165236430Y-93882143D01*
X165379287Y-93953571D01*
X165593572Y-93953571D01*
X164450715Y-92953571D02*
X164450715Y-93953571D01*
X164450715Y-93096429D02*
X164379287Y-93025000D01*
X164236429Y-92953571D01*
X164022144Y-92953571D01*
X163879287Y-93025000D01*
X163807858Y-93167857D01*
X163807858Y-93953571D01*
X162522144Y-93882143D02*
X162665001Y-93953571D01*
X162950715Y-93953571D01*
X163093572Y-93882143D01*
X163165001Y-93739286D01*
X163165001Y-93167857D01*
X163093572Y-93025000D01*
X162950715Y-92953571D01*
X162665001Y-92953571D01*
X162522144Y-93025000D01*
X162450715Y-93167857D01*
X162450715Y-93310714D01*
X163165001Y-93453571D01*
X160807858Y-92953571D02*
X160522144Y-93953571D01*
X160236430Y-93239286D01*
X159950715Y-93953571D01*
X159665001Y-92953571D01*
X159093572Y-93953571D02*
X159093572Y-92453571D01*
X158450715Y-93953571D02*
X158450715Y-93167857D01*
X158522144Y-93025000D01*
X158665001Y-92953571D01*
X158879286Y-92953571D01*
X159022144Y-93025000D01*
X159093572Y-93096429D01*
X157522143Y-93953571D02*
X157665001Y-93882143D01*
X157736429Y-93810714D01*
X157807858Y-93667857D01*
X157807858Y-93239286D01*
X157736429Y-93096429D01*
X157665001Y-93025000D01*
X157522143Y-92953571D01*
X157307858Y-92953571D01*
X157165001Y-93025000D01*
X157093572Y-93096429D01*
X157022143Y-93239286D01*
X157022143Y-93667857D01*
X157093572Y-93810714D01*
X157165001Y-93882143D01*
X157307858Y-93953571D01*
X157522143Y-93953571D01*
X155307858Y-93882143D02*
X155165001Y-93953571D01*
X154879286Y-93953571D01*
X154736429Y-93882143D01*
X154665001Y-93739286D01*
X154665001Y-93667857D01*
X154736429Y-93525000D01*
X154879286Y-93453571D01*
X155093572Y-93453571D01*
X155236429Y-93382143D01*
X155307858Y-93239286D01*
X155307858Y-93167857D01*
X155236429Y-93025000D01*
X155093572Y-92953571D01*
X154879286Y-92953571D01*
X154736429Y-93025000D01*
X154022143Y-93953571D02*
X154022143Y-92453571D01*
X153379286Y-93953571D02*
X153379286Y-93167857D01*
X153450715Y-93025000D01*
X153593572Y-92953571D01*
X153807857Y-92953571D01*
X153950715Y-93025000D01*
X154022143Y-93096429D01*
X152022143Y-93953571D02*
X152022143Y-93167857D01*
X152093572Y-93025000D01*
X152236429Y-92953571D01*
X152522143Y-92953571D01*
X152665000Y-93025000D01*
X152022143Y-93882143D02*
X152165000Y-93953571D01*
X152522143Y-93953571D01*
X152665000Y-93882143D01*
X152736429Y-93739286D01*
X152736429Y-93596429D01*
X152665000Y-93453571D01*
X152522143Y-93382143D01*
X152165000Y-93382143D01*
X152022143Y-93310714D01*
X151307857Y-93953571D02*
X151307857Y-92953571D01*
X151307857Y-93239286D02*
X151236429Y-93096429D01*
X151165000Y-93025000D01*
X151022143Y-92953571D01*
X150879286Y-92953571D01*
X149807858Y-93882143D02*
X149950715Y-93953571D01*
X150236429Y-93953571D01*
X150379286Y-93882143D01*
X150450715Y-93739286D01*
X150450715Y-93167857D01*
X150379286Y-93025000D01*
X150236429Y-92953571D01*
X149950715Y-92953571D01*
X149807858Y-93025000D01*
X149736429Y-93167857D01*
X149736429Y-93310714D01*
X150450715Y-93453571D01*
X149165001Y-93882143D02*
X149022144Y-93953571D01*
X148736429Y-93953571D01*
X148593572Y-93882143D01*
X148522144Y-93739286D01*
X148522144Y-93667857D01*
X148593572Y-93525000D01*
X148736429Y-93453571D01*
X148950715Y-93453571D01*
X149093572Y-93382143D01*
X149165001Y-93239286D01*
X149165001Y-93167857D01*
X149093572Y-93025000D01*
X148950715Y-92953571D01*
X148736429Y-92953571D01*
X148593572Y-93025000D01*
X177022143Y-95353571D02*
X176450714Y-95353571D01*
X176807857Y-94853571D02*
X176807857Y-96139286D01*
X176736429Y-96282143D01*
X176593571Y-96353571D01*
X176450714Y-96353571D01*
X175950714Y-96353571D02*
X175950714Y-94853571D01*
X175307857Y-96353571D02*
X175307857Y-95567857D01*
X175379286Y-95425000D01*
X175522143Y-95353571D01*
X175736428Y-95353571D01*
X175879286Y-95425000D01*
X175950714Y-95496429D01*
X174022143Y-96282143D02*
X174165000Y-96353571D01*
X174450714Y-96353571D01*
X174593571Y-96282143D01*
X174665000Y-96139286D01*
X174665000Y-95567857D01*
X174593571Y-95425000D01*
X174450714Y-95353571D01*
X174165000Y-95353571D01*
X174022143Y-95425000D01*
X173950714Y-95567857D01*
X173950714Y-95710714D01*
X174665000Y-95853571D01*
X173307857Y-96353571D02*
X173307857Y-95353571D01*
X173307857Y-94853571D02*
X173379286Y-94925000D01*
X173307857Y-94996429D01*
X173236429Y-94925000D01*
X173307857Y-94853571D01*
X173307857Y-94996429D01*
X172593571Y-96353571D02*
X172593571Y-95353571D01*
X172593571Y-95639286D02*
X172522143Y-95496429D01*
X172450714Y-95425000D01*
X172307857Y-95353571D01*
X172165000Y-95353571D01*
X170522143Y-96353571D02*
X170522143Y-95353571D01*
X170522143Y-94853571D02*
X170593572Y-94925000D01*
X170522143Y-94996429D01*
X170450715Y-94925000D01*
X170522143Y-94853571D01*
X170522143Y-94996429D01*
X169165000Y-96353571D02*
X169165000Y-94853571D01*
X169165000Y-96282143D02*
X169307857Y-96353571D01*
X169593571Y-96353571D01*
X169736429Y-96282143D01*
X169807857Y-96210714D01*
X169879286Y-96067857D01*
X169879286Y-95639286D01*
X169807857Y-95496429D01*
X169736429Y-95425000D01*
X169593571Y-95353571D01*
X169307857Y-95353571D01*
X169165000Y-95425000D01*
X167879286Y-96282143D02*
X168022143Y-96353571D01*
X168307857Y-96353571D01*
X168450714Y-96282143D01*
X168522143Y-96139286D01*
X168522143Y-95567857D01*
X168450714Y-95425000D01*
X168307857Y-95353571D01*
X168022143Y-95353571D01*
X167879286Y-95425000D01*
X167807857Y-95567857D01*
X167807857Y-95710714D01*
X168522143Y-95853571D01*
X166522143Y-96353571D02*
X166522143Y-95567857D01*
X166593572Y-95425000D01*
X166736429Y-95353571D01*
X167022143Y-95353571D01*
X167165000Y-95425000D01*
X166522143Y-96282143D02*
X166665000Y-96353571D01*
X167022143Y-96353571D01*
X167165000Y-96282143D01*
X167236429Y-96139286D01*
X167236429Y-95996429D01*
X167165000Y-95853571D01*
X167022143Y-95782143D01*
X166665000Y-95782143D01*
X166522143Y-95710714D01*
X165879286Y-96282143D02*
X165736429Y-96353571D01*
X165450714Y-96353571D01*
X165307857Y-96282143D01*
X165236429Y-96139286D01*
X165236429Y-96067857D01*
X165307857Y-95925000D01*
X165450714Y-95853571D01*
X165665000Y-95853571D01*
X165807857Y-95782143D01*
X165879286Y-95639286D01*
X165879286Y-95567857D01*
X165807857Y-95425000D01*
X165665000Y-95353571D01*
X165450714Y-95353571D01*
X165307857Y-95425000D01*
X162807857Y-96353571D02*
X162807857Y-95567857D01*
X162879286Y-95425000D01*
X163022143Y-95353571D01*
X163307857Y-95353571D01*
X163450714Y-95425000D01*
X162807857Y-96282143D02*
X162950714Y-96353571D01*
X163307857Y-96353571D01*
X163450714Y-96282143D01*
X163522143Y-96139286D01*
X163522143Y-95996429D01*
X163450714Y-95853571D01*
X163307857Y-95782143D01*
X162950714Y-95782143D01*
X162807857Y-95710714D01*
X162093571Y-95353571D02*
X162093571Y-96353571D01*
X162093571Y-95496429D02*
X162022143Y-95425000D01*
X161879285Y-95353571D01*
X161665000Y-95353571D01*
X161522143Y-95425000D01*
X161450714Y-95567857D01*
X161450714Y-96353571D01*
X160093571Y-96353571D02*
X160093571Y-94853571D01*
X160093571Y-96282143D02*
X160236428Y-96353571D01*
X160522142Y-96353571D01*
X160665000Y-96282143D01*
X160736428Y-96210714D01*
X160807857Y-96067857D01*
X160807857Y-95639286D01*
X160736428Y-95496429D01*
X160665000Y-95425000D01*
X160522142Y-95353571D01*
X160236428Y-95353571D01*
X160093571Y-95425000D01*
X157665000Y-96282143D02*
X157807857Y-96353571D01*
X158093571Y-96353571D01*
X158236428Y-96282143D01*
X158307857Y-96139286D01*
X158307857Y-95567857D01*
X158236428Y-95425000D01*
X158093571Y-95353571D01*
X157807857Y-95353571D01*
X157665000Y-95425000D01*
X157593571Y-95567857D01*
X157593571Y-95710714D01*
X158307857Y-95853571D01*
X156950714Y-95353571D02*
X156950714Y-96353571D01*
X156950714Y-95496429D02*
X156879286Y-95425000D01*
X156736428Y-95353571D01*
X156522143Y-95353571D01*
X156379286Y-95425000D01*
X156307857Y-95567857D01*
X156307857Y-96353571D01*
X155807857Y-95353571D02*
X155236428Y-95353571D01*
X155593571Y-94853571D02*
X155593571Y-96139286D01*
X155522143Y-96282143D01*
X155379285Y-96353571D01*
X155236428Y-96353571D01*
X154736428Y-96353571D02*
X154736428Y-94853571D01*
X154093571Y-96353571D02*
X154093571Y-95567857D01*
X154165000Y-95425000D01*
X154307857Y-95353571D01*
X154522142Y-95353571D01*
X154665000Y-95425000D01*
X154736428Y-95496429D01*
X152736428Y-95353571D02*
X152736428Y-96353571D01*
X153379285Y-95353571D02*
X153379285Y-96139286D01*
X153307857Y-96282143D01*
X153164999Y-96353571D01*
X152950714Y-96353571D01*
X152807857Y-96282143D01*
X152736428Y-96210714D01*
X152093571Y-96282143D02*
X151950714Y-96353571D01*
X151664999Y-96353571D01*
X151522142Y-96282143D01*
X151450714Y-96139286D01*
X151450714Y-96067857D01*
X151522142Y-95925000D01*
X151664999Y-95853571D01*
X151879285Y-95853571D01*
X152022142Y-95782143D01*
X152093571Y-95639286D01*
X152093571Y-95567857D01*
X152022142Y-95425000D01*
X151879285Y-95353571D01*
X151664999Y-95353571D01*
X151522142Y-95425000D01*
X150807856Y-96353571D02*
X150807856Y-95353571D01*
X150807856Y-94853571D02*
X150879285Y-94925000D01*
X150807856Y-94996429D01*
X150736428Y-94925000D01*
X150807856Y-94853571D01*
X150807856Y-94996429D01*
X149450713Y-96353571D02*
X149450713Y-95567857D01*
X149522142Y-95425000D01*
X149664999Y-95353571D01*
X149950713Y-95353571D01*
X150093570Y-95425000D01*
X149450713Y-96282143D02*
X149593570Y-96353571D01*
X149950713Y-96353571D01*
X150093570Y-96282143D01*
X150164999Y-96139286D01*
X150164999Y-95996429D01*
X150093570Y-95853571D01*
X149950713Y-95782143D01*
X149593570Y-95782143D01*
X149450713Y-95710714D01*
X148736427Y-96353571D02*
X148736427Y-95353571D01*
X148736427Y-95496429D02*
X148664999Y-95425000D01*
X148522141Y-95353571D01*
X148307856Y-95353571D01*
X148164999Y-95425000D01*
X148093570Y-95567857D01*
X148093570Y-96353571D01*
X148093570Y-95567857D02*
X148022141Y-95425000D01*
X147879284Y-95353571D01*
X147664999Y-95353571D01*
X147522141Y-95425000D01*
X147450713Y-95567857D01*
X147450713Y-96353571D01*
X146736427Y-96210714D02*
X146664999Y-96282143D01*
X146736427Y-96353571D01*
X146807856Y-96282143D01*
X146736427Y-96210714D01*
X146736427Y-96353571D01*
X97268571Y-81388573D02*
X95768571Y-81388573D01*
X96840000Y-81888573D01*
X95768571Y-82388573D01*
X97268571Y-82388573D01*
X97197143Y-83674287D02*
X97268571Y-83531430D01*
X97268571Y-83245716D01*
X97197143Y-83102859D01*
X97054286Y-83031430D01*
X96482857Y-83031430D01*
X96340000Y-83102859D01*
X96268571Y-83245716D01*
X96268571Y-83531430D01*
X96340000Y-83674287D01*
X96482857Y-83745716D01*
X96625714Y-83745716D01*
X96768571Y-83031430D01*
X96840000Y-84317144D02*
X96840000Y-85031430D01*
X97268571Y-84174287D02*
X95768571Y-84674287D01*
X97268571Y-85174287D01*
X97268571Y-85674287D02*
X96268571Y-85674287D01*
X96554286Y-85674287D02*
X96411429Y-85745715D01*
X96340000Y-85817144D01*
X96268571Y-85960001D01*
X96268571Y-86102858D01*
X97268571Y-86602858D02*
X96268571Y-86602858D01*
X96411429Y-86602858D02*
X96340000Y-86674286D01*
X96268571Y-86817144D01*
X96268571Y-87031429D01*
X96340000Y-87174286D01*
X96482857Y-87245715D01*
X97268571Y-87245715D01*
X96482857Y-87245715D02*
X96340000Y-87317144D01*
X96268571Y-87460001D01*
X96268571Y-87674286D01*
X96340000Y-87817144D01*
X96482857Y-87888572D01*
X97268571Y-87888572D01*
X97268571Y-90460001D02*
X97268571Y-89745715D01*
X95768571Y-89745715D01*
X97268571Y-90960001D02*
X96268571Y-90960001D01*
X95768571Y-90960001D02*
X95840000Y-90888572D01*
X95911429Y-90960001D01*
X95840000Y-91031429D01*
X95768571Y-90960001D01*
X95911429Y-90960001D01*
X97268571Y-91674287D02*
X96268571Y-91674287D01*
X96411429Y-91674287D02*
X96340000Y-91745715D01*
X96268571Y-91888573D01*
X96268571Y-92102858D01*
X96340000Y-92245715D01*
X96482857Y-92317144D01*
X97268571Y-92317144D01*
X96482857Y-92317144D02*
X96340000Y-92388573D01*
X96268571Y-92531430D01*
X96268571Y-92745715D01*
X96340000Y-92888573D01*
X96482857Y-92960001D01*
X97268571Y-92960001D01*
X97268571Y-93674287D02*
X96268571Y-93674287D01*
X95768571Y-93674287D02*
X95840000Y-93602858D01*
X95911429Y-93674287D01*
X95840000Y-93745715D01*
X95768571Y-93674287D01*
X95911429Y-93674287D01*
X96268571Y-94174287D02*
X96268571Y-94745716D01*
X95768571Y-94388573D02*
X97054286Y-94388573D01*
X97197143Y-94460001D01*
X97268571Y-94602859D01*
X97268571Y-94745716D01*
X97197143Y-95817144D02*
X97268571Y-95674287D01*
X97268571Y-95388573D01*
X97197143Y-95245716D01*
X97054286Y-95174287D01*
X96482857Y-95174287D01*
X96340000Y-95245716D01*
X96268571Y-95388573D01*
X96268571Y-95674287D01*
X96340000Y-95817144D01*
X96482857Y-95888573D01*
X96625714Y-95888573D01*
X96768571Y-95174287D01*
X97268571Y-97174287D02*
X95768571Y-97174287D01*
X97197143Y-97174287D02*
X97268571Y-97031430D01*
X97268571Y-96745716D01*
X97197143Y-96602858D01*
X97125714Y-96531430D01*
X96982857Y-96460001D01*
X96554286Y-96460001D01*
X96411429Y-96531430D01*
X96340000Y-96602858D01*
X96268571Y-96745716D01*
X96268571Y-97031430D01*
X96340000Y-97174287D01*
X95911429Y-98960001D02*
X95840000Y-99031430D01*
X95768571Y-99174287D01*
X95768571Y-99531430D01*
X95840000Y-99674287D01*
X95911429Y-99745716D01*
X96054286Y-99817144D01*
X96197143Y-99817144D01*
X96411429Y-99745716D01*
X97268571Y-98888573D01*
X97268571Y-99817144D01*
X95768571Y-100745715D02*
X95768571Y-100888572D01*
X95840000Y-101031429D01*
X95911429Y-101102858D01*
X96054286Y-101174287D01*
X96340000Y-101245715D01*
X96697143Y-101245715D01*
X96982857Y-101174287D01*
X97125714Y-101102858D01*
X97197143Y-101031429D01*
X97268571Y-100888572D01*
X97268571Y-100745715D01*
X97197143Y-100602858D01*
X97125714Y-100531429D01*
X96982857Y-100460001D01*
X96697143Y-100388572D01*
X96340000Y-100388572D01*
X96054286Y-100460001D01*
X95911429Y-100531429D01*
X95840000Y-100602858D01*
X95768571Y-100745715D01*
X97268571Y-102674286D02*
X97268571Y-101817143D01*
X97268571Y-102245715D02*
X95768571Y-102245715D01*
X95982857Y-102102858D01*
X96125714Y-101960000D01*
X96197143Y-101817143D01*
X95768571Y-104031429D02*
X95768571Y-103317143D01*
X96482857Y-103245714D01*
X96411429Y-103317143D01*
X96340000Y-103460000D01*
X96340000Y-103817143D01*
X96411429Y-103960000D01*
X96482857Y-104031429D01*
X96625714Y-104102857D01*
X96982857Y-104102857D01*
X97125714Y-104031429D01*
X97197143Y-103960000D01*
X97268571Y-103817143D01*
X97268571Y-103460000D01*
X97197143Y-103317143D01*
X97125714Y-103245714D01*
X99525714Y-85460001D02*
X99597143Y-85388572D01*
X99668571Y-85174286D01*
X99668571Y-85031429D01*
X99597143Y-84817144D01*
X99454286Y-84674286D01*
X99311429Y-84602858D01*
X99025714Y-84531429D01*
X98811429Y-84531429D01*
X98525714Y-84602858D01*
X98382857Y-84674286D01*
X98240000Y-84817144D01*
X98168571Y-85031429D01*
X98168571Y-85174286D01*
X98240000Y-85388572D01*
X98311429Y-85460001D01*
X99525714Y-86960001D02*
X99597143Y-86888572D01*
X99668571Y-86674286D01*
X99668571Y-86531429D01*
X99597143Y-86317144D01*
X99454286Y-86174286D01*
X99311429Y-86102858D01*
X99025714Y-86031429D01*
X98811429Y-86031429D01*
X98525714Y-86102858D01*
X98382857Y-86174286D01*
X98240000Y-86317144D01*
X98168571Y-86531429D01*
X98168571Y-86674286D01*
X98240000Y-86888572D01*
X98311429Y-86960001D01*
X99097143Y-87602858D02*
X99097143Y-88745715D01*
X98882857Y-89960001D02*
X98954286Y-90174287D01*
X99025714Y-90245715D01*
X99168571Y-90317144D01*
X99382857Y-90317144D01*
X99525714Y-90245715D01*
X99597143Y-90174287D01*
X99668571Y-90031429D01*
X99668571Y-89460001D01*
X98168571Y-89460001D01*
X98168571Y-89960001D01*
X98240000Y-90102858D01*
X98311429Y-90174287D01*
X98454286Y-90245715D01*
X98597143Y-90245715D01*
X98740000Y-90174287D01*
X98811429Y-90102858D01*
X98882857Y-89960001D01*
X98882857Y-89460001D01*
X98954286Y-91245715D02*
X99668571Y-91245715D01*
X98168571Y-90745715D02*
X98954286Y-91245715D01*
X98168571Y-91745715D01*
X99097143Y-92245715D02*
X99097143Y-93388572D01*
X99597143Y-94031429D02*
X99668571Y-94245715D01*
X99668571Y-94602858D01*
X99597143Y-94745715D01*
X99525714Y-94817144D01*
X99382857Y-94888572D01*
X99240000Y-94888572D01*
X99097143Y-94817144D01*
X99025714Y-94745715D01*
X98954286Y-94602858D01*
X98882857Y-94317144D01*
X98811429Y-94174286D01*
X98740000Y-94102858D01*
X98597143Y-94031429D01*
X98454286Y-94031429D01*
X98311429Y-94102858D01*
X98240000Y-94174286D01*
X98168571Y-94317144D01*
X98168571Y-94674286D01*
X98240000Y-94888572D01*
X99240000Y-95460000D02*
X99240000Y-96174286D01*
X99668571Y-95317143D02*
X98168571Y-95817143D01*
X99668571Y-96317143D01*
X98168571Y-97817143D02*
X98168571Y-98745714D01*
X98740000Y-98245714D01*
X98740000Y-98460000D01*
X98811429Y-98602857D01*
X98882857Y-98674286D01*
X99025714Y-98745714D01*
X99382857Y-98745714D01*
X99525714Y-98674286D01*
X99597143Y-98602857D01*
X99668571Y-98460000D01*
X99668571Y-98031428D01*
X99597143Y-97888571D01*
X99525714Y-97817143D01*
X99525714Y-99388571D02*
X99597143Y-99459999D01*
X99668571Y-99388571D01*
X99597143Y-99317142D01*
X99525714Y-99388571D01*
X99668571Y-99388571D01*
X98168571Y-100388571D02*
X98168571Y-100531428D01*
X98240000Y-100674285D01*
X98311429Y-100745714D01*
X98454286Y-100817143D01*
X98740000Y-100888571D01*
X99097143Y-100888571D01*
X99382857Y-100817143D01*
X99525714Y-100745714D01*
X99597143Y-100674285D01*
X99668571Y-100531428D01*
X99668571Y-100388571D01*
X99597143Y-100245714D01*
X99525714Y-100174285D01*
X99382857Y-100102857D01*
X99097143Y-100031428D01*
X98740000Y-100031428D01*
X98454286Y-100102857D01*
X98311429Y-100174285D01*
X98240000Y-100245714D01*
X98168571Y-100388571D01*
D10*
G36*
X93636325Y-109166348D02*
X93686355Y-109869765D01*
X93876227Y-110542783D01*
X94198061Y-111162944D01*
X94643978Y-111707791D01*
X95206099Y-112154865D01*
X95605916Y-112371454D01*
X95753143Y-112434145D01*
X95910817Y-112488857D01*
X96091353Y-112536263D01*
X96307166Y-112577039D01*
X96570669Y-112611858D01*
X96894279Y-112641395D01*
X97290410Y-112666325D01*
X97771476Y-112687321D01*
X98349892Y-112705058D01*
X99038073Y-112720211D01*
X99848433Y-112733453D01*
X100793388Y-112745460D01*
X101885352Y-112756906D01*
X102870661Y-112766090D01*
X103969147Y-112775345D01*
X104912230Y-112781755D01*
X105713819Y-112785132D01*
X106387823Y-112785289D01*
X106948151Y-112782037D01*
X107408712Y-112775191D01*
X107783415Y-112764562D01*
X108086169Y-112749963D01*
X108330884Y-112731208D01*
X108531469Y-112708108D01*
X108659581Y-112688121D01*
X109369565Y-112523408D01*
X109952926Y-112291920D01*
X110444950Y-111976476D01*
X110804249Y-111643920D01*
X110888235Y-111540062D01*
X111017883Y-111357733D01*
X111195931Y-111092488D01*
X111425116Y-110739880D01*
X111708177Y-110295463D01*
X112047851Y-109754792D01*
X112446876Y-109113420D01*
X112907991Y-108366902D01*
X113433932Y-107510792D01*
X114027439Y-106540644D01*
X114691249Y-105452011D01*
X115428099Y-104240448D01*
X116240729Y-102901509D01*
X117131875Y-101430748D01*
X118104276Y-99823719D01*
X119160669Y-98075976D01*
X119210667Y-97993217D01*
X120038278Y-96624084D01*
X120842451Y-95295288D01*
X121618825Y-94013964D01*
X122363042Y-92787248D01*
X123070743Y-91622275D01*
X123737567Y-90526180D01*
X124359156Y-89506100D01*
X124931151Y-88569169D01*
X125449192Y-87722524D01*
X125908920Y-86973299D01*
X126305975Y-86328631D01*
X126635999Y-85795654D01*
X126894632Y-85381505D01*
X127077514Y-85093318D01*
X127180287Y-84938229D01*
X127202166Y-84912360D01*
X128219357Y-87792593D01*
X129181601Y-90516922D01*
X130090246Y-93089143D01*
X130946638Y-95513053D01*
X131752126Y-97792449D01*
X132508056Y-99931129D01*
X133215776Y-101932889D01*
X133876633Y-103801528D01*
X134491974Y-105540841D01*
X135063148Y-107154626D01*
X135591500Y-108646680D01*
X136078379Y-110020801D01*
X136525132Y-111280785D01*
X136933105Y-112430429D01*
X137303647Y-113473531D01*
X137638104Y-114413888D01*
X137937825Y-115255296D01*
X138204156Y-116001554D01*
X138438444Y-116656457D01*
X138642037Y-117223804D01*
X138816283Y-117707391D01*
X138962528Y-118111016D01*
X139082120Y-118438475D01*
X139176406Y-118693566D01*
X139246733Y-118880086D01*
X139294449Y-119001832D01*
X139315683Y-119051779D01*
X139695340Y-119686639D01*
X140193826Y-120225788D01*
X140786063Y-120655951D01*
X141446976Y-120963849D01*
X142151487Y-121136206D01*
X142874519Y-121159745D01*
X143213667Y-121115612D01*
X143972792Y-120894701D01*
X144646414Y-120538958D01*
X145221894Y-120065781D01*
X145686592Y-119492568D01*
X146027869Y-118836715D01*
X146233084Y-118115621D01*
X146289598Y-117346684D01*
X146255380Y-116928955D01*
X146221924Y-116809674D01*
X146134585Y-116539085D01*
X145996268Y-116125411D01*
X145809875Y-115576870D01*
X145578308Y-114901685D01*
X145304469Y-114108077D01*
X144991263Y-113204267D01*
X144641591Y-112198475D01*
X144258356Y-111098923D01*
X143844461Y-109913832D01*
X143402808Y-108651422D01*
X142936300Y-107319915D01*
X142447839Y-105927532D01*
X141940329Y-104482494D01*
X141416672Y-102993022D01*
X140879770Y-101467336D01*
X140332526Y-99913658D01*
X139777844Y-98340209D01*
X139218625Y-96755210D01*
X138657771Y-95166882D01*
X138098187Y-93583446D01*
X137542774Y-92013123D01*
X136994436Y-90464134D01*
X136456074Y-88944700D01*
X135930591Y-87463041D01*
X135420891Y-86027380D01*
X134929875Y-84645937D01*
X134460446Y-83326933D01*
X134015508Y-82078589D01*
X133597962Y-80909127D01*
X133210712Y-79826766D01*
X132856659Y-78839729D01*
X132538707Y-77956235D01*
X132259758Y-77184507D01*
X132022716Y-76532766D01*
X131830481Y-76009231D01*
X131685958Y-75622125D01*
X131592049Y-75379668D01*
X131555935Y-75296497D01*
X131323234Y-74953782D01*
X130989861Y-74570339D01*
X130598533Y-74186511D01*
X130191969Y-73842645D01*
X129812886Y-73579085D01*
X129639625Y-73486624D01*
X128913771Y-73239443D01*
X128180023Y-73149465D01*
X127460173Y-73212507D01*
X126776008Y-73424390D01*
X126149319Y-73780932D01*
X125619711Y-74257968D01*
X125529495Y-74382418D01*
X125354654Y-74648323D01*
X125097536Y-75051847D01*
X124760488Y-75589154D01*
X124345857Y-76256408D01*
X123855991Y-77049773D01*
X123293237Y-77965411D01*
X122659942Y-78999487D01*
X121958453Y-80148165D01*
X121191118Y-81407608D01*
X120360283Y-82773980D01*
X119468297Y-84243445D01*
X118517507Y-85812166D01*
X117510259Y-87476308D01*
X116448901Y-89232033D01*
X115781667Y-90336815D01*
X106341333Y-105973036D01*
X101499186Y-105916884D01*
X100425711Y-105904660D01*
X99507043Y-105895404D01*
X98728668Y-105890038D01*
X98076073Y-105889482D01*
X97534743Y-105894657D01*
X97090165Y-105906484D01*
X96727826Y-105925882D01*
X96433210Y-105953773D01*
X96191806Y-105991077D01*
X95989097Y-106038715D01*
X95810572Y-106097607D01*
X95641716Y-106168675D01*
X95468014Y-106252838D01*
X95363100Y-106306091D01*
X95011034Y-106541770D01*
X94639748Y-106881858D01*
X94297477Y-107275446D01*
X94032456Y-107671624D01*
X93987309Y-107758148D01*
X93734017Y-108454990D01*
X93636325Y-109166348D01*
X93636325Y-109166348D01*
X93636325Y-109166348D01*
G37*
X93636325Y-109166348D02*
X93686355Y-109869765D01*
X93876227Y-110542783D01*
X94198061Y-111162944D01*
X94643978Y-111707791D01*
X95206099Y-112154865D01*
X95605916Y-112371454D01*
X95753143Y-112434145D01*
X95910817Y-112488857D01*
X96091353Y-112536263D01*
X96307166Y-112577039D01*
X96570669Y-112611858D01*
X96894279Y-112641395D01*
X97290410Y-112666325D01*
X97771476Y-112687321D01*
X98349892Y-112705058D01*
X99038073Y-112720211D01*
X99848433Y-112733453D01*
X100793388Y-112745460D01*
X101885352Y-112756906D01*
X102870661Y-112766090D01*
X103969147Y-112775345D01*
X104912230Y-112781755D01*
X105713819Y-112785132D01*
X106387823Y-112785289D01*
X106948151Y-112782037D01*
X107408712Y-112775191D01*
X107783415Y-112764562D01*
X108086169Y-112749963D01*
X108330884Y-112731208D01*
X108531469Y-112708108D01*
X108659581Y-112688121D01*
X109369565Y-112523408D01*
X109952926Y-112291920D01*
X110444950Y-111976476D01*
X110804249Y-111643920D01*
X110888235Y-111540062D01*
X111017883Y-111357733D01*
X111195931Y-111092488D01*
X111425116Y-110739880D01*
X111708177Y-110295463D01*
X112047851Y-109754792D01*
X112446876Y-109113420D01*
X112907991Y-108366902D01*
X113433932Y-107510792D01*
X114027439Y-106540644D01*
X114691249Y-105452011D01*
X115428099Y-104240448D01*
X116240729Y-102901509D01*
X117131875Y-101430748D01*
X118104276Y-99823719D01*
X119160669Y-98075976D01*
X119210667Y-97993217D01*
X120038278Y-96624084D01*
X120842451Y-95295288D01*
X121618825Y-94013964D01*
X122363042Y-92787248D01*
X123070743Y-91622275D01*
X123737567Y-90526180D01*
X124359156Y-89506100D01*
X124931151Y-88569169D01*
X125449192Y-87722524D01*
X125908920Y-86973299D01*
X126305975Y-86328631D01*
X126635999Y-85795654D01*
X126894632Y-85381505D01*
X127077514Y-85093318D01*
X127180287Y-84938229D01*
X127202166Y-84912360D01*
X128219357Y-87792593D01*
X129181601Y-90516922D01*
X130090246Y-93089143D01*
X130946638Y-95513053D01*
X131752126Y-97792449D01*
X132508056Y-99931129D01*
X133215776Y-101932889D01*
X133876633Y-103801528D01*
X134491974Y-105540841D01*
X135063148Y-107154626D01*
X135591500Y-108646680D01*
X136078379Y-110020801D01*
X136525132Y-111280785D01*
X136933105Y-112430429D01*
X137303647Y-113473531D01*
X137638104Y-114413888D01*
X137937825Y-115255296D01*
X138204156Y-116001554D01*
X138438444Y-116656457D01*
X138642037Y-117223804D01*
X138816283Y-117707391D01*
X138962528Y-118111016D01*
X139082120Y-118438475D01*
X139176406Y-118693566D01*
X139246733Y-118880086D01*
X139294449Y-119001832D01*
X139315683Y-119051779D01*
X139695340Y-119686639D01*
X140193826Y-120225788D01*
X140786063Y-120655951D01*
X141446976Y-120963849D01*
X142151487Y-121136206D01*
X142874519Y-121159745D01*
X143213667Y-121115612D01*
X143972792Y-120894701D01*
X144646414Y-120538958D01*
X145221894Y-120065781D01*
X145686592Y-119492568D01*
X146027869Y-118836715D01*
X146233084Y-118115621D01*
X146289598Y-117346684D01*
X146255380Y-116928955D01*
X146221924Y-116809674D01*
X146134585Y-116539085D01*
X145996268Y-116125411D01*
X145809875Y-115576870D01*
X145578308Y-114901685D01*
X145304469Y-114108077D01*
X144991263Y-113204267D01*
X144641591Y-112198475D01*
X144258356Y-111098923D01*
X143844461Y-109913832D01*
X143402808Y-108651422D01*
X142936300Y-107319915D01*
X142447839Y-105927532D01*
X141940329Y-104482494D01*
X141416672Y-102993022D01*
X140879770Y-101467336D01*
X140332526Y-99913658D01*
X139777844Y-98340209D01*
X139218625Y-96755210D01*
X138657771Y-95166882D01*
X138098187Y-93583446D01*
X137542774Y-92013123D01*
X136994436Y-90464134D01*
X136456074Y-88944700D01*
X135930591Y-87463041D01*
X135420891Y-86027380D01*
X134929875Y-84645937D01*
X134460446Y-83326933D01*
X134015508Y-82078589D01*
X133597962Y-80909127D01*
X133210712Y-79826766D01*
X132856659Y-78839729D01*
X132538707Y-77956235D01*
X132259758Y-77184507D01*
X132022716Y-76532766D01*
X131830481Y-76009231D01*
X131685958Y-75622125D01*
X131592049Y-75379668D01*
X131555935Y-75296497D01*
X131323234Y-74953782D01*
X130989861Y-74570339D01*
X130598533Y-74186511D01*
X130191969Y-73842645D01*
X129812886Y-73579085D01*
X129639625Y-73486624D01*
X128913771Y-73239443D01*
X128180023Y-73149465D01*
X127460173Y-73212507D01*
X126776008Y-73424390D01*
X126149319Y-73780932D01*
X125619711Y-74257968D01*
X125529495Y-74382418D01*
X125354654Y-74648323D01*
X125097536Y-75051847D01*
X124760488Y-75589154D01*
X124345857Y-76256408D01*
X123855991Y-77049773D01*
X123293237Y-77965411D01*
X122659942Y-78999487D01*
X121958453Y-80148165D01*
X121191118Y-81407608D01*
X120360283Y-82773980D01*
X119468297Y-84243445D01*
X118517507Y-85812166D01*
X117510259Y-87476308D01*
X116448901Y-89232033D01*
X115781667Y-90336815D01*
X106341333Y-105973036D01*
X101499186Y-105916884D01*
X100425711Y-105904660D01*
X99507043Y-105895404D01*
X98728668Y-105890038D01*
X98076073Y-105889482D01*
X97534743Y-105894657D01*
X97090165Y-105906484D01*
X96727826Y-105925882D01*
X96433210Y-105953773D01*
X96191806Y-105991077D01*
X95989097Y-106038715D01*
X95810572Y-106097607D01*
X95641716Y-106168675D01*
X95468014Y-106252838D01*
X95363100Y-106306091D01*
X95011034Y-106541770D01*
X94639748Y-106881858D01*
X94297477Y-107275446D01*
X94032456Y-107671624D01*
X93987309Y-107758148D01*
X93734017Y-108454990D01*
X93636325Y-109166348D01*
X93636325Y-109166348D01*
G36*
X100552018Y-100500174D02*
X100607442Y-100884863D01*
X100732167Y-101132953D01*
X100887425Y-101291567D01*
X101184271Y-101519807D01*
X101625434Y-101819570D01*
X102213641Y-102192752D01*
X102573667Y-102413500D01*
X103053424Y-102701684D01*
X103489790Y-102957669D01*
X103860465Y-103168869D01*
X104143152Y-103322699D01*
X104315554Y-103406572D01*
X104353995Y-103418360D01*
X104518067Y-103373669D01*
X104671495Y-103288532D01*
X104821231Y-103093650D01*
X104854469Y-102846105D01*
X104767300Y-102617251D01*
X104711500Y-102558039D01*
X104596238Y-102477124D01*
X104360002Y-102324288D01*
X104027018Y-102114741D01*
X103621509Y-101863693D01*
X103167698Y-101586353D01*
X103056734Y-101519050D01*
X102608121Y-101242359D01*
X102215606Y-100990683D01*
X101900098Y-100778228D01*
X101682512Y-100619204D01*
X101583759Y-100527820D01*
X101580359Y-100515925D01*
X101673036Y-100435327D01*
X101869395Y-100341514D01*
X101956232Y-100310034D01*
X102301881Y-100194817D01*
X103750469Y-101012330D01*
X104307480Y-101322016D01*
X104739294Y-101547790D01*
X105064925Y-101694485D01*
X105303390Y-101766937D01*
X105473705Y-101769979D01*
X105594884Y-101708448D01*
X105685945Y-101587177D01*
X105722474Y-101513720D01*
X105770710Y-101373900D01*
X105769521Y-101244175D01*
X105704078Y-101111381D01*
X105559552Y-100962352D01*
X105321116Y-100783924D01*
X104973941Y-100562929D01*
X104503198Y-100286204D01*
X104048852Y-100027801D01*
X103579220Y-99757903D01*
X103163957Y-99509954D01*
X102824448Y-99297492D01*
X102582077Y-99134057D01*
X102458230Y-99033187D01*
X102446667Y-99013438D01*
X102518574Y-98920547D01*
X102702070Y-98805420D01*
X102838881Y-98742319D01*
X103231095Y-98581359D01*
X104574548Y-99335515D01*
X105014068Y-99580683D01*
X105410126Y-99798681D01*
X105736086Y-99975080D01*
X105965312Y-100095452D01*
X106066902Y-100143960D01*
X106316391Y-100159660D01*
X106528741Y-100047998D01*
X106668039Y-99850942D01*
X106698371Y-99610461D01*
X106649509Y-99463127D01*
X106549665Y-99372650D01*
X106324004Y-99217899D01*
X105997008Y-99012601D01*
X105593161Y-98770482D01*
X105136945Y-98505266D01*
X104652842Y-98230679D01*
X104165335Y-97960448D01*
X103698907Y-97708297D01*
X103278041Y-97487953D01*
X102927219Y-97313140D01*
X102670923Y-97197585D01*
X102533637Y-97155013D01*
X102532452Y-97155000D01*
X102317580Y-97229777D01*
X102158278Y-97415924D01*
X102094866Y-97656167D01*
X102106635Y-97759868D01*
X102108504Y-97918206D01*
X101997200Y-98042652D01*
X101895313Y-98105581D01*
X101648395Y-98330254D01*
X101474970Y-98652407D01*
X101405539Y-99005735D01*
X101415067Y-99149605D01*
X101425360Y-99335632D01*
X101351491Y-99451526D01*
X101168785Y-99554707D01*
X100844101Y-99793847D01*
X100634708Y-100122752D01*
X100552018Y-100500174D01*
X100552018Y-100500174D01*
X100552018Y-100500174D01*
G37*
X100552018Y-100500174D02*
X100607442Y-100884863D01*
X100732167Y-101132953D01*
X100887425Y-101291567D01*
X101184271Y-101519807D01*
X101625434Y-101819570D01*
X102213641Y-102192752D01*
X102573667Y-102413500D01*
X103053424Y-102701684D01*
X103489790Y-102957669D01*
X103860465Y-103168869D01*
X104143152Y-103322699D01*
X104315554Y-103406572D01*
X104353995Y-103418360D01*
X104518067Y-103373669D01*
X104671495Y-103288532D01*
X104821231Y-103093650D01*
X104854469Y-102846105D01*
X104767300Y-102617251D01*
X104711500Y-102558039D01*
X104596238Y-102477124D01*
X104360002Y-102324288D01*
X104027018Y-102114741D01*
X103621509Y-101863693D01*
X103167698Y-101586353D01*
X103056734Y-101519050D01*
X102608121Y-101242359D01*
X102215606Y-100990683D01*
X101900098Y-100778228D01*
X101682512Y-100619204D01*
X101583759Y-100527820D01*
X101580359Y-100515925D01*
X101673036Y-100435327D01*
X101869395Y-100341514D01*
X101956232Y-100310034D01*
X102301881Y-100194817D01*
X103750469Y-101012330D01*
X104307480Y-101322016D01*
X104739294Y-101547790D01*
X105064925Y-101694485D01*
X105303390Y-101766937D01*
X105473705Y-101769979D01*
X105594884Y-101708448D01*
X105685945Y-101587177D01*
X105722474Y-101513720D01*
X105770710Y-101373900D01*
X105769521Y-101244175D01*
X105704078Y-101111381D01*
X105559552Y-100962352D01*
X105321116Y-100783924D01*
X104973941Y-100562929D01*
X104503198Y-100286204D01*
X104048852Y-100027801D01*
X103579220Y-99757903D01*
X103163957Y-99509954D01*
X102824448Y-99297492D01*
X102582077Y-99134057D01*
X102458230Y-99033187D01*
X102446667Y-99013438D01*
X102518574Y-98920547D01*
X102702070Y-98805420D01*
X102838881Y-98742319D01*
X103231095Y-98581359D01*
X104574548Y-99335515D01*
X105014068Y-99580683D01*
X105410126Y-99798681D01*
X105736086Y-99975080D01*
X105965312Y-100095452D01*
X106066902Y-100143960D01*
X106316391Y-100159660D01*
X106528741Y-100047998D01*
X106668039Y-99850942D01*
X106698371Y-99610461D01*
X106649509Y-99463127D01*
X106549665Y-99372650D01*
X106324004Y-99217899D01*
X105997008Y-99012601D01*
X105593161Y-98770482D01*
X105136945Y-98505266D01*
X104652842Y-98230679D01*
X104165335Y-97960448D01*
X103698907Y-97708297D01*
X103278041Y-97487953D01*
X102927219Y-97313140D01*
X102670923Y-97197585D01*
X102533637Y-97155013D01*
X102532452Y-97155000D01*
X102317580Y-97229777D01*
X102158278Y-97415924D01*
X102094866Y-97656167D01*
X102106635Y-97759868D01*
X102108504Y-97918206D01*
X101997200Y-98042652D01*
X101895313Y-98105581D01*
X101648395Y-98330254D01*
X101474970Y-98652407D01*
X101405539Y-99005735D01*
X101415067Y-99149605D01*
X101425360Y-99335632D01*
X101351491Y-99451526D01*
X101168785Y-99554707D01*
X100844101Y-99793847D01*
X100634708Y-100122752D01*
X100552018Y-100500174D01*
X100552018Y-100500174D01*
G36*
X103919913Y-94761863D02*
X103998277Y-95207617D01*
X104208354Y-95592398D01*
X104541393Y-95885457D01*
X104842542Y-96016275D01*
X105128735Y-96050951D01*
X105353866Y-95989226D01*
X105449355Y-95890566D01*
X105531013Y-95636907D01*
X105472251Y-95409285D01*
X105262659Y-95175870D01*
X105198333Y-95123000D01*
X105003895Y-94949072D01*
X104881412Y-94801184D01*
X104859667Y-94745549D01*
X104898692Y-94612888D01*
X104998280Y-94395220D01*
X105072562Y-94255416D01*
X105174601Y-94085003D01*
X105280114Y-93959735D01*
X105424274Y-93857265D01*
X105642256Y-93755244D01*
X105969232Y-93631322D01*
X106165550Y-93560945D01*
X107045642Y-93247384D01*
X108036450Y-93809885D01*
X108512027Y-94077725D01*
X108866163Y-94269582D01*
X109123390Y-94395292D01*
X109308243Y-94464689D01*
X109445257Y-94487609D01*
X109558964Y-94473886D01*
X109632605Y-94449745D01*
X109811303Y-94301951D01*
X109903773Y-94070141D01*
X109883904Y-93828599D01*
X109865288Y-93787763D01*
X109767009Y-93699995D01*
X109543003Y-93547614D01*
X109217681Y-93344313D01*
X108815457Y-93103784D01*
X108360742Y-92839719D01*
X107877950Y-92565812D01*
X107391491Y-92295755D01*
X106925779Y-92043241D01*
X106505226Y-91821961D01*
X106154243Y-91645610D01*
X105897245Y-91527879D01*
X105758643Y-91482461D01*
X105754979Y-91482333D01*
X105543274Y-91556572D01*
X105368330Y-91739386D01*
X105284400Y-91970924D01*
X105283000Y-92003008D01*
X105344436Y-92141330D01*
X105499154Y-92320070D01*
X105579719Y-92391919D01*
X105876437Y-92636500D01*
X105412551Y-92782727D01*
X104928199Y-92991239D01*
X104545818Y-93293678D01*
X104223034Y-93725004D01*
X104178150Y-93801215D01*
X103978218Y-94283581D01*
X103919913Y-94761863D01*
X103919913Y-94761863D01*
X103919913Y-94761863D01*
G37*
X103919913Y-94761863D02*
X103998277Y-95207617D01*
X104208354Y-95592398D01*
X104541393Y-95885457D01*
X104842542Y-96016275D01*
X105128735Y-96050951D01*
X105353866Y-95989226D01*
X105449355Y-95890566D01*
X105531013Y-95636907D01*
X105472251Y-95409285D01*
X105262659Y-95175870D01*
X105198333Y-95123000D01*
X105003895Y-94949072D01*
X104881412Y-94801184D01*
X104859667Y-94745549D01*
X104898692Y-94612888D01*
X104998280Y-94395220D01*
X105072562Y-94255416D01*
X105174601Y-94085003D01*
X105280114Y-93959735D01*
X105424274Y-93857265D01*
X105642256Y-93755244D01*
X105969232Y-93631322D01*
X106165550Y-93560945D01*
X107045642Y-93247384D01*
X108036450Y-93809885D01*
X108512027Y-94077725D01*
X108866163Y-94269582D01*
X109123390Y-94395292D01*
X109308243Y-94464689D01*
X109445257Y-94487609D01*
X109558964Y-94473886D01*
X109632605Y-94449745D01*
X109811303Y-94301951D01*
X109903773Y-94070141D01*
X109883904Y-93828599D01*
X109865288Y-93787763D01*
X109767009Y-93699995D01*
X109543003Y-93547614D01*
X109217681Y-93344313D01*
X108815457Y-93103784D01*
X108360742Y-92839719D01*
X107877950Y-92565812D01*
X107391491Y-92295755D01*
X106925779Y-92043241D01*
X106505226Y-91821961D01*
X106154243Y-91645610D01*
X105897245Y-91527879D01*
X105758643Y-91482461D01*
X105754979Y-91482333D01*
X105543274Y-91556572D01*
X105368330Y-91739386D01*
X105284400Y-91970924D01*
X105283000Y-92003008D01*
X105344436Y-92141330D01*
X105499154Y-92320070D01*
X105579719Y-92391919D01*
X105876437Y-92636500D01*
X105412551Y-92782727D01*
X104928199Y-92991239D01*
X104545818Y-93293678D01*
X104223034Y-93725004D01*
X104178150Y-93801215D01*
X103978218Y-94283581D01*
X103919913Y-94761863D01*
X103919913Y-94761863D01*
G36*
X106074963Y-86734069D02*
X106080290Y-86939386D01*
X106149130Y-87038891D01*
X106324085Y-87244318D01*
X106591938Y-87541450D01*
X106939470Y-87916072D01*
X107353463Y-88353966D01*
X107820698Y-88840916D01*
X108271229Y-89304352D01*
X108271229Y-87791075D01*
X108272128Y-87787650D01*
X108360033Y-87793526D01*
X108573971Y-87829507D01*
X108875038Y-87887362D01*
X109224330Y-87958858D01*
X109582945Y-88035762D01*
X109911977Y-88109842D01*
X110172525Y-88172865D01*
X110325683Y-88216600D01*
X110348355Y-88227004D01*
X110322667Y-88305476D01*
X110229652Y-88492851D01*
X110087943Y-88752141D01*
X110052022Y-88815266D01*
X109728000Y-89380711D01*
X108981550Y-88602694D01*
X108703899Y-88307733D01*
X108479024Y-88058131D01*
X108327833Y-87877906D01*
X108271229Y-87791075D01*
X108271229Y-89304352D01*
X108327958Y-89362707D01*
X108436990Y-89474012D01*
X109046094Y-90093986D01*
X109549222Y-90601779D01*
X109958491Y-91006571D01*
X110286017Y-91317541D01*
X110543915Y-91543868D01*
X110744302Y-91694732D01*
X110899293Y-91779311D01*
X111021005Y-91806784D01*
X111121553Y-91786332D01*
X111213054Y-91727133D01*
X111301671Y-91644329D01*
X111421638Y-91455284D01*
X111415771Y-91237905D01*
X111277789Y-90974453D01*
X111001412Y-90647192D01*
X110918349Y-90561777D01*
X110467380Y-90106887D01*
X110887571Y-89376443D01*
X111073776Y-89057807D01*
X111234135Y-88792655D01*
X111346641Y-88616894D01*
X111382538Y-88568742D01*
X111503266Y-88546041D01*
X111754663Y-88568688D01*
X112105073Y-88633820D01*
X112107224Y-88634292D01*
X112442416Y-88703710D01*
X112659070Y-88732346D01*
X112802839Y-88720835D01*
X112919376Y-88669811D01*
X112957067Y-88646097D01*
X113115504Y-88453588D01*
X113154263Y-88206074D01*
X113068499Y-87972695D01*
X113008833Y-87907728D01*
X112891847Y-87857626D01*
X112632083Y-87777541D01*
X112251762Y-87672655D01*
X111773104Y-87548147D01*
X111218330Y-87409198D01*
X110609659Y-87260988D01*
X109969312Y-87108699D01*
X109319508Y-86957510D01*
X108682469Y-86812602D01*
X108080413Y-86679155D01*
X107535562Y-86562351D01*
X107070134Y-86467369D01*
X106706351Y-86399390D01*
X106466433Y-86363595D01*
X106378020Y-86361792D01*
X106181420Y-86503111D01*
X106074963Y-86734069D01*
X106074963Y-86734069D01*
X106074963Y-86734069D01*
G37*
X106074963Y-86734069D02*
X106080290Y-86939386D01*
X106149130Y-87038891D01*
X106324085Y-87244318D01*
X106591938Y-87541450D01*
X106939470Y-87916072D01*
X107353463Y-88353966D01*
X107820698Y-88840916D01*
X108271229Y-89304352D01*
X108271229Y-87791075D01*
X108272128Y-87787650D01*
X108360033Y-87793526D01*
X108573971Y-87829507D01*
X108875038Y-87887362D01*
X109224330Y-87958858D01*
X109582945Y-88035762D01*
X109911977Y-88109842D01*
X110172525Y-88172865D01*
X110325683Y-88216600D01*
X110348355Y-88227004D01*
X110322667Y-88305476D01*
X110229652Y-88492851D01*
X110087943Y-88752141D01*
X110052022Y-88815266D01*
X109728000Y-89380711D01*
X108981550Y-88602694D01*
X108703899Y-88307733D01*
X108479024Y-88058131D01*
X108327833Y-87877906D01*
X108271229Y-87791075D01*
X108271229Y-89304352D01*
X108327958Y-89362707D01*
X108436990Y-89474012D01*
X109046094Y-90093986D01*
X109549222Y-90601779D01*
X109958491Y-91006571D01*
X110286017Y-91317541D01*
X110543915Y-91543868D01*
X110744302Y-91694732D01*
X110899293Y-91779311D01*
X111021005Y-91806784D01*
X111121553Y-91786332D01*
X111213054Y-91727133D01*
X111301671Y-91644329D01*
X111421638Y-91455284D01*
X111415771Y-91237905D01*
X111277789Y-90974453D01*
X111001412Y-90647192D01*
X110918349Y-90561777D01*
X110467380Y-90106887D01*
X110887571Y-89376443D01*
X111073776Y-89057807D01*
X111234135Y-88792655D01*
X111346641Y-88616894D01*
X111382538Y-88568742D01*
X111503266Y-88546041D01*
X111754663Y-88568688D01*
X112105073Y-88633820D01*
X112107224Y-88634292D01*
X112442416Y-88703710D01*
X112659070Y-88732346D01*
X112802839Y-88720835D01*
X112919376Y-88669811D01*
X112957067Y-88646097D01*
X113115504Y-88453588D01*
X113154263Y-88206074D01*
X113068499Y-87972695D01*
X113008833Y-87907728D01*
X112891847Y-87857626D01*
X112632083Y-87777541D01*
X112251762Y-87672655D01*
X111773104Y-87548147D01*
X111218330Y-87409198D01*
X110609659Y-87260988D01*
X109969312Y-87108699D01*
X109319508Y-86957510D01*
X108682469Y-86812602D01*
X108080413Y-86679155D01*
X107535562Y-86562351D01*
X107070134Y-86467369D01*
X106706351Y-86399390D01*
X106466433Y-86363595D01*
X106378020Y-86361792D01*
X106181420Y-86503111D01*
X106074963Y-86734069D01*
X106074963Y-86734069D01*
G36*
X110623171Y-82807370D02*
X110640392Y-83079435D01*
X110643078Y-83111666D01*
X110710874Y-83585656D01*
X110841693Y-83954150D01*
X111062597Y-84258178D01*
X111400649Y-84538771D01*
X111627776Y-84683615D01*
X111627776Y-83017210D01*
X111635265Y-82777938D01*
X111710285Y-82545092D01*
X111865984Y-82248151D01*
X111882322Y-82219510D01*
X112080212Y-81911332D01*
X112272751Y-81712682D01*
X112510069Y-81573100D01*
X112536261Y-81561302D01*
X112838281Y-81456260D01*
X113074413Y-81461778D01*
X113312358Y-81584360D01*
X113392446Y-81643567D01*
X113585558Y-81792669D01*
X112980318Y-82866473D01*
X112375078Y-83940278D01*
X112050258Y-83774567D01*
X111814612Y-83618208D01*
X111698268Y-83429024D01*
X111674672Y-83333428D01*
X111627776Y-83017210D01*
X111627776Y-84683615D01*
X111717771Y-84741008D01*
X112138686Y-84971988D01*
X112454722Y-85095905D01*
X112688347Y-85117306D01*
X112862031Y-85040739D01*
X112919353Y-84984167D01*
X113003056Y-84861387D01*
X113150934Y-84619321D01*
X113345749Y-84287158D01*
X113570265Y-83894091D01*
X113706766Y-83650667D01*
X113936947Y-83240001D01*
X114143117Y-82877091D01*
X114309204Y-82589851D01*
X114419135Y-82406196D01*
X114451431Y-82357364D01*
X114566367Y-82306169D01*
X114692839Y-82391446D01*
X114806518Y-82584175D01*
X114883077Y-82855337D01*
X114886371Y-82876193D01*
X114901764Y-83028846D01*
X114890133Y-83174370D01*
X114839656Y-83343566D01*
X114738514Y-83567234D01*
X114574887Y-83876174D01*
X114344883Y-84287167D01*
X114056615Y-84819033D01*
X113864538Y-85230832D01*
X113764480Y-85538886D01*
X113752273Y-85759517D01*
X113823748Y-85909047D01*
X113913434Y-85976021D01*
X114191161Y-86058819D01*
X114432828Y-85981064D01*
X114620872Y-85788500D01*
X114739659Y-85608885D01*
X114916098Y-85319499D01*
X115126962Y-84959342D01*
X115349027Y-84567415D01*
X115362991Y-84542319D01*
X115628172Y-84040373D01*
X115802129Y-83635755D01*
X115892700Y-83288457D01*
X115907720Y-82958472D01*
X115855027Y-82605793D01*
X115791224Y-82356184D01*
X115690550Y-82088843D01*
X115536553Y-81852250D01*
X115305706Y-81624830D01*
X114974480Y-81385009D01*
X114519346Y-81111212D01*
X114300000Y-80988817D01*
X113787756Y-80723773D01*
X113373865Y-80554890D01*
X113022000Y-80475688D01*
X112695832Y-80479691D01*
X112359032Y-80560419D01*
X112206214Y-80615435D01*
X111834037Y-80788437D01*
X111538581Y-81004989D01*
X111281934Y-81302186D01*
X111026184Y-81717125D01*
X110965418Y-81829507D01*
X110791435Y-82163821D01*
X110685317Y-82402767D01*
X110633687Y-82599548D01*
X110623171Y-82807370D01*
X110623171Y-82807370D01*
X110623171Y-82807370D01*
G37*
X110623171Y-82807370D02*
X110640392Y-83079435D01*
X110643078Y-83111666D01*
X110710874Y-83585656D01*
X110841693Y-83954150D01*
X111062597Y-84258178D01*
X111400649Y-84538771D01*
X111627776Y-84683615D01*
X111627776Y-83017210D01*
X111635265Y-82777938D01*
X111710285Y-82545092D01*
X111865984Y-82248151D01*
X111882322Y-82219510D01*
X112080212Y-81911332D01*
X112272751Y-81712682D01*
X112510069Y-81573100D01*
X112536261Y-81561302D01*
X112838281Y-81456260D01*
X113074413Y-81461778D01*
X113312358Y-81584360D01*
X113392446Y-81643567D01*
X113585558Y-81792669D01*
X112980318Y-82866473D01*
X112375078Y-83940278D01*
X112050258Y-83774567D01*
X111814612Y-83618208D01*
X111698268Y-83429024D01*
X111674672Y-83333428D01*
X111627776Y-83017210D01*
X111627776Y-84683615D01*
X111717771Y-84741008D01*
X112138686Y-84971988D01*
X112454722Y-85095905D01*
X112688347Y-85117306D01*
X112862031Y-85040739D01*
X112919353Y-84984167D01*
X113003056Y-84861387D01*
X113150934Y-84619321D01*
X113345749Y-84287158D01*
X113570265Y-83894091D01*
X113706766Y-83650667D01*
X113936947Y-83240001D01*
X114143117Y-82877091D01*
X114309204Y-82589851D01*
X114419135Y-82406196D01*
X114451431Y-82357364D01*
X114566367Y-82306169D01*
X114692839Y-82391446D01*
X114806518Y-82584175D01*
X114883077Y-82855337D01*
X114886371Y-82876193D01*
X114901764Y-83028846D01*
X114890133Y-83174370D01*
X114839656Y-83343566D01*
X114738514Y-83567234D01*
X114574887Y-83876174D01*
X114344883Y-84287167D01*
X114056615Y-84819033D01*
X113864538Y-85230832D01*
X113764480Y-85538886D01*
X113752273Y-85759517D01*
X113823748Y-85909047D01*
X113913434Y-85976021D01*
X114191161Y-86058819D01*
X114432828Y-85981064D01*
X114620872Y-85788500D01*
X114739659Y-85608885D01*
X114916098Y-85319499D01*
X115126962Y-84959342D01*
X115349027Y-84567415D01*
X115362991Y-84542319D01*
X115628172Y-84040373D01*
X115802129Y-83635755D01*
X115892700Y-83288457D01*
X115907720Y-82958472D01*
X115855027Y-82605793D01*
X115791224Y-82356184D01*
X115690550Y-82088843D01*
X115536553Y-81852250D01*
X115305706Y-81624830D01*
X114974480Y-81385009D01*
X114519346Y-81111212D01*
X114300000Y-80988817D01*
X113787756Y-80723773D01*
X113373865Y-80554890D01*
X113022000Y-80475688D01*
X112695832Y-80479691D01*
X112359032Y-80560419D01*
X112206214Y-80615435D01*
X111834037Y-80788437D01*
X111538581Y-81004989D01*
X111281934Y-81302186D01*
X111026184Y-81717125D01*
X110965418Y-81829507D01*
X110791435Y-82163821D01*
X110685317Y-82402767D01*
X110633687Y-82599548D01*
X110623171Y-82807370D01*
X110623171Y-82807370D01*
G36*
X111565380Y-77049528D02*
X111565792Y-77050014D01*
X111664421Y-77116117D01*
X111891492Y-77251586D01*
X112226950Y-77445328D01*
X112650742Y-77686249D01*
X113142812Y-77963258D01*
X113683106Y-78265262D01*
X114251570Y-78581168D01*
X114828150Y-78899884D01*
X115392790Y-79210318D01*
X115925438Y-79501376D01*
X116406038Y-79761966D01*
X116814536Y-79980997D01*
X117130878Y-80147374D01*
X117335009Y-80250007D01*
X117402681Y-80278533D01*
X117643453Y-80260862D01*
X117804847Y-80145819D01*
X117917531Y-80018045D01*
X117978287Y-79897581D01*
X117975665Y-79774226D01*
X117898215Y-79637780D01*
X117734484Y-79478043D01*
X117473023Y-79284812D01*
X117102381Y-79047888D01*
X116611107Y-78757068D01*
X115987750Y-78402153D01*
X115609009Y-78189667D01*
X115055903Y-77878641D01*
X114553833Y-77593179D01*
X114121028Y-77343896D01*
X113775717Y-77141409D01*
X113536131Y-76996331D01*
X113420499Y-76919279D01*
X113412649Y-76910658D01*
X113487788Y-76868565D01*
X113683798Y-76833366D01*
X113952266Y-76807805D01*
X114244779Y-76794628D01*
X114512926Y-76796579D01*
X114708294Y-76816401D01*
X114763902Y-76834055D01*
X115027162Y-76905060D01*
X115258119Y-76850717D01*
X115433271Y-76706021D01*
X115529116Y-76505967D01*
X115522151Y-76285550D01*
X115388874Y-76079765D01*
X115310918Y-76019551D01*
X115205016Y-75906609D01*
X115064081Y-75701468D01*
X114911166Y-75446018D01*
X114769323Y-75182151D01*
X114661604Y-74951758D01*
X114611060Y-74796731D01*
X114616751Y-74758076D01*
X114693088Y-74793317D01*
X114897809Y-74901878D01*
X115212089Y-75073394D01*
X115617104Y-75297500D01*
X116094029Y-75563832D01*
X116624038Y-75862023D01*
X116713000Y-75912275D01*
X117382594Y-76290611D01*
X117920808Y-76593174D01*
X118343854Y-76827198D01*
X118667948Y-76999914D01*
X118909301Y-77118555D01*
X119084129Y-77190353D01*
X119208645Y-77222540D01*
X119299062Y-77222348D01*
X119371595Y-77197009D01*
X119442456Y-77153757D01*
X119464167Y-77139446D01*
X119631376Y-76943053D01*
X119675079Y-76694651D01*
X119589740Y-76458972D01*
X119528167Y-76391299D01*
X119431969Y-76328895D01*
X119208249Y-76194938D01*
X118877080Y-76000881D01*
X118458534Y-75758174D01*
X117972686Y-75478268D01*
X117439608Y-75172614D01*
X116879373Y-74852663D01*
X116312055Y-74529866D01*
X115757725Y-74215675D01*
X115236458Y-73921538D01*
X114768325Y-73658909D01*
X114373402Y-73439238D01*
X114071759Y-73273976D01*
X113944583Y-73206057D01*
X113839679Y-73166406D01*
X113750712Y-73193555D01*
X113647390Y-73313121D01*
X113499424Y-73550724D01*
X113462145Y-73614089D01*
X113165790Y-74119741D01*
X113547330Y-74936214D01*
X113699847Y-75273483D01*
X113815632Y-75550723D01*
X113881406Y-75734710D01*
X113889414Y-75792142D01*
X113793841Y-75816485D01*
X113566740Y-75851171D01*
X113245201Y-75891013D01*
X112971431Y-75920450D01*
X112092903Y-76009303D01*
X111813452Y-76513763D01*
X111678020Y-76770269D01*
X111589068Y-76962414D01*
X111565380Y-77049528D01*
X111565380Y-77049528D01*
X111565380Y-77049528D01*
G37*
X111565380Y-77049528D02*
X111565792Y-77050014D01*
X111664421Y-77116117D01*
X111891492Y-77251586D01*
X112226950Y-77445328D01*
X112650742Y-77686249D01*
X113142812Y-77963258D01*
X113683106Y-78265262D01*
X114251570Y-78581168D01*
X114828150Y-78899884D01*
X115392790Y-79210318D01*
X115925438Y-79501376D01*
X116406038Y-79761966D01*
X116814536Y-79980997D01*
X117130878Y-80147374D01*
X117335009Y-80250007D01*
X117402681Y-80278533D01*
X117643453Y-80260862D01*
X117804847Y-80145819D01*
X117917531Y-80018045D01*
X117978287Y-79897581D01*
X117975665Y-79774226D01*
X117898215Y-79637780D01*
X117734484Y-79478043D01*
X117473023Y-79284812D01*
X117102381Y-79047888D01*
X116611107Y-78757068D01*
X115987750Y-78402153D01*
X115609009Y-78189667D01*
X115055903Y-77878641D01*
X114553833Y-77593179D01*
X114121028Y-77343896D01*
X113775717Y-77141409D01*
X113536131Y-76996331D01*
X113420499Y-76919279D01*
X113412649Y-76910658D01*
X113487788Y-76868565D01*
X113683798Y-76833366D01*
X113952266Y-76807805D01*
X114244779Y-76794628D01*
X114512926Y-76796579D01*
X114708294Y-76816401D01*
X114763902Y-76834055D01*
X115027162Y-76905060D01*
X115258119Y-76850717D01*
X115433271Y-76706021D01*
X115529116Y-76505967D01*
X115522151Y-76285550D01*
X115388874Y-76079765D01*
X115310918Y-76019551D01*
X115205016Y-75906609D01*
X115064081Y-75701468D01*
X114911166Y-75446018D01*
X114769323Y-75182151D01*
X114661604Y-74951758D01*
X114611060Y-74796731D01*
X114616751Y-74758076D01*
X114693088Y-74793317D01*
X114897809Y-74901878D01*
X115212089Y-75073394D01*
X115617104Y-75297500D01*
X116094029Y-75563832D01*
X116624038Y-75862023D01*
X116713000Y-75912275D01*
X117382594Y-76290611D01*
X117920808Y-76593174D01*
X118343854Y-76827198D01*
X118667948Y-76999914D01*
X118909301Y-77118555D01*
X119084129Y-77190353D01*
X119208645Y-77222540D01*
X119299062Y-77222348D01*
X119371595Y-77197009D01*
X119442456Y-77153757D01*
X119464167Y-77139446D01*
X119631376Y-76943053D01*
X119675079Y-76694651D01*
X119589740Y-76458972D01*
X119528167Y-76391299D01*
X119431969Y-76328895D01*
X119208249Y-76194938D01*
X118877080Y-76000881D01*
X118458534Y-75758174D01*
X117972686Y-75478268D01*
X117439608Y-75172614D01*
X116879373Y-74852663D01*
X116312055Y-74529866D01*
X115757725Y-74215675D01*
X115236458Y-73921538D01*
X114768325Y-73658909D01*
X114373402Y-73439238D01*
X114071759Y-73273976D01*
X113944583Y-73206057D01*
X113839679Y-73166406D01*
X113750712Y-73193555D01*
X113647390Y-73313121D01*
X113499424Y-73550724D01*
X113462145Y-73614089D01*
X113165790Y-74119741D01*
X113547330Y-74936214D01*
X113699847Y-75273483D01*
X113815632Y-75550723D01*
X113881406Y-75734710D01*
X113889414Y-75792142D01*
X113793841Y-75816485D01*
X113566740Y-75851171D01*
X113245201Y-75891013D01*
X112971431Y-75920450D01*
X112092903Y-76009303D01*
X111813452Y-76513763D01*
X111678020Y-76770269D01*
X111589068Y-76962414D01*
X111565380Y-77049528D01*
X111565380Y-77049528D01*
%LPC*%
D12*
X114173000Y-125984000D03*
X116078000Y-125984000D03*
X117983000Y-125984000D03*
D13*
X104648000Y-114554000D03*
X107188000Y-114554000D03*
X109728000Y-114554000D03*
X112268000Y-114554000D03*
X114808000Y-114554000D03*
X117348000Y-114554000D03*
X119888000Y-114554000D03*
D14*
X122428000Y-114554000D03*
D15*
X177038000Y-85344000D03*
D16*
X174498000Y-85344000D03*
X171958000Y-85344000D03*
X169418000Y-85344000D03*
X166878000Y-85344000D03*
X164338000Y-85344000D03*
X161798000Y-85344000D03*
X159258000Y-85344000D03*
X156718000Y-85344000D03*
X154178000Y-85344000D03*
X151638000Y-85344000D03*
X149098000Y-85344000D03*
X149098000Y-100584000D03*
X151638000Y-100584000D03*
X154178000Y-100584000D03*
X156718000Y-100584000D03*
X159258000Y-100584000D03*
X161798000Y-100584000D03*
X164338000Y-100584000D03*
X166878000Y-100584000D03*
X169418000Y-100584000D03*
X171958000Y-100584000D03*
X174498000Y-100584000D03*
X177038000Y-100584000D03*
D17*
X130048000Y-125984000D03*
D18*
X130048000Y-123444000D03*
X132588000Y-125984000D03*
X132588000Y-123444000D03*
X135128000Y-125984000D03*
X135128000Y-123444000D03*
X137668000Y-125984000D03*
X137668000Y-123444000D03*
X140208000Y-125984000D03*
X140208000Y-123444000D03*
D19*
X97028000Y-124714000D03*
D20*
X97028000Y-118618000D03*
D19*
X102108000Y-122428000D03*
D21*
X148082000Y-75184000D03*
D22*
X148082000Y-77724000D03*
X148082000Y-80264000D03*
D21*
X158242000Y-75184000D03*
D22*
X158242000Y-77724000D03*
X158242000Y-80264000D03*
D21*
X168402000Y-75184000D03*
D22*
X168402000Y-77724000D03*
X168402000Y-80264000D03*
D21*
X137668000Y-75184000D03*
D22*
X137668000Y-77724000D03*
X137668000Y-80264000D03*
D23*
X171655000Y-126435000D03*
X171655000Y-124435000D03*
X171655000Y-122435000D03*
X171655000Y-120435000D03*
X171655000Y-118435000D03*
X171655000Y-116435000D03*
X171655000Y-114435000D03*
X171655000Y-112435000D03*
X171655000Y-110435000D03*
X171655000Y-108435000D03*
X149655000Y-108435000D03*
X149655000Y-110435000D03*
X149655000Y-112435000D03*
X149655000Y-114435000D03*
X149655000Y-116435000D03*
X149655000Y-118435000D03*
X149655000Y-120435000D03*
X149655000Y-122435000D03*
X149655000Y-124435000D03*
X149655000Y-126435000D03*
D24*
X95885000Y-76835000D03*
X174625000Y-76200000D03*
X100330000Y-113030000D03*
X166370000Y-111125000D03*
M02*
