G04 #@! TF.FileFunction,Profile,NP*
%FSLAX46Y46*%
G04 Gerber Fmt 4.6, Leading zero omitted, Abs format (unit mm)*
G04 Created by KiCad (PCBNEW (2015-01-16 BZR 5376)-product) date 12/06/2015 15:21:38*
%MOMM*%
G01*
G04 APERTURE LIST*
%ADD10C,0.100000*%
%ADD11C,1.000000*%
G04 APERTURE END LIST*
D10*
D11*
X235000000Y-30000000D02*
X42500000Y-30000000D01*
X235000000Y-162500000D02*
X235000000Y-30000000D01*
X42500000Y-162500000D02*
X235000000Y-162500000D01*
X42500000Y-30000000D02*
X42500000Y-162500000D01*
D10*
X135843000Y-104309000D02*
X135843000Y-150029000D01*
X136859000Y-98467000D02*
X136859000Y-98213000D01*
D11*
X136351000Y-104309000D02*
X136351000Y-150029000D01*
X136351000Y-104563000D02*
G75*
G03X131017000Y-98721000I-5588000J254000D01*
G01*
X54817000Y-98721000D02*
G75*
G03X48975000Y-104055000I-254000J-5588000D01*
G01*
X54944000Y-98721000D02*
X75899000Y-98721000D01*
X130763000Y-98721000D02*
X78058000Y-98721000D01*
X48975000Y-149775000D02*
G75*
G03X54309000Y-155617000I5588000J-254000D01*
G01*
X130509000Y-155617000D02*
G75*
G03X136351000Y-150283000I254000J5588000D01*
G01*
X67771000Y-155617000D02*
X67771000Y-150537000D01*
X67771000Y-150537000D02*
X70565000Y-150537000D01*
X70565000Y-156887000D02*
X70565000Y-157014000D01*
X76661000Y-157014000D02*
X76661000Y-150537000D01*
X76661000Y-150537000D02*
X79455000Y-150537000D01*
X79455000Y-150537000D02*
X79455000Y-155617000D01*
X67517000Y-154347000D02*
X67263000Y-154347000D01*
X70565000Y-157014000D02*
X76661000Y-157014000D01*
X70565000Y-150537000D02*
X70565000Y-156887000D01*
X79963000Y-154474000D02*
X79455000Y-154474000D01*
X79455000Y-155617000D02*
X127715000Y-155617000D01*
X48975000Y-104055000D02*
X48975000Y-149521000D01*
X67771000Y-155617000D02*
X56976000Y-155617000D01*
X160271000Y-155617000D02*
X149476000Y-155617000D01*
X141475000Y-104055000D02*
X141475000Y-149521000D01*
X171955000Y-155617000D02*
X220215000Y-155617000D01*
X172463000Y-154474000D02*
X171955000Y-154474000D01*
X163065000Y-150537000D02*
X163065000Y-156887000D01*
X163065000Y-157014000D02*
X169161000Y-157014000D01*
X160017000Y-154347000D02*
X159763000Y-154347000D01*
X171955000Y-150537000D02*
X171955000Y-155617000D01*
X169161000Y-150537000D02*
X171955000Y-150537000D01*
X169161000Y-157014000D02*
X169161000Y-150537000D01*
X163065000Y-156887000D02*
X163065000Y-157014000D01*
X160271000Y-150537000D02*
X163065000Y-150537000D01*
X160271000Y-155617000D02*
X160271000Y-150537000D01*
X223009000Y-155617000D02*
G75*
G03X228851000Y-150283000I254000J5588000D01*
G01*
X141475000Y-149775000D02*
G75*
G03X146809000Y-155617000I5588000J-254000D01*
G01*
X223263000Y-98721000D02*
X170558000Y-98721000D01*
X147444000Y-98721000D02*
X168399000Y-98721000D01*
X147317000Y-98721000D02*
G75*
G03X141475000Y-104055000I-254000J-5588000D01*
G01*
X228851000Y-104563000D02*
G75*
G03X223517000Y-98721000I-5588000J254000D01*
G01*
X228851000Y-104309000D02*
X228851000Y-150029000D01*
D10*
X229359000Y-98467000D02*
X229359000Y-98213000D01*
X228343000Y-104309000D02*
X228343000Y-150029000D01*
X228343000Y-41809000D02*
X228343000Y-87529000D01*
X229359000Y-35967000D02*
X229359000Y-35713000D01*
D11*
X228851000Y-41809000D02*
X228851000Y-87529000D01*
X228851000Y-42063000D02*
G75*
G03X223517000Y-36221000I-5588000J254000D01*
G01*
X147317000Y-36221000D02*
G75*
G03X141475000Y-41555000I-254000J-5588000D01*
G01*
X147444000Y-36221000D02*
X168399000Y-36221000D01*
X223263000Y-36221000D02*
X170558000Y-36221000D01*
X141475000Y-87275000D02*
G75*
G03X146809000Y-93117000I5588000J-254000D01*
G01*
X223009000Y-93117000D02*
G75*
G03X228851000Y-87783000I254000J5588000D01*
G01*
X160271000Y-93117000D02*
X160271000Y-88037000D01*
X160271000Y-88037000D02*
X163065000Y-88037000D01*
X163065000Y-94387000D02*
X163065000Y-94514000D01*
X169161000Y-94514000D02*
X169161000Y-88037000D01*
X169161000Y-88037000D02*
X171955000Y-88037000D01*
X171955000Y-88037000D02*
X171955000Y-93117000D01*
X160017000Y-91847000D02*
X159763000Y-91847000D01*
X163065000Y-94514000D02*
X169161000Y-94514000D01*
X163065000Y-88037000D02*
X163065000Y-94387000D01*
X172463000Y-91974000D02*
X171955000Y-91974000D01*
X171955000Y-93117000D02*
X220215000Y-93117000D01*
X141475000Y-41555000D02*
X141475000Y-87021000D01*
X160271000Y-93117000D02*
X149476000Y-93117000D01*
X67771000Y-93117000D02*
X56976000Y-93117000D01*
X48975000Y-41555000D02*
X48975000Y-87021000D01*
X79455000Y-93117000D02*
X127715000Y-93117000D01*
X79963000Y-91974000D02*
X79455000Y-91974000D01*
X70565000Y-88037000D02*
X70565000Y-94387000D01*
X70565000Y-94514000D02*
X76661000Y-94514000D01*
X67517000Y-91847000D02*
X67263000Y-91847000D01*
X79455000Y-88037000D02*
X79455000Y-93117000D01*
X76661000Y-88037000D02*
X79455000Y-88037000D01*
X76661000Y-94514000D02*
X76661000Y-88037000D01*
X70565000Y-94387000D02*
X70565000Y-94514000D01*
X67771000Y-88037000D02*
X70565000Y-88037000D01*
X67771000Y-93117000D02*
X67771000Y-88037000D01*
X130509000Y-93117000D02*
G75*
G03X136351000Y-87783000I254000J5588000D01*
G01*
X48975000Y-87275000D02*
G75*
G03X54309000Y-93117000I5588000J-254000D01*
G01*
X130763000Y-36221000D02*
X78058000Y-36221000D01*
X54944000Y-36221000D02*
X75899000Y-36221000D01*
X54817000Y-36221000D02*
G75*
G03X48975000Y-41555000I-254000J-5588000D01*
G01*
X136351000Y-42063000D02*
G75*
G03X131017000Y-36221000I-5588000J254000D01*
G01*
X136351000Y-41809000D02*
X136351000Y-87529000D01*
D10*
X136859000Y-35967000D02*
X136859000Y-35713000D01*
X135843000Y-41809000D02*
X135843000Y-87529000D01*
M02*
