G04 #@! TF.FileFunction,Paste,Top*
%FSLAX46Y46*%
G04 Gerber Fmt 4.6, Leading zero omitted, Abs format (unit mm)*
G04 Created by KiCad (PCBNEW (2015-01-16 BZR 5376)-product) date 12/06/2015 15:21:38*
%MOMM*%
G01*
G04 APERTURE LIST*
%ADD10C,0.100000*%
%ADD11C,1.000000*%
%ADD12R,1.250000X1.000000*%
%ADD13R,1.780000X3.500000*%
%ADD14R,3.657600X2.032000*%
%ADD15R,1.016000X2.032000*%
%ADD16R,1.100000X3.600000*%
G04 APERTURE END LIST*
D10*
D11*
X118825000Y-137710000D03*
X64215000Y-152315000D03*
D12*
X83900000Y-104420000D03*
X83900000Y-102420000D03*
X75645000Y-131090000D03*
X75645000Y-129090000D03*
X64215000Y-129090000D03*
X64215000Y-131090000D03*
D13*
X92039000Y-101261000D03*
X87699000Y-101261000D03*
X112867000Y-101261000D03*
X108527000Y-101261000D03*
X102707000Y-101261000D03*
X98367000Y-101261000D03*
X123027000Y-101261000D03*
X118687000Y-101261000D03*
D14*
X69930000Y-129201000D03*
D15*
X69930000Y-122597000D03*
X67644000Y-122597000D03*
X72216000Y-122597000D03*
D16*
X54690000Y-133975000D03*
X54690000Y-127475000D03*
D11*
X59135000Y-103420000D03*
X151635000Y-103420000D03*
D16*
X147190000Y-133975000D03*
X147190000Y-127475000D03*
D14*
X162430000Y-129201000D03*
D15*
X162430000Y-122597000D03*
X160144000Y-122597000D03*
X164716000Y-122597000D03*
D13*
X215527000Y-101261000D03*
X211187000Y-101261000D03*
X195207000Y-101261000D03*
X190867000Y-101261000D03*
X205367000Y-101261000D03*
X201027000Y-101261000D03*
X184539000Y-101261000D03*
X180199000Y-101261000D03*
D12*
X156715000Y-129090000D03*
X156715000Y-131090000D03*
X168145000Y-131090000D03*
X168145000Y-129090000D03*
X176400000Y-104420000D03*
X176400000Y-102420000D03*
D11*
X156715000Y-152315000D03*
X211325000Y-137710000D03*
X211325000Y-75210000D03*
X156715000Y-89815000D03*
D12*
X176400000Y-41920000D03*
X176400000Y-39920000D03*
X168145000Y-68590000D03*
X168145000Y-66590000D03*
X156715000Y-66590000D03*
X156715000Y-68590000D03*
D13*
X184539000Y-38761000D03*
X180199000Y-38761000D03*
X205367000Y-38761000D03*
X201027000Y-38761000D03*
X195207000Y-38761000D03*
X190867000Y-38761000D03*
X215527000Y-38761000D03*
X211187000Y-38761000D03*
D14*
X162430000Y-66701000D03*
D15*
X162430000Y-60097000D03*
X160144000Y-60097000D03*
X164716000Y-60097000D03*
D16*
X147190000Y-71475000D03*
X147190000Y-64975000D03*
D11*
X151635000Y-40920000D03*
X59135000Y-40920000D03*
D16*
X54690000Y-71475000D03*
X54690000Y-64975000D03*
D14*
X69930000Y-66701000D03*
D15*
X69930000Y-60097000D03*
X67644000Y-60097000D03*
X72216000Y-60097000D03*
D13*
X123027000Y-38761000D03*
X118687000Y-38761000D03*
X102707000Y-38761000D03*
X98367000Y-38761000D03*
X112867000Y-38761000D03*
X108527000Y-38761000D03*
X92039000Y-38761000D03*
X87699000Y-38761000D03*
D12*
X64215000Y-66590000D03*
X64215000Y-68590000D03*
X75645000Y-68590000D03*
X75645000Y-66590000D03*
X83900000Y-41920000D03*
X83900000Y-39920000D03*
D11*
X64215000Y-89815000D03*
X118825000Y-75210000D03*
M02*
