M48
;DRILL file {pcbnew (2015-01-16 BZR 5376)-product} date 14/09/2015 10:50:46
;FORMAT={-:-/ absolute / inch / decimal}
FMAT,2
INCH,TZ
T1C0.012
T2C0.031
T3C0.032
T4C0.039
T5C0.040
T6C0.055
T7C0.118
%
G90
G05
M72
T1
X1.1635Y-1.8663
X1.1635Y-3.2048
X1.1635Y-4.5434
X1.1635Y-5.882
X1.1635Y-7.2206
X1.1635Y-8.5592
X1.1635Y-9.8978
X1.1835Y-1.8663
X1.1835Y-3.2048
X1.1835Y-4.5434
X1.1835Y-5.882
X1.1835Y-7.2206
X1.1835Y-8.5592
X1.1835Y-9.8978
X1.2035Y-1.8663
X1.2035Y-3.2048
X1.2035Y-4.5434
X1.2035Y-5.882
X1.2035Y-7.2206
X1.2035Y-8.5592
X1.2035Y-9.8978
X1.2235Y-1.8663
X1.2235Y-3.2048
X1.2235Y-4.5434
X1.2235Y-5.882
X1.2235Y-7.2206
X1.2235Y-8.5592
X1.2235Y-9.8978
X1.2435Y-1.8663
X1.2435Y-3.2048
X1.2435Y-4.5434
X1.2435Y-5.882
X1.2435Y-7.2206
X1.2435Y-8.5592
X1.2435Y-9.8978
X2.5635Y-0.7563
X2.5635Y-2.0948
X2.5635Y-3.4334
X2.5635Y-4.772
X2.5635Y-6.1106
X2.5635Y-7.4492
X2.5635Y-8.7878
X2.5835Y-0.7563
X2.5835Y-2.0948
X2.5835Y-3.4334
X2.5835Y-4.772
X2.5835Y-6.1106
X2.5835Y-7.4492
X2.5835Y-8.7878
X2.6035Y-0.7563
X2.6035Y-2.0948
X2.6035Y-3.4334
X2.6035Y-4.772
X2.6035Y-6.1106
X2.6035Y-7.4492
X2.6035Y-8.7878
X2.6235Y-0.7563
X2.6235Y-2.0948
X2.6235Y-3.4334
X2.6235Y-4.772
X2.6235Y-6.1106
X2.6235Y-7.4492
X2.6235Y-8.7878
X2.6435Y-0.7563
X2.6435Y-2.0948
X2.6435Y-3.4334
X2.6435Y-4.772
X2.6435Y-6.1106
X2.6435Y-7.4492
X2.6435Y-8.7878
X3.9435Y-1.8663
X3.9435Y-3.2048
X3.9435Y-4.5434
X3.9435Y-5.882
X3.9435Y-7.2206
X3.9435Y-8.5592
X3.9435Y-9.8978
X3.9635Y-1.8663
X3.9635Y-3.2048
X3.9635Y-4.5434
X3.9635Y-5.882
X3.9635Y-7.2206
X3.9635Y-8.5592
X3.9635Y-9.8978
X3.9835Y-1.8663
X3.9835Y-3.2048
X3.9835Y-4.5434
X3.9835Y-5.882
X3.9835Y-7.2206
X3.9835Y-8.5592
X3.9835Y-9.8978
X4.0035Y-1.8663
X4.0035Y-3.2048
X4.0035Y-4.5434
X4.0035Y-5.882
X4.0035Y-7.2206
X4.0035Y-8.5592
X4.0035Y-9.8978
X4.0235Y-1.8663
X4.0235Y-3.2048
X4.0235Y-4.5434
X4.0235Y-5.882
X4.0235Y-7.2206
X4.0235Y-8.5592
X4.0235Y-9.8978
X4.7917Y-3.3408
X4.7917Y-3.3608
X4.7917Y-3.3808
X4.7917Y-3.4008
X4.7917Y-3.4208
X4.7917Y-7.4746
X4.7917Y-7.4946
X4.7917Y-7.5146
X4.7917Y-7.5346
X4.7917Y-7.5546
X5.9017Y-1.9608
X5.9017Y-1.9808
X5.9017Y-2.0008
X5.9017Y-2.0208
X5.9017Y-2.0408
X5.9017Y-4.7408
X5.9017Y-4.7608
X5.9017Y-4.7808
X5.9017Y-4.8008
X5.9017Y-4.8208
X5.9017Y-6.0946
X5.9017Y-6.1146
X5.9017Y-6.1346
X5.9017Y-6.1546
X5.9017Y-6.1746
X5.9017Y-8.8746
X5.9017Y-8.8946
X5.9017Y-8.9146
X5.9017Y-8.9346
X5.9017Y-8.9546
X6.5965Y-1.8663
X6.5965Y-3.2048
X6.5965Y-4.5434
X6.5965Y-5.882
X6.5965Y-7.2206
X6.5965Y-8.5592
X6.5965Y-9.8978
X6.6165Y-1.8663
X6.6165Y-3.2048
X6.6165Y-4.5434
X6.6165Y-5.882
X6.6165Y-7.2206
X6.6165Y-8.5592
X6.6165Y-9.8978
X6.6365Y-1.8663
X6.6365Y-3.2048
X6.6365Y-4.5434
X6.6365Y-5.882
X6.6365Y-7.2206
X6.6365Y-8.5592
X6.6365Y-9.8978
X6.6565Y-1.8663
X6.6565Y-3.2048
X6.6565Y-4.5434
X6.6565Y-5.882
X6.6565Y-7.2206
X6.6565Y-8.5592
X6.6565Y-9.8978
X6.6765Y-1.8663
X6.6765Y-3.2048
X6.6765Y-4.5434
X6.6765Y-5.882
X6.6765Y-7.2206
X6.6765Y-8.5592
X6.6765Y-9.8978
X7.9965Y-0.7563
X7.9965Y-2.0948
X7.9965Y-3.4334
X7.9965Y-4.772
X7.9965Y-6.1106
X7.9965Y-7.4492
X7.9965Y-8.7878
X8.0165Y-0.7563
X8.0165Y-2.0948
X8.0165Y-3.4334
X8.0165Y-4.772
X8.0165Y-6.1106
X8.0165Y-7.4492
X8.0165Y-8.7878
X8.0365Y-0.7563
X8.0365Y-2.0948
X8.0365Y-3.4334
X8.0365Y-4.772
X8.0365Y-6.1106
X8.0365Y-7.4492
X8.0365Y-8.7878
X8.0565Y-0.7563
X8.0565Y-2.0948
X8.0565Y-3.4334
X8.0565Y-4.772
X8.0565Y-6.1106
X8.0565Y-7.4492
X8.0565Y-8.7878
X8.0765Y-0.7563
X8.0765Y-2.0948
X8.0765Y-3.4334
X8.0765Y-4.772
X8.0765Y-6.1106
X8.0765Y-7.4492
X8.0765Y-8.7878
X9.3765Y-1.8663
X9.3765Y-3.2048
X9.3765Y-4.5434
X9.3765Y-5.882
X9.3765Y-7.2206
X9.3765Y-8.5592
X9.3765Y-9.8978
X9.3965Y-1.8663
X9.3965Y-3.2048
X9.3965Y-4.5434
X9.3965Y-5.882
X9.3965Y-7.2206
X9.3965Y-8.5592
X9.3965Y-9.8978
X9.4165Y-1.8663
X9.4165Y-3.2048
X9.4165Y-4.5434
X9.4165Y-5.882
X9.4165Y-7.2206
X9.4165Y-8.5592
X9.4165Y-9.8978
X9.4365Y-1.8663
X9.4365Y-3.2048
X9.4365Y-4.5434
X9.4365Y-5.882
X9.4365Y-7.2206
X9.4365Y-8.5592
X9.4365Y-9.8978
X9.4565Y-1.8663
X9.4565Y-3.2048
X9.4565Y-4.5434
X9.4565Y-5.882
X9.4565Y-7.2206
X9.4565Y-8.5592
X9.4565Y-9.8978
T2
X2.2047Y-0.8661
X2.2047Y-2.2047
X2.2047Y-3.5433
X2.2047Y-4.8819
X2.2047Y-6.2205
X2.2047Y-7.5591
X2.2047Y-8.8976
X4.9016Y-3.7795
X4.9016Y-7.9134
X7.6378Y-0.8661
X7.6378Y-2.2047
X7.6378Y-3.5433
X7.6378Y-4.8819
X7.6378Y-6.2205
X7.6378Y-7.5591
X7.6378Y-8.8976
T3
X2.2047Y-1.0061
X2.2047Y-2.3447
X2.2047Y-3.6833
X2.2047Y-5.0219
X2.2047Y-6.3605
X2.2047Y-7.6991
X2.2047Y-9.0376
X5.0416Y-3.7795
X5.0416Y-7.9134
X7.6378Y-1.0061
X7.6378Y-2.3447
X7.6378Y-3.6833
X7.6378Y-5.0219
X7.6378Y-6.3605
X7.6378Y-7.6991
X7.6378Y-9.0376
T4
X0.8406Y-1.2598
X0.8406Y-1.3583
X0.8406Y-1.4567
X0.8406Y-2.5984
X0.8406Y-2.6969
X0.8406Y-2.7953
X0.8406Y-3.937
X0.8406Y-4.0354
X0.8406Y-4.1339
X0.8406Y-5.2756
X0.8406Y-5.374
X0.8406Y-5.4724
X0.8406Y-6.6142
X0.8406Y-6.7126
X0.8406Y-6.811
X0.8406Y-7.9528
X0.8406Y-8.0512
X0.8406Y-8.1496
X0.8406Y-9.2913
X0.8406Y-9.3898
X0.8406Y-9.4882
X1.0925Y-0.8563
X1.0925Y-1.0335
X1.0925Y-2.1949
X1.0925Y-2.372
X1.0925Y-3.5335
X1.0925Y-3.7106
X1.0925Y-4.872
X1.0925Y-5.0492
X1.0925Y-6.2106
X1.0925Y-6.3878
X1.0925Y-7.5492
X1.0925Y-7.7264
X1.0925Y-8.8878
X1.0925Y-9.065
X1.122Y-1.7421
X1.122Y-3.0807
X1.122Y-4.4193
X1.122Y-5.7579
X1.122Y-7.0965
X1.122Y-8.435
X1.122Y-9.7736
X1.2205Y-1.7421
X1.2205Y-3.0807
X1.2205Y-4.4193
X1.2205Y-5.7579
X1.2205Y-7.0965
X1.2205Y-8.435
X1.2205Y-9.7736
X1.3189Y-1.7421
X1.3189Y-3.0807
X1.3189Y-4.4193
X1.3189Y-5.7579
X1.3189Y-7.0965
X1.3189Y-8.435
X1.3189Y-9.7736
X1.3484Y-0.8563
X1.3484Y-1.0335
X1.3484Y-2.1949
X1.3484Y-2.372
X1.3484Y-3.5335
X1.3484Y-3.7106
X1.3484Y-4.872
X1.3484Y-5.0492
X1.3484Y-6.2106
X1.3484Y-6.3878
X1.3484Y-7.5492
X1.3484Y-7.7264
X1.3484Y-8.8878
X1.3484Y-9.065
X3.5965Y-1.2598
X3.5965Y-1.3583
X3.5965Y-1.4567
X3.5965Y-2.5984
X3.5965Y-2.6969
X3.5965Y-2.7953
X3.5965Y-3.937
X3.5965Y-4.0354
X3.5965Y-4.1339
X3.5965Y-5.2756
X3.5965Y-5.374
X3.5965Y-5.4724
X3.5965Y-6.6142
X3.5965Y-6.7126
X3.5965Y-6.811
X3.5965Y-7.9528
X3.5965Y-8.0512
X3.5965Y-8.1496
X3.5965Y-9.2913
X3.5965Y-9.3898
X3.5965Y-9.4882
X3.8484Y-0.8563
X3.8484Y-1.0335
X3.8484Y-2.1949
X3.8484Y-2.372
X3.8484Y-3.5335
X3.8484Y-3.7106
X3.8484Y-4.872
X3.8484Y-5.0492
X3.8484Y-6.2106
X3.8484Y-6.3878
X3.8484Y-7.5492
X3.8484Y-7.7264
X3.8484Y-8.8878
X3.8484Y-9.065
X3.878Y-1.7421
X3.878Y-3.0807
X3.878Y-4.4193
X3.878Y-5.7579
X3.878Y-7.0965
X3.878Y-8.435
X3.878Y-9.7736
X3.9764Y-1.7421
X3.9764Y-3.0807
X3.9764Y-4.4193
X3.9764Y-5.7579
X3.9764Y-7.0965
X3.9764Y-8.435
X3.9764Y-9.7736
X4.0748Y-1.7421
X4.0748Y-3.0807
X4.0748Y-4.4193
X4.0748Y-5.7579
X4.0748Y-7.0965
X4.0748Y-8.435
X4.0748Y-9.7736
X4.1043Y-0.8563
X4.1043Y-1.0335
X4.1043Y-2.1949
X4.1043Y-2.372
X4.1043Y-3.5335
X4.1043Y-3.7106
X4.1043Y-4.872
X4.1043Y-5.0492
X4.1043Y-6.2106
X4.1043Y-6.3878
X4.1043Y-7.5492
X4.1043Y-7.7264
X4.1043Y-8.8878
X4.1043Y-9.065
X4.8917Y-1.8799
X4.8917Y-2.1358
X4.8917Y-4.6358
X4.8917Y-4.8917
X4.8917Y-6.0138
X4.8917Y-6.2697
X4.8917Y-8.7697
X4.8917Y-9.0256
X5.0689Y-1.8799
X5.0689Y-2.1358
X5.0689Y-4.6358
X5.0689Y-4.8917
X5.0689Y-6.0138
X5.0689Y-6.2697
X5.0689Y-8.7697
X5.0689Y-9.0256
X5.2953Y-2.3878
X5.2953Y-5.1437
X5.2953Y-6.5217
X5.2953Y-9.2776
X5.3937Y-2.3878
X5.3937Y-5.1437
X5.3937Y-6.5217
X5.3937Y-9.2776
X5.4921Y-2.3878
X5.4921Y-5.1437
X5.4921Y-6.5217
X5.4921Y-9.2776
X5.7776Y-1.9094
X5.7776Y-2.0079
X5.7776Y-2.1063
X5.7776Y-4.6654
X5.7776Y-4.7638
X5.7776Y-4.8622
X5.7776Y-6.0433
X5.7776Y-6.1417
X5.7776Y-6.2402
X5.7776Y-8.7992
X5.7776Y-8.8976
X5.7776Y-8.9961
X6.2736Y-1.2598
X6.2736Y-1.3583
X6.2736Y-1.4567
X6.2736Y-2.5984
X6.2736Y-2.6969
X6.2736Y-2.7953
X6.2736Y-3.937
X6.2736Y-4.0354
X6.2736Y-4.1339
X6.2736Y-5.2756
X6.2736Y-5.374
X6.2736Y-5.4724
X6.2736Y-6.6142
X6.2736Y-6.7126
X6.2736Y-6.811
X6.2736Y-7.9528
X6.2736Y-8.0512
X6.2736Y-8.1496
X6.2736Y-9.2913
X6.2736Y-9.3898
X6.2736Y-9.4882
X6.5256Y-0.8563
X6.5256Y-1.0335
X6.5256Y-2.1949
X6.5256Y-2.372
X6.5256Y-3.5335
X6.5256Y-3.7106
X6.5256Y-4.872
X6.5256Y-5.0492
X6.5256Y-6.2106
X6.5256Y-6.3878
X6.5256Y-7.5492
X6.5256Y-7.7264
X6.5256Y-8.8878
X6.5256Y-9.065
X6.5551Y-1.7421
X6.5551Y-3.0807
X6.5551Y-4.4193
X6.5551Y-5.7579
X6.5551Y-7.0965
X6.5551Y-8.435
X6.5551Y-9.7736
X6.6535Y-1.7421
X6.6535Y-3.0807
X6.6535Y-4.4193
X6.6535Y-5.7579
X6.6535Y-7.0965
X6.6535Y-8.435
X6.6535Y-9.7736
X6.752Y-1.7421
X6.752Y-3.0807
X6.752Y-4.4193
X6.752Y-5.7579
X6.752Y-7.0965
X6.752Y-8.435
X6.752Y-9.7736
X6.7815Y-0.8563
X6.7815Y-1.0335
X6.7815Y-2.1949
X6.7815Y-2.372
X6.7815Y-3.5335
X6.7815Y-3.7106
X6.7815Y-4.872
X6.7815Y-5.0492
X6.7815Y-6.2106
X6.7815Y-6.3878
X6.7815Y-7.5492
X6.7815Y-7.7264
X6.7815Y-8.8878
X6.7815Y-9.065
X9.0295Y-1.2598
X9.0295Y-1.3583
X9.0295Y-1.4567
X9.0295Y-2.5984
X9.0295Y-2.6969
X9.0295Y-2.7953
X9.0295Y-3.937
X9.0295Y-4.0354
X9.0295Y-4.1339
X9.0295Y-5.2756
X9.0295Y-5.374
X9.0295Y-5.4724
X9.0295Y-6.6142
X9.0295Y-6.7126
X9.0295Y-6.811
X9.0295Y-7.9528
X9.0295Y-8.0512
X9.0295Y-8.1496
X9.0295Y-9.2913
X9.0295Y-9.3898
X9.0295Y-9.4882
X9.2815Y-0.8563
X9.2815Y-1.0335
X9.2815Y-2.1949
X9.2815Y-2.372
X9.2815Y-3.5335
X9.2815Y-3.7106
X9.2815Y-4.872
X9.2815Y-5.0492
X9.2815Y-6.2106
X9.2815Y-6.3878
X9.2815Y-7.5492
X9.2815Y-7.7264
X9.2815Y-8.8878
X9.2815Y-9.065
X9.311Y-1.7421
X9.311Y-3.0807
X9.311Y-4.4193
X9.311Y-5.7579
X9.311Y-7.0965
X9.311Y-8.435
X9.311Y-9.7736
X9.4094Y-1.7421
X9.4094Y-3.0807
X9.4094Y-4.4193
X9.4094Y-5.7579
X9.4094Y-7.0965
X9.4094Y-8.435
X9.4094Y-9.7736
X9.5079Y-1.7421
X9.5079Y-3.0807
X9.5079Y-4.4193
X9.5079Y-5.7579
X9.5079Y-7.0965
X9.5079Y-8.435
X9.5079Y-9.7736
X9.5374Y-0.8563
X9.5374Y-1.0335
X9.5374Y-2.1949
X9.5374Y-2.372
X9.5374Y-3.5335
X9.5374Y-3.7106
X9.5374Y-4.872
X9.5374Y-5.0492
X9.5374Y-6.2106
X9.5374Y-6.3878
X9.5374Y-7.5492
X9.5374Y-7.7264
X9.5374Y-8.8878
X9.5374Y-9.065
T5
X2.4135Y-0.9213
X2.4135Y-1.0213
X2.4135Y-2.2598
X2.4135Y-2.3598
X2.4135Y-3.5984
X2.4135Y-3.6984
X2.4135Y-4.937
X2.4135Y-5.037
X2.4135Y-6.2756
X2.4135Y-6.3756
X2.4135Y-7.6142
X2.4135Y-7.7142
X2.4135Y-8.9528
X2.4135Y-9.0528
X2.5135Y-0.9113
X2.5135Y-1.0113
X2.5135Y-2.2498
X2.5135Y-2.3498
X2.5135Y-3.5884
X2.5135Y-3.6884
X2.5135Y-4.927
X2.5135Y-5.027
X2.5135Y-6.2656
X2.5135Y-6.3656
X2.5135Y-7.6042
X2.5135Y-7.7042
X2.5135Y-8.9428
X2.5135Y-9.0428
X2.6135Y-0.9213
X2.6135Y-1.0213
X2.6135Y-2.2598
X2.6135Y-2.3598
X2.6135Y-3.5984
X2.6135Y-3.6984
X2.6135Y-4.937
X2.6135Y-5.037
X2.6135Y-6.2756
X2.6135Y-6.3756
X2.6135Y-7.6142
X2.6135Y-7.7142
X2.6135Y-8.9528
X2.6135Y-9.0528
X2.7135Y-0.9113
X2.7135Y-1.0113
X2.7135Y-2.2498
X2.7135Y-2.3498
X2.7135Y-3.5884
X2.7135Y-3.6884
X2.7135Y-4.927
X2.7135Y-5.027
X2.7135Y-6.2656
X2.7135Y-6.3656
X2.7135Y-7.6042
X2.7135Y-7.7042
X2.7135Y-8.9428
X2.7135Y-9.0428
X2.8135Y-0.9213
X2.8135Y-1.0213
X2.8135Y-2.2598
X2.8135Y-2.3598
X2.8135Y-3.5984
X2.8135Y-3.6984
X2.8135Y-4.937
X2.8135Y-5.037
X2.8135Y-6.2756
X2.8135Y-6.3756
X2.8135Y-7.6142
X2.8135Y-7.7142
X2.8135Y-8.9528
X2.8135Y-9.0528
X4.9467Y-3.2708
X4.9467Y-3.4708
X4.9467Y-7.4046
X4.9467Y-7.6046
X4.9567Y-3.1708
X4.9567Y-3.3708
X4.9567Y-3.5708
X4.9567Y-7.3046
X4.9567Y-7.5046
X4.9567Y-7.7046
X5.0467Y-3.2708
X5.0467Y-3.4708
X5.0467Y-7.4046
X5.0467Y-7.6046
X5.0567Y-3.1708
X5.0567Y-3.3708
X5.0567Y-3.5708
X5.0567Y-7.3046
X5.0567Y-7.5046
X5.0567Y-7.7046
X7.8465Y-0.9213
X7.8465Y-1.0213
X7.8465Y-2.2598
X7.8465Y-2.3598
X7.8465Y-3.5984
X7.8465Y-3.6984
X7.8465Y-4.937
X7.8465Y-5.037
X7.8465Y-6.2756
X7.8465Y-6.3756
X7.8465Y-7.6142
X7.8465Y-7.7142
X7.8465Y-8.9528
X7.8465Y-9.0528
X7.9465Y-0.9113
X7.9465Y-1.0113
X7.9465Y-2.2498
X7.9465Y-2.3498
X7.9465Y-3.5884
X7.9465Y-3.6884
X7.9465Y-4.927
X7.9465Y-5.027
X7.9465Y-6.2656
X7.9465Y-6.3656
X7.9465Y-7.6042
X7.9465Y-7.7042
X7.9465Y-8.9428
X7.9465Y-9.0428
X8.0465Y-0.9213
X8.0465Y-1.0213
X8.0465Y-2.2598
X8.0465Y-2.3598
X8.0465Y-3.5984
X8.0465Y-3.6984
X8.0465Y-4.937
X8.0465Y-5.037
X8.0465Y-6.2756
X8.0465Y-6.3756
X8.0465Y-7.6142
X8.0465Y-7.7142
X8.0465Y-8.9528
X8.0465Y-9.0528
X8.1465Y-0.9113
X8.1465Y-1.0113
X8.1465Y-2.2498
X8.1465Y-2.3498
X8.1465Y-3.5884
X8.1465Y-3.6884
X8.1465Y-4.927
X8.1465Y-5.027
X8.1465Y-6.2656
X8.1465Y-6.3656
X8.1465Y-7.6042
X8.1465Y-7.7042
X8.1465Y-8.9428
X8.1465Y-9.0428
X8.2465Y-0.9213
X8.2465Y-1.0213
X8.2465Y-2.2598
X8.2465Y-2.3598
X8.2465Y-3.5984
X8.2465Y-3.6984
X8.2465Y-4.937
X8.2465Y-5.037
X8.2465Y-6.2756
X8.2465Y-6.3756
X8.2465Y-7.6142
X8.2465Y-7.7142
X8.2465Y-8.9528
X8.2465Y-9.0528
T6
X0.9193Y-1.0965
X0.9193Y-1.6201
X0.9193Y-2.435
X0.9193Y-2.9587
X0.9193Y-3.7736
X0.9193Y-4.2972
X0.9193Y-5.1122
X0.9193Y-5.6358
X0.9193Y-6.4508
X0.9193Y-6.9744
X0.9193Y-7.7894
X0.9193Y-8.313
X0.9193Y-9.128
X0.9193Y-9.6516
X1.5217Y-1.0965
X1.5217Y-1.6201
X1.5217Y-2.435
X1.5217Y-2.9587
X1.5217Y-3.7736
X1.5217Y-4.2972
X1.5217Y-5.1122
X1.5217Y-5.6358
X1.5217Y-6.4508
X1.5217Y-6.9744
X1.5217Y-7.7894
X1.5217Y-8.313
X1.5217Y-9.128
X1.5217Y-9.6516
X3.6752Y-1.0965
X3.6752Y-1.6201
X3.6752Y-2.435
X3.6752Y-2.9587
X3.6752Y-3.7736
X3.6752Y-4.2972
X3.6752Y-5.1122
X3.6752Y-5.6358
X3.6752Y-6.4508
X3.6752Y-6.9744
X3.6752Y-7.7894
X3.6752Y-8.313
X3.6752Y-9.128
X3.6752Y-9.6516
X4.2776Y-1.0965
X4.2776Y-1.6201
X4.2776Y-2.435
X4.2776Y-2.9587
X4.2776Y-3.7736
X4.2776Y-4.2972
X4.2776Y-5.1122
X4.2776Y-5.6358
X4.2776Y-6.4508
X4.2776Y-6.9744
X4.2776Y-7.7894
X4.2776Y-8.313
X4.2776Y-9.128
X4.2776Y-9.6516
X5.1319Y-1.7067
X5.1319Y-2.3091
X5.1319Y-4.4626
X5.1319Y-5.065
X5.1319Y-5.8406
X5.1319Y-6.4429
X5.1319Y-8.5965
X5.1319Y-9.1988
X5.6555Y-1.7067
X5.6555Y-2.3091
X5.6555Y-4.4626
X5.6555Y-5.065
X5.6555Y-5.8406
X5.6555Y-6.4429
X5.6555Y-8.5965
X5.6555Y-9.1988
X6.3524Y-1.0965
X6.3524Y-1.6201
X6.3524Y-2.435
X6.3524Y-2.9587
X6.3524Y-3.7736
X6.3524Y-4.2972
X6.3524Y-5.1122
X6.3524Y-5.6358
X6.3524Y-6.4508
X6.3524Y-6.9744
X6.3524Y-7.7894
X6.3524Y-8.313
X6.3524Y-9.128
X6.3524Y-9.6516
X6.9547Y-1.0965
X6.9547Y-1.6201
X6.9547Y-2.435
X6.9547Y-2.9587
X6.9547Y-3.7736
X6.9547Y-4.2972
X6.9547Y-5.1122
X6.9547Y-5.6358
X6.9547Y-6.4508
X6.9547Y-6.9744
X6.9547Y-7.7894
X6.9547Y-8.313
X6.9547Y-9.128
X6.9547Y-9.6516
X9.1083Y-1.0965
X9.1083Y-1.6201
X9.1083Y-2.435
X9.1083Y-2.9587
X9.1083Y-3.7736
X9.1083Y-4.2972
X9.1083Y-5.1122
X9.1083Y-5.6358
X9.1083Y-6.4508
X9.1083Y-6.9744
X9.1083Y-7.7894
X9.1083Y-8.313
X9.1083Y-9.128
X9.1083Y-9.6516
X9.7106Y-1.0965
X9.7106Y-1.6201
X9.7106Y-2.435
X9.7106Y-2.9587
X9.7106Y-3.7736
X9.7106Y-4.2972
X9.7106Y-5.1122
X9.7106Y-5.6358
X9.7106Y-6.4508
X9.7106Y-6.9744
X9.7106Y-7.7894
X9.7106Y-8.313
X9.7106Y-9.128
X9.7106Y-9.6516
T7
X0.8268Y-10.0787
X0.8661Y-0.5512
X0.8835Y-0.9213
X0.8835Y-2.2598
X0.8835Y-3.5984
X0.8835Y-4.937
X0.8835Y-6.2756
X0.8835Y-7.6142
X0.8835Y-8.9528
X1.7085Y-1.7213
X1.7085Y-3.0598
X1.7085Y-4.3984
X1.7085Y-5.737
X1.7085Y-7.0756
X1.7085Y-8.4142
X1.7085Y-9.7528
X3.4835Y-1.7213
X3.4835Y-3.0598
X3.4835Y-4.3984
X3.4835Y-5.737
X3.4835Y-7.0756
X3.4835Y-8.4142
X3.4835Y-9.7528
X4.3085Y-0.9213
X4.3085Y-2.2598
X4.3085Y-3.5984
X4.3085Y-4.937
X4.3085Y-6.2756
X4.3085Y-7.6142
X4.3085Y-8.9528
X4.9567Y-1.6758
X4.9567Y-5.1008
X4.9567Y-5.8096
X4.9567Y-9.2346
X5.7567Y-2.5008
X5.7567Y-4.2758
X5.7567Y-6.6346
X5.7567Y-8.4096
X6.3165Y-0.9213
X6.3165Y-2.2598
X6.3165Y-3.5984
X6.3165Y-4.937
X6.3165Y-6.2756
X6.3165Y-7.6142
X6.3165Y-8.9528
X7.1415Y-1.7213
X7.1415Y-3.0598
X7.1415Y-4.3984
X7.1415Y-5.737
X7.1415Y-7.0756
X7.1415Y-8.4142
X7.1415Y-9.7528
X8.9165Y-1.7213
X8.9165Y-3.0598
X8.9165Y-4.3984
X8.9165Y-5.737
X8.9165Y-7.0756
X8.9165Y-8.4142
X8.9165Y-9.7528
X9.7415Y-0.9213
X9.7415Y-2.2598
X9.7415Y-3.5984
X9.7415Y-4.937
X9.7415Y-6.2756
X9.7415Y-7.6142
X9.7415Y-8.9528
X9.7638Y-0.5512
X9.7638Y-10.0787
T0
M30
