G04 #@! TF.FileFunction,Profile,NP*
%FSLAX46Y46*%
G04 Gerber Fmt 4.6, Leading zero omitted, Abs format (unit mm)*
G04 Created by KiCad (PCBNEW (2015-01-16 BZR 5376)-product) date 14/09/2015 10:50:26*
%MOMM*%
G01*
G04 APERTURE LIST*
%ADD10C,0.100000*%
%ADD11C,2.000000*%
G04 APERTURE END LIST*
D10*
D11*
X260000000Y-10000000D02*
X10000000Y-10000000D01*
X260000000Y-260000000D02*
X260000000Y-10000000D01*
X10000000Y-260000000D02*
X260000000Y-260000000D01*
X10000000Y-9000000D02*
X10000000Y-260000000D01*
D10*
X251500000Y-24500000D02*
X251500000Y-42000000D01*
D11*
X161710000Y-18320000D02*
G75*
G03X155360000Y-24670000I0J-6350000D01*
G01*
X155360000Y-24670000D02*
X155360000Y-42450000D01*
X246063400Y-48165000D02*
G75*
G03X252413400Y-41815000I0J6350000D01*
G01*
X246076100Y-18256500D02*
G75*
G02X252426100Y-24606500I0J-6350000D01*
G01*
X161710000Y-48165000D02*
G75*
G02X155360000Y-41815000I0J6350000D01*
G01*
X161710000Y-48165000D02*
X166790000Y-48165000D01*
X161710000Y-18320000D02*
X202350000Y-18320000D01*
X206160000Y-18320000D02*
X246800000Y-18320000D01*
X170600000Y-48165000D02*
X237275000Y-48165000D01*
X246165000Y-48165000D02*
X241085000Y-48165000D01*
X252388000Y-24670000D02*
X252388000Y-41815000D01*
X252388000Y-58670000D02*
X252388000Y-75815000D01*
X246165000Y-82165000D02*
X241085000Y-82165000D01*
X170600000Y-82165000D02*
X237275000Y-82165000D01*
X206160000Y-52320000D02*
X246800000Y-52320000D01*
X161710000Y-52320000D02*
X202350000Y-52320000D01*
X161710000Y-82165000D02*
X166790000Y-82165000D01*
X161710000Y-82165000D02*
G75*
G02X155360000Y-75815000I0J6350000D01*
G01*
X246076100Y-52256500D02*
G75*
G02X252426100Y-58606500I0J-6350000D01*
G01*
X246063400Y-82165000D02*
G75*
G03X252413400Y-75815000I0J6350000D01*
G01*
X155360000Y-58670000D02*
X155360000Y-76450000D01*
X161710000Y-52320000D02*
G75*
G03X155360000Y-58670000I0J-6350000D01*
G01*
D10*
X251500000Y-58500000D02*
X251500000Y-76000000D01*
X251500000Y-92500000D02*
X251500000Y-110000000D01*
D11*
X161710000Y-86320000D02*
G75*
G03X155360000Y-92670000I0J-6350000D01*
G01*
X155360000Y-92670000D02*
X155360000Y-110450000D01*
X246063400Y-116165000D02*
G75*
G03X252413400Y-109815000I0J6350000D01*
G01*
X246076100Y-86256500D02*
G75*
G02X252426100Y-92606500I0J-6350000D01*
G01*
X161710000Y-116165000D02*
G75*
G02X155360000Y-109815000I0J6350000D01*
G01*
X161710000Y-116165000D02*
X166790000Y-116165000D01*
X161710000Y-86320000D02*
X202350000Y-86320000D01*
X206160000Y-86320000D02*
X246800000Y-86320000D01*
X170600000Y-116165000D02*
X237275000Y-116165000D01*
X246165000Y-116165000D02*
X241085000Y-116165000D01*
X252388000Y-92670000D02*
X252388000Y-109815000D01*
X252388000Y-194670000D02*
X252388000Y-211815000D01*
X246165000Y-218165000D02*
X241085000Y-218165000D01*
X170600000Y-218165000D02*
X237275000Y-218165000D01*
X206160000Y-188320000D02*
X246800000Y-188320000D01*
X161710000Y-188320000D02*
X202350000Y-188320000D01*
X161710000Y-218165000D02*
X166790000Y-218165000D01*
X161710000Y-218165000D02*
G75*
G02X155360000Y-211815000I0J6350000D01*
G01*
X246076100Y-188256500D02*
G75*
G02X252426100Y-194606500I0J-6350000D01*
G01*
X246063400Y-218165000D02*
G75*
G03X252413400Y-211815000I0J6350000D01*
G01*
X155360000Y-194670000D02*
X155360000Y-212450000D01*
X161710000Y-188320000D02*
G75*
G03X155360000Y-194670000I0J-6350000D01*
G01*
D10*
X251500000Y-194500000D02*
X251500000Y-212000000D01*
X251500000Y-160500000D02*
X251500000Y-178000000D01*
D11*
X161710000Y-154320000D02*
G75*
G03X155360000Y-160670000I0J-6350000D01*
G01*
X155360000Y-160670000D02*
X155360000Y-178450000D01*
X246063400Y-184165000D02*
G75*
G03X252413400Y-177815000I0J6350000D01*
G01*
X246076100Y-154256500D02*
G75*
G02X252426100Y-160606500I0J-6350000D01*
G01*
X161710000Y-184165000D02*
G75*
G02X155360000Y-177815000I0J6350000D01*
G01*
X161710000Y-184165000D02*
X166790000Y-184165000D01*
X161710000Y-154320000D02*
X202350000Y-154320000D01*
X206160000Y-154320000D02*
X246800000Y-154320000D01*
X170600000Y-184165000D02*
X237275000Y-184165000D01*
X246165000Y-184165000D02*
X241085000Y-184165000D01*
X252388000Y-160670000D02*
X252388000Y-177815000D01*
X252388000Y-126670000D02*
X252388000Y-143815000D01*
X246165000Y-150165000D02*
X241085000Y-150165000D01*
X170600000Y-150165000D02*
X237275000Y-150165000D01*
X206160000Y-120320000D02*
X246800000Y-120320000D01*
X161710000Y-120320000D02*
X202350000Y-120320000D01*
X161710000Y-150165000D02*
X166790000Y-150165000D01*
X161710000Y-150165000D02*
G75*
G02X155360000Y-143815000I0J6350000D01*
G01*
X246076100Y-120256500D02*
G75*
G02X252426100Y-126606500I0J-6350000D01*
G01*
X246063400Y-150165000D02*
G75*
G03X252413400Y-143815000I0J6350000D01*
G01*
X155360000Y-126670000D02*
X155360000Y-144450000D01*
X161710000Y-120320000D02*
G75*
G03X155360000Y-126670000I0J-6350000D01*
G01*
D10*
X251500000Y-126500000D02*
X251500000Y-144000000D01*
X251500000Y-228500000D02*
X251500000Y-246000000D01*
D11*
X161710000Y-222320000D02*
G75*
G03X155360000Y-228670000I0J-6350000D01*
G01*
X155360000Y-228670000D02*
X155360000Y-246450000D01*
X246063400Y-252165000D02*
G75*
G03X252413400Y-245815000I0J6350000D01*
G01*
X246076100Y-222256500D02*
G75*
G02X252426100Y-228606500I0J-6350000D01*
G01*
X161710000Y-252165000D02*
G75*
G02X155360000Y-245815000I0J6350000D01*
G01*
X161710000Y-252165000D02*
X166790000Y-252165000D01*
X161710000Y-222320000D02*
X202350000Y-222320000D01*
X206160000Y-222320000D02*
X246800000Y-222320000D01*
X170600000Y-252165000D02*
X237275000Y-252165000D01*
X246165000Y-252165000D02*
X241085000Y-252165000D01*
X252388000Y-228670000D02*
X252388000Y-245815000D01*
X114388000Y-228670000D02*
X114388000Y-245815000D01*
X108165000Y-252165000D02*
X103085000Y-252165000D01*
X32600000Y-252165000D02*
X99275000Y-252165000D01*
X68160000Y-222320000D02*
X108800000Y-222320000D01*
X23710000Y-222320000D02*
X64350000Y-222320000D01*
X23710000Y-252165000D02*
X28790000Y-252165000D01*
X23710000Y-252165000D02*
G75*
G02X17360000Y-245815000I0J6350000D01*
G01*
X108076100Y-222256500D02*
G75*
G02X114426100Y-228606500I0J-6350000D01*
G01*
X108063400Y-252165000D02*
G75*
G03X114413400Y-245815000I0J6350000D01*
G01*
X17360000Y-228670000D02*
X17360000Y-246450000D01*
X23710000Y-222320000D02*
G75*
G03X17360000Y-228670000I0J-6350000D01*
G01*
D10*
X113500000Y-228500000D02*
X113500000Y-246000000D01*
X113500000Y-126500000D02*
X113500000Y-144000000D01*
D11*
X23710000Y-120320000D02*
G75*
G03X17360000Y-126670000I0J-6350000D01*
G01*
X17360000Y-126670000D02*
X17360000Y-144450000D01*
X108063400Y-150165000D02*
G75*
G03X114413400Y-143815000I0J6350000D01*
G01*
X108076100Y-120256500D02*
G75*
G02X114426100Y-126606500I0J-6350000D01*
G01*
X23710000Y-150165000D02*
G75*
G02X17360000Y-143815000I0J6350000D01*
G01*
X23710000Y-150165000D02*
X28790000Y-150165000D01*
X23710000Y-120320000D02*
X64350000Y-120320000D01*
X68160000Y-120320000D02*
X108800000Y-120320000D01*
X32600000Y-150165000D02*
X99275000Y-150165000D01*
X108165000Y-150165000D02*
X103085000Y-150165000D01*
X114388000Y-126670000D02*
X114388000Y-143815000D01*
X114388000Y-160670000D02*
X114388000Y-177815000D01*
X108165000Y-184165000D02*
X103085000Y-184165000D01*
X32600000Y-184165000D02*
X99275000Y-184165000D01*
X68160000Y-154320000D02*
X108800000Y-154320000D01*
X23710000Y-154320000D02*
X64350000Y-154320000D01*
X23710000Y-184165000D02*
X28790000Y-184165000D01*
X23710000Y-184165000D02*
G75*
G02X17360000Y-177815000I0J6350000D01*
G01*
X108076100Y-154256500D02*
G75*
G02X114426100Y-160606500I0J-6350000D01*
G01*
X108063400Y-184165000D02*
G75*
G03X114413400Y-177815000I0J6350000D01*
G01*
X17360000Y-160670000D02*
X17360000Y-178450000D01*
X23710000Y-154320000D02*
G75*
G03X17360000Y-160670000I0J-6350000D01*
G01*
D10*
X113500000Y-160500000D02*
X113500000Y-178000000D01*
X127000000Y-143500000D02*
X144500000Y-143500000D01*
D11*
X120820000Y-233290000D02*
G75*
G03X127170000Y-239640000I6350000J0D01*
G01*
X127170000Y-239640000D02*
X144950000Y-239640000D01*
X150665000Y-148936600D02*
G75*
G03X144315000Y-142586600I-6350000J0D01*
G01*
X120756500Y-148923900D02*
G75*
G02X127106500Y-142573900I6350000J0D01*
G01*
X150665000Y-233290000D02*
G75*
G02X144315000Y-239640000I-6350000J0D01*
G01*
X150665000Y-233290000D02*
X150665000Y-228210000D01*
X120820000Y-233290000D02*
X120820000Y-192650000D01*
X120820000Y-188840000D02*
X120820000Y-148200000D01*
X150665000Y-224400000D02*
X150665000Y-157725000D01*
X150665000Y-148835000D02*
X150665000Y-153915000D01*
X127170000Y-142612000D02*
X144315000Y-142612000D01*
D10*
X113500000Y-194500000D02*
X113500000Y-212000000D01*
D11*
X23710000Y-188320000D02*
G75*
G03X17360000Y-194670000I0J-6350000D01*
G01*
X17360000Y-194670000D02*
X17360000Y-212450000D01*
X108063400Y-218165000D02*
G75*
G03X114413400Y-211815000I0J6350000D01*
G01*
X108076100Y-188256500D02*
G75*
G02X114426100Y-194606500I0J-6350000D01*
G01*
X23710000Y-218165000D02*
G75*
G02X17360000Y-211815000I0J6350000D01*
G01*
X23710000Y-218165000D02*
X28790000Y-218165000D01*
X23710000Y-188320000D02*
X64350000Y-188320000D01*
X68160000Y-188320000D02*
X108800000Y-188320000D01*
X32600000Y-218165000D02*
X99275000Y-218165000D01*
X108165000Y-218165000D02*
X103085000Y-218165000D01*
X114388000Y-194670000D02*
X114388000Y-211815000D01*
X114388000Y-92670000D02*
X114388000Y-109815000D01*
X108165000Y-116165000D02*
X103085000Y-116165000D01*
X32600000Y-116165000D02*
X99275000Y-116165000D01*
X68160000Y-86320000D02*
X108800000Y-86320000D01*
X23710000Y-86320000D02*
X64350000Y-86320000D01*
X23710000Y-116165000D02*
X28790000Y-116165000D01*
X23710000Y-116165000D02*
G75*
G02X17360000Y-109815000I0J6350000D01*
G01*
X108076100Y-86256500D02*
G75*
G02X114426100Y-92606500I0J-6350000D01*
G01*
X108063400Y-116165000D02*
G75*
G03X114413400Y-109815000I0J6350000D01*
G01*
X17360000Y-92670000D02*
X17360000Y-110450000D01*
X23710000Y-86320000D02*
G75*
G03X17360000Y-92670000I0J-6350000D01*
G01*
D10*
X113500000Y-92500000D02*
X113500000Y-110000000D01*
D11*
X127170000Y-37612000D02*
X144315000Y-37612000D01*
X150665000Y-43835000D02*
X150665000Y-48915000D01*
X150665000Y-119400000D02*
X150665000Y-52725000D01*
X120820000Y-83840000D02*
X120820000Y-43200000D01*
X120820000Y-128290000D02*
X120820000Y-87650000D01*
X150665000Y-128290000D02*
X150665000Y-123210000D01*
X150665000Y-128290000D02*
G75*
G02X144315000Y-134640000I-6350000J0D01*
G01*
X120756500Y-43923900D02*
G75*
G02X127106500Y-37573900I6350000J0D01*
G01*
X150665000Y-43936600D02*
G75*
G03X144315000Y-37586600I-6350000J0D01*
G01*
X127170000Y-134640000D02*
X144950000Y-134640000D01*
X120820000Y-128290000D02*
G75*
G03X127170000Y-134640000I6350000J0D01*
G01*
D10*
X127000000Y-38500000D02*
X144500000Y-38500000D01*
X113500000Y-58500000D02*
X113500000Y-76000000D01*
D11*
X23710000Y-52320000D02*
G75*
G03X17360000Y-58670000I0J-6350000D01*
G01*
X17360000Y-58670000D02*
X17360000Y-76450000D01*
X108063400Y-82165000D02*
G75*
G03X114413400Y-75815000I0J6350000D01*
G01*
X108076100Y-52256500D02*
G75*
G02X114426100Y-58606500I0J-6350000D01*
G01*
X23710000Y-82165000D02*
G75*
G02X17360000Y-75815000I0J6350000D01*
G01*
X23710000Y-82165000D02*
X28790000Y-82165000D01*
X23710000Y-52320000D02*
X64350000Y-52320000D01*
X68160000Y-52320000D02*
X108800000Y-52320000D01*
X32600000Y-82165000D02*
X99275000Y-82165000D01*
X108165000Y-82165000D02*
X103085000Y-82165000D01*
X114388000Y-58670000D02*
X114388000Y-75815000D01*
X114388000Y-24670000D02*
X114388000Y-41815000D01*
X108165000Y-48165000D02*
X103085000Y-48165000D01*
X32600000Y-48165000D02*
X99275000Y-48165000D01*
X68160000Y-18320000D02*
X108800000Y-18320000D01*
X23710000Y-18320000D02*
X64350000Y-18320000D01*
X23710000Y-48165000D02*
X28790000Y-48165000D01*
X23710000Y-48165000D02*
G75*
G02X17360000Y-41815000I0J6350000D01*
G01*
X108076100Y-18256500D02*
G75*
G02X114426100Y-24606500I0J-6350000D01*
G01*
X108063400Y-48165000D02*
G75*
G03X114413400Y-41815000I0J6350000D01*
G01*
X17360000Y-24670000D02*
X17360000Y-42450000D01*
X23710000Y-18320000D02*
G75*
G03X17360000Y-24670000I0J-6350000D01*
G01*
D10*
X113500000Y-24500000D02*
X113500000Y-42000000D01*
M02*
