G04 #@! TF.FileFunction,Legend,Bot*
%FSLAX46Y46*%
G04 Gerber Fmt 4.6, Leading zero omitted, Abs format (unit mm)*
G04 Created by KiCad (PCBNEW (2015-01-16 BZR 5376)-product) date 23/06/2015 15:38:06*
%MOMM*%
G01*
G04 APERTURE LIST*
%ADD10C,0.100000*%
%ADD11C,4.000000*%
%ADD12C,0.300000*%
%ADD13R,1.727200X1.727200*%
%ADD14O,1.727200X1.727200*%
%ADD15R,1.300000X1.300000*%
%ADD16C,1.300000*%
%ADD17O,1.800000X2.600000*%
%ADD18O,1.524000X2.000000*%
%ADD19O,2.000000X1.540000*%
G04 APERTURE END LIST*
D10*
G36*
X207379532Y-93810667D02*
X207893266Y-93908801D01*
X208163349Y-93958023D01*
X208354376Y-93988340D01*
X208420350Y-93993468D01*
X208448289Y-93912431D01*
X208519235Y-93692743D01*
X208625881Y-93357439D01*
X208760917Y-92929554D01*
X208917034Y-92432120D01*
X209002230Y-92159667D01*
X209166714Y-91634848D01*
X209314397Y-91167121D01*
X209437856Y-90779709D01*
X209529669Y-90495836D01*
X209582412Y-90338725D01*
X209591845Y-90314925D01*
X209624954Y-90382552D01*
X209703817Y-90585284D01*
X209819176Y-90898076D01*
X209961772Y-91295885D01*
X210100473Y-91690758D01*
X210259810Y-92144181D01*
X210400428Y-92536388D01*
X210512907Y-92841747D01*
X210587828Y-93034628D01*
X210615030Y-93091000D01*
X210674897Y-93028972D01*
X210823676Y-92857184D01*
X211043230Y-92597076D01*
X211315419Y-92270091D01*
X211546092Y-91990334D01*
X211847219Y-91626631D01*
X212110946Y-91313620D01*
X212318794Y-91072791D01*
X212452282Y-90925635D01*
X212492567Y-90889667D01*
X212503251Y-90969170D01*
X212505699Y-91187540D01*
X212500996Y-91514565D01*
X212490228Y-91920036D01*
X212474479Y-92373743D01*
X212454835Y-92845474D01*
X212432382Y-93305021D01*
X212408204Y-93722172D01*
X212383388Y-94066717D01*
X212375011Y-94161811D01*
X212350408Y-94407969D01*
X212351682Y-94567067D01*
X212407450Y-94664649D01*
X212546328Y-94726258D01*
X212796932Y-94777437D01*
X213127166Y-94833194D01*
X213444666Y-94887845D01*
X213444216Y-94349256D01*
X213447519Y-94120605D01*
X213457059Y-93751299D01*
X213471908Y-93269864D01*
X213491139Y-92704826D01*
X213513823Y-92084712D01*
X213538293Y-91456465D01*
X213561814Y-90843461D01*
X213581034Y-90288011D01*
X213595368Y-89811908D01*
X213604229Y-89436944D01*
X213607033Y-89184914D01*
X213603193Y-89077610D01*
X213602243Y-89075481D01*
X213507651Y-89048564D01*
X213302561Y-89010795D01*
X213177701Y-88991557D01*
X212783736Y-88934418D01*
X211876609Y-90085561D01*
X211579660Y-90458059D01*
X211319436Y-90776273D01*
X211113425Y-91019484D01*
X210979116Y-91166969D01*
X210934544Y-91201766D01*
X210897451Y-91113733D01*
X210816871Y-90892125D01*
X210702352Y-90564182D01*
X210563443Y-90157142D01*
X210450801Y-89821747D01*
X210001998Y-88476667D01*
X209590064Y-88373324D01*
X209351974Y-88317662D01*
X209195733Y-88288865D01*
X209162681Y-88288657D01*
X209134094Y-88370721D01*
X209059887Y-88595396D01*
X208946112Y-88944037D01*
X208798822Y-89397998D01*
X208624070Y-89938634D01*
X208427907Y-90547299D01*
X208263381Y-91059000D01*
X207379532Y-93810667D01*
X207379532Y-93810667D01*
X207379532Y-93810667D01*
G37*
X207379532Y-93810667D02*
X207893266Y-93908801D01*
X208163349Y-93958023D01*
X208354376Y-93988340D01*
X208420350Y-93993468D01*
X208448289Y-93912431D01*
X208519235Y-93692743D01*
X208625881Y-93357439D01*
X208760917Y-92929554D01*
X208917034Y-92432120D01*
X209002230Y-92159667D01*
X209166714Y-91634848D01*
X209314397Y-91167121D01*
X209437856Y-90779709D01*
X209529669Y-90495836D01*
X209582412Y-90338725D01*
X209591845Y-90314925D01*
X209624954Y-90382552D01*
X209703817Y-90585284D01*
X209819176Y-90898076D01*
X209961772Y-91295885D01*
X210100473Y-91690758D01*
X210259810Y-92144181D01*
X210400428Y-92536388D01*
X210512907Y-92841747D01*
X210587828Y-93034628D01*
X210615030Y-93091000D01*
X210674897Y-93028972D01*
X210823676Y-92857184D01*
X211043230Y-92597076D01*
X211315419Y-92270091D01*
X211546092Y-91990334D01*
X211847219Y-91626631D01*
X212110946Y-91313620D01*
X212318794Y-91072791D01*
X212452282Y-90925635D01*
X212492567Y-90889667D01*
X212503251Y-90969170D01*
X212505699Y-91187540D01*
X212500996Y-91514565D01*
X212490228Y-91920036D01*
X212474479Y-92373743D01*
X212454835Y-92845474D01*
X212432382Y-93305021D01*
X212408204Y-93722172D01*
X212383388Y-94066717D01*
X212375011Y-94161811D01*
X212350408Y-94407969D01*
X212351682Y-94567067D01*
X212407450Y-94664649D01*
X212546328Y-94726258D01*
X212796932Y-94777437D01*
X213127166Y-94833194D01*
X213444666Y-94887845D01*
X213444216Y-94349256D01*
X213447519Y-94120605D01*
X213457059Y-93751299D01*
X213471908Y-93269864D01*
X213491139Y-92704826D01*
X213513823Y-92084712D01*
X213538293Y-91456465D01*
X213561814Y-90843461D01*
X213581034Y-90288011D01*
X213595368Y-89811908D01*
X213604229Y-89436944D01*
X213607033Y-89184914D01*
X213603193Y-89077610D01*
X213602243Y-89075481D01*
X213507651Y-89048564D01*
X213302561Y-89010795D01*
X213177701Y-88991557D01*
X212783736Y-88934418D01*
X211876609Y-90085561D01*
X211579660Y-90458059D01*
X211319436Y-90776273D01*
X211113425Y-91019484D01*
X210979116Y-91166969D01*
X210934544Y-91201766D01*
X210897451Y-91113733D01*
X210816871Y-90892125D01*
X210702352Y-90564182D01*
X210563443Y-90157142D01*
X210450801Y-89821747D01*
X210001998Y-88476667D01*
X209590064Y-88373324D01*
X209351974Y-88317662D01*
X209195733Y-88288865D01*
X209162681Y-88288657D01*
X209134094Y-88370721D01*
X209059887Y-88595396D01*
X208946112Y-88944037D01*
X208798822Y-89397998D01*
X208624070Y-89938634D01*
X208427907Y-90547299D01*
X208263381Y-91059000D01*
X207379532Y-93810667D01*
X207379532Y-93810667D01*
G36*
X203587210Y-92790798D02*
X203608054Y-92939404D01*
X203620995Y-92961183D01*
X203834445Y-93120785D01*
X204170012Y-93263589D01*
X204580619Y-93379735D01*
X205019193Y-93459362D01*
X205438658Y-93492610D01*
X205791939Y-93469619D01*
X205909881Y-93440615D01*
X206465849Y-93184964D01*
X206888563Y-92826848D01*
X207180111Y-92363247D01*
X207342580Y-91791142D01*
X207380774Y-91313000D01*
X207371827Y-90922578D01*
X207326503Y-90635719D01*
X207233182Y-90388473D01*
X207201522Y-90326356D01*
X206869418Y-89870706D01*
X206434262Y-89539318D01*
X205919928Y-89344372D01*
X205350292Y-89298045D01*
X205209395Y-89310228D01*
X204700882Y-89448646D01*
X204281343Y-89722738D01*
X203966848Y-90115342D01*
X203773463Y-90609298D01*
X203726748Y-90893675D01*
X203708598Y-91138833D01*
X203733672Y-91265192D01*
X203828682Y-91322480D01*
X203972947Y-91351987D01*
X204178467Y-91388553D01*
X204498944Y-91445802D01*
X204882671Y-91514491D01*
X205121736Y-91557347D01*
X205532051Y-91627807D01*
X205804297Y-91658089D01*
X205966777Y-91639557D01*
X206047791Y-91563574D01*
X206075642Y-91421505D01*
X206078666Y-91265355D01*
X206075608Y-91170539D01*
X206046618Y-91104027D01*
X205961978Y-91052828D01*
X205791970Y-91003947D01*
X205506873Y-90944392D01*
X205215428Y-90887951D01*
X204921904Y-90814064D01*
X204787980Y-90720311D01*
X204804037Y-90580601D01*
X204960456Y-90368840D01*
X205005375Y-90318167D01*
X205244792Y-90164394D01*
X205536986Y-90132578D01*
X205838289Y-90205490D01*
X206105037Y-90365900D01*
X206293562Y-90596578D01*
X206360327Y-90852790D01*
X206340771Y-91329242D01*
X206268929Y-91752769D01*
X206154220Y-92080501D01*
X206058958Y-92224202D01*
X205753468Y-92483481D01*
X205419672Y-92622744D01*
X205037445Y-92641599D01*
X204586658Y-92539652D01*
X204047184Y-92316511D01*
X203776238Y-92179679D01*
X203710749Y-92221050D01*
X203649873Y-92374665D01*
X203604922Y-92583566D01*
X203587210Y-92790798D01*
X203587210Y-92790798D01*
X203587210Y-92790798D01*
G37*
X203587210Y-92790798D02*
X203608054Y-92939404D01*
X203620995Y-92961183D01*
X203834445Y-93120785D01*
X204170012Y-93263589D01*
X204580619Y-93379735D01*
X205019193Y-93459362D01*
X205438658Y-93492610D01*
X205791939Y-93469619D01*
X205909881Y-93440615D01*
X206465849Y-93184964D01*
X206888563Y-92826848D01*
X207180111Y-92363247D01*
X207342580Y-91791142D01*
X207380774Y-91313000D01*
X207371827Y-90922578D01*
X207326503Y-90635719D01*
X207233182Y-90388473D01*
X207201522Y-90326356D01*
X206869418Y-89870706D01*
X206434262Y-89539318D01*
X205919928Y-89344372D01*
X205350292Y-89298045D01*
X205209395Y-89310228D01*
X204700882Y-89448646D01*
X204281343Y-89722738D01*
X203966848Y-90115342D01*
X203773463Y-90609298D01*
X203726748Y-90893675D01*
X203708598Y-91138833D01*
X203733672Y-91265192D01*
X203828682Y-91322480D01*
X203972947Y-91351987D01*
X204178467Y-91388553D01*
X204498944Y-91445802D01*
X204882671Y-91514491D01*
X205121736Y-91557347D01*
X205532051Y-91627807D01*
X205804297Y-91658089D01*
X205966777Y-91639557D01*
X206047791Y-91563574D01*
X206075642Y-91421505D01*
X206078666Y-91265355D01*
X206075608Y-91170539D01*
X206046618Y-91104027D01*
X205961978Y-91052828D01*
X205791970Y-91003947D01*
X205506873Y-90944392D01*
X205215428Y-90887951D01*
X204921904Y-90814064D01*
X204787980Y-90720311D01*
X204804037Y-90580601D01*
X204960456Y-90368840D01*
X205005375Y-90318167D01*
X205244792Y-90164394D01*
X205536986Y-90132578D01*
X205838289Y-90205490D01*
X206105037Y-90365900D01*
X206293562Y-90596578D01*
X206360327Y-90852790D01*
X206340771Y-91329242D01*
X206268929Y-91752769D01*
X206154220Y-92080501D01*
X206058958Y-92224202D01*
X205753468Y-92483481D01*
X205419672Y-92622744D01*
X205037445Y-92641599D01*
X204586658Y-92539652D01*
X204047184Y-92316511D01*
X203776238Y-92179679D01*
X203710749Y-92221050D01*
X203649873Y-92374665D01*
X203604922Y-92583566D01*
X203587210Y-92790798D01*
X203587210Y-92790798D01*
G36*
X201203621Y-87090589D02*
X201211817Y-87253540D01*
X201245579Y-87506610D01*
X201307464Y-87870557D01*
X201400028Y-88366133D01*
X201476760Y-88763048D01*
X201562286Y-89234495D01*
X201638292Y-89712655D01*
X201695773Y-90137297D01*
X201723547Y-90414048D01*
X201763218Y-90785831D01*
X201823989Y-91151387D01*
X201883332Y-91397667D01*
X201970316Y-91719453D01*
X202040630Y-92045183D01*
X202052855Y-92117334D01*
X202111528Y-92482929D01*
X202162797Y-92715162D01*
X202224942Y-92848047D01*
X202316238Y-92915596D01*
X202454964Y-92951824D01*
X202506358Y-92961269D01*
X202771139Y-93012263D01*
X202995107Y-93060218D01*
X203009500Y-93063626D01*
X203156848Y-93072454D01*
X203202488Y-93036679D01*
X203189643Y-92938975D01*
X203152007Y-92693724D01*
X203092720Y-92320392D01*
X203014922Y-91838447D01*
X202921752Y-91267355D01*
X202816352Y-90626582D01*
X202716489Y-90023615D01*
X202228003Y-87083230D01*
X201783886Y-86991032D01*
X201518963Y-86948435D01*
X201319347Y-86938800D01*
X201253701Y-86952027D01*
X201218434Y-86997003D01*
X201203621Y-87090589D01*
X201203621Y-87090589D01*
X201203621Y-87090589D01*
G37*
X201203621Y-87090589D02*
X201211817Y-87253540D01*
X201245579Y-87506610D01*
X201307464Y-87870557D01*
X201400028Y-88366133D01*
X201476760Y-88763048D01*
X201562286Y-89234495D01*
X201638292Y-89712655D01*
X201695773Y-90137297D01*
X201723547Y-90414048D01*
X201763218Y-90785831D01*
X201823989Y-91151387D01*
X201883332Y-91397667D01*
X201970316Y-91719453D01*
X202040630Y-92045183D01*
X202052855Y-92117334D01*
X202111528Y-92482929D01*
X202162797Y-92715162D01*
X202224942Y-92848047D01*
X202316238Y-92915596D01*
X202454964Y-92951824D01*
X202506358Y-92961269D01*
X202771139Y-93012263D01*
X202995107Y-93060218D01*
X203009500Y-93063626D01*
X203156848Y-93072454D01*
X203202488Y-93036679D01*
X203189643Y-92938975D01*
X203152007Y-92693724D01*
X203092720Y-92320392D01*
X203014922Y-91838447D01*
X202921752Y-91267355D01*
X202816352Y-90626582D01*
X202716489Y-90023615D01*
X202228003Y-87083230D01*
X201783886Y-86991032D01*
X201518963Y-86948435D01*
X201319347Y-86938800D01*
X201253701Y-86952027D01*
X201218434Y-86997003D01*
X201203621Y-87090589D01*
X201203621Y-87090589D01*
G36*
X198289333Y-92177981D02*
X198364299Y-92220992D01*
X198552955Y-92268567D01*
X198649166Y-92285410D01*
X198908266Y-92329678D01*
X199111954Y-92371258D01*
X199149440Y-92380772D01*
X199247805Y-92356599D01*
X199373917Y-92221591D01*
X199542899Y-91957368D01*
X199642204Y-91781920D01*
X199848885Y-91438225D01*
X200017737Y-91220229D01*
X200136490Y-91143767D01*
X200136764Y-91143767D01*
X200285900Y-91159096D01*
X200547894Y-91199455D01*
X200869580Y-91256555D01*
X200912948Y-91264763D01*
X201219520Y-91318014D01*
X201455049Y-91349131D01*
X201576285Y-91352634D01*
X201582872Y-91349684D01*
X201590009Y-91253478D01*
X201571431Y-91041467D01*
X201541590Y-90827890D01*
X201464333Y-90342072D01*
X201042856Y-90272003D01*
X200795834Y-90226306D01*
X200629155Y-90186768D01*
X200590796Y-90171351D01*
X200616147Y-90089608D01*
X200710484Y-89899132D01*
X200855416Y-89636237D01*
X200906787Y-89547349D01*
X201253363Y-88953931D01*
X201157447Y-88291965D01*
X201105156Y-87964773D01*
X201053507Y-87697540D01*
X201012174Y-87539231D01*
X201005868Y-87524705D01*
X200956273Y-87575918D01*
X200835791Y-87753843D01*
X200656594Y-88037629D01*
X200430855Y-88406423D01*
X200170747Y-88839376D01*
X199888442Y-89315636D01*
X199596113Y-89814352D01*
X199305932Y-90314672D01*
X199030074Y-90795746D01*
X198780709Y-91236722D01*
X198570011Y-91616749D01*
X198410152Y-91914976D01*
X198313306Y-92110553D01*
X198289333Y-92177981D01*
X198289333Y-92177981D01*
X198289333Y-92177981D01*
G37*
X198289333Y-92177981D02*
X198364299Y-92220992D01*
X198552955Y-92268567D01*
X198649166Y-92285410D01*
X198908266Y-92329678D01*
X199111954Y-92371258D01*
X199149440Y-92380772D01*
X199247805Y-92356599D01*
X199373917Y-92221591D01*
X199542899Y-91957368D01*
X199642204Y-91781920D01*
X199848885Y-91438225D01*
X200017737Y-91220229D01*
X200136490Y-91143767D01*
X200136764Y-91143767D01*
X200285900Y-91159096D01*
X200547894Y-91199455D01*
X200869580Y-91256555D01*
X200912948Y-91264763D01*
X201219520Y-91318014D01*
X201455049Y-91349131D01*
X201576285Y-91352634D01*
X201582872Y-91349684D01*
X201590009Y-91253478D01*
X201571431Y-91041467D01*
X201541590Y-90827890D01*
X201464333Y-90342072D01*
X201042856Y-90272003D01*
X200795834Y-90226306D01*
X200629155Y-90186768D01*
X200590796Y-90171351D01*
X200616147Y-90089608D01*
X200710484Y-89899132D01*
X200855416Y-89636237D01*
X200906787Y-89547349D01*
X201253363Y-88953931D01*
X201157447Y-88291965D01*
X201105156Y-87964773D01*
X201053507Y-87697540D01*
X201012174Y-87539231D01*
X201005868Y-87524705D01*
X200956273Y-87575918D01*
X200835791Y-87753843D01*
X200656594Y-88037629D01*
X200430855Y-88406423D01*
X200170747Y-88839376D01*
X199888442Y-89315636D01*
X199596113Y-89814352D01*
X199305932Y-90314672D01*
X199030074Y-90795746D01*
X198780709Y-91236722D01*
X198570011Y-91616749D01*
X198410152Y-91914976D01*
X198313306Y-92110553D01*
X198289333Y-92177981D01*
X198289333Y-92177981D01*
G36*
X196342000Y-88134164D02*
X196346659Y-88399896D01*
X196378390Y-88543180D01*
X196463820Y-88610901D01*
X196629579Y-88649944D01*
X196635580Y-88651070D01*
X196908290Y-88749739D01*
X197149881Y-88916717D01*
X197312508Y-89111719D01*
X197353811Y-89255791D01*
X197337701Y-89389251D01*
X197296081Y-89656193D01*
X197234412Y-90023623D01*
X197158156Y-90458547D01*
X197115649Y-90694401D01*
X196881675Y-91980801D01*
X197225671Y-92034086D01*
X197480028Y-92077581D01*
X197678131Y-92118418D01*
X197708005Y-92126105D01*
X197837458Y-92092292D01*
X197891564Y-91971753D01*
X197938144Y-91749503D01*
X198001012Y-91416577D01*
X198075457Y-91001451D01*
X198156771Y-90532597D01*
X198240244Y-90038492D01*
X198321168Y-89547608D01*
X198394833Y-89088420D01*
X198456530Y-88689403D01*
X198501550Y-88379031D01*
X198525184Y-88185777D01*
X198526114Y-88134893D01*
X198417489Y-88090981D01*
X198212522Y-88044389D01*
X197975224Y-88005478D01*
X197769606Y-87984611D01*
X197659679Y-87992147D01*
X197657013Y-87994209D01*
X197619234Y-88107093D01*
X197612000Y-88203215D01*
X197596499Y-88287715D01*
X197529993Y-88278355D01*
X197382478Y-88164883D01*
X197306261Y-88098766D01*
X196943334Y-87832958D01*
X196610773Y-87691366D01*
X196463488Y-87672334D01*
X196388951Y-87720236D01*
X196351041Y-87882992D01*
X196342000Y-88134164D01*
X196342000Y-88134164D01*
X196342000Y-88134164D01*
G37*
X196342000Y-88134164D02*
X196346659Y-88399896D01*
X196378390Y-88543180D01*
X196463820Y-88610901D01*
X196629579Y-88649944D01*
X196635580Y-88651070D01*
X196908290Y-88749739D01*
X197149881Y-88916717D01*
X197312508Y-89111719D01*
X197353811Y-89255791D01*
X197337701Y-89389251D01*
X197296081Y-89656193D01*
X197234412Y-90023623D01*
X197158156Y-90458547D01*
X197115649Y-90694401D01*
X196881675Y-91980801D01*
X197225671Y-92034086D01*
X197480028Y-92077581D01*
X197678131Y-92118418D01*
X197708005Y-92126105D01*
X197837458Y-92092292D01*
X197891564Y-91971753D01*
X197938144Y-91749503D01*
X198001012Y-91416577D01*
X198075457Y-91001451D01*
X198156771Y-90532597D01*
X198240244Y-90038492D01*
X198321168Y-89547608D01*
X198394833Y-89088420D01*
X198456530Y-88689403D01*
X198501550Y-88379031D01*
X198525184Y-88185777D01*
X198526114Y-88134893D01*
X198417489Y-88090981D01*
X198212522Y-88044389D01*
X197975224Y-88005478D01*
X197769606Y-87984611D01*
X197659679Y-87992147D01*
X197657013Y-87994209D01*
X197619234Y-88107093D01*
X197612000Y-88203215D01*
X197596499Y-88287715D01*
X197529993Y-88278355D01*
X197382478Y-88164883D01*
X197306261Y-88098766D01*
X196943334Y-87832958D01*
X196610773Y-87691366D01*
X196463488Y-87672334D01*
X196388951Y-87720236D01*
X196351041Y-87882992D01*
X196342000Y-88134164D01*
X196342000Y-88134164D01*
G36*
X189152080Y-90571294D02*
X189155909Y-90589385D01*
X189250265Y-90620830D01*
X189458302Y-90667827D01*
X189630241Y-90700957D01*
X189807569Y-90736060D01*
X189935908Y-90751833D01*
X190027821Y-90726003D01*
X190095873Y-90636297D01*
X190152628Y-90460442D01*
X190210651Y-90176167D01*
X190282505Y-89761198D01*
X190335732Y-89450334D01*
X190439447Y-88885551D01*
X190533639Y-88463352D01*
X190627515Y-88158028D01*
X190730281Y-87943869D01*
X190851140Y-87795163D01*
X190958221Y-87711760D01*
X191235432Y-87615261D01*
X191543208Y-87634182D01*
X191830173Y-87749941D01*
X192044952Y-87943960D01*
X192128835Y-88135101D01*
X192128573Y-88289771D01*
X192101126Y-88576756D01*
X192050745Y-88961984D01*
X191981685Y-89411381D01*
X191935676Y-89682707D01*
X191840749Y-90258372D01*
X191783897Y-90684679D01*
X191765657Y-90956595D01*
X191786565Y-91069090D01*
X191787864Y-91069987D01*
X191906477Y-91108337D01*
X192114869Y-91151240D01*
X192351038Y-91188944D01*
X192552987Y-91211701D01*
X192658713Y-91209760D01*
X192661958Y-91207443D01*
X192681917Y-91121061D01*
X192725234Y-90897229D01*
X192786437Y-90565360D01*
X192860054Y-90154865D01*
X192900191Y-89927131D01*
X193017796Y-89308380D01*
X193130328Y-88839532D01*
X193245388Y-88501629D01*
X193370577Y-88275716D01*
X193513497Y-88142836D01*
X193635585Y-88093144D01*
X193959460Y-88079254D01*
X194303523Y-88162000D01*
X194577556Y-88319606D01*
X194578940Y-88320854D01*
X194647898Y-88394906D01*
X194693624Y-88487071D01*
X194714926Y-88620040D01*
X194710617Y-88816504D01*
X194679504Y-89099157D01*
X194620400Y-89490690D01*
X194532113Y-90013794D01*
X194472137Y-90357527D01*
X194402678Y-90771273D01*
X194349833Y-91121387D01*
X194317945Y-91376151D01*
X194311356Y-91503847D01*
X194314082Y-91512120D01*
X194412940Y-91542672D01*
X194624957Y-91582306D01*
X194793346Y-91607226D01*
X195051732Y-91636199D01*
X195189425Y-91624312D01*
X195252799Y-91558322D01*
X195278722Y-91468632D01*
X195336605Y-91188077D01*
X195407821Y-90808854D01*
X195487636Y-90360102D01*
X195571314Y-89870957D01*
X195654120Y-89370557D01*
X195731322Y-88888039D01*
X195798183Y-88452540D01*
X195849969Y-88093197D01*
X195881945Y-87839147D01*
X195889378Y-87719527D01*
X195888520Y-87715895D01*
X195786275Y-87636540D01*
X195582712Y-87569874D01*
X195523867Y-87558589D01*
X195279698Y-87541285D01*
X195135153Y-87600406D01*
X195093784Y-87646320D01*
X195008100Y-87733530D01*
X194917232Y-87711765D01*
X194797450Y-87608645D01*
X194437482Y-87379027D01*
X193998160Y-87261100D01*
X193532025Y-87260359D01*
X193091617Y-87382299D01*
X193011352Y-87421835D01*
X192688879Y-87594671D01*
X192517770Y-87377140D01*
X192244885Y-87132137D01*
X191867463Y-86925788D01*
X191450232Y-86791964D01*
X191372046Y-86777571D01*
X190887855Y-86779490D01*
X190445157Y-86933920D01*
X190065960Y-87225164D01*
X189772271Y-87637525D01*
X189617974Y-88028666D01*
X189556604Y-88274160D01*
X189483630Y-88609585D01*
X189405303Y-89000310D01*
X189327872Y-89411701D01*
X189257584Y-89809127D01*
X189200691Y-90157956D01*
X189163439Y-90423556D01*
X189152080Y-90571294D01*
X189152080Y-90571294D01*
X189152080Y-90571294D01*
G37*
X189152080Y-90571294D02*
X189155909Y-90589385D01*
X189250265Y-90620830D01*
X189458302Y-90667827D01*
X189630241Y-90700957D01*
X189807569Y-90736060D01*
X189935908Y-90751833D01*
X190027821Y-90726003D01*
X190095873Y-90636297D01*
X190152628Y-90460442D01*
X190210651Y-90176167D01*
X190282505Y-89761198D01*
X190335732Y-89450334D01*
X190439447Y-88885551D01*
X190533639Y-88463352D01*
X190627515Y-88158028D01*
X190730281Y-87943869D01*
X190851140Y-87795163D01*
X190958221Y-87711760D01*
X191235432Y-87615261D01*
X191543208Y-87634182D01*
X191830173Y-87749941D01*
X192044952Y-87943960D01*
X192128835Y-88135101D01*
X192128573Y-88289771D01*
X192101126Y-88576756D01*
X192050745Y-88961984D01*
X191981685Y-89411381D01*
X191935676Y-89682707D01*
X191840749Y-90258372D01*
X191783897Y-90684679D01*
X191765657Y-90956595D01*
X191786565Y-91069090D01*
X191787864Y-91069987D01*
X191906477Y-91108337D01*
X192114869Y-91151240D01*
X192351038Y-91188944D01*
X192552987Y-91211701D01*
X192658713Y-91209760D01*
X192661958Y-91207443D01*
X192681917Y-91121061D01*
X192725234Y-90897229D01*
X192786437Y-90565360D01*
X192860054Y-90154865D01*
X192900191Y-89927131D01*
X193017796Y-89308380D01*
X193130328Y-88839532D01*
X193245388Y-88501629D01*
X193370577Y-88275716D01*
X193513497Y-88142836D01*
X193635585Y-88093144D01*
X193959460Y-88079254D01*
X194303523Y-88162000D01*
X194577556Y-88319606D01*
X194578940Y-88320854D01*
X194647898Y-88394906D01*
X194693624Y-88487071D01*
X194714926Y-88620040D01*
X194710617Y-88816504D01*
X194679504Y-89099157D01*
X194620400Y-89490690D01*
X194532113Y-90013794D01*
X194472137Y-90357527D01*
X194402678Y-90771273D01*
X194349833Y-91121387D01*
X194317945Y-91376151D01*
X194311356Y-91503847D01*
X194314082Y-91512120D01*
X194412940Y-91542672D01*
X194624957Y-91582306D01*
X194793346Y-91607226D01*
X195051732Y-91636199D01*
X195189425Y-91624312D01*
X195252799Y-91558322D01*
X195278722Y-91468632D01*
X195336605Y-91188077D01*
X195407821Y-90808854D01*
X195487636Y-90360102D01*
X195571314Y-89870957D01*
X195654120Y-89370557D01*
X195731322Y-88888039D01*
X195798183Y-88452540D01*
X195849969Y-88093197D01*
X195881945Y-87839147D01*
X195889378Y-87719527D01*
X195888520Y-87715895D01*
X195786275Y-87636540D01*
X195582712Y-87569874D01*
X195523867Y-87558589D01*
X195279698Y-87541285D01*
X195135153Y-87600406D01*
X195093784Y-87646320D01*
X195008100Y-87733530D01*
X194917232Y-87711765D01*
X194797450Y-87608645D01*
X194437482Y-87379027D01*
X193998160Y-87261100D01*
X193532025Y-87260359D01*
X193091617Y-87382299D01*
X193011352Y-87421835D01*
X192688879Y-87594671D01*
X192517770Y-87377140D01*
X192244885Y-87132137D01*
X191867463Y-86925788D01*
X191450232Y-86791964D01*
X191372046Y-86777571D01*
X190887855Y-86779490D01*
X190445157Y-86933920D01*
X190065960Y-87225164D01*
X189772271Y-87637525D01*
X189617974Y-88028666D01*
X189556604Y-88274160D01*
X189483630Y-88609585D01*
X189405303Y-89000310D01*
X189327872Y-89411701D01*
X189257584Y-89809127D01*
X189200691Y-90157956D01*
X189163439Y-90423556D01*
X189152080Y-90571294D01*
X189152080Y-90571294D01*
G36*
X190494521Y-82213795D02*
X190593292Y-82804000D01*
X190739269Y-83109019D01*
X190994958Y-83437065D01*
X191314894Y-83743385D01*
X191653614Y-83983227D01*
X191906823Y-84096944D01*
X192102173Y-84132307D01*
X192430249Y-84159951D01*
X192899155Y-84180171D01*
X193516993Y-84193261D01*
X194291868Y-84199517D01*
X194743156Y-84200173D01*
X195458364Y-84199564D01*
X196025513Y-84197281D01*
X196465876Y-84191847D01*
X196800729Y-84181783D01*
X197051344Y-84165612D01*
X197238997Y-84141856D01*
X197384961Y-84109037D01*
X197510509Y-84065677D01*
X197636917Y-84010299D01*
X197665155Y-83997194D01*
X197756533Y-83954463D01*
X197840963Y-83911015D01*
X197926726Y-83857620D01*
X198022102Y-83785046D01*
X198135370Y-83684062D01*
X198274810Y-83545437D01*
X198448702Y-83359941D01*
X198665325Y-83118342D01*
X198932959Y-82811410D01*
X199259884Y-82429914D01*
X199654379Y-81964622D01*
X200124725Y-81406304D01*
X200679201Y-80745728D01*
X201326086Y-79973664D01*
X202057000Y-79100779D01*
X202563025Y-78499160D01*
X203036372Y-77941617D01*
X203465967Y-77440814D01*
X203840737Y-77009419D01*
X204149609Y-76660097D01*
X204381509Y-76405514D01*
X204525365Y-76258336D01*
X204569756Y-76226563D01*
X204608475Y-76314689D01*
X204699539Y-76547727D01*
X204837629Y-76911372D01*
X205017428Y-77391324D01*
X205233619Y-77973278D01*
X205480885Y-78642932D01*
X205753909Y-79385983D01*
X206047373Y-80188130D01*
X206291062Y-80856667D01*
X206712027Y-82007413D01*
X207079748Y-82999795D01*
X207395045Y-83835918D01*
X207658739Y-84517888D01*
X207871653Y-85047811D01*
X208034607Y-85427793D01*
X208148422Y-85659938D01*
X208190082Y-85725000D01*
X208565850Y-86074777D01*
X209041361Y-86332226D01*
X209560259Y-86470647D01*
X209798486Y-86487000D01*
X210215730Y-86449259D01*
X210606370Y-86318681D01*
X210740736Y-86254167D01*
X211193812Y-85940968D01*
X211547606Y-85527931D01*
X211785032Y-85048699D01*
X211889009Y-84536914D01*
X211852002Y-84065733D01*
X211809331Y-83926193D01*
X211713525Y-83642871D01*
X211570072Y-83230846D01*
X211384461Y-82705199D01*
X211162179Y-82081010D01*
X210908715Y-81373358D01*
X210629556Y-80597323D01*
X210330191Y-79767985D01*
X210016109Y-78900423D01*
X209692796Y-78009719D01*
X209365741Y-77110951D01*
X209040433Y-76219200D01*
X208722359Y-75349544D01*
X208417007Y-74517065D01*
X208129866Y-73736843D01*
X207866424Y-73023955D01*
X207632168Y-72393484D01*
X207432587Y-71860508D01*
X207273169Y-71440108D01*
X207159402Y-71147363D01*
X207096774Y-70997353D01*
X207093624Y-70990957D01*
X206801993Y-70590433D01*
X206395412Y-70263689D01*
X205918615Y-70033711D01*
X205416338Y-69923483D01*
X205038380Y-69934986D01*
X204881451Y-69960417D01*
X204738971Y-69989590D01*
X204602472Y-70031144D01*
X204463487Y-70093717D01*
X204313551Y-70185949D01*
X204144195Y-70316478D01*
X203946954Y-70493943D01*
X203713360Y-70726982D01*
X203434948Y-71024234D01*
X203103249Y-71394338D01*
X202709798Y-71845932D01*
X202246128Y-72387655D01*
X201703772Y-73028147D01*
X201074263Y-73776045D01*
X200349134Y-74639988D01*
X199886981Y-75191010D01*
X195809716Y-80052333D01*
X194032514Y-80052334D01*
X193344272Y-80055063D01*
X192800480Y-80066896D01*
X192376291Y-80093294D01*
X192046862Y-80139722D01*
X191787347Y-80211644D01*
X191572901Y-80314522D01*
X191378679Y-80453821D01*
X191179837Y-80635004D01*
X191121437Y-80692506D01*
X190752184Y-81156475D01*
X190544157Y-81659791D01*
X190494521Y-82213795D01*
X190494521Y-82213795D01*
X190494521Y-82213795D01*
G37*
X190494521Y-82213795D02*
X190593292Y-82804000D01*
X190739269Y-83109019D01*
X190994958Y-83437065D01*
X191314894Y-83743385D01*
X191653614Y-83983227D01*
X191906823Y-84096944D01*
X192102173Y-84132307D01*
X192430249Y-84159951D01*
X192899155Y-84180171D01*
X193516993Y-84193261D01*
X194291868Y-84199517D01*
X194743156Y-84200173D01*
X195458364Y-84199564D01*
X196025513Y-84197281D01*
X196465876Y-84191847D01*
X196800729Y-84181783D01*
X197051344Y-84165612D01*
X197238997Y-84141856D01*
X197384961Y-84109037D01*
X197510509Y-84065677D01*
X197636917Y-84010299D01*
X197665155Y-83997194D01*
X197756533Y-83954463D01*
X197840963Y-83911015D01*
X197926726Y-83857620D01*
X198022102Y-83785046D01*
X198135370Y-83684062D01*
X198274810Y-83545437D01*
X198448702Y-83359941D01*
X198665325Y-83118342D01*
X198932959Y-82811410D01*
X199259884Y-82429914D01*
X199654379Y-81964622D01*
X200124725Y-81406304D01*
X200679201Y-80745728D01*
X201326086Y-79973664D01*
X202057000Y-79100779D01*
X202563025Y-78499160D01*
X203036372Y-77941617D01*
X203465967Y-77440814D01*
X203840737Y-77009419D01*
X204149609Y-76660097D01*
X204381509Y-76405514D01*
X204525365Y-76258336D01*
X204569756Y-76226563D01*
X204608475Y-76314689D01*
X204699539Y-76547727D01*
X204837629Y-76911372D01*
X205017428Y-77391324D01*
X205233619Y-77973278D01*
X205480885Y-78642932D01*
X205753909Y-79385983D01*
X206047373Y-80188130D01*
X206291062Y-80856667D01*
X206712027Y-82007413D01*
X207079748Y-82999795D01*
X207395045Y-83835918D01*
X207658739Y-84517888D01*
X207871653Y-85047811D01*
X208034607Y-85427793D01*
X208148422Y-85659938D01*
X208190082Y-85725000D01*
X208565850Y-86074777D01*
X209041361Y-86332226D01*
X209560259Y-86470647D01*
X209798486Y-86487000D01*
X210215730Y-86449259D01*
X210606370Y-86318681D01*
X210740736Y-86254167D01*
X211193812Y-85940968D01*
X211547606Y-85527931D01*
X211785032Y-85048699D01*
X211889009Y-84536914D01*
X211852002Y-84065733D01*
X211809331Y-83926193D01*
X211713525Y-83642871D01*
X211570072Y-83230846D01*
X211384461Y-82705199D01*
X211162179Y-82081010D01*
X210908715Y-81373358D01*
X210629556Y-80597323D01*
X210330191Y-79767985D01*
X210016109Y-78900423D01*
X209692796Y-78009719D01*
X209365741Y-77110951D01*
X209040433Y-76219200D01*
X208722359Y-75349544D01*
X208417007Y-74517065D01*
X208129866Y-73736843D01*
X207866424Y-73023955D01*
X207632168Y-72393484D01*
X207432587Y-71860508D01*
X207273169Y-71440108D01*
X207159402Y-71147363D01*
X207096774Y-70997353D01*
X207093624Y-70990957D01*
X206801993Y-70590433D01*
X206395412Y-70263689D01*
X205918615Y-70033711D01*
X205416338Y-69923483D01*
X205038380Y-69934986D01*
X204881451Y-69960417D01*
X204738971Y-69989590D01*
X204602472Y-70031144D01*
X204463487Y-70093717D01*
X204313551Y-70185949D01*
X204144195Y-70316478D01*
X203946954Y-70493943D01*
X203713360Y-70726982D01*
X203434948Y-71024234D01*
X203103249Y-71394338D01*
X202709798Y-71845932D01*
X202246128Y-72387655D01*
X201703772Y-73028147D01*
X201074263Y-73776045D01*
X200349134Y-74639988D01*
X199886981Y-75191010D01*
X195809716Y-80052333D01*
X194032514Y-80052334D01*
X193344272Y-80055063D01*
X192800480Y-80066896D01*
X192376291Y-80093294D01*
X192046862Y-80139722D01*
X191787347Y-80211644D01*
X191572901Y-80314522D01*
X191378679Y-80453821D01*
X191179837Y-80635004D01*
X191121437Y-80692506D01*
X190752184Y-81156475D01*
X190544157Y-81659791D01*
X190494521Y-82213795D01*
X190494521Y-82213795D01*
G36*
X207379532Y-128100667D02*
X207893266Y-128198801D01*
X208163349Y-128248023D01*
X208354376Y-128278340D01*
X208420350Y-128283468D01*
X208448289Y-128202431D01*
X208519235Y-127982743D01*
X208625881Y-127647439D01*
X208760917Y-127219554D01*
X208917034Y-126722120D01*
X209002230Y-126449667D01*
X209166714Y-125924848D01*
X209314397Y-125457121D01*
X209437856Y-125069709D01*
X209529669Y-124785836D01*
X209582412Y-124628725D01*
X209591845Y-124604925D01*
X209624954Y-124672552D01*
X209703817Y-124875284D01*
X209819176Y-125188076D01*
X209961772Y-125585885D01*
X210100473Y-125980758D01*
X210259810Y-126434181D01*
X210400428Y-126826388D01*
X210512907Y-127131747D01*
X210587828Y-127324628D01*
X210615030Y-127381000D01*
X210674897Y-127318972D01*
X210823676Y-127147184D01*
X211043230Y-126887076D01*
X211315419Y-126560091D01*
X211546092Y-126280334D01*
X211847219Y-125916631D01*
X212110946Y-125603620D01*
X212318794Y-125362791D01*
X212452282Y-125215635D01*
X212492567Y-125179667D01*
X212503251Y-125259170D01*
X212505699Y-125477540D01*
X212500996Y-125804565D01*
X212490228Y-126210036D01*
X212474479Y-126663743D01*
X212454835Y-127135474D01*
X212432382Y-127595021D01*
X212408204Y-128012172D01*
X212383388Y-128356717D01*
X212375011Y-128451811D01*
X212350408Y-128697969D01*
X212351682Y-128857067D01*
X212407450Y-128954649D01*
X212546328Y-129016258D01*
X212796932Y-129067437D01*
X213127166Y-129123194D01*
X213444666Y-129177845D01*
X213444216Y-128639256D01*
X213447519Y-128410605D01*
X213457059Y-128041299D01*
X213471908Y-127559864D01*
X213491139Y-126994826D01*
X213513823Y-126374712D01*
X213538293Y-125746465D01*
X213561814Y-125133461D01*
X213581034Y-124578011D01*
X213595368Y-124101908D01*
X213604229Y-123726944D01*
X213607033Y-123474914D01*
X213603193Y-123367610D01*
X213602243Y-123365481D01*
X213507651Y-123338564D01*
X213302561Y-123300795D01*
X213177701Y-123281557D01*
X212783736Y-123224418D01*
X211876609Y-124375561D01*
X211579660Y-124748059D01*
X211319436Y-125066273D01*
X211113425Y-125309484D01*
X210979116Y-125456969D01*
X210934544Y-125491766D01*
X210897451Y-125403733D01*
X210816871Y-125182125D01*
X210702352Y-124854182D01*
X210563443Y-124447142D01*
X210450801Y-124111747D01*
X210001998Y-122766667D01*
X209590064Y-122663324D01*
X209351974Y-122607662D01*
X209195733Y-122578865D01*
X209162681Y-122578657D01*
X209134094Y-122660721D01*
X209059887Y-122885396D01*
X208946112Y-123234037D01*
X208798822Y-123687998D01*
X208624070Y-124228634D01*
X208427907Y-124837299D01*
X208263381Y-125349000D01*
X207379532Y-128100667D01*
X207379532Y-128100667D01*
X207379532Y-128100667D01*
G37*
X207379532Y-128100667D02*
X207893266Y-128198801D01*
X208163349Y-128248023D01*
X208354376Y-128278340D01*
X208420350Y-128283468D01*
X208448289Y-128202431D01*
X208519235Y-127982743D01*
X208625881Y-127647439D01*
X208760917Y-127219554D01*
X208917034Y-126722120D01*
X209002230Y-126449667D01*
X209166714Y-125924848D01*
X209314397Y-125457121D01*
X209437856Y-125069709D01*
X209529669Y-124785836D01*
X209582412Y-124628725D01*
X209591845Y-124604925D01*
X209624954Y-124672552D01*
X209703817Y-124875284D01*
X209819176Y-125188076D01*
X209961772Y-125585885D01*
X210100473Y-125980758D01*
X210259810Y-126434181D01*
X210400428Y-126826388D01*
X210512907Y-127131747D01*
X210587828Y-127324628D01*
X210615030Y-127381000D01*
X210674897Y-127318972D01*
X210823676Y-127147184D01*
X211043230Y-126887076D01*
X211315419Y-126560091D01*
X211546092Y-126280334D01*
X211847219Y-125916631D01*
X212110946Y-125603620D01*
X212318794Y-125362791D01*
X212452282Y-125215635D01*
X212492567Y-125179667D01*
X212503251Y-125259170D01*
X212505699Y-125477540D01*
X212500996Y-125804565D01*
X212490228Y-126210036D01*
X212474479Y-126663743D01*
X212454835Y-127135474D01*
X212432382Y-127595021D01*
X212408204Y-128012172D01*
X212383388Y-128356717D01*
X212375011Y-128451811D01*
X212350408Y-128697969D01*
X212351682Y-128857067D01*
X212407450Y-128954649D01*
X212546328Y-129016258D01*
X212796932Y-129067437D01*
X213127166Y-129123194D01*
X213444666Y-129177845D01*
X213444216Y-128639256D01*
X213447519Y-128410605D01*
X213457059Y-128041299D01*
X213471908Y-127559864D01*
X213491139Y-126994826D01*
X213513823Y-126374712D01*
X213538293Y-125746465D01*
X213561814Y-125133461D01*
X213581034Y-124578011D01*
X213595368Y-124101908D01*
X213604229Y-123726944D01*
X213607033Y-123474914D01*
X213603193Y-123367610D01*
X213602243Y-123365481D01*
X213507651Y-123338564D01*
X213302561Y-123300795D01*
X213177701Y-123281557D01*
X212783736Y-123224418D01*
X211876609Y-124375561D01*
X211579660Y-124748059D01*
X211319436Y-125066273D01*
X211113425Y-125309484D01*
X210979116Y-125456969D01*
X210934544Y-125491766D01*
X210897451Y-125403733D01*
X210816871Y-125182125D01*
X210702352Y-124854182D01*
X210563443Y-124447142D01*
X210450801Y-124111747D01*
X210001998Y-122766667D01*
X209590064Y-122663324D01*
X209351974Y-122607662D01*
X209195733Y-122578865D01*
X209162681Y-122578657D01*
X209134094Y-122660721D01*
X209059887Y-122885396D01*
X208946112Y-123234037D01*
X208798822Y-123687998D01*
X208624070Y-124228634D01*
X208427907Y-124837299D01*
X208263381Y-125349000D01*
X207379532Y-128100667D01*
X207379532Y-128100667D01*
G36*
X203587210Y-127080798D02*
X203608054Y-127229404D01*
X203620995Y-127251183D01*
X203834445Y-127410785D01*
X204170012Y-127553589D01*
X204580619Y-127669735D01*
X205019193Y-127749362D01*
X205438658Y-127782610D01*
X205791939Y-127759619D01*
X205909881Y-127730615D01*
X206465849Y-127474964D01*
X206888563Y-127116848D01*
X207180111Y-126653247D01*
X207342580Y-126081142D01*
X207380774Y-125603000D01*
X207371827Y-125212578D01*
X207326503Y-124925719D01*
X207233182Y-124678473D01*
X207201522Y-124616356D01*
X206869418Y-124160706D01*
X206434262Y-123829318D01*
X205919928Y-123634372D01*
X205350292Y-123588045D01*
X205209395Y-123600228D01*
X204700882Y-123738646D01*
X204281343Y-124012738D01*
X203966848Y-124405342D01*
X203773463Y-124899298D01*
X203726748Y-125183675D01*
X203708598Y-125428833D01*
X203733672Y-125555192D01*
X203828682Y-125612480D01*
X203972947Y-125641987D01*
X204178467Y-125678553D01*
X204498944Y-125735802D01*
X204882671Y-125804491D01*
X205121736Y-125847347D01*
X205532051Y-125917807D01*
X205804297Y-125948089D01*
X205966777Y-125929557D01*
X206047791Y-125853574D01*
X206075642Y-125711505D01*
X206078666Y-125555355D01*
X206075608Y-125460539D01*
X206046618Y-125394027D01*
X205961978Y-125342828D01*
X205791970Y-125293947D01*
X205506873Y-125234392D01*
X205215428Y-125177951D01*
X204921904Y-125104064D01*
X204787980Y-125010311D01*
X204804037Y-124870601D01*
X204960456Y-124658840D01*
X205005375Y-124608167D01*
X205244792Y-124454394D01*
X205536986Y-124422578D01*
X205838289Y-124495490D01*
X206105037Y-124655900D01*
X206293562Y-124886578D01*
X206360327Y-125142790D01*
X206340771Y-125619242D01*
X206268929Y-126042769D01*
X206154220Y-126370501D01*
X206058958Y-126514202D01*
X205753468Y-126773481D01*
X205419672Y-126912744D01*
X205037445Y-126931599D01*
X204586658Y-126829652D01*
X204047184Y-126606511D01*
X203776238Y-126469679D01*
X203710749Y-126511050D01*
X203649873Y-126664665D01*
X203604922Y-126873566D01*
X203587210Y-127080798D01*
X203587210Y-127080798D01*
X203587210Y-127080798D01*
G37*
X203587210Y-127080798D02*
X203608054Y-127229404D01*
X203620995Y-127251183D01*
X203834445Y-127410785D01*
X204170012Y-127553589D01*
X204580619Y-127669735D01*
X205019193Y-127749362D01*
X205438658Y-127782610D01*
X205791939Y-127759619D01*
X205909881Y-127730615D01*
X206465849Y-127474964D01*
X206888563Y-127116848D01*
X207180111Y-126653247D01*
X207342580Y-126081142D01*
X207380774Y-125603000D01*
X207371827Y-125212578D01*
X207326503Y-124925719D01*
X207233182Y-124678473D01*
X207201522Y-124616356D01*
X206869418Y-124160706D01*
X206434262Y-123829318D01*
X205919928Y-123634372D01*
X205350292Y-123588045D01*
X205209395Y-123600228D01*
X204700882Y-123738646D01*
X204281343Y-124012738D01*
X203966848Y-124405342D01*
X203773463Y-124899298D01*
X203726748Y-125183675D01*
X203708598Y-125428833D01*
X203733672Y-125555192D01*
X203828682Y-125612480D01*
X203972947Y-125641987D01*
X204178467Y-125678553D01*
X204498944Y-125735802D01*
X204882671Y-125804491D01*
X205121736Y-125847347D01*
X205532051Y-125917807D01*
X205804297Y-125948089D01*
X205966777Y-125929557D01*
X206047791Y-125853574D01*
X206075642Y-125711505D01*
X206078666Y-125555355D01*
X206075608Y-125460539D01*
X206046618Y-125394027D01*
X205961978Y-125342828D01*
X205791970Y-125293947D01*
X205506873Y-125234392D01*
X205215428Y-125177951D01*
X204921904Y-125104064D01*
X204787980Y-125010311D01*
X204804037Y-124870601D01*
X204960456Y-124658840D01*
X205005375Y-124608167D01*
X205244792Y-124454394D01*
X205536986Y-124422578D01*
X205838289Y-124495490D01*
X206105037Y-124655900D01*
X206293562Y-124886578D01*
X206360327Y-125142790D01*
X206340771Y-125619242D01*
X206268929Y-126042769D01*
X206154220Y-126370501D01*
X206058958Y-126514202D01*
X205753468Y-126773481D01*
X205419672Y-126912744D01*
X205037445Y-126931599D01*
X204586658Y-126829652D01*
X204047184Y-126606511D01*
X203776238Y-126469679D01*
X203710749Y-126511050D01*
X203649873Y-126664665D01*
X203604922Y-126873566D01*
X203587210Y-127080798D01*
X203587210Y-127080798D01*
G36*
X201203621Y-121380589D02*
X201211817Y-121543540D01*
X201245579Y-121796610D01*
X201307464Y-122160557D01*
X201400028Y-122656133D01*
X201476760Y-123053048D01*
X201562286Y-123524495D01*
X201638292Y-124002655D01*
X201695773Y-124427297D01*
X201723547Y-124704048D01*
X201763218Y-125075831D01*
X201823989Y-125441387D01*
X201883332Y-125687667D01*
X201970316Y-126009453D01*
X202040630Y-126335183D01*
X202052855Y-126407334D01*
X202111528Y-126772929D01*
X202162797Y-127005162D01*
X202224942Y-127138047D01*
X202316238Y-127205596D01*
X202454964Y-127241824D01*
X202506358Y-127251269D01*
X202771139Y-127302263D01*
X202995107Y-127350218D01*
X203009500Y-127353626D01*
X203156848Y-127362454D01*
X203202488Y-127326679D01*
X203189643Y-127228975D01*
X203152007Y-126983724D01*
X203092720Y-126610392D01*
X203014922Y-126128447D01*
X202921752Y-125557355D01*
X202816352Y-124916582D01*
X202716489Y-124313615D01*
X202228003Y-121373230D01*
X201783886Y-121281032D01*
X201518963Y-121238435D01*
X201319347Y-121228800D01*
X201253701Y-121242027D01*
X201218434Y-121287003D01*
X201203621Y-121380589D01*
X201203621Y-121380589D01*
X201203621Y-121380589D01*
G37*
X201203621Y-121380589D02*
X201211817Y-121543540D01*
X201245579Y-121796610D01*
X201307464Y-122160557D01*
X201400028Y-122656133D01*
X201476760Y-123053048D01*
X201562286Y-123524495D01*
X201638292Y-124002655D01*
X201695773Y-124427297D01*
X201723547Y-124704048D01*
X201763218Y-125075831D01*
X201823989Y-125441387D01*
X201883332Y-125687667D01*
X201970316Y-126009453D01*
X202040630Y-126335183D01*
X202052855Y-126407334D01*
X202111528Y-126772929D01*
X202162797Y-127005162D01*
X202224942Y-127138047D01*
X202316238Y-127205596D01*
X202454964Y-127241824D01*
X202506358Y-127251269D01*
X202771139Y-127302263D01*
X202995107Y-127350218D01*
X203009500Y-127353626D01*
X203156848Y-127362454D01*
X203202488Y-127326679D01*
X203189643Y-127228975D01*
X203152007Y-126983724D01*
X203092720Y-126610392D01*
X203014922Y-126128447D01*
X202921752Y-125557355D01*
X202816352Y-124916582D01*
X202716489Y-124313615D01*
X202228003Y-121373230D01*
X201783886Y-121281032D01*
X201518963Y-121238435D01*
X201319347Y-121228800D01*
X201253701Y-121242027D01*
X201218434Y-121287003D01*
X201203621Y-121380589D01*
X201203621Y-121380589D01*
G36*
X198289333Y-126467981D02*
X198364299Y-126510992D01*
X198552955Y-126558567D01*
X198649166Y-126575410D01*
X198908266Y-126619678D01*
X199111954Y-126661258D01*
X199149440Y-126670772D01*
X199247805Y-126646599D01*
X199373917Y-126511591D01*
X199542899Y-126247368D01*
X199642204Y-126071920D01*
X199848885Y-125728225D01*
X200017737Y-125510229D01*
X200136490Y-125433767D01*
X200136764Y-125433767D01*
X200285900Y-125449096D01*
X200547894Y-125489455D01*
X200869580Y-125546555D01*
X200912948Y-125554763D01*
X201219520Y-125608014D01*
X201455049Y-125639131D01*
X201576285Y-125642634D01*
X201582872Y-125639684D01*
X201590009Y-125543478D01*
X201571431Y-125331467D01*
X201541590Y-125117890D01*
X201464333Y-124632072D01*
X201042856Y-124562003D01*
X200795834Y-124516306D01*
X200629155Y-124476768D01*
X200590796Y-124461351D01*
X200616147Y-124379608D01*
X200710484Y-124189132D01*
X200855416Y-123926237D01*
X200906787Y-123837349D01*
X201253363Y-123243931D01*
X201157447Y-122581965D01*
X201105156Y-122254773D01*
X201053507Y-121987540D01*
X201012174Y-121829231D01*
X201005868Y-121814705D01*
X200956273Y-121865918D01*
X200835791Y-122043843D01*
X200656594Y-122327629D01*
X200430855Y-122696423D01*
X200170747Y-123129376D01*
X199888442Y-123605636D01*
X199596113Y-124104352D01*
X199305932Y-124604672D01*
X199030074Y-125085746D01*
X198780709Y-125526722D01*
X198570011Y-125906749D01*
X198410152Y-126204976D01*
X198313306Y-126400553D01*
X198289333Y-126467981D01*
X198289333Y-126467981D01*
X198289333Y-126467981D01*
G37*
X198289333Y-126467981D02*
X198364299Y-126510992D01*
X198552955Y-126558567D01*
X198649166Y-126575410D01*
X198908266Y-126619678D01*
X199111954Y-126661258D01*
X199149440Y-126670772D01*
X199247805Y-126646599D01*
X199373917Y-126511591D01*
X199542899Y-126247368D01*
X199642204Y-126071920D01*
X199848885Y-125728225D01*
X200017737Y-125510229D01*
X200136490Y-125433767D01*
X200136764Y-125433767D01*
X200285900Y-125449096D01*
X200547894Y-125489455D01*
X200869580Y-125546555D01*
X200912948Y-125554763D01*
X201219520Y-125608014D01*
X201455049Y-125639131D01*
X201576285Y-125642634D01*
X201582872Y-125639684D01*
X201590009Y-125543478D01*
X201571431Y-125331467D01*
X201541590Y-125117890D01*
X201464333Y-124632072D01*
X201042856Y-124562003D01*
X200795834Y-124516306D01*
X200629155Y-124476768D01*
X200590796Y-124461351D01*
X200616147Y-124379608D01*
X200710484Y-124189132D01*
X200855416Y-123926237D01*
X200906787Y-123837349D01*
X201253363Y-123243931D01*
X201157447Y-122581965D01*
X201105156Y-122254773D01*
X201053507Y-121987540D01*
X201012174Y-121829231D01*
X201005868Y-121814705D01*
X200956273Y-121865918D01*
X200835791Y-122043843D01*
X200656594Y-122327629D01*
X200430855Y-122696423D01*
X200170747Y-123129376D01*
X199888442Y-123605636D01*
X199596113Y-124104352D01*
X199305932Y-124604672D01*
X199030074Y-125085746D01*
X198780709Y-125526722D01*
X198570011Y-125906749D01*
X198410152Y-126204976D01*
X198313306Y-126400553D01*
X198289333Y-126467981D01*
X198289333Y-126467981D01*
G36*
X196342000Y-122424164D02*
X196346659Y-122689896D01*
X196378390Y-122833180D01*
X196463820Y-122900901D01*
X196629579Y-122939944D01*
X196635580Y-122941070D01*
X196908290Y-123039739D01*
X197149881Y-123206717D01*
X197312508Y-123401719D01*
X197353811Y-123545791D01*
X197337701Y-123679251D01*
X197296081Y-123946193D01*
X197234412Y-124313623D01*
X197158156Y-124748547D01*
X197115649Y-124984401D01*
X196881675Y-126270801D01*
X197225671Y-126324086D01*
X197480028Y-126367581D01*
X197678131Y-126408418D01*
X197708005Y-126416105D01*
X197837458Y-126382292D01*
X197891564Y-126261753D01*
X197938144Y-126039503D01*
X198001012Y-125706577D01*
X198075457Y-125291451D01*
X198156771Y-124822597D01*
X198240244Y-124328492D01*
X198321168Y-123837608D01*
X198394833Y-123378420D01*
X198456530Y-122979403D01*
X198501550Y-122669031D01*
X198525184Y-122475777D01*
X198526114Y-122424893D01*
X198417489Y-122380981D01*
X198212522Y-122334389D01*
X197975224Y-122295478D01*
X197769606Y-122274611D01*
X197659679Y-122282147D01*
X197657013Y-122284209D01*
X197619234Y-122397093D01*
X197612000Y-122493215D01*
X197596499Y-122577715D01*
X197529993Y-122568355D01*
X197382478Y-122454883D01*
X197306261Y-122388766D01*
X196943334Y-122122958D01*
X196610773Y-121981366D01*
X196463488Y-121962334D01*
X196388951Y-122010236D01*
X196351041Y-122172992D01*
X196342000Y-122424164D01*
X196342000Y-122424164D01*
X196342000Y-122424164D01*
G37*
X196342000Y-122424164D02*
X196346659Y-122689896D01*
X196378390Y-122833180D01*
X196463820Y-122900901D01*
X196629579Y-122939944D01*
X196635580Y-122941070D01*
X196908290Y-123039739D01*
X197149881Y-123206717D01*
X197312508Y-123401719D01*
X197353811Y-123545791D01*
X197337701Y-123679251D01*
X197296081Y-123946193D01*
X197234412Y-124313623D01*
X197158156Y-124748547D01*
X197115649Y-124984401D01*
X196881675Y-126270801D01*
X197225671Y-126324086D01*
X197480028Y-126367581D01*
X197678131Y-126408418D01*
X197708005Y-126416105D01*
X197837458Y-126382292D01*
X197891564Y-126261753D01*
X197938144Y-126039503D01*
X198001012Y-125706577D01*
X198075457Y-125291451D01*
X198156771Y-124822597D01*
X198240244Y-124328492D01*
X198321168Y-123837608D01*
X198394833Y-123378420D01*
X198456530Y-122979403D01*
X198501550Y-122669031D01*
X198525184Y-122475777D01*
X198526114Y-122424893D01*
X198417489Y-122380981D01*
X198212522Y-122334389D01*
X197975224Y-122295478D01*
X197769606Y-122274611D01*
X197659679Y-122282147D01*
X197657013Y-122284209D01*
X197619234Y-122397093D01*
X197612000Y-122493215D01*
X197596499Y-122577715D01*
X197529993Y-122568355D01*
X197382478Y-122454883D01*
X197306261Y-122388766D01*
X196943334Y-122122958D01*
X196610773Y-121981366D01*
X196463488Y-121962334D01*
X196388951Y-122010236D01*
X196351041Y-122172992D01*
X196342000Y-122424164D01*
X196342000Y-122424164D01*
G36*
X189152080Y-124861294D02*
X189155909Y-124879385D01*
X189250265Y-124910830D01*
X189458302Y-124957827D01*
X189630241Y-124990957D01*
X189807569Y-125026060D01*
X189935908Y-125041833D01*
X190027821Y-125016003D01*
X190095873Y-124926297D01*
X190152628Y-124750442D01*
X190210651Y-124466167D01*
X190282505Y-124051198D01*
X190335732Y-123740334D01*
X190439447Y-123175551D01*
X190533639Y-122753352D01*
X190627515Y-122448028D01*
X190730281Y-122233869D01*
X190851140Y-122085163D01*
X190958221Y-122001760D01*
X191235432Y-121905261D01*
X191543208Y-121924182D01*
X191830173Y-122039941D01*
X192044952Y-122233960D01*
X192128835Y-122425101D01*
X192128573Y-122579771D01*
X192101126Y-122866756D01*
X192050745Y-123251984D01*
X191981685Y-123701381D01*
X191935676Y-123972707D01*
X191840749Y-124548372D01*
X191783897Y-124974679D01*
X191765657Y-125246595D01*
X191786565Y-125359090D01*
X191787864Y-125359987D01*
X191906477Y-125398337D01*
X192114869Y-125441240D01*
X192351038Y-125478944D01*
X192552987Y-125501701D01*
X192658713Y-125499760D01*
X192661958Y-125497443D01*
X192681917Y-125411061D01*
X192725234Y-125187229D01*
X192786437Y-124855360D01*
X192860054Y-124444865D01*
X192900191Y-124217131D01*
X193017796Y-123598380D01*
X193130328Y-123129532D01*
X193245388Y-122791629D01*
X193370577Y-122565716D01*
X193513497Y-122432836D01*
X193635585Y-122383144D01*
X193959460Y-122369254D01*
X194303523Y-122452000D01*
X194577556Y-122609606D01*
X194578940Y-122610854D01*
X194647898Y-122684906D01*
X194693624Y-122777071D01*
X194714926Y-122910040D01*
X194710617Y-123106504D01*
X194679504Y-123389157D01*
X194620400Y-123780690D01*
X194532113Y-124303794D01*
X194472137Y-124647527D01*
X194402678Y-125061273D01*
X194349833Y-125411387D01*
X194317945Y-125666151D01*
X194311356Y-125793847D01*
X194314082Y-125802120D01*
X194412940Y-125832672D01*
X194624957Y-125872306D01*
X194793346Y-125897226D01*
X195051732Y-125926199D01*
X195189425Y-125914312D01*
X195252799Y-125848322D01*
X195278722Y-125758632D01*
X195336605Y-125478077D01*
X195407821Y-125098854D01*
X195487636Y-124650102D01*
X195571314Y-124160957D01*
X195654120Y-123660557D01*
X195731322Y-123178039D01*
X195798183Y-122742540D01*
X195849969Y-122383197D01*
X195881945Y-122129147D01*
X195889378Y-122009527D01*
X195888520Y-122005895D01*
X195786275Y-121926540D01*
X195582712Y-121859874D01*
X195523867Y-121848589D01*
X195279698Y-121831285D01*
X195135153Y-121890406D01*
X195093784Y-121936320D01*
X195008100Y-122023530D01*
X194917232Y-122001765D01*
X194797450Y-121898645D01*
X194437482Y-121669027D01*
X193998160Y-121551100D01*
X193532025Y-121550359D01*
X193091617Y-121672299D01*
X193011352Y-121711835D01*
X192688879Y-121884671D01*
X192517770Y-121667140D01*
X192244885Y-121422137D01*
X191867463Y-121215788D01*
X191450232Y-121081964D01*
X191372046Y-121067571D01*
X190887855Y-121069490D01*
X190445157Y-121223920D01*
X190065960Y-121515164D01*
X189772271Y-121927525D01*
X189617974Y-122318666D01*
X189556604Y-122564160D01*
X189483630Y-122899585D01*
X189405303Y-123290310D01*
X189327872Y-123701701D01*
X189257584Y-124099127D01*
X189200691Y-124447956D01*
X189163439Y-124713556D01*
X189152080Y-124861294D01*
X189152080Y-124861294D01*
X189152080Y-124861294D01*
G37*
X189152080Y-124861294D02*
X189155909Y-124879385D01*
X189250265Y-124910830D01*
X189458302Y-124957827D01*
X189630241Y-124990957D01*
X189807569Y-125026060D01*
X189935908Y-125041833D01*
X190027821Y-125016003D01*
X190095873Y-124926297D01*
X190152628Y-124750442D01*
X190210651Y-124466167D01*
X190282505Y-124051198D01*
X190335732Y-123740334D01*
X190439447Y-123175551D01*
X190533639Y-122753352D01*
X190627515Y-122448028D01*
X190730281Y-122233869D01*
X190851140Y-122085163D01*
X190958221Y-122001760D01*
X191235432Y-121905261D01*
X191543208Y-121924182D01*
X191830173Y-122039941D01*
X192044952Y-122233960D01*
X192128835Y-122425101D01*
X192128573Y-122579771D01*
X192101126Y-122866756D01*
X192050745Y-123251984D01*
X191981685Y-123701381D01*
X191935676Y-123972707D01*
X191840749Y-124548372D01*
X191783897Y-124974679D01*
X191765657Y-125246595D01*
X191786565Y-125359090D01*
X191787864Y-125359987D01*
X191906477Y-125398337D01*
X192114869Y-125441240D01*
X192351038Y-125478944D01*
X192552987Y-125501701D01*
X192658713Y-125499760D01*
X192661958Y-125497443D01*
X192681917Y-125411061D01*
X192725234Y-125187229D01*
X192786437Y-124855360D01*
X192860054Y-124444865D01*
X192900191Y-124217131D01*
X193017796Y-123598380D01*
X193130328Y-123129532D01*
X193245388Y-122791629D01*
X193370577Y-122565716D01*
X193513497Y-122432836D01*
X193635585Y-122383144D01*
X193959460Y-122369254D01*
X194303523Y-122452000D01*
X194577556Y-122609606D01*
X194578940Y-122610854D01*
X194647898Y-122684906D01*
X194693624Y-122777071D01*
X194714926Y-122910040D01*
X194710617Y-123106504D01*
X194679504Y-123389157D01*
X194620400Y-123780690D01*
X194532113Y-124303794D01*
X194472137Y-124647527D01*
X194402678Y-125061273D01*
X194349833Y-125411387D01*
X194317945Y-125666151D01*
X194311356Y-125793847D01*
X194314082Y-125802120D01*
X194412940Y-125832672D01*
X194624957Y-125872306D01*
X194793346Y-125897226D01*
X195051732Y-125926199D01*
X195189425Y-125914312D01*
X195252799Y-125848322D01*
X195278722Y-125758632D01*
X195336605Y-125478077D01*
X195407821Y-125098854D01*
X195487636Y-124650102D01*
X195571314Y-124160957D01*
X195654120Y-123660557D01*
X195731322Y-123178039D01*
X195798183Y-122742540D01*
X195849969Y-122383197D01*
X195881945Y-122129147D01*
X195889378Y-122009527D01*
X195888520Y-122005895D01*
X195786275Y-121926540D01*
X195582712Y-121859874D01*
X195523867Y-121848589D01*
X195279698Y-121831285D01*
X195135153Y-121890406D01*
X195093784Y-121936320D01*
X195008100Y-122023530D01*
X194917232Y-122001765D01*
X194797450Y-121898645D01*
X194437482Y-121669027D01*
X193998160Y-121551100D01*
X193532025Y-121550359D01*
X193091617Y-121672299D01*
X193011352Y-121711835D01*
X192688879Y-121884671D01*
X192517770Y-121667140D01*
X192244885Y-121422137D01*
X191867463Y-121215788D01*
X191450232Y-121081964D01*
X191372046Y-121067571D01*
X190887855Y-121069490D01*
X190445157Y-121223920D01*
X190065960Y-121515164D01*
X189772271Y-121927525D01*
X189617974Y-122318666D01*
X189556604Y-122564160D01*
X189483630Y-122899585D01*
X189405303Y-123290310D01*
X189327872Y-123701701D01*
X189257584Y-124099127D01*
X189200691Y-124447956D01*
X189163439Y-124713556D01*
X189152080Y-124861294D01*
X189152080Y-124861294D01*
G36*
X190494521Y-116503795D02*
X190593292Y-117094000D01*
X190739269Y-117399019D01*
X190994958Y-117727065D01*
X191314894Y-118033385D01*
X191653614Y-118273227D01*
X191906823Y-118386944D01*
X192102173Y-118422307D01*
X192430249Y-118449951D01*
X192899155Y-118470171D01*
X193516993Y-118483261D01*
X194291868Y-118489517D01*
X194743156Y-118490173D01*
X195458364Y-118489564D01*
X196025513Y-118487281D01*
X196465876Y-118481847D01*
X196800729Y-118471783D01*
X197051344Y-118455612D01*
X197238997Y-118431856D01*
X197384961Y-118399037D01*
X197510509Y-118355677D01*
X197636917Y-118300299D01*
X197665155Y-118287194D01*
X197756533Y-118244463D01*
X197840963Y-118201015D01*
X197926726Y-118147620D01*
X198022102Y-118075046D01*
X198135370Y-117974062D01*
X198274810Y-117835437D01*
X198448702Y-117649941D01*
X198665325Y-117408342D01*
X198932959Y-117101410D01*
X199259884Y-116719914D01*
X199654379Y-116254622D01*
X200124725Y-115696304D01*
X200679201Y-115035728D01*
X201326086Y-114263664D01*
X202057000Y-113390779D01*
X202563025Y-112789160D01*
X203036372Y-112231617D01*
X203465967Y-111730814D01*
X203840737Y-111299419D01*
X204149609Y-110950097D01*
X204381509Y-110695514D01*
X204525365Y-110548336D01*
X204569756Y-110516563D01*
X204608475Y-110604689D01*
X204699539Y-110837727D01*
X204837629Y-111201372D01*
X205017428Y-111681324D01*
X205233619Y-112263278D01*
X205480885Y-112932932D01*
X205753909Y-113675983D01*
X206047373Y-114478130D01*
X206291062Y-115146667D01*
X206712027Y-116297413D01*
X207079748Y-117289795D01*
X207395045Y-118125918D01*
X207658739Y-118807888D01*
X207871653Y-119337811D01*
X208034607Y-119717793D01*
X208148422Y-119949938D01*
X208190082Y-120015000D01*
X208565850Y-120364777D01*
X209041361Y-120622226D01*
X209560259Y-120760647D01*
X209798486Y-120777000D01*
X210215730Y-120739259D01*
X210606370Y-120608681D01*
X210740736Y-120544167D01*
X211193812Y-120230968D01*
X211547606Y-119817931D01*
X211785032Y-119338699D01*
X211889009Y-118826914D01*
X211852002Y-118355733D01*
X211809331Y-118216193D01*
X211713525Y-117932871D01*
X211570072Y-117520846D01*
X211384461Y-116995199D01*
X211162179Y-116371010D01*
X210908715Y-115663358D01*
X210629556Y-114887323D01*
X210330191Y-114057985D01*
X210016109Y-113190423D01*
X209692796Y-112299719D01*
X209365741Y-111400951D01*
X209040433Y-110509200D01*
X208722359Y-109639544D01*
X208417007Y-108807065D01*
X208129866Y-108026843D01*
X207866424Y-107313955D01*
X207632168Y-106683484D01*
X207432587Y-106150508D01*
X207273169Y-105730108D01*
X207159402Y-105437363D01*
X207096774Y-105287353D01*
X207093624Y-105280957D01*
X206801993Y-104880433D01*
X206395412Y-104553689D01*
X205918615Y-104323711D01*
X205416338Y-104213483D01*
X205038380Y-104224986D01*
X204881451Y-104250417D01*
X204738971Y-104279590D01*
X204602472Y-104321144D01*
X204463487Y-104383717D01*
X204313551Y-104475949D01*
X204144195Y-104606478D01*
X203946954Y-104783943D01*
X203713360Y-105016982D01*
X203434948Y-105314234D01*
X203103249Y-105684338D01*
X202709798Y-106135932D01*
X202246128Y-106677655D01*
X201703772Y-107318147D01*
X201074263Y-108066045D01*
X200349134Y-108929988D01*
X199886981Y-109481010D01*
X195809716Y-114342333D01*
X194032514Y-114342334D01*
X193344272Y-114345063D01*
X192800480Y-114356896D01*
X192376291Y-114383294D01*
X192046862Y-114429722D01*
X191787347Y-114501644D01*
X191572901Y-114604522D01*
X191378679Y-114743821D01*
X191179837Y-114925004D01*
X191121437Y-114982506D01*
X190752184Y-115446475D01*
X190544157Y-115949791D01*
X190494521Y-116503795D01*
X190494521Y-116503795D01*
X190494521Y-116503795D01*
G37*
X190494521Y-116503795D02*
X190593292Y-117094000D01*
X190739269Y-117399019D01*
X190994958Y-117727065D01*
X191314894Y-118033385D01*
X191653614Y-118273227D01*
X191906823Y-118386944D01*
X192102173Y-118422307D01*
X192430249Y-118449951D01*
X192899155Y-118470171D01*
X193516993Y-118483261D01*
X194291868Y-118489517D01*
X194743156Y-118490173D01*
X195458364Y-118489564D01*
X196025513Y-118487281D01*
X196465876Y-118481847D01*
X196800729Y-118471783D01*
X197051344Y-118455612D01*
X197238997Y-118431856D01*
X197384961Y-118399037D01*
X197510509Y-118355677D01*
X197636917Y-118300299D01*
X197665155Y-118287194D01*
X197756533Y-118244463D01*
X197840963Y-118201015D01*
X197926726Y-118147620D01*
X198022102Y-118075046D01*
X198135370Y-117974062D01*
X198274810Y-117835437D01*
X198448702Y-117649941D01*
X198665325Y-117408342D01*
X198932959Y-117101410D01*
X199259884Y-116719914D01*
X199654379Y-116254622D01*
X200124725Y-115696304D01*
X200679201Y-115035728D01*
X201326086Y-114263664D01*
X202057000Y-113390779D01*
X202563025Y-112789160D01*
X203036372Y-112231617D01*
X203465967Y-111730814D01*
X203840737Y-111299419D01*
X204149609Y-110950097D01*
X204381509Y-110695514D01*
X204525365Y-110548336D01*
X204569756Y-110516563D01*
X204608475Y-110604689D01*
X204699539Y-110837727D01*
X204837629Y-111201372D01*
X205017428Y-111681324D01*
X205233619Y-112263278D01*
X205480885Y-112932932D01*
X205753909Y-113675983D01*
X206047373Y-114478130D01*
X206291062Y-115146667D01*
X206712027Y-116297413D01*
X207079748Y-117289795D01*
X207395045Y-118125918D01*
X207658739Y-118807888D01*
X207871653Y-119337811D01*
X208034607Y-119717793D01*
X208148422Y-119949938D01*
X208190082Y-120015000D01*
X208565850Y-120364777D01*
X209041361Y-120622226D01*
X209560259Y-120760647D01*
X209798486Y-120777000D01*
X210215730Y-120739259D01*
X210606370Y-120608681D01*
X210740736Y-120544167D01*
X211193812Y-120230968D01*
X211547606Y-119817931D01*
X211785032Y-119338699D01*
X211889009Y-118826914D01*
X211852002Y-118355733D01*
X211809331Y-118216193D01*
X211713525Y-117932871D01*
X211570072Y-117520846D01*
X211384461Y-116995199D01*
X211162179Y-116371010D01*
X210908715Y-115663358D01*
X210629556Y-114887323D01*
X210330191Y-114057985D01*
X210016109Y-113190423D01*
X209692796Y-112299719D01*
X209365741Y-111400951D01*
X209040433Y-110509200D01*
X208722359Y-109639544D01*
X208417007Y-108807065D01*
X208129866Y-108026843D01*
X207866424Y-107313955D01*
X207632168Y-106683484D01*
X207432587Y-106150508D01*
X207273169Y-105730108D01*
X207159402Y-105437363D01*
X207096774Y-105287353D01*
X207093624Y-105280957D01*
X206801993Y-104880433D01*
X206395412Y-104553689D01*
X205918615Y-104323711D01*
X205416338Y-104213483D01*
X205038380Y-104224986D01*
X204881451Y-104250417D01*
X204738971Y-104279590D01*
X204602472Y-104321144D01*
X204463487Y-104383717D01*
X204313551Y-104475949D01*
X204144195Y-104606478D01*
X203946954Y-104783943D01*
X203713360Y-105016982D01*
X203434948Y-105314234D01*
X203103249Y-105684338D01*
X202709798Y-106135932D01*
X202246128Y-106677655D01*
X201703772Y-107318147D01*
X201074263Y-108066045D01*
X200349134Y-108929988D01*
X199886981Y-109481010D01*
X195809716Y-114342333D01*
X194032514Y-114342334D01*
X193344272Y-114345063D01*
X192800480Y-114356896D01*
X192376291Y-114383294D01*
X192046862Y-114429722D01*
X191787347Y-114501644D01*
X191572901Y-114604522D01*
X191378679Y-114743821D01*
X191179837Y-114925004D01*
X191121437Y-114982506D01*
X190752184Y-115446475D01*
X190544157Y-115949791D01*
X190494521Y-116503795D01*
X190494521Y-116503795D01*
G36*
X207379532Y-162390667D02*
X207893266Y-162488801D01*
X208163349Y-162538023D01*
X208354376Y-162568340D01*
X208420350Y-162573468D01*
X208448289Y-162492431D01*
X208519235Y-162272743D01*
X208625881Y-161937439D01*
X208760917Y-161509554D01*
X208917034Y-161012120D01*
X209002230Y-160739667D01*
X209166714Y-160214848D01*
X209314397Y-159747121D01*
X209437856Y-159359709D01*
X209529669Y-159075836D01*
X209582412Y-158918725D01*
X209591845Y-158894925D01*
X209624954Y-158962552D01*
X209703817Y-159165284D01*
X209819176Y-159478076D01*
X209961772Y-159875885D01*
X210100473Y-160270758D01*
X210259810Y-160724181D01*
X210400428Y-161116388D01*
X210512907Y-161421747D01*
X210587828Y-161614628D01*
X210615030Y-161671000D01*
X210674897Y-161608972D01*
X210823676Y-161437184D01*
X211043230Y-161177076D01*
X211315419Y-160850091D01*
X211546092Y-160570334D01*
X211847219Y-160206631D01*
X212110946Y-159893620D01*
X212318794Y-159652791D01*
X212452282Y-159505635D01*
X212492567Y-159469667D01*
X212503251Y-159549170D01*
X212505699Y-159767540D01*
X212500996Y-160094565D01*
X212490228Y-160500036D01*
X212474479Y-160953743D01*
X212454835Y-161425474D01*
X212432382Y-161885021D01*
X212408204Y-162302172D01*
X212383388Y-162646717D01*
X212375011Y-162741811D01*
X212350408Y-162987969D01*
X212351682Y-163147067D01*
X212407450Y-163244649D01*
X212546328Y-163306258D01*
X212796932Y-163357437D01*
X213127166Y-163413194D01*
X213444666Y-163467845D01*
X213444216Y-162929256D01*
X213447519Y-162700605D01*
X213457059Y-162331299D01*
X213471908Y-161849864D01*
X213491139Y-161284826D01*
X213513823Y-160664712D01*
X213538293Y-160036465D01*
X213561814Y-159423461D01*
X213581034Y-158868011D01*
X213595368Y-158391908D01*
X213604229Y-158016944D01*
X213607033Y-157764914D01*
X213603193Y-157657610D01*
X213602243Y-157655481D01*
X213507651Y-157628564D01*
X213302561Y-157590795D01*
X213177701Y-157571557D01*
X212783736Y-157514418D01*
X211876609Y-158665561D01*
X211579660Y-159038059D01*
X211319436Y-159356273D01*
X211113425Y-159599484D01*
X210979116Y-159746969D01*
X210934544Y-159781766D01*
X210897451Y-159693733D01*
X210816871Y-159472125D01*
X210702352Y-159144182D01*
X210563443Y-158737142D01*
X210450801Y-158401747D01*
X210001998Y-157056667D01*
X209590064Y-156953324D01*
X209351974Y-156897662D01*
X209195733Y-156868865D01*
X209162681Y-156868657D01*
X209134094Y-156950721D01*
X209059887Y-157175396D01*
X208946112Y-157524037D01*
X208798822Y-157977998D01*
X208624070Y-158518634D01*
X208427907Y-159127299D01*
X208263381Y-159639000D01*
X207379532Y-162390667D01*
X207379532Y-162390667D01*
X207379532Y-162390667D01*
G37*
X207379532Y-162390667D02*
X207893266Y-162488801D01*
X208163349Y-162538023D01*
X208354376Y-162568340D01*
X208420350Y-162573468D01*
X208448289Y-162492431D01*
X208519235Y-162272743D01*
X208625881Y-161937439D01*
X208760917Y-161509554D01*
X208917034Y-161012120D01*
X209002230Y-160739667D01*
X209166714Y-160214848D01*
X209314397Y-159747121D01*
X209437856Y-159359709D01*
X209529669Y-159075836D01*
X209582412Y-158918725D01*
X209591845Y-158894925D01*
X209624954Y-158962552D01*
X209703817Y-159165284D01*
X209819176Y-159478076D01*
X209961772Y-159875885D01*
X210100473Y-160270758D01*
X210259810Y-160724181D01*
X210400428Y-161116388D01*
X210512907Y-161421747D01*
X210587828Y-161614628D01*
X210615030Y-161671000D01*
X210674897Y-161608972D01*
X210823676Y-161437184D01*
X211043230Y-161177076D01*
X211315419Y-160850091D01*
X211546092Y-160570334D01*
X211847219Y-160206631D01*
X212110946Y-159893620D01*
X212318794Y-159652791D01*
X212452282Y-159505635D01*
X212492567Y-159469667D01*
X212503251Y-159549170D01*
X212505699Y-159767540D01*
X212500996Y-160094565D01*
X212490228Y-160500036D01*
X212474479Y-160953743D01*
X212454835Y-161425474D01*
X212432382Y-161885021D01*
X212408204Y-162302172D01*
X212383388Y-162646717D01*
X212375011Y-162741811D01*
X212350408Y-162987969D01*
X212351682Y-163147067D01*
X212407450Y-163244649D01*
X212546328Y-163306258D01*
X212796932Y-163357437D01*
X213127166Y-163413194D01*
X213444666Y-163467845D01*
X213444216Y-162929256D01*
X213447519Y-162700605D01*
X213457059Y-162331299D01*
X213471908Y-161849864D01*
X213491139Y-161284826D01*
X213513823Y-160664712D01*
X213538293Y-160036465D01*
X213561814Y-159423461D01*
X213581034Y-158868011D01*
X213595368Y-158391908D01*
X213604229Y-158016944D01*
X213607033Y-157764914D01*
X213603193Y-157657610D01*
X213602243Y-157655481D01*
X213507651Y-157628564D01*
X213302561Y-157590795D01*
X213177701Y-157571557D01*
X212783736Y-157514418D01*
X211876609Y-158665561D01*
X211579660Y-159038059D01*
X211319436Y-159356273D01*
X211113425Y-159599484D01*
X210979116Y-159746969D01*
X210934544Y-159781766D01*
X210897451Y-159693733D01*
X210816871Y-159472125D01*
X210702352Y-159144182D01*
X210563443Y-158737142D01*
X210450801Y-158401747D01*
X210001998Y-157056667D01*
X209590064Y-156953324D01*
X209351974Y-156897662D01*
X209195733Y-156868865D01*
X209162681Y-156868657D01*
X209134094Y-156950721D01*
X209059887Y-157175396D01*
X208946112Y-157524037D01*
X208798822Y-157977998D01*
X208624070Y-158518634D01*
X208427907Y-159127299D01*
X208263381Y-159639000D01*
X207379532Y-162390667D01*
X207379532Y-162390667D01*
G36*
X203587210Y-161370798D02*
X203608054Y-161519404D01*
X203620995Y-161541183D01*
X203834445Y-161700785D01*
X204170012Y-161843589D01*
X204580619Y-161959735D01*
X205019193Y-162039362D01*
X205438658Y-162072610D01*
X205791939Y-162049619D01*
X205909881Y-162020615D01*
X206465849Y-161764964D01*
X206888563Y-161406848D01*
X207180111Y-160943247D01*
X207342580Y-160371142D01*
X207380774Y-159893000D01*
X207371827Y-159502578D01*
X207326503Y-159215719D01*
X207233182Y-158968473D01*
X207201522Y-158906356D01*
X206869418Y-158450706D01*
X206434262Y-158119318D01*
X205919928Y-157924372D01*
X205350292Y-157878045D01*
X205209395Y-157890228D01*
X204700882Y-158028646D01*
X204281343Y-158302738D01*
X203966848Y-158695342D01*
X203773463Y-159189298D01*
X203726748Y-159473675D01*
X203708598Y-159718833D01*
X203733672Y-159845192D01*
X203828682Y-159902480D01*
X203972947Y-159931987D01*
X204178467Y-159968553D01*
X204498944Y-160025802D01*
X204882671Y-160094491D01*
X205121736Y-160137347D01*
X205532051Y-160207807D01*
X205804297Y-160238089D01*
X205966777Y-160219557D01*
X206047791Y-160143574D01*
X206075642Y-160001505D01*
X206078666Y-159845355D01*
X206075608Y-159750539D01*
X206046618Y-159684027D01*
X205961978Y-159632828D01*
X205791970Y-159583947D01*
X205506873Y-159524392D01*
X205215428Y-159467951D01*
X204921904Y-159394064D01*
X204787980Y-159300311D01*
X204804037Y-159160601D01*
X204960456Y-158948840D01*
X205005375Y-158898167D01*
X205244792Y-158744394D01*
X205536986Y-158712578D01*
X205838289Y-158785490D01*
X206105037Y-158945900D01*
X206293562Y-159176578D01*
X206360327Y-159432790D01*
X206340771Y-159909242D01*
X206268929Y-160332769D01*
X206154220Y-160660501D01*
X206058958Y-160804202D01*
X205753468Y-161063481D01*
X205419672Y-161202744D01*
X205037445Y-161221599D01*
X204586658Y-161119652D01*
X204047184Y-160896511D01*
X203776238Y-160759679D01*
X203710749Y-160801050D01*
X203649873Y-160954665D01*
X203604922Y-161163566D01*
X203587210Y-161370798D01*
X203587210Y-161370798D01*
X203587210Y-161370798D01*
G37*
X203587210Y-161370798D02*
X203608054Y-161519404D01*
X203620995Y-161541183D01*
X203834445Y-161700785D01*
X204170012Y-161843589D01*
X204580619Y-161959735D01*
X205019193Y-162039362D01*
X205438658Y-162072610D01*
X205791939Y-162049619D01*
X205909881Y-162020615D01*
X206465849Y-161764964D01*
X206888563Y-161406848D01*
X207180111Y-160943247D01*
X207342580Y-160371142D01*
X207380774Y-159893000D01*
X207371827Y-159502578D01*
X207326503Y-159215719D01*
X207233182Y-158968473D01*
X207201522Y-158906356D01*
X206869418Y-158450706D01*
X206434262Y-158119318D01*
X205919928Y-157924372D01*
X205350292Y-157878045D01*
X205209395Y-157890228D01*
X204700882Y-158028646D01*
X204281343Y-158302738D01*
X203966848Y-158695342D01*
X203773463Y-159189298D01*
X203726748Y-159473675D01*
X203708598Y-159718833D01*
X203733672Y-159845192D01*
X203828682Y-159902480D01*
X203972947Y-159931987D01*
X204178467Y-159968553D01*
X204498944Y-160025802D01*
X204882671Y-160094491D01*
X205121736Y-160137347D01*
X205532051Y-160207807D01*
X205804297Y-160238089D01*
X205966777Y-160219557D01*
X206047791Y-160143574D01*
X206075642Y-160001505D01*
X206078666Y-159845355D01*
X206075608Y-159750539D01*
X206046618Y-159684027D01*
X205961978Y-159632828D01*
X205791970Y-159583947D01*
X205506873Y-159524392D01*
X205215428Y-159467951D01*
X204921904Y-159394064D01*
X204787980Y-159300311D01*
X204804037Y-159160601D01*
X204960456Y-158948840D01*
X205005375Y-158898167D01*
X205244792Y-158744394D01*
X205536986Y-158712578D01*
X205838289Y-158785490D01*
X206105037Y-158945900D01*
X206293562Y-159176578D01*
X206360327Y-159432790D01*
X206340771Y-159909242D01*
X206268929Y-160332769D01*
X206154220Y-160660501D01*
X206058958Y-160804202D01*
X205753468Y-161063481D01*
X205419672Y-161202744D01*
X205037445Y-161221599D01*
X204586658Y-161119652D01*
X204047184Y-160896511D01*
X203776238Y-160759679D01*
X203710749Y-160801050D01*
X203649873Y-160954665D01*
X203604922Y-161163566D01*
X203587210Y-161370798D01*
X203587210Y-161370798D01*
G36*
X201203621Y-155670589D02*
X201211817Y-155833540D01*
X201245579Y-156086610D01*
X201307464Y-156450557D01*
X201400028Y-156946133D01*
X201476760Y-157343048D01*
X201562286Y-157814495D01*
X201638292Y-158292655D01*
X201695773Y-158717297D01*
X201723547Y-158994048D01*
X201763218Y-159365831D01*
X201823989Y-159731387D01*
X201883332Y-159977667D01*
X201970316Y-160299453D01*
X202040630Y-160625183D01*
X202052855Y-160697334D01*
X202111528Y-161062929D01*
X202162797Y-161295162D01*
X202224942Y-161428047D01*
X202316238Y-161495596D01*
X202454964Y-161531824D01*
X202506358Y-161541269D01*
X202771139Y-161592263D01*
X202995107Y-161640218D01*
X203009500Y-161643626D01*
X203156848Y-161652454D01*
X203202488Y-161616679D01*
X203189643Y-161518975D01*
X203152007Y-161273724D01*
X203092720Y-160900392D01*
X203014922Y-160418447D01*
X202921752Y-159847355D01*
X202816352Y-159206582D01*
X202716489Y-158603615D01*
X202228003Y-155663230D01*
X201783886Y-155571032D01*
X201518963Y-155528435D01*
X201319347Y-155518800D01*
X201253701Y-155532027D01*
X201218434Y-155577003D01*
X201203621Y-155670589D01*
X201203621Y-155670589D01*
X201203621Y-155670589D01*
G37*
X201203621Y-155670589D02*
X201211817Y-155833540D01*
X201245579Y-156086610D01*
X201307464Y-156450557D01*
X201400028Y-156946133D01*
X201476760Y-157343048D01*
X201562286Y-157814495D01*
X201638292Y-158292655D01*
X201695773Y-158717297D01*
X201723547Y-158994048D01*
X201763218Y-159365831D01*
X201823989Y-159731387D01*
X201883332Y-159977667D01*
X201970316Y-160299453D01*
X202040630Y-160625183D01*
X202052855Y-160697334D01*
X202111528Y-161062929D01*
X202162797Y-161295162D01*
X202224942Y-161428047D01*
X202316238Y-161495596D01*
X202454964Y-161531824D01*
X202506358Y-161541269D01*
X202771139Y-161592263D01*
X202995107Y-161640218D01*
X203009500Y-161643626D01*
X203156848Y-161652454D01*
X203202488Y-161616679D01*
X203189643Y-161518975D01*
X203152007Y-161273724D01*
X203092720Y-160900392D01*
X203014922Y-160418447D01*
X202921752Y-159847355D01*
X202816352Y-159206582D01*
X202716489Y-158603615D01*
X202228003Y-155663230D01*
X201783886Y-155571032D01*
X201518963Y-155528435D01*
X201319347Y-155518800D01*
X201253701Y-155532027D01*
X201218434Y-155577003D01*
X201203621Y-155670589D01*
X201203621Y-155670589D01*
G36*
X198289333Y-160757981D02*
X198364299Y-160800992D01*
X198552955Y-160848567D01*
X198649166Y-160865410D01*
X198908266Y-160909678D01*
X199111954Y-160951258D01*
X199149440Y-160960772D01*
X199247805Y-160936599D01*
X199373917Y-160801591D01*
X199542899Y-160537368D01*
X199642204Y-160361920D01*
X199848885Y-160018225D01*
X200017737Y-159800229D01*
X200136490Y-159723767D01*
X200136764Y-159723767D01*
X200285900Y-159739096D01*
X200547894Y-159779455D01*
X200869580Y-159836555D01*
X200912948Y-159844763D01*
X201219520Y-159898014D01*
X201455049Y-159929131D01*
X201576285Y-159932634D01*
X201582872Y-159929684D01*
X201590009Y-159833478D01*
X201571431Y-159621467D01*
X201541590Y-159407890D01*
X201464333Y-158922072D01*
X201042856Y-158852003D01*
X200795834Y-158806306D01*
X200629155Y-158766768D01*
X200590796Y-158751351D01*
X200616147Y-158669608D01*
X200710484Y-158479132D01*
X200855416Y-158216237D01*
X200906787Y-158127349D01*
X201253363Y-157533931D01*
X201157447Y-156871965D01*
X201105156Y-156544773D01*
X201053507Y-156277540D01*
X201012174Y-156119231D01*
X201005868Y-156104705D01*
X200956273Y-156155918D01*
X200835791Y-156333843D01*
X200656594Y-156617629D01*
X200430855Y-156986423D01*
X200170747Y-157419376D01*
X199888442Y-157895636D01*
X199596113Y-158394352D01*
X199305932Y-158894672D01*
X199030074Y-159375746D01*
X198780709Y-159816722D01*
X198570011Y-160196749D01*
X198410152Y-160494976D01*
X198313306Y-160690553D01*
X198289333Y-160757981D01*
X198289333Y-160757981D01*
X198289333Y-160757981D01*
G37*
X198289333Y-160757981D02*
X198364299Y-160800992D01*
X198552955Y-160848567D01*
X198649166Y-160865410D01*
X198908266Y-160909678D01*
X199111954Y-160951258D01*
X199149440Y-160960772D01*
X199247805Y-160936599D01*
X199373917Y-160801591D01*
X199542899Y-160537368D01*
X199642204Y-160361920D01*
X199848885Y-160018225D01*
X200017737Y-159800229D01*
X200136490Y-159723767D01*
X200136764Y-159723767D01*
X200285900Y-159739096D01*
X200547894Y-159779455D01*
X200869580Y-159836555D01*
X200912948Y-159844763D01*
X201219520Y-159898014D01*
X201455049Y-159929131D01*
X201576285Y-159932634D01*
X201582872Y-159929684D01*
X201590009Y-159833478D01*
X201571431Y-159621467D01*
X201541590Y-159407890D01*
X201464333Y-158922072D01*
X201042856Y-158852003D01*
X200795834Y-158806306D01*
X200629155Y-158766768D01*
X200590796Y-158751351D01*
X200616147Y-158669608D01*
X200710484Y-158479132D01*
X200855416Y-158216237D01*
X200906787Y-158127349D01*
X201253363Y-157533931D01*
X201157447Y-156871965D01*
X201105156Y-156544773D01*
X201053507Y-156277540D01*
X201012174Y-156119231D01*
X201005868Y-156104705D01*
X200956273Y-156155918D01*
X200835791Y-156333843D01*
X200656594Y-156617629D01*
X200430855Y-156986423D01*
X200170747Y-157419376D01*
X199888442Y-157895636D01*
X199596113Y-158394352D01*
X199305932Y-158894672D01*
X199030074Y-159375746D01*
X198780709Y-159816722D01*
X198570011Y-160196749D01*
X198410152Y-160494976D01*
X198313306Y-160690553D01*
X198289333Y-160757981D01*
X198289333Y-160757981D01*
G36*
X196342000Y-156714164D02*
X196346659Y-156979896D01*
X196378390Y-157123180D01*
X196463820Y-157190901D01*
X196629579Y-157229944D01*
X196635580Y-157231070D01*
X196908290Y-157329739D01*
X197149881Y-157496717D01*
X197312508Y-157691719D01*
X197353811Y-157835791D01*
X197337701Y-157969251D01*
X197296081Y-158236193D01*
X197234412Y-158603623D01*
X197158156Y-159038547D01*
X197115649Y-159274401D01*
X196881675Y-160560801D01*
X197225671Y-160614086D01*
X197480028Y-160657581D01*
X197678131Y-160698418D01*
X197708005Y-160706105D01*
X197837458Y-160672292D01*
X197891564Y-160551753D01*
X197938144Y-160329503D01*
X198001012Y-159996577D01*
X198075457Y-159581451D01*
X198156771Y-159112597D01*
X198240244Y-158618492D01*
X198321168Y-158127608D01*
X198394833Y-157668420D01*
X198456530Y-157269403D01*
X198501550Y-156959031D01*
X198525184Y-156765777D01*
X198526114Y-156714893D01*
X198417489Y-156670981D01*
X198212522Y-156624389D01*
X197975224Y-156585478D01*
X197769606Y-156564611D01*
X197659679Y-156572147D01*
X197657013Y-156574209D01*
X197619234Y-156687093D01*
X197612000Y-156783215D01*
X197596499Y-156867715D01*
X197529993Y-156858355D01*
X197382478Y-156744883D01*
X197306261Y-156678766D01*
X196943334Y-156412958D01*
X196610773Y-156271366D01*
X196463488Y-156252334D01*
X196388951Y-156300236D01*
X196351041Y-156462992D01*
X196342000Y-156714164D01*
X196342000Y-156714164D01*
X196342000Y-156714164D01*
G37*
X196342000Y-156714164D02*
X196346659Y-156979896D01*
X196378390Y-157123180D01*
X196463820Y-157190901D01*
X196629579Y-157229944D01*
X196635580Y-157231070D01*
X196908290Y-157329739D01*
X197149881Y-157496717D01*
X197312508Y-157691719D01*
X197353811Y-157835791D01*
X197337701Y-157969251D01*
X197296081Y-158236193D01*
X197234412Y-158603623D01*
X197158156Y-159038547D01*
X197115649Y-159274401D01*
X196881675Y-160560801D01*
X197225671Y-160614086D01*
X197480028Y-160657581D01*
X197678131Y-160698418D01*
X197708005Y-160706105D01*
X197837458Y-160672292D01*
X197891564Y-160551753D01*
X197938144Y-160329503D01*
X198001012Y-159996577D01*
X198075457Y-159581451D01*
X198156771Y-159112597D01*
X198240244Y-158618492D01*
X198321168Y-158127608D01*
X198394833Y-157668420D01*
X198456530Y-157269403D01*
X198501550Y-156959031D01*
X198525184Y-156765777D01*
X198526114Y-156714893D01*
X198417489Y-156670981D01*
X198212522Y-156624389D01*
X197975224Y-156585478D01*
X197769606Y-156564611D01*
X197659679Y-156572147D01*
X197657013Y-156574209D01*
X197619234Y-156687093D01*
X197612000Y-156783215D01*
X197596499Y-156867715D01*
X197529993Y-156858355D01*
X197382478Y-156744883D01*
X197306261Y-156678766D01*
X196943334Y-156412958D01*
X196610773Y-156271366D01*
X196463488Y-156252334D01*
X196388951Y-156300236D01*
X196351041Y-156462992D01*
X196342000Y-156714164D01*
X196342000Y-156714164D01*
G36*
X189152080Y-159151294D02*
X189155909Y-159169385D01*
X189250265Y-159200830D01*
X189458302Y-159247827D01*
X189630241Y-159280957D01*
X189807569Y-159316060D01*
X189935908Y-159331833D01*
X190027821Y-159306003D01*
X190095873Y-159216297D01*
X190152628Y-159040442D01*
X190210651Y-158756167D01*
X190282505Y-158341198D01*
X190335732Y-158030334D01*
X190439447Y-157465551D01*
X190533639Y-157043352D01*
X190627515Y-156738028D01*
X190730281Y-156523869D01*
X190851140Y-156375163D01*
X190958221Y-156291760D01*
X191235432Y-156195261D01*
X191543208Y-156214182D01*
X191830173Y-156329941D01*
X192044952Y-156523960D01*
X192128835Y-156715101D01*
X192128573Y-156869771D01*
X192101126Y-157156756D01*
X192050745Y-157541984D01*
X191981685Y-157991381D01*
X191935676Y-158262707D01*
X191840749Y-158838372D01*
X191783897Y-159264679D01*
X191765657Y-159536595D01*
X191786565Y-159649090D01*
X191787864Y-159649987D01*
X191906477Y-159688337D01*
X192114869Y-159731240D01*
X192351038Y-159768944D01*
X192552987Y-159791701D01*
X192658713Y-159789760D01*
X192661958Y-159787443D01*
X192681917Y-159701061D01*
X192725234Y-159477229D01*
X192786437Y-159145360D01*
X192860054Y-158734865D01*
X192900191Y-158507131D01*
X193017796Y-157888380D01*
X193130328Y-157419532D01*
X193245388Y-157081629D01*
X193370577Y-156855716D01*
X193513497Y-156722836D01*
X193635585Y-156673144D01*
X193959460Y-156659254D01*
X194303523Y-156742000D01*
X194577556Y-156899606D01*
X194578940Y-156900854D01*
X194647898Y-156974906D01*
X194693624Y-157067071D01*
X194714926Y-157200040D01*
X194710617Y-157396504D01*
X194679504Y-157679157D01*
X194620400Y-158070690D01*
X194532113Y-158593794D01*
X194472137Y-158937527D01*
X194402678Y-159351273D01*
X194349833Y-159701387D01*
X194317945Y-159956151D01*
X194311356Y-160083847D01*
X194314082Y-160092120D01*
X194412940Y-160122672D01*
X194624957Y-160162306D01*
X194793346Y-160187226D01*
X195051732Y-160216199D01*
X195189425Y-160204312D01*
X195252799Y-160138322D01*
X195278722Y-160048632D01*
X195336605Y-159768077D01*
X195407821Y-159388854D01*
X195487636Y-158940102D01*
X195571314Y-158450957D01*
X195654120Y-157950557D01*
X195731322Y-157468039D01*
X195798183Y-157032540D01*
X195849969Y-156673197D01*
X195881945Y-156419147D01*
X195889378Y-156299527D01*
X195888520Y-156295895D01*
X195786275Y-156216540D01*
X195582712Y-156149874D01*
X195523867Y-156138589D01*
X195279698Y-156121285D01*
X195135153Y-156180406D01*
X195093784Y-156226320D01*
X195008100Y-156313530D01*
X194917232Y-156291765D01*
X194797450Y-156188645D01*
X194437482Y-155959027D01*
X193998160Y-155841100D01*
X193532025Y-155840359D01*
X193091617Y-155962299D01*
X193011352Y-156001835D01*
X192688879Y-156174671D01*
X192517770Y-155957140D01*
X192244885Y-155712137D01*
X191867463Y-155505788D01*
X191450232Y-155371964D01*
X191372046Y-155357571D01*
X190887855Y-155359490D01*
X190445157Y-155513920D01*
X190065960Y-155805164D01*
X189772271Y-156217525D01*
X189617974Y-156608666D01*
X189556604Y-156854160D01*
X189483630Y-157189585D01*
X189405303Y-157580310D01*
X189327872Y-157991701D01*
X189257584Y-158389127D01*
X189200691Y-158737956D01*
X189163439Y-159003556D01*
X189152080Y-159151294D01*
X189152080Y-159151294D01*
X189152080Y-159151294D01*
G37*
X189152080Y-159151294D02*
X189155909Y-159169385D01*
X189250265Y-159200830D01*
X189458302Y-159247827D01*
X189630241Y-159280957D01*
X189807569Y-159316060D01*
X189935908Y-159331833D01*
X190027821Y-159306003D01*
X190095873Y-159216297D01*
X190152628Y-159040442D01*
X190210651Y-158756167D01*
X190282505Y-158341198D01*
X190335732Y-158030334D01*
X190439447Y-157465551D01*
X190533639Y-157043352D01*
X190627515Y-156738028D01*
X190730281Y-156523869D01*
X190851140Y-156375163D01*
X190958221Y-156291760D01*
X191235432Y-156195261D01*
X191543208Y-156214182D01*
X191830173Y-156329941D01*
X192044952Y-156523960D01*
X192128835Y-156715101D01*
X192128573Y-156869771D01*
X192101126Y-157156756D01*
X192050745Y-157541984D01*
X191981685Y-157991381D01*
X191935676Y-158262707D01*
X191840749Y-158838372D01*
X191783897Y-159264679D01*
X191765657Y-159536595D01*
X191786565Y-159649090D01*
X191787864Y-159649987D01*
X191906477Y-159688337D01*
X192114869Y-159731240D01*
X192351038Y-159768944D01*
X192552987Y-159791701D01*
X192658713Y-159789760D01*
X192661958Y-159787443D01*
X192681917Y-159701061D01*
X192725234Y-159477229D01*
X192786437Y-159145360D01*
X192860054Y-158734865D01*
X192900191Y-158507131D01*
X193017796Y-157888380D01*
X193130328Y-157419532D01*
X193245388Y-157081629D01*
X193370577Y-156855716D01*
X193513497Y-156722836D01*
X193635585Y-156673144D01*
X193959460Y-156659254D01*
X194303523Y-156742000D01*
X194577556Y-156899606D01*
X194578940Y-156900854D01*
X194647898Y-156974906D01*
X194693624Y-157067071D01*
X194714926Y-157200040D01*
X194710617Y-157396504D01*
X194679504Y-157679157D01*
X194620400Y-158070690D01*
X194532113Y-158593794D01*
X194472137Y-158937527D01*
X194402678Y-159351273D01*
X194349833Y-159701387D01*
X194317945Y-159956151D01*
X194311356Y-160083847D01*
X194314082Y-160092120D01*
X194412940Y-160122672D01*
X194624957Y-160162306D01*
X194793346Y-160187226D01*
X195051732Y-160216199D01*
X195189425Y-160204312D01*
X195252799Y-160138322D01*
X195278722Y-160048632D01*
X195336605Y-159768077D01*
X195407821Y-159388854D01*
X195487636Y-158940102D01*
X195571314Y-158450957D01*
X195654120Y-157950557D01*
X195731322Y-157468039D01*
X195798183Y-157032540D01*
X195849969Y-156673197D01*
X195881945Y-156419147D01*
X195889378Y-156299527D01*
X195888520Y-156295895D01*
X195786275Y-156216540D01*
X195582712Y-156149874D01*
X195523867Y-156138589D01*
X195279698Y-156121285D01*
X195135153Y-156180406D01*
X195093784Y-156226320D01*
X195008100Y-156313530D01*
X194917232Y-156291765D01*
X194797450Y-156188645D01*
X194437482Y-155959027D01*
X193998160Y-155841100D01*
X193532025Y-155840359D01*
X193091617Y-155962299D01*
X193011352Y-156001835D01*
X192688879Y-156174671D01*
X192517770Y-155957140D01*
X192244885Y-155712137D01*
X191867463Y-155505788D01*
X191450232Y-155371964D01*
X191372046Y-155357571D01*
X190887855Y-155359490D01*
X190445157Y-155513920D01*
X190065960Y-155805164D01*
X189772271Y-156217525D01*
X189617974Y-156608666D01*
X189556604Y-156854160D01*
X189483630Y-157189585D01*
X189405303Y-157580310D01*
X189327872Y-157991701D01*
X189257584Y-158389127D01*
X189200691Y-158737956D01*
X189163439Y-159003556D01*
X189152080Y-159151294D01*
X189152080Y-159151294D01*
G36*
X190494521Y-150793795D02*
X190593292Y-151384000D01*
X190739269Y-151689019D01*
X190994958Y-152017065D01*
X191314894Y-152323385D01*
X191653614Y-152563227D01*
X191906823Y-152676944D01*
X192102173Y-152712307D01*
X192430249Y-152739951D01*
X192899155Y-152760171D01*
X193516993Y-152773261D01*
X194291868Y-152779517D01*
X194743156Y-152780173D01*
X195458364Y-152779564D01*
X196025513Y-152777281D01*
X196465876Y-152771847D01*
X196800729Y-152761783D01*
X197051344Y-152745612D01*
X197238997Y-152721856D01*
X197384961Y-152689037D01*
X197510509Y-152645677D01*
X197636917Y-152590299D01*
X197665155Y-152577194D01*
X197756533Y-152534463D01*
X197840963Y-152491015D01*
X197926726Y-152437620D01*
X198022102Y-152365046D01*
X198135370Y-152264062D01*
X198274810Y-152125437D01*
X198448702Y-151939941D01*
X198665325Y-151698342D01*
X198932959Y-151391410D01*
X199259884Y-151009914D01*
X199654379Y-150544622D01*
X200124725Y-149986304D01*
X200679201Y-149325728D01*
X201326086Y-148553664D01*
X202057000Y-147680779D01*
X202563025Y-147079160D01*
X203036372Y-146521617D01*
X203465967Y-146020814D01*
X203840737Y-145589419D01*
X204149609Y-145240097D01*
X204381509Y-144985514D01*
X204525365Y-144838336D01*
X204569756Y-144806563D01*
X204608475Y-144894689D01*
X204699539Y-145127727D01*
X204837629Y-145491372D01*
X205017428Y-145971324D01*
X205233619Y-146553278D01*
X205480885Y-147222932D01*
X205753909Y-147965983D01*
X206047373Y-148768130D01*
X206291062Y-149436667D01*
X206712027Y-150587413D01*
X207079748Y-151579795D01*
X207395045Y-152415918D01*
X207658739Y-153097888D01*
X207871653Y-153627811D01*
X208034607Y-154007793D01*
X208148422Y-154239938D01*
X208190082Y-154305000D01*
X208565850Y-154654777D01*
X209041361Y-154912226D01*
X209560259Y-155050647D01*
X209798486Y-155067000D01*
X210215730Y-155029259D01*
X210606370Y-154898681D01*
X210740736Y-154834167D01*
X211193812Y-154520968D01*
X211547606Y-154107931D01*
X211785032Y-153628699D01*
X211889009Y-153116914D01*
X211852002Y-152645733D01*
X211809331Y-152506193D01*
X211713525Y-152222871D01*
X211570072Y-151810846D01*
X211384461Y-151285199D01*
X211162179Y-150661010D01*
X210908715Y-149953358D01*
X210629556Y-149177323D01*
X210330191Y-148347985D01*
X210016109Y-147480423D01*
X209692796Y-146589719D01*
X209365741Y-145690951D01*
X209040433Y-144799200D01*
X208722359Y-143929544D01*
X208417007Y-143097065D01*
X208129866Y-142316843D01*
X207866424Y-141603955D01*
X207632168Y-140973484D01*
X207432587Y-140440508D01*
X207273169Y-140020108D01*
X207159402Y-139727363D01*
X207096774Y-139577353D01*
X207093624Y-139570957D01*
X206801993Y-139170433D01*
X206395412Y-138843689D01*
X205918615Y-138613711D01*
X205416338Y-138503483D01*
X205038380Y-138514986D01*
X204881451Y-138540417D01*
X204738971Y-138569590D01*
X204602472Y-138611144D01*
X204463487Y-138673717D01*
X204313551Y-138765949D01*
X204144195Y-138896478D01*
X203946954Y-139073943D01*
X203713360Y-139306982D01*
X203434948Y-139604234D01*
X203103249Y-139974338D01*
X202709798Y-140425932D01*
X202246128Y-140967655D01*
X201703772Y-141608147D01*
X201074263Y-142356045D01*
X200349134Y-143219988D01*
X199886981Y-143771010D01*
X195809716Y-148632333D01*
X194032514Y-148632334D01*
X193344272Y-148635063D01*
X192800480Y-148646896D01*
X192376291Y-148673294D01*
X192046862Y-148719722D01*
X191787347Y-148791644D01*
X191572901Y-148894522D01*
X191378679Y-149033821D01*
X191179837Y-149215004D01*
X191121437Y-149272506D01*
X190752184Y-149736475D01*
X190544157Y-150239791D01*
X190494521Y-150793795D01*
X190494521Y-150793795D01*
X190494521Y-150793795D01*
G37*
X190494521Y-150793795D02*
X190593292Y-151384000D01*
X190739269Y-151689019D01*
X190994958Y-152017065D01*
X191314894Y-152323385D01*
X191653614Y-152563227D01*
X191906823Y-152676944D01*
X192102173Y-152712307D01*
X192430249Y-152739951D01*
X192899155Y-152760171D01*
X193516993Y-152773261D01*
X194291868Y-152779517D01*
X194743156Y-152780173D01*
X195458364Y-152779564D01*
X196025513Y-152777281D01*
X196465876Y-152771847D01*
X196800729Y-152761783D01*
X197051344Y-152745612D01*
X197238997Y-152721856D01*
X197384961Y-152689037D01*
X197510509Y-152645677D01*
X197636917Y-152590299D01*
X197665155Y-152577194D01*
X197756533Y-152534463D01*
X197840963Y-152491015D01*
X197926726Y-152437620D01*
X198022102Y-152365046D01*
X198135370Y-152264062D01*
X198274810Y-152125437D01*
X198448702Y-151939941D01*
X198665325Y-151698342D01*
X198932959Y-151391410D01*
X199259884Y-151009914D01*
X199654379Y-150544622D01*
X200124725Y-149986304D01*
X200679201Y-149325728D01*
X201326086Y-148553664D01*
X202057000Y-147680779D01*
X202563025Y-147079160D01*
X203036372Y-146521617D01*
X203465967Y-146020814D01*
X203840737Y-145589419D01*
X204149609Y-145240097D01*
X204381509Y-144985514D01*
X204525365Y-144838336D01*
X204569756Y-144806563D01*
X204608475Y-144894689D01*
X204699539Y-145127727D01*
X204837629Y-145491372D01*
X205017428Y-145971324D01*
X205233619Y-146553278D01*
X205480885Y-147222932D01*
X205753909Y-147965983D01*
X206047373Y-148768130D01*
X206291062Y-149436667D01*
X206712027Y-150587413D01*
X207079748Y-151579795D01*
X207395045Y-152415918D01*
X207658739Y-153097888D01*
X207871653Y-153627811D01*
X208034607Y-154007793D01*
X208148422Y-154239938D01*
X208190082Y-154305000D01*
X208565850Y-154654777D01*
X209041361Y-154912226D01*
X209560259Y-155050647D01*
X209798486Y-155067000D01*
X210215730Y-155029259D01*
X210606370Y-154898681D01*
X210740736Y-154834167D01*
X211193812Y-154520968D01*
X211547606Y-154107931D01*
X211785032Y-153628699D01*
X211889009Y-153116914D01*
X211852002Y-152645733D01*
X211809331Y-152506193D01*
X211713525Y-152222871D01*
X211570072Y-151810846D01*
X211384461Y-151285199D01*
X211162179Y-150661010D01*
X210908715Y-149953358D01*
X210629556Y-149177323D01*
X210330191Y-148347985D01*
X210016109Y-147480423D01*
X209692796Y-146589719D01*
X209365741Y-145690951D01*
X209040433Y-144799200D01*
X208722359Y-143929544D01*
X208417007Y-143097065D01*
X208129866Y-142316843D01*
X207866424Y-141603955D01*
X207632168Y-140973484D01*
X207432587Y-140440508D01*
X207273169Y-140020108D01*
X207159402Y-139727363D01*
X207096774Y-139577353D01*
X207093624Y-139570957D01*
X206801993Y-139170433D01*
X206395412Y-138843689D01*
X205918615Y-138613711D01*
X205416338Y-138503483D01*
X205038380Y-138514986D01*
X204881451Y-138540417D01*
X204738971Y-138569590D01*
X204602472Y-138611144D01*
X204463487Y-138673717D01*
X204313551Y-138765949D01*
X204144195Y-138896478D01*
X203946954Y-139073943D01*
X203713360Y-139306982D01*
X203434948Y-139604234D01*
X203103249Y-139974338D01*
X202709798Y-140425932D01*
X202246128Y-140967655D01*
X201703772Y-141608147D01*
X201074263Y-142356045D01*
X200349134Y-143219988D01*
X199886981Y-143771010D01*
X195809716Y-148632333D01*
X194032514Y-148632334D01*
X193344272Y-148635063D01*
X192800480Y-148646896D01*
X192376291Y-148673294D01*
X192046862Y-148719722D01*
X191787347Y-148791644D01*
X191572901Y-148894522D01*
X191378679Y-149033821D01*
X191179837Y-149215004D01*
X191121437Y-149272506D01*
X190752184Y-149736475D01*
X190544157Y-150239791D01*
X190494521Y-150793795D01*
X190494521Y-150793795D01*
G36*
X105779532Y-162390667D02*
X106293266Y-162488801D01*
X106563349Y-162538023D01*
X106754376Y-162568340D01*
X106820350Y-162573468D01*
X106848289Y-162492431D01*
X106919235Y-162272743D01*
X107025881Y-161937439D01*
X107160917Y-161509554D01*
X107317034Y-161012120D01*
X107402230Y-160739667D01*
X107566714Y-160214848D01*
X107714397Y-159747121D01*
X107837856Y-159359709D01*
X107929669Y-159075836D01*
X107982412Y-158918725D01*
X107991845Y-158894925D01*
X108024954Y-158962552D01*
X108103817Y-159165284D01*
X108219176Y-159478076D01*
X108361772Y-159875885D01*
X108500473Y-160270758D01*
X108659810Y-160724181D01*
X108800428Y-161116388D01*
X108912907Y-161421747D01*
X108987828Y-161614628D01*
X109015030Y-161671000D01*
X109074897Y-161608972D01*
X109223676Y-161437184D01*
X109443230Y-161177076D01*
X109715419Y-160850091D01*
X109946092Y-160570334D01*
X110247219Y-160206631D01*
X110510946Y-159893620D01*
X110718794Y-159652791D01*
X110852282Y-159505635D01*
X110892567Y-159469667D01*
X110903251Y-159549170D01*
X110905699Y-159767540D01*
X110900996Y-160094565D01*
X110890228Y-160500036D01*
X110874479Y-160953743D01*
X110854835Y-161425474D01*
X110832382Y-161885021D01*
X110808204Y-162302172D01*
X110783388Y-162646717D01*
X110775011Y-162741811D01*
X110750408Y-162987969D01*
X110751682Y-163147067D01*
X110807450Y-163244649D01*
X110946328Y-163306258D01*
X111196932Y-163357437D01*
X111527166Y-163413194D01*
X111844666Y-163467845D01*
X111844216Y-162929256D01*
X111847519Y-162700605D01*
X111857059Y-162331299D01*
X111871908Y-161849864D01*
X111891139Y-161284826D01*
X111913823Y-160664712D01*
X111938293Y-160036465D01*
X111961814Y-159423461D01*
X111981034Y-158868011D01*
X111995368Y-158391908D01*
X112004229Y-158016944D01*
X112007033Y-157764914D01*
X112003193Y-157657610D01*
X112002243Y-157655481D01*
X111907651Y-157628564D01*
X111702561Y-157590795D01*
X111577701Y-157571557D01*
X111183736Y-157514418D01*
X110276609Y-158665561D01*
X109979660Y-159038059D01*
X109719436Y-159356273D01*
X109513425Y-159599484D01*
X109379116Y-159746969D01*
X109334544Y-159781766D01*
X109297451Y-159693733D01*
X109216871Y-159472125D01*
X109102352Y-159144182D01*
X108963443Y-158737142D01*
X108850801Y-158401747D01*
X108401998Y-157056667D01*
X107990064Y-156953324D01*
X107751974Y-156897662D01*
X107595733Y-156868865D01*
X107562681Y-156868657D01*
X107534094Y-156950721D01*
X107459887Y-157175396D01*
X107346112Y-157524037D01*
X107198822Y-157977998D01*
X107024070Y-158518634D01*
X106827907Y-159127299D01*
X106663381Y-159639000D01*
X105779532Y-162390667D01*
X105779532Y-162390667D01*
X105779532Y-162390667D01*
G37*
X105779532Y-162390667D02*
X106293266Y-162488801D01*
X106563349Y-162538023D01*
X106754376Y-162568340D01*
X106820350Y-162573468D01*
X106848289Y-162492431D01*
X106919235Y-162272743D01*
X107025881Y-161937439D01*
X107160917Y-161509554D01*
X107317034Y-161012120D01*
X107402230Y-160739667D01*
X107566714Y-160214848D01*
X107714397Y-159747121D01*
X107837856Y-159359709D01*
X107929669Y-159075836D01*
X107982412Y-158918725D01*
X107991845Y-158894925D01*
X108024954Y-158962552D01*
X108103817Y-159165284D01*
X108219176Y-159478076D01*
X108361772Y-159875885D01*
X108500473Y-160270758D01*
X108659810Y-160724181D01*
X108800428Y-161116388D01*
X108912907Y-161421747D01*
X108987828Y-161614628D01*
X109015030Y-161671000D01*
X109074897Y-161608972D01*
X109223676Y-161437184D01*
X109443230Y-161177076D01*
X109715419Y-160850091D01*
X109946092Y-160570334D01*
X110247219Y-160206631D01*
X110510946Y-159893620D01*
X110718794Y-159652791D01*
X110852282Y-159505635D01*
X110892567Y-159469667D01*
X110903251Y-159549170D01*
X110905699Y-159767540D01*
X110900996Y-160094565D01*
X110890228Y-160500036D01*
X110874479Y-160953743D01*
X110854835Y-161425474D01*
X110832382Y-161885021D01*
X110808204Y-162302172D01*
X110783388Y-162646717D01*
X110775011Y-162741811D01*
X110750408Y-162987969D01*
X110751682Y-163147067D01*
X110807450Y-163244649D01*
X110946328Y-163306258D01*
X111196932Y-163357437D01*
X111527166Y-163413194D01*
X111844666Y-163467845D01*
X111844216Y-162929256D01*
X111847519Y-162700605D01*
X111857059Y-162331299D01*
X111871908Y-161849864D01*
X111891139Y-161284826D01*
X111913823Y-160664712D01*
X111938293Y-160036465D01*
X111961814Y-159423461D01*
X111981034Y-158868011D01*
X111995368Y-158391908D01*
X112004229Y-158016944D01*
X112007033Y-157764914D01*
X112003193Y-157657610D01*
X112002243Y-157655481D01*
X111907651Y-157628564D01*
X111702561Y-157590795D01*
X111577701Y-157571557D01*
X111183736Y-157514418D01*
X110276609Y-158665561D01*
X109979660Y-159038059D01*
X109719436Y-159356273D01*
X109513425Y-159599484D01*
X109379116Y-159746969D01*
X109334544Y-159781766D01*
X109297451Y-159693733D01*
X109216871Y-159472125D01*
X109102352Y-159144182D01*
X108963443Y-158737142D01*
X108850801Y-158401747D01*
X108401998Y-157056667D01*
X107990064Y-156953324D01*
X107751974Y-156897662D01*
X107595733Y-156868865D01*
X107562681Y-156868657D01*
X107534094Y-156950721D01*
X107459887Y-157175396D01*
X107346112Y-157524037D01*
X107198822Y-157977998D01*
X107024070Y-158518634D01*
X106827907Y-159127299D01*
X106663381Y-159639000D01*
X105779532Y-162390667D01*
X105779532Y-162390667D01*
G36*
X101987210Y-161370798D02*
X102008054Y-161519404D01*
X102020995Y-161541183D01*
X102234445Y-161700785D01*
X102570012Y-161843589D01*
X102980619Y-161959735D01*
X103419193Y-162039362D01*
X103838658Y-162072610D01*
X104191939Y-162049619D01*
X104309881Y-162020615D01*
X104865849Y-161764964D01*
X105288563Y-161406848D01*
X105580111Y-160943247D01*
X105742580Y-160371142D01*
X105780774Y-159893000D01*
X105771827Y-159502578D01*
X105726503Y-159215719D01*
X105633182Y-158968473D01*
X105601522Y-158906356D01*
X105269418Y-158450706D01*
X104834262Y-158119318D01*
X104319928Y-157924372D01*
X103750292Y-157878045D01*
X103609395Y-157890228D01*
X103100882Y-158028646D01*
X102681343Y-158302738D01*
X102366848Y-158695342D01*
X102173463Y-159189298D01*
X102126748Y-159473675D01*
X102108598Y-159718833D01*
X102133672Y-159845192D01*
X102228682Y-159902480D01*
X102372947Y-159931987D01*
X102578467Y-159968553D01*
X102898944Y-160025802D01*
X103282671Y-160094491D01*
X103521736Y-160137347D01*
X103932051Y-160207807D01*
X104204297Y-160238089D01*
X104366777Y-160219557D01*
X104447791Y-160143574D01*
X104475642Y-160001505D01*
X104478666Y-159845355D01*
X104475608Y-159750539D01*
X104446618Y-159684027D01*
X104361978Y-159632828D01*
X104191970Y-159583947D01*
X103906873Y-159524392D01*
X103615428Y-159467951D01*
X103321904Y-159394064D01*
X103187980Y-159300311D01*
X103204037Y-159160601D01*
X103360456Y-158948840D01*
X103405375Y-158898167D01*
X103644792Y-158744394D01*
X103936986Y-158712578D01*
X104238289Y-158785490D01*
X104505037Y-158945900D01*
X104693562Y-159176578D01*
X104760327Y-159432790D01*
X104740771Y-159909242D01*
X104668929Y-160332769D01*
X104554220Y-160660501D01*
X104458958Y-160804202D01*
X104153468Y-161063481D01*
X103819672Y-161202744D01*
X103437445Y-161221599D01*
X102986658Y-161119652D01*
X102447184Y-160896511D01*
X102176238Y-160759679D01*
X102110749Y-160801050D01*
X102049873Y-160954665D01*
X102004922Y-161163566D01*
X101987210Y-161370798D01*
X101987210Y-161370798D01*
X101987210Y-161370798D01*
G37*
X101987210Y-161370798D02*
X102008054Y-161519404D01*
X102020995Y-161541183D01*
X102234445Y-161700785D01*
X102570012Y-161843589D01*
X102980619Y-161959735D01*
X103419193Y-162039362D01*
X103838658Y-162072610D01*
X104191939Y-162049619D01*
X104309881Y-162020615D01*
X104865849Y-161764964D01*
X105288563Y-161406848D01*
X105580111Y-160943247D01*
X105742580Y-160371142D01*
X105780774Y-159893000D01*
X105771827Y-159502578D01*
X105726503Y-159215719D01*
X105633182Y-158968473D01*
X105601522Y-158906356D01*
X105269418Y-158450706D01*
X104834262Y-158119318D01*
X104319928Y-157924372D01*
X103750292Y-157878045D01*
X103609395Y-157890228D01*
X103100882Y-158028646D01*
X102681343Y-158302738D01*
X102366848Y-158695342D01*
X102173463Y-159189298D01*
X102126748Y-159473675D01*
X102108598Y-159718833D01*
X102133672Y-159845192D01*
X102228682Y-159902480D01*
X102372947Y-159931987D01*
X102578467Y-159968553D01*
X102898944Y-160025802D01*
X103282671Y-160094491D01*
X103521736Y-160137347D01*
X103932051Y-160207807D01*
X104204297Y-160238089D01*
X104366777Y-160219557D01*
X104447791Y-160143574D01*
X104475642Y-160001505D01*
X104478666Y-159845355D01*
X104475608Y-159750539D01*
X104446618Y-159684027D01*
X104361978Y-159632828D01*
X104191970Y-159583947D01*
X103906873Y-159524392D01*
X103615428Y-159467951D01*
X103321904Y-159394064D01*
X103187980Y-159300311D01*
X103204037Y-159160601D01*
X103360456Y-158948840D01*
X103405375Y-158898167D01*
X103644792Y-158744394D01*
X103936986Y-158712578D01*
X104238289Y-158785490D01*
X104505037Y-158945900D01*
X104693562Y-159176578D01*
X104760327Y-159432790D01*
X104740771Y-159909242D01*
X104668929Y-160332769D01*
X104554220Y-160660501D01*
X104458958Y-160804202D01*
X104153468Y-161063481D01*
X103819672Y-161202744D01*
X103437445Y-161221599D01*
X102986658Y-161119652D01*
X102447184Y-160896511D01*
X102176238Y-160759679D01*
X102110749Y-160801050D01*
X102049873Y-160954665D01*
X102004922Y-161163566D01*
X101987210Y-161370798D01*
X101987210Y-161370798D01*
G36*
X99603621Y-155670589D02*
X99611817Y-155833540D01*
X99645579Y-156086610D01*
X99707464Y-156450557D01*
X99800028Y-156946133D01*
X99876760Y-157343048D01*
X99962286Y-157814495D01*
X100038292Y-158292655D01*
X100095773Y-158717297D01*
X100123547Y-158994048D01*
X100163218Y-159365831D01*
X100223989Y-159731387D01*
X100283332Y-159977667D01*
X100370316Y-160299453D01*
X100440630Y-160625183D01*
X100452855Y-160697334D01*
X100511528Y-161062929D01*
X100562797Y-161295162D01*
X100624942Y-161428047D01*
X100716238Y-161495596D01*
X100854964Y-161531824D01*
X100906358Y-161541269D01*
X101171139Y-161592263D01*
X101395107Y-161640218D01*
X101409500Y-161643626D01*
X101556848Y-161652454D01*
X101602488Y-161616679D01*
X101589643Y-161518975D01*
X101552007Y-161273724D01*
X101492720Y-160900392D01*
X101414922Y-160418447D01*
X101321752Y-159847355D01*
X101216352Y-159206582D01*
X101116489Y-158603615D01*
X100628003Y-155663230D01*
X100183886Y-155571032D01*
X99918963Y-155528435D01*
X99719347Y-155518800D01*
X99653701Y-155532027D01*
X99618434Y-155577003D01*
X99603621Y-155670589D01*
X99603621Y-155670589D01*
X99603621Y-155670589D01*
G37*
X99603621Y-155670589D02*
X99611817Y-155833540D01*
X99645579Y-156086610D01*
X99707464Y-156450557D01*
X99800028Y-156946133D01*
X99876760Y-157343048D01*
X99962286Y-157814495D01*
X100038292Y-158292655D01*
X100095773Y-158717297D01*
X100123547Y-158994048D01*
X100163218Y-159365831D01*
X100223989Y-159731387D01*
X100283332Y-159977667D01*
X100370316Y-160299453D01*
X100440630Y-160625183D01*
X100452855Y-160697334D01*
X100511528Y-161062929D01*
X100562797Y-161295162D01*
X100624942Y-161428047D01*
X100716238Y-161495596D01*
X100854964Y-161531824D01*
X100906358Y-161541269D01*
X101171139Y-161592263D01*
X101395107Y-161640218D01*
X101409500Y-161643626D01*
X101556848Y-161652454D01*
X101602488Y-161616679D01*
X101589643Y-161518975D01*
X101552007Y-161273724D01*
X101492720Y-160900392D01*
X101414922Y-160418447D01*
X101321752Y-159847355D01*
X101216352Y-159206582D01*
X101116489Y-158603615D01*
X100628003Y-155663230D01*
X100183886Y-155571032D01*
X99918963Y-155528435D01*
X99719347Y-155518800D01*
X99653701Y-155532027D01*
X99618434Y-155577003D01*
X99603621Y-155670589D01*
X99603621Y-155670589D01*
G36*
X96689333Y-160757981D02*
X96764299Y-160800992D01*
X96952955Y-160848567D01*
X97049166Y-160865410D01*
X97308266Y-160909678D01*
X97511954Y-160951258D01*
X97549440Y-160960772D01*
X97647805Y-160936599D01*
X97773917Y-160801591D01*
X97942899Y-160537368D01*
X98042204Y-160361920D01*
X98248885Y-160018225D01*
X98417737Y-159800229D01*
X98536490Y-159723767D01*
X98536764Y-159723767D01*
X98685900Y-159739096D01*
X98947894Y-159779455D01*
X99269580Y-159836555D01*
X99312948Y-159844763D01*
X99619520Y-159898014D01*
X99855049Y-159929131D01*
X99976285Y-159932634D01*
X99982872Y-159929684D01*
X99990009Y-159833478D01*
X99971431Y-159621467D01*
X99941590Y-159407890D01*
X99864333Y-158922072D01*
X99442856Y-158852003D01*
X99195834Y-158806306D01*
X99029155Y-158766768D01*
X98990796Y-158751351D01*
X99016147Y-158669608D01*
X99110484Y-158479132D01*
X99255416Y-158216237D01*
X99306787Y-158127349D01*
X99653363Y-157533931D01*
X99557447Y-156871965D01*
X99505156Y-156544773D01*
X99453507Y-156277540D01*
X99412174Y-156119231D01*
X99405868Y-156104705D01*
X99356273Y-156155918D01*
X99235791Y-156333843D01*
X99056594Y-156617629D01*
X98830855Y-156986423D01*
X98570747Y-157419376D01*
X98288442Y-157895636D01*
X97996113Y-158394352D01*
X97705932Y-158894672D01*
X97430074Y-159375746D01*
X97180709Y-159816722D01*
X96970011Y-160196749D01*
X96810152Y-160494976D01*
X96713306Y-160690553D01*
X96689333Y-160757981D01*
X96689333Y-160757981D01*
X96689333Y-160757981D01*
G37*
X96689333Y-160757981D02*
X96764299Y-160800992D01*
X96952955Y-160848567D01*
X97049166Y-160865410D01*
X97308266Y-160909678D01*
X97511954Y-160951258D01*
X97549440Y-160960772D01*
X97647805Y-160936599D01*
X97773917Y-160801591D01*
X97942899Y-160537368D01*
X98042204Y-160361920D01*
X98248885Y-160018225D01*
X98417737Y-159800229D01*
X98536490Y-159723767D01*
X98536764Y-159723767D01*
X98685900Y-159739096D01*
X98947894Y-159779455D01*
X99269580Y-159836555D01*
X99312948Y-159844763D01*
X99619520Y-159898014D01*
X99855049Y-159929131D01*
X99976285Y-159932634D01*
X99982872Y-159929684D01*
X99990009Y-159833478D01*
X99971431Y-159621467D01*
X99941590Y-159407890D01*
X99864333Y-158922072D01*
X99442856Y-158852003D01*
X99195834Y-158806306D01*
X99029155Y-158766768D01*
X98990796Y-158751351D01*
X99016147Y-158669608D01*
X99110484Y-158479132D01*
X99255416Y-158216237D01*
X99306787Y-158127349D01*
X99653363Y-157533931D01*
X99557447Y-156871965D01*
X99505156Y-156544773D01*
X99453507Y-156277540D01*
X99412174Y-156119231D01*
X99405868Y-156104705D01*
X99356273Y-156155918D01*
X99235791Y-156333843D01*
X99056594Y-156617629D01*
X98830855Y-156986423D01*
X98570747Y-157419376D01*
X98288442Y-157895636D01*
X97996113Y-158394352D01*
X97705932Y-158894672D01*
X97430074Y-159375746D01*
X97180709Y-159816722D01*
X96970011Y-160196749D01*
X96810152Y-160494976D01*
X96713306Y-160690553D01*
X96689333Y-160757981D01*
X96689333Y-160757981D01*
G36*
X94742000Y-156714164D02*
X94746659Y-156979896D01*
X94778390Y-157123180D01*
X94863820Y-157190901D01*
X95029579Y-157229944D01*
X95035580Y-157231070D01*
X95308290Y-157329739D01*
X95549881Y-157496717D01*
X95712508Y-157691719D01*
X95753811Y-157835791D01*
X95737701Y-157969251D01*
X95696081Y-158236193D01*
X95634412Y-158603623D01*
X95558156Y-159038547D01*
X95515649Y-159274401D01*
X95281675Y-160560801D01*
X95625671Y-160614086D01*
X95880028Y-160657581D01*
X96078131Y-160698418D01*
X96108005Y-160706105D01*
X96237458Y-160672292D01*
X96291564Y-160551753D01*
X96338144Y-160329503D01*
X96401012Y-159996577D01*
X96475457Y-159581451D01*
X96556771Y-159112597D01*
X96640244Y-158618492D01*
X96721168Y-158127608D01*
X96794833Y-157668420D01*
X96856530Y-157269403D01*
X96901550Y-156959031D01*
X96925184Y-156765777D01*
X96926114Y-156714893D01*
X96817489Y-156670981D01*
X96612522Y-156624389D01*
X96375224Y-156585478D01*
X96169606Y-156564611D01*
X96059679Y-156572147D01*
X96057013Y-156574209D01*
X96019234Y-156687093D01*
X96012000Y-156783215D01*
X95996499Y-156867715D01*
X95929993Y-156858355D01*
X95782478Y-156744883D01*
X95706261Y-156678766D01*
X95343334Y-156412958D01*
X95010773Y-156271366D01*
X94863488Y-156252334D01*
X94788951Y-156300236D01*
X94751041Y-156462992D01*
X94742000Y-156714164D01*
X94742000Y-156714164D01*
X94742000Y-156714164D01*
G37*
X94742000Y-156714164D02*
X94746659Y-156979896D01*
X94778390Y-157123180D01*
X94863820Y-157190901D01*
X95029579Y-157229944D01*
X95035580Y-157231070D01*
X95308290Y-157329739D01*
X95549881Y-157496717D01*
X95712508Y-157691719D01*
X95753811Y-157835791D01*
X95737701Y-157969251D01*
X95696081Y-158236193D01*
X95634412Y-158603623D01*
X95558156Y-159038547D01*
X95515649Y-159274401D01*
X95281675Y-160560801D01*
X95625671Y-160614086D01*
X95880028Y-160657581D01*
X96078131Y-160698418D01*
X96108005Y-160706105D01*
X96237458Y-160672292D01*
X96291564Y-160551753D01*
X96338144Y-160329503D01*
X96401012Y-159996577D01*
X96475457Y-159581451D01*
X96556771Y-159112597D01*
X96640244Y-158618492D01*
X96721168Y-158127608D01*
X96794833Y-157668420D01*
X96856530Y-157269403D01*
X96901550Y-156959031D01*
X96925184Y-156765777D01*
X96926114Y-156714893D01*
X96817489Y-156670981D01*
X96612522Y-156624389D01*
X96375224Y-156585478D01*
X96169606Y-156564611D01*
X96059679Y-156572147D01*
X96057013Y-156574209D01*
X96019234Y-156687093D01*
X96012000Y-156783215D01*
X95996499Y-156867715D01*
X95929993Y-156858355D01*
X95782478Y-156744883D01*
X95706261Y-156678766D01*
X95343334Y-156412958D01*
X95010773Y-156271366D01*
X94863488Y-156252334D01*
X94788951Y-156300236D01*
X94751041Y-156462992D01*
X94742000Y-156714164D01*
X94742000Y-156714164D01*
G36*
X87552080Y-159151294D02*
X87555909Y-159169385D01*
X87650265Y-159200830D01*
X87858302Y-159247827D01*
X88030241Y-159280957D01*
X88207569Y-159316060D01*
X88335908Y-159331833D01*
X88427821Y-159306003D01*
X88495873Y-159216297D01*
X88552628Y-159040442D01*
X88610651Y-158756167D01*
X88682505Y-158341198D01*
X88735732Y-158030334D01*
X88839447Y-157465551D01*
X88933639Y-157043352D01*
X89027515Y-156738028D01*
X89130281Y-156523869D01*
X89251140Y-156375163D01*
X89358221Y-156291760D01*
X89635432Y-156195261D01*
X89943208Y-156214182D01*
X90230173Y-156329941D01*
X90444952Y-156523960D01*
X90528835Y-156715101D01*
X90528573Y-156869771D01*
X90501126Y-157156756D01*
X90450745Y-157541984D01*
X90381685Y-157991381D01*
X90335676Y-158262707D01*
X90240749Y-158838372D01*
X90183897Y-159264679D01*
X90165657Y-159536595D01*
X90186565Y-159649090D01*
X90187864Y-159649987D01*
X90306477Y-159688337D01*
X90514869Y-159731240D01*
X90751038Y-159768944D01*
X90952987Y-159791701D01*
X91058713Y-159789760D01*
X91061958Y-159787443D01*
X91081917Y-159701061D01*
X91125234Y-159477229D01*
X91186437Y-159145360D01*
X91260054Y-158734865D01*
X91300191Y-158507131D01*
X91417796Y-157888380D01*
X91530328Y-157419532D01*
X91645388Y-157081629D01*
X91770577Y-156855716D01*
X91913497Y-156722836D01*
X92035585Y-156673144D01*
X92359460Y-156659254D01*
X92703523Y-156742000D01*
X92977556Y-156899606D01*
X92978940Y-156900854D01*
X93047898Y-156974906D01*
X93093624Y-157067071D01*
X93114926Y-157200040D01*
X93110617Y-157396504D01*
X93079504Y-157679157D01*
X93020400Y-158070690D01*
X92932113Y-158593794D01*
X92872137Y-158937527D01*
X92802678Y-159351273D01*
X92749833Y-159701387D01*
X92717945Y-159956151D01*
X92711356Y-160083847D01*
X92714082Y-160092120D01*
X92812940Y-160122672D01*
X93024957Y-160162306D01*
X93193346Y-160187226D01*
X93451732Y-160216199D01*
X93589425Y-160204312D01*
X93652799Y-160138322D01*
X93678722Y-160048632D01*
X93736605Y-159768077D01*
X93807821Y-159388854D01*
X93887636Y-158940102D01*
X93971314Y-158450957D01*
X94054120Y-157950557D01*
X94131322Y-157468039D01*
X94198183Y-157032540D01*
X94249969Y-156673197D01*
X94281945Y-156419147D01*
X94289378Y-156299527D01*
X94288520Y-156295895D01*
X94186275Y-156216540D01*
X93982712Y-156149874D01*
X93923867Y-156138589D01*
X93679698Y-156121285D01*
X93535153Y-156180406D01*
X93493784Y-156226320D01*
X93408100Y-156313530D01*
X93317232Y-156291765D01*
X93197450Y-156188645D01*
X92837482Y-155959027D01*
X92398160Y-155841100D01*
X91932025Y-155840359D01*
X91491617Y-155962299D01*
X91411352Y-156001835D01*
X91088879Y-156174671D01*
X90917770Y-155957140D01*
X90644885Y-155712137D01*
X90267463Y-155505788D01*
X89850232Y-155371964D01*
X89772046Y-155357571D01*
X89287855Y-155359490D01*
X88845157Y-155513920D01*
X88465960Y-155805164D01*
X88172271Y-156217525D01*
X88017974Y-156608666D01*
X87956604Y-156854160D01*
X87883630Y-157189585D01*
X87805303Y-157580310D01*
X87727872Y-157991701D01*
X87657584Y-158389127D01*
X87600691Y-158737956D01*
X87563439Y-159003556D01*
X87552080Y-159151294D01*
X87552080Y-159151294D01*
X87552080Y-159151294D01*
G37*
X87552080Y-159151294D02*
X87555909Y-159169385D01*
X87650265Y-159200830D01*
X87858302Y-159247827D01*
X88030241Y-159280957D01*
X88207569Y-159316060D01*
X88335908Y-159331833D01*
X88427821Y-159306003D01*
X88495873Y-159216297D01*
X88552628Y-159040442D01*
X88610651Y-158756167D01*
X88682505Y-158341198D01*
X88735732Y-158030334D01*
X88839447Y-157465551D01*
X88933639Y-157043352D01*
X89027515Y-156738028D01*
X89130281Y-156523869D01*
X89251140Y-156375163D01*
X89358221Y-156291760D01*
X89635432Y-156195261D01*
X89943208Y-156214182D01*
X90230173Y-156329941D01*
X90444952Y-156523960D01*
X90528835Y-156715101D01*
X90528573Y-156869771D01*
X90501126Y-157156756D01*
X90450745Y-157541984D01*
X90381685Y-157991381D01*
X90335676Y-158262707D01*
X90240749Y-158838372D01*
X90183897Y-159264679D01*
X90165657Y-159536595D01*
X90186565Y-159649090D01*
X90187864Y-159649987D01*
X90306477Y-159688337D01*
X90514869Y-159731240D01*
X90751038Y-159768944D01*
X90952987Y-159791701D01*
X91058713Y-159789760D01*
X91061958Y-159787443D01*
X91081917Y-159701061D01*
X91125234Y-159477229D01*
X91186437Y-159145360D01*
X91260054Y-158734865D01*
X91300191Y-158507131D01*
X91417796Y-157888380D01*
X91530328Y-157419532D01*
X91645388Y-157081629D01*
X91770577Y-156855716D01*
X91913497Y-156722836D01*
X92035585Y-156673144D01*
X92359460Y-156659254D01*
X92703523Y-156742000D01*
X92977556Y-156899606D01*
X92978940Y-156900854D01*
X93047898Y-156974906D01*
X93093624Y-157067071D01*
X93114926Y-157200040D01*
X93110617Y-157396504D01*
X93079504Y-157679157D01*
X93020400Y-158070690D01*
X92932113Y-158593794D01*
X92872137Y-158937527D01*
X92802678Y-159351273D01*
X92749833Y-159701387D01*
X92717945Y-159956151D01*
X92711356Y-160083847D01*
X92714082Y-160092120D01*
X92812940Y-160122672D01*
X93024957Y-160162306D01*
X93193346Y-160187226D01*
X93451732Y-160216199D01*
X93589425Y-160204312D01*
X93652799Y-160138322D01*
X93678722Y-160048632D01*
X93736605Y-159768077D01*
X93807821Y-159388854D01*
X93887636Y-158940102D01*
X93971314Y-158450957D01*
X94054120Y-157950557D01*
X94131322Y-157468039D01*
X94198183Y-157032540D01*
X94249969Y-156673197D01*
X94281945Y-156419147D01*
X94289378Y-156299527D01*
X94288520Y-156295895D01*
X94186275Y-156216540D01*
X93982712Y-156149874D01*
X93923867Y-156138589D01*
X93679698Y-156121285D01*
X93535153Y-156180406D01*
X93493784Y-156226320D01*
X93408100Y-156313530D01*
X93317232Y-156291765D01*
X93197450Y-156188645D01*
X92837482Y-155959027D01*
X92398160Y-155841100D01*
X91932025Y-155840359D01*
X91491617Y-155962299D01*
X91411352Y-156001835D01*
X91088879Y-156174671D01*
X90917770Y-155957140D01*
X90644885Y-155712137D01*
X90267463Y-155505788D01*
X89850232Y-155371964D01*
X89772046Y-155357571D01*
X89287855Y-155359490D01*
X88845157Y-155513920D01*
X88465960Y-155805164D01*
X88172271Y-156217525D01*
X88017974Y-156608666D01*
X87956604Y-156854160D01*
X87883630Y-157189585D01*
X87805303Y-157580310D01*
X87727872Y-157991701D01*
X87657584Y-158389127D01*
X87600691Y-158737956D01*
X87563439Y-159003556D01*
X87552080Y-159151294D01*
X87552080Y-159151294D01*
G36*
X88894521Y-150793795D02*
X88993292Y-151384000D01*
X89139269Y-151689019D01*
X89394958Y-152017065D01*
X89714894Y-152323385D01*
X90053614Y-152563227D01*
X90306823Y-152676944D01*
X90502173Y-152712307D01*
X90830249Y-152739951D01*
X91299155Y-152760171D01*
X91916993Y-152773261D01*
X92691868Y-152779517D01*
X93143156Y-152780173D01*
X93858364Y-152779564D01*
X94425513Y-152777281D01*
X94865876Y-152771847D01*
X95200729Y-152761783D01*
X95451344Y-152745612D01*
X95638997Y-152721856D01*
X95784961Y-152689037D01*
X95910509Y-152645677D01*
X96036917Y-152590299D01*
X96065155Y-152577194D01*
X96156533Y-152534463D01*
X96240963Y-152491015D01*
X96326726Y-152437620D01*
X96422102Y-152365046D01*
X96535370Y-152264062D01*
X96674810Y-152125437D01*
X96848702Y-151939941D01*
X97065325Y-151698342D01*
X97332959Y-151391410D01*
X97659884Y-151009914D01*
X98054379Y-150544622D01*
X98524725Y-149986304D01*
X99079201Y-149325728D01*
X99726086Y-148553664D01*
X100457000Y-147680779D01*
X100963025Y-147079160D01*
X101436372Y-146521617D01*
X101865967Y-146020814D01*
X102240737Y-145589419D01*
X102549609Y-145240097D01*
X102781509Y-144985514D01*
X102925365Y-144838336D01*
X102969756Y-144806563D01*
X103008475Y-144894689D01*
X103099539Y-145127727D01*
X103237629Y-145491372D01*
X103417428Y-145971324D01*
X103633619Y-146553278D01*
X103880885Y-147222932D01*
X104153909Y-147965983D01*
X104447373Y-148768130D01*
X104691062Y-149436667D01*
X105112027Y-150587413D01*
X105479748Y-151579795D01*
X105795045Y-152415918D01*
X106058739Y-153097888D01*
X106271653Y-153627811D01*
X106434607Y-154007793D01*
X106548422Y-154239938D01*
X106590082Y-154305000D01*
X106965850Y-154654777D01*
X107441361Y-154912226D01*
X107960259Y-155050647D01*
X108198486Y-155067000D01*
X108615730Y-155029259D01*
X109006370Y-154898681D01*
X109140736Y-154834167D01*
X109593812Y-154520968D01*
X109947606Y-154107931D01*
X110185032Y-153628699D01*
X110289009Y-153116914D01*
X110252002Y-152645733D01*
X110209331Y-152506193D01*
X110113525Y-152222871D01*
X109970072Y-151810846D01*
X109784461Y-151285199D01*
X109562179Y-150661010D01*
X109308715Y-149953358D01*
X109029556Y-149177323D01*
X108730191Y-148347985D01*
X108416109Y-147480423D01*
X108092796Y-146589719D01*
X107765741Y-145690951D01*
X107440433Y-144799200D01*
X107122359Y-143929544D01*
X106817007Y-143097065D01*
X106529866Y-142316843D01*
X106266424Y-141603955D01*
X106032168Y-140973484D01*
X105832587Y-140440508D01*
X105673169Y-140020108D01*
X105559402Y-139727363D01*
X105496774Y-139577353D01*
X105493624Y-139570957D01*
X105201993Y-139170433D01*
X104795412Y-138843689D01*
X104318615Y-138613711D01*
X103816338Y-138503483D01*
X103438380Y-138514986D01*
X103281451Y-138540417D01*
X103138971Y-138569590D01*
X103002472Y-138611144D01*
X102863487Y-138673717D01*
X102713551Y-138765949D01*
X102544195Y-138896478D01*
X102346954Y-139073943D01*
X102113360Y-139306982D01*
X101834948Y-139604234D01*
X101503249Y-139974338D01*
X101109798Y-140425932D01*
X100646128Y-140967655D01*
X100103772Y-141608147D01*
X99474263Y-142356045D01*
X98749134Y-143219988D01*
X98286981Y-143771010D01*
X94209716Y-148632333D01*
X92432514Y-148632334D01*
X91744272Y-148635063D01*
X91200480Y-148646896D01*
X90776291Y-148673294D01*
X90446862Y-148719722D01*
X90187347Y-148791644D01*
X89972901Y-148894522D01*
X89778679Y-149033821D01*
X89579837Y-149215004D01*
X89521437Y-149272506D01*
X89152184Y-149736475D01*
X88944157Y-150239791D01*
X88894521Y-150793795D01*
X88894521Y-150793795D01*
X88894521Y-150793795D01*
G37*
X88894521Y-150793795D02*
X88993292Y-151384000D01*
X89139269Y-151689019D01*
X89394958Y-152017065D01*
X89714894Y-152323385D01*
X90053614Y-152563227D01*
X90306823Y-152676944D01*
X90502173Y-152712307D01*
X90830249Y-152739951D01*
X91299155Y-152760171D01*
X91916993Y-152773261D01*
X92691868Y-152779517D01*
X93143156Y-152780173D01*
X93858364Y-152779564D01*
X94425513Y-152777281D01*
X94865876Y-152771847D01*
X95200729Y-152761783D01*
X95451344Y-152745612D01*
X95638997Y-152721856D01*
X95784961Y-152689037D01*
X95910509Y-152645677D01*
X96036917Y-152590299D01*
X96065155Y-152577194D01*
X96156533Y-152534463D01*
X96240963Y-152491015D01*
X96326726Y-152437620D01*
X96422102Y-152365046D01*
X96535370Y-152264062D01*
X96674810Y-152125437D01*
X96848702Y-151939941D01*
X97065325Y-151698342D01*
X97332959Y-151391410D01*
X97659884Y-151009914D01*
X98054379Y-150544622D01*
X98524725Y-149986304D01*
X99079201Y-149325728D01*
X99726086Y-148553664D01*
X100457000Y-147680779D01*
X100963025Y-147079160D01*
X101436372Y-146521617D01*
X101865967Y-146020814D01*
X102240737Y-145589419D01*
X102549609Y-145240097D01*
X102781509Y-144985514D01*
X102925365Y-144838336D01*
X102969756Y-144806563D01*
X103008475Y-144894689D01*
X103099539Y-145127727D01*
X103237629Y-145491372D01*
X103417428Y-145971324D01*
X103633619Y-146553278D01*
X103880885Y-147222932D01*
X104153909Y-147965983D01*
X104447373Y-148768130D01*
X104691062Y-149436667D01*
X105112027Y-150587413D01*
X105479748Y-151579795D01*
X105795045Y-152415918D01*
X106058739Y-153097888D01*
X106271653Y-153627811D01*
X106434607Y-154007793D01*
X106548422Y-154239938D01*
X106590082Y-154305000D01*
X106965850Y-154654777D01*
X107441361Y-154912226D01*
X107960259Y-155050647D01*
X108198486Y-155067000D01*
X108615730Y-155029259D01*
X109006370Y-154898681D01*
X109140736Y-154834167D01*
X109593812Y-154520968D01*
X109947606Y-154107931D01*
X110185032Y-153628699D01*
X110289009Y-153116914D01*
X110252002Y-152645733D01*
X110209331Y-152506193D01*
X110113525Y-152222871D01*
X109970072Y-151810846D01*
X109784461Y-151285199D01*
X109562179Y-150661010D01*
X109308715Y-149953358D01*
X109029556Y-149177323D01*
X108730191Y-148347985D01*
X108416109Y-147480423D01*
X108092796Y-146589719D01*
X107765741Y-145690951D01*
X107440433Y-144799200D01*
X107122359Y-143929544D01*
X106817007Y-143097065D01*
X106529866Y-142316843D01*
X106266424Y-141603955D01*
X106032168Y-140973484D01*
X105832587Y-140440508D01*
X105673169Y-140020108D01*
X105559402Y-139727363D01*
X105496774Y-139577353D01*
X105493624Y-139570957D01*
X105201993Y-139170433D01*
X104795412Y-138843689D01*
X104318615Y-138613711D01*
X103816338Y-138503483D01*
X103438380Y-138514986D01*
X103281451Y-138540417D01*
X103138971Y-138569590D01*
X103002472Y-138611144D01*
X102863487Y-138673717D01*
X102713551Y-138765949D01*
X102544195Y-138896478D01*
X102346954Y-139073943D01*
X102113360Y-139306982D01*
X101834948Y-139604234D01*
X101503249Y-139974338D01*
X101109798Y-140425932D01*
X100646128Y-140967655D01*
X100103772Y-141608147D01*
X99474263Y-142356045D01*
X98749134Y-143219988D01*
X98286981Y-143771010D01*
X94209716Y-148632333D01*
X92432514Y-148632334D01*
X91744272Y-148635063D01*
X91200480Y-148646896D01*
X90776291Y-148673294D01*
X90446862Y-148719722D01*
X90187347Y-148791644D01*
X89972901Y-148894522D01*
X89778679Y-149033821D01*
X89579837Y-149215004D01*
X89521437Y-149272506D01*
X89152184Y-149736475D01*
X88944157Y-150239791D01*
X88894521Y-150793795D01*
X88894521Y-150793795D01*
G36*
X105779532Y-128100667D02*
X106293266Y-128198801D01*
X106563349Y-128248023D01*
X106754376Y-128278340D01*
X106820350Y-128283468D01*
X106848289Y-128202431D01*
X106919235Y-127982743D01*
X107025881Y-127647439D01*
X107160917Y-127219554D01*
X107317034Y-126722120D01*
X107402230Y-126449667D01*
X107566714Y-125924848D01*
X107714397Y-125457121D01*
X107837856Y-125069709D01*
X107929669Y-124785836D01*
X107982412Y-124628725D01*
X107991845Y-124604925D01*
X108024954Y-124672552D01*
X108103817Y-124875284D01*
X108219176Y-125188076D01*
X108361772Y-125585885D01*
X108500473Y-125980758D01*
X108659810Y-126434181D01*
X108800428Y-126826388D01*
X108912907Y-127131747D01*
X108987828Y-127324628D01*
X109015030Y-127381000D01*
X109074897Y-127318972D01*
X109223676Y-127147184D01*
X109443230Y-126887076D01*
X109715419Y-126560091D01*
X109946092Y-126280334D01*
X110247219Y-125916631D01*
X110510946Y-125603620D01*
X110718794Y-125362791D01*
X110852282Y-125215635D01*
X110892567Y-125179667D01*
X110903251Y-125259170D01*
X110905699Y-125477540D01*
X110900996Y-125804565D01*
X110890228Y-126210036D01*
X110874479Y-126663743D01*
X110854835Y-127135474D01*
X110832382Y-127595021D01*
X110808204Y-128012172D01*
X110783388Y-128356717D01*
X110775011Y-128451811D01*
X110750408Y-128697969D01*
X110751682Y-128857067D01*
X110807450Y-128954649D01*
X110946328Y-129016258D01*
X111196932Y-129067437D01*
X111527166Y-129123194D01*
X111844666Y-129177845D01*
X111844216Y-128639256D01*
X111847519Y-128410605D01*
X111857059Y-128041299D01*
X111871908Y-127559864D01*
X111891139Y-126994826D01*
X111913823Y-126374712D01*
X111938293Y-125746465D01*
X111961814Y-125133461D01*
X111981034Y-124578011D01*
X111995368Y-124101908D01*
X112004229Y-123726944D01*
X112007033Y-123474914D01*
X112003193Y-123367610D01*
X112002243Y-123365481D01*
X111907651Y-123338564D01*
X111702561Y-123300795D01*
X111577701Y-123281557D01*
X111183736Y-123224418D01*
X110276609Y-124375561D01*
X109979660Y-124748059D01*
X109719436Y-125066273D01*
X109513425Y-125309484D01*
X109379116Y-125456969D01*
X109334544Y-125491766D01*
X109297451Y-125403733D01*
X109216871Y-125182125D01*
X109102352Y-124854182D01*
X108963443Y-124447142D01*
X108850801Y-124111747D01*
X108401998Y-122766667D01*
X107990064Y-122663324D01*
X107751974Y-122607662D01*
X107595733Y-122578865D01*
X107562681Y-122578657D01*
X107534094Y-122660721D01*
X107459887Y-122885396D01*
X107346112Y-123234037D01*
X107198822Y-123687998D01*
X107024070Y-124228634D01*
X106827907Y-124837299D01*
X106663381Y-125349000D01*
X105779532Y-128100667D01*
X105779532Y-128100667D01*
X105779532Y-128100667D01*
G37*
X105779532Y-128100667D02*
X106293266Y-128198801D01*
X106563349Y-128248023D01*
X106754376Y-128278340D01*
X106820350Y-128283468D01*
X106848289Y-128202431D01*
X106919235Y-127982743D01*
X107025881Y-127647439D01*
X107160917Y-127219554D01*
X107317034Y-126722120D01*
X107402230Y-126449667D01*
X107566714Y-125924848D01*
X107714397Y-125457121D01*
X107837856Y-125069709D01*
X107929669Y-124785836D01*
X107982412Y-124628725D01*
X107991845Y-124604925D01*
X108024954Y-124672552D01*
X108103817Y-124875284D01*
X108219176Y-125188076D01*
X108361772Y-125585885D01*
X108500473Y-125980758D01*
X108659810Y-126434181D01*
X108800428Y-126826388D01*
X108912907Y-127131747D01*
X108987828Y-127324628D01*
X109015030Y-127381000D01*
X109074897Y-127318972D01*
X109223676Y-127147184D01*
X109443230Y-126887076D01*
X109715419Y-126560091D01*
X109946092Y-126280334D01*
X110247219Y-125916631D01*
X110510946Y-125603620D01*
X110718794Y-125362791D01*
X110852282Y-125215635D01*
X110892567Y-125179667D01*
X110903251Y-125259170D01*
X110905699Y-125477540D01*
X110900996Y-125804565D01*
X110890228Y-126210036D01*
X110874479Y-126663743D01*
X110854835Y-127135474D01*
X110832382Y-127595021D01*
X110808204Y-128012172D01*
X110783388Y-128356717D01*
X110775011Y-128451811D01*
X110750408Y-128697969D01*
X110751682Y-128857067D01*
X110807450Y-128954649D01*
X110946328Y-129016258D01*
X111196932Y-129067437D01*
X111527166Y-129123194D01*
X111844666Y-129177845D01*
X111844216Y-128639256D01*
X111847519Y-128410605D01*
X111857059Y-128041299D01*
X111871908Y-127559864D01*
X111891139Y-126994826D01*
X111913823Y-126374712D01*
X111938293Y-125746465D01*
X111961814Y-125133461D01*
X111981034Y-124578011D01*
X111995368Y-124101908D01*
X112004229Y-123726944D01*
X112007033Y-123474914D01*
X112003193Y-123367610D01*
X112002243Y-123365481D01*
X111907651Y-123338564D01*
X111702561Y-123300795D01*
X111577701Y-123281557D01*
X111183736Y-123224418D01*
X110276609Y-124375561D01*
X109979660Y-124748059D01*
X109719436Y-125066273D01*
X109513425Y-125309484D01*
X109379116Y-125456969D01*
X109334544Y-125491766D01*
X109297451Y-125403733D01*
X109216871Y-125182125D01*
X109102352Y-124854182D01*
X108963443Y-124447142D01*
X108850801Y-124111747D01*
X108401998Y-122766667D01*
X107990064Y-122663324D01*
X107751974Y-122607662D01*
X107595733Y-122578865D01*
X107562681Y-122578657D01*
X107534094Y-122660721D01*
X107459887Y-122885396D01*
X107346112Y-123234037D01*
X107198822Y-123687998D01*
X107024070Y-124228634D01*
X106827907Y-124837299D01*
X106663381Y-125349000D01*
X105779532Y-128100667D01*
X105779532Y-128100667D01*
G36*
X101987210Y-127080798D02*
X102008054Y-127229404D01*
X102020995Y-127251183D01*
X102234445Y-127410785D01*
X102570012Y-127553589D01*
X102980619Y-127669735D01*
X103419193Y-127749362D01*
X103838658Y-127782610D01*
X104191939Y-127759619D01*
X104309881Y-127730615D01*
X104865849Y-127474964D01*
X105288563Y-127116848D01*
X105580111Y-126653247D01*
X105742580Y-126081142D01*
X105780774Y-125603000D01*
X105771827Y-125212578D01*
X105726503Y-124925719D01*
X105633182Y-124678473D01*
X105601522Y-124616356D01*
X105269418Y-124160706D01*
X104834262Y-123829318D01*
X104319928Y-123634372D01*
X103750292Y-123588045D01*
X103609395Y-123600228D01*
X103100882Y-123738646D01*
X102681343Y-124012738D01*
X102366848Y-124405342D01*
X102173463Y-124899298D01*
X102126748Y-125183675D01*
X102108598Y-125428833D01*
X102133672Y-125555192D01*
X102228682Y-125612480D01*
X102372947Y-125641987D01*
X102578467Y-125678553D01*
X102898944Y-125735802D01*
X103282671Y-125804491D01*
X103521736Y-125847347D01*
X103932051Y-125917807D01*
X104204297Y-125948089D01*
X104366777Y-125929557D01*
X104447791Y-125853574D01*
X104475642Y-125711505D01*
X104478666Y-125555355D01*
X104475608Y-125460539D01*
X104446618Y-125394027D01*
X104361978Y-125342828D01*
X104191970Y-125293947D01*
X103906873Y-125234392D01*
X103615428Y-125177951D01*
X103321904Y-125104064D01*
X103187980Y-125010311D01*
X103204037Y-124870601D01*
X103360456Y-124658840D01*
X103405375Y-124608167D01*
X103644792Y-124454394D01*
X103936986Y-124422578D01*
X104238289Y-124495490D01*
X104505037Y-124655900D01*
X104693562Y-124886578D01*
X104760327Y-125142790D01*
X104740771Y-125619242D01*
X104668929Y-126042769D01*
X104554220Y-126370501D01*
X104458958Y-126514202D01*
X104153468Y-126773481D01*
X103819672Y-126912744D01*
X103437445Y-126931599D01*
X102986658Y-126829652D01*
X102447184Y-126606511D01*
X102176238Y-126469679D01*
X102110749Y-126511050D01*
X102049873Y-126664665D01*
X102004922Y-126873566D01*
X101987210Y-127080798D01*
X101987210Y-127080798D01*
X101987210Y-127080798D01*
G37*
X101987210Y-127080798D02*
X102008054Y-127229404D01*
X102020995Y-127251183D01*
X102234445Y-127410785D01*
X102570012Y-127553589D01*
X102980619Y-127669735D01*
X103419193Y-127749362D01*
X103838658Y-127782610D01*
X104191939Y-127759619D01*
X104309881Y-127730615D01*
X104865849Y-127474964D01*
X105288563Y-127116848D01*
X105580111Y-126653247D01*
X105742580Y-126081142D01*
X105780774Y-125603000D01*
X105771827Y-125212578D01*
X105726503Y-124925719D01*
X105633182Y-124678473D01*
X105601522Y-124616356D01*
X105269418Y-124160706D01*
X104834262Y-123829318D01*
X104319928Y-123634372D01*
X103750292Y-123588045D01*
X103609395Y-123600228D01*
X103100882Y-123738646D01*
X102681343Y-124012738D01*
X102366848Y-124405342D01*
X102173463Y-124899298D01*
X102126748Y-125183675D01*
X102108598Y-125428833D01*
X102133672Y-125555192D01*
X102228682Y-125612480D01*
X102372947Y-125641987D01*
X102578467Y-125678553D01*
X102898944Y-125735802D01*
X103282671Y-125804491D01*
X103521736Y-125847347D01*
X103932051Y-125917807D01*
X104204297Y-125948089D01*
X104366777Y-125929557D01*
X104447791Y-125853574D01*
X104475642Y-125711505D01*
X104478666Y-125555355D01*
X104475608Y-125460539D01*
X104446618Y-125394027D01*
X104361978Y-125342828D01*
X104191970Y-125293947D01*
X103906873Y-125234392D01*
X103615428Y-125177951D01*
X103321904Y-125104064D01*
X103187980Y-125010311D01*
X103204037Y-124870601D01*
X103360456Y-124658840D01*
X103405375Y-124608167D01*
X103644792Y-124454394D01*
X103936986Y-124422578D01*
X104238289Y-124495490D01*
X104505037Y-124655900D01*
X104693562Y-124886578D01*
X104760327Y-125142790D01*
X104740771Y-125619242D01*
X104668929Y-126042769D01*
X104554220Y-126370501D01*
X104458958Y-126514202D01*
X104153468Y-126773481D01*
X103819672Y-126912744D01*
X103437445Y-126931599D01*
X102986658Y-126829652D01*
X102447184Y-126606511D01*
X102176238Y-126469679D01*
X102110749Y-126511050D01*
X102049873Y-126664665D01*
X102004922Y-126873566D01*
X101987210Y-127080798D01*
X101987210Y-127080798D01*
G36*
X99603621Y-121380589D02*
X99611817Y-121543540D01*
X99645579Y-121796610D01*
X99707464Y-122160557D01*
X99800028Y-122656133D01*
X99876760Y-123053048D01*
X99962286Y-123524495D01*
X100038292Y-124002655D01*
X100095773Y-124427297D01*
X100123547Y-124704048D01*
X100163218Y-125075831D01*
X100223989Y-125441387D01*
X100283332Y-125687667D01*
X100370316Y-126009453D01*
X100440630Y-126335183D01*
X100452855Y-126407334D01*
X100511528Y-126772929D01*
X100562797Y-127005162D01*
X100624942Y-127138047D01*
X100716238Y-127205596D01*
X100854964Y-127241824D01*
X100906358Y-127251269D01*
X101171139Y-127302263D01*
X101395107Y-127350218D01*
X101409500Y-127353626D01*
X101556848Y-127362454D01*
X101602488Y-127326679D01*
X101589643Y-127228975D01*
X101552007Y-126983724D01*
X101492720Y-126610392D01*
X101414922Y-126128447D01*
X101321752Y-125557355D01*
X101216352Y-124916582D01*
X101116489Y-124313615D01*
X100628003Y-121373230D01*
X100183886Y-121281032D01*
X99918963Y-121238435D01*
X99719347Y-121228800D01*
X99653701Y-121242027D01*
X99618434Y-121287003D01*
X99603621Y-121380589D01*
X99603621Y-121380589D01*
X99603621Y-121380589D01*
G37*
X99603621Y-121380589D02*
X99611817Y-121543540D01*
X99645579Y-121796610D01*
X99707464Y-122160557D01*
X99800028Y-122656133D01*
X99876760Y-123053048D01*
X99962286Y-123524495D01*
X100038292Y-124002655D01*
X100095773Y-124427297D01*
X100123547Y-124704048D01*
X100163218Y-125075831D01*
X100223989Y-125441387D01*
X100283332Y-125687667D01*
X100370316Y-126009453D01*
X100440630Y-126335183D01*
X100452855Y-126407334D01*
X100511528Y-126772929D01*
X100562797Y-127005162D01*
X100624942Y-127138047D01*
X100716238Y-127205596D01*
X100854964Y-127241824D01*
X100906358Y-127251269D01*
X101171139Y-127302263D01*
X101395107Y-127350218D01*
X101409500Y-127353626D01*
X101556848Y-127362454D01*
X101602488Y-127326679D01*
X101589643Y-127228975D01*
X101552007Y-126983724D01*
X101492720Y-126610392D01*
X101414922Y-126128447D01*
X101321752Y-125557355D01*
X101216352Y-124916582D01*
X101116489Y-124313615D01*
X100628003Y-121373230D01*
X100183886Y-121281032D01*
X99918963Y-121238435D01*
X99719347Y-121228800D01*
X99653701Y-121242027D01*
X99618434Y-121287003D01*
X99603621Y-121380589D01*
X99603621Y-121380589D01*
G36*
X96689333Y-126467981D02*
X96764299Y-126510992D01*
X96952955Y-126558567D01*
X97049166Y-126575410D01*
X97308266Y-126619678D01*
X97511954Y-126661258D01*
X97549440Y-126670772D01*
X97647805Y-126646599D01*
X97773917Y-126511591D01*
X97942899Y-126247368D01*
X98042204Y-126071920D01*
X98248885Y-125728225D01*
X98417737Y-125510229D01*
X98536490Y-125433767D01*
X98536764Y-125433767D01*
X98685900Y-125449096D01*
X98947894Y-125489455D01*
X99269580Y-125546555D01*
X99312948Y-125554763D01*
X99619520Y-125608014D01*
X99855049Y-125639131D01*
X99976285Y-125642634D01*
X99982872Y-125639684D01*
X99990009Y-125543478D01*
X99971431Y-125331467D01*
X99941590Y-125117890D01*
X99864333Y-124632072D01*
X99442856Y-124562003D01*
X99195834Y-124516306D01*
X99029155Y-124476768D01*
X98990796Y-124461351D01*
X99016147Y-124379608D01*
X99110484Y-124189132D01*
X99255416Y-123926237D01*
X99306787Y-123837349D01*
X99653363Y-123243931D01*
X99557447Y-122581965D01*
X99505156Y-122254773D01*
X99453507Y-121987540D01*
X99412174Y-121829231D01*
X99405868Y-121814705D01*
X99356273Y-121865918D01*
X99235791Y-122043843D01*
X99056594Y-122327629D01*
X98830855Y-122696423D01*
X98570747Y-123129376D01*
X98288442Y-123605636D01*
X97996113Y-124104352D01*
X97705932Y-124604672D01*
X97430074Y-125085746D01*
X97180709Y-125526722D01*
X96970011Y-125906749D01*
X96810152Y-126204976D01*
X96713306Y-126400553D01*
X96689333Y-126467981D01*
X96689333Y-126467981D01*
X96689333Y-126467981D01*
G37*
X96689333Y-126467981D02*
X96764299Y-126510992D01*
X96952955Y-126558567D01*
X97049166Y-126575410D01*
X97308266Y-126619678D01*
X97511954Y-126661258D01*
X97549440Y-126670772D01*
X97647805Y-126646599D01*
X97773917Y-126511591D01*
X97942899Y-126247368D01*
X98042204Y-126071920D01*
X98248885Y-125728225D01*
X98417737Y-125510229D01*
X98536490Y-125433767D01*
X98536764Y-125433767D01*
X98685900Y-125449096D01*
X98947894Y-125489455D01*
X99269580Y-125546555D01*
X99312948Y-125554763D01*
X99619520Y-125608014D01*
X99855049Y-125639131D01*
X99976285Y-125642634D01*
X99982872Y-125639684D01*
X99990009Y-125543478D01*
X99971431Y-125331467D01*
X99941590Y-125117890D01*
X99864333Y-124632072D01*
X99442856Y-124562003D01*
X99195834Y-124516306D01*
X99029155Y-124476768D01*
X98990796Y-124461351D01*
X99016147Y-124379608D01*
X99110484Y-124189132D01*
X99255416Y-123926237D01*
X99306787Y-123837349D01*
X99653363Y-123243931D01*
X99557447Y-122581965D01*
X99505156Y-122254773D01*
X99453507Y-121987540D01*
X99412174Y-121829231D01*
X99405868Y-121814705D01*
X99356273Y-121865918D01*
X99235791Y-122043843D01*
X99056594Y-122327629D01*
X98830855Y-122696423D01*
X98570747Y-123129376D01*
X98288442Y-123605636D01*
X97996113Y-124104352D01*
X97705932Y-124604672D01*
X97430074Y-125085746D01*
X97180709Y-125526722D01*
X96970011Y-125906749D01*
X96810152Y-126204976D01*
X96713306Y-126400553D01*
X96689333Y-126467981D01*
X96689333Y-126467981D01*
G36*
X94742000Y-122424164D02*
X94746659Y-122689896D01*
X94778390Y-122833180D01*
X94863820Y-122900901D01*
X95029579Y-122939944D01*
X95035580Y-122941070D01*
X95308290Y-123039739D01*
X95549881Y-123206717D01*
X95712508Y-123401719D01*
X95753811Y-123545791D01*
X95737701Y-123679251D01*
X95696081Y-123946193D01*
X95634412Y-124313623D01*
X95558156Y-124748547D01*
X95515649Y-124984401D01*
X95281675Y-126270801D01*
X95625671Y-126324086D01*
X95880028Y-126367581D01*
X96078131Y-126408418D01*
X96108005Y-126416105D01*
X96237458Y-126382292D01*
X96291564Y-126261753D01*
X96338144Y-126039503D01*
X96401012Y-125706577D01*
X96475457Y-125291451D01*
X96556771Y-124822597D01*
X96640244Y-124328492D01*
X96721168Y-123837608D01*
X96794833Y-123378420D01*
X96856530Y-122979403D01*
X96901550Y-122669031D01*
X96925184Y-122475777D01*
X96926114Y-122424893D01*
X96817489Y-122380981D01*
X96612522Y-122334389D01*
X96375224Y-122295478D01*
X96169606Y-122274611D01*
X96059679Y-122282147D01*
X96057013Y-122284209D01*
X96019234Y-122397093D01*
X96012000Y-122493215D01*
X95996499Y-122577715D01*
X95929993Y-122568355D01*
X95782478Y-122454883D01*
X95706261Y-122388766D01*
X95343334Y-122122958D01*
X95010773Y-121981366D01*
X94863488Y-121962334D01*
X94788951Y-122010236D01*
X94751041Y-122172992D01*
X94742000Y-122424164D01*
X94742000Y-122424164D01*
X94742000Y-122424164D01*
G37*
X94742000Y-122424164D02*
X94746659Y-122689896D01*
X94778390Y-122833180D01*
X94863820Y-122900901D01*
X95029579Y-122939944D01*
X95035580Y-122941070D01*
X95308290Y-123039739D01*
X95549881Y-123206717D01*
X95712508Y-123401719D01*
X95753811Y-123545791D01*
X95737701Y-123679251D01*
X95696081Y-123946193D01*
X95634412Y-124313623D01*
X95558156Y-124748547D01*
X95515649Y-124984401D01*
X95281675Y-126270801D01*
X95625671Y-126324086D01*
X95880028Y-126367581D01*
X96078131Y-126408418D01*
X96108005Y-126416105D01*
X96237458Y-126382292D01*
X96291564Y-126261753D01*
X96338144Y-126039503D01*
X96401012Y-125706577D01*
X96475457Y-125291451D01*
X96556771Y-124822597D01*
X96640244Y-124328492D01*
X96721168Y-123837608D01*
X96794833Y-123378420D01*
X96856530Y-122979403D01*
X96901550Y-122669031D01*
X96925184Y-122475777D01*
X96926114Y-122424893D01*
X96817489Y-122380981D01*
X96612522Y-122334389D01*
X96375224Y-122295478D01*
X96169606Y-122274611D01*
X96059679Y-122282147D01*
X96057013Y-122284209D01*
X96019234Y-122397093D01*
X96012000Y-122493215D01*
X95996499Y-122577715D01*
X95929993Y-122568355D01*
X95782478Y-122454883D01*
X95706261Y-122388766D01*
X95343334Y-122122958D01*
X95010773Y-121981366D01*
X94863488Y-121962334D01*
X94788951Y-122010236D01*
X94751041Y-122172992D01*
X94742000Y-122424164D01*
X94742000Y-122424164D01*
G36*
X87552080Y-124861294D02*
X87555909Y-124879385D01*
X87650265Y-124910830D01*
X87858302Y-124957827D01*
X88030241Y-124990957D01*
X88207569Y-125026060D01*
X88335908Y-125041833D01*
X88427821Y-125016003D01*
X88495873Y-124926297D01*
X88552628Y-124750442D01*
X88610651Y-124466167D01*
X88682505Y-124051198D01*
X88735732Y-123740334D01*
X88839447Y-123175551D01*
X88933639Y-122753352D01*
X89027515Y-122448028D01*
X89130281Y-122233869D01*
X89251140Y-122085163D01*
X89358221Y-122001760D01*
X89635432Y-121905261D01*
X89943208Y-121924182D01*
X90230173Y-122039941D01*
X90444952Y-122233960D01*
X90528835Y-122425101D01*
X90528573Y-122579771D01*
X90501126Y-122866756D01*
X90450745Y-123251984D01*
X90381685Y-123701381D01*
X90335676Y-123972707D01*
X90240749Y-124548372D01*
X90183897Y-124974679D01*
X90165657Y-125246595D01*
X90186565Y-125359090D01*
X90187864Y-125359987D01*
X90306477Y-125398337D01*
X90514869Y-125441240D01*
X90751038Y-125478944D01*
X90952987Y-125501701D01*
X91058713Y-125499760D01*
X91061958Y-125497443D01*
X91081917Y-125411061D01*
X91125234Y-125187229D01*
X91186437Y-124855360D01*
X91260054Y-124444865D01*
X91300191Y-124217131D01*
X91417796Y-123598380D01*
X91530328Y-123129532D01*
X91645388Y-122791629D01*
X91770577Y-122565716D01*
X91913497Y-122432836D01*
X92035585Y-122383144D01*
X92359460Y-122369254D01*
X92703523Y-122452000D01*
X92977556Y-122609606D01*
X92978940Y-122610854D01*
X93047898Y-122684906D01*
X93093624Y-122777071D01*
X93114926Y-122910040D01*
X93110617Y-123106504D01*
X93079504Y-123389157D01*
X93020400Y-123780690D01*
X92932113Y-124303794D01*
X92872137Y-124647527D01*
X92802678Y-125061273D01*
X92749833Y-125411387D01*
X92717945Y-125666151D01*
X92711356Y-125793847D01*
X92714082Y-125802120D01*
X92812940Y-125832672D01*
X93024957Y-125872306D01*
X93193346Y-125897226D01*
X93451732Y-125926199D01*
X93589425Y-125914312D01*
X93652799Y-125848322D01*
X93678722Y-125758632D01*
X93736605Y-125478077D01*
X93807821Y-125098854D01*
X93887636Y-124650102D01*
X93971314Y-124160957D01*
X94054120Y-123660557D01*
X94131322Y-123178039D01*
X94198183Y-122742540D01*
X94249969Y-122383197D01*
X94281945Y-122129147D01*
X94289378Y-122009527D01*
X94288520Y-122005895D01*
X94186275Y-121926540D01*
X93982712Y-121859874D01*
X93923867Y-121848589D01*
X93679698Y-121831285D01*
X93535153Y-121890406D01*
X93493784Y-121936320D01*
X93408100Y-122023530D01*
X93317232Y-122001765D01*
X93197450Y-121898645D01*
X92837482Y-121669027D01*
X92398160Y-121551100D01*
X91932025Y-121550359D01*
X91491617Y-121672299D01*
X91411352Y-121711835D01*
X91088879Y-121884671D01*
X90917770Y-121667140D01*
X90644885Y-121422137D01*
X90267463Y-121215788D01*
X89850232Y-121081964D01*
X89772046Y-121067571D01*
X89287855Y-121069490D01*
X88845157Y-121223920D01*
X88465960Y-121515164D01*
X88172271Y-121927525D01*
X88017974Y-122318666D01*
X87956604Y-122564160D01*
X87883630Y-122899585D01*
X87805303Y-123290310D01*
X87727872Y-123701701D01*
X87657584Y-124099127D01*
X87600691Y-124447956D01*
X87563439Y-124713556D01*
X87552080Y-124861294D01*
X87552080Y-124861294D01*
X87552080Y-124861294D01*
G37*
X87552080Y-124861294D02*
X87555909Y-124879385D01*
X87650265Y-124910830D01*
X87858302Y-124957827D01*
X88030241Y-124990957D01*
X88207569Y-125026060D01*
X88335908Y-125041833D01*
X88427821Y-125016003D01*
X88495873Y-124926297D01*
X88552628Y-124750442D01*
X88610651Y-124466167D01*
X88682505Y-124051198D01*
X88735732Y-123740334D01*
X88839447Y-123175551D01*
X88933639Y-122753352D01*
X89027515Y-122448028D01*
X89130281Y-122233869D01*
X89251140Y-122085163D01*
X89358221Y-122001760D01*
X89635432Y-121905261D01*
X89943208Y-121924182D01*
X90230173Y-122039941D01*
X90444952Y-122233960D01*
X90528835Y-122425101D01*
X90528573Y-122579771D01*
X90501126Y-122866756D01*
X90450745Y-123251984D01*
X90381685Y-123701381D01*
X90335676Y-123972707D01*
X90240749Y-124548372D01*
X90183897Y-124974679D01*
X90165657Y-125246595D01*
X90186565Y-125359090D01*
X90187864Y-125359987D01*
X90306477Y-125398337D01*
X90514869Y-125441240D01*
X90751038Y-125478944D01*
X90952987Y-125501701D01*
X91058713Y-125499760D01*
X91061958Y-125497443D01*
X91081917Y-125411061D01*
X91125234Y-125187229D01*
X91186437Y-124855360D01*
X91260054Y-124444865D01*
X91300191Y-124217131D01*
X91417796Y-123598380D01*
X91530328Y-123129532D01*
X91645388Y-122791629D01*
X91770577Y-122565716D01*
X91913497Y-122432836D01*
X92035585Y-122383144D01*
X92359460Y-122369254D01*
X92703523Y-122452000D01*
X92977556Y-122609606D01*
X92978940Y-122610854D01*
X93047898Y-122684906D01*
X93093624Y-122777071D01*
X93114926Y-122910040D01*
X93110617Y-123106504D01*
X93079504Y-123389157D01*
X93020400Y-123780690D01*
X92932113Y-124303794D01*
X92872137Y-124647527D01*
X92802678Y-125061273D01*
X92749833Y-125411387D01*
X92717945Y-125666151D01*
X92711356Y-125793847D01*
X92714082Y-125802120D01*
X92812940Y-125832672D01*
X93024957Y-125872306D01*
X93193346Y-125897226D01*
X93451732Y-125926199D01*
X93589425Y-125914312D01*
X93652799Y-125848322D01*
X93678722Y-125758632D01*
X93736605Y-125478077D01*
X93807821Y-125098854D01*
X93887636Y-124650102D01*
X93971314Y-124160957D01*
X94054120Y-123660557D01*
X94131322Y-123178039D01*
X94198183Y-122742540D01*
X94249969Y-122383197D01*
X94281945Y-122129147D01*
X94289378Y-122009527D01*
X94288520Y-122005895D01*
X94186275Y-121926540D01*
X93982712Y-121859874D01*
X93923867Y-121848589D01*
X93679698Y-121831285D01*
X93535153Y-121890406D01*
X93493784Y-121936320D01*
X93408100Y-122023530D01*
X93317232Y-122001765D01*
X93197450Y-121898645D01*
X92837482Y-121669027D01*
X92398160Y-121551100D01*
X91932025Y-121550359D01*
X91491617Y-121672299D01*
X91411352Y-121711835D01*
X91088879Y-121884671D01*
X90917770Y-121667140D01*
X90644885Y-121422137D01*
X90267463Y-121215788D01*
X89850232Y-121081964D01*
X89772046Y-121067571D01*
X89287855Y-121069490D01*
X88845157Y-121223920D01*
X88465960Y-121515164D01*
X88172271Y-121927525D01*
X88017974Y-122318666D01*
X87956604Y-122564160D01*
X87883630Y-122899585D01*
X87805303Y-123290310D01*
X87727872Y-123701701D01*
X87657584Y-124099127D01*
X87600691Y-124447956D01*
X87563439Y-124713556D01*
X87552080Y-124861294D01*
X87552080Y-124861294D01*
G36*
X88894521Y-116503795D02*
X88993292Y-117094000D01*
X89139269Y-117399019D01*
X89394958Y-117727065D01*
X89714894Y-118033385D01*
X90053614Y-118273227D01*
X90306823Y-118386944D01*
X90502173Y-118422307D01*
X90830249Y-118449951D01*
X91299155Y-118470171D01*
X91916993Y-118483261D01*
X92691868Y-118489517D01*
X93143156Y-118490173D01*
X93858364Y-118489564D01*
X94425513Y-118487281D01*
X94865876Y-118481847D01*
X95200729Y-118471783D01*
X95451344Y-118455612D01*
X95638997Y-118431856D01*
X95784961Y-118399037D01*
X95910509Y-118355677D01*
X96036917Y-118300299D01*
X96065155Y-118287194D01*
X96156533Y-118244463D01*
X96240963Y-118201015D01*
X96326726Y-118147620D01*
X96422102Y-118075046D01*
X96535370Y-117974062D01*
X96674810Y-117835437D01*
X96848702Y-117649941D01*
X97065325Y-117408342D01*
X97332959Y-117101410D01*
X97659884Y-116719914D01*
X98054379Y-116254622D01*
X98524725Y-115696304D01*
X99079201Y-115035728D01*
X99726086Y-114263664D01*
X100457000Y-113390779D01*
X100963025Y-112789160D01*
X101436372Y-112231617D01*
X101865967Y-111730814D01*
X102240737Y-111299419D01*
X102549609Y-110950097D01*
X102781509Y-110695514D01*
X102925365Y-110548336D01*
X102969756Y-110516563D01*
X103008475Y-110604689D01*
X103099539Y-110837727D01*
X103237629Y-111201372D01*
X103417428Y-111681324D01*
X103633619Y-112263278D01*
X103880885Y-112932932D01*
X104153909Y-113675983D01*
X104447373Y-114478130D01*
X104691062Y-115146667D01*
X105112027Y-116297413D01*
X105479748Y-117289795D01*
X105795045Y-118125918D01*
X106058739Y-118807888D01*
X106271653Y-119337811D01*
X106434607Y-119717793D01*
X106548422Y-119949938D01*
X106590082Y-120015000D01*
X106965850Y-120364777D01*
X107441361Y-120622226D01*
X107960259Y-120760647D01*
X108198486Y-120777000D01*
X108615730Y-120739259D01*
X109006370Y-120608681D01*
X109140736Y-120544167D01*
X109593812Y-120230968D01*
X109947606Y-119817931D01*
X110185032Y-119338699D01*
X110289009Y-118826914D01*
X110252002Y-118355733D01*
X110209331Y-118216193D01*
X110113525Y-117932871D01*
X109970072Y-117520846D01*
X109784461Y-116995199D01*
X109562179Y-116371010D01*
X109308715Y-115663358D01*
X109029556Y-114887323D01*
X108730191Y-114057985D01*
X108416109Y-113190423D01*
X108092796Y-112299719D01*
X107765741Y-111400951D01*
X107440433Y-110509200D01*
X107122359Y-109639544D01*
X106817007Y-108807065D01*
X106529866Y-108026843D01*
X106266424Y-107313955D01*
X106032168Y-106683484D01*
X105832587Y-106150508D01*
X105673169Y-105730108D01*
X105559402Y-105437363D01*
X105496774Y-105287353D01*
X105493624Y-105280957D01*
X105201993Y-104880433D01*
X104795412Y-104553689D01*
X104318615Y-104323711D01*
X103816338Y-104213483D01*
X103438380Y-104224986D01*
X103281451Y-104250417D01*
X103138971Y-104279590D01*
X103002472Y-104321144D01*
X102863487Y-104383717D01*
X102713551Y-104475949D01*
X102544195Y-104606478D01*
X102346954Y-104783943D01*
X102113360Y-105016982D01*
X101834948Y-105314234D01*
X101503249Y-105684338D01*
X101109798Y-106135932D01*
X100646128Y-106677655D01*
X100103772Y-107318147D01*
X99474263Y-108066045D01*
X98749134Y-108929988D01*
X98286981Y-109481010D01*
X94209716Y-114342333D01*
X92432514Y-114342334D01*
X91744272Y-114345063D01*
X91200480Y-114356896D01*
X90776291Y-114383294D01*
X90446862Y-114429722D01*
X90187347Y-114501644D01*
X89972901Y-114604522D01*
X89778679Y-114743821D01*
X89579837Y-114925004D01*
X89521437Y-114982506D01*
X89152184Y-115446475D01*
X88944157Y-115949791D01*
X88894521Y-116503795D01*
X88894521Y-116503795D01*
X88894521Y-116503795D01*
G37*
X88894521Y-116503795D02*
X88993292Y-117094000D01*
X89139269Y-117399019D01*
X89394958Y-117727065D01*
X89714894Y-118033385D01*
X90053614Y-118273227D01*
X90306823Y-118386944D01*
X90502173Y-118422307D01*
X90830249Y-118449951D01*
X91299155Y-118470171D01*
X91916993Y-118483261D01*
X92691868Y-118489517D01*
X93143156Y-118490173D01*
X93858364Y-118489564D01*
X94425513Y-118487281D01*
X94865876Y-118481847D01*
X95200729Y-118471783D01*
X95451344Y-118455612D01*
X95638997Y-118431856D01*
X95784961Y-118399037D01*
X95910509Y-118355677D01*
X96036917Y-118300299D01*
X96065155Y-118287194D01*
X96156533Y-118244463D01*
X96240963Y-118201015D01*
X96326726Y-118147620D01*
X96422102Y-118075046D01*
X96535370Y-117974062D01*
X96674810Y-117835437D01*
X96848702Y-117649941D01*
X97065325Y-117408342D01*
X97332959Y-117101410D01*
X97659884Y-116719914D01*
X98054379Y-116254622D01*
X98524725Y-115696304D01*
X99079201Y-115035728D01*
X99726086Y-114263664D01*
X100457000Y-113390779D01*
X100963025Y-112789160D01*
X101436372Y-112231617D01*
X101865967Y-111730814D01*
X102240737Y-111299419D01*
X102549609Y-110950097D01*
X102781509Y-110695514D01*
X102925365Y-110548336D01*
X102969756Y-110516563D01*
X103008475Y-110604689D01*
X103099539Y-110837727D01*
X103237629Y-111201372D01*
X103417428Y-111681324D01*
X103633619Y-112263278D01*
X103880885Y-112932932D01*
X104153909Y-113675983D01*
X104447373Y-114478130D01*
X104691062Y-115146667D01*
X105112027Y-116297413D01*
X105479748Y-117289795D01*
X105795045Y-118125918D01*
X106058739Y-118807888D01*
X106271653Y-119337811D01*
X106434607Y-119717793D01*
X106548422Y-119949938D01*
X106590082Y-120015000D01*
X106965850Y-120364777D01*
X107441361Y-120622226D01*
X107960259Y-120760647D01*
X108198486Y-120777000D01*
X108615730Y-120739259D01*
X109006370Y-120608681D01*
X109140736Y-120544167D01*
X109593812Y-120230968D01*
X109947606Y-119817931D01*
X110185032Y-119338699D01*
X110289009Y-118826914D01*
X110252002Y-118355733D01*
X110209331Y-118216193D01*
X110113525Y-117932871D01*
X109970072Y-117520846D01*
X109784461Y-116995199D01*
X109562179Y-116371010D01*
X109308715Y-115663358D01*
X109029556Y-114887323D01*
X108730191Y-114057985D01*
X108416109Y-113190423D01*
X108092796Y-112299719D01*
X107765741Y-111400951D01*
X107440433Y-110509200D01*
X107122359Y-109639544D01*
X106817007Y-108807065D01*
X106529866Y-108026843D01*
X106266424Y-107313955D01*
X106032168Y-106683484D01*
X105832587Y-106150508D01*
X105673169Y-105730108D01*
X105559402Y-105437363D01*
X105496774Y-105287353D01*
X105493624Y-105280957D01*
X105201993Y-104880433D01*
X104795412Y-104553689D01*
X104318615Y-104323711D01*
X103816338Y-104213483D01*
X103438380Y-104224986D01*
X103281451Y-104250417D01*
X103138971Y-104279590D01*
X103002472Y-104321144D01*
X102863487Y-104383717D01*
X102713551Y-104475949D01*
X102544195Y-104606478D01*
X102346954Y-104783943D01*
X102113360Y-105016982D01*
X101834948Y-105314234D01*
X101503249Y-105684338D01*
X101109798Y-106135932D01*
X100646128Y-106677655D01*
X100103772Y-107318147D01*
X99474263Y-108066045D01*
X98749134Y-108929988D01*
X98286981Y-109481010D01*
X94209716Y-114342333D01*
X92432514Y-114342334D01*
X91744272Y-114345063D01*
X91200480Y-114356896D01*
X90776291Y-114383294D01*
X90446862Y-114429722D01*
X90187347Y-114501644D01*
X89972901Y-114604522D01*
X89778679Y-114743821D01*
X89579837Y-114925004D01*
X89521437Y-114982506D01*
X89152184Y-115446475D01*
X88944157Y-115949791D01*
X88894521Y-116503795D01*
X88894521Y-116503795D01*
G36*
X105779532Y-93810667D02*
X106293266Y-93908801D01*
X106563349Y-93958023D01*
X106754376Y-93988340D01*
X106820350Y-93993468D01*
X106848289Y-93912431D01*
X106919235Y-93692743D01*
X107025881Y-93357439D01*
X107160917Y-92929554D01*
X107317034Y-92432120D01*
X107402230Y-92159667D01*
X107566714Y-91634848D01*
X107714397Y-91167121D01*
X107837856Y-90779709D01*
X107929669Y-90495836D01*
X107982412Y-90338725D01*
X107991845Y-90314925D01*
X108024954Y-90382552D01*
X108103817Y-90585284D01*
X108219176Y-90898076D01*
X108361772Y-91295885D01*
X108500473Y-91690758D01*
X108659810Y-92144181D01*
X108800428Y-92536388D01*
X108912907Y-92841747D01*
X108987828Y-93034628D01*
X109015030Y-93091000D01*
X109074897Y-93028972D01*
X109223676Y-92857184D01*
X109443230Y-92597076D01*
X109715419Y-92270091D01*
X109946092Y-91990334D01*
X110247219Y-91626631D01*
X110510946Y-91313620D01*
X110718794Y-91072791D01*
X110852282Y-90925635D01*
X110892567Y-90889667D01*
X110903251Y-90969170D01*
X110905699Y-91187540D01*
X110900996Y-91514565D01*
X110890228Y-91920036D01*
X110874479Y-92373743D01*
X110854835Y-92845474D01*
X110832382Y-93305021D01*
X110808204Y-93722172D01*
X110783388Y-94066717D01*
X110775011Y-94161811D01*
X110750408Y-94407969D01*
X110751682Y-94567067D01*
X110807450Y-94664649D01*
X110946328Y-94726258D01*
X111196932Y-94777437D01*
X111527166Y-94833194D01*
X111844666Y-94887845D01*
X111844216Y-94349256D01*
X111847519Y-94120605D01*
X111857059Y-93751299D01*
X111871908Y-93269864D01*
X111891139Y-92704826D01*
X111913823Y-92084712D01*
X111938293Y-91456465D01*
X111961814Y-90843461D01*
X111981034Y-90288011D01*
X111995368Y-89811908D01*
X112004229Y-89436944D01*
X112007033Y-89184914D01*
X112003193Y-89077610D01*
X112002243Y-89075481D01*
X111907651Y-89048564D01*
X111702561Y-89010795D01*
X111577701Y-88991557D01*
X111183736Y-88934418D01*
X110276609Y-90085561D01*
X109979660Y-90458059D01*
X109719436Y-90776273D01*
X109513425Y-91019484D01*
X109379116Y-91166969D01*
X109334544Y-91201766D01*
X109297451Y-91113733D01*
X109216871Y-90892125D01*
X109102352Y-90564182D01*
X108963443Y-90157142D01*
X108850801Y-89821747D01*
X108401998Y-88476667D01*
X107990064Y-88373324D01*
X107751974Y-88317662D01*
X107595733Y-88288865D01*
X107562681Y-88288657D01*
X107534094Y-88370721D01*
X107459887Y-88595396D01*
X107346112Y-88944037D01*
X107198822Y-89397998D01*
X107024070Y-89938634D01*
X106827907Y-90547299D01*
X106663381Y-91059000D01*
X105779532Y-93810667D01*
X105779532Y-93810667D01*
X105779532Y-93810667D01*
G37*
X105779532Y-93810667D02*
X106293266Y-93908801D01*
X106563349Y-93958023D01*
X106754376Y-93988340D01*
X106820350Y-93993468D01*
X106848289Y-93912431D01*
X106919235Y-93692743D01*
X107025881Y-93357439D01*
X107160917Y-92929554D01*
X107317034Y-92432120D01*
X107402230Y-92159667D01*
X107566714Y-91634848D01*
X107714397Y-91167121D01*
X107837856Y-90779709D01*
X107929669Y-90495836D01*
X107982412Y-90338725D01*
X107991845Y-90314925D01*
X108024954Y-90382552D01*
X108103817Y-90585284D01*
X108219176Y-90898076D01*
X108361772Y-91295885D01*
X108500473Y-91690758D01*
X108659810Y-92144181D01*
X108800428Y-92536388D01*
X108912907Y-92841747D01*
X108987828Y-93034628D01*
X109015030Y-93091000D01*
X109074897Y-93028972D01*
X109223676Y-92857184D01*
X109443230Y-92597076D01*
X109715419Y-92270091D01*
X109946092Y-91990334D01*
X110247219Y-91626631D01*
X110510946Y-91313620D01*
X110718794Y-91072791D01*
X110852282Y-90925635D01*
X110892567Y-90889667D01*
X110903251Y-90969170D01*
X110905699Y-91187540D01*
X110900996Y-91514565D01*
X110890228Y-91920036D01*
X110874479Y-92373743D01*
X110854835Y-92845474D01*
X110832382Y-93305021D01*
X110808204Y-93722172D01*
X110783388Y-94066717D01*
X110775011Y-94161811D01*
X110750408Y-94407969D01*
X110751682Y-94567067D01*
X110807450Y-94664649D01*
X110946328Y-94726258D01*
X111196932Y-94777437D01*
X111527166Y-94833194D01*
X111844666Y-94887845D01*
X111844216Y-94349256D01*
X111847519Y-94120605D01*
X111857059Y-93751299D01*
X111871908Y-93269864D01*
X111891139Y-92704826D01*
X111913823Y-92084712D01*
X111938293Y-91456465D01*
X111961814Y-90843461D01*
X111981034Y-90288011D01*
X111995368Y-89811908D01*
X112004229Y-89436944D01*
X112007033Y-89184914D01*
X112003193Y-89077610D01*
X112002243Y-89075481D01*
X111907651Y-89048564D01*
X111702561Y-89010795D01*
X111577701Y-88991557D01*
X111183736Y-88934418D01*
X110276609Y-90085561D01*
X109979660Y-90458059D01*
X109719436Y-90776273D01*
X109513425Y-91019484D01*
X109379116Y-91166969D01*
X109334544Y-91201766D01*
X109297451Y-91113733D01*
X109216871Y-90892125D01*
X109102352Y-90564182D01*
X108963443Y-90157142D01*
X108850801Y-89821747D01*
X108401998Y-88476667D01*
X107990064Y-88373324D01*
X107751974Y-88317662D01*
X107595733Y-88288865D01*
X107562681Y-88288657D01*
X107534094Y-88370721D01*
X107459887Y-88595396D01*
X107346112Y-88944037D01*
X107198822Y-89397998D01*
X107024070Y-89938634D01*
X106827907Y-90547299D01*
X106663381Y-91059000D01*
X105779532Y-93810667D01*
X105779532Y-93810667D01*
G36*
X101987210Y-92790798D02*
X102008054Y-92939404D01*
X102020995Y-92961183D01*
X102234445Y-93120785D01*
X102570012Y-93263589D01*
X102980619Y-93379735D01*
X103419193Y-93459362D01*
X103838658Y-93492610D01*
X104191939Y-93469619D01*
X104309881Y-93440615D01*
X104865849Y-93184964D01*
X105288563Y-92826848D01*
X105580111Y-92363247D01*
X105742580Y-91791142D01*
X105780774Y-91313000D01*
X105771827Y-90922578D01*
X105726503Y-90635719D01*
X105633182Y-90388473D01*
X105601522Y-90326356D01*
X105269418Y-89870706D01*
X104834262Y-89539318D01*
X104319928Y-89344372D01*
X103750292Y-89298045D01*
X103609395Y-89310228D01*
X103100882Y-89448646D01*
X102681343Y-89722738D01*
X102366848Y-90115342D01*
X102173463Y-90609298D01*
X102126748Y-90893675D01*
X102108598Y-91138833D01*
X102133672Y-91265192D01*
X102228682Y-91322480D01*
X102372947Y-91351987D01*
X102578467Y-91388553D01*
X102898944Y-91445802D01*
X103282671Y-91514491D01*
X103521736Y-91557347D01*
X103932051Y-91627807D01*
X104204297Y-91658089D01*
X104366777Y-91639557D01*
X104447791Y-91563574D01*
X104475642Y-91421505D01*
X104478666Y-91265355D01*
X104475608Y-91170539D01*
X104446618Y-91104027D01*
X104361978Y-91052828D01*
X104191970Y-91003947D01*
X103906873Y-90944392D01*
X103615428Y-90887951D01*
X103321904Y-90814064D01*
X103187980Y-90720311D01*
X103204037Y-90580601D01*
X103360456Y-90368840D01*
X103405375Y-90318167D01*
X103644792Y-90164394D01*
X103936986Y-90132578D01*
X104238289Y-90205490D01*
X104505037Y-90365900D01*
X104693562Y-90596578D01*
X104760327Y-90852790D01*
X104740771Y-91329242D01*
X104668929Y-91752769D01*
X104554220Y-92080501D01*
X104458958Y-92224202D01*
X104153468Y-92483481D01*
X103819672Y-92622744D01*
X103437445Y-92641599D01*
X102986658Y-92539652D01*
X102447184Y-92316511D01*
X102176238Y-92179679D01*
X102110749Y-92221050D01*
X102049873Y-92374665D01*
X102004922Y-92583566D01*
X101987210Y-92790798D01*
X101987210Y-92790798D01*
X101987210Y-92790798D01*
G37*
X101987210Y-92790798D02*
X102008054Y-92939404D01*
X102020995Y-92961183D01*
X102234445Y-93120785D01*
X102570012Y-93263589D01*
X102980619Y-93379735D01*
X103419193Y-93459362D01*
X103838658Y-93492610D01*
X104191939Y-93469619D01*
X104309881Y-93440615D01*
X104865849Y-93184964D01*
X105288563Y-92826848D01*
X105580111Y-92363247D01*
X105742580Y-91791142D01*
X105780774Y-91313000D01*
X105771827Y-90922578D01*
X105726503Y-90635719D01*
X105633182Y-90388473D01*
X105601522Y-90326356D01*
X105269418Y-89870706D01*
X104834262Y-89539318D01*
X104319928Y-89344372D01*
X103750292Y-89298045D01*
X103609395Y-89310228D01*
X103100882Y-89448646D01*
X102681343Y-89722738D01*
X102366848Y-90115342D01*
X102173463Y-90609298D01*
X102126748Y-90893675D01*
X102108598Y-91138833D01*
X102133672Y-91265192D01*
X102228682Y-91322480D01*
X102372947Y-91351987D01*
X102578467Y-91388553D01*
X102898944Y-91445802D01*
X103282671Y-91514491D01*
X103521736Y-91557347D01*
X103932051Y-91627807D01*
X104204297Y-91658089D01*
X104366777Y-91639557D01*
X104447791Y-91563574D01*
X104475642Y-91421505D01*
X104478666Y-91265355D01*
X104475608Y-91170539D01*
X104446618Y-91104027D01*
X104361978Y-91052828D01*
X104191970Y-91003947D01*
X103906873Y-90944392D01*
X103615428Y-90887951D01*
X103321904Y-90814064D01*
X103187980Y-90720311D01*
X103204037Y-90580601D01*
X103360456Y-90368840D01*
X103405375Y-90318167D01*
X103644792Y-90164394D01*
X103936986Y-90132578D01*
X104238289Y-90205490D01*
X104505037Y-90365900D01*
X104693562Y-90596578D01*
X104760327Y-90852790D01*
X104740771Y-91329242D01*
X104668929Y-91752769D01*
X104554220Y-92080501D01*
X104458958Y-92224202D01*
X104153468Y-92483481D01*
X103819672Y-92622744D01*
X103437445Y-92641599D01*
X102986658Y-92539652D01*
X102447184Y-92316511D01*
X102176238Y-92179679D01*
X102110749Y-92221050D01*
X102049873Y-92374665D01*
X102004922Y-92583566D01*
X101987210Y-92790798D01*
X101987210Y-92790798D01*
G36*
X99603621Y-87090589D02*
X99611817Y-87253540D01*
X99645579Y-87506610D01*
X99707464Y-87870557D01*
X99800028Y-88366133D01*
X99876760Y-88763048D01*
X99962286Y-89234495D01*
X100038292Y-89712655D01*
X100095773Y-90137297D01*
X100123547Y-90414048D01*
X100163218Y-90785831D01*
X100223989Y-91151387D01*
X100283332Y-91397667D01*
X100370316Y-91719453D01*
X100440630Y-92045183D01*
X100452855Y-92117334D01*
X100511528Y-92482929D01*
X100562797Y-92715162D01*
X100624942Y-92848047D01*
X100716238Y-92915596D01*
X100854964Y-92951824D01*
X100906358Y-92961269D01*
X101171139Y-93012263D01*
X101395107Y-93060218D01*
X101409500Y-93063626D01*
X101556848Y-93072454D01*
X101602488Y-93036679D01*
X101589643Y-92938975D01*
X101552007Y-92693724D01*
X101492720Y-92320392D01*
X101414922Y-91838447D01*
X101321752Y-91267355D01*
X101216352Y-90626582D01*
X101116489Y-90023615D01*
X100628003Y-87083230D01*
X100183886Y-86991032D01*
X99918963Y-86948435D01*
X99719347Y-86938800D01*
X99653701Y-86952027D01*
X99618434Y-86997003D01*
X99603621Y-87090589D01*
X99603621Y-87090589D01*
X99603621Y-87090589D01*
G37*
X99603621Y-87090589D02*
X99611817Y-87253540D01*
X99645579Y-87506610D01*
X99707464Y-87870557D01*
X99800028Y-88366133D01*
X99876760Y-88763048D01*
X99962286Y-89234495D01*
X100038292Y-89712655D01*
X100095773Y-90137297D01*
X100123547Y-90414048D01*
X100163218Y-90785831D01*
X100223989Y-91151387D01*
X100283332Y-91397667D01*
X100370316Y-91719453D01*
X100440630Y-92045183D01*
X100452855Y-92117334D01*
X100511528Y-92482929D01*
X100562797Y-92715162D01*
X100624942Y-92848047D01*
X100716238Y-92915596D01*
X100854964Y-92951824D01*
X100906358Y-92961269D01*
X101171139Y-93012263D01*
X101395107Y-93060218D01*
X101409500Y-93063626D01*
X101556848Y-93072454D01*
X101602488Y-93036679D01*
X101589643Y-92938975D01*
X101552007Y-92693724D01*
X101492720Y-92320392D01*
X101414922Y-91838447D01*
X101321752Y-91267355D01*
X101216352Y-90626582D01*
X101116489Y-90023615D01*
X100628003Y-87083230D01*
X100183886Y-86991032D01*
X99918963Y-86948435D01*
X99719347Y-86938800D01*
X99653701Y-86952027D01*
X99618434Y-86997003D01*
X99603621Y-87090589D01*
X99603621Y-87090589D01*
G36*
X96689333Y-92177981D02*
X96764299Y-92220992D01*
X96952955Y-92268567D01*
X97049166Y-92285410D01*
X97308266Y-92329678D01*
X97511954Y-92371258D01*
X97549440Y-92380772D01*
X97647805Y-92356599D01*
X97773917Y-92221591D01*
X97942899Y-91957368D01*
X98042204Y-91781920D01*
X98248885Y-91438225D01*
X98417737Y-91220229D01*
X98536490Y-91143767D01*
X98536764Y-91143767D01*
X98685900Y-91159096D01*
X98947894Y-91199455D01*
X99269580Y-91256555D01*
X99312948Y-91264763D01*
X99619520Y-91318014D01*
X99855049Y-91349131D01*
X99976285Y-91352634D01*
X99982872Y-91349684D01*
X99990009Y-91253478D01*
X99971431Y-91041467D01*
X99941590Y-90827890D01*
X99864333Y-90342072D01*
X99442856Y-90272003D01*
X99195834Y-90226306D01*
X99029155Y-90186768D01*
X98990796Y-90171351D01*
X99016147Y-90089608D01*
X99110484Y-89899132D01*
X99255416Y-89636237D01*
X99306787Y-89547349D01*
X99653363Y-88953931D01*
X99557447Y-88291965D01*
X99505156Y-87964773D01*
X99453507Y-87697540D01*
X99412174Y-87539231D01*
X99405868Y-87524705D01*
X99356273Y-87575918D01*
X99235791Y-87753843D01*
X99056594Y-88037629D01*
X98830855Y-88406423D01*
X98570747Y-88839376D01*
X98288442Y-89315636D01*
X97996113Y-89814352D01*
X97705932Y-90314672D01*
X97430074Y-90795746D01*
X97180709Y-91236722D01*
X96970011Y-91616749D01*
X96810152Y-91914976D01*
X96713306Y-92110553D01*
X96689333Y-92177981D01*
X96689333Y-92177981D01*
X96689333Y-92177981D01*
G37*
X96689333Y-92177981D02*
X96764299Y-92220992D01*
X96952955Y-92268567D01*
X97049166Y-92285410D01*
X97308266Y-92329678D01*
X97511954Y-92371258D01*
X97549440Y-92380772D01*
X97647805Y-92356599D01*
X97773917Y-92221591D01*
X97942899Y-91957368D01*
X98042204Y-91781920D01*
X98248885Y-91438225D01*
X98417737Y-91220229D01*
X98536490Y-91143767D01*
X98536764Y-91143767D01*
X98685900Y-91159096D01*
X98947894Y-91199455D01*
X99269580Y-91256555D01*
X99312948Y-91264763D01*
X99619520Y-91318014D01*
X99855049Y-91349131D01*
X99976285Y-91352634D01*
X99982872Y-91349684D01*
X99990009Y-91253478D01*
X99971431Y-91041467D01*
X99941590Y-90827890D01*
X99864333Y-90342072D01*
X99442856Y-90272003D01*
X99195834Y-90226306D01*
X99029155Y-90186768D01*
X98990796Y-90171351D01*
X99016147Y-90089608D01*
X99110484Y-89899132D01*
X99255416Y-89636237D01*
X99306787Y-89547349D01*
X99653363Y-88953931D01*
X99557447Y-88291965D01*
X99505156Y-87964773D01*
X99453507Y-87697540D01*
X99412174Y-87539231D01*
X99405868Y-87524705D01*
X99356273Y-87575918D01*
X99235791Y-87753843D01*
X99056594Y-88037629D01*
X98830855Y-88406423D01*
X98570747Y-88839376D01*
X98288442Y-89315636D01*
X97996113Y-89814352D01*
X97705932Y-90314672D01*
X97430074Y-90795746D01*
X97180709Y-91236722D01*
X96970011Y-91616749D01*
X96810152Y-91914976D01*
X96713306Y-92110553D01*
X96689333Y-92177981D01*
X96689333Y-92177981D01*
G36*
X94742000Y-88134164D02*
X94746659Y-88399896D01*
X94778390Y-88543180D01*
X94863820Y-88610901D01*
X95029579Y-88649944D01*
X95035580Y-88651070D01*
X95308290Y-88749739D01*
X95549881Y-88916717D01*
X95712508Y-89111719D01*
X95753811Y-89255791D01*
X95737701Y-89389251D01*
X95696081Y-89656193D01*
X95634412Y-90023623D01*
X95558156Y-90458547D01*
X95515649Y-90694401D01*
X95281675Y-91980801D01*
X95625671Y-92034086D01*
X95880028Y-92077581D01*
X96078131Y-92118418D01*
X96108005Y-92126105D01*
X96237458Y-92092292D01*
X96291564Y-91971753D01*
X96338144Y-91749503D01*
X96401012Y-91416577D01*
X96475457Y-91001451D01*
X96556771Y-90532597D01*
X96640244Y-90038492D01*
X96721168Y-89547608D01*
X96794833Y-89088420D01*
X96856530Y-88689403D01*
X96901550Y-88379031D01*
X96925184Y-88185777D01*
X96926114Y-88134893D01*
X96817489Y-88090981D01*
X96612522Y-88044389D01*
X96375224Y-88005478D01*
X96169606Y-87984611D01*
X96059679Y-87992147D01*
X96057013Y-87994209D01*
X96019234Y-88107093D01*
X96012000Y-88203215D01*
X95996499Y-88287715D01*
X95929993Y-88278355D01*
X95782478Y-88164883D01*
X95706261Y-88098766D01*
X95343334Y-87832958D01*
X95010773Y-87691366D01*
X94863488Y-87672334D01*
X94788951Y-87720236D01*
X94751041Y-87882992D01*
X94742000Y-88134164D01*
X94742000Y-88134164D01*
X94742000Y-88134164D01*
G37*
X94742000Y-88134164D02*
X94746659Y-88399896D01*
X94778390Y-88543180D01*
X94863820Y-88610901D01*
X95029579Y-88649944D01*
X95035580Y-88651070D01*
X95308290Y-88749739D01*
X95549881Y-88916717D01*
X95712508Y-89111719D01*
X95753811Y-89255791D01*
X95737701Y-89389251D01*
X95696081Y-89656193D01*
X95634412Y-90023623D01*
X95558156Y-90458547D01*
X95515649Y-90694401D01*
X95281675Y-91980801D01*
X95625671Y-92034086D01*
X95880028Y-92077581D01*
X96078131Y-92118418D01*
X96108005Y-92126105D01*
X96237458Y-92092292D01*
X96291564Y-91971753D01*
X96338144Y-91749503D01*
X96401012Y-91416577D01*
X96475457Y-91001451D01*
X96556771Y-90532597D01*
X96640244Y-90038492D01*
X96721168Y-89547608D01*
X96794833Y-89088420D01*
X96856530Y-88689403D01*
X96901550Y-88379031D01*
X96925184Y-88185777D01*
X96926114Y-88134893D01*
X96817489Y-88090981D01*
X96612522Y-88044389D01*
X96375224Y-88005478D01*
X96169606Y-87984611D01*
X96059679Y-87992147D01*
X96057013Y-87994209D01*
X96019234Y-88107093D01*
X96012000Y-88203215D01*
X95996499Y-88287715D01*
X95929993Y-88278355D01*
X95782478Y-88164883D01*
X95706261Y-88098766D01*
X95343334Y-87832958D01*
X95010773Y-87691366D01*
X94863488Y-87672334D01*
X94788951Y-87720236D01*
X94751041Y-87882992D01*
X94742000Y-88134164D01*
X94742000Y-88134164D01*
G36*
X87552080Y-90571294D02*
X87555909Y-90589385D01*
X87650265Y-90620830D01*
X87858302Y-90667827D01*
X88030241Y-90700957D01*
X88207569Y-90736060D01*
X88335908Y-90751833D01*
X88427821Y-90726003D01*
X88495873Y-90636297D01*
X88552628Y-90460442D01*
X88610651Y-90176167D01*
X88682505Y-89761198D01*
X88735732Y-89450334D01*
X88839447Y-88885551D01*
X88933639Y-88463352D01*
X89027515Y-88158028D01*
X89130281Y-87943869D01*
X89251140Y-87795163D01*
X89358221Y-87711760D01*
X89635432Y-87615261D01*
X89943208Y-87634182D01*
X90230173Y-87749941D01*
X90444952Y-87943960D01*
X90528835Y-88135101D01*
X90528573Y-88289771D01*
X90501126Y-88576756D01*
X90450745Y-88961984D01*
X90381685Y-89411381D01*
X90335676Y-89682707D01*
X90240749Y-90258372D01*
X90183897Y-90684679D01*
X90165657Y-90956595D01*
X90186565Y-91069090D01*
X90187864Y-91069987D01*
X90306477Y-91108337D01*
X90514869Y-91151240D01*
X90751038Y-91188944D01*
X90952987Y-91211701D01*
X91058713Y-91209760D01*
X91061958Y-91207443D01*
X91081917Y-91121061D01*
X91125234Y-90897229D01*
X91186437Y-90565360D01*
X91260054Y-90154865D01*
X91300191Y-89927131D01*
X91417796Y-89308380D01*
X91530328Y-88839532D01*
X91645388Y-88501629D01*
X91770577Y-88275716D01*
X91913497Y-88142836D01*
X92035585Y-88093144D01*
X92359460Y-88079254D01*
X92703523Y-88162000D01*
X92977556Y-88319606D01*
X92978940Y-88320854D01*
X93047898Y-88394906D01*
X93093624Y-88487071D01*
X93114926Y-88620040D01*
X93110617Y-88816504D01*
X93079504Y-89099157D01*
X93020400Y-89490690D01*
X92932113Y-90013794D01*
X92872137Y-90357527D01*
X92802678Y-90771273D01*
X92749833Y-91121387D01*
X92717945Y-91376151D01*
X92711356Y-91503847D01*
X92714082Y-91512120D01*
X92812940Y-91542672D01*
X93024957Y-91582306D01*
X93193346Y-91607226D01*
X93451732Y-91636199D01*
X93589425Y-91624312D01*
X93652799Y-91558322D01*
X93678722Y-91468632D01*
X93736605Y-91188077D01*
X93807821Y-90808854D01*
X93887636Y-90360102D01*
X93971314Y-89870957D01*
X94054120Y-89370557D01*
X94131322Y-88888039D01*
X94198183Y-88452540D01*
X94249969Y-88093197D01*
X94281945Y-87839147D01*
X94289378Y-87719527D01*
X94288520Y-87715895D01*
X94186275Y-87636540D01*
X93982712Y-87569874D01*
X93923867Y-87558589D01*
X93679698Y-87541285D01*
X93535153Y-87600406D01*
X93493784Y-87646320D01*
X93408100Y-87733530D01*
X93317232Y-87711765D01*
X93197450Y-87608645D01*
X92837482Y-87379027D01*
X92398160Y-87261100D01*
X91932025Y-87260359D01*
X91491617Y-87382299D01*
X91411352Y-87421835D01*
X91088879Y-87594671D01*
X90917770Y-87377140D01*
X90644885Y-87132137D01*
X90267463Y-86925788D01*
X89850232Y-86791964D01*
X89772046Y-86777571D01*
X89287855Y-86779490D01*
X88845157Y-86933920D01*
X88465960Y-87225164D01*
X88172271Y-87637525D01*
X88017974Y-88028666D01*
X87956604Y-88274160D01*
X87883630Y-88609585D01*
X87805303Y-89000310D01*
X87727872Y-89411701D01*
X87657584Y-89809127D01*
X87600691Y-90157956D01*
X87563439Y-90423556D01*
X87552080Y-90571294D01*
X87552080Y-90571294D01*
X87552080Y-90571294D01*
G37*
X87552080Y-90571294D02*
X87555909Y-90589385D01*
X87650265Y-90620830D01*
X87858302Y-90667827D01*
X88030241Y-90700957D01*
X88207569Y-90736060D01*
X88335908Y-90751833D01*
X88427821Y-90726003D01*
X88495873Y-90636297D01*
X88552628Y-90460442D01*
X88610651Y-90176167D01*
X88682505Y-89761198D01*
X88735732Y-89450334D01*
X88839447Y-88885551D01*
X88933639Y-88463352D01*
X89027515Y-88158028D01*
X89130281Y-87943869D01*
X89251140Y-87795163D01*
X89358221Y-87711760D01*
X89635432Y-87615261D01*
X89943208Y-87634182D01*
X90230173Y-87749941D01*
X90444952Y-87943960D01*
X90528835Y-88135101D01*
X90528573Y-88289771D01*
X90501126Y-88576756D01*
X90450745Y-88961984D01*
X90381685Y-89411381D01*
X90335676Y-89682707D01*
X90240749Y-90258372D01*
X90183897Y-90684679D01*
X90165657Y-90956595D01*
X90186565Y-91069090D01*
X90187864Y-91069987D01*
X90306477Y-91108337D01*
X90514869Y-91151240D01*
X90751038Y-91188944D01*
X90952987Y-91211701D01*
X91058713Y-91209760D01*
X91061958Y-91207443D01*
X91081917Y-91121061D01*
X91125234Y-90897229D01*
X91186437Y-90565360D01*
X91260054Y-90154865D01*
X91300191Y-89927131D01*
X91417796Y-89308380D01*
X91530328Y-88839532D01*
X91645388Y-88501629D01*
X91770577Y-88275716D01*
X91913497Y-88142836D01*
X92035585Y-88093144D01*
X92359460Y-88079254D01*
X92703523Y-88162000D01*
X92977556Y-88319606D01*
X92978940Y-88320854D01*
X93047898Y-88394906D01*
X93093624Y-88487071D01*
X93114926Y-88620040D01*
X93110617Y-88816504D01*
X93079504Y-89099157D01*
X93020400Y-89490690D01*
X92932113Y-90013794D01*
X92872137Y-90357527D01*
X92802678Y-90771273D01*
X92749833Y-91121387D01*
X92717945Y-91376151D01*
X92711356Y-91503847D01*
X92714082Y-91512120D01*
X92812940Y-91542672D01*
X93024957Y-91582306D01*
X93193346Y-91607226D01*
X93451732Y-91636199D01*
X93589425Y-91624312D01*
X93652799Y-91558322D01*
X93678722Y-91468632D01*
X93736605Y-91188077D01*
X93807821Y-90808854D01*
X93887636Y-90360102D01*
X93971314Y-89870957D01*
X94054120Y-89370557D01*
X94131322Y-88888039D01*
X94198183Y-88452540D01*
X94249969Y-88093197D01*
X94281945Y-87839147D01*
X94289378Y-87719527D01*
X94288520Y-87715895D01*
X94186275Y-87636540D01*
X93982712Y-87569874D01*
X93923867Y-87558589D01*
X93679698Y-87541285D01*
X93535153Y-87600406D01*
X93493784Y-87646320D01*
X93408100Y-87733530D01*
X93317232Y-87711765D01*
X93197450Y-87608645D01*
X92837482Y-87379027D01*
X92398160Y-87261100D01*
X91932025Y-87260359D01*
X91491617Y-87382299D01*
X91411352Y-87421835D01*
X91088879Y-87594671D01*
X90917770Y-87377140D01*
X90644885Y-87132137D01*
X90267463Y-86925788D01*
X89850232Y-86791964D01*
X89772046Y-86777571D01*
X89287855Y-86779490D01*
X88845157Y-86933920D01*
X88465960Y-87225164D01*
X88172271Y-87637525D01*
X88017974Y-88028666D01*
X87956604Y-88274160D01*
X87883630Y-88609585D01*
X87805303Y-89000310D01*
X87727872Y-89411701D01*
X87657584Y-89809127D01*
X87600691Y-90157956D01*
X87563439Y-90423556D01*
X87552080Y-90571294D01*
X87552080Y-90571294D01*
G36*
X88894521Y-82213795D02*
X88993292Y-82804000D01*
X89139269Y-83109019D01*
X89394958Y-83437065D01*
X89714894Y-83743385D01*
X90053614Y-83983227D01*
X90306823Y-84096944D01*
X90502173Y-84132307D01*
X90830249Y-84159951D01*
X91299155Y-84180171D01*
X91916993Y-84193261D01*
X92691868Y-84199517D01*
X93143156Y-84200173D01*
X93858364Y-84199564D01*
X94425513Y-84197281D01*
X94865876Y-84191847D01*
X95200729Y-84181783D01*
X95451344Y-84165612D01*
X95638997Y-84141856D01*
X95784961Y-84109037D01*
X95910509Y-84065677D01*
X96036917Y-84010299D01*
X96065155Y-83997194D01*
X96156533Y-83954463D01*
X96240963Y-83911015D01*
X96326726Y-83857620D01*
X96422102Y-83785046D01*
X96535370Y-83684062D01*
X96674810Y-83545437D01*
X96848702Y-83359941D01*
X97065325Y-83118342D01*
X97332959Y-82811410D01*
X97659884Y-82429914D01*
X98054379Y-81964622D01*
X98524725Y-81406304D01*
X99079201Y-80745728D01*
X99726086Y-79973664D01*
X100457000Y-79100779D01*
X100963025Y-78499160D01*
X101436372Y-77941617D01*
X101865967Y-77440814D01*
X102240737Y-77009419D01*
X102549609Y-76660097D01*
X102781509Y-76405514D01*
X102925365Y-76258336D01*
X102969756Y-76226563D01*
X103008475Y-76314689D01*
X103099539Y-76547727D01*
X103237629Y-76911372D01*
X103417428Y-77391324D01*
X103633619Y-77973278D01*
X103880885Y-78642932D01*
X104153909Y-79385983D01*
X104447373Y-80188130D01*
X104691062Y-80856667D01*
X105112027Y-82007413D01*
X105479748Y-82999795D01*
X105795045Y-83835918D01*
X106058739Y-84517888D01*
X106271653Y-85047811D01*
X106434607Y-85427793D01*
X106548422Y-85659938D01*
X106590082Y-85725000D01*
X106965850Y-86074777D01*
X107441361Y-86332226D01*
X107960259Y-86470647D01*
X108198486Y-86487000D01*
X108615730Y-86449259D01*
X109006370Y-86318681D01*
X109140736Y-86254167D01*
X109593812Y-85940968D01*
X109947606Y-85527931D01*
X110185032Y-85048699D01*
X110289009Y-84536914D01*
X110252002Y-84065733D01*
X110209331Y-83926193D01*
X110113525Y-83642871D01*
X109970072Y-83230846D01*
X109784461Y-82705199D01*
X109562179Y-82081010D01*
X109308715Y-81373358D01*
X109029556Y-80597323D01*
X108730191Y-79767985D01*
X108416109Y-78900423D01*
X108092796Y-78009719D01*
X107765741Y-77110951D01*
X107440433Y-76219200D01*
X107122359Y-75349544D01*
X106817007Y-74517065D01*
X106529866Y-73736843D01*
X106266424Y-73023955D01*
X106032168Y-72393484D01*
X105832587Y-71860508D01*
X105673169Y-71440108D01*
X105559402Y-71147363D01*
X105496774Y-70997353D01*
X105493624Y-70990957D01*
X105201993Y-70590433D01*
X104795412Y-70263689D01*
X104318615Y-70033711D01*
X103816338Y-69923483D01*
X103438380Y-69934986D01*
X103281451Y-69960417D01*
X103138971Y-69989590D01*
X103002472Y-70031144D01*
X102863487Y-70093717D01*
X102713551Y-70185949D01*
X102544195Y-70316478D01*
X102346954Y-70493943D01*
X102113360Y-70726982D01*
X101834948Y-71024234D01*
X101503249Y-71394338D01*
X101109798Y-71845932D01*
X100646128Y-72387655D01*
X100103772Y-73028147D01*
X99474263Y-73776045D01*
X98749134Y-74639988D01*
X98286981Y-75191010D01*
X94209716Y-80052333D01*
X92432514Y-80052334D01*
X91744272Y-80055063D01*
X91200480Y-80066896D01*
X90776291Y-80093294D01*
X90446862Y-80139722D01*
X90187347Y-80211644D01*
X89972901Y-80314522D01*
X89778679Y-80453821D01*
X89579837Y-80635004D01*
X89521437Y-80692506D01*
X89152184Y-81156475D01*
X88944157Y-81659791D01*
X88894521Y-82213795D01*
X88894521Y-82213795D01*
X88894521Y-82213795D01*
G37*
X88894521Y-82213795D02*
X88993292Y-82804000D01*
X89139269Y-83109019D01*
X89394958Y-83437065D01*
X89714894Y-83743385D01*
X90053614Y-83983227D01*
X90306823Y-84096944D01*
X90502173Y-84132307D01*
X90830249Y-84159951D01*
X91299155Y-84180171D01*
X91916993Y-84193261D01*
X92691868Y-84199517D01*
X93143156Y-84200173D01*
X93858364Y-84199564D01*
X94425513Y-84197281D01*
X94865876Y-84191847D01*
X95200729Y-84181783D01*
X95451344Y-84165612D01*
X95638997Y-84141856D01*
X95784961Y-84109037D01*
X95910509Y-84065677D01*
X96036917Y-84010299D01*
X96065155Y-83997194D01*
X96156533Y-83954463D01*
X96240963Y-83911015D01*
X96326726Y-83857620D01*
X96422102Y-83785046D01*
X96535370Y-83684062D01*
X96674810Y-83545437D01*
X96848702Y-83359941D01*
X97065325Y-83118342D01*
X97332959Y-82811410D01*
X97659884Y-82429914D01*
X98054379Y-81964622D01*
X98524725Y-81406304D01*
X99079201Y-80745728D01*
X99726086Y-79973664D01*
X100457000Y-79100779D01*
X100963025Y-78499160D01*
X101436372Y-77941617D01*
X101865967Y-77440814D01*
X102240737Y-77009419D01*
X102549609Y-76660097D01*
X102781509Y-76405514D01*
X102925365Y-76258336D01*
X102969756Y-76226563D01*
X103008475Y-76314689D01*
X103099539Y-76547727D01*
X103237629Y-76911372D01*
X103417428Y-77391324D01*
X103633619Y-77973278D01*
X103880885Y-78642932D01*
X104153909Y-79385983D01*
X104447373Y-80188130D01*
X104691062Y-80856667D01*
X105112027Y-82007413D01*
X105479748Y-82999795D01*
X105795045Y-83835918D01*
X106058739Y-84517888D01*
X106271653Y-85047811D01*
X106434607Y-85427793D01*
X106548422Y-85659938D01*
X106590082Y-85725000D01*
X106965850Y-86074777D01*
X107441361Y-86332226D01*
X107960259Y-86470647D01*
X108198486Y-86487000D01*
X108615730Y-86449259D01*
X109006370Y-86318681D01*
X109140736Y-86254167D01*
X109593812Y-85940968D01*
X109947606Y-85527931D01*
X110185032Y-85048699D01*
X110289009Y-84536914D01*
X110252002Y-84065733D01*
X110209331Y-83926193D01*
X110113525Y-83642871D01*
X109970072Y-83230846D01*
X109784461Y-82705199D01*
X109562179Y-82081010D01*
X109308715Y-81373358D01*
X109029556Y-80597323D01*
X108730191Y-79767985D01*
X108416109Y-78900423D01*
X108092796Y-78009719D01*
X107765741Y-77110951D01*
X107440433Y-76219200D01*
X107122359Y-75349544D01*
X106817007Y-74517065D01*
X106529866Y-73736843D01*
X106266424Y-73023955D01*
X106032168Y-72393484D01*
X105832587Y-71860508D01*
X105673169Y-71440108D01*
X105559402Y-71147363D01*
X105496774Y-70997353D01*
X105493624Y-70990957D01*
X105201993Y-70590433D01*
X104795412Y-70263689D01*
X104318615Y-70033711D01*
X103816338Y-69923483D01*
X103438380Y-69934986D01*
X103281451Y-69960417D01*
X103138971Y-69989590D01*
X103002472Y-70031144D01*
X102863487Y-70093717D01*
X102713551Y-70185949D01*
X102544195Y-70316478D01*
X102346954Y-70493943D01*
X102113360Y-70726982D01*
X101834948Y-71024234D01*
X101503249Y-71394338D01*
X101109798Y-71845932D01*
X100646128Y-72387655D01*
X100103772Y-73028147D01*
X99474263Y-73776045D01*
X98749134Y-74639988D01*
X98286981Y-75191010D01*
X94209716Y-80052333D01*
X92432514Y-80052334D01*
X91744272Y-80055063D01*
X91200480Y-80066896D01*
X90776291Y-80093294D01*
X90446862Y-80139722D01*
X90187347Y-80211644D01*
X89972901Y-80314522D01*
X89778679Y-80453821D01*
X89579837Y-80635004D01*
X89521437Y-80692506D01*
X89152184Y-81156475D01*
X88944157Y-81659791D01*
X88894521Y-82213795D01*
X88894521Y-82213795D01*
%LPC*%
D11*
X245110000Y-68580000D03*
X245110000Y-154940000D03*
X38100000Y-163830000D03*
X38100000Y-68580000D03*
D12*
X156210000Y-96139000D03*
D13*
X187960000Y-74676000D03*
D14*
X187960000Y-72136000D03*
X190500000Y-74676000D03*
X190500000Y-72136000D03*
X193040000Y-74676000D03*
X193040000Y-72136000D03*
X195580000Y-74676000D03*
X195580000Y-72136000D03*
X198120000Y-74676000D03*
X198120000Y-72136000D03*
D15*
X182658000Y-70736000D03*
D16*
X182658000Y-73236000D03*
D11*
X170053000Y-92456000D03*
X236093000Y-72136000D03*
X215138000Y-92456000D03*
X149098000Y-72136000D03*
D17*
X150008000Y-76586000D03*
X165308000Y-76586000D03*
X165308000Y-89886000D03*
X150008000Y-89886000D03*
D18*
X148008000Y-83236000D03*
X148008000Y-80736000D03*
X148008000Y-85736000D03*
D19*
X157658000Y-92986000D03*
X155158000Y-92986000D03*
X160158000Y-92986000D03*
D18*
X154408000Y-74986000D03*
X160908000Y-74986000D03*
X160908000Y-70486000D03*
X154408000Y-70486000D03*
D17*
X220008000Y-76586000D03*
X235308000Y-76586000D03*
X235308000Y-89886000D03*
X220008000Y-89886000D03*
D18*
X218008000Y-83236000D03*
X218008000Y-80736000D03*
X218008000Y-85736000D03*
D19*
X227658000Y-92986000D03*
X225158000Y-92986000D03*
X230158000Y-92986000D03*
D18*
X224408000Y-74986000D03*
X230908000Y-74986000D03*
X230908000Y-70486000D03*
X224408000Y-70486000D03*
D12*
X156718000Y-96139000D03*
X157734000Y-96139000D03*
X157226000Y-96139000D03*
X158242000Y-96139000D03*
X193802000Y-67945000D03*
X192786000Y-67945000D03*
X193294000Y-67945000D03*
X192278000Y-67945000D03*
X191770000Y-67945000D03*
X228854000Y-96139000D03*
X227838000Y-96139000D03*
X228346000Y-96139000D03*
X227330000Y-96139000D03*
X226822000Y-96139000D03*
X226822000Y-130429000D03*
X227330000Y-130429000D03*
X228346000Y-130429000D03*
X227838000Y-130429000D03*
X228854000Y-130429000D03*
X191770000Y-102235000D03*
X192278000Y-102235000D03*
X193294000Y-102235000D03*
X192786000Y-102235000D03*
X193802000Y-102235000D03*
X158242000Y-130429000D03*
X157226000Y-130429000D03*
X157734000Y-130429000D03*
X156718000Y-130429000D03*
D17*
X220008000Y-110876000D03*
X235308000Y-110876000D03*
X235308000Y-124176000D03*
X220008000Y-124176000D03*
D18*
X218008000Y-117526000D03*
X218008000Y-115026000D03*
X218008000Y-120026000D03*
D19*
X227658000Y-127276000D03*
X225158000Y-127276000D03*
X230158000Y-127276000D03*
D18*
X224408000Y-109276000D03*
X230908000Y-109276000D03*
X230908000Y-104776000D03*
X224408000Y-104776000D03*
D17*
X150008000Y-110876000D03*
X165308000Y-110876000D03*
X165308000Y-124176000D03*
X150008000Y-124176000D03*
D18*
X148008000Y-117526000D03*
X148008000Y-115026000D03*
X148008000Y-120026000D03*
D19*
X157658000Y-127276000D03*
X155158000Y-127276000D03*
X160158000Y-127276000D03*
D18*
X154408000Y-109276000D03*
X160908000Y-109276000D03*
X160908000Y-104776000D03*
X154408000Y-104776000D03*
D11*
X149098000Y-106426000D03*
X215138000Y-126746000D03*
X236093000Y-106426000D03*
X170053000Y-126746000D03*
D15*
X182658000Y-105026000D03*
D16*
X182658000Y-107526000D03*
D13*
X187960000Y-108966000D03*
D14*
X187960000Y-106426000D03*
X190500000Y-108966000D03*
X190500000Y-106426000D03*
X193040000Y-108966000D03*
X193040000Y-106426000D03*
X195580000Y-108966000D03*
X195580000Y-106426000D03*
X198120000Y-108966000D03*
X198120000Y-106426000D03*
D12*
X156210000Y-130429000D03*
X156210000Y-164719000D03*
D13*
X187960000Y-143256000D03*
D14*
X187960000Y-140716000D03*
X190500000Y-143256000D03*
X190500000Y-140716000D03*
X193040000Y-143256000D03*
X193040000Y-140716000D03*
X195580000Y-143256000D03*
X195580000Y-140716000D03*
X198120000Y-143256000D03*
X198120000Y-140716000D03*
D15*
X182658000Y-139316000D03*
D16*
X182658000Y-141816000D03*
D11*
X170053000Y-161036000D03*
X236093000Y-140716000D03*
X215138000Y-161036000D03*
X149098000Y-140716000D03*
D17*
X150008000Y-145166000D03*
X165308000Y-145166000D03*
X165308000Y-158466000D03*
X150008000Y-158466000D03*
D18*
X148008000Y-151816000D03*
X148008000Y-149316000D03*
X148008000Y-154316000D03*
D19*
X157658000Y-161566000D03*
X155158000Y-161566000D03*
X160158000Y-161566000D03*
D18*
X154408000Y-143566000D03*
X160908000Y-143566000D03*
X160908000Y-139066000D03*
X154408000Y-139066000D03*
D17*
X220008000Y-145166000D03*
X235308000Y-145166000D03*
X235308000Y-158466000D03*
X220008000Y-158466000D03*
D18*
X218008000Y-151816000D03*
X218008000Y-149316000D03*
X218008000Y-154316000D03*
D19*
X227658000Y-161566000D03*
X225158000Y-161566000D03*
X230158000Y-161566000D03*
D18*
X224408000Y-143566000D03*
X230908000Y-143566000D03*
X230908000Y-139066000D03*
X224408000Y-139066000D03*
D12*
X156718000Y-164719000D03*
X157734000Y-164719000D03*
X157226000Y-164719000D03*
X158242000Y-164719000D03*
X193802000Y-136525000D03*
X192786000Y-136525000D03*
X193294000Y-136525000D03*
X192278000Y-136525000D03*
X191770000Y-136525000D03*
X228854000Y-164719000D03*
X227838000Y-164719000D03*
X228346000Y-164719000D03*
X227330000Y-164719000D03*
X226822000Y-164719000D03*
X125222000Y-164719000D03*
X125730000Y-164719000D03*
X126746000Y-164719000D03*
X126238000Y-164719000D03*
X127254000Y-164719000D03*
X90170000Y-136525000D03*
X90678000Y-136525000D03*
X91694000Y-136525000D03*
X91186000Y-136525000D03*
X92202000Y-136525000D03*
X56642000Y-164719000D03*
X55626000Y-164719000D03*
X56134000Y-164719000D03*
X55118000Y-164719000D03*
D17*
X118408000Y-145166000D03*
X133708000Y-145166000D03*
X133708000Y-158466000D03*
X118408000Y-158466000D03*
D18*
X116408000Y-151816000D03*
X116408000Y-149316000D03*
X116408000Y-154316000D03*
D19*
X126058000Y-161566000D03*
X123558000Y-161566000D03*
X128558000Y-161566000D03*
D18*
X122808000Y-143566000D03*
X129308000Y-143566000D03*
X129308000Y-139066000D03*
X122808000Y-139066000D03*
D17*
X48408000Y-145166000D03*
X63708000Y-145166000D03*
X63708000Y-158466000D03*
X48408000Y-158466000D03*
D18*
X46408000Y-151816000D03*
X46408000Y-149316000D03*
X46408000Y-154316000D03*
D19*
X56058000Y-161566000D03*
X53558000Y-161566000D03*
X58558000Y-161566000D03*
D18*
X52808000Y-143566000D03*
X59308000Y-143566000D03*
X59308000Y-139066000D03*
X52808000Y-139066000D03*
D11*
X47498000Y-140716000D03*
X113538000Y-161036000D03*
X134493000Y-140716000D03*
X68453000Y-161036000D03*
D15*
X81058000Y-139316000D03*
D16*
X81058000Y-141816000D03*
D13*
X86360000Y-143256000D03*
D14*
X86360000Y-140716000D03*
X88900000Y-143256000D03*
X88900000Y-140716000D03*
X91440000Y-143256000D03*
X91440000Y-140716000D03*
X93980000Y-143256000D03*
X93980000Y-140716000D03*
X96520000Y-143256000D03*
X96520000Y-140716000D03*
D12*
X54610000Y-164719000D03*
X54610000Y-130429000D03*
D13*
X86360000Y-108966000D03*
D14*
X86360000Y-106426000D03*
X88900000Y-108966000D03*
X88900000Y-106426000D03*
X91440000Y-108966000D03*
X91440000Y-106426000D03*
X93980000Y-108966000D03*
X93980000Y-106426000D03*
X96520000Y-108966000D03*
X96520000Y-106426000D03*
D15*
X81058000Y-105026000D03*
D16*
X81058000Y-107526000D03*
D11*
X68453000Y-126746000D03*
X134493000Y-106426000D03*
X113538000Y-126746000D03*
X47498000Y-106426000D03*
D17*
X48408000Y-110876000D03*
X63708000Y-110876000D03*
X63708000Y-124176000D03*
X48408000Y-124176000D03*
D18*
X46408000Y-117526000D03*
X46408000Y-115026000D03*
X46408000Y-120026000D03*
D19*
X56058000Y-127276000D03*
X53558000Y-127276000D03*
X58558000Y-127276000D03*
D18*
X52808000Y-109276000D03*
X59308000Y-109276000D03*
X59308000Y-104776000D03*
X52808000Y-104776000D03*
D17*
X118408000Y-110876000D03*
X133708000Y-110876000D03*
X133708000Y-124176000D03*
X118408000Y-124176000D03*
D18*
X116408000Y-117526000D03*
X116408000Y-115026000D03*
X116408000Y-120026000D03*
D19*
X126058000Y-127276000D03*
X123558000Y-127276000D03*
X128558000Y-127276000D03*
D18*
X122808000Y-109276000D03*
X129308000Y-109276000D03*
X129308000Y-104776000D03*
X122808000Y-104776000D03*
D12*
X55118000Y-130429000D03*
X56134000Y-130429000D03*
X55626000Y-130429000D03*
X56642000Y-130429000D03*
X92202000Y-102235000D03*
X91186000Y-102235000D03*
X91694000Y-102235000D03*
X90678000Y-102235000D03*
X90170000Y-102235000D03*
X127254000Y-130429000D03*
X126238000Y-130429000D03*
X126746000Y-130429000D03*
X125730000Y-130429000D03*
X125222000Y-130429000D03*
X125222000Y-96139000D03*
X125730000Y-96139000D03*
X126746000Y-96139000D03*
X126238000Y-96139000D03*
X127254000Y-96139000D03*
X90170000Y-67945000D03*
X90678000Y-67945000D03*
X91694000Y-67945000D03*
X91186000Y-67945000D03*
X92202000Y-67945000D03*
X56642000Y-96139000D03*
X55626000Y-96139000D03*
X56134000Y-96139000D03*
X55118000Y-96139000D03*
D17*
X118408000Y-76586000D03*
X133708000Y-76586000D03*
X133708000Y-89886000D03*
X118408000Y-89886000D03*
D18*
X116408000Y-83236000D03*
X116408000Y-80736000D03*
X116408000Y-85736000D03*
D19*
X126058000Y-92986000D03*
X123558000Y-92986000D03*
X128558000Y-92986000D03*
D18*
X122808000Y-74986000D03*
X129308000Y-74986000D03*
X129308000Y-70486000D03*
X122808000Y-70486000D03*
D17*
X48408000Y-76586000D03*
X63708000Y-76586000D03*
X63708000Y-89886000D03*
X48408000Y-89886000D03*
D18*
X46408000Y-83236000D03*
X46408000Y-80736000D03*
X46408000Y-85736000D03*
D19*
X56058000Y-92986000D03*
X53558000Y-92986000D03*
X58558000Y-92986000D03*
D18*
X52808000Y-74986000D03*
X59308000Y-74986000D03*
X59308000Y-70486000D03*
X52808000Y-70486000D03*
D11*
X47498000Y-72136000D03*
X113538000Y-92456000D03*
X134493000Y-72136000D03*
X68453000Y-92456000D03*
D15*
X81058000Y-70736000D03*
D16*
X81058000Y-73236000D03*
D13*
X86360000Y-74676000D03*
D14*
X86360000Y-72136000D03*
X88900000Y-74676000D03*
X88900000Y-72136000D03*
X91440000Y-74676000D03*
X91440000Y-72136000D03*
X93980000Y-74676000D03*
X93980000Y-72136000D03*
X96520000Y-74676000D03*
X96520000Y-72136000D03*
D12*
X54610000Y-96139000D03*
M02*
