<?xml version="1.0" standalone="no"?>
 <!DOCTYPE svg PUBLIC "-//W3C//DTD SVG 1.1//EN" 
 "http://www.w3.org/Graphics/SVG/1.1/DTD/svg11.dtd"> 
<svg xmlns="http://www.w3.org/2000/svg" version="1.1" 
    width="29.7002cm" height="21.0007cm" viewBox="0 0 116930 82680 ">
<title>SVG Picture created as sticks-F_SilkS.svg date 2015/07/29 15:28:44 </title>
  <desc>Picture generated by PCBNEW </desc>
<g style="fill:#000000; fill-opacity:1;stroke:#000000; stroke-opacity:1;
stroke-linecap:round; stroke-linejoin:round; "
 transform="translate(0 0) scale(1 1)">
</g>
<g style="fill:#000000; fill-opacity:0.0; 
stroke:#000000; stroke-width:787.402; stroke-opacity:1; 
stroke-linecap:round; stroke-linejoin:round;">
<path d="M69750 44750
L67750 44750
" />
<path d="M40000 44750
L66250 44750
" />
<path d="M54000 33000
L70000 33000
" />
<path d="M36500 33000
L52500 33000
" />
<path d="M36500 44750
L38500 44750
" />
<path d="M72200 35500
L72200 42250
" />
<path d="M34000 42250 A2500 2500 0.0 0 0 36500 44750 " />
<path d="M72215 35475 A2500 2500 0.0 0 0 69715 32975 " />
<path d="M69710 44750 A2500 2500 0.0 0 0 72210 42250 " />
<path d="M34000 35500
L34000 42500
" />
<path d="M36500 33000 A2500 2500 0.0 0 0 34000 35500 " />
</g>
<g style="fill:#000000; fill-opacity:0.0; 
stroke:#000000; stroke-width:118.11; stroke-opacity:1; 
stroke-linecap:round; stroke-linejoin:round;">
<path d="M50876 39954
L50876 40375
L50848 40460
L50792 40516
L50708 40544
L50651 40544
" />
<path d="M51242 40544
L51186 40516
L51158 40488
L51129 40432
L51129 40263
L51158 40207
L51186 40179
L51242 40151
L51326 40151
L51383 40179
L51411 40207
L51439 40263
L51439 40432
L51411 40488
L51383 40516
L51326 40544
L51242 40544
" />
<path d="M51636 40151
L51776 40544
" />
<path d="M51917 40151
L51776 40544
L51720 40685
L51692 40713
L51636 40741
" />
<path d="M52676 40544
L52620 40516
L52592 40488
L52564 40432
L52564 40263
L52592 40207
L52620 40179
L52676 40151
L52760 40151
L52817 40179
L52845 40207
L52873 40263
L52873 40432
L52845 40488
L52817 40516
L52760 40544
L52676 40544
" />
<path d="M53042 40151
L53267 40151
" />
<path d="M53126 40544
L53126 40038
L53154 39982
L53210 39954
L53267 39954
" />
<path d="M53885 40516
L53970 40544
L54110 40544
L54167 40516
L54195 40488
L54223 40432
L54223 40375
L54195 40319
L54167 40291
L54110 40263
L53998 40235
L53942 40207
L53913 40179
L53885 40122
L53885 40066
L53913 40010
L53942 39982
L53998 39954
L54138 39954
L54223 39982
" />
<path d="M54392 40151
L54616 40151
" />
<path d="M54476 39954
L54476 40460
L54504 40516
L54560 40544
L54616 40544
" />
<path d="M54813 40544
L54813 40151
" />
<path d="M54813 39954
L54785 39982
L54813 40010
L54841 39982
L54813 39954
L54813 40010
" />
<path d="M55038 40544
L55348 40151
" />
<path d="M55038 40151
L55348 40544
" />
<path d="M46869 41320
L47150 41320
" />
<path d="M46813 41489
L47010 40899
L47206 41489
" />
<path d="M47853 41489
L47853 40899
" />
<path d="M48106 41489
L48106 41180
L48078 41124
L48022 41095
L47938 41095
L47881 41124
L47853 41152
" />
<path d="M48641 41489
L48641 41180
L48613 41124
L48556 41095
L48444 41095
L48388 41124
" />
<path d="M48641 41461
L48584 41489
L48444 41489
L48388 41461
L48359 41405
L48359 41348
L48388 41292
L48444 41264
L48584 41264
L48641 41236
" />
<path d="M48922 41095
L48922 41686
" />
<path d="M48922 41124
L48978 41095
L49091 41095
L49147 41124
L49175 41152
L49203 41208
L49203 41377
L49175 41433
L49147 41461
L49091 41489
L48978 41489
L48922 41461
" />
<path d="M49456 41095
L49456 41686
" />
<path d="M49456 41124
L49512 41095
L49625 41095
L49681 41124
L49709 41152
L49737 41208
L49737 41377
L49709 41433
L49681 41461
L49625 41489
L49512 41489
L49456 41461
" />
<path d="M49934 41095
L50075 41489
" />
<path d="M50215 41095
L50075 41489
L50019 41630
L49991 41658
L49934 41686
" />
<path d="M50834 41095
L50947 41489
L51059 41208
L51172 41489
L51284 41095
" />
<path d="M51762 41489
L51762 41180
L51734 41124
L51678 41095
L51565 41095
L51509 41124
" />
<path d="M51762 41461
L51706 41489
L51565 41489
L51509 41461
L51481 41405
L51481 41348
L51509 41292
L51565 41264
L51706 41264
L51762 41236
" />
<path d="M51987 41095
L52128 41489
" />
<path d="M52268 41095
L52128 41489
L52071 41630
L52043 41658
L51987 41686
" />
<path d="M52859 41095
L53084 41095
" />
<path d="M52943 40899
L52943 41405
L52971 41461
L53028 41489
L53084 41489
" />
<path d="M53365 41489
L53309 41461
L53281 41433
L53253 41377
L53253 41208
L53281 41152
L53309 41124
L53365 41095
L53449 41095
L53506 41124
L53534 41152
L53562 41208
L53562 41377
L53534 41433
L53506 41461
L53449 41489
L53365 41489
" />
<path d="M54265 41095
L54265 41686
" />
<path d="M54265 41124
L54321 41095
L54434 41095
L54490 41124
L54518 41152
L54546 41208
L54546 41377
L54518 41433
L54490 41461
L54434 41489
L54321 41489
L54265 41461
" />
<path d="M54884 41489
L54827 41461
L54799 41405
L54799 40899
" />
<path d="M55362 41489
L55362 41180
L55334 41124
L55277 41095
L55165 41095
L55109 41124
" />
<path d="M55362 41461
L55305 41489
L55165 41489
L55109 41461
L55080 41405
L55080 41348
L55109 41292
L55165 41264
L55305 41264
L55362 41236
" />
<path d="M55587 41095
L55727 41489
" />
<path d="M55868 41095
L55727 41489
L55671 41630
L55643 41658
L55587 41686
" />
<path d="M56543 41489
L56543 40899
L56740 41320
L56937 40899
L56937 41489
" />
<path d="M57443 41461
L57386 41489
L57274 41489
L57218 41461
L57190 41405
L57190 41180
L57218 41124
L57274 41095
L57386 41095
L57443 41124
L57471 41180
L57471 41236
L57190 41292
" />
<path d="M57696 41320
L57977 41320
" />
<path d="M57640 41489
L57836 40899
L58033 41489
" />
<path d="M58230 41489
L58230 41095
" />
<path d="M58230 41208
L58258 41152
L58286 41124
L58343 41095
L58399 41095
" />
<path d="M58596 41489
L58596 41095
" />
<path d="M58596 41152
L58624 41124
L58680 41095
L58764 41095
L58821 41124
L58849 41180
L58849 41489
" />
<path d="M58849 41180
L58877 41124
L58933 41095
L59017 41095
L59074 41124
L59102 41180
L59102 41489
" />
</g>
<g style="fill:#000000; fill-opacity:0.0; 
stroke:#000000; stroke-width:39.3701; stroke-opacity:1; 
stroke-linecap:round; stroke-linejoin:round;">
<path d="M34448 35433
L34448 42322
" />
<path d="M71850 35433
L71850 42322
" />
<path d="M34448.8 42322.8 A1968.5 1968.5 0.0 0 0 36417.3 44291.3 " />
<path d="M36417 44291
L69881 44291
" />
<path d="M69881.9 44291.3 A1968.5 1968.5 0.0 0 0 71850.4 42322.8 " />
<path d="M36417.3 33464.6 A1968.5 1968.5 0.0 0 0 34448.8 35433.1 " />
<path d="M71850.4 35433.1 A1968.5 1968.5 0.0 0 0 69881.9 33464.6 " />
<path d="M36417 33464
L69881 33464
" />
</g>
<g style="fill:#000000; fill-opacity:0.0; 
stroke:#000000; stroke-width:59.0551; stroke-opacity:1; 
stroke-linecap:round; stroke-linejoin:round;">
<path d="M66712 37845
L66712 38267
L66684 38352
L66628 38408
L66543 38436
L66487 38436
" />
<path d="M67303 38436
L66965 38436
" />
<path d="M67134 38436
L67134 37845
L67078 37930
L67021 37986
L66965 38014
" />
<path d="M65233 40050
L65233 40472
L65205 40556
L65149 40613
L65064 40641
L65008 40641
" />
<path d="M65627 40050
L65739 40050
L65795 40078
L65852 40134
L65880 40247
L65880 40444
L65852 40556
L65795 40613
L65739 40641
L65627 40641
L65570 40613
L65514 40556
L65486 40444
L65486 40247
L65514 40134
L65570 40078
L65627 40050
" />
<path d="M66245 40359
L66245 40641
" />
<path d="M66048 40050
L66245 40359
L66442 40050
" />
<path d="M66611 40613
L66695 40641
L66836 40641
L66892 40613
L66920 40584
L66948 40528
L66948 40472
L66920 40416
L66892 40388
L66836 40359
L66723 40331
L66667 40303
L66639 40275
L66611 40219
L66611 40163
L66639 40106
L66667 40078
L66723 40050
L66864 40050
L66948 40078
" />
<path d="M67117 40050
L67455 40050
" />
<path d="M67286 40641
L67286 40050
" />
<path d="M67651 40641
L67651 40050
" />
<path d="M68270 40584
L68242 40613
L68158 40641
L68101 40641
L68017 40613
L67961 40556
L67933 40500
L67904 40388
L67904 40303
L67933 40191
L67961 40134
L68017 40078
L68101 40050
L68158 40050
L68242 40078
L68270 40106
" />
<path d="M68523 40641
L68523 40050
" />
<path d="M68861 40641
L68607 40303
" />
<path d="M68861 40050
L68523 40388
" />
<path d="M39153 37845
L39153 38267
L39125 38352
L39069 38408
L38984 38436
L38928 38436
" />
<path d="M39406 37902
L39434 37874
L39491 37845
L39631 37845
L39687 37874
L39715 37902
L39744 37958
L39744 38014
L39715 38098
L39378 38436
L39744 38436
" />
<path d="M37674 40050
L37674 40472
L37646 40556
L37589 40613
L37505 40641
L37449 40641
" />
<path d="M38068 40050
L38180 40050
L38236 40078
L38293 40134
L38321 40247
L38321 40444
L38293 40556
L38236 40613
L38180 40641
L38068 40641
L38011 40613
L37955 40556
L37927 40444
L37927 40247
L37955 40134
L38011 40078
L38068 40050
" />
<path d="M38686 40359
L38686 40641
" />
<path d="M38489 40050
L38686 40359
L38883 40050
" />
<path d="M39052 40613
L39136 40641
L39277 40641
L39333 40613
L39361 40584
L39389 40528
L39389 40472
L39361 40416
L39333 40388
L39277 40359
L39164 40331
L39108 40303
L39080 40275
L39052 40219
L39052 40163
L39080 40106
L39108 40078
L39164 40050
L39305 40050
L39389 40078
" />
<path d="M39558 40050
L39895 40050
" />
<path d="M39727 40641
L39727 40050
" />
<path d="M40092 40641
L40092 40050
" />
<path d="M40711 40584
L40683 40613
L40598 40641
L40542 40641
L40458 40613
L40402 40556
L40374 40500
L40345 40388
L40345 40303
L40374 40191
L40402 40134
L40458 40078
L40542 40050
L40598 40050
L40683 40078
L40711 40106
" />
<path d="M40964 40641
L40964 40050
" />
<path d="M41302 40641
L41048 40303
" />
<path d="M41302 40050
L40964 40388
" />
<path d="M50337 35006
L50356 35025
L50374 35081
L50374 35119
L50356 35175
L50318 35212
L50281 35231
L50206 35250
L50149 35250
L50074 35231
L50037 35212
L50000 35175
L49981 35119
L49981 35081
L50000 35025
L50018 35006
" />
<path d="M50374 34631
L50374 34856
" />
<path d="M50374 34744
L49981 34744
L50037 34781
L50074 34819
L50093 34856
" />
<path d="M49076 36299
L49395 36299
L49432 36281
L49451 36262
L49470 36224
L49470 36149
L49451 36112
L49432 36093
L49395 36074
L49076 36074
" />
<path d="M49470 35681
L49470 35906
" />
<path d="M49470 35793
L49076 35793
L49132 35831
L49170 35868
L49189 35906
" />
<path d="M62598 40944
L63188 40944
" />
<path d="M63188 40944
L63188 42716
" />
<path d="M63188 42716
L63188 42913
" />
<path d="M63188 42913
L65354 42913
" />
<path d="M65354 42913
L65354 43700
" />
<path d="M65354 43700
L68503 43700
" />
<path d="M68503 43700
L68503 42913
" />
<path d="M68503 42913
L70669 42913
" />
<path d="M70669 42913
L70669 36023
" />
<path d="M70669 36023
L70669 35826
" />
<path d="M70669 35826
L68897 35826
" />
<path d="M68897 35826
L68897 33661
" />
<path d="M68897 33661
L64960 33661
" />
<path d="M64960 33661
L64960 35826
" />
<path d="M64960 35826
L63188 35826
" />
<path d="M63188 35826
L63188 37795
" />
<path d="M63188 37795
L62598 37795
" />
<path d="M62598 37795
L62598 40944
" />
<path d="M35039 40944
L35629 40944
" />
<path d="M35629 40944
L35629 42716
" />
<path d="M35629 42716
L35629 42913
" />
<path d="M35629 42913
L37795 42913
" />
<path d="M37795 42913
L37795 43700
" />
<path d="M37795 43700
L40944 43700
" />
<path d="M40944 43700
L40944 42913
" />
<path d="M40944 42913
L43110 42913
" />
<path d="M43110 42913
L43110 36023
" />
<path d="M43110 36023
L43110 35826
" />
<path d="M43110 35826
L41338 35826
" />
<path d="M41338 35826
L41338 33661
" />
<path d="M41338 33661
L37401 33661
" />
<path d="M37401 33661
L37401 35826
" />
<path d="M37401 35826
L35629 35826
" />
<path d="M35629 35826
L35629 37795
" />
<path d="M35629 37795
L35039 37795
" />
<path d="M35039 37795
L35039 40944
" />
<path d="M49704 34350
L49704 35531
" />
<path d="M48720 35531
L48720 34350
" />
<path d="M50800 34500
L55800 34500
" />
<path d="M55800 34500
L55800 36500
" />
<path d="M55800 36500
L51800 36500
" />
<path d="M50800 34500
L50800 35500
" />
<path d="M50689 36000
L50689 36610
" />
<path d="M50800 35500
L51800 35500
" />
<path d="M51800 35500
L51800 36500
" />
<path d="M50689 36610
L51300 36610
" />
</g>
<g style="fill:#000000; fill-opacity:1.0; 
stroke:#000000; stroke-width:39.3701; stroke-opacity:1; 
stroke-linecap:round; stroke-linejoin:round;">
<polyline style="fill-rule:evenodd;"
points="45452,40425
45451,40469
45400,40483
45386,40483
45341,40477
45308,40449
45277,40386
45241,40275
45231,40241
45193,40121
45159,40026
45136,39974
45133,39972
45110,39985
45077,40047
45049,40122
45013,40224
44983,40299
44969,40324
44939,40313
44883,40259
44815,40176
44744,40086
44703,40043
44682,40043
44672,40078
44671,40084
44667,40159
44668,40274
44672,40391
44678,40510
44674,40578
44657,40608
44624,40616
44614,40616
44573,40608
44548,40575
44532,40502
44521,40411
44510,40266
44502,40095
44500,39961
44501,39835
44509,39761
44526,39726
44556,39716
44564,39716
44621,39743
44698,39814
44755,39881
44825,39968
44880,40028
44905,40048
44926,40020
44959,39944
44998,39837
45000,39833
45045,39710
45085,39642
45125,39617
45134,39616
45155,39619
45175,39633
45197,39666
45223,39724
45257,39815
45301,39946
45358,40124
45431,40357
45452,40425
45452,40425
" /> 
<polyline style="fill-rule:evenodd;"
points="46066,40274
46036,40336
45960,40383
45856,40411
45744,40414
45643,40390
45624,40380
45558,40314
45500,40213
45468,40109
45466,40083
45495,39955
45571,39852
45678,39785
45801,39765
45880,39782
45942,39827
46000,39901
46041,39981
46050,40045
46046,40056
46001,40080
45916,40097
45818,40106
45734,40103
45692,40089
45688,40059
45745,40032
45770,40025
45854,39991
45872,39951
45824,39903
45819,39900
45750,39884
45692,39919
45652,39989
45637,40076
45653,40165
45688,40222
45774,40269
45894,40270
46008,40234
46054,40229
46066,40274
46066,40274
" /> 
<polyline style="fill-rule:evenodd;"
points="46430,39471
46419,39588
46392,39759
46349,39988
46319,40133
46292,40247
46264,40310
46226,40338
46201,40344
46146,40343
46137,40304
46142,40277
46155,40213
46175,40101
46198,39956
46218,39833
46252,39641
46288,39508
46327,39427
46374,39388
46406,39383
46425,39404
46430,39471
46430,39471
" /> 
<polyline style="fill-rule:evenodd;"
points="46863,40192
46856,40223
46793,40246
46741,40219
46691,40146
46643,40077
46591,40055
46516,40064
46438,40074
46406,40058
46400,40004
46400,40001
46415,39935
46466,39916
46517,39911
46528,39885
46503,39823
46486,39788
46454,39657
46462,39583
46485,39469
46691,39833
46782,40002
46839,40120
46863,40192
46863,40192
" /> 
<polyline style="fill-rule:evenodd;"
points="47200,39583
47187,39637
47169,39650
47122,39671
47090,39697
47066,39734
47059,39789
47069,39881
47083,39961
47104,40076
47109,40142
47097,40174
47066,40188
47049,40191
47014,40193
46988,40175
46967,40126
46945,40033
46921,39904
46896,39741
46890,39635
46906,39576
46946,39558
47005,39568
47063,39566
47082,39551
47131,39517
47180,39533
47200,39583
47200,39583
" /> 
<polyline style="fill-rule:evenodd;"
points="48327,39910
48323,39962
48300,39981
48272,39983
48228,39975
48198,39942
48175,39870
48153,39747
48150,39728
48125,39625
48093,39542
48084,39529
48044,39490
47992,39493
47949,39510
47908,39531
47883,39557
47872,39600
47876,39673
47894,39787
47921,39944
47930,40018
47913,40046
47863,40044
47811,40025
47780,39973
47760,39883
47728,39720
47693,39616
47649,39565
47592,39560
47526,39586
47491,39616
47474,39665
47474,39745
47492,39869
47519,40008
47529,40082
47510,40111
47459,40116
47419,40112
47392,40091
47371,40041
47353,39948
47334,39825
47316,39693
47304,39588
47301,39526
47303,39516
47343,39502
47383,39500
47460,39486
47492,39472
47552,39455
47644,39452
47659,39453
47775,39444
47894,39411
47906,39406
48035,39370
48138,39392
48219,39474
48278,39616
48316,39808
48327,39910
48327,39910
" /> 
<polyline style="fill-rule:evenodd;"
points="48116,38633
48108,38741
48077,38813
48023,38869
47980,38902
47935,38925
47874,38939
47784,38946
47651,38949
47499,38950
47325,38947
47173,38939
47057,38928
46993,38913
46993,38913
46950,38878
46872,38799
46767,38683
46640,38540
46499,38376
46419,38280
46278,38112
46152,37962
46047,37839
45969,37749
45923,37699
45914,37691
45902,37724
45870,37810
45822,37941
45761,38108
45691,38302
45650,38416
45558,38667
45484,38862
45423,39008
45373,39113
45330,39184
45295,39225
45174,39300
45042,39310
44933,39273
44841,39194
44780,39080
44767,38998
44778,38953
44809,38855
44856,38712
44917,38535
44988,38332
45065,38113
45146,37887
45227,37663
45305,37451
45377,37259
45438,37097
45486,36974
45518,36901
45602,36791
45717,36730
45846,36720
45970,36766
46004,36791
46048,36836
46127,36925
46237,37050
46370,37204
46520,37380
46680,37571
46697,37591
47303,38316
47616,38316
47767,38318
47868,38325
47936,38341
47988,38369
48023,38397
48083,38462
48111,38537
48116,38633
48116,38633
" /> 
<circle cx="66600" cy="44450" r="39.3701" /> 
<circle cx="66800" cy="44450" r="39.3701" /> 
<circle cx="67200" cy="44450" r="39.3701" /> 
<circle cx="67000" cy="44450" r="39.3701" /> 
<circle cx="67400" cy="44450" r="39.3701" /> 
<circle cx="52800" cy="33350" r="39.3701" /> 
<circle cx="53000" cy="33350" r="39.3701" /> 
<circle cx="53400" cy="33350" r="39.3701" /> 
<circle cx="53200" cy="33350" r="39.3701" /> 
<circle cx="53600" cy="33350" r="39.3701" /> 
<circle cx="39600" cy="44450" r="39.3701" /> 
<circle cx="39200" cy="44450" r="39.3701" /> 
<circle cx="39400" cy="44450" r="39.3701" /> 
<circle cx="39000" cy="44450" r="39.3701" /> 
</g>
<g style="fill:#000000; fill-opacity:1.0; 
stroke:#000000; stroke-width:708.661; stroke-opacity:1; 
stroke-linecap:round; stroke-linejoin:round;">
</g>
<g style="fill:#000000; fill-opacity:0.0; 
stroke:#000000; stroke-width:708.661; stroke-opacity:1; 
stroke-linecap:round; stroke-linejoin:round;">
<path d="M63917 36594
L63917 36909
" />
<path d="M69940 36594
L69940 36909
" />
<path d="M69940 41830
L69940 42145
" />
<path d="M63917 41830
L63917 42145
" />
</g>
<g style="fill:#000000; fill-opacity:0.0; 
stroke:#000000; stroke-width:600; stroke-opacity:1; 
stroke-linecap:round; stroke-linejoin:round;">
<path d="M63129 39276
L63129 39463
" />
<path d="M63129 38292
L63129 38479
" />
<path d="M63129 40260
L63129 40448
" />
</g>
<g style="fill:#000000; fill-opacity:0.0; 
stroke:#000000; stroke-width:606.299; stroke-opacity:1; 
stroke-linecap:round; stroke-linejoin:round;">
<path d="M66838 43208
L67019 43208
" />
<path d="M65854 43208
L66035 43208
" />
<path d="M67822 43208
L68003 43208
" />
</g>
<g style="fill:#000000; fill-opacity:0.0; 
stroke:#000000; stroke-width:600; stroke-opacity:1; 
stroke-linecap:round; stroke-linejoin:round;">
<path d="M65649 36028
L65649 36215
" />
<path d="M68208 36028
L68208 36215
" />
<path d="M68208 34256
L68208 34444
" />
<path d="M65649 34256
L65649 34444
" />
</g>
<g style="fill:#000000; fill-opacity:0.0; 
stroke:#000000; stroke-width:708.661; stroke-opacity:1; 
stroke-linecap:round; stroke-linejoin:round;">
<path d="M36358 36594
L36358 36909
" />
<path d="M42381 36594
L42381 36909
" />
<path d="M42381 41830
L42381 42145
" />
<path d="M36358 41830
L36358 42145
" />
</g>
<g style="fill:#000000; fill-opacity:0.0; 
stroke:#000000; stroke-width:600; stroke-opacity:1; 
stroke-linecap:round; stroke-linejoin:round;">
<path d="M35570 39276
L35570 39463
" />
<path d="M35570 38292
L35570 38479
" />
<path d="M35570 40260
L35570 40448
" />
</g>
<g style="fill:#000000; fill-opacity:0.0; 
stroke:#000000; stroke-width:606.299; stroke-opacity:1; 
stroke-linecap:round; stroke-linejoin:round;">
<path d="M39279 43208
L39460 43208
" />
<path d="M38295 43208
L38476 43208
" />
<path d="M40263 43208
L40444 43208
" />
</g>
<g style="fill:#000000; fill-opacity:0.0; 
stroke:#000000; stroke-width:600; stroke-opacity:1; 
stroke-linecap:round; stroke-linejoin:round;">
<path d="M38090 36028
L38090 36215
" />
<path d="M40649 36028
L40649 36215
" />
<path d="M40649 34256
L40649 34444
" />
<path d="M38090 34256
L38090 34444
" />
</g>
<g style="fill:#000000; fill-opacity:0.0; 
stroke:#000000; stroke-width:39.3701; stroke-opacity:1; 
stroke-linecap:round; stroke-linejoin:round;">
</g>
<g style="fill:#000000; fill-opacity:1.0; 
stroke:#000000; stroke-width:39.3701; stroke-opacity:1; 
stroke-linecap:round; stroke-linejoin:round;">
<circle cx="36000" cy="35000" r="767.717" /> 
<circle cx="62000" cy="43000" r="767.717" /> 
<circle cx="70250" cy="35000" r="767.717" /> 
<circle cx="44250" cy="43000" r="767.717" /> 
<polyline style="fill-rule:evenodd;"
points="48976,34212
49448,34212
49448,34685
48976,34685
48976,34212
" /> 
<circle cx="49212.6" cy="35433.1" r="236.22" /> 
<polyline style="fill-rule:evenodd;"
points="51620,36320
50979,36320
50979,35679
51620,35679
51620,36320
" /> 
</g>
<g style="fill:#000000; fill-opacity:1.0; 
stroke:#000000; stroke-width:680; stroke-opacity:1; 
stroke-linecap:round; stroke-linejoin:round;">
</g>
<g style="fill:#000000; fill-opacity:0.0; 
stroke:#000000; stroke-width:680; stroke-opacity:1; 
stroke-linecap:round; stroke-linejoin:round;">
<path d="M51300 35000
L51300 35000
" />
<path d="M52300 36000
L52300 36000
" />
<path d="M52300 35000
L52300 35000
" />
<path d="M53300 36000
L53300 36000
" />
<path d="M53300 35000
L53300 35000
" />
<path d="M54300 36000
L54300 36000
" />
<path d="M54300 35000
L54300 35000
" />
<path d="M55300 36000
L55300 36000
" />
<path d="M55300 35000
L55300 35000
" />
</g>
<g style="fill:#000000; fill-opacity:0.0; 
stroke:#000000; stroke-width:39.3701; stroke-opacity:1; 
stroke-linecap:round; stroke-linejoin:round;">
</g>
<g style="fill:#000000; fill-opacity:1.0; 
stroke:#000000; stroke-width:39.3701; stroke-opacity:1; 
stroke-linecap:round; stroke-linejoin:round;">
<circle cx="38800" cy="44450" r="39.3701" /> 
</g> 
</svg>
