<?xml version="1.0" standalone="no"?>
 <!DOCTYPE svg PUBLIC "-//W3C//DTD SVG 1.1//EN" 
 "http://www.w3.org/Graphics/SVG/1.1/DTD/svg11.dtd"> 
<svg xmlns="http://www.w3.org/2000/svg" version="1.1" 
    width="29.7002cm" height="21.0007cm" viewBox="0 0 116930 82680 ">
<title>SVG Picture created as brains-F_Cu.svg date 2016/03/21 14:13:36 </title>
  <desc>Picture generated by PCBNEW </desc>
<g style="fill:#000000; fill-opacity:1;stroke:#000000; stroke-opacity:1;
stroke-linecap:round; stroke-linejoin:round; "
 transform="translate(0 0) scale(1 1)">
</g>
<g style="fill:#000000; fill-opacity:0.0; 
stroke:#000000; stroke-width:393.701; stroke-opacity:1; 
stroke-linecap:round; stroke-linejoin:round;">
<path d="M66929 50787
L38976 50787
" />
<path d="M36000 30500
L36000 48400
" />
<path d="M68100 50800 A2202.27 2202.27 0.0 0 0 70400 48700 " />
<path d="M36000 48500 A2202.27 2202.27 0.0 0 0 38100 50800 " />
<path d="M68200 28400
L47450 28400
" />
<path d="M38350 28400
L46600 28400
" />
<path d="M38300 28400 A2202.27 2202.27 0.0 0 0 36000 30500 " />
<path d="M70400 30700 A2202.27 2202.27 0.0 0 0 68300 28400 " />
<path d="M70400 30600
L70400 48600
" />
</g>
<g style="fill:#000000; fill-opacity:0.0; 
stroke:#000000; stroke-width:39.3701; stroke-opacity:1; 
stroke-linecap:round; stroke-linejoin:round;">
<path d="M70600 28300
L70600 28200
" />
<path d="M70200 30600
L70200 48600
" />
</g>
<g style="fill:#000000; fill-opacity:1.0; 
stroke:#000000; stroke-width:39.3701; stroke-opacity:1; 
stroke-linecap:round; stroke-linejoin:round;">
<circle cx="60629.9" cy="39370.1" r="521.654" /> 
<circle cx="60629.9" cy="30315" r="521.654" /> 
<circle cx="37795.3" cy="39370.1" r="521.654" /> 
<polyline style="fill-rule:evenodd;"
points="69963,41057
69963,41918
69382,41918
69382,41057
69963,41057
" /> 
</g>
<g style="fill:#000000; fill-opacity:1.0; 
stroke:#000000; stroke-width:620; stroke-opacity:1; 
stroke-linecap:round; stroke-linejoin:round;">
</g>
<g style="fill:#000000; fill-opacity:0.0; 
stroke:#000000; stroke-width:620; stroke-opacity:1; 
stroke-linecap:round; stroke-linejoin:round;">
<path d="M68673 41628
L68673 41348
" />
<path d="M67673 41628
L67673 41348
" />
<path d="M66673 41628
L66673 41348
" />
<path d="M65673 41628
L65673 41348
" />
<path d="M64673 41628
L64673 41348
" />
<path d="M63673 41628
L63673 41348
" />
<path d="M62673 41628
L62673 41348
" />
<path d="M61673 41628
L61673 41348
" />
<path d="M60673 41628
L60673 41348
" />
<path d="M59673 41628
L59673 41348
" />
<path d="M58673 41628
L58673 41348
" />
<path d="M58673 47628
L58673 47348
" />
<path d="M59673 47628
L59673 47348
" />
<path d="M60673 47628
L60673 47348
" />
<path d="M61673 47628
L61673 47348
" />
<path d="M62673 47628
L62673 47348
" />
<path d="M63673 47628
L63673 47348
" />
<path d="M64673 47628
L64673 47348
" />
<path d="M65673 47628
L65673 47348
" />
<path d="M66673 47628
L66673 47348
" />
<path d="M67673 47628
L67673 47348
" />
<path d="M68673 47628
L68673 47348
" />
<path d="M69673 47628
L69673 47348
" />
</g>
<g style="fill:#000000; fill-opacity:0.0; 
stroke:#000000; stroke-width:39.3701; stroke-opacity:1; 
stroke-linecap:round; stroke-linejoin:round;">
</g>
<g style="fill:#000000; fill-opacity:1.0; 
stroke:#000000; stroke-width:39.3701; stroke-opacity:1; 
stroke-linecap:round; stroke-linejoin:round;">
<circle cx="38950" cy="50650" r="39.3701" /> 
<circle cx="38800" cy="50650" r="39.3701" /> 
<circle cx="38650" cy="50650" r="39.3701" /> 
<circle cx="38500" cy="50650" r="39.3701" /> 
<circle cx="38350" cy="50650" r="39.3701" /> 
<circle cx="67850" cy="50650" r="39.3701" /> 
<circle cx="67700" cy="50650" r="39.3701" /> 
<circle cx="67550" cy="50650" r="39.3701" /> 
<circle cx="67400" cy="50650" r="39.3701" /> 
<circle cx="67250" cy="50650" r="39.3701" /> 
<circle cx="46700" cy="28550" r="39.3701" /> 
<circle cx="41200" cy="45100" r="374.016" /> 
<circle cx="42200" cy="45182.7" r="374.016" /> 
<circle cx="43200" cy="45100" r="374.016" /> 
<circle cx="44207.9" cy="45182.7" r="374.016" /> 
<circle cx="45200" cy="45100" r="374.016" /> 
<circle cx="46215.7" cy="45182.7" r="374.016" /> 
<circle cx="47200" cy="45100" r="374.016" /> 
<polyline style="fill-rule:evenodd;"
points="47829,45537
47829,44788
48577,44788
48577,45537
47829,45537
" /> 
<polyline style="fill-rule:evenodd;"
points="51520,49920
50879,49920
50879,49279
51520,49279
51520,49920
" /> 
</g>
<g style="fill:#000000; fill-opacity:1.0; 
stroke:#000000; stroke-width:680; stroke-opacity:1; 
stroke-linecap:round; stroke-linejoin:round;">
</g>
<g style="fill:#000000; fill-opacity:0.0; 
stroke:#000000; stroke-width:680; stroke-opacity:1; 
stroke-linecap:round; stroke-linejoin:round;">
<path d="M51200 48600
L51200 48600
" />
<path d="M52200 49600
L52200 49600
" />
<path d="M52200 48600
L52200 48600
" />
<path d="M53200 49600
L53200 49600
" />
<path d="M53200 48600
L53200 48600
" />
<path d="M54200 49600
L54200 49600
" />
<path d="M54200 48600
L54200 48600
" />
<path d="M55200 49600
L55200 49600
" />
<path d="M55200 48600
L55200 48600
" />
</g>
<g style="fill:#000000; fill-opacity:0.0; 
stroke:#000000; stroke-width:39.3701; stroke-opacity:1; 
stroke-linecap:round; stroke-linejoin:round;">
</g>
<g style="fill:#000000; fill-opacity:1.0; 
stroke:#000000; stroke-width:39.3701; stroke-opacity:1; 
stroke-linecap:round; stroke-linejoin:round;">
<circle cx="38200" cy="49100" r="925.315" /> 
<polyline style="fill-rule:evenodd;"
points="39125,47625
37274,47625
37274,45774
39125,45774
39125,47625
" /> 
<circle cx="40200" cy="48200" r="925.315" /> 
<polyline style="fill-rule:evenodd;"
points="63619,34970
63619,34329
64380,34329
64380,34970
63619,34970
" /> 
</g>
<g style="fill:#000000; fill-opacity:1.0; 
stroke:#000000; stroke-width:680; stroke-opacity:1; 
stroke-linecap:round; stroke-linejoin:round;">
</g>
<g style="fill:#000000; fill-opacity:0.0; 
stroke:#000000; stroke-width:680; stroke-opacity:1; 
stroke-linecap:round; stroke-linejoin:round;">
<path d="M63940 35650
L64060 35650
" />
<path d="M63940 36650
L64060 36650
" />
</g>
<g style="fill:#000000; fill-opacity:0.0; 
stroke:#000000; stroke-width:39.3701; stroke-opacity:1; 
stroke-linecap:round; stroke-linejoin:round;">
</g>
<g style="fill:#000000; fill-opacity:1.0; 
stroke:#000000; stroke-width:39.3701; stroke-opacity:1; 
stroke-linecap:round; stroke-linejoin:round;">
<polyline style="fill-rule:evenodd;"
points="64619,34970
64619,34329
65380,34329
65380,34970
64619,34970
" /> 
</g>
<g style="fill:#000000; fill-opacity:1.0; 
stroke:#000000; stroke-width:680; stroke-opacity:1; 
stroke-linecap:round; stroke-linejoin:round;">
</g>
<g style="fill:#000000; fill-opacity:0.0; 
stroke:#000000; stroke-width:680; stroke-opacity:1; 
stroke-linecap:round; stroke-linejoin:round;">
<path d="M64940 35650
L65060 35650
" />
<path d="M64940 36650
L65060 36650
" />
</g>
<g style="fill:#000000; fill-opacity:0.0; 
stroke:#000000; stroke-width:39.3701; stroke-opacity:1; 
stroke-linecap:round; stroke-linejoin:round;">
</g>
<g style="fill:#000000; fill-opacity:1.0; 
stroke:#000000; stroke-width:39.3701; stroke-opacity:1; 
stroke-linecap:round; stroke-linejoin:round;">
<polyline style="fill-rule:evenodd;"
points="65619,34970
65619,34329
66380,34329
66380,34970
65619,34970
" /> 
</g>
<g style="fill:#000000; fill-opacity:1.0; 
stroke:#000000; stroke-width:680; stroke-opacity:1; 
stroke-linecap:round; stroke-linejoin:round;">
</g>
<g style="fill:#000000; fill-opacity:0.0; 
stroke:#000000; stroke-width:680; stroke-opacity:1; 
stroke-linecap:round; stroke-linejoin:round;">
<path d="M65940 35650
L66060 35650
" />
<path d="M65940 36650
L66060 36650
" />
</g>
<g style="fill:#000000; fill-opacity:0.0; 
stroke:#000000; stroke-width:39.3701; stroke-opacity:1; 
stroke-linecap:round; stroke-linejoin:round;">
</g>
<g style="fill:#000000; fill-opacity:1.0; 
stroke:#000000; stroke-width:39.3701; stroke-opacity:1; 
stroke-linecap:round; stroke-linejoin:round;">
<polyline style="fill-rule:evenodd;"
points="62611,34965
62611,34325
63372,34325
63372,34965
62611,34965
" /> 
</g>
<g style="fill:#000000; fill-opacity:1.0; 
stroke:#000000; stroke-width:680; stroke-opacity:1; 
stroke-linecap:round; stroke-linejoin:round;">
</g>
<g style="fill:#000000; fill-opacity:0.0; 
stroke:#000000; stroke-width:680; stroke-opacity:1; 
stroke-linecap:round; stroke-linejoin:round;">
<path d="M62932 35645
L63052 35645
" />
<path d="M62932 36645
L63052 36645
" />
</g>
<g style="fill:#000000; fill-opacity:0.0; 
stroke:#000000; stroke-width:39.3701; stroke-opacity:1; 
stroke-linecap:round; stroke-linejoin:round;">
</g>
<g style="fill:#000000; fill-opacity:1.0; 
stroke:#000000; stroke-width:39.3701; stroke-opacity:1; 
stroke-linecap:round; stroke-linejoin:round;">
<circle cx="37750" cy="30250" r="570.866" /> 
<circle cx="68750" cy="30000" r="570.866" /> 
<circle cx="39500" cy="44500" r="570.866" /> 
<circle cx="68897.6" cy="49212.6" r="570.866" /> 
<circle cx="46850" cy="28550" r="39.3701" /> 
<circle cx="47000" cy="28550" r="39.3701" /> 
<circle cx="47150" cy="28550" r="39.3701" /> 
<circle cx="47300" cy="28550" r="39.3701" /> 
<polyline style="fill-rule:evenodd;"
points="40084,31028
39443,31028
39443,30388
40084,30388
40084,31028
" /> 
</g>
<g style="fill:#000000; fill-opacity:1.0; 
stroke:#000000; stroke-width:680; stroke-opacity:1; 
stroke-linecap:round; stroke-linejoin:round;">
</g>
<g style="fill:#000000; fill-opacity:0.0; 
stroke:#000000; stroke-width:680; stroke-opacity:1; 
stroke-linecap:round; stroke-linejoin:round;">
<path d="M39763 29708
L39763 29708
" />
<path d="M40763 30708
L40763 30708
" />
<path d="M40763 29708
L40763 29708
" />
<path d="M41763 30708
L41763 30708
" />
<path d="M41763 29708
L41763 29708
" />
<path d="M42763 30708
L42763 30708
" />
<path d="M42763 29708
L42763 29708
" />
<path d="M43763 30708
L43763 30708
" />
<path d="M43763 29708
L43763 29708
" />
<path d="M44763 30708
L44763 30708
" />
<path d="M44763 29708
L44763 29708
" />
<path d="M45763 30708
L45763 30708
" />
<path d="M45763 29708
L45763 29708
" />
<path d="M46763 30708
L46763 30708
" />
<path d="M46763 29708
L46763 29708
" />
<path d="M47763 30708
L47763 30708
" />
<path d="M47763 29708
L47763 29708
" />
<path d="M48763 30708
L48763 30708
" />
<path d="M48763 29708
L48763 29708
" />
<path d="M49763 30708
L49763 30708
" />
<path d="M49763 29708
L49763 29708
" />
<path d="M50763 30708
L50763 30708
" />
<path d="M50763 29708
L50763 29708
" />
<path d="M51763 30708
L51763 30708
" />
<path d="M51763 29708
L51763 29708
" />
<path d="M52763 30708
L52763 30708
" />
<path d="M52763 29708
L52763 29708
" />
<path d="M53763 30708
L53763 30708
" />
<path d="M53763 29708
L53763 29708
" />
<path d="M54763 30708
L54763 30708
" />
<path d="M54763 29708
L54763 29708
" />
<path d="M55763 30708
L55763 30708
" />
<path d="M55763 29708
L55763 29708
" />
<path d="M56763 30708
L56763 30708
" />
<path d="M56763 29708
L56763 29708
" />
<path d="M57763 30708
L57763 30708
" />
<path d="M57763 29708
L57763 29708
" />
<path d="M58763 30708
L58763 30708
" />
<path d="M58763 29708
L58763 29708
" />
</g>
<g style="fill:#000000; fill-opacity:0.0; 
stroke:#000000; stroke-width:39.3701; stroke-opacity:1; 
stroke-linecap:round; stroke-linejoin:round;">
</g>
<g style="fill:#000000; fill-opacity:1.0; 
stroke:#000000; stroke-width:39.3701; stroke-opacity:1; 
stroke-linecap:round; stroke-linejoin:round;">
<circle cx="45669.3" cy="35629.9" r="155.315" /> 
<circle cx="43208.7" cy="40255.9" r="155.315" /> 
<circle cx="43208.7" cy="42913.4" r="155.315" /> 
<circle cx="50196.9" cy="43503.9" r="155.315" /> 
<circle cx="43897.6" cy="43503.9" r="155.315" /> 
<circle cx="44192.9" cy="40748" r="155.315" /> 
<circle cx="45275.6" cy="40649.6" r="155.315" /> 
<circle cx="56200.8" cy="46850.4" r="155.315" /> 
<circle cx="47244.1" cy="47637.8" r="155.315" /> 
</g>
<g style="fill:#000000; fill-opacity:1.0; 
stroke:#000000; stroke-width:100; stroke-opacity:1; 
stroke-linecap:round; stroke-linejoin:round;">
</g>
<g style="fill:#000000; fill-opacity:0.0; 
stroke:#000000; stroke-width:100; stroke-opacity:1; 
stroke-linecap:round; stroke-linejoin:round;">
<path d="M55200 48600
L55200 48700
" />
</g>
<g style="fill:#000000; fill-opacity:0.0; 
stroke:#000000; stroke-width:433.071; stroke-opacity:1; 
stroke-linecap:round; stroke-linejoin:round;">
<path d="M38200 43099
L38200 46700
" />
<path d="M45669 35629
L38200 43099
" />
</g>
<g style="fill:#000000; fill-opacity:0.0; 
stroke:#000000; stroke-width:100; stroke-opacity:1; 
stroke-linecap:round; stroke-linejoin:round;">
<path d="M66535 35645
L68322 35645
" />
<path d="M69192 47007
L69673 47488
" />
<path d="M69192 36515
L69192 47007
" />
<path d="M68322 35645
L69192 36515
" />
</g>
<g style="fill:#000000; fill-opacity:0.0; 
stroke:#000000; stroke-width:433.071; stroke-opacity:1; 
stroke-linecap:round; stroke-linejoin:round;">
<path d="M65354 35645
L66535 35645
" />
<path d="M64173 35645
L65354 35645
" />
<path d="M62992 35645
L64173 35645
" />
</g>
<g style="fill:#000000; fill-opacity:0.0; 
stroke:#000000; stroke-width:100; stroke-opacity:1; 
stroke-linecap:round; stroke-linejoin:round;">
<path d="M64673 41488
L64673 42610
" />
<path d="M57289 49600
L55200 49600
" />
<path d="M57677 49212
L57289 49600
" />
<path d="M57677 44881
L57677 49212
" />
<path d="M59251 43307
L57677 44881
" />
<path d="M63976 43307
L59251 43307
" />
<path d="M64673 42610
L63976 43307
" />
</g>
<g style="fill:#000000; fill-opacity:0.0; 
stroke:#000000; stroke-width:60; stroke-opacity:1; 
stroke-linecap:round; stroke-linejoin:round;">
<path d="M46763 29708
L46763 29811
" />
<path d="M46763 29811
L46259 30314
" />
<path d="M46259 30314
L46259 37204
" />
<path d="M46259 37204
L43208 40255
" />
<path d="M43208 42913
L43897 42913
" />
</g>
<g style="fill:#000000; fill-opacity:0.0; 
stroke:#000000; stroke-width:100; stroke-opacity:1; 
stroke-linecap:round; stroke-linejoin:round;">
<path d="M63673 41488
L63673 42232
" />
<path d="M43200 43611
L43200 45100
" />
<path d="M43897 42913
L43200 43611
" />
<path d="M62992 42913
L43897 42913
" />
<path d="M63673 42232
L62992 42913
" />
</g>
<g style="fill:#000000; fill-opacity:0.0; 
stroke:#000000; stroke-width:60; stroke-opacity:1; 
stroke-linecap:round; stroke-linejoin:round;">
<path d="M47763 29708
L47763 29751
" />
<path d="M47763 29751
L47244 30271
" />
<path d="M47244 30271
L47244 37007
" />
<path d="M47244 37007
L42125 42125
" />
<path d="M42125 42125
L42125 42519
" />
</g>
<g style="fill:#000000; fill-opacity:0.0; 
stroke:#000000; stroke-width:100; stroke-opacity:1; 
stroke-linecap:round; stroke-linejoin:round;">
<path d="M60673 41488
L60673 42082
" />
<path d="M41200 43445
L41200 45100
" />
<path d="M42125 42519
L41200 43445
" />
<path d="M60236 42519
L42125 42519
" />
<path d="M60673 42082
L60236 42519
" />
</g>
<g style="fill:#000000; fill-opacity:0.0; 
stroke:#000000; stroke-width:60; stroke-opacity:1; 
stroke-linecap:round; stroke-linejoin:round;">
<path d="M50763 29708
L50763 29799
" />
<path d="M50763 29799
L51279 30314
" />
<path d="M51279 30314
L51279 31889
" />
<path d="M51279 31889
L59673 40283
" />
<path d="M59673 40283
L59673 41488
" />
</g>
<g style="fill:#000000; fill-opacity:0.0; 
stroke:#000000; stroke-width:100; stroke-opacity:1; 
stroke-linecap:round; stroke-linejoin:round;">
<path d="M50196 43503
L43897 43503
" />
<path d="M58673 47488
L58673 44968
" />
<path d="M62992 37401
L62992 36645
" />
<path d="M65157 39566
L62992 37401
" />
<path d="M65157 42913
L65157 39566
" />
<path d="M64370 43700
L65157 42913
" />
<path d="M59940 43700
L64370 43700
" />
<path d="M58673 44968
L59940 43700
" />
</g>
<g style="fill:#000000; fill-opacity:0.0; 
stroke:#000000; stroke-width:60; stroke-opacity:1; 
stroke-linecap:round; stroke-linejoin:round;">
<path d="M48763 36177
L48763 30708
" />
<path d="M44192 40748
L48763 36177
" />
</g>
<g style="fill:#000000; fill-opacity:0.0; 
stroke:#000000; stroke-width:100; stroke-opacity:1; 
stroke-linecap:round; stroke-linejoin:round;">
<path d="M59673 47488
L59673 49185
" />
<path d="M44207 48440
L44207 45182
" />
<path d="M45964 50196
L44207 48440
" />
<path d="M58661 50196
L45964 50196
" />
<path d="M59673 49185
L58661 50196
" />
</g>
<g style="fill:#000000; fill-opacity:0.0; 
stroke:#000000; stroke-width:60; stroke-opacity:1; 
stroke-linecap:round; stroke-linejoin:round;">
<path d="M50763 30708
L50763 35161
" />
<path d="M50763 35161
L45275 40649
" />
</g>
<g style="fill:#000000; fill-opacity:0.0; 
stroke:#000000; stroke-width:100; stroke-opacity:1; 
stroke-linecap:round; stroke-linejoin:round;">
<path d="M56200 46850
L45866 46850
" />
<path d="M45866 46850
L45200 46184
" />
<path d="M45200 46184
L45200 45100
" />
<path d="M54200 48600
L54300 48600
" />
<path d="M53200 48600
L53200 48300
" />
<path d="M52200 48600
L52200 48500
" />
<path d="M51200 48600
L48206 48600
" />
<path d="M48206 48600
L47244 47637
" />
<path d="M46200 45100
L47200 45100
" />
</g>
<g style="fill:#000000; fill-opacity:1.0; 
stroke:#000000; stroke-width:100; stroke-opacity:1; 
stroke-linecap:round; stroke-linejoin:round;">
<polyline style="fill-rule:evenodd;"
points="54257,49650
54250,49650
54250,49657
54150,49657
54150,49650
53725,49650
53674,49650
53250,49650
53250,49657
53150,49657
53150,49650
53142,49650
53142,49550
53150,49550
53150,49542
53250,49542
53250,49550
53674,49550
53725,49550
54150,49550
54150,49542
54250,49542
54250,49550
54257,49550
54257,49650
" /> 
<polyline style="fill-rule:evenodd;"
points="58921,43213
57465,44669
57400,44767
57377,44881
57377,49088
57165,49300
55703,49300
55617,49171
55510,49100
55675,48949
55772,48741
55772,48458
55675,48250
55505,48095
55341,48027
55250,48074
55250,48550
55725,48550
55772,48458
55772,48741
55725,48650
55250,48650
55250,48657
55150,48657
55150,48650
55142,48650
55142,48550
55150,48550
55150,48074
55058,48027
54894,48095
54724,48250
54702,48298
54617,48171
54425,48043
54200,47998
53974,48043
53782,48171
53700,48295
53617,48171
53425,48043
53200,47998
52974,48043
52782,48171
52700,48295
52617,48171
52425,48043
52200,47998
51974,48043
51782,48171
51700,48295
51617,48171
51425,48043
51200,47998
50974,48043
50782,48171
50696,48300
48330,48300
47669,47638
47669,47553
47604,47397
47485,47277
47329,47212
47159,47212
47003,47277
46884,47396
46819,47552
46819,47721
46883,47878
47003,47997
47159,48062
47244,48062
47994,48812
48091,48877
48091,48877
48206,48900
50696,48900
50777,49021
50764,49023
50680,49078
50624,49161
50605,49260
50605,49896
46088,49896
44507,48315
44507,45755
44572,45728
44745,45555
44834,45645
44900,45672
44900,46184
44922,46299
44987,46396
45654,47062
45654,47062
45751,47127
45866,47150
55899,47150
55959,47210
56115,47275
56284,47275
56441,47210
56560,47091
56625,46935
56625,46766
56561,46609
56441,46490
56285,46425
56116,46425
55960,46489
55899,46550
48847,46550
48847,45606
48847,45506
48847,45275
48847,45050
48847,44819
48847,44719
48809,44627
48739,44557
48647,44519
48316,44519
48253,44581
48253,45112
48785,45112
48847,45050
48847,45275
48785,45212
48253,45212
48253,45744
48316,45806
48647,45806
48739,45768
48809,45698
48847,45606
48847,46550
45990,46550
45500,46059
45500,45672
45564,45646
45667,45542
45669,45546
45850,45728
46087,45826
46343,45826
46579,45728
46749,45559
46834,45645
47071,45743
47327,45743
47564,45646
47572,45637
47598,45698
47668,45768
47760,45806
48091,45806
48153,45744
48153,45212
48146,45212
48146,45112
48153,45112
48153,44581
48091,44519
47760,44519
47668,44557
47618,44607
47565,44554
47328,44456
47072,44456
46835,44553
46666,44723
46580,44637
46344,44539
46088,44538
45851,44636
45747,44740
45746,44735
45565,44554
45328,44456
45072,44456
44835,44553
44662,44726
44572,44637
44336,44539
44080,44538
43843,44636
43745,44735
43565,44554
43500,44527
43500,43735
43523,43711
43537,43744
43656,43864
43812,43928
43981,43929
44138,43864
44198,43803
49895,43803
49955,43864
50111,43928
50281,43929
50437,43864
50556,43744
50621,43588
50621,43419
50557,43263
50507,43213
58921,43213
" /> 
<polyline style="fill-rule:evenodd;"
points="69931,30592
69930,30600
69930,40783
69590,40783
69590,29833
69463,29524
69226,29287
68917,29159
68583,29159
68274,29287
68037,29523
67909,29832
67909,30166
68037,30475
68273,30712
68582,30840
68916,30840
69225,30713
69462,30476
69590,30167
69590,29833
69590,40783
69492,40783
69492,36515
69470,36400
69470,36400
69405,36303
68534,35433
68437,35368
68322,35345
66885,35345
66865,35315
66713,35214
66559,35183
66611,35131
66650,35039
66650,34940
66650,34762
66650,34537
66650,34359
66650,34260
66611,34168
66541,34098
66449,34060
66112,34060
66050,34122
66050,34600
66587,34600
66650,34537
66650,34762
66587,34700
66050,34700
66050,34707
65950,34707
65950,34700
65950,34600
65950,34122
65887,34060
65550,34060
65500,34080
65449,34060
65112,34060
65050,34122
65050,34600
65412,34600
65587,34600
65950,34600
65950,34700
65587,34700
65412,34700
65050,34700
65050,34707
64950,34707
64950,34700
64950,34600
64950,34122
64887,34060
64550,34060
64500,34080
64449,34060
64112,34060
64050,34122
64050,34600
64412,34600
64587,34600
64950,34600
64950,34700
64587,34700
64412,34700
64050,34700
64050,34707
63950,34707
63950,34700
63950,34600
63950,34122
63887,34060
63550,34060
63501,34080
63441,34055
63104,34055
63042,34118
63042,34595
63408,34595
63412,34600
63950,34600
63950,34700
63583,34700
63579,34695
63042,34695
63042,34703
62942,34703
62942,34695
62942,34595
62942,34118
62879,34055
62542,34055
62450,34093
62380,34164
62342,34255
62342,34355
62342,34533
62404,34595
62942,34595
62942,34695
62404,34695
62342,34758
62342,34935
62342,35035
62380,35127
62450,35197
62510,35222
62502,35228
62374,35419
62329,35645
62374,35871
62502,36062
62626,36145
62502,36228
62374,36419
62329,36645
62374,36871
62502,37062
62692,37189
62692,37401
62714,37516
62779,37613
64857,39691
64857,40811
64673,40774
64458,40817
64277,40938
64173,41094
64069,40938
63887,40817
63673,40774
63458,40817
63277,40938
63173,41094
63069,40938
62887,40817
62673,40774
62458,40817
62277,40938
62173,41094
62069,40938
61887,40817
61673,40774
61458,40817
61421,40842
61421,39213
61421,30158
61301,29867
61078,29644
60788,29523
60473,29523
60182,29643
59959,29866
59838,30156
59838,30471
59958,30762
60181,30985
60471,31106
60786,31106
61077,30986
61300,30763
61421,30473
61421,30158
61421,39213
61301,38922
61078,38699
60788,38578
60473,38578
60182,38698
59959,38921
59838,39211
59838,39526
59958,39817
60181,40040
60471,40161
60786,40161
61077,40041
61300,39818
61421,39528
61421,39213
61421,40842
61277,40938
61173,41094
61069,40938
60887,40817
60673,40774
60458,40817
60277,40938
60173,41094
60069,40938
59953,40861
59953,40283
59935,40194
59931,40176
59931,40176
59871,40085
51559,31773
51559,31255
51622,31281
51713,31233
51713,30758
51705,30758
51705,30658
51713,30658
51713,30650
51813,30650
51813,30658
51821,30658
51821,30758
51813,30758
51813,31233
51905,31281
52068,31213
52238,31058
52261,31010
52346,31137
52537,31265
52763,31310
52989,31265
53180,31137
53263,31013
53346,31137
53537,31265
53763,31310
53989,31265
54180,31137
54263,31013
54346,31137
54537,31265
54763,31310
54989,31265
55180,31137
55263,31013
55346,31137
55537,31265
55763,31310
55989,31265
56180,31137
56263,31013
56346,31137
56537,31265
56763,31310
56989,31265
57180,31137
57263,31013
57346,31137
57537,31265
57763,31310
57989,31265
58180,31137
58263,31013
58346,31137
58537,31265
58763,31310
58989,31265
59180,31137
59308,30946
59353,30720
59353,30697
59308,30471
59180,30279
59074,30208
59180,30137
59308,29946
59353,29720
59353,29697
59308,29471
59180,29279
58989,29152
58763,29107
58537,29152
58346,29279
58263,29403
58180,29279
57989,29152
57763,29107
57537,29152
57346,29279
57263,29403
57180,29279
56989,29152
56763,29107
56537,29152
56346,29279
56263,29403
56180,29279
55989,29152
55763,29107
55537,29152
55346,29279
55263,29403
55180,29279
54989,29152
54763,29107
54537,29152
54346,29279
54263,29403
54180,29279
53989,29152
53763,29107
53537,29152
53346,29279
53263,29403
53180,29279
52989,29152
52763,29107
52537,29152
52346,29279
52263,29403
52180,29279
51989,29152
51763,29107
51537,29152
51346,29279
51263,29403
51180,29279
50989,29152
50763,29107
50537,29152
50346,29279
50263,29403
50180,29279
49989,29152
49763,29107
49537,29152
49346,29279
49263,29403
49180,29279
48989,29152
48763,29107
48537,29152
48346,29279
48263,29403
48180,29279
47989,29152
47763,29107
47537,29152
47346,29279
47263,29403
47180,29279
46989,29152
46763,29107
46537,29152
46346,29279
46263,29403
46180,29279
45989,29152
45763,29107
45537,29152
45346,29279
45263,29403
45180,29279
44989,29152
44763,29107
44537,29152
44346,29279
44263,29403
44180,29279
43989,29152
43763,29107
43537,29152
43346,29279
43263,29403
43180,29279
42989,29152
42763,29107
42537,29152
42346,29279
42263,29403
42180,29279
41989,29152
41763,29107
41537,29152
41346,29279
41263,29403
41180,29279
40989,29152
40763,29107
40537,29152
40346,29279
40263,29403
40180,29279
39989,29152
39763,29107
39537,29152
39346,29279
39218,29471
39173,29697
39173,29720
39218,29946
39341,30129
39328,30132
39244,30187
39188,30270
39168,30368
39168,31048
39187,31143
39242,31227
39325,31283
39423,31303
40103,31303
40199,31285
40282,31230
40338,31146
40342,31130
40346,31137
40537,31265
40763,31310
40989,31265
41180,31137
41263,31013
41346,31137
41537,31265
41763,31310
41989,31265
42180,31137
42263,31013
42346,31137
42537,31265
42763,31310
42989,31265
43180,31137
43263,31013
43346,31137
43537,31265
43763,31310
43989,31265
44180,31137
44263,31013
44346,31137
44537,31265
44763,31310
44989,31265
45180,31137
45263,31013
45346,31137
45537,31265
45763,31310
45979,31267
45979,35287
45847,35198
45669,35163
45490,35198
45339,35300
38590,42048
38590,30083
38463,29774
38226,29537
37917,29409
37583,29409
37274,29537
37037,29773
36909,30082
36909,30416
37037,30725
37273,30962
37582,31090
37916,31090
38225,30963
38462,30726
38590,30417
38590,30083
38590,42048
38586,42052
38586,39213
38466,38922
38244,38699
37953,38578
37638,38578
37347,38698
37124,38921
37004,39211
37003,39526
37124,39817
37346,40040
37637,40161
37951,40161
38242,40041
38465,39818
38586,39528
38586,39213
38586,42052
37870,42769
37768,42920
37733,43099
37733,43099
37733,45500
37255,45500
37159,45518
37075,45573
37019,45656
37000,45755
37000,47645
37018,47740
37073,47824
37156,47880
37255,47899
39031,47899
39004,47964
39005,48224
38981,48248
38875,48085
38435,47904
37960,47905
37524,48085
37418,48248
38200,49029
38205,49023
38276,49094
38270,49100
39051,49881
39214,49775
39395,49335
39394,49075
39418,49051
39524,49214
39964,49395
40439,49394
40875,49214
40981,49051
40200,48270
40194,48276
40123,48205
40129,48200
40123,48194
40194,48123
40200,48129
40981,47348
40875,47185
40435,47004
39960,47005
39524,47185
39418,47348
39399,47329
39399,45755
39381,45659
39326,45575
39243,45519
39145,45500
38666,45500
38666,44683
38787,44975
39023,45212
39332,45340
39666,45340
39975,45213
40212,44976
40340,44667
40340,44333
40213,44024
39976,43787
39667,43659
39333,43659
39024,43787
38787,44023
38666,44315
38666,43292
45979,35979
45979,37088
43237,39830
43124,39830
42968,39895
42848,40014
42783,40170
42783,40340
42848,40496
42967,40615
43123,40680
43175,40680
41927,41927
41867,42018
41845,42125
41845,42375
40987,43233
40922,43330
40900,43445
40900,44527
40835,44553
40654,44734
40556,44971
40556,45227
40653,45464
40834,45645
41071,45743
41327,45743
41564,45646
41658,45551
41834,45728
42071,45826
42327,45826
42564,45728
42741,45551
42834,45645
43071,45743
43327,45743
43564,45646
43662,45547
43842,45728
43907,45755
43907,48440
43930,48554
43995,48652
45684,50340
41395,50340
41395,48435
41394,47960
41214,47524
41051,47418
40981,47489
40270,48200
41051,48981
41214,48875
41395,48435
41395,50340
40981,50340
38981,50340
38981,49951
38200,49170
38129,49241
38129,49100
37348,48318
37185,48424
37004,48864
37005,49339
37185,49775
37348,49881
38129,49100
38129,49241
37418,49951
37524,50114
37964,50295
38439,50294
38875,50114
38981,49951
38981,50340
38976,50340
38974,50340
38888,50340
38875,50346
38861,50340
38738,50340
38725,50346
38711,50340
38588,50340
38575,50346
38561,50340
38438,50340
38425,50346
38411,50340
38288,50340
38216,50370
38206,50366
37458,50181
36910,49777
36557,49194
36441,48432
36440,48430
36446,48400
36446,30554
36618,29858
37022,29310
37605,28957
38342,28845
38350,28846
46600,28846
46606,28845
46638,28859
46761,28859
46774,28853
46788,28859
46911,28859
46924,28853
46938,28859
47061,28859
47074,28853
47088,28859
47211,28859
47224,28853
47238,28859
47361,28859
47410,28838
47450,28846
68200,28846
68225,28841
68941,29018
69489,29422
69842,30005
69931,30592
" /> 
<polyline style="fill-rule:evenodd;"
points="69945,48676
69781,49341
69719,49425
69738,49380
69738,49046
69610,48737
69374,48500
69065,48372
68731,48371
68422,48499
68185,48735
68057,49044
68056,49379
68184,49688
68420,49924
68729,50053
69064,50053
69200,49996
68794,50242
68032,50358
67990,50373
67911,50340
67788,50340
67775,50346
67761,50340
67638,50340
67625,50346
67611,50340
67488,50340
67475,50346
67461,50340
67338,50340
67325,50346
67311,50340
67188,50340
67102,50376
67100,50374
66929,50340
58941,50340
59885,49397
59950,49299
59950,49299
59973,49185
59973,48102
60069,48037
60173,47882
60277,48037
60458,48159
60673,48201
60887,48159
61069,48037
61173,47882
61277,48037
61458,48159
61673,48201
61887,48159
62069,48037
62173,47882
62277,48037
62458,48159
62673,48201
62887,48159
63069,48037
63173,47882
63277,48037
63458,48159
63673,48201
63887,48159
64069,48037
64173,47882
64277,48037
64458,48159
64673,48201
64887,48159
65069,48037
65173,47882
65277,48037
65458,48159
65673,48201
65887,48159
66069,48037
66173,47882
66277,48037
66458,48159
66673,48201
66887,48159
67069,48037
67173,47882
67277,48037
67458,48159
67673,48201
67887,48159
68069,48037
68173,47882
68174,47888
68312,48059
68505,48164
68536,48171
68623,48123
68623,47538
68615,47538
68615,47438
68623,47438
68623,46853
68536,46805
68505,46811
68312,46916
68174,47087
68173,47094
68069,46938
67887,46817
67673,46774
67623,46784
67623,42123
67623,41538
67623,41438
67623,40853
67536,40805
67505,40811
67312,40916
67174,41087
67173,41093
67171,41087
67033,40916
66841,40811
66809,40805
66723,40853
66723,41438
67113,41438
67233,41438
67623,41438
67623,41538
67233,41538
67113,41538
66723,41538
66723,42123
66809,42171
66841,42164
67033,42059
67171,41888
67173,41882
67174,41888
67312,42059
67505,42164
67536,42171
67623,42123
67623,46784
67458,46817
67277,46938
67173,47094
67069,46938
66887,46817
66673,46774
66458,46817
66277,46938
66173,47094
66069,46938
65887,46817
65673,46774
65458,46817
65277,46938
65173,47094
65069,46938
64887,46817
64673,46774
64458,46817
64277,46938
64173,47094
64069,46938
63887,46817
63673,46774
63458,46817
63277,46938
63173,47094
63069,46938
62887,46817
62673,46774
62458,46817
62277,46938
62173,47094
62069,46938
61887,46817
61673,46774
61458,46817
61277,46938
61173,47094
61069,46938
60887,46817
60673,46774
60458,46817
60277,46938
60173,47094
60069,46938
59887,46817
59673,46774
59458,46817
59277,46938
59173,47094
59069,46938
58973,46874
58973,45092
60065,44000
64370,44000
64370,44000
64484,43977
64484,43977
64582,43912
65369,43125
65434,43028
65457,42913
65457,42913
65457,42158
65458,42159
65673,42201
65887,42159
66069,42037
66173,41882
66174,41888
66312,42059
66505,42164
66536,42171
66623,42123
66623,41538
66615,41538
66615,41438
66623,41438
66623,40853
66536,40805
66505,40811
66312,40916
66174,41087
66173,41094
66069,40938
65887,40817
65673,40774
65458,40817
65457,40818
65457,39566
65434,39452
65434,39452
65369,39354
63292,37277
63292,37189
63482,37062
63494,37044
63510,37067
63701,37195
63927,37240
64072,37240
64298,37195
64489,37067
64500,37052
64510,37067
64701,37195
64927,37240
65072,37240
65298,37195
65489,37067
65500,37052
65510,37067
65701,37195
65927,37240
66072,37240
66298,37195
66489,37067
66617,36875
66662,36650
66617,36424
66489,36232
66365,36150
66422,36112
66535,36112
66713,36076
66865,35975
66885,35945
68198,35945
68892,36640
68892,40820
68887,40817
68673,40774
68458,40817
68277,40938
68173,41094
68171,41087
68033,40916
67841,40811
67809,40805
67723,40853
67723,41438
67731,41438
67731,41538
67723,41538
67723,42123
67809,42171
67841,42164
68033,42059
68171,41888
68173,41882
68277,42037
68458,42159
68673,42201
68887,42159
68892,42155
68892,46839
68841,46811
68809,46805
68723,46853
68723,47438
68731,47438
68731,47538
68723,47538
68723,48123
68809,48171
68841,48164
69033,48059
69171,47888
69173,47882
69277,48037
69458,48159
69673,48201
69887,48159
69930,48130
69930,48600
69945,48676
" /> 
</g>
<g style="fill:#FFFFFF; fill-opacity:1.0; 
stroke:#FFFFFF; stroke-width:39.3701; stroke-opacity:1; 
stroke-linecap:round; stroke-linejoin:round;">
<circle cx="45669.3" cy="35629.9" r="105.315" /> 
<circle cx="43208.7" cy="40255.9" r="105.315" /> 
<circle cx="43208.7" cy="42913.4" r="105.315" /> 
<circle cx="50196.9" cy="43503.9" r="105.315" /> 
<circle cx="43897.6" cy="43503.9" r="105.315" /> 
<circle cx="44192.9" cy="40748" r="105.315" /> 
<circle cx="45275.6" cy="40649.6" r="105.315" /> 
<circle cx="56200.8" cy="46850.4" r="105.315" /> 
<circle cx="47244.1" cy="47637.8" r="105.315" /> 
<circle cx="60629.9" cy="39370.1" r="521.653" /> 
<circle cx="60629.9" cy="30315" r="521.653" /> 
<circle cx="37795.3" cy="39370.1" r="521.653" /> 
<circle cx="69673.2" cy="41488.2" r="140.315" /> 
<circle cx="68673.2" cy="41488.2" r="140.315" /> 
<circle cx="67673.2" cy="41488.2" r="140.315" /> 
<circle cx="66673.2" cy="41488.2" r="140.315" /> 
<circle cx="65673.2" cy="41488.2" r="140.315" /> 
<circle cx="64673.2" cy="41488.2" r="140.315" /> 
<circle cx="63673.2" cy="41488.2" r="140.315" /> 
<circle cx="62673.2" cy="41488.2" r="140.315" /> 
<circle cx="61673.2" cy="41488.2" r="140.315" /> 
<circle cx="60673.2" cy="41488.2" r="140.315" /> 
<circle cx="59673.2" cy="41488.2" r="140.315" /> 
<circle cx="58673.2" cy="41488.2" r="140.315" /> 
<circle cx="58673.2" cy="47488.2" r="140.315" /> 
<circle cx="59673.2" cy="47488.2" r="140.315" /> 
<circle cx="60673.2" cy="47488.2" r="140.315" /> 
<circle cx="61673.2" cy="47488.2" r="140.315" /> 
<circle cx="62673.2" cy="47488.2" r="140.315" /> 
<circle cx="63673.2" cy="47488.2" r="140.315" /> 
<circle cx="64673.2" cy="47488.2" r="140.315" /> 
<circle cx="65673.2" cy="47488.2" r="140.315" /> 
<circle cx="66673.2" cy="47488.2" r="140.315" /> 
<circle cx="67673.2" cy="47488.2" r="140.315" /> 
<circle cx="68673.2" cy="47488.2" r="140.315" /> 
<circle cx="69673.2" cy="47488.2" r="140.315" /> 
<circle cx="38950" cy="50650" r="39.3699" /> 
<circle cx="38800" cy="50650" r="39.3699" /> 
<circle cx="38650" cy="50650" r="39.3699" /> 
<circle cx="38500" cy="50650" r="39.3699" /> 
<circle cx="38350" cy="50650" r="39.3699" /> 
<circle cx="67850" cy="50650" r="39.3699" /> 
<circle cx="67700" cy="50650" r="39.3699" /> 
<circle cx="67550" cy="50650" r="39.3699" /> 
<circle cx="67400" cy="50650" r="39.3699" /> 
<circle cx="67250" cy="50650" r="39.3699" /> 
<circle cx="46700" cy="28550" r="39.3699" /> 
<circle cx="41200" cy="45100" r="157.48" /> 
<circle cx="42200" cy="45182.7" r="177.165" /> 
<circle cx="43200" cy="45100" r="177.165" /> 
<circle cx="44207.9" cy="45182.7" r="177.165" /> 
<circle cx="45200" cy="45100" r="177.165" /> 
<circle cx="46215.7" cy="45182.7" r="177.165" /> 
<circle cx="47200" cy="45100" r="177.165" /> 
<circle cx="48203.9" cy="45163" r="177.165" /> 
<circle cx="51200" cy="49600" r="180.315" /> 
<circle cx="51200" cy="48600" r="180.315" /> 
<circle cx="52200" cy="49600" r="180.315" /> 
<circle cx="52200" cy="48600" r="180.315" /> 
<circle cx="53200" cy="49600" r="180.315" /> 
<circle cx="53200" cy="48600" r="180.315" /> 
<circle cx="54200" cy="49600" r="180.315" /> 
<circle cx="54200" cy="48600" r="180.315" /> 
<circle cx="55200" cy="49600" r="180.315" /> 
<circle cx="55200" cy="48600" r="180.315" /> 
</g>
<g style="fill:#FFFFFF; fill-opacity:1.0; 
stroke:#FFFFFF; stroke-width:400; stroke-opacity:1; 
stroke-linecap:round; stroke-linejoin:round;">
</g>
<g style="fill:#FFFFFF; fill-opacity:0.0; 
stroke:#FFFFFF; stroke-width:400; stroke-opacity:1; 
stroke-linecap:round; stroke-linejoin:round;">
<path d="M37900 49100
L38500 49100
" />
<path d="M37809 46700
L38590 46700
" />
<path d="M40200 48500
L40200 47900
" />
</g>
<g style="fill:#FFFFFF; fill-opacity:0.0; 
stroke:#FFFFFF; stroke-width:39.3701; stroke-opacity:1; 
stroke-linecap:round; stroke-linejoin:round;">
</g>
<g style="fill:#FFFFFF; fill-opacity:1.0; 
stroke:#FFFFFF; stroke-width:39.3701; stroke-opacity:1; 
stroke-linecap:round; stroke-linejoin:round;">
<circle cx="64000" cy="34650" r="180.315" /> 
<circle cx="64000" cy="35650" r="180.315" /> 
<circle cx="64000" cy="36650" r="180.315" /> 
<circle cx="65000" cy="34650" r="180.315" /> 
<circle cx="65000" cy="35650" r="180.315" /> 
<circle cx="65000" cy="36650" r="180.315" /> 
<circle cx="66000" cy="34650" r="180.315" /> 
<circle cx="66000" cy="35650" r="180.315" /> 
<circle cx="66000" cy="36650" r="180.315" /> 
<circle cx="62992.1" cy="34645.7" r="180.315" /> 
<circle cx="62992.1" cy="35645.7" r="180.315" /> 
<circle cx="62992.1" cy="36645.7" r="180.315" /> 
<circle cx="37750" cy="30250" r="570.866" /> 
<circle cx="68750" cy="30000" r="570.866" /> 
<circle cx="39500" cy="44500" r="570.866" /> 
<circle cx="68897.6" cy="49212.6" r="570.866" /> 
<circle cx="46850" cy="28550" r="39.3699" /> 
<circle cx="47000" cy="28550" r="39.3699" /> 
<circle cx="47150" cy="28550" r="39.3699" /> 
<circle cx="47300" cy="28550" r="39.3699" /> 
<circle cx="39763.8" cy="30708.7" r="180.315" /> 
<circle cx="39763.8" cy="29708.7" r="180.315" /> 
<circle cx="40763.8" cy="30708.7" r="180.315" /> 
<circle cx="40763.8" cy="29708.7" r="180.315" /> 
<circle cx="41763.8" cy="30708.7" r="180.315" /> 
<circle cx="41763.8" cy="29708.7" r="180.315" /> 
<circle cx="42763.8" cy="30708.7" r="180.315" /> 
<circle cx="42763.8" cy="29708.7" r="180.315" /> 
<circle cx="43763.8" cy="30708.7" r="180.315" /> 
<circle cx="43763.8" cy="29708.7" r="180.315" /> 
<circle cx="44763.8" cy="30708.7" r="180.315" /> 
<circle cx="44763.8" cy="29708.7" r="180.315" /> 
<circle cx="45763.8" cy="30708.7" r="180.315" /> 
<circle cx="45763.8" cy="29708.7" r="180.315" /> 
<circle cx="46763.8" cy="30708.7" r="180.315" /> 
<circle cx="46763.8" cy="29708.7" r="180.315" /> 
<circle cx="47763.8" cy="30708.7" r="180.315" /> 
<circle cx="47763.8" cy="29708.7" r="180.315" /> 
<circle cx="48763.8" cy="30708.7" r="180.315" /> 
<circle cx="48763.8" cy="29708.7" r="180.315" /> 
<circle cx="49763.8" cy="30708.7" r="180.315" /> 
<circle cx="49763.8" cy="29708.7" r="180.315" /> 
<circle cx="50763.8" cy="30708.7" r="180.315" /> 
<circle cx="50763.8" cy="29708.7" r="180.315" /> 
<circle cx="51763.8" cy="30708.7" r="180.315" /> 
<circle cx="51763.8" cy="29708.7" r="180.315" /> 
<circle cx="52763.8" cy="30708.7" r="180.315" /> 
<circle cx="52763.8" cy="29708.7" r="180.315" /> 
<circle cx="53763.8" cy="30708.7" r="180.315" /> 
<circle cx="53763.8" cy="29708.7" r="180.315" /> 
<circle cx="54763.8" cy="30708.7" r="180.315" /> 
<circle cx="54763.8" cy="29708.7" r="180.315" /> 
<circle cx="55763.8" cy="30708.7" r="180.315" /> 
<circle cx="55763.8" cy="29708.7" r="180.315" /> 
<circle cx="56763.8" cy="30708.7" r="180.315" /> 
<circle cx="56763.8" cy="29708.7" r="180.315" /> 
<circle cx="57763.8" cy="30708.7" r="180.315" /> 
<circle cx="57763.8" cy="29708.7" r="180.315" /> 
<circle cx="58763.8" cy="30708.7" r="180.315" /> 
<circle cx="58763.8" cy="29708.7" r="180.315" /> 
</g> 
</svg>
