<?xml version="1.0" standalone="no"?>
 <!DOCTYPE svg PUBLIC "-//W3C//DTD SVG 1.1//EN" 
 "http://www.w3.org/Graphics/SVG/1.1/DTD/svg11.dtd"> 
<svg xmlns="http://www.w3.org/2000/svg" version="1.1" 
    width="29.7002cm" height="21.0007cm" viewBox="0 0 116930 82680 ">
<title>SVG Picture created as brains-F_SilkS.svg date 2015/07/27 17:19:28 </title>
  <desc>Picture generated by PCBNEW </desc>
<g style="fill:#000000; fill-opacity:1;stroke:#000000; stroke-opacity:1;
stroke-linecap:round; stroke-linejoin:round; "
 transform="translate(0 0) scale(1 1)">
</g>
<g style="fill:#000000; fill-opacity:0.0; 
stroke:#000000; stroke-width:393.701; stroke-opacity:1; 
stroke-linecap:round; stroke-linejoin:round;">
<path d="M43400 50800
L39150 50800
" />
<path d="M36000 30500
L36000 48400
" />
<path d="M48000 50800
L67000 50800
" />
<path d="M48200 50350
L48000 50350
" />
<path d="M44500 48800
L44500 51300
" />
<path d="M44500 51350
L46900 51350
" />
<path d="M43300 50300
L43200 50300
" />
<path d="M48000 48800
L48000 50800
" />
<path d="M46900 48800
L48000 48800
" />
<path d="M46900 51350
L46900 48800
" />
<path d="M44500 51300
L44500 51350
" />
<path d="M43400 48800
L44500 48800
" />
<path d="M43400 50800
L43400 48800
" />
<path d="M68100 50800 A2202.27 2202.27 0.0 0 0 70400 48700 " />
<path d="M36000 48500 A2202.27 2202.27 0.0 0 0 38100 50800 " />
<path d="M68200 28400
L47450 28400
" />
<path d="M38350 28400
L46600 28400
" />
<path d="M38300 28400 A2202.27 2202.27 0.0 0 0 36000 30500 " />
<path d="M70400 30700 A2202.27 2202.27 0.0 0 0 68300 28400 " />
<path d="M70400 30600
L70400 48600
" />
</g>
<g style="fill:#000000; fill-opacity:0.0; 
stroke:#000000; stroke-width:118.11; stroke-opacity:1; 
stroke-linecap:round; stroke-linejoin:round;">
<path d="M52412 30917
L52215 30635
" />
<path d="M52075 30917
L52075 30326
L52300 30326
L52356 30354
L52384 30382
L52412 30439
L52412 30523
L52384 30579
L52356 30607
L52300 30635
L52075 30635
" />
<path d="M52890 30889
L52834 30917
L52721 30917
L52665 30889
L52637 30832
L52637 30607
L52665 30551
L52721 30523
L52834 30523
L52890 30551
L52918 30607
L52918 30664
L52637 30720
" />
<path d="M53424 30917
L53424 30326
" />
<path d="M53424 30889
L53368 30917
L53256 30917
L53199 30889
L53171 30860
L53143 30804
L53143 30635
L53171 30579
L53199 30551
L53256 30523
L53368 30523
L53424 30551
" />
<path d="M50706 31226
L50818 31226
L50875 31254
L50931 31310
L50959 31423
L50959 31620
L50931 31732
L50875 31789
L50818 31817
L50706 31817
L50650 31789
L50593 31732
L50565 31620
L50565 31423
L50593 31310
L50650 31254
L50706 31226
" />
<path d="M51212 31817
L51212 31423
" />
<path d="M51212 31535
L51240 31479
L51268 31451
L51325 31423
L51381 31423
" />
<path d="M51831 31817
L51831 31507
L51803 31451
L51746 31423
L51634 31423
L51578 31451
" />
<path d="M51831 31789
L51775 31817
L51634 31817
L51578 31789
L51550 31732
L51550 31676
L51578 31620
L51634 31592
L51775 31592
L51831 31564
" />
<path d="M52112 31423
L52112 31817
" />
<path d="M52112 31479
L52140 31451
L52196 31423
L52281 31423
L52337 31451
L52365 31507
L52365 31817
" />
<path d="M52899 31423
L52899 31901
L52871 31957
L52843 31985
L52787 32014
L52703 32014
L52646 31985
" />
<path d="M52899 31789
L52843 31817
L52731 31817
L52674 31789
L52646 31760
L52618 31704
L52618 31535
L52646 31479
L52674 31451
L52731 31423
L52843 31423
L52899 31451
" />
<path d="M53406 31789
L53349 31817
L53237 31817
L53181 31789
L53152 31732
L53152 31507
L53181 31451
L53237 31423
L53349 31423
L53406 31451
L53434 31507
L53434 31564
L53152 31620
" />
<path d="M67064 31967
L67064 31376
L67204 31376
L67289 31404
L67345 31460
L67373 31517
L67401 31629
L67401 31714
L67373 31826
L67345 31882
L67289 31939
L67204 31967
L67064 31967
" />
<path d="M67935 31376
L67654 31376
L67626 31657
L67654 31629
L67710 31601
L67851 31601
L67907 31629
L67935 31657
L67964 31714
L67964 31854
L67935 31910
L67907 31939
L67851 31967
L67710 31967
L67654 31939
L67626 31910
" />
<path d="M63064 31967
L63064 31376
L63204 31376
L63289 31404
L63345 31460
L63373 31517
L63401 31629
L63401 31714
L63373 31826
L63345 31882
L63289 31939
L63204 31967
L63064 31967
" />
<path d="M63907 31376
L63795 31376
L63739 31404
L63710 31432
L63654 31517
L63626 31629
L63626 31854
L63654 31910
L63682 31939
L63739 31967
L63851 31967
L63907 31939
L63935 31910
L63964 31854
L63964 31714
L63935 31657
L63907 31629
L63851 31601
L63739 31601
L63682 31629
L63654 31657
L63626 31714
" />
<path d="M59064 31967
L59064 31376
L59204 31376
L59289 31404
L59345 31460
L59373 31517
L59401 31629
L59401 31714
L59373 31826
L59345 31882
L59289 31939
L59204 31967
L59064 31967
" />
<path d="M59682 31967
L59795 31967
L59851 31939
L59879 31910
L59935 31826
L59964 31714
L59964 31489
L59935 31432
L59907 31404
L59851 31376
L59739 31376
L59682 31404
L59654 31432
L59626 31489
L59626 31629
L59654 31685
L59682 31714
L59739 31742
L59851 31742
L59907 31714
L59935 31685
L59964 31629
" />
<path d="M54932 31917
L54932 31326
L55073 31326
L55157 31354
L55214 31410
L55242 31467
L55270 31579
L55270 31664
L55242 31776
L55214 31832
L55157 31889
L55073 31917
L54932 31917
" />
<path d="M55832 31917
L55495 31917
" />
<path d="M55664 31917
L55664 31326
L55607 31410
L55551 31467
L55495 31495
" />
<path d="M56198 31326
L56254 31326
L56310 31354
L56338 31382
L56367 31439
L56395 31551
L56395 31692
L56367 31804
L56338 31860
L56310 31889
L56254 31917
L56198 31917
L56142 31889
L56114 31860
L56085 31804
L56057 31692
L56057 31551
L56085 31439
L56114 31382
L56142 31354
L56198 31326
" />
</g>
<g style="fill:#000000; fill-opacity:0.0; 
stroke:#000000; stroke-width:39.3701; stroke-opacity:1; 
stroke-linecap:round; stroke-linejoin:round;">
<path d="M70600 28300
L70600 28200
" />
</g>
<g style="fill:#000000; fill-opacity:0.0; 
stroke:#000000; stroke-width:98.4252; stroke-opacity:1; 
stroke-linecap:round; stroke-linejoin:round;">
<path d="M59856 35059
L60081 35059
" />
<path d="M59969 35453
L59969 35059
" />
<path d="M60212 35453
L60212 35059
" />
<path d="M60381 35453
L60381 35247
L60362 35209
L60325 35191
L60269 35191
L60231 35209
L60212 35228
" />
<path d="M60719 35434
L60681 35453
L60606 35453
L60569 35434
L60550 35397
L60550 35247
L60569 35209
L60606 35191
L60681 35191
L60719 35209
L60737 35247
L60737 35284
L60550 35322
" />
<path d="M61206 35453
L61206 35059
" />
<path d="M61206 35209
L61244 35191
L61319 35191
L61356 35209
L61375 35228
L61394 35266
L61394 35378
L61375 35416
L61356 35434
L61319 35453
L61244 35453
L61206 35434
" />
<path d="M61619 35453
L61581 35434
L61562 35416
L61544 35378
L61544 35266
L61562 35228
L61581 35209
L61619 35191
L61675 35191
L61712 35209
L61731 35228
L61750 35266
L61750 35378
L61731 35416
L61712 35434
L61675 35453
L61619 35453
" />
<path d="M62087 35453
L62087 35247
L62068 35209
L62031 35191
L61956 35191
L61918 35209
" />
<path d="M62087 35434
L62050 35453
L61956 35453
L61918 35434
L61900 35397
L61900 35359
L61918 35322
L61956 35303
L62050 35303
L62087 35284
" />
<path d="M62275 35453
L62275 35191
" />
<path d="M62275 35266
L62293 35228
L62312 35209
L62350 35191
L62387 35191
" />
<path d="M62687 35453
L62687 35059
" />
<path d="M62687 35434
L62650 35453
L62575 35453
L62537 35434
L62518 35416
L62500 35378
L62500 35266
L62518 35228
L62537 35209
L62575 35191
L62650 35191
L62687 35209
" />
<path d="M63343 35453
L63343 35247
L63325 35209
L63287 35191
L63212 35191
L63175 35209
" />
<path d="M63343 35434
L63306 35453
L63212 35453
L63175 35434
L63156 35397
L63156 35359
L63175 35322
L63212 35303
L63306 35303
L63343 35284
" />
<path d="M63531 35453
L63531 35059
" />
<path d="M63531 35209
L63568 35191
L63643 35191
L63681 35209
L63700 35228
L63718 35266
L63718 35378
L63700 35416
L63681 35434
L63643 35453
L63568 35453
L63531 35434
" />
<path d="M63943 35453
L63906 35434
L63887 35416
L63868 35378
L63868 35266
L63887 35228
L63906 35209
L63943 35191
L63999 35191
L64037 35209
L64056 35228
L64074 35266
L64074 35378
L64056 35416
L64037 35434
L63999 35453
L63943 35453
" />
<path d="M64206 35191
L64299 35453
L64393 35191
" />
<path d="M64693 35434
L64656 35453
L64581 35453
L64543 35434
L64524 35397
L64524 35247
L64543 35209
L64581 35191
L64656 35191
L64693 35209
L64712 35247
L64712 35284
L64524 35322
" />
<path d="M65124 35191
L65274 35191
" />
<path d="M65181 35059
L65181 35397
L65199 35434
L65237 35453
L65274 35453
" />
<path d="M65406 35453
L65406 35059
" />
<path d="M65574 35453
L65574 35247
L65556 35209
L65518 35191
L65462 35191
L65424 35209
L65406 35228
" />
<path d="M65762 35453
L65762 35191
" />
<path d="M65762 35059
L65743 35078
L65762 35097
L65781 35078
L65762 35059
L65762 35097
" />
<path d="M65930 35434
L65968 35453
L66043 35453
L66080 35434
L66099 35397
L66099 35378
L66080 35341
L66043 35322
L65987 35322
L65949 35303
L65930 35266
L65930 35247
L65949 35209
L65987 35191
L66043 35191
L66080 35209
" />
<path d="M66512 35191
L66662 35191
" />
<path d="M66568 35059
L66568 35397
L66587 35434
L66624 35453
L66662 35453
" />
<path d="M66943 35434
L66905 35453
L66830 35453
L66793 35434
L66774 35397
L66774 35247
L66793 35209
L66830 35191
L66905 35191
L66943 35209
L66962 35247
L66962 35284
L66774 35322
" />
<path d="M67093 35453
L67299 35191
" />
<path d="M67093 35191
L67299 35453
" />
<path d="M67393 35191
L67543 35191
" />
<path d="M67449 35059
L67449 35397
L67468 35434
L67505 35453
L67543 35453
" />
<path d="M59828 36103
L59828 35840
" />
<path d="M59828 35709
L59809 35728
L59828 35747
L59847 35728
L59828 35709
L59828 35747
" />
<path d="M59997 36084
L60034 36103
L60109 36103
L60147 36084
L60166 36047
L60166 36028
L60147 35990
L60109 35972
L60053 35972
L60016 35953
L59997 35915
L59997 35897
L60016 35859
L60053 35840
L60109 35840
L60147 35859
" />
<path d="M60634 36103
L60634 35709
" />
<path d="M60634 35859
L60672 35840
L60747 35840
L60784 35859
L60803 35878
L60822 35915
L60822 36028
L60803 36065
L60784 36084
L60747 36103
L60672 36103
L60634 36084
" />
<path d="M61159 36103
L61159 35897
L61140 35859
L61103 35840
L61028 35840
L60990 35859
" />
<path d="M61159 36084
L61122 36103
L61028 36103
L60990 36084
L60972 36047
L60972 36009
L60990 35972
L61028 35953
L61122 35953
L61159 35934
" />
<path d="M61328 36084
L61365 36103
L61440 36103
L61478 36084
L61497 36047
L61497 36028
L61478 35990
L61440 35972
L61384 35972
L61347 35953
L61328 35915
L61328 35897
L61347 35859
L61384 35840
L61440 35840
L61478 35859
" />
<path d="M61815 36084
L61778 36103
L61703 36103
L61665 36084
L61647 36047
L61647 35897
L61665 35859
L61703 35840
L61778 35840
L61815 35859
L61834 35897
L61834 35934
L61647 35972
" />
<path d="M62172 36103
L62172 35709
" />
<path d="M62172 36084
L62134 36103
L62059 36103
L62022 36084
L62003 36065
L61984 36028
L61984 35915
L62003 35878
L62022 35859
L62059 35840
L62134 35840
L62172 35859
" />
<path d="M62715 36103
L62678 36084
L62659 36065
L62640 36028
L62640 35915
L62659 35878
L62678 35859
L62715 35840
L62772 35840
L62809 35859
L62828 35878
L62847 35915
L62847 36028
L62828 36065
L62809 36084
L62772 36103
L62715 36103
" />
<path d="M63015 35840
L63015 36103
" />
<path d="M63015 35878
L63034 35859
L63071 35840
L63128 35840
L63165 35859
L63184 35897
L63184 36103
" />
<path d="M63615 35840
L63765 35840
" />
<path d="M63671 35709
L63671 36047
L63690 36084
L63728 36103
L63765 36103
" />
<path d="M63896 36103
L63896 35709
" />
<path d="M64065 36103
L64065 35897
L64046 35859
L64009 35840
L63953 35840
L63915 35859
L63896 35878
" />
<path d="M64403 36084
L64365 36103
L64290 36103
L64253 36084
L64234 36047
L64234 35897
L64253 35859
L64290 35840
L64365 35840
L64403 35859
L64421 35897
L64421 35934
L64234 35972
" />
<path d="M64890 36103
L64890 35709
L65040 35709
L65077 35728
L65096 35747
L65115 35784
L65115 35840
L65096 35878
L65077 35897
L65040 35915
L64890 35915
" />
<path d="M65284 36103
L65284 35840
" />
<path d="M65284 35915
L65302 35878
L65321 35859
L65359 35840
L65396 35840
" />
<path d="M65584 36103
L65546 36084
L65527 36065
L65509 36028
L65509 35915
L65527 35878
L65546 35859
L65584 35840
L65640 35840
L65677 35859
L65696 35878
L65715 35915
L65715 36028
L65696 36065
L65677 36084
L65640 36103
L65584 36103
" />
<path d="M66184 36103
L66184 35709
L66315 35990
L66446 35709
L66446 36103
" />
<path d="M66634 36103
L66634 35840
" />
<path d="M66634 35709
L66615 35728
L66634 35747
L66652 35728
L66634 35709
L66634 35747
" />
<path d="M66990 36084
L66952 36103
L66877 36103
L66840 36084
L66821 36065
L66802 36028
L66802 35915
L66821 35878
L66840 35859
L66877 35840
L66952 35840
L66990 35859
" />
<path d="M67158 36103
L67158 35840
" />
<path d="M67158 35915
L67177 35878
L67196 35859
L67233 35840
L67271 35840
" />
<path d="M67458 36103
L67421 36084
L67402 36065
L67383 36028
L67383 35915
L67402 35878
L67421 35859
L67458 35840
L67515 35840
L67552 35859
L67571 35878
L67590 35915
L67590 36028
L67571 36065
L67552 36084
L67515 36103
L67458 36103
" />
<path d="M60391 36752
L60391 36359
" />
<path d="M60391 36509
L60428 36490
L60503 36490
L60541 36509
L60559 36527
L60578 36565
L60578 36677
L60559 36715
L60541 36734
L60503 36752
L60428 36752
L60391 36734
" />
<path d="M60709 36490
L60803 36752
" />
<path d="M60897 36490
L60803 36752
L60766 36846
L60747 36865
L60709 36884
" />
<path d="M61328 36734
L61384 36752
L61478 36752
L61515 36734
L61534 36715
L61553 36677
L61553 36640
L61534 36602
L61515 36584
L61478 36565
L61403 36546
L61365 36527
L61347 36509
L61328 36471
L61328 36434
L61347 36396
L61365 36377
L61403 36359
L61497 36359
L61553 36377
" />
<path d="M61722 36490
L61722 36884
" />
<path d="M61722 36509
L61759 36490
L61834 36490
L61872 36509
L61890 36527
L61909 36565
L61909 36677
L61890 36715
L61872 36734
L61834 36752
L61759 36752
L61722 36734
" />
<path d="M62247 36752
L62247 36546
L62228 36509
L62190 36490
L62115 36490
L62078 36509
" />
<path d="M62247 36734
L62209 36752
L62115 36752
L62078 36734
L62059 36696
L62059 36659
L62078 36621
L62115 36602
L62209 36602
L62247 36584
" />
<path d="M62434 36752
L62434 36490
" />
<path d="M62434 36565
L62453 36527
L62472 36509
L62509 36490
L62547 36490
" />
<path d="M62678 36752
L62678 36359
" />
<path d="M62715 36602
L62828 36752
" />
<path d="M62828 36490
L62678 36640
" />
<path d="M62940 36490
L63090 36490
" />
<path d="M62996 36752
L62996 36415
L63015 36377
L63053 36359
L63090 36359
" />
<path d="M63390 36490
L63390 36752
" />
<path d="M63221 36490
L63221 36696
L63240 36734
L63278 36752
L63334 36752
L63371 36734
L63390 36715
" />
<path d="M63578 36490
L63578 36752
" />
<path d="M63578 36527
L63596 36509
L63634 36490
L63690 36490
L63728 36509
L63746 36546
L63746 36752
" />
<path d="M64234 36546
L64365 36546
" />
<path d="M64421 36752
L64234 36752
L64234 36359
L64421 36359
" />
<path d="M64646 36752
L64609 36734
L64590 36696
L64590 36359
" />
<path d="M64946 36734
L64909 36752
L64834 36752
L64796 36734
L64778 36696
L64778 36546
L64796 36509
L64834 36490
L64909 36490
L64946 36509
L64965 36546
L64965 36584
L64778 36621
" />
<path d="M65302 36734
L65265 36752
L65190 36752
L65152 36734
L65134 36715
L65115 36677
L65115 36565
L65134 36527
L65152 36509
L65190 36490
L65265 36490
L65302 36509
" />
<path d="M65415 36490
L65565 36490
" />
<path d="M65471 36359
L65471 36696
L65490 36734
L65527 36752
L65565 36752
" />
<path d="M65696 36752
L65696 36490
" />
<path d="M65696 36565
L65715 36527
L65734 36509
L65771 36490
L65809 36490
" />
<path d="M65996 36752
L65959 36734
L65940 36715
L65921 36677
L65921 36565
L65940 36527
L65959 36509
L65996 36490
L66052 36490
L66090 36509
L66109 36527
L66127 36565
L66127 36677
L66109 36715
L66090 36734
L66052 36752
L65996 36752
" />
<path d="M66296 36490
L66296 36752
" />
<path d="M66296 36527
L66315 36509
L66352 36490
L66409 36490
L66446 36509
L66465 36546
L66465 36752
" />
<path d="M66652 36752
L66652 36490
" />
<path d="M66652 36359
L66634 36377
L66652 36396
L66671 36377
L66652 36359
L66652 36396
" />
<path d="M67008 36734
L66971 36752
L66896 36752
L66858 36734
L66840 36715
L66821 36677
L66821 36565
L66840 36527
L66858 36509
L66896 36490
L66971 36490
L67008 36509
" />
<path d="M67158 36734
L67196 36752
L67271 36752
L67308 36734
L67327 36696
L67327 36677
L67308 36640
L67271 36621
L67215 36621
L67177 36602
L67158 36565
L67158 36546
L67177 36509
L67215 36490
L67271 36490
L67308 36509
" />
<path d="M58600 37140
L58675 37402
L58750 37215
L58825 37402
L58900 37140
" />
<path d="M59013 37140
L59088 37402
L59163 37215
L59238 37402
L59313 37140
" />
<path d="M59425 37140
L59500 37402
L59575 37215
L59650 37402
L59725 37140
" />
<path d="M59875 37365
L59894 37383
L59875 37402
L59856 37383
L59875 37365
L59875 37402
" />
<path d="M60044 37383
L60081 37402
L60156 37402
L60194 37383
L60212 37346
L60212 37327
L60194 37290
L60156 37271
L60100 37271
L60062 37252
L60044 37215
L60044 37196
L60062 37158
L60100 37140
L60156 37140
L60194 37158
" />
<path d="M60381 37140
L60381 37533
" />
<path d="M60381 37158
L60419 37140
L60494 37140
L60531 37158
L60550 37177
L60569 37215
L60569 37327
L60550 37365
L60531 37383
L60494 37402
L60419 37402
L60381 37383
" />
<path d="M60906 37402
L60906 37196
L60887 37158
L60850 37140
L60775 37140
L60737 37158
" />
<path d="M60906 37383
L60869 37402
L60775 37402
L60737 37383
L60719 37346
L60719 37308
L60737 37271
L60775 37252
L60869 37252
L60906 37233
" />
<path d="M61094 37402
L61094 37140
" />
<path d="M61094 37215
L61112 37177
L61131 37158
L61169 37140
L61206 37140
" />
<path d="M61337 37402
L61337 37008
" />
<path d="M61375 37252
L61487 37402
" />
<path d="M61487 37140
L61337 37290
" />
<path d="M61600 37140
L61750 37140
" />
<path d="M61656 37402
L61656 37065
L61675 37027
L61712 37008
L61750 37008
" />
<path d="M62050 37140
L62050 37402
" />
<path d="M61881 37140
L61881 37346
L61900 37383
L61937 37402
L61993 37402
L62031 37383
L62050 37365
" />
<path d="M62237 37140
L62237 37402
" />
<path d="M62237 37177
L62256 37158
L62293 37140
L62350 37140
L62387 37158
L62406 37196
L62406 37402
" />
<path d="M62593 37365
L62612 37383
L62593 37402
L62575 37383
L62593 37365
L62593 37402
" />
<path d="M62950 37383
L62912 37402
L62837 37402
L62800 37383
L62781 37365
L62762 37327
L62762 37215
L62781 37177
L62800 37158
L62837 37140
L62912 37140
L62950 37158
" />
<path d="M63175 37402
L63137 37383
L63118 37365
L63100 37327
L63100 37215
L63118 37177
L63137 37158
L63175 37140
L63231 37140
L63268 37158
L63287 37177
L63306 37215
L63306 37327
L63287 37365
L63268 37383
L63231 37402
L63175 37402
" />
<path d="M63475 37402
L63475 37140
" />
<path d="M63475 37177
L63493 37158
L63531 37140
L63587 37140
L63625 37158
L63643 37196
L63643 37402
" />
<path d="M63643 37196
L63662 37158
L63700 37140
L63756 37140
L63793 37158
L63812 37196
L63812 37402
" />
<path d="M64281 36990
L63943 37496
" />
<path d="M64412 37140
L64412 37533
" />
<path d="M64412 37158
L64449 37140
L64524 37140
L64562 37158
L64581 37177
L64599 37215
L64599 37327
L64581 37365
L64562 37383
L64524 37402
L64449 37402
L64412 37383
" />
<path d="M64768 37402
L64768 37140
" />
<path d="M64768 37215
L64787 37177
L64806 37158
L64843 37140
L64881 37140
" />
<path d="M65068 37402
L65031 37383
L65012 37365
L64993 37327
L64993 37215
L65012 37177
L65031 37158
L65068 37140
L65124 37140
L65162 37158
L65181 37177
L65199 37215
L65199 37327
L65181 37365
L65162 37383
L65124 37402
L65068 37402
" />
<path d="M65537 37402
L65537 37008
" />
<path d="M65537 37383
L65499 37402
L65424 37402
L65387 37383
L65368 37365
L65349 37327
L65349 37215
L65368 37177
L65387 37158
L65424 37140
L65499 37140
L65537 37158
" />
<path d="M65893 37140
L65893 37402
" />
<path d="M65724 37140
L65724 37346
L65743 37383
L65781 37402
L65837 37402
L65874 37383
L65893 37365
" />
<path d="M66249 37383
L66212 37402
L66137 37402
L66099 37383
L66080 37365
L66062 37327
L66062 37215
L66080 37177
L66099 37158
L66137 37140
L66212 37140
L66249 37158
" />
<path d="M66362 37140
L66512 37140
" />
<path d="M66418 37008
L66418 37346
L66437 37383
L66474 37402
L66512 37402
" />
<path d="M66624 37383
L66662 37402
L66737 37402
L66774 37383
L66793 37346
L66793 37327
L66774 37290
L66737 37271
L66680 37271
L66643 37252
L66624 37215
L66624 37196
L66643 37158
L66680 37140
L66737 37140
L66774 37158
" />
<path d="M67243 36990
L66905 37496
" />
<path d="M67580 37402
L67355 37402
" />
<path d="M67468 37402
L67468 37008
L67430 37065
L67393 37102
L67355 37121
" />
<path d="M67730 37046
L67749 37027
L67787 37008
L67880 37008
L67918 37027
L67936 37046
L67955 37083
L67955 37121
L67936 37177
L67712 37402
L67955 37402
" />
<path d="M68311 37008
L68124 37008
L68105 37196
L68124 37177
L68161 37158
L68255 37158
L68293 37177
L68311 37196
L68330 37233
L68330 37327
L68311 37365
L68293 37383
L68255 37402
L68161 37402
L68124 37383
L68105 37365
" />
<path d="M68555 37177
L68518 37158
L68499 37140
L68480 37102
L68480 37083
L68499 37046
L68518 37027
L68555 37008
L68630 37008
L68668 37027
L68686 37046
L68705 37083
L68705 37102
L68686 37140
L68668 37158
L68630 37177
L68555 37177
L68518 37196
L68499 37215
L68480 37252
L68480 37327
L68499 37365
L68518 37383
L68555 37402
L68630 37402
L68668 37383
L68686 37365
L68705 37327
L68705 37252
L68686 37215
L68668 37196
L68630 37177
" />
<path d="M68836 37008
L69099 37008
L68930 37402
" />
</g>
<g style="fill:#000000; fill-opacity:0.0; 
stroke:#000000; stroke-width:118.11; stroke-opacity:1; 
stroke-linecap:round; stroke-linejoin:round;">
<path d="M39484 33722
L39484 33131
L39681 33553
L39878 33131
L39878 33722
" />
<path d="M40384 33694
L40328 33722
L40216 33722
L40159 33694
L40131 33637
L40131 33412
L40159 33356
L40216 33328
L40328 33328
L40384 33356
L40412 33412
L40412 33469
L40131 33525
" />
<path d="M40637 33553
L40919 33553
" />
<path d="M40581 33722
L40778 33131
L40975 33722
" />
<path d="M41172 33722
L41172 33328
" />
<path d="M41172 33441
L41200 33384
L41228 33356
L41284 33328
L41340 33328
" />
<path d="M41537 33722
L41537 33328
" />
<path d="M41537 33384
L41565 33356
L41622 33328
L41706 33328
L41762 33356
L41790 33412
L41790 33722
" />
<path d="M41790 33412
L41818 33356
L41875 33328
L41959 33328
L42015 33356
L42043 33412
L42043 33722
" />
<path d="M42325 33666
L42353 33694
L42325 33722
L42297 33694
L42325 33666
L42325 33722
" />
<path d="M42803 33412
L42887 33441
L42915 33469
L42943 33525
L42943 33609
L42915 33666
L42887 33694
L42831 33722
L42606 33722
L42606 33131
L42803 33131
L42859 33159
L42887 33187
L42915 33244
L42915 33300
L42887 33356
L42859 33384
L42803 33412
L42606 33412
" />
<path d="M43196 33722
L43196 33328
" />
<path d="M43196 33441
L43225 33384
L43253 33356
L43309 33328
L43365 33328
" />
<path d="M43815 33722
L43815 33412
L43787 33356
L43731 33328
L43618 33328
L43562 33356
" />
<path d="M43815 33694
L43759 33722
L43618 33722
L43562 33694
L43534 33637
L43534 33581
L43562 33525
L43618 33497
L43759 33497
L43815 33469
" />
<path d="M44096 33722
L44096 33328
" />
<path d="M44096 33131
L44068 33159
L44096 33187
L44124 33159
L44096 33131
L44096 33187
" />
<path d="M44378 33328
L44378 33722
" />
<path d="M44378 33384
L44406 33356
L44462 33328
L44546 33328
L44602 33356
L44631 33412
L44631 33722
" />
<path d="M44884 33694
L44940 33722
L45052 33722
L45109 33694
L45137 33637
L45137 33609
L45109 33553
L45052 33525
L44968 33525
L44912 33497
L44884 33441
L44884 33412
L44912 33356
L44968 33328
L45052 33328
L45109 33356
" />
<path d="M45784 33328
L45924 33722
L46065 33328
" />
<path d="M46599 33722
L46262 33722
" />
<path d="M46430 33722
L46430 33131
L46374 33216
L46318 33272
L46262 33300
" />
<path d="M46852 33666
L46880 33694
L46852 33722
L46824 33694
L46852 33666
L46852 33722
" />
<path d="M47246 33131
L47302 33131
L47358 33159
L47387 33187
L47415 33244
L47443 33356
L47443 33497
L47415 33609
L47387 33666
L47358 33694
L47302 33722
L47246 33722
L47190 33694
L47162 33666
L47133 33609
L47105 33497
L47105 33356
L47133 33244
L47162 33187
L47190 33159
L47246 33131
" />
<path d="M39766 34104
L39709 34076
L39625 34076
L39541 34104
L39484 34160
L39456 34217
L39428 34329
L39428 34414
L39456 34526
L39484 34582
L39541 34639
L39625 34667
L39681 34667
L39766 34639
L39794 34610
L39794 34414
L39681 34414
" />
<path d="M40047 34667
L40047 34273
" />
<path d="M40047 34385
L40075 34329
L40103 34301
L40159 34273
L40216 34273
" />
<path d="M40637 34639
L40581 34667
L40469 34667
L40412 34639
L40384 34582
L40384 34357
L40412 34301
L40469 34273
L40581 34273
L40637 34301
L40665 34357
L40665 34414
L40384 34470
" />
<path d="M41172 34667
L41172 34357
L41144 34301
L41087 34273
L40975 34273
L40919 34301
" />
<path d="M41172 34639
L41115 34667
L40975 34667
L40919 34639
L40890 34582
L40890 34526
L40919 34470
L40975 34442
L41115 34442
L41172 34414
" />
<path d="M41369 34273
L41593 34273
" />
<path d="M41453 34076
L41453 34582
L41481 34639
L41537 34667
L41593 34667
" />
<path d="M42240 34667
L42240 34273
" />
<path d="M42240 34076
L42212 34104
L42240 34132
L42268 34104
L42240 34076
L42240 34132
" />
<path d="M42775 34667
L42775 34076
" />
<path d="M42775 34639
L42718 34667
L42606 34667
L42550 34639
L42521 34610
L42493 34554
L42493 34385
L42521 34329
L42550 34301
L42606 34273
L42718 34273
L42775 34301
" />
<path d="M43281 34639
L43225 34667
L43112 34667
L43056 34639
L43028 34582
L43028 34357
L43056 34301
L43112 34273
L43225 34273
L43281 34301
L43309 34357
L43309 34414
L43028 34470
" />
<path d="M43815 34667
L43815 34357
L43787 34301
L43731 34273
L43618 34273
L43562 34301
" />
<path d="M43815 34639
L43759 34667
L43618 34667
L43562 34639
L43534 34582
L43534 34526
L43562 34470
L43618 34442
L43759 34442
L43815 34414
" />
<path d="M44068 34639
L44124 34667
L44237 34667
L44293 34639
L44321 34582
L44321 34554
L44293 34498
L44237 34470
L44153 34470
L44096 34442
L44068 34385
L44068 34357
L44096 34301
L44153 34273
L44237 34273
L44293 34301
" />
<path d="M44996 34639
L45052 34667
L45165 34667
L45221 34639
L45249 34582
L45249 34554
L45221 34498
L45165 34470
L45081 34470
L45024 34442
L44996 34385
L44996 34357
L45024 34301
L45081 34273
L45165 34273
L45221 34301
" />
<path d="M45418 34273
L45643 34273
" />
<path d="M45502 34076
L45502 34582
L45530 34639
L45587 34667
L45643 34667
" />
<path d="M45924 34667
L45868 34639
L45840 34610
L45812 34554
L45812 34385
L45840 34329
L45868 34301
L45924 34273
L46009 34273
L46065 34301
L46093 34329
L46121 34385
L46121 34554
L46093 34610
L46065 34639
L46009 34667
L45924 34667
" />
<path d="M46458 34667
L46402 34639
L46374 34582
L46374 34076
" />
<path d="M46908 34639
L46852 34667
L46740 34667
L46683 34639
L46655 34582
L46655 34357
L46683 34301
L46740 34273
L46852 34273
L46908 34301
L46937 34357
L46937 34414
L46655 34470
" />
<path d="M47190 34273
L47190 34667
" />
<path d="M47190 34329
L47218 34301
L47274 34273
L47358 34273
L47415 34301
L47443 34357
L47443 34667
" />
<path d="M38008 35218
L38233 35218
" />
<path d="M38092 35612
L38092 35105
L38120 35049
L38177 35021
L38233 35021
" />
<path d="M38430 35612
L38430 35218
" />
<path d="M38430 35330
L38458 35274
L38486 35246
L38542 35218
L38599 35218
" />
<path d="M38880 35612
L38824 35583
L38795 35555
L38767 35499
L38767 35330
L38795 35274
L38824 35246
L38880 35218
L38964 35218
L39020 35246
L39048 35274
L39077 35330
L39077 35499
L39048 35555
L39020 35583
L38964 35612
L38880 35612
" />
<path d="M39330 35612
L39330 35218
" />
<path d="M39330 35274
L39358 35246
L39414 35218
L39498 35218
L39555 35246
L39583 35302
L39583 35612
" />
<path d="M39583 35302
L39611 35246
L39667 35218
L39752 35218
L39808 35246
L39836 35302
L39836 35612
" />
<path d="M40511 35218
L40651 35612
L40792 35218
" />
<path d="M41242 35583
L41186 35612
L41073 35612
L41017 35583
L40989 35527
L40989 35302
L41017 35246
L41073 35218
L41186 35218
L41242 35246
L41270 35302
L41270 35358
L40989 35415
" />
<path d="M41523 35612
L41523 35218
" />
<path d="M41523 35330
L41551 35274
L41579 35246
L41636 35218
L41692 35218
" />
<path d="M41833 35218
L41973 35612
" />
<path d="M42114 35218
L41973 35612
L41917 35752
L41889 35780
L41833 35808
" />
<path d="M43042 35583
L42985 35612
L42873 35612
L42817 35583
L42789 35555
L42761 35499
L42761 35330
L42789 35274
L42817 35246
L42873 35218
L42985 35218
L43042 35246
" />
<path d="M43379 35612
L43323 35583
L43295 35527
L43295 35021
" />
<path d="M43829 35583
L43773 35612
L43660 35612
L43604 35583
L43576 35527
L43576 35302
L43604 35246
L43660 35218
L43773 35218
L43829 35246
L43857 35302
L43857 35358
L43576 35415
" />
<path d="M44054 35218
L44195 35612
L44335 35218
" />
<path d="M44785 35583
L44729 35612
L44617 35612
L44560 35583
L44532 35527
L44532 35302
L44560 35246
L44617 35218
L44729 35218
L44785 35246
L44813 35302
L44813 35358
L44532 35415
" />
<path d="M45066 35612
L45066 35218
" />
<path d="M45066 35330
L45095 35274
L45123 35246
L45179 35218
L45235 35218
" />
<path d="M45882 35218
L45882 35808
" />
<path d="M45882 35246
L45938 35218
L46051 35218
L46107 35246
L46135 35274
L46163 35330
L46163 35499
L46135 35555
L46107 35583
L46051 35612
L45938 35612
L45882 35583
" />
<path d="M46641 35583
L46585 35612
L46473 35612
L46416 35583
L46388 35527
L46388 35302
L46416 35246
L46473 35218
L46585 35218
L46641 35246
L46669 35302
L46669 35358
L46388 35415
" />
<path d="M47007 35612
L46951 35583
L46923 35555
L46894 35499
L46894 35330
L46923 35274
L46951 35246
L47007 35218
L47091 35218
L47147 35246
L47176 35274
L47204 35330
L47204 35499
L47176 35555
L47147 35583
L47091 35612
L47007 35612
" />
<path d="M47457 35218
L47457 35808
" />
<path d="M47457 35246
L47513 35218
L47626 35218
L47682 35246
L47710 35274
L47738 35330
L47738 35499
L47710 35555
L47682 35583
L47626 35612
L47513 35612
L47457 35583
" />
<path d="M48075 35612
L48019 35583
L47991 35527
L47991 35021
" />
<path d="M48525 35583
L48469 35612
L48357 35612
L48300 35583
L48272 35527
L48272 35302
L48300 35246
L48357 35218
L48469 35218
L48525 35246
L48554 35302
L48554 35358
L48272 35415
" />
<path d="M48807 35555
L48835 35583
L48807 35612
L48779 35583
L48807 35555
L48807 35612
" />
<path d="M48807 35387
L48779 35049
L48807 35021
L48835 35049
L48807 35387
L48807 35021
" />
</g>
<g style="fill:#000000; fill-opacity:0.0; 
stroke:#000000; stroke-width:39.3701; stroke-opacity:1; 
stroke-linecap:round; stroke-linejoin:round;">
<path d="M70200 30600
L70200 48600
" />
</g>
<g style="fill:#000000; fill-opacity:0.0; 
stroke:#000000; stroke-width:59.0551; stroke-opacity:1; 
stroke-linecap:round; stroke-linejoin:round;">
<path d="M62900 51577
L62900 51896
L62918 51933
L62937 51952
L62975 51971
L63050 51971
L63087 51952
L63106 51933
L63125 51896
L63125 51577
" />
<path d="M63274 51577
L63537 51577
L63368 51971
" />
<path d="M60687 47640
L60687 47246
" />
<path d="M60687 47434
L60912 47434
" />
<path d="M60912 47640
L60912 47246
" />
<path d="M61100 47640
L61100 47246
L61231 47527
L61362 47246
L61362 47640
" />
<path d="M61550 47490
L61850 47490
" />
<path d="M62243 47640
L62018 47640
" />
<path d="M62131 47640
L62131 47246
L62093 47302
L62056 47340
L62018 47359
" />
<path d="M62618 47640
L62393 47640
" />
<path d="M62506 47640
L62506 47246
L62468 47302
L62431 47340
L62393 47359
" />
<path d="M62693 47677
L62993 47677
" />
<path d="M63218 47434
L63274 47452
L63293 47471
L63312 47509
L63312 47565
L63293 47602
L63274 47621
L63237 47640
L63087 47640
L63087 47246
L63218 47246
L63256 47265
L63274 47284
L63293 47321
L63293 47359
L63274 47396
L63256 47415
L63218 47434
L63087 47434
" />
<path d="M63537 47640
L63499 47621
L63481 47584
L63481 47246
" />
<path d="M63856 47377
L63856 47640
" />
<path d="M63687 47377
L63687 47584
L63706 47621
L63743 47640
L63799 47640
L63837 47621
L63856 47602
" />
<path d="M64193 47621
L64156 47640
L64081 47640
L64043 47621
L64024 47584
L64024 47434
L64043 47396
L64081 47377
L64156 47377
L64193 47396
L64212 47434
L64212 47471
L64024 47509
" />
<path d="M64324 47377
L64474 47377
" />
<path d="M64381 47246
L64381 47584
L64399 47621
L64437 47640
L64474 47640
" />
<path d="M64662 47640
L64624 47621
L64606 47602
L64587 47565
L64587 47452
L64606 47415
L64624 47396
L64662 47377
L64718 47377
L64756 47396
L64774 47415
L64793 47452
L64793 47565
L64774 47602
L64756 47621
L64718 47640
L64662 47640
" />
<path d="M65018 47640
L64981 47621
L64962 47602
L64943 47565
L64943 47452
L64962 47415
L64981 47396
L65018 47377
L65074 47377
L65112 47396
L65131 47415
L65149 47452
L65149 47565
L65131 47602
L65112 47621
L65074 47640
L65018 47640
" />
<path d="M65262 47377
L65412 47377
" />
<path d="M65318 47246
L65318 47584
L65337 47621
L65374 47640
L65412 47640
" />
<path d="M65543 47640
L65543 47246
" />
<path d="M65712 47640
L65712 47434
L65693 47396
L65655 47377
L65599 47377
L65562 47396
L65543 47415
" />
<path d="M45400 45884
L45400 46203
L45418 46240
L45437 46259
L45475 46278
L45550 46278
L45587 46259
L45606 46240
L45625 46203
L45625 45884
" />
<path d="M46018 46278
L45793 46278
" />
<path d="M45906 46278
L45906 45884
L45868 45940
L45831 45978
L45793 45996
" />
<path d="M43909 46384
L44003 46778
L44078 46496
L44153 46778
L44247 46384
" />
<path d="M44397 46778
L44397 46515
" />
<path d="M44397 46384
L44378 46403
L44397 46421
L44415 46403
L44397 46384
L44397 46421
" />
<path d="M44584 46778
L44584 46515
" />
<path d="M44584 46384
L44565 46403
L44584 46421
L44603 46403
L44584 46384
L44584 46421
" />
<path d="M44996 46740
L44978 46759
L44921 46778
L44884 46778
L44828 46759
L44790 46721
L44771 46684
L44753 46609
L44753 46553
L44771 46478
L44790 46440
L44828 46403
L44884 46384
L44921 46384
L44978 46403
L44996 46421
" />
<path d="M45165 46778
L45165 46384
" />
<path d="M45334 46778
L45334 46571
L45315 46534
L45278 46515
L45221 46515
L45184 46534
L45165 46553
" />
<path d="M45690 46515
L45690 46778
" />
<path d="M45521 46515
L45521 46721
L45540 46759
L45578 46778
L45634 46778
L45671 46759
L45690 46740
" />
<path d="M46046 46759
L46009 46778
L45934 46778
L45896 46759
L45878 46740
L45859 46703
L45859 46590
L45878 46553
L45896 46534
L45934 46515
L46009 46515
L46046 46534
" />
<path d="M46215 46778
L46215 46384
" />
<path d="M46253 46628
L46365 46778
" />
<path d="M46365 46515
L46215 46665
" />
<path d="M46759 46740
L46740 46759
L46684 46778
L46646 46778
L46590 46759
L46553 46721
L46534 46684
L46515 46609
L46515 46553
L46534 46478
L46553 46440
L46590 46403
L46646 46384
L46684 46384
L46740 46403
L46759 46421
" />
<path d="M46984 46778
L46946 46759
L46927 46740
L46909 46703
L46909 46590
L46927 46553
L46946 46534
L46984 46515
L47040 46515
L47077 46534
L47096 46553
L47115 46590
L47115 46703
L47096 46740
L47077 46759
L47040 46778
L46984 46778
" />
<path d="M47284 46515
L47284 46778
" />
<path d="M47284 46553
L47302 46534
L47340 46515
L47396 46515
L47434 46534
L47452 46571
L47452 46778
" />
<path d="M68400 37884
L68400 38203
L68418 38240
L68437 38259
L68475 38278
L68550 38278
L68587 38259
L68606 38240
L68625 38203
L68625 37884
" />
<path d="M68774 37884
L69018 37884
L68887 38034
L68943 38034
L68981 38053
L68999 38071
L69018 38109
L69018 38203
L68999 38240
L68981 38259
L68943 38278
L68831 38278
L68793 38259
L68774 38240
" />
<path d="M44250 40776
L44250 41254
L44278 41310
L44306 41339
L44362 41367
L44475 41367
L44531 41339
L44559 41310
L44587 41254
L44587 40776
" />
<path d="M44840 40832
L44868 40804
L44924 40776
L45065 40776
L45121 40804
L45149 40832
L45178 40889
L45178 40945
L45149 41029
L44812 41367
L45178 41367
" />
<path d="M41212 46367
L41212 45776
L41550 46367
L41550 45776
" />
<path d="M41915 46367
L41859 46339
L41831 46310
L41803 46254
L41803 46085
L41831 46029
L41859 46001
L41915 45973
L42000 45973
L42056 46001
L42084 46029
L42112 46085
L42112 46254
L42084 46310
L42056 46339
L42000 46367
L41915 46367
" />
<path d="M42365 46367
L42365 45776
" />
<path d="M42422 46142
L42590 46367
" />
<path d="M42590 45973
L42365 46198
" />
<path d="M42843 46367
L42843 45973
" />
<path d="M42843 45776
L42815 45804
L42843 45832
L42872 45804
L42843 45776
L42843 45832
" />
<path d="M43378 46367
L43378 46057
L43350 46001
L43293 45973
L43181 45973
L43125 46001
" />
<path d="M43378 46339
L43322 46367
L43181 46367
L43125 46339
L43097 46282
L43097 46226
L43125 46170
L43181 46142
L43322 46142
L43378 46114
" />
<path d="M43518 46423
L43968 46423
" />
<path d="M44390 45776
L44109 45776
L44081 46057
L44109 46029
L44165 46001
L44306 46001
L44362 46029
L44390 46057
L44418 46114
L44418 46254
L44390 46310
L44362 46339
L44306 46367
L44165 46367
L44109 46339
L44081 46310
" />
<path d="M44953 45776
L44671 45776
L44643 46057
L44671 46029
L44728 46001
L44868 46001
L44924 46029
L44953 46057
L44981 46114
L44981 46254
L44953 46310
L44924 46339
L44868 46367
L44728 46367
L44671 46339
L44643 46310
" />
<path d="M45543 46367
L45206 46367
" />
<path d="M45374 46367
L45374 45776
L45318 45860
L45262 45917
L45206 45945
" />
<path d="M45909 45776
L45965 45776
L46021 45804
L46049 45832
L46077 45889
L46106 46001
L46106 46142
L46077 46254
L46049 46310
L46021 46339
L45965 46367
L45909 46367
L45852 46339
L45824 46310
L45796 46254
L45768 46142
L45768 46001
L45796 45889
L45824 45832
L45852 45804
L45909 45776
" />
<path d="M46218 46423
L46668 46423
" />
<path d="M47090 46367
L46809 46367
L46809 45776
" />
<path d="M47624 46310
L47596 46339
L47512 46367
L47455 46367
L47371 46339
L47315 46282
L47287 46226
L47259 46114
L47259 46029
L47287 45917
L47315 45860
L47371 45804
L47455 45776
L47512 45776
L47596 45804
L47624 45832
" />
<path d="M47877 46367
L47877 45776
L48018 45776
L48102 45804
L48158 45860
L48187 45917
L48215 46029
L48215 46114
L48187 46226
L48158 46282
L48102 46339
L48018 46367
L47877 46367
" />
<path d="M47750 45804
L47693 45776
L47609 45776
L47525 45804
L47468 45860
L47440 45917
L47412 46029
L47412 46114
L47440 46226
L47468 46282
L47525 46339
L47609 46367
L47665 46367
L47750 46339
L47778 46310
L47778 46114
L47665 46114
" />
<path d="M48031 46367
L48031 45776
L48368 46367
L48368 45776
" />
<path d="M48649 46367
L48649 45776
L48790 45776
L48874 45804
L48931 45860
L48959 45917
L48987 46029
L48987 46114
L48959 46226
L48931 46282
L48874 46339
L48790 46367
L48649 46367
" />
<path d="M39784 30221
L39653 30221
" />
<path d="M39653 30428
L39653 30034
L39840 30034
" />
<path d="M39990 30428
L39990 30165
" />
<path d="M39990 30034
L39971 30053
L39990 30071
L40009 30053
L39990 30034
L39990 30071
" />
<path d="M40346 30428
L40346 30034
" />
<path d="M40346 30409
L40309 30428
L40234 30428
L40196 30409
L40178 30390
L40159 30353
L40159 30240
L40178 30203
L40196 30184
L40234 30165
L40309 30165
L40346 30184
" />
<path d="M39240 30034
L39371 30428
L39503 30034
" />
<path d="M39615 30315
L39803 30315
" />
<path d="M39578 30428
L39709 30034
L39840 30428
" />
<path d="M40159 30428
L39971 30428
L39971 30034
" />
<path d="M40346 30034
L40346 30128
" />
<path d="M40253 30090
L40346 30128
L40440 30090
" />
<path d="M40290 30203
L40346 30128
L40403 30203
" />
<path d="M40646 30034
L40646 30128
" />
<path d="M40553 30090
L40646 30128
L40740 30090
" />
<path d="M40590 30203
L40646 30128
L40703 30203
" />
<path d="M37265 39360
L37237 39388
L37153 39416
L37097 39416
L37012 39388
L36956 39332
L36928 39276
L36900 39163
L36900 39079
L36928 38966
L36956 38910
L37012 38854
L37097 38826
L37153 38826
L37237 38854
L37265 38882
" />
<path d="M37828 39416
L37490 39416
" />
<path d="M37659 39416
L37659 38826
L37603 38910
L37546 38966
L37490 38994
" />
<path d="M38393 37982
L38365 38010
L38280 38038
L38224 38038
L38140 38010
L38084 37954
L38055 37898
L38027 37785
L38027 37701
L38055 37588
L38084 37532
L38140 37476
L38224 37448
L38280 37448
L38365 37476
L38393 37504
" />
<path d="M48976 49899
L49295 49899
L49332 49881
L49351 49862
L49370 49824
L49370 49749
L49351 49712
L49332 49693
L49295 49674
L48976 49674
" />
<path d="M49107 49318
L49370 49318
" />
<path d="M48957 49412
L49238 49506
L49238 49262
" />
<path d="M35784 49299
L36103 49299
L36140 49281
L36159 49262
L36178 49224
L36178 49149
L36159 49112
L36140 49093
L36103 49074
L35784 49074
" />
<path d="M35784 48700
L35784 48887
L35971 48906
L35953 48887
L35934 48850
L35934 48756
L35953 48718
L35971 48700
L36009 48681
L36103 48681
L36140 48700
L36159 48718
L36178 48756
L36178 48850
L36159 48887
L36140 48906
" />
<path d="M43950 39184
L43950 39503
L43968 39540
L43987 39559
L44025 39578
L44100 39578
L44137 39559
L44156 39540
L44175 39503
L44175 39184
" />
<path d="M44418 39353
L44381 39334
L44362 39315
L44343 39278
L44343 39259
L44362 39221
L44381 39203
L44418 39184
L44493 39184
L44531 39203
L44549 39221
L44568 39259
L44568 39278
L44549 39315
L44531 39334
L44493 39353
L44418 39353
L44381 39371
L44362 39390
L44343 39428
L44343 39503
L44362 39540
L44381 39559
L44418 39578
L44493 39578
L44531 39559
L44549 39540
L44568 39503
L44568 39428
L44549 39390
L44531 39371
L44493 39353
" />
<path d="M58000 27376
L58000 27695
L58018 27732
L58037 27751
L58075 27770
L58150 27770
L58187 27751
L58206 27732
L58225 27695
L58225 27376
" />
<path d="M58431 27770
L58506 27770
L58543 27751
L58562 27732
L58599 27676
L58618 27601
L58618 27451
L58599 27414
L58581 27395
L58543 27376
L58468 27376
L58431 27395
L58412 27414
L58393 27451
L58393 27545
L58412 27582
L58431 27601
L58468 27620
L58543 27620
L58581 27601
L58599 27582
L58618 27545
" />
<path d="M61812 27376
L61812 27695
L61831 27732
L61850 27751
L61887 27770
L61962 27770
L62000 27751
L62018 27732
L62037 27695
L62037 27376
" />
<path d="M62431 27770
L62206 27770
" />
<path d="M62318 27770
L62318 27376
L62281 27432
L62243 27470
L62206 27489
" />
<path d="M62674 27376
L62712 27376
L62749 27395
L62768 27414
L62787 27451
L62806 27526
L62806 27620
L62787 27695
L62768 27732
L62749 27751
L62712 27770
L62674 27770
L62637 27751
L62618 27732
L62599 27695
L62581 27620
L62581 27526
L62599 27451
L62618 27414
L62637 27395
L62674 27376
" />
<path d="M65812 27376
L65812 27695
L65831 27732
L65850 27751
L65887 27770
L65962 27770
L66000 27751
L66018 27732
L66037 27695
L66037 27376
" />
<path d="M66431 27770
L66206 27770
" />
<path d="M66318 27770
L66318 27376
L66281 27432
L66243 27470
L66206 27489
" />
<path d="M66806 27770
L66581 27770
" />
<path d="M66693 27770
L66693 27376
L66656 27432
L66618 27470
L66581 27489
" />
<path d="M53712 27376
L53712 27695
L53731 27732
L53750 27751
L53787 27770
L53862 27770
L53900 27751
L53918 27732
L53937 27695
L53937 27376
" />
<path d="M54331 27770
L54106 27770
" />
<path d="M54218 27770
L54218 27376
L54181 27432
L54143 27470
L54106 27489
" />
<path d="M54481 27414
L54499 27395
L54537 27376
L54631 27376
L54668 27395
L54687 27414
L54706 27451
L54706 27489
L54687 27545
L54462 27770
L54706 27770
" />
<path d="M63034 49083
L63353 49083
L63390 49065
L63409 49046
L63428 49008
L63428 48933
L63409 48896
L63390 48877
L63353 48858
L63034 48858
" />
<path d="M63428 48465
L63428 48690
" />
<path d="M63428 48577
L63034 48577
L63090 48615
L63128 48652
L63146 48690
" />
<path d="M63034 48333
L63034 48090
L63184 48221
L63184 48165
L63203 48127
L63221 48109
L63259 48090
L63353 48090
L63390 48109
L63409 48127
L63428 48165
L63428 48277
L63409 48315
L63390 48333
" />
<path d="M62959 40113
L63221 40506
" />
<path d="M63221 40113
L62959 40506
" />
<path d="M63503 40300
L63559 40319
L63578 40338
L63596 40375
L63596 40431
L63578 40469
L63559 40488
L63521 40506
L63371 40506
L63371 40113
L63503 40113
L63540 40131
L63559 40150
L63578 40188
L63578 40225
L63559 40263
L63540 40281
L63503 40300
L63371 40300
" />
<path d="M63765 40300
L63896 40300
" />
<path d="M63953 40506
L63765 40506
L63765 40113
L63953 40113
" />
<path d="M64121 40300
L64253 40300
" />
<path d="M64309 40506
L64121 40506
L64121 40113
L64309 40113
" />
<path d="M61797 29616
L61797 29813
" />
<path d="M62106 29813
L61515 29813
L61515 29532
" />
<path d="M62106 28997
L62106 29335
" />
<path d="M62106 29166
L61515 29166
L61600 29222
L61656 29279
L61684 29335
" />
<path d="M62623 30193
L62623 30389
" />
<path d="M62933 30389
L62342 30389
L62342 30108
" />
<path d="M62342 29883
L62820 29883
L62877 29855
L62905 29827
L62933 29771
L62933 29658
L62905 29602
L62877 29574
L62820 29546
L62342 29546
" />
<path d="M62905 29293
L62933 29208
L62933 29068
L62905 29011
L62877 28983
L62820 28955
L62764 28955
L62708 28983
L62680 29011
L62652 29068
L62623 29180
L62595 29236
L62567 29265
L62511 29293
L62455 29293
L62398 29265
L62370 29236
L62342 29180
L62342 29040
L62370 28955
" />
<path d="M62623 28702
L62623 28505
" />
<path d="M62933 28421
L62933 28702
L62342 28702
L62342 28421
" />
<path d="M53797 29616
L53797 29813
" />
<path d="M54106 29813
L53515 29813
L53515 29532
" />
<path d="M53572 29335
L53544 29307
L53515 29250
L53515 29110
L53544 29054
L53572 29025
L53628 28997
L53684 28997
L53769 29025
L54106 29363
L54106 28997
" />
<path d="M54623 30193
L54623 30389
" />
<path d="M54933 30389
L54342 30389
L54342 30108
" />
<path d="M54342 29883
L54820 29883
L54877 29855
L54905 29827
L54933 29771
L54933 29658
L54905 29602
L54877 29574
L54820 29546
L54342 29546
" />
<path d="M54905 29293
L54933 29208
L54933 29068
L54905 29011
L54877 28983
L54820 28955
L54764 28955
L54708 28983
L54680 29011
L54652 29068
L54623 29180
L54595 29236
L54567 29265
L54511 29293
L54455 29293
L54398 29265
L54370 29236
L54342 29180
L54342 29040
L54370 28955
" />
<path d="M54623 28702
L54623 28505
" />
<path d="M54933 28421
L54933 28702
L54342 28702
L54342 28421
" />
<path d="M57797 29616
L57797 29813
" />
<path d="M58106 29813
L57515 29813
L57515 29532
" />
<path d="M57515 29363
L57515 28997
L57740 29194
L57740 29110
L57769 29054
L57797 29025
L57853 28997
L57994 28997
L58050 29025
L58078 29054
L58106 29110
L58106 29279
L58078 29335
L58050 29363
" />
<path d="M58623 30193
L58623 30389
" />
<path d="M58933 30389
L58342 30389
L58342 30108
" />
<path d="M58342 29883
L58820 29883
L58877 29855
L58905 29827
L58933 29771
L58933 29658
L58905 29602
L58877 29574
L58820 29546
L58342 29546
" />
<path d="M58905 29293
L58933 29208
L58933 29068
L58905 29011
L58877 28983
L58820 28955
L58764 28955
L58708 28983
L58680 29011
L58652 29068
L58623 29180
L58595 29236
L58567 29265
L58511 29293
L58455 29293
L58398 29265
L58370 29236
L58342 29180
L58342 29040
L58370 28955
" />
<path d="M58623 28702
L58623 28505
" />
<path d="M58933 28421
L58933 28702
L58342 28702
L58342 28421
" />
<path d="M49597 29616
L49597 29813
" />
<path d="M49906 29813
L49315 29813
L49315 29532
" />
<path d="M49512 29054
L49906 29054
" />
<path d="M49287 29194
L49709 29335
L49709 28969
" />
<path d="M36990 32002
L37121 32396
L37253 32002
" />
<path d="M37365 32284
L37553 32284
" />
<path d="M37328 32396
L37459 32002
L37590 32396
" />
<path d="M37909 32396
L37721 32396
L37721 32002
" />
<path d="M38096 32002
L38096 32096
" />
<path d="M38003 32059
L38096 32096
L38190 32059
" />
<path d="M38040 32171
L38096 32096
L38153 32171
" />
<path d="M38396 32002
L38396 32096
" />
<path d="M38303 32059
L38396 32096
L38490 32059
" />
<path d="M38340 32171
L38396 32096
L38453 32171
" />
<path d="M66715 28209
L66715 27815
L66847 28097
L66978 27815
L66978 28209
" />
<path d="M67222 28209
L67184 28190
L67165 28172
L67147 28134
L67147 28022
L67165 27984
L67184 27965
L67222 27947
L67278 27947
L67315 27965
L67334 27984
L67353 28022
L67353 28134
L67334 28172
L67315 28190
L67278 28209
L67222 28209
" />
<path d="M67690 27947
L67690 28209
" />
<path d="M67522 27947
L67522 28153
L67540 28190
L67578 28209
L67634 28209
L67672 28190
L67690 28172
" />
<path d="M67878 27947
L67878 28209
" />
<path d="M67878 27984
L67896 27965
L67934 27947
L67990 27947
L68028 27965
L68046 28003
L68046 28209
" />
<path d="M68178 27947
L68328 27947
" />
<path d="M68234 27815
L68234 28153
L68253 28190
L68290 28209
L68328 28209
" />
<path d="M68459 28209
L68459 27947
" />
<path d="M68459 27815
L68440 27834
L68459 27853
L68478 27834
L68459 27815
L68459 27853
" />
<path d="M68646 27947
L68646 28209
" />
<path d="M68646 27984
L68665 27965
L68703 27947
L68759 27947
L68796 27965
L68815 28003
L68815 28209
" />
<path d="M69171 27947
L69171 28265
L69153 28303
L69134 28322
L69096 28340
L69040 28340
L69003 28322
" />
<path d="M69171 28190
L69134 28209
L69059 28209
L69021 28190
L69003 28172
L68984 28134
L68984 28022
L69003 27984
L69021 27965
L69059 27947
L69134 27947
L69171 27965
" />
<path d="M69265 28247
L69565 28247
" />
<path d="M69659 28209
L69659 27815
" />
<path d="M69659 28003
L69884 28003
" />
<path d="M69884 28209
L69884 27815
" />
<path d="M70127 28209
L70090 28190
L70071 28172
L70052 28134
L70052 28022
L70071 27984
L70090 27965
L70127 27947
L70184 27947
L70221 27965
L70240 27984
L70259 28022
L70259 28134
L70240 28172
L70221 28190
L70184 28209
L70127 28209
" />
<path d="M70484 28209
L70446 28190
L70427 28153
L70427 27815
" />
<path d="M70784 28190
L70746 28209
L70671 28209
L70634 28190
L70615 28153
L70615 28003
L70634 27965
L70671 27947
L70746 27947
L70784 27965
L70802 28003
L70802 28040
L70615 28078
" />
<path d="M67990 31752
L68121 32146
L68253 31752
" />
<path d="M68365 32034
L68553 32034
" />
<path d="M68328 32146
L68459 31752
L68590 32146
" />
<path d="M68909 32146
L68721 32146
L68721 31752
" />
<path d="M69096 31752
L69096 31846
" />
<path d="M69003 31809
L69096 31846
L69190 31809
" />
<path d="M69040 31921
L69096 31846
L69153 31921
" />
<path d="M69396 31752
L69396 31846
" />
<path d="M69303 31809
L69396 31846
L69490 31809
" />
<path d="M69340 31921
L69396 31846
L69453 31921
" />
<path d="M37465 42709
L37465 42315
L37597 42597
L37728 42315
L37728 42709
" />
<path d="M37972 42709
L37934 42690
L37915 42672
L37897 42634
L37897 42522
L37915 42484
L37934 42465
L37972 42447
L38028 42447
L38065 42465
L38084 42484
L38103 42522
L38103 42634
L38084 42672
L38065 42690
L38028 42709
L37972 42709
" />
<path d="M38440 42447
L38440 42709
" />
<path d="M38272 42447
L38272 42653
L38290 42690
L38328 42709
L38384 42709
L38422 42690
L38440 42672
" />
<path d="M38628 42447
L38628 42709
" />
<path d="M38628 42484
L38646 42465
L38684 42447
L38740 42447
L38778 42465
L38796 42503
L38796 42709
" />
<path d="M38928 42447
L39078 42447
" />
<path d="M38984 42315
L38984 42653
L39003 42690
L39040 42709
L39078 42709
" />
<path d="M39209 42709
L39209 42447
" />
<path d="M39209 42315
L39190 42334
L39209 42353
L39228 42334
L39209 42315
L39209 42353
" />
<path d="M39396 42447
L39396 42709
" />
<path d="M39396 42484
L39415 42465
L39453 42447
L39509 42447
L39546 42465
L39565 42503
L39565 42709
" />
<path d="M39921 42447
L39921 42765
L39903 42803
L39884 42822
L39846 42840
L39790 42840
L39753 42822
" />
<path d="M39921 42690
L39884 42709
L39809 42709
L39771 42690
L39753 42672
L39734 42634
L39734 42522
L39753 42484
L39771 42465
L39809 42447
L39884 42447
L39921 42465
" />
<path d="M40015 42747
L40315 42747
" />
<path d="M40409 42709
L40409 42315
" />
<path d="M40409 42503
L40634 42503
" />
<path d="M40634 42709
L40634 42315
" />
<path d="M40877 42709
L40840 42690
L40821 42672
L40802 42634
L40802 42522
L40821 42484
L40840 42465
L40877 42447
L40934 42447
L40971 42465
L40990 42484
L41009 42522
L41009 42634
L40990 42672
L40971 42690
L40934 42709
L40877 42709
" />
<path d="M41234 42709
L41196 42690
L41177 42653
L41177 42315
" />
<path d="M41534 42690
L41496 42709
L41421 42709
L41384 42690
L41365 42653
L41365 42503
L41384 42465
L41421 42447
L41496 42447
L41534 42465
L41552 42503
L41552 42540
L41365 42578
" />
<path d="M38740 46252
L38871 46646
L39003 46252
" />
<path d="M39115 46534
L39303 46534
" />
<path d="M39078 46646
L39209 46252
L39340 46646
" />
<path d="M39659 46646
L39471 46646
L39471 46252
" />
<path d="M39846 46252
L39846 46346
" />
<path d="M39753 46309
L39846 46346
L39940 46309
" />
<path d="M39790 46421
L39846 46346
L39903 46421
" />
<path d="M40146 46252
L40146 46346
" />
<path d="M40053 46309
L40146 46346
L40240 46309
" />
<path d="M40090 46421
L40146 46346
L40203 46421
" />
<path d="M63465 41959
L63465 41565
L63597 41847
L63728 41565
L63728 41959
" />
<path d="M63972 41959
L63934 41940
L63915 41922
L63897 41884
L63897 41772
L63915 41734
L63934 41715
L63972 41697
L64028 41697
L64065 41715
L64084 41734
L64103 41772
L64103 41884
L64084 41922
L64065 41940
L64028 41959
L63972 41959
" />
<path d="M64440 41697
L64440 41959
" />
<path d="M64272 41697
L64272 41903
L64290 41940
L64328 41959
L64384 41959
L64422 41940
L64440 41922
" />
<path d="M64628 41697
L64628 41959
" />
<path d="M64628 41734
L64646 41715
L64684 41697
L64740 41697
L64778 41715
L64796 41753
L64796 41959
" />
<path d="M64928 41697
L65078 41697
" />
<path d="M64984 41565
L64984 41903
L65003 41940
L65040 41959
L65078 41959
" />
<path d="M65209 41959
L65209 41697
" />
<path d="M65209 41565
L65190 41584
L65209 41603
L65228 41584
L65209 41565
L65209 41603
" />
<path d="M65396 41697
L65396 41959
" />
<path d="M65396 41734
L65415 41715
L65453 41697
L65509 41697
L65546 41715
L65565 41753
L65565 41959
" />
<path d="M65921 41697
L65921 42015
L65903 42053
L65884 42072
L65846 42090
L65790 42090
L65753 42072
" />
<path d="M65921 41940
L65884 41959
L65809 41959
L65771 41940
L65753 41922
L65734 41884
L65734 41772
L65753 41734
L65771 41715
L65809 41697
L65884 41697
L65921 41715
" />
<path d="M66015 41997
L66315 41997
" />
<path d="M66409 41959
L66409 41565
" />
<path d="M66409 41753
L66634 41753
" />
<path d="M66634 41959
L66634 41565
" />
<path d="M66877 41959
L66840 41940
L66821 41922
L66802 41884
L66802 41772
L66821 41734
L66840 41715
L66877 41697
L66934 41697
L66971 41715
L66990 41734
L67009 41772
L67009 41884
L66990 41922
L66971 41940
L66934 41959
L66877 41959
" />
<path d="M67234 41959
L67196 41940
L67177 41903
L67177 41565
" />
<path d="M67534 41940
L67496 41959
L67421 41959
L67384 41940
L67365 41903
L67365 41753
L67384 41715
L67421 41697
L67496 41697
L67534 41715
L67552 41753
L67552 41790
L67365 41828
" />
<path d="M64740 45502
L64871 45896
L65003 45502
" />
<path d="M65115 45784
L65303 45784
" />
<path d="M65078 45896
L65209 45502
L65340 45896
" />
<path d="M65659 45896
L65471 45896
L65471 45502
" />
<path d="M65846 45502
L65846 45596
" />
<path d="M65753 45559
L65846 45596
L65940 45559
" />
<path d="M65790 45671
L65846 45596
L65903 45671
" />
<path d="M66146 45502
L66146 45596
" />
<path d="M66053 45559
L66146 45596
L66240 45559
" />
<path d="M66090 45671
L66146 45596
L66203 45671
" />
<path d="M42967 40815
L42986 40834
L43004 40890
L43004 40928
L42986 40984
L42948 41021
L42911 41040
L42836 41059
L42779 41059
L42704 41040
L42667 41021
L42629 40984
L42611 40928
L42611 40890
L42629 40834
L42648 40815
" />
<path d="M42648 40665
L42629 40646
L42611 40609
L42611 40515
L42629 40478
L42648 40459
L42686 40440
L42723 40440
L42779 40459
L43004 40684
L43004 40440
" />
<path d="M45813 40815
L45832 40834
L45851 40890
L45851 40928
L45832 40984
L45795 41021
L45757 41040
L45682 41059
L45626 41059
L45551 41040
L45513 41021
L45476 40984
L45457 40928
L45457 40890
L45476 40834
L45495 40815
" />
<path d="M45457 40684
L45457 40440
L45607 40571
L45607 40515
L45626 40478
L45645 40459
L45682 40440
L45776 40440
L45813 40459
L45832 40478
L45851 40515
L45851 40628
L45832 40665
L45813 40684
" />
<path d="M41784 49471
L41653 49471
" />
<path d="M41653 49678
L41653 49284
L41840 49284
" />
<path d="M41990 49678
L41990 49415
" />
<path d="M41990 49284
L41971 49303
L41990 49321
L42009 49303
L41990 49284
L41990 49321
" />
<path d="M42346 49678
L42346 49284
" />
<path d="M42346 49659
L42309 49678
L42234 49678
L42196 49659
L42178 49640
L42159 49603
L42159 49490
L42178 49453
L42196 49434
L42234 49415
L42309 49415
L42346 49434
" />
<path d="M41240 49284
L41371 49678
L41503 49284
" />
<path d="M41615 49565
L41803 49565
" />
<path d="M41578 49678
L41709 49284
L41840 49678
" />
<path d="M42159 49678
L41971 49678
L41971 49284
" />
<path d="M42346 49284
L42346 49378
" />
<path d="M42253 49340
L42346 49378
L42440 49340
" />
<path d="M42290 49453
L42346 49378
L42403 49453
" />
<path d="M42646 49284
L42646 49378
" />
<path d="M42553 49340
L42646 49378
L42740 49340
" />
<path d="M42590 49453
L42646 49378
L42703 49453
" />
<path d="M63284 43721
L63153 43721
" />
<path d="M63153 43928
L63153 43534
L63340 43534
" />
<path d="M63490 43928
L63490 43665
" />
<path d="M63490 43534
L63471 43553
L63490 43571
L63509 43553
L63490 43534
L63490 43571
" />
<path d="M63846 43928
L63846 43534
" />
<path d="M63846 43909
L63809 43928
L63734 43928
L63696 43909
L63678 43890
L63659 43853
L63659 43740
L63678 43703
L63696 43684
L63734 43665
L63809 43665
L63846 43684
" />
<path d="M62740 43534
L62871 43928
L63003 43534
" />
<path d="M63115 43815
L63303 43815
" />
<path d="M63078 43928
L63209 43534
L63340 43928
" />
<path d="M63659 43928
L63471 43928
L63471 43534
" />
<path d="M63846 43534
L63846 43628
" />
<path d="M63753 43590
L63846 43628
L63940 43590
" />
<path d="M63790 43703
L63846 43628
L63903 43703
" />
<path d="M64146 43534
L64146 43628
" />
<path d="M64053 43590
L64146 43628
L64240 43590
" />
<path d="M64090 43703
L64146 43628
L64203 43703
" />
<path d="M65759 52580
L65759 45100
" />
<path d="M60444 52580
L65759 52580
" />
<path d="M60640 45493
L65759 45493
" />
<path d="M60444 52186
L60444 52580
" />
<path d="M60444 45100
L60444 52186
" />
<path d="M65759 45100
L60444 45100
" />
<path d="M46700 51350
L46700 47100
" />
<path d="M44700 51350
L44700 47100
" />
<path d="M44700 51350
L46700 51350
" />
<path d="M40700 44600
L47700 44600
" />
<path d="M40700 44600
L40700 45600
" />
<path d="M40700 45600
L47700 45600
" />
<path d="M36852 42692
L36576 42417
" />
<path d="M39844 39425
L39844 42692
" />
<path d="M39844 42692
L36576 42692
" />
<path d="M36576 42692
L36576 39425
" />
<path d="M36576 39425
L39805 39425
" />
<path d="M50700 48100
L55700 48100
" />
<path d="M55700 48100
L55700 50100
" />
<path d="M55700 50100
L51700 50100
" />
<path d="M50700 48100
L50700 49100
" />
<path d="M50589 49600
L50589 50210
" />
<path d="M50700 49100
L51700 49100
" />
<path d="M51700 49100
L51700 50100
" />
<path d="M50589 50210
L51200 50210
" />
<path d="M36500 51900
L36500 52200
" />
<path d="M36500 52200
L39900 52200
" />
<path d="M39900 52200
L39900 51900
" />
<path d="M36500 50700
L39900 50700
" />
<path d="M36500 46900
L39900 46900
" />
<path d="M39900 51900
L39900 46900
" />
<path d="M36500 51900
L36500 46900
" />
<path d="M45650 38500
L45650 37300
" />
<path d="M45650 37300
L42850 37300
" />
<path d="M42850 37300
L42850 38500
" />
<path d="M45650 39700
L45650 40000
" />
<path d="M45650 40000
L45050 40900
" />
<path d="M45050 40900
L43450 40900
" />
<path d="M43450 40900
L42850 40000
" />
<path d="M42850 40000
L42850 39700
" />
<path d="M57800 30100
L57800 32100
" />
<path d="M57800 32100
L58800 32100
" />
<path d="M58800 32100
L58800 30100
" />
<path d="M58910 28989
L58910 29600
" />
<path d="M58800 30100
L57800 30100
" />
<path d="M57689 29600
L57689 28989
" />
<path d="M57689 28989
L58910 28989
" />
<path d="M61800 30100
L61800 32100
" />
<path d="M61800 32100
L62800 32100
" />
<path d="M62800 32100
L62800 30100
" />
<path d="M62910 28989
L62910 29600
" />
<path d="M62800 30100
L61800 30100
" />
<path d="M61689 29600
L61689 28989
" />
<path d="M61689 28989
L62910 28989
" />
<path d="M65800 30100
L65800 32100
" />
<path d="M65800 32100
L66800 32100
" />
<path d="M66800 32100
L66800 30100
" />
<path d="M66910 28989
L66910 29600
" />
<path d="M66800 30100
L65800 30100
" />
<path d="M65689 29600
L65689 28989
" />
<path d="M65689 28989
L66910 28989
" />
<path d="M53700 30100
L53700 32100
" />
<path d="M53700 32100
L54700 32100
" />
<path d="M54700 32100
L54700 30100
" />
<path d="M54810 28989
L54810 29600
" />
<path d="M54700 30100
L53700 30100
" />
<path d="M53589 29600
L53589 28989
" />
<path d="M53589 28989
L54810 28989
" />
<path d="M67974 50368
L64431 52730
" />
<path d="M64431 52730
L62068 52730
" />
<path d="M62068 52730
L58525 50368
" />
<path d="M58525 50368
L58525 40131
" />
<path d="M67974 50368
L67974 40131
" />
<path d="M67580 39935
L58919 39935
" />
<path d="M64772 28711
L64772 30088
" />
<path d="M63807 28711
L63807 30088
" />
<path d="M56772 28711
L56772 30088
" />
<path d="M55807 28711
L55807 30088
" />
<path d="M60772 28711
L60772 30088
" />
<path d="M59807 28711
L59807 30088
" />
<path d="M52572 28711
L52572 30088
" />
<path d="M51607 28711
L51607 30088
" />
<path d="M42334 40946
L42334 40553
" />
<path d="M41665 40553
L41665 40946
" />
<path d="M46165 40553
L46165 40946
" />
<path d="M46834 40946
L46834 40553
" />
<path d="M49415 30053
L49415 30446
" />
<path d="M50084 30446
L50084 30053
" />
</g>
<g style="fill:#000000; fill-opacity:1.0; 
stroke:#000000; stroke-width:39.3701; stroke-opacity:1; 
stroke-linecap:round; stroke-linejoin:round;">
<polyline style="fill-rule:evenodd;"
points="50454,42133
50252,42171
50145,42191
50070,42203
50044,42205
50033,42173
50005,42086
49963,41954
49910,41786
49849,41590
49815,41483
49750,41276
49692,41092
49644,40940
49608,40828
49587,40766
49583,40757
49570,40783
49539,40863
49494,40986
49437,41143
49383,41298
49320,41477
49265,41631
49220,41751
49191,41827
49180,41850
49157,41825
49098,41757
49012,41655
48904,41526
48814,41416
48695,41273
48591,41150
48509,41055
48457,40997
48441,40983
48437,41014
48436,41100
48438,41229
48442,41388
48448,41567
48456,41753
48465,41934
48474,42098
48484,42234
48487,42271
48497,42368
48496,42431
48475,42469
48420,42493
48321,42513
48191,42535
48066,42557
48066,42345
48065,42255
48061,42109
48055,41920
48048,41697
48039,41453
48029,41206
48020,40965
48012,40746
48007,40559
48003,40411
48002,40312
48004,40269
48004,40269
48041,40258
48122,40243
48171,40236
48326,40213
48684,40666
48800,40813
48903,40938
48984,41034
49037,41092
49054,41106
49069,41071
49101,40984
49146,40855
49201,40694
49245,40562
49422,40033
49584,39992
49677,39970
49739,39959
49752,39959
49763,39991
49792,40080
49837,40217
49895,40396
49964,40608
50041,40848
50106,41050
50454,42133
50454,42133
" /> 
<polyline style="fill-rule:evenodd;"
points="51947,41731
51939,41790
51934,41798
51850,41861
51718,41917
51556,41963
51383,41995
51218,42008
51079,41999
51033,41987
50814,41886
50647,41746
50533,41563
50469,41338
50454,41150
50457,40996
50475,40883
50512,40786
50524,40761
50655,40582
50826,40451
51029,40374
51253,40356
51308,40361
51509,40416
51674,40523
51798,40678
51874,40872
51892,40984
51899,41081
51889,41131
51852,41153
51795,41165
51714,41179
51588,41202
51437,41229
51343,41246
51181,41273
51074,41285
51010,41278
50978,41248
50967,41192
50966,41131
50967,41093
50979,41067
51012,41047
51079,41028
51191,41004
51306,40982
51422,40953
51474,40916
51468,40861
51406,40778
51389,40758
51294,40697
51179,40685
51061,40713
50956,40777
50882,40867
50855,40968
50863,41156
50891,41323
50936,41452
50974,41508
51094,41610
51226,41665
51376,41673
51554,41632
51766,41545
51873,41491
51898,41507
51922,41567
51940,41650
51947,41731
51947,41731
" /> 
<polyline style="fill-rule:evenodd;"
points="52885,39487
52882,39551
52869,39651
52845,39794
52808,39989
52778,40146
52744,40331
52714,40519
52692,40687
52681,40796
52665,40942
52641,41086
52618,41183
52584,41310
52556,41438
52551,41466
52528,41610
52508,41702
52483,41754
52447,41780
52393,41795
52373,41798
52268,41819
52180,41837
52175,41839
52116,41842
52099,41828
52104,41790
52118,41693
52142,41546
52172,41356
52209,41132
52251,40879
52290,40642
52482,39484
52657,39448
52761,39431
52840,39427
52866,39433
52880,39450
52885,39487
52885,39487
" /> 
<polyline style="fill-rule:evenodd;"
points="54033,41490
54003,41507
53929,41526
53891,41532
53789,41550
53709,41566
53694,41570
53655,41560
53606,41507
53539,41403
53500,41334
53419,41199
53352,41113
53306,41083
53305,41083
53247,41089
53144,41105
53017,41127
53000,41131
52879,41151
52786,41164
52739,41165
52736,41164
52733,41126
52741,41043
52752,40959
52783,40767
52949,40740
53046,40722
53112,40706
53127,40700
53117,40668
53080,40593
53023,40489
53002,40454
52866,40221
52904,39960
52924,39831
52945,39726
52961,39664
52963,39658
52983,39678
53030,39748
53101,39860
53190,40005
53292,40176
53403,40363
53518,40559
53633,40756
53741,40946
53839,41119
53922,41269
53985,41386
54023,41463
54033,41490
54033,41490
" /> 
<polyline style="fill-rule:evenodd;"
points="54800,39898
54798,40003
54785,40059
54752,40086
54686,40101
54684,40101
54577,40140
54481,40206
54417,40283
54401,40340
54407,40392
54424,40497
54448,40642
54478,40813
54495,40906
54587,41412
54452,41433
54351,41451
54273,41467
54262,41470
54211,41456
54189,41409
54171,41321
54146,41190
54117,41027
54085,40842
54052,40648
54020,40454
53991,40274
53967,40117
53949,39994
53940,39918
53940,39898
53982,39881
54063,39863
54156,39847
54237,39839
54281,39842
54282,39843
54297,39887
54300,39925
54306,39958
54332,39955
54390,39910
54420,39884
54563,39779
54694,39724
54752,39716
54781,39735
54796,39799
54800,39898
54800,39898
" /> 
<polyline style="fill-rule:evenodd;"
points="57630,40857
57629,40865
57592,40877
57510,40895
57442,40909
57372,40922
57322,40929
57285,40918
57259,40883
57236,40814
57213,40702
57185,40539
57164,40416
57123,40194
57086,40028
57049,39907
57009,39823
56961,39765
56919,39732
56810,39694
56689,39701
56576,39747
56491,39823
56458,39898
56458,39959
56469,40072
56489,40224
56516,40401
56534,40508
56572,40734
56594,40902
56601,41009
56593,41053
56592,41054
56546,41069
56464,41086
56371,41101
56291,41110
56250,41109
56248,41108
56240,41074
56223,40986
56199,40855
56170,40694
56155,40604
56108,40360
56064,40176
56019,40043
55969,39954
55913,39901
55865,39882
55738,39876
55602,39909
55494,39971
55494,39971
55466,40001
55448,40037
55440,40089
55442,40167
55454,40278
55477,40432
55512,40638
55536,40773
55563,40936
55584,41074
55596,41174
55599,41225
55598,41228
55559,41240
55476,41256
55409,41265
55307,41277
55253,41272
55228,41246
55218,41211
55195,41100
55167,40951
55136,40774
55103,40582
55070,40385
55040,40195
55014,40023
54993,39882
54981,39782
54978,39735
54978,39733
55018,39702
55098,39676
55122,39671
55218,39665
55275,39688
55291,39706
55325,39740
55360,39732
55408,39691
55549,39601
55722,39554
55906,39554
56079,39602
56111,39618
56238,39686
56305,39600
56413,39503
56561,39422
56725,39370
56756,39364
56947,39365
57121,39425
57270,39540
57386,39702
57447,39856
57471,39953
57500,40085
57530,40239
57561,40401
57589,40557
57611,40695
57626,40799
57630,40857
57630,40857
" /> 
<polyline style="fill-rule:evenodd;"
points="57102,37567
57063,37800
57005,37920
56905,38049
56779,38169
56645,38264
56546,38309
56469,38322
56340,38333
56155,38341
55912,38346
55607,38349
55429,38349
55147,38349
54924,38348
54751,38346
54619,38342
54520,38336
54446,38326
54389,38313
54339,38296
54290,38274
54279,38269
54243,38252
54209,38235
54176,38214
54138,38186
54093,38146
54039,38091
53970,38018
53885,37923
53779,37802
53651,37652
53495,37469
53310,37249
53092,36989
52837,36685
52550,36342
52350,36105
52164,35885
51995,35688
51847,35518
51726,35381
51634,35280
51578,35222
51560,35210
51545,35245
51509,35336
51455,35480
51384,35669
51299,35898
51202,36161
51094,36454
50978,36770
50883,37033
50717,37486
50572,37877
50448,38206
50344,38474
50260,38683
50196,38832
50151,38924
50135,38950
49987,39087
49800,39189
49595,39243
49502,39250
49337,39235
49184,39183
49131,39158
48952,39035
48813,38872
48720,38683
48679,38482
48693,38296
48710,38241
48748,38130
48804,37968
48877,37761
48965,37515
49065,37236
49174,36931
49292,36604
49416,36263
49543,35912
49672,35558
49800,35207
49925,34865
50046,34537
50159,34230
50262,33949
50355,33701
50433,33491
50496,33326
50541,33210
50565,33151
50567,33149
50681,32991
50841,32862
51029,32772
51227,32728
51376,32733
51438,32743
51494,32754
51547,32771
51602,32795
51661,32832
51728,32883
51805,32953
51897,33045
52007,33162
52138,33308
52292,33485
52475,33699
52689,33951
52936,34245
53222,34585
53404,34802
55009,36716
55709,36716
55980,36717
56194,36722
56361,36732
56490,36751
56593,36779
56677,36819
56754,36874
56832,36946
56855,36968
57000,37151
57082,37349
57102,37567
57102,37567
" /> 
<polyline style="fill-rule:evenodd;"
points="69990,33169
69990,34030
69409,34030
69409,33169
69990,33169
" /> 
</g>
<g style="fill:#000000; fill-opacity:1.0; 
stroke:#000000; stroke-width:620; stroke-opacity:1; 
stroke-linecap:round; stroke-linejoin:round;">
</g>
<g style="fill:#000000; fill-opacity:0.0; 
stroke:#000000; stroke-width:620; stroke-opacity:1; 
stroke-linecap:round; stroke-linejoin:round;">
<path d="M68700 33740
L68700 33460
" />
<path d="M67700 33740
L67700 33460
" />
<path d="M66700 33740
L66700 33460
" />
<path d="M65700 33740
L65700 33460
" />
<path d="M64700 33740
L64700 33460
" />
<path d="M63700 33740
L63700 33460
" />
<path d="M62700 33740
L62700 33460
" />
<path d="M61700 33740
L61700 33460
" />
<path d="M60700 33740
L60700 33460
" />
<path d="M59700 33740
L59700 33460
" />
<path d="M58700 33740
L58700 33460
" />
<path d="M58700 39740
L58700 39460
" />
<path d="M59700 39740
L59700 39460
" />
<path d="M60700 39740
L60700 39460
" />
<path d="M61700 39740
L61700 39460
" />
<path d="M62700 39740
L62700 39460
" />
<path d="M63700 39740
L63700 39460
" />
<path d="M64700 39740
L64700 39460
" />
<path d="M65700 39740
L65700 39460
" />
<path d="M66700 39740
L66700 39460
" />
<path d="M67700 39740
L67700 39460
" />
<path d="M68700 39740
L68700 39460
" />
<path d="M69700 39740
L69700 39460
" />
</g>
<g style="fill:#000000; fill-opacity:0.0; 
stroke:#000000; stroke-width:39.3701; stroke-opacity:1; 
stroke-linecap:round; stroke-linejoin:round;">
</g>
<g style="fill:#000000; fill-opacity:1.0; 
stroke:#000000; stroke-width:39.3701; stroke-opacity:1; 
stroke-linecap:round; stroke-linejoin:round;">
<circle cx="38950" cy="50650" r="39.3701" /> 
<circle cx="38800" cy="50650" r="39.3701" /> 
<circle cx="38650" cy="50650" r="39.3701" /> 
<circle cx="38500" cy="50650" r="39.3701" /> 
<circle cx="38350" cy="50650" r="39.3701" /> 
<circle cx="67850" cy="50650" r="39.3701" /> 
<circle cx="67700" cy="50650" r="39.3701" /> 
<circle cx="67550" cy="50650" r="39.3701" /> 
<circle cx="67400" cy="50650" r="39.3701" /> 
<circle cx="67250" cy="50650" r="39.3701" /> 
<circle cx="46700" cy="28550" r="39.3701" /> 
<circle cx="41200" cy="45100" r="374.016" /> 
<circle cx="42200" cy="45182.7" r="374.016" /> 
<circle cx="43200" cy="45100" r="374.016" /> 
<circle cx="44207.9" cy="45182.7" r="374.016" /> 
<circle cx="45200" cy="45100" r="374.016" /> 
<circle cx="46215.7" cy="45182.7" r="374.016" /> 
<circle cx="47200" cy="45100" r="374.016" /> 
<polyline style="fill-rule:evenodd;"
points="47829,45537
47829,44788
48577,44788
48577,45537
47829,45537
" /> 
<polyline style="fill-rule:evenodd;"
points="51520,49920
50879,49920
50879,49279
51520,49279
51520,49920
" /> 
</g>
<g style="fill:#000000; fill-opacity:1.0; 
stroke:#000000; stroke-width:680; stroke-opacity:1; 
stroke-linecap:round; stroke-linejoin:round;">
</g>
<g style="fill:#000000; fill-opacity:0.0; 
stroke:#000000; stroke-width:680; stroke-opacity:1; 
stroke-linecap:round; stroke-linejoin:round;">
<path d="M51200 48600
L51200 48600
" />
<path d="M52200 49600
L52200 49600
" />
<path d="M52200 48600
L52200 48600
" />
<path d="M53200 49600
L53200 49600
" />
<path d="M53200 48600
L53200 48600
" />
<path d="M54200 49600
L54200 49600
" />
<path d="M54200 48600
L54200 48600
" />
<path d="M55200 49600
L55200 49600
" />
<path d="M55200 48600
L55200 48600
" />
</g>
<g style="fill:#000000; fill-opacity:0.0; 
stroke:#000000; stroke-width:39.3701; stroke-opacity:1; 
stroke-linecap:round; stroke-linejoin:round;">
</g>
<g style="fill:#000000; fill-opacity:1.0; 
stroke:#000000; stroke-width:39.3701; stroke-opacity:1; 
stroke-linecap:round; stroke-linejoin:round;">
<circle cx="38200" cy="49100" r="925.315" /> 
<polyline style="fill-rule:evenodd;"
points="39125,47625
37274,47625
37274,45774
39125,45774
39125,47625
" /> 
<circle cx="40200" cy="48200" r="925.315" /> 
<polyline style="fill-rule:evenodd;"
points="57919,29920
57919,29279
58680,29279
58680,29920
57919,29920
" /> 
</g>
<g style="fill:#000000; fill-opacity:1.0; 
stroke:#000000; stroke-width:680; stroke-opacity:1; 
stroke-linecap:round; stroke-linejoin:round;">
</g>
<g style="fill:#000000; fill-opacity:0.0; 
stroke:#000000; stroke-width:680; stroke-opacity:1; 
stroke-linecap:round; stroke-linejoin:round;">
<path d="M58240 30600
L58360 30600
" />
<path d="M58240 31600
L58360 31600
" />
</g>
<g style="fill:#000000; fill-opacity:0.0; 
stroke:#000000; stroke-width:39.3701; stroke-opacity:1; 
stroke-linecap:round; stroke-linejoin:round;">
</g>
<g style="fill:#000000; fill-opacity:1.0; 
stroke:#000000; stroke-width:39.3701; stroke-opacity:1; 
stroke-linecap:round; stroke-linejoin:round;">
<polyline style="fill-rule:evenodd;"
points="61919,29920
61919,29279
62680,29279
62680,29920
61919,29920
" /> 
</g>
<g style="fill:#000000; fill-opacity:1.0; 
stroke:#000000; stroke-width:680; stroke-opacity:1; 
stroke-linecap:round; stroke-linejoin:round;">
</g>
<g style="fill:#000000; fill-opacity:0.0; 
stroke:#000000; stroke-width:680; stroke-opacity:1; 
stroke-linecap:round; stroke-linejoin:round;">
<path d="M62240 30600
L62360 30600
" />
<path d="M62240 31600
L62360 31600
" />
</g>
<g style="fill:#000000; fill-opacity:0.0; 
stroke:#000000; stroke-width:39.3701; stroke-opacity:1; 
stroke-linecap:round; stroke-linejoin:round;">
</g>
<g style="fill:#000000; fill-opacity:1.0; 
stroke:#000000; stroke-width:39.3701; stroke-opacity:1; 
stroke-linecap:round; stroke-linejoin:round;">
<polyline style="fill-rule:evenodd;"
points="65919,29920
65919,29279
66680,29279
66680,29920
65919,29920
" /> 
</g>
<g style="fill:#000000; fill-opacity:1.0; 
stroke:#000000; stroke-width:680; stroke-opacity:1; 
stroke-linecap:round; stroke-linejoin:round;">
</g>
<g style="fill:#000000; fill-opacity:0.0; 
stroke:#000000; stroke-width:680; stroke-opacity:1; 
stroke-linecap:round; stroke-linejoin:round;">
<path d="M66240 30600
L66360 30600
" />
<path d="M66240 31600
L66360 31600
" />
</g>
<g style="fill:#000000; fill-opacity:0.0; 
stroke:#000000; stroke-width:39.3701; stroke-opacity:1; 
stroke-linecap:round; stroke-linejoin:round;">
</g>
<g style="fill:#000000; fill-opacity:1.0; 
stroke:#000000; stroke-width:39.3701; stroke-opacity:1; 
stroke-linecap:round; stroke-linejoin:round;">
<polyline style="fill-rule:evenodd;"
points="53819,29920
53819,29279
54580,29279
54580,29920
53819,29920
" /> 
</g>
<g style="fill:#000000; fill-opacity:1.0; 
stroke:#000000; stroke-width:680; stroke-opacity:1; 
stroke-linecap:round; stroke-linejoin:round;">
</g>
<g style="fill:#000000; fill-opacity:0.0; 
stroke:#000000; stroke-width:680; stroke-opacity:1; 
stroke-linecap:round; stroke-linejoin:round;">
<path d="M54140 30600
L54260 30600
" />
<path d="M54140 31600
L54260 31600
" />
</g>
<g style="fill:#000000; fill-opacity:0.0; 
stroke:#000000; stroke-width:39.3701; stroke-opacity:1; 
stroke-linecap:round; stroke-linejoin:round;">
</g>
<g style="fill:#000000; fill-opacity:1.0; 
stroke:#000000; stroke-width:39.3701; stroke-opacity:1; 
stroke-linecap:round; stroke-linejoin:round;">
<circle cx="67580.7" cy="49777.6" r="275.591" /> 
<circle cx="67580.7" cy="48990.2" r="275.591" /> 
<circle cx="67580.7" cy="48202.8" r="275.591" /> 
<circle cx="67580.7" cy="47415.4" r="275.591" /> 
<circle cx="67580.7" cy="46628" r="275.591" /> 
<circle cx="67580.7" cy="45840.6" r="275.591" /> 
<circle cx="67580.7" cy="45053.1" r="275.591" /> 
<circle cx="67580.7" cy="44265.7" r="275.591" /> 
<circle cx="67580.7" cy="43478.3" r="275.591" /> 
<circle cx="67580.7" cy="42690.9" r="275.591" /> 
<circle cx="58919.3" cy="42690.9" r="275.591" /> 
<circle cx="58919.3" cy="43478.3" r="275.591" /> 
<circle cx="58919.3" cy="44265.7" r="275.591" /> 
<circle cx="58919.3" cy="45053.1" r="275.591" /> 
<circle cx="58919.3" cy="45840.6" r="275.591" /> 
<circle cx="58919.3" cy="46628" r="275.591" /> 
<circle cx="58919.3" cy="47415.4" r="275.591" /> 
<circle cx="58919.3" cy="48202.8" r="275.591" /> 
<circle cx="58919.3" cy="48990.2" r="275.591" /> 
<circle cx="58919.3" cy="49777.6" r="275.591" /> 
<circle cx="37750" cy="30250" r="767.717" /> 
<circle cx="68750" cy="30000" r="767.717" /> 
<circle cx="39500" cy="44500" r="767.717" /> 
<circle cx="65500" cy="43750" r="767.717" /> 
<circle cx="46850" cy="28550" r="39.3701" /> 
<circle cx="47000" cy="28550" r="39.3701" /> 
<circle cx="47150" cy="28550" r="39.3701" /> 
<circle cx="47300" cy="28550" r="39.3701" /> 
</g> 
</svg>
