M48
;DRILL file {kicad (2015-01-16 BZR 5376)-product} date 3/31/2016 12:00:00 PM
;FORMAT={-:-/ absolute / inch / decimal}
FMAT,2
INCH,TZ
T1C0.012
T2C0.025
T3C0.032
T4C0.035
T5C0.039
T6C0.040
T7C0.118
%
G90
G05
M72
T1
X3.835Y-5.065
X3.85Y-5.065
X3.865Y-5.065
X3.88Y-5.065
X3.895Y-5.065
X4.67Y-2.855
X4.685Y-2.855
X4.7Y-2.855
X4.715Y-2.855
X4.73Y-2.855
X6.725Y-5.065
X6.74Y-5.065
X6.755Y-5.065
X6.77Y-5.065
X6.785Y-5.065
T2
X5.6988Y-4.5374
X5.8661Y-4.6949
X6.1909Y-4.3701
X6.2303Y-4.685
T3
X5.7689Y-3.6567
X5.7689Y-4.2567
X5.8689Y-3.6567
X5.8689Y-4.2567
X5.9689Y-3.6567
X5.9689Y-4.2567
X6.0689Y-3.6567
X6.0689Y-4.2567
X6.1689Y-3.6567
X6.1689Y-4.2567
X6.2689Y-3.6567
X6.2689Y-4.2567
X6.3689Y-3.6567
X6.3689Y-4.2567
X6.4689Y-3.6567
X6.4689Y-4.2567
X6.5689Y-3.6567
X6.5689Y-4.2567
X6.6689Y-3.6567
X6.6689Y-4.2567
X6.7689Y-3.6567
X6.7689Y-4.2567
X6.8689Y-3.6567
X6.8689Y-4.2567
T4
X4.4Y-4.6
T5
X4.5Y-4.6083
X4.6Y-4.6
X4.7008Y-4.6083
X4.8Y-4.6
X4.9016Y-4.6083
X5.Y-4.6
X5.1004Y-4.6063
T6
X5.1181Y-4.8409
X5.1181Y-4.9409
X5.2181Y-4.8409
X5.2181Y-4.9409
X5.3181Y-4.8409
X5.3181Y-4.9409
X5.4181Y-4.8409
X5.4181Y-4.9409
X5.5181Y-4.8409
X5.5181Y-4.9409
X6.4604Y-2.9896
X6.4604Y-3.0896
X6.4604Y-3.1896
X6.5612Y-2.99
X6.5612Y-3.09
X6.5612Y-3.19
X6.6612Y-2.99
X6.6612Y-3.09
X6.6612Y-3.19
X6.7612Y-2.99
X6.7612Y-3.09
X6.7612Y-3.19
T7
X3.8386Y-2.9921
X3.8386Y-4.9213
X6.122Y-2.9921
X6.122Y-4.9213
T6
X6.6342Y-4.6813G85X6.7123Y-4.6813
G05
X6.6432Y-4.9213G85X6.7032Y-4.9213
G05
X6.8732Y-4.8613G85X6.8732Y-4.8013
G05
T0
M30
