G04 #@! TF.FileFunction,Legend,Bot*
%FSLAX46Y46*%
G04 Gerber Fmt 4.6, Leading zero omitted, Abs format (unit mm)*
G04 Created by KiCad (PCBNEW (2015-01-16 BZR 5376)-product) date 3/31/2016 11:59:57 AM*
%MOMM*%
G01*
G04 APERTURE LIST*
%ADD10C,0.100000*%
%ADD11C,0.300000*%
%ADD12C,2.000000*%
%ADD13R,2.000000X2.000000*%
%ADD14R,2.032000X1.727200*%
%ADD15O,2.032000X1.727200*%
%ADD16R,1.574800X2.286000*%
%ADD17O,1.574800X2.286000*%
%ADD18C,0.300000*%
%ADD19R,1.727200X1.727200*%
%ADD20O,1.727200X1.727200*%
%ADD21C,4.800600*%
%ADD22R,4.800600X4.800600*%
%ADD23C,3.000000*%
G04 APERTURE END LIST*
D10*
D11*
X161816427Y-151878571D02*
X161816427Y-150378571D01*
X161316427Y-151450000D01*
X160816427Y-150378571D01*
X160816427Y-151878571D01*
X159530713Y-151807143D02*
X159673570Y-151878571D01*
X159959284Y-151878571D01*
X160102141Y-151807143D01*
X160173570Y-151664286D01*
X160173570Y-151092857D01*
X160102141Y-150950000D01*
X159959284Y-150878571D01*
X159673570Y-150878571D01*
X159530713Y-150950000D01*
X159459284Y-151092857D01*
X159459284Y-151235714D01*
X160173570Y-151378571D01*
X158887856Y-151450000D02*
X158173570Y-151450000D01*
X159030713Y-151878571D02*
X158530713Y-150378571D01*
X158030713Y-151878571D01*
X157530713Y-151878571D02*
X157530713Y-150878571D01*
X157530713Y-151164286D02*
X157459285Y-151021429D01*
X157387856Y-150950000D01*
X157244999Y-150878571D01*
X157102142Y-150878571D01*
X156602142Y-151878571D02*
X156602142Y-150878571D01*
X156602142Y-151021429D02*
X156530714Y-150950000D01*
X156387856Y-150878571D01*
X156173571Y-150878571D01*
X156030714Y-150950000D01*
X155959285Y-151092857D01*
X155959285Y-151878571D01*
X155959285Y-151092857D02*
X155887856Y-150950000D01*
X155744999Y-150878571D01*
X155530714Y-150878571D01*
X155387856Y-150950000D01*
X155316428Y-151092857D01*
X155316428Y-151878571D01*
X152744999Y-151878571D02*
X153459285Y-151878571D01*
X153459285Y-150378571D01*
X152244999Y-151878571D02*
X152244999Y-150878571D01*
X152244999Y-150378571D02*
X152316428Y-150450000D01*
X152244999Y-150521429D01*
X152173571Y-150450000D01*
X152244999Y-150378571D01*
X152244999Y-150521429D01*
X151530713Y-151878571D02*
X151530713Y-150878571D01*
X151530713Y-151021429D02*
X151459285Y-150950000D01*
X151316427Y-150878571D01*
X151102142Y-150878571D01*
X150959285Y-150950000D01*
X150887856Y-151092857D01*
X150887856Y-151878571D01*
X150887856Y-151092857D02*
X150816427Y-150950000D01*
X150673570Y-150878571D01*
X150459285Y-150878571D01*
X150316427Y-150950000D01*
X150244999Y-151092857D01*
X150244999Y-151878571D01*
X149530713Y-151878571D02*
X149530713Y-150878571D01*
X149530713Y-150378571D02*
X149602142Y-150450000D01*
X149530713Y-150521429D01*
X149459285Y-150450000D01*
X149530713Y-150378571D01*
X149530713Y-150521429D01*
X149030713Y-150878571D02*
X148459284Y-150878571D01*
X148816427Y-150378571D02*
X148816427Y-151664286D01*
X148744999Y-151807143D01*
X148602141Y-151878571D01*
X148459284Y-151878571D01*
X147387856Y-151807143D02*
X147530713Y-151878571D01*
X147816427Y-151878571D01*
X147959284Y-151807143D01*
X148030713Y-151664286D01*
X148030713Y-151092857D01*
X147959284Y-150950000D01*
X147816427Y-150878571D01*
X147530713Y-150878571D01*
X147387856Y-150950000D01*
X147316427Y-151092857D01*
X147316427Y-151235714D01*
X148030713Y-151378571D01*
X146030713Y-151878571D02*
X146030713Y-150378571D01*
X146030713Y-151807143D02*
X146173570Y-151878571D01*
X146459284Y-151878571D01*
X146602142Y-151807143D01*
X146673570Y-151735714D01*
X146744999Y-151592857D01*
X146744999Y-151164286D01*
X146673570Y-151021429D01*
X146602142Y-150950000D01*
X146459284Y-150878571D01*
X146173570Y-150878571D01*
X146030713Y-150950000D01*
X144244999Y-150521429D02*
X144173570Y-150450000D01*
X144030713Y-150378571D01*
X143673570Y-150378571D01*
X143530713Y-150450000D01*
X143459284Y-150521429D01*
X143387856Y-150664286D01*
X143387856Y-150807143D01*
X143459284Y-151021429D01*
X144316427Y-151878571D01*
X143387856Y-151878571D01*
X142459285Y-150378571D02*
X142316428Y-150378571D01*
X142173571Y-150450000D01*
X142102142Y-150521429D01*
X142030713Y-150664286D01*
X141959285Y-150950000D01*
X141959285Y-151307143D01*
X142030713Y-151592857D01*
X142102142Y-151735714D01*
X142173571Y-151807143D01*
X142316428Y-151878571D01*
X142459285Y-151878571D01*
X142602142Y-151807143D01*
X142673571Y-151735714D01*
X142744999Y-151592857D01*
X142816428Y-151307143D01*
X142816428Y-150950000D01*
X142744999Y-150664286D01*
X142673571Y-150521429D01*
X142602142Y-150450000D01*
X142459285Y-150378571D01*
X140530714Y-151878571D02*
X141387857Y-151878571D01*
X140959285Y-151878571D02*
X140959285Y-150378571D01*
X141102142Y-150592857D01*
X141245000Y-150735714D01*
X141387857Y-150807143D01*
X139245000Y-150378571D02*
X139530714Y-150378571D01*
X139673571Y-150450000D01*
X139745000Y-150521429D01*
X139887857Y-150735714D01*
X139959286Y-151021429D01*
X139959286Y-151592857D01*
X139887857Y-151735714D01*
X139816429Y-151807143D01*
X139673571Y-151878571D01*
X139387857Y-151878571D01*
X139245000Y-151807143D01*
X139173571Y-151735714D01*
X139102143Y-151592857D01*
X139102143Y-151235714D01*
X139173571Y-151092857D01*
X139245000Y-151021429D01*
X139387857Y-150950000D01*
X139673571Y-150950000D01*
X139816429Y-151021429D01*
X139887857Y-151092857D01*
X139959286Y-151235714D01*
X157744999Y-154135714D02*
X157816428Y-154207143D01*
X158030714Y-154278571D01*
X158173571Y-154278571D01*
X158387856Y-154207143D01*
X158530714Y-154064286D01*
X158602142Y-153921429D01*
X158673571Y-153635714D01*
X158673571Y-153421429D01*
X158602142Y-153135714D01*
X158530714Y-152992857D01*
X158387856Y-152850000D01*
X158173571Y-152778571D01*
X158030714Y-152778571D01*
X157816428Y-152850000D01*
X157744999Y-152921429D01*
X156244999Y-154135714D02*
X156316428Y-154207143D01*
X156530714Y-154278571D01*
X156673571Y-154278571D01*
X156887856Y-154207143D01*
X157030714Y-154064286D01*
X157102142Y-153921429D01*
X157173571Y-153635714D01*
X157173571Y-153421429D01*
X157102142Y-153135714D01*
X157030714Y-152992857D01*
X156887856Y-152850000D01*
X156673571Y-152778571D01*
X156530714Y-152778571D01*
X156316428Y-152850000D01*
X156244999Y-152921429D01*
X155602142Y-153707143D02*
X154459285Y-153707143D01*
X153244999Y-153492857D02*
X153030713Y-153564286D01*
X152959285Y-153635714D01*
X152887856Y-153778571D01*
X152887856Y-153992857D01*
X152959285Y-154135714D01*
X153030713Y-154207143D01*
X153173571Y-154278571D01*
X153744999Y-154278571D01*
X153744999Y-152778571D01*
X153244999Y-152778571D01*
X153102142Y-152850000D01*
X153030713Y-152921429D01*
X152959285Y-153064286D01*
X152959285Y-153207143D01*
X153030713Y-153350000D01*
X153102142Y-153421429D01*
X153244999Y-153492857D01*
X153744999Y-153492857D01*
X151959285Y-153564286D02*
X151959285Y-154278571D01*
X152459285Y-152778571D02*
X151959285Y-153564286D01*
X151459285Y-152778571D01*
X150959285Y-153707143D02*
X149816428Y-153707143D01*
X149173571Y-154207143D02*
X148959285Y-154278571D01*
X148602142Y-154278571D01*
X148459285Y-154207143D01*
X148387856Y-154135714D01*
X148316428Y-153992857D01*
X148316428Y-153850000D01*
X148387856Y-153707143D01*
X148459285Y-153635714D01*
X148602142Y-153564286D01*
X148887856Y-153492857D01*
X149030714Y-153421429D01*
X149102142Y-153350000D01*
X149173571Y-153207143D01*
X149173571Y-153064286D01*
X149102142Y-152921429D01*
X149030714Y-152850000D01*
X148887856Y-152778571D01*
X148530714Y-152778571D01*
X148316428Y-152850000D01*
X147745000Y-153850000D02*
X147030714Y-153850000D01*
X147887857Y-154278571D02*
X147387857Y-152778571D01*
X146887857Y-154278571D01*
X145387857Y-152778571D02*
X144459286Y-152778571D01*
X144959286Y-153350000D01*
X144745000Y-153350000D01*
X144602143Y-153421429D01*
X144530714Y-153492857D01*
X144459286Y-153635714D01*
X144459286Y-153992857D01*
X144530714Y-154135714D01*
X144602143Y-154207143D01*
X144745000Y-154278571D01*
X145173572Y-154278571D01*
X145316429Y-154207143D01*
X145387857Y-154135714D01*
X143816429Y-154135714D02*
X143745001Y-154207143D01*
X143816429Y-154278571D01*
X143887858Y-154207143D01*
X143816429Y-154135714D01*
X143816429Y-154278571D01*
X142816429Y-152778571D02*
X142673572Y-152778571D01*
X142530715Y-152850000D01*
X142459286Y-152921429D01*
X142387857Y-153064286D01*
X142316429Y-153350000D01*
X142316429Y-153707143D01*
X142387857Y-153992857D01*
X142459286Y-154135714D01*
X142530715Y-154207143D01*
X142673572Y-154278571D01*
X142816429Y-154278571D01*
X142959286Y-154207143D01*
X143030715Y-154135714D01*
X143102143Y-153992857D01*
X143173572Y-153707143D01*
X143173572Y-153350000D01*
X143102143Y-153064286D01*
X143030715Y-152921429D01*
X142959286Y-152850000D01*
X142816429Y-152778571D01*
X176823714Y-94778571D02*
X176466571Y-96278571D01*
X176180857Y-95207143D01*
X175895143Y-96278571D01*
X175538000Y-94778571D01*
X174966571Y-96278571D02*
X174966571Y-95278571D01*
X174966571Y-94778571D02*
X175038000Y-94850000D01*
X174966571Y-94921429D01*
X174895143Y-94850000D01*
X174966571Y-94778571D01*
X174966571Y-94921429D01*
X174466571Y-95278571D02*
X173895142Y-95278571D01*
X174252285Y-94778571D02*
X174252285Y-96064286D01*
X174180857Y-96207143D01*
X174037999Y-96278571D01*
X173895142Y-96278571D01*
X173395142Y-96278571D02*
X173395142Y-94778571D01*
X172752285Y-96278571D02*
X172752285Y-95492857D01*
X172823714Y-95350000D01*
X172966571Y-95278571D01*
X173180856Y-95278571D01*
X173323714Y-95350000D01*
X173395142Y-95421429D01*
X171109428Y-95278571D02*
X170537999Y-95278571D01*
X170895142Y-94778571D02*
X170895142Y-96064286D01*
X170823714Y-96207143D01*
X170680856Y-96278571D01*
X170537999Y-96278571D01*
X170037999Y-96278571D02*
X170037999Y-94778571D01*
X169395142Y-96278571D02*
X169395142Y-95492857D01*
X169466571Y-95350000D01*
X169609428Y-95278571D01*
X169823713Y-95278571D01*
X169966571Y-95350000D01*
X170037999Y-95421429D01*
X168037999Y-96278571D02*
X168037999Y-95492857D01*
X168109428Y-95350000D01*
X168252285Y-95278571D01*
X168537999Y-95278571D01*
X168680856Y-95350000D01*
X168037999Y-96207143D02*
X168180856Y-96278571D01*
X168537999Y-96278571D01*
X168680856Y-96207143D01*
X168752285Y-96064286D01*
X168752285Y-95921429D01*
X168680856Y-95778571D01*
X168537999Y-95707143D01*
X168180856Y-95707143D01*
X168037999Y-95635714D01*
X167323713Y-95278571D02*
X167323713Y-96278571D01*
X167323713Y-95421429D02*
X167252285Y-95350000D01*
X167109427Y-95278571D01*
X166895142Y-95278571D01*
X166752285Y-95350000D01*
X166680856Y-95492857D01*
X166680856Y-96278571D01*
X165966570Y-96278571D02*
X165966570Y-94778571D01*
X165823713Y-95707143D02*
X165395142Y-96278571D01*
X165395142Y-95278571D02*
X165966570Y-95850000D01*
X164823713Y-96207143D02*
X164680856Y-96278571D01*
X164395141Y-96278571D01*
X164252284Y-96207143D01*
X164180856Y-96064286D01*
X164180856Y-95992857D01*
X164252284Y-95850000D01*
X164395141Y-95778571D01*
X164609427Y-95778571D01*
X164752284Y-95707143D01*
X164823713Y-95564286D01*
X164823713Y-95492857D01*
X164752284Y-95350000D01*
X164609427Y-95278571D01*
X164395141Y-95278571D01*
X164252284Y-95350000D01*
X162609427Y-95278571D02*
X162037998Y-95278571D01*
X162395141Y-94778571D02*
X162395141Y-96064286D01*
X162323713Y-96207143D01*
X162180855Y-96278571D01*
X162037998Y-96278571D01*
X161323712Y-96278571D02*
X161466570Y-96207143D01*
X161537998Y-96135714D01*
X161609427Y-95992857D01*
X161609427Y-95564286D01*
X161537998Y-95421429D01*
X161466570Y-95350000D01*
X161323712Y-95278571D01*
X161109427Y-95278571D01*
X160966570Y-95350000D01*
X160895141Y-95421429D01*
X160823712Y-95564286D01*
X160823712Y-95992857D01*
X160895141Y-96135714D01*
X160966570Y-96207143D01*
X161109427Y-96278571D01*
X161323712Y-96278571D01*
X160180855Y-96135714D02*
X160109427Y-96207143D01*
X160180855Y-96278571D01*
X160252284Y-96207143D01*
X160180855Y-96135714D01*
X160180855Y-96278571D01*
X160180855Y-95350000D02*
X160109427Y-95421429D01*
X160180855Y-95492857D01*
X160252284Y-95421429D01*
X160180855Y-95350000D01*
X160180855Y-95492857D01*
X176252286Y-97178571D02*
X176252286Y-98250000D01*
X176323714Y-98464286D01*
X176466571Y-98607143D01*
X176680857Y-98678571D01*
X176823714Y-98678571D01*
X174895143Y-98678571D02*
X174895143Y-97892857D01*
X174966572Y-97750000D01*
X175109429Y-97678571D01*
X175395143Y-97678571D01*
X175538000Y-97750000D01*
X174895143Y-98607143D02*
X175038000Y-98678571D01*
X175395143Y-98678571D01*
X175538000Y-98607143D01*
X175609429Y-98464286D01*
X175609429Y-98321429D01*
X175538000Y-98178571D01*
X175395143Y-98107143D01*
X175038000Y-98107143D01*
X174895143Y-98035714D01*
X173538000Y-98607143D02*
X173680857Y-98678571D01*
X173966571Y-98678571D01*
X174109429Y-98607143D01*
X174180857Y-98535714D01*
X174252286Y-98392857D01*
X174252286Y-97964286D01*
X174180857Y-97821429D01*
X174109429Y-97750000D01*
X173966571Y-97678571D01*
X173680857Y-97678571D01*
X173538000Y-97750000D01*
X172895143Y-98678571D02*
X172895143Y-97178571D01*
X172752286Y-98107143D02*
X172323715Y-98678571D01*
X172323715Y-97678571D02*
X172895143Y-98250000D01*
X170538000Y-98678571D02*
X170538000Y-97178571D01*
X170538000Y-97892857D02*
X169680857Y-97892857D01*
X169680857Y-98678571D02*
X169680857Y-97178571D01*
X168895143Y-98607143D02*
X168895143Y-98678571D01*
X168966571Y-98821429D01*
X169038000Y-98892857D01*
X166609428Y-97892857D02*
X166395142Y-97964286D01*
X166323714Y-98035714D01*
X166252285Y-98178571D01*
X166252285Y-98392857D01*
X166323714Y-98535714D01*
X166395142Y-98607143D01*
X166538000Y-98678571D01*
X167109428Y-98678571D01*
X167109428Y-97178571D01*
X166609428Y-97178571D01*
X166466571Y-97250000D01*
X166395142Y-97321429D01*
X166323714Y-97464286D01*
X166323714Y-97607143D01*
X166395142Y-97750000D01*
X166466571Y-97821429D01*
X166609428Y-97892857D01*
X167109428Y-97892857D01*
X165038000Y-98607143D02*
X165180857Y-98678571D01*
X165466571Y-98678571D01*
X165609428Y-98607143D01*
X165680857Y-98464286D01*
X165680857Y-97892857D01*
X165609428Y-97750000D01*
X165466571Y-97678571D01*
X165180857Y-97678571D01*
X165038000Y-97750000D01*
X164966571Y-97892857D01*
X164966571Y-98035714D01*
X165680857Y-98178571D01*
X164323714Y-97678571D02*
X164323714Y-98678571D01*
X164323714Y-97821429D02*
X164252286Y-97750000D01*
X164109428Y-97678571D01*
X163895143Y-97678571D01*
X163752286Y-97750000D01*
X163680857Y-97892857D01*
X163680857Y-98678571D01*
X161823714Y-98678571D02*
X161823714Y-97178571D01*
X161252286Y-97178571D01*
X161109428Y-97250000D01*
X161038000Y-97321429D01*
X160966571Y-97464286D01*
X160966571Y-97678571D01*
X161038000Y-97821429D01*
X161109428Y-97892857D01*
X161252286Y-97964286D01*
X161823714Y-97964286D01*
X160252286Y-98607143D02*
X160252286Y-98678571D01*
X160323714Y-98821429D01*
X160395143Y-98892857D01*
X158680857Y-97178571D02*
X157823714Y-97178571D01*
X158252285Y-98678571D02*
X158252285Y-97178571D01*
X156752286Y-98607143D02*
X156895143Y-98678571D01*
X157180857Y-98678571D01*
X157323714Y-98607143D01*
X157395143Y-98464286D01*
X157395143Y-97892857D01*
X157323714Y-97750000D01*
X157180857Y-97678571D01*
X156895143Y-97678571D01*
X156752286Y-97750000D01*
X156680857Y-97892857D01*
X156680857Y-98035714D01*
X157395143Y-98178571D01*
X155395143Y-98678571D02*
X155395143Y-97178571D01*
X155395143Y-98607143D02*
X155538000Y-98678571D01*
X155823714Y-98678571D01*
X155966572Y-98607143D01*
X156038000Y-98535714D01*
X156109429Y-98392857D01*
X156109429Y-97964286D01*
X156038000Y-97821429D01*
X155966572Y-97750000D01*
X155823714Y-97678571D01*
X155538000Y-97678571D01*
X155395143Y-97750000D01*
X152823714Y-98678571D02*
X153538000Y-98678571D01*
X153538000Y-97178571D01*
X152252286Y-98607143D02*
X152252286Y-98678571D01*
X152323714Y-98821429D01*
X152395143Y-98892857D01*
X151680857Y-98607143D02*
X151466571Y-98678571D01*
X151109428Y-98678571D01*
X150966571Y-98607143D01*
X150895142Y-98535714D01*
X150823714Y-98392857D01*
X150823714Y-98250000D01*
X150895142Y-98107143D01*
X150966571Y-98035714D01*
X151109428Y-97964286D01*
X151395142Y-97892857D01*
X151538000Y-97821429D01*
X151609428Y-97750000D01*
X151680857Y-97607143D01*
X151680857Y-97464286D01*
X151609428Y-97321429D01*
X151538000Y-97250000D01*
X151395142Y-97178571D01*
X151038000Y-97178571D01*
X150823714Y-97250000D01*
X149538000Y-98607143D02*
X149680857Y-98678571D01*
X149966571Y-98678571D01*
X150109429Y-98607143D01*
X150180857Y-98535714D01*
X150252286Y-98392857D01*
X150252286Y-97964286D01*
X150180857Y-97821429D01*
X150109429Y-97750000D01*
X149966571Y-97678571D01*
X149680857Y-97678571D01*
X149538000Y-97750000D01*
X148680857Y-98678571D02*
X148823715Y-98607143D01*
X148895143Y-98535714D01*
X148966572Y-98392857D01*
X148966572Y-97964286D01*
X148895143Y-97821429D01*
X148823715Y-97750000D01*
X148680857Y-97678571D01*
X148466572Y-97678571D01*
X148323715Y-97750000D01*
X148252286Y-97821429D01*
X148180857Y-97964286D01*
X148180857Y-98392857D01*
X148252286Y-98535714D01*
X148323715Y-98607143D01*
X148466572Y-98678571D01*
X148680857Y-98678571D01*
X147752286Y-97678571D02*
X147180857Y-97678571D01*
X147538000Y-97178571D02*
X147538000Y-98464286D01*
X147466572Y-98607143D01*
X147323714Y-98678571D01*
X147180857Y-98678571D01*
X146895143Y-97678571D02*
X146323714Y-97678571D01*
X146680857Y-97178571D02*
X146680857Y-98464286D01*
X146609429Y-98607143D01*
X146466571Y-98678571D01*
X146323714Y-98678571D01*
X144680857Y-98678571D02*
X144680857Y-97178571D01*
X144109429Y-97178571D01*
X143966571Y-97250000D01*
X143895143Y-97321429D01*
X143823714Y-97464286D01*
X143823714Y-97678571D01*
X143895143Y-97821429D01*
X143966571Y-97892857D01*
X144109429Y-97964286D01*
X144680857Y-97964286D01*
X143109429Y-98607143D02*
X143109429Y-98678571D01*
X143180857Y-98821429D01*
X143252286Y-98892857D01*
X176895143Y-99578571D02*
X176395143Y-101078571D01*
X175895143Y-99578571D01*
X174752286Y-101078571D02*
X174752286Y-100292857D01*
X174823715Y-100150000D01*
X174966572Y-100078571D01*
X175252286Y-100078571D01*
X175395143Y-100150000D01*
X174752286Y-101007143D02*
X174895143Y-101078571D01*
X175252286Y-101078571D01*
X175395143Y-101007143D01*
X175466572Y-100864286D01*
X175466572Y-100721429D01*
X175395143Y-100578571D01*
X175252286Y-100507143D01*
X174895143Y-100507143D01*
X174752286Y-100435714D01*
X174038000Y-100078571D02*
X174038000Y-101078571D01*
X174038000Y-100221429D02*
X173966572Y-100150000D01*
X173823714Y-100078571D01*
X173609429Y-100078571D01*
X173466572Y-100150000D01*
X173395143Y-100292857D01*
X173395143Y-101078571D01*
X172038000Y-101007143D02*
X172180857Y-101078571D01*
X172466571Y-101078571D01*
X172609429Y-101007143D01*
X172680857Y-100935714D01*
X172752286Y-100792857D01*
X172752286Y-100364286D01*
X172680857Y-100221429D01*
X172609429Y-100150000D01*
X172466571Y-100078571D01*
X172180857Y-100078571D01*
X172038000Y-100150000D01*
X170823715Y-101007143D02*
X170966572Y-101078571D01*
X171252286Y-101078571D01*
X171395143Y-101007143D01*
X171466572Y-100864286D01*
X171466572Y-100292857D01*
X171395143Y-100150000D01*
X171252286Y-100078571D01*
X170966572Y-100078571D01*
X170823715Y-100150000D01*
X170752286Y-100292857D01*
X170752286Y-100435714D01*
X171466572Y-100578571D01*
X170038001Y-101007143D02*
X170038001Y-101078571D01*
X170109429Y-101221429D01*
X170180858Y-101292857D01*
X168323715Y-100650000D02*
X167609429Y-100650000D01*
X168466572Y-101078571D02*
X167966572Y-99578571D01*
X167466572Y-101078571D01*
X166966572Y-101078571D02*
X166966572Y-100078571D01*
X166966572Y-100364286D02*
X166895144Y-100221429D01*
X166823715Y-100150000D01*
X166680858Y-100078571D01*
X166538001Y-100078571D01*
X165395144Y-101078571D02*
X165395144Y-99578571D01*
X165395144Y-101007143D02*
X165538001Y-101078571D01*
X165823715Y-101078571D01*
X165966573Y-101007143D01*
X166038001Y-100935714D01*
X166109430Y-100792857D01*
X166109430Y-100364286D01*
X166038001Y-100221429D01*
X165966573Y-100150000D01*
X165823715Y-100078571D01*
X165538001Y-100078571D01*
X165395144Y-100150000D01*
X164038001Y-100078571D02*
X164038001Y-101078571D01*
X164680858Y-100078571D02*
X164680858Y-100864286D01*
X164609430Y-101007143D01*
X164466572Y-101078571D01*
X164252287Y-101078571D01*
X164109430Y-101007143D01*
X164038001Y-100935714D01*
X163323715Y-101078571D02*
X163323715Y-100078571D01*
X163323715Y-99578571D02*
X163395144Y-99650000D01*
X163323715Y-99721429D01*
X163252287Y-99650000D01*
X163323715Y-99578571D01*
X163323715Y-99721429D01*
X162609429Y-100078571D02*
X162609429Y-101078571D01*
X162609429Y-100221429D02*
X162538001Y-100150000D01*
X162395143Y-100078571D01*
X162180858Y-100078571D01*
X162038001Y-100150000D01*
X161966572Y-100292857D01*
X161966572Y-101078571D01*
X161038000Y-101078571D02*
X161180858Y-101007143D01*
X161252286Y-100935714D01*
X161323715Y-100792857D01*
X161323715Y-100364286D01*
X161252286Y-100221429D01*
X161180858Y-100150000D01*
X161038000Y-100078571D01*
X160823715Y-100078571D01*
X160680858Y-100150000D01*
X160609429Y-100221429D01*
X160538000Y-100364286D01*
X160538000Y-100792857D01*
X160609429Y-100935714D01*
X160680858Y-101007143D01*
X160823715Y-101078571D01*
X161038000Y-101078571D01*
X159823715Y-101007143D02*
X159823715Y-101078571D01*
X159895143Y-101221429D01*
X159966572Y-101292857D01*
X158109429Y-101007143D02*
X157895143Y-101078571D01*
X157538000Y-101078571D01*
X157395143Y-101007143D01*
X157323714Y-100935714D01*
X157252286Y-100792857D01*
X157252286Y-100650000D01*
X157323714Y-100507143D01*
X157395143Y-100435714D01*
X157538000Y-100364286D01*
X157823714Y-100292857D01*
X157966572Y-100221429D01*
X158038000Y-100150000D01*
X158109429Y-100007143D01*
X158109429Y-99864286D01*
X158038000Y-99721429D01*
X157966572Y-99650000D01*
X157823714Y-99578571D01*
X157466572Y-99578571D01*
X157252286Y-99650000D01*
X156609429Y-100078571D02*
X156609429Y-101578571D01*
X156609429Y-100150000D02*
X156466572Y-100078571D01*
X156180858Y-100078571D01*
X156038001Y-100150000D01*
X155966572Y-100221429D01*
X155895143Y-100364286D01*
X155895143Y-100792857D01*
X155966572Y-100935714D01*
X156038001Y-101007143D01*
X156180858Y-101078571D01*
X156466572Y-101078571D01*
X156609429Y-101007143D01*
X154609429Y-101078571D02*
X154609429Y-100292857D01*
X154680858Y-100150000D01*
X154823715Y-100078571D01*
X155109429Y-100078571D01*
X155252286Y-100150000D01*
X154609429Y-101007143D02*
X154752286Y-101078571D01*
X155109429Y-101078571D01*
X155252286Y-101007143D01*
X155323715Y-100864286D01*
X155323715Y-100721429D01*
X155252286Y-100578571D01*
X155109429Y-100507143D01*
X154752286Y-100507143D01*
X154609429Y-100435714D01*
X153895143Y-101078571D02*
X153895143Y-100078571D01*
X153895143Y-100364286D02*
X153823715Y-100221429D01*
X153752286Y-100150000D01*
X153609429Y-100078571D01*
X153466572Y-100078571D01*
X152966572Y-101078571D02*
X152966572Y-99578571D01*
X152823715Y-100507143D02*
X152395144Y-101078571D01*
X152395144Y-100078571D02*
X152966572Y-100650000D01*
X151966572Y-100078571D02*
X151395143Y-100078571D01*
X151752286Y-101078571D02*
X151752286Y-99792857D01*
X151680858Y-99650000D01*
X151538000Y-99578571D01*
X151395143Y-99578571D01*
X150252286Y-100078571D02*
X150252286Y-101078571D01*
X150895143Y-100078571D02*
X150895143Y-100864286D01*
X150823715Y-101007143D01*
X150680857Y-101078571D01*
X150466572Y-101078571D01*
X150323715Y-101007143D01*
X150252286Y-100935714D01*
X149538000Y-100078571D02*
X149538000Y-101078571D01*
X149538000Y-100221429D02*
X149466572Y-100150000D01*
X149323714Y-100078571D01*
X149109429Y-100078571D01*
X148966572Y-100150000D01*
X148895143Y-100292857D01*
X148895143Y-101078571D01*
X148109429Y-101007143D02*
X148109429Y-101078571D01*
X148180857Y-101221429D01*
X148252286Y-101292857D01*
X146395143Y-100650000D02*
X145680857Y-100650000D01*
X146538000Y-101078571D02*
X146038000Y-99578571D01*
X145538000Y-101078571D01*
X144395143Y-101078571D02*
X144395143Y-99578571D01*
X144395143Y-101007143D02*
X144538000Y-101078571D01*
X144823714Y-101078571D01*
X144966572Y-101007143D01*
X145038000Y-100935714D01*
X145109429Y-100792857D01*
X145109429Y-100364286D01*
X145038000Y-100221429D01*
X144966572Y-100150000D01*
X144823714Y-100078571D01*
X144538000Y-100078571D01*
X144395143Y-100150000D01*
X143038000Y-101078571D02*
X143038000Y-100292857D01*
X143109429Y-100150000D01*
X143252286Y-100078571D01*
X143538000Y-100078571D01*
X143680857Y-100150000D01*
X143038000Y-101007143D02*
X143180857Y-101078571D01*
X143538000Y-101078571D01*
X143680857Y-101007143D01*
X143752286Y-100864286D01*
X143752286Y-100721429D01*
X143680857Y-100578571D01*
X143538000Y-100507143D01*
X143180857Y-100507143D01*
X143038000Y-100435714D01*
X142538000Y-100078571D02*
X141966571Y-100078571D01*
X142323714Y-101078571D02*
X142323714Y-99792857D01*
X142252286Y-99650000D01*
X142109428Y-99578571D01*
X141966571Y-99578571D01*
X141466571Y-101078571D02*
X141466571Y-100078571D01*
X141466571Y-100364286D02*
X141395143Y-100221429D01*
X141323714Y-100150000D01*
X141180857Y-100078571D01*
X141038000Y-100078571D01*
X139895143Y-100078571D02*
X139895143Y-101078571D01*
X140538000Y-100078571D02*
X140538000Y-100864286D01*
X140466572Y-101007143D01*
X140323714Y-101078571D01*
X140109429Y-101078571D01*
X139966572Y-101007143D01*
X139895143Y-100935714D01*
X139180857Y-101078571D02*
X139180857Y-100078571D01*
X139180857Y-99578571D02*
X139252286Y-99650000D01*
X139180857Y-99721429D01*
X139109429Y-99650000D01*
X139180857Y-99578571D01*
X139180857Y-99721429D01*
X138680857Y-100078571D02*
X138109428Y-100078571D01*
X138466571Y-99578571D02*
X138466571Y-100864286D01*
X138395143Y-101007143D01*
X138252285Y-101078571D01*
X138109428Y-101078571D01*
X137538000Y-101007143D02*
X137538000Y-101078571D01*
X137609428Y-101221429D01*
X137680857Y-101292857D01*
X176680857Y-103478571D02*
X176680857Y-101978571D01*
X175823714Y-103478571D02*
X176466571Y-102621429D01*
X175823714Y-101978571D02*
X176680857Y-102835714D01*
X175180857Y-103478571D02*
X175180857Y-102478571D01*
X175180857Y-101978571D02*
X175252286Y-102050000D01*
X175180857Y-102121429D01*
X175109429Y-102050000D01*
X175180857Y-101978571D01*
X175180857Y-102121429D01*
X173609428Y-103335714D02*
X173680857Y-103407143D01*
X173895143Y-103478571D01*
X174038000Y-103478571D01*
X174252285Y-103407143D01*
X174395143Y-103264286D01*
X174466571Y-103121429D01*
X174538000Y-102835714D01*
X174538000Y-102621429D01*
X174466571Y-102335714D01*
X174395143Y-102192857D01*
X174252285Y-102050000D01*
X174038000Y-101978571D01*
X173895143Y-101978571D01*
X173680857Y-102050000D01*
X173609428Y-102121429D01*
X172323714Y-103478571D02*
X172323714Y-102692857D01*
X172395143Y-102550000D01*
X172538000Y-102478571D01*
X172823714Y-102478571D01*
X172966571Y-102550000D01*
X172323714Y-103407143D02*
X172466571Y-103478571D01*
X172823714Y-103478571D01*
X172966571Y-103407143D01*
X173038000Y-103264286D01*
X173038000Y-103121429D01*
X172966571Y-102978571D01*
X172823714Y-102907143D01*
X172466571Y-102907143D01*
X172323714Y-102835714D01*
X170966571Y-103478571D02*
X170966571Y-101978571D01*
X170966571Y-103407143D02*
X171109428Y-103478571D01*
X171395142Y-103478571D01*
X171538000Y-103407143D01*
X171609428Y-103335714D01*
X171680857Y-103192857D01*
X171680857Y-102764286D01*
X171609428Y-102621429D01*
X171538000Y-102550000D01*
X171395142Y-102478571D01*
X171109428Y-102478571D01*
X170966571Y-102550000D01*
X168466571Y-103478571D02*
X168466571Y-102692857D01*
X168538000Y-102550000D01*
X168680857Y-102478571D01*
X168966571Y-102478571D01*
X169109428Y-102550000D01*
X168466571Y-103407143D02*
X168609428Y-103478571D01*
X168966571Y-103478571D01*
X169109428Y-103407143D01*
X169180857Y-103264286D01*
X169180857Y-103121429D01*
X169109428Y-102978571D01*
X168966571Y-102907143D01*
X168609428Y-102907143D01*
X168466571Y-102835714D01*
X167752285Y-102478571D02*
X167752285Y-103478571D01*
X167752285Y-102621429D02*
X167680857Y-102550000D01*
X167537999Y-102478571D01*
X167323714Y-102478571D01*
X167180857Y-102550000D01*
X167109428Y-102692857D01*
X167109428Y-103478571D01*
X165752285Y-103478571D02*
X165752285Y-101978571D01*
X165752285Y-103407143D02*
X165895142Y-103478571D01*
X166180856Y-103478571D01*
X166323714Y-103407143D01*
X166395142Y-103335714D01*
X166466571Y-103192857D01*
X166466571Y-102764286D01*
X166395142Y-102621429D01*
X166323714Y-102550000D01*
X166180856Y-102478571D01*
X165895142Y-102478571D01*
X165752285Y-102550000D01*
X163323714Y-103407143D02*
X163466571Y-103478571D01*
X163752285Y-103478571D01*
X163895142Y-103407143D01*
X163966571Y-103264286D01*
X163966571Y-102692857D01*
X163895142Y-102550000D01*
X163752285Y-102478571D01*
X163466571Y-102478571D01*
X163323714Y-102550000D01*
X163252285Y-102692857D01*
X163252285Y-102835714D01*
X163966571Y-102978571D01*
X162752285Y-102478571D02*
X162395142Y-103478571D01*
X162038000Y-102478571D01*
X160895143Y-103407143D02*
X161038000Y-103478571D01*
X161323714Y-103478571D01*
X161466571Y-103407143D01*
X161538000Y-103264286D01*
X161538000Y-102692857D01*
X161466571Y-102550000D01*
X161323714Y-102478571D01*
X161038000Y-102478571D01*
X160895143Y-102550000D01*
X160823714Y-102692857D01*
X160823714Y-102835714D01*
X161538000Y-102978571D01*
X160180857Y-103478571D02*
X160180857Y-102478571D01*
X160180857Y-102764286D02*
X160109429Y-102621429D01*
X160038000Y-102550000D01*
X159895143Y-102478571D01*
X159752286Y-102478571D01*
X159395143Y-102478571D02*
X159038000Y-103478571D01*
X158680858Y-102478571D02*
X159038000Y-103478571D01*
X159180858Y-103835714D01*
X159252286Y-103907143D01*
X159395143Y-103978571D01*
X157895143Y-103478571D02*
X158038001Y-103407143D01*
X158109429Y-103335714D01*
X158180858Y-103192857D01*
X158180858Y-102764286D01*
X158109429Y-102621429D01*
X158038001Y-102550000D01*
X157895143Y-102478571D01*
X157680858Y-102478571D01*
X157538001Y-102550000D01*
X157466572Y-102621429D01*
X157395143Y-102764286D01*
X157395143Y-103192857D01*
X157466572Y-103335714D01*
X157538001Y-103407143D01*
X157680858Y-103478571D01*
X157895143Y-103478571D01*
X156752286Y-102478571D02*
X156752286Y-103478571D01*
X156752286Y-102621429D02*
X156680858Y-102550000D01*
X156538000Y-102478571D01*
X156323715Y-102478571D01*
X156180858Y-102550000D01*
X156109429Y-102692857D01*
X156109429Y-103478571D01*
X154823715Y-103407143D02*
X154966572Y-103478571D01*
X155252286Y-103478571D01*
X155395143Y-103407143D01*
X155466572Y-103264286D01*
X155466572Y-102692857D01*
X155395143Y-102550000D01*
X155252286Y-102478571D01*
X154966572Y-102478571D01*
X154823715Y-102550000D01*
X154752286Y-102692857D01*
X154752286Y-102835714D01*
X155466572Y-102978571D01*
X153109429Y-102478571D02*
X152823715Y-103478571D01*
X152538001Y-102764286D01*
X152252286Y-103478571D01*
X151966572Y-102478571D01*
X151395143Y-103478571D02*
X151395143Y-101978571D01*
X150752286Y-103478571D02*
X150752286Y-102692857D01*
X150823715Y-102550000D01*
X150966572Y-102478571D01*
X151180857Y-102478571D01*
X151323715Y-102550000D01*
X151395143Y-102621429D01*
X149823714Y-103478571D02*
X149966572Y-103407143D01*
X150038000Y-103335714D01*
X150109429Y-103192857D01*
X150109429Y-102764286D01*
X150038000Y-102621429D01*
X149966572Y-102550000D01*
X149823714Y-102478571D01*
X149609429Y-102478571D01*
X149466572Y-102550000D01*
X149395143Y-102621429D01*
X149323714Y-102764286D01*
X149323714Y-103192857D01*
X149395143Y-103335714D01*
X149466572Y-103407143D01*
X149609429Y-103478571D01*
X149823714Y-103478571D01*
X147609429Y-103407143D02*
X147466572Y-103478571D01*
X147180857Y-103478571D01*
X147038000Y-103407143D01*
X146966572Y-103264286D01*
X146966572Y-103192857D01*
X147038000Y-103050000D01*
X147180857Y-102978571D01*
X147395143Y-102978571D01*
X147538000Y-102907143D01*
X147609429Y-102764286D01*
X147609429Y-102692857D01*
X147538000Y-102550000D01*
X147395143Y-102478571D01*
X147180857Y-102478571D01*
X147038000Y-102550000D01*
X146323714Y-103478571D02*
X146323714Y-101978571D01*
X145680857Y-103478571D02*
X145680857Y-102692857D01*
X145752286Y-102550000D01*
X145895143Y-102478571D01*
X146109428Y-102478571D01*
X146252286Y-102550000D01*
X146323714Y-102621429D01*
X144323714Y-103478571D02*
X144323714Y-102692857D01*
X144395143Y-102550000D01*
X144538000Y-102478571D01*
X144823714Y-102478571D01*
X144966571Y-102550000D01*
X144323714Y-103407143D02*
X144466571Y-103478571D01*
X144823714Y-103478571D01*
X144966571Y-103407143D01*
X145038000Y-103264286D01*
X145038000Y-103121429D01*
X144966571Y-102978571D01*
X144823714Y-102907143D01*
X144466571Y-102907143D01*
X144323714Y-102835714D01*
X143609428Y-103478571D02*
X143609428Y-102478571D01*
X143609428Y-102764286D02*
X143538000Y-102621429D01*
X143466571Y-102550000D01*
X143323714Y-102478571D01*
X143180857Y-102478571D01*
X142109429Y-103407143D02*
X142252286Y-103478571D01*
X142538000Y-103478571D01*
X142680857Y-103407143D01*
X142752286Y-103264286D01*
X142752286Y-102692857D01*
X142680857Y-102550000D01*
X142538000Y-102478571D01*
X142252286Y-102478571D01*
X142109429Y-102550000D01*
X142038000Y-102692857D01*
X142038000Y-102835714D01*
X142752286Y-102978571D01*
X141466572Y-103407143D02*
X141323715Y-103478571D01*
X141038000Y-103478571D01*
X140895143Y-103407143D01*
X140823715Y-103264286D01*
X140823715Y-103192857D01*
X140895143Y-103050000D01*
X141038000Y-102978571D01*
X141252286Y-102978571D01*
X141395143Y-102907143D01*
X141466572Y-102764286D01*
X141466572Y-102692857D01*
X141395143Y-102550000D01*
X141252286Y-102478571D01*
X141038000Y-102478571D01*
X140895143Y-102550000D01*
X176895143Y-104878571D02*
X176323714Y-104878571D01*
X176680857Y-104378571D02*
X176680857Y-105664286D01*
X176609429Y-105807143D01*
X176466571Y-105878571D01*
X176323714Y-105878571D01*
X175823714Y-105878571D02*
X175823714Y-104378571D01*
X175180857Y-105878571D02*
X175180857Y-105092857D01*
X175252286Y-104950000D01*
X175395143Y-104878571D01*
X175609428Y-104878571D01*
X175752286Y-104950000D01*
X175823714Y-105021429D01*
X173895143Y-105807143D02*
X174038000Y-105878571D01*
X174323714Y-105878571D01*
X174466571Y-105807143D01*
X174538000Y-105664286D01*
X174538000Y-105092857D01*
X174466571Y-104950000D01*
X174323714Y-104878571D01*
X174038000Y-104878571D01*
X173895143Y-104950000D01*
X173823714Y-105092857D01*
X173823714Y-105235714D01*
X174538000Y-105378571D01*
X173180857Y-105878571D02*
X173180857Y-104878571D01*
X173180857Y-104378571D02*
X173252286Y-104450000D01*
X173180857Y-104521429D01*
X173109429Y-104450000D01*
X173180857Y-104378571D01*
X173180857Y-104521429D01*
X172466571Y-105878571D02*
X172466571Y-104878571D01*
X172466571Y-105164286D02*
X172395143Y-105021429D01*
X172323714Y-104950000D01*
X172180857Y-104878571D01*
X172038000Y-104878571D01*
X170395143Y-105878571D02*
X170395143Y-104878571D01*
X170395143Y-104378571D02*
X170466572Y-104450000D01*
X170395143Y-104521429D01*
X170323715Y-104450000D01*
X170395143Y-104378571D01*
X170395143Y-104521429D01*
X169038000Y-105878571D02*
X169038000Y-104378571D01*
X169038000Y-105807143D02*
X169180857Y-105878571D01*
X169466571Y-105878571D01*
X169609429Y-105807143D01*
X169680857Y-105735714D01*
X169752286Y-105592857D01*
X169752286Y-105164286D01*
X169680857Y-105021429D01*
X169609429Y-104950000D01*
X169466571Y-104878571D01*
X169180857Y-104878571D01*
X169038000Y-104950000D01*
X167752286Y-105807143D02*
X167895143Y-105878571D01*
X168180857Y-105878571D01*
X168323714Y-105807143D01*
X168395143Y-105664286D01*
X168395143Y-105092857D01*
X168323714Y-104950000D01*
X168180857Y-104878571D01*
X167895143Y-104878571D01*
X167752286Y-104950000D01*
X167680857Y-105092857D01*
X167680857Y-105235714D01*
X168395143Y-105378571D01*
X166395143Y-105878571D02*
X166395143Y-105092857D01*
X166466572Y-104950000D01*
X166609429Y-104878571D01*
X166895143Y-104878571D01*
X167038000Y-104950000D01*
X166395143Y-105807143D02*
X166538000Y-105878571D01*
X166895143Y-105878571D01*
X167038000Y-105807143D01*
X167109429Y-105664286D01*
X167109429Y-105521429D01*
X167038000Y-105378571D01*
X166895143Y-105307143D01*
X166538000Y-105307143D01*
X166395143Y-105235714D01*
X165752286Y-105807143D02*
X165609429Y-105878571D01*
X165323714Y-105878571D01*
X165180857Y-105807143D01*
X165109429Y-105664286D01*
X165109429Y-105592857D01*
X165180857Y-105450000D01*
X165323714Y-105378571D01*
X165538000Y-105378571D01*
X165680857Y-105307143D01*
X165752286Y-105164286D01*
X165752286Y-105092857D01*
X165680857Y-104950000D01*
X165538000Y-104878571D01*
X165323714Y-104878571D01*
X165180857Y-104950000D01*
X162680857Y-105878571D02*
X162680857Y-105092857D01*
X162752286Y-104950000D01*
X162895143Y-104878571D01*
X163180857Y-104878571D01*
X163323714Y-104950000D01*
X162680857Y-105807143D02*
X162823714Y-105878571D01*
X163180857Y-105878571D01*
X163323714Y-105807143D01*
X163395143Y-105664286D01*
X163395143Y-105521429D01*
X163323714Y-105378571D01*
X163180857Y-105307143D01*
X162823714Y-105307143D01*
X162680857Y-105235714D01*
X161966571Y-104878571D02*
X161966571Y-105878571D01*
X161966571Y-105021429D02*
X161895143Y-104950000D01*
X161752285Y-104878571D01*
X161538000Y-104878571D01*
X161395143Y-104950000D01*
X161323714Y-105092857D01*
X161323714Y-105878571D01*
X159966571Y-105878571D02*
X159966571Y-104378571D01*
X159966571Y-105807143D02*
X160109428Y-105878571D01*
X160395142Y-105878571D01*
X160538000Y-105807143D01*
X160609428Y-105735714D01*
X160680857Y-105592857D01*
X160680857Y-105164286D01*
X160609428Y-105021429D01*
X160538000Y-104950000D01*
X160395142Y-104878571D01*
X160109428Y-104878571D01*
X159966571Y-104950000D01*
X157538000Y-105807143D02*
X157680857Y-105878571D01*
X157966571Y-105878571D01*
X158109428Y-105807143D01*
X158180857Y-105664286D01*
X158180857Y-105092857D01*
X158109428Y-104950000D01*
X157966571Y-104878571D01*
X157680857Y-104878571D01*
X157538000Y-104950000D01*
X157466571Y-105092857D01*
X157466571Y-105235714D01*
X158180857Y-105378571D01*
X156823714Y-104878571D02*
X156823714Y-105878571D01*
X156823714Y-105021429D02*
X156752286Y-104950000D01*
X156609428Y-104878571D01*
X156395143Y-104878571D01*
X156252286Y-104950000D01*
X156180857Y-105092857D01*
X156180857Y-105878571D01*
X155680857Y-104878571D02*
X155109428Y-104878571D01*
X155466571Y-104378571D02*
X155466571Y-105664286D01*
X155395143Y-105807143D01*
X155252285Y-105878571D01*
X155109428Y-105878571D01*
X154609428Y-105878571D02*
X154609428Y-104378571D01*
X153966571Y-105878571D02*
X153966571Y-105092857D01*
X154038000Y-104950000D01*
X154180857Y-104878571D01*
X154395142Y-104878571D01*
X154538000Y-104950000D01*
X154609428Y-105021429D01*
X152609428Y-104878571D02*
X152609428Y-105878571D01*
X153252285Y-104878571D02*
X153252285Y-105664286D01*
X153180857Y-105807143D01*
X153037999Y-105878571D01*
X152823714Y-105878571D01*
X152680857Y-105807143D01*
X152609428Y-105735714D01*
X151966571Y-105807143D02*
X151823714Y-105878571D01*
X151537999Y-105878571D01*
X151395142Y-105807143D01*
X151323714Y-105664286D01*
X151323714Y-105592857D01*
X151395142Y-105450000D01*
X151537999Y-105378571D01*
X151752285Y-105378571D01*
X151895142Y-105307143D01*
X151966571Y-105164286D01*
X151966571Y-105092857D01*
X151895142Y-104950000D01*
X151752285Y-104878571D01*
X151537999Y-104878571D01*
X151395142Y-104950000D01*
X150680856Y-105878571D02*
X150680856Y-104878571D01*
X150680856Y-104378571D02*
X150752285Y-104450000D01*
X150680856Y-104521429D01*
X150609428Y-104450000D01*
X150680856Y-104378571D01*
X150680856Y-104521429D01*
X149323713Y-105878571D02*
X149323713Y-105092857D01*
X149395142Y-104950000D01*
X149537999Y-104878571D01*
X149823713Y-104878571D01*
X149966570Y-104950000D01*
X149323713Y-105807143D02*
X149466570Y-105878571D01*
X149823713Y-105878571D01*
X149966570Y-105807143D01*
X150037999Y-105664286D01*
X150037999Y-105521429D01*
X149966570Y-105378571D01*
X149823713Y-105307143D01*
X149466570Y-105307143D01*
X149323713Y-105235714D01*
X148609427Y-105878571D02*
X148609427Y-104878571D01*
X148609427Y-105021429D02*
X148537999Y-104950000D01*
X148395141Y-104878571D01*
X148180856Y-104878571D01*
X148037999Y-104950000D01*
X147966570Y-105092857D01*
X147966570Y-105878571D01*
X147966570Y-105092857D02*
X147895141Y-104950000D01*
X147752284Y-104878571D01*
X147537999Y-104878571D01*
X147395141Y-104950000D01*
X147323713Y-105092857D01*
X147323713Y-105878571D01*
X146609427Y-105735714D02*
X146537999Y-105807143D01*
X146609427Y-105878571D01*
X146680856Y-105807143D01*
X146609427Y-105735714D01*
X146609427Y-105878571D01*
X164762571Y-82966858D02*
X163262571Y-82966858D01*
X163262571Y-83324001D01*
X163334000Y-83538286D01*
X163476857Y-83681144D01*
X163619714Y-83752572D01*
X163905429Y-83824001D01*
X164119714Y-83824001D01*
X164405429Y-83752572D01*
X164548286Y-83681144D01*
X164691143Y-83538286D01*
X164762571Y-83324001D01*
X164762571Y-82966858D01*
X163262571Y-85181144D02*
X163262571Y-84466858D01*
X163976857Y-84395429D01*
X163905429Y-84466858D01*
X163834000Y-84609715D01*
X163834000Y-84966858D01*
X163905429Y-85109715D01*
X163976857Y-85181144D01*
X164119714Y-85252572D01*
X164476857Y-85252572D01*
X164619714Y-85181144D01*
X164691143Y-85109715D01*
X164762571Y-84966858D01*
X164762571Y-84609715D01*
X164691143Y-84466858D01*
X164619714Y-84395429D01*
X167302571Y-82966858D02*
X165802571Y-82966858D01*
X165802571Y-83324001D01*
X165874000Y-83538286D01*
X166016857Y-83681144D01*
X166159714Y-83752572D01*
X166445429Y-83824001D01*
X166659714Y-83824001D01*
X166945429Y-83752572D01*
X167088286Y-83681144D01*
X167231143Y-83538286D01*
X167302571Y-83324001D01*
X167302571Y-82966858D01*
X165802571Y-85109715D02*
X165802571Y-84824001D01*
X165874000Y-84681144D01*
X165945429Y-84609715D01*
X166159714Y-84466858D01*
X166445429Y-84395429D01*
X167016857Y-84395429D01*
X167159714Y-84466858D01*
X167231143Y-84538286D01*
X167302571Y-84681144D01*
X167302571Y-84966858D01*
X167231143Y-85109715D01*
X167159714Y-85181144D01*
X167016857Y-85252572D01*
X166659714Y-85252572D01*
X166516857Y-85181144D01*
X166445429Y-85109715D01*
X166374000Y-84966858D01*
X166374000Y-84681144D01*
X166445429Y-84538286D01*
X166516857Y-84466858D01*
X166659714Y-84395429D01*
X170096571Y-82966858D02*
X168596571Y-82966858D01*
X168596571Y-83324001D01*
X168668000Y-83538286D01*
X168810857Y-83681144D01*
X168953714Y-83752572D01*
X169239429Y-83824001D01*
X169453714Y-83824001D01*
X169739429Y-83752572D01*
X169882286Y-83681144D01*
X170025143Y-83538286D01*
X170096571Y-83324001D01*
X170096571Y-82966858D01*
X170096571Y-84538286D02*
X170096571Y-84824001D01*
X170025143Y-84966858D01*
X169953714Y-85038286D01*
X169739429Y-85181144D01*
X169453714Y-85252572D01*
X168882286Y-85252572D01*
X168739429Y-85181144D01*
X168668000Y-85109715D01*
X168596571Y-84966858D01*
X168596571Y-84681144D01*
X168668000Y-84538286D01*
X168739429Y-84466858D01*
X168882286Y-84395429D01*
X169239429Y-84395429D01*
X169382286Y-84466858D01*
X169453714Y-84538286D01*
X169525143Y-84681144D01*
X169525143Y-84966858D01*
X169453714Y-85109715D01*
X169382286Y-85181144D01*
X169239429Y-85252572D01*
X172636571Y-83014572D02*
X171136571Y-83014572D01*
X171136571Y-83371715D01*
X171208000Y-83586000D01*
X171350857Y-83728858D01*
X171493714Y-83800286D01*
X171779429Y-83871715D01*
X171993714Y-83871715D01*
X172279429Y-83800286D01*
X172422286Y-83728858D01*
X172565143Y-83586000D01*
X172636571Y-83371715D01*
X172636571Y-83014572D01*
X172636571Y-85300286D02*
X172636571Y-84443143D01*
X172636571Y-84871715D02*
X171136571Y-84871715D01*
X171350857Y-84728858D01*
X171493714Y-84586000D01*
X171565143Y-84443143D01*
X171136571Y-86228857D02*
X171136571Y-86371714D01*
X171208000Y-86514571D01*
X171279429Y-86586000D01*
X171422286Y-86657429D01*
X171708000Y-86728857D01*
X172065143Y-86728857D01*
X172350857Y-86657429D01*
X172493714Y-86586000D01*
X172565143Y-86514571D01*
X172636571Y-86371714D01*
X172636571Y-86228857D01*
X172565143Y-86086000D01*
X172493714Y-86014571D01*
X172350857Y-85943143D01*
X172065143Y-85871714D01*
X171708000Y-85871714D01*
X171422286Y-85943143D01*
X171279429Y-86014571D01*
X171208000Y-86086000D01*
X171136571Y-86228857D01*
D10*
G36*
X125591532Y-107145667D02*
X126105266Y-107243801D01*
X126375349Y-107293023D01*
X126566376Y-107323340D01*
X126632350Y-107328468D01*
X126660289Y-107247431D01*
X126731235Y-107027743D01*
X126837881Y-106692439D01*
X126972917Y-106264554D01*
X127129034Y-105767120D01*
X127214230Y-105494667D01*
X127378714Y-104969848D01*
X127526397Y-104502121D01*
X127649856Y-104114709D01*
X127741669Y-103830836D01*
X127794412Y-103673725D01*
X127803845Y-103649925D01*
X127836954Y-103717552D01*
X127915817Y-103920284D01*
X128031176Y-104233076D01*
X128173772Y-104630885D01*
X128312473Y-105025758D01*
X128471810Y-105479181D01*
X128612428Y-105871388D01*
X128724907Y-106176747D01*
X128799828Y-106369628D01*
X128827030Y-106426000D01*
X128886897Y-106363972D01*
X129035676Y-106192184D01*
X129255230Y-105932076D01*
X129527419Y-105605091D01*
X129758092Y-105325334D01*
X130059219Y-104961631D01*
X130322946Y-104648620D01*
X130530794Y-104407791D01*
X130664282Y-104260635D01*
X130704567Y-104224667D01*
X130715251Y-104304170D01*
X130717699Y-104522540D01*
X130712996Y-104849565D01*
X130702228Y-105255036D01*
X130686479Y-105708743D01*
X130666835Y-106180474D01*
X130644382Y-106640021D01*
X130620204Y-107057172D01*
X130595388Y-107401717D01*
X130587011Y-107496811D01*
X130562408Y-107742969D01*
X130563682Y-107902067D01*
X130619450Y-107999649D01*
X130758328Y-108061258D01*
X131008932Y-108112437D01*
X131339166Y-108168194D01*
X131656666Y-108222845D01*
X131656216Y-107684256D01*
X131659519Y-107455605D01*
X131669059Y-107086299D01*
X131683908Y-106604864D01*
X131703139Y-106039826D01*
X131725823Y-105419712D01*
X131750293Y-104791465D01*
X131773814Y-104178461D01*
X131793034Y-103623011D01*
X131807368Y-103146908D01*
X131816229Y-102771944D01*
X131819033Y-102519914D01*
X131815193Y-102412610D01*
X131814243Y-102410481D01*
X131719651Y-102383564D01*
X131514561Y-102345795D01*
X131389701Y-102326557D01*
X130995736Y-102269418D01*
X130088609Y-103420561D01*
X129791660Y-103793059D01*
X129531436Y-104111273D01*
X129325425Y-104354484D01*
X129191116Y-104501969D01*
X129146544Y-104536766D01*
X129109451Y-104448733D01*
X129028871Y-104227125D01*
X128914352Y-103899182D01*
X128775443Y-103492142D01*
X128662801Y-103156747D01*
X128213998Y-101811667D01*
X127802064Y-101708324D01*
X127563974Y-101652662D01*
X127407733Y-101623865D01*
X127374681Y-101623657D01*
X127346094Y-101705721D01*
X127271887Y-101930396D01*
X127158112Y-102279037D01*
X127010822Y-102732998D01*
X126836070Y-103273634D01*
X126639907Y-103882299D01*
X126475381Y-104394000D01*
X125591532Y-107145667D01*
X125591532Y-107145667D01*
X125591532Y-107145667D01*
G37*
X125591532Y-107145667D02*
X126105266Y-107243801D01*
X126375349Y-107293023D01*
X126566376Y-107323340D01*
X126632350Y-107328468D01*
X126660289Y-107247431D01*
X126731235Y-107027743D01*
X126837881Y-106692439D01*
X126972917Y-106264554D01*
X127129034Y-105767120D01*
X127214230Y-105494667D01*
X127378714Y-104969848D01*
X127526397Y-104502121D01*
X127649856Y-104114709D01*
X127741669Y-103830836D01*
X127794412Y-103673725D01*
X127803845Y-103649925D01*
X127836954Y-103717552D01*
X127915817Y-103920284D01*
X128031176Y-104233076D01*
X128173772Y-104630885D01*
X128312473Y-105025758D01*
X128471810Y-105479181D01*
X128612428Y-105871388D01*
X128724907Y-106176747D01*
X128799828Y-106369628D01*
X128827030Y-106426000D01*
X128886897Y-106363972D01*
X129035676Y-106192184D01*
X129255230Y-105932076D01*
X129527419Y-105605091D01*
X129758092Y-105325334D01*
X130059219Y-104961631D01*
X130322946Y-104648620D01*
X130530794Y-104407791D01*
X130664282Y-104260635D01*
X130704567Y-104224667D01*
X130715251Y-104304170D01*
X130717699Y-104522540D01*
X130712996Y-104849565D01*
X130702228Y-105255036D01*
X130686479Y-105708743D01*
X130666835Y-106180474D01*
X130644382Y-106640021D01*
X130620204Y-107057172D01*
X130595388Y-107401717D01*
X130587011Y-107496811D01*
X130562408Y-107742969D01*
X130563682Y-107902067D01*
X130619450Y-107999649D01*
X130758328Y-108061258D01*
X131008932Y-108112437D01*
X131339166Y-108168194D01*
X131656666Y-108222845D01*
X131656216Y-107684256D01*
X131659519Y-107455605D01*
X131669059Y-107086299D01*
X131683908Y-106604864D01*
X131703139Y-106039826D01*
X131725823Y-105419712D01*
X131750293Y-104791465D01*
X131773814Y-104178461D01*
X131793034Y-103623011D01*
X131807368Y-103146908D01*
X131816229Y-102771944D01*
X131819033Y-102519914D01*
X131815193Y-102412610D01*
X131814243Y-102410481D01*
X131719651Y-102383564D01*
X131514561Y-102345795D01*
X131389701Y-102326557D01*
X130995736Y-102269418D01*
X130088609Y-103420561D01*
X129791660Y-103793059D01*
X129531436Y-104111273D01*
X129325425Y-104354484D01*
X129191116Y-104501969D01*
X129146544Y-104536766D01*
X129109451Y-104448733D01*
X129028871Y-104227125D01*
X128914352Y-103899182D01*
X128775443Y-103492142D01*
X128662801Y-103156747D01*
X128213998Y-101811667D01*
X127802064Y-101708324D01*
X127563974Y-101652662D01*
X127407733Y-101623865D01*
X127374681Y-101623657D01*
X127346094Y-101705721D01*
X127271887Y-101930396D01*
X127158112Y-102279037D01*
X127010822Y-102732998D01*
X126836070Y-103273634D01*
X126639907Y-103882299D01*
X126475381Y-104394000D01*
X125591532Y-107145667D01*
X125591532Y-107145667D01*
G36*
X121799210Y-106125798D02*
X121820054Y-106274404D01*
X121832995Y-106296183D01*
X122046445Y-106455785D01*
X122382012Y-106598589D01*
X122792619Y-106714735D01*
X123231193Y-106794362D01*
X123650658Y-106827610D01*
X124003939Y-106804619D01*
X124121881Y-106775615D01*
X124677849Y-106519964D01*
X125100563Y-106161848D01*
X125392111Y-105698247D01*
X125554580Y-105126142D01*
X125592774Y-104648000D01*
X125583827Y-104257578D01*
X125538503Y-103970719D01*
X125445182Y-103723473D01*
X125413522Y-103661356D01*
X125081418Y-103205706D01*
X124646262Y-102874318D01*
X124131928Y-102679372D01*
X123562292Y-102633045D01*
X123421395Y-102645228D01*
X122912882Y-102783646D01*
X122493343Y-103057738D01*
X122178848Y-103450342D01*
X121985463Y-103944298D01*
X121938748Y-104228675D01*
X121920598Y-104473833D01*
X121945672Y-104600192D01*
X122040682Y-104657480D01*
X122184947Y-104686987D01*
X122390467Y-104723553D01*
X122710944Y-104780802D01*
X123094671Y-104849491D01*
X123333736Y-104892347D01*
X123744051Y-104962807D01*
X124016297Y-104993089D01*
X124178777Y-104974557D01*
X124259791Y-104898574D01*
X124287642Y-104756505D01*
X124290666Y-104600355D01*
X124287608Y-104505539D01*
X124258618Y-104439027D01*
X124173978Y-104387828D01*
X124003970Y-104338947D01*
X123718873Y-104279392D01*
X123427428Y-104222951D01*
X123133904Y-104149064D01*
X122999980Y-104055311D01*
X123016037Y-103915601D01*
X123172456Y-103703840D01*
X123217375Y-103653167D01*
X123456792Y-103499394D01*
X123748986Y-103467578D01*
X124050289Y-103540490D01*
X124317037Y-103700900D01*
X124505562Y-103931578D01*
X124572327Y-104187790D01*
X124552771Y-104664242D01*
X124480929Y-105087769D01*
X124366220Y-105415501D01*
X124270958Y-105559202D01*
X123965468Y-105818481D01*
X123631672Y-105957744D01*
X123249445Y-105976599D01*
X122798658Y-105874652D01*
X122259184Y-105651511D01*
X121988238Y-105514679D01*
X121922749Y-105556050D01*
X121861873Y-105709665D01*
X121816922Y-105918566D01*
X121799210Y-106125798D01*
X121799210Y-106125798D01*
X121799210Y-106125798D01*
G37*
X121799210Y-106125798D02*
X121820054Y-106274404D01*
X121832995Y-106296183D01*
X122046445Y-106455785D01*
X122382012Y-106598589D01*
X122792619Y-106714735D01*
X123231193Y-106794362D01*
X123650658Y-106827610D01*
X124003939Y-106804619D01*
X124121881Y-106775615D01*
X124677849Y-106519964D01*
X125100563Y-106161848D01*
X125392111Y-105698247D01*
X125554580Y-105126142D01*
X125592774Y-104648000D01*
X125583827Y-104257578D01*
X125538503Y-103970719D01*
X125445182Y-103723473D01*
X125413522Y-103661356D01*
X125081418Y-103205706D01*
X124646262Y-102874318D01*
X124131928Y-102679372D01*
X123562292Y-102633045D01*
X123421395Y-102645228D01*
X122912882Y-102783646D01*
X122493343Y-103057738D01*
X122178848Y-103450342D01*
X121985463Y-103944298D01*
X121938748Y-104228675D01*
X121920598Y-104473833D01*
X121945672Y-104600192D01*
X122040682Y-104657480D01*
X122184947Y-104686987D01*
X122390467Y-104723553D01*
X122710944Y-104780802D01*
X123094671Y-104849491D01*
X123333736Y-104892347D01*
X123744051Y-104962807D01*
X124016297Y-104993089D01*
X124178777Y-104974557D01*
X124259791Y-104898574D01*
X124287642Y-104756505D01*
X124290666Y-104600355D01*
X124287608Y-104505539D01*
X124258618Y-104439027D01*
X124173978Y-104387828D01*
X124003970Y-104338947D01*
X123718873Y-104279392D01*
X123427428Y-104222951D01*
X123133904Y-104149064D01*
X122999980Y-104055311D01*
X123016037Y-103915601D01*
X123172456Y-103703840D01*
X123217375Y-103653167D01*
X123456792Y-103499394D01*
X123748986Y-103467578D01*
X124050289Y-103540490D01*
X124317037Y-103700900D01*
X124505562Y-103931578D01*
X124572327Y-104187790D01*
X124552771Y-104664242D01*
X124480929Y-105087769D01*
X124366220Y-105415501D01*
X124270958Y-105559202D01*
X123965468Y-105818481D01*
X123631672Y-105957744D01*
X123249445Y-105976599D01*
X122798658Y-105874652D01*
X122259184Y-105651511D01*
X121988238Y-105514679D01*
X121922749Y-105556050D01*
X121861873Y-105709665D01*
X121816922Y-105918566D01*
X121799210Y-106125798D01*
X121799210Y-106125798D01*
G36*
X119415621Y-100425589D02*
X119423817Y-100588540D01*
X119457579Y-100841610D01*
X119519464Y-101205557D01*
X119612028Y-101701133D01*
X119688760Y-102098048D01*
X119774286Y-102569495D01*
X119850292Y-103047655D01*
X119907773Y-103472297D01*
X119935547Y-103749048D01*
X119975218Y-104120831D01*
X120035989Y-104486387D01*
X120095332Y-104732667D01*
X120182316Y-105054453D01*
X120252630Y-105380183D01*
X120264855Y-105452334D01*
X120323528Y-105817929D01*
X120374797Y-106050162D01*
X120436942Y-106183047D01*
X120528238Y-106250596D01*
X120666964Y-106286824D01*
X120718358Y-106296269D01*
X120983139Y-106347263D01*
X121207107Y-106395218D01*
X121221500Y-106398626D01*
X121368848Y-106407454D01*
X121414488Y-106371679D01*
X121401643Y-106273975D01*
X121364007Y-106028724D01*
X121304720Y-105655392D01*
X121226922Y-105173447D01*
X121133752Y-104602355D01*
X121028352Y-103961582D01*
X120928489Y-103358615D01*
X120440003Y-100418230D01*
X119995886Y-100326032D01*
X119730963Y-100283435D01*
X119531347Y-100273800D01*
X119465701Y-100287027D01*
X119430434Y-100332003D01*
X119415621Y-100425589D01*
X119415621Y-100425589D01*
X119415621Y-100425589D01*
G37*
X119415621Y-100425589D02*
X119423817Y-100588540D01*
X119457579Y-100841610D01*
X119519464Y-101205557D01*
X119612028Y-101701133D01*
X119688760Y-102098048D01*
X119774286Y-102569495D01*
X119850292Y-103047655D01*
X119907773Y-103472297D01*
X119935547Y-103749048D01*
X119975218Y-104120831D01*
X120035989Y-104486387D01*
X120095332Y-104732667D01*
X120182316Y-105054453D01*
X120252630Y-105380183D01*
X120264855Y-105452334D01*
X120323528Y-105817929D01*
X120374797Y-106050162D01*
X120436942Y-106183047D01*
X120528238Y-106250596D01*
X120666964Y-106286824D01*
X120718358Y-106296269D01*
X120983139Y-106347263D01*
X121207107Y-106395218D01*
X121221500Y-106398626D01*
X121368848Y-106407454D01*
X121414488Y-106371679D01*
X121401643Y-106273975D01*
X121364007Y-106028724D01*
X121304720Y-105655392D01*
X121226922Y-105173447D01*
X121133752Y-104602355D01*
X121028352Y-103961582D01*
X120928489Y-103358615D01*
X120440003Y-100418230D01*
X119995886Y-100326032D01*
X119730963Y-100283435D01*
X119531347Y-100273800D01*
X119465701Y-100287027D01*
X119430434Y-100332003D01*
X119415621Y-100425589D01*
X119415621Y-100425589D01*
G36*
X116501333Y-105512981D02*
X116576299Y-105555992D01*
X116764955Y-105603567D01*
X116861166Y-105620410D01*
X117120266Y-105664678D01*
X117323954Y-105706258D01*
X117361440Y-105715772D01*
X117459805Y-105691599D01*
X117585917Y-105556591D01*
X117754899Y-105292368D01*
X117854204Y-105116920D01*
X118060885Y-104773225D01*
X118229737Y-104555229D01*
X118348490Y-104478767D01*
X118348764Y-104478767D01*
X118497900Y-104494096D01*
X118759894Y-104534455D01*
X119081580Y-104591555D01*
X119124948Y-104599763D01*
X119431520Y-104653014D01*
X119667049Y-104684131D01*
X119788285Y-104687634D01*
X119794872Y-104684684D01*
X119802009Y-104588478D01*
X119783431Y-104376467D01*
X119753590Y-104162890D01*
X119676333Y-103677072D01*
X119254856Y-103607003D01*
X119007834Y-103561306D01*
X118841155Y-103521768D01*
X118802796Y-103506351D01*
X118828147Y-103424608D01*
X118922484Y-103234132D01*
X119067416Y-102971237D01*
X119118787Y-102882349D01*
X119465363Y-102288931D01*
X119369447Y-101626965D01*
X119317156Y-101299773D01*
X119265507Y-101032540D01*
X119224174Y-100874231D01*
X119217868Y-100859705D01*
X119168273Y-100910918D01*
X119047791Y-101088843D01*
X118868594Y-101372629D01*
X118642855Y-101741423D01*
X118382747Y-102174376D01*
X118100442Y-102650636D01*
X117808113Y-103149352D01*
X117517932Y-103649672D01*
X117242074Y-104130746D01*
X116992709Y-104571722D01*
X116782011Y-104951749D01*
X116622152Y-105249976D01*
X116525306Y-105445553D01*
X116501333Y-105512981D01*
X116501333Y-105512981D01*
X116501333Y-105512981D01*
G37*
X116501333Y-105512981D02*
X116576299Y-105555992D01*
X116764955Y-105603567D01*
X116861166Y-105620410D01*
X117120266Y-105664678D01*
X117323954Y-105706258D01*
X117361440Y-105715772D01*
X117459805Y-105691599D01*
X117585917Y-105556591D01*
X117754899Y-105292368D01*
X117854204Y-105116920D01*
X118060885Y-104773225D01*
X118229737Y-104555229D01*
X118348490Y-104478767D01*
X118348764Y-104478767D01*
X118497900Y-104494096D01*
X118759894Y-104534455D01*
X119081580Y-104591555D01*
X119124948Y-104599763D01*
X119431520Y-104653014D01*
X119667049Y-104684131D01*
X119788285Y-104687634D01*
X119794872Y-104684684D01*
X119802009Y-104588478D01*
X119783431Y-104376467D01*
X119753590Y-104162890D01*
X119676333Y-103677072D01*
X119254856Y-103607003D01*
X119007834Y-103561306D01*
X118841155Y-103521768D01*
X118802796Y-103506351D01*
X118828147Y-103424608D01*
X118922484Y-103234132D01*
X119067416Y-102971237D01*
X119118787Y-102882349D01*
X119465363Y-102288931D01*
X119369447Y-101626965D01*
X119317156Y-101299773D01*
X119265507Y-101032540D01*
X119224174Y-100874231D01*
X119217868Y-100859705D01*
X119168273Y-100910918D01*
X119047791Y-101088843D01*
X118868594Y-101372629D01*
X118642855Y-101741423D01*
X118382747Y-102174376D01*
X118100442Y-102650636D01*
X117808113Y-103149352D01*
X117517932Y-103649672D01*
X117242074Y-104130746D01*
X116992709Y-104571722D01*
X116782011Y-104951749D01*
X116622152Y-105249976D01*
X116525306Y-105445553D01*
X116501333Y-105512981D01*
X116501333Y-105512981D01*
G36*
X114554000Y-101469164D02*
X114558659Y-101734896D01*
X114590390Y-101878180D01*
X114675820Y-101945901D01*
X114841579Y-101984944D01*
X114847580Y-101986070D01*
X115120290Y-102084739D01*
X115361881Y-102251717D01*
X115524508Y-102446719D01*
X115565811Y-102590791D01*
X115549701Y-102724251D01*
X115508081Y-102991193D01*
X115446412Y-103358623D01*
X115370156Y-103793547D01*
X115327649Y-104029401D01*
X115093675Y-105315801D01*
X115437671Y-105369086D01*
X115692028Y-105412581D01*
X115890131Y-105453418D01*
X115920005Y-105461105D01*
X116049458Y-105427292D01*
X116103564Y-105306753D01*
X116150144Y-105084503D01*
X116213012Y-104751577D01*
X116287457Y-104336451D01*
X116368771Y-103867597D01*
X116452244Y-103373492D01*
X116533168Y-102882608D01*
X116606833Y-102423420D01*
X116668530Y-102024403D01*
X116713550Y-101714031D01*
X116737184Y-101520777D01*
X116738114Y-101469893D01*
X116629489Y-101425981D01*
X116424522Y-101379389D01*
X116187224Y-101340478D01*
X115981606Y-101319611D01*
X115871679Y-101327147D01*
X115869013Y-101329209D01*
X115831234Y-101442093D01*
X115824000Y-101538215D01*
X115808499Y-101622715D01*
X115741993Y-101613355D01*
X115594478Y-101499883D01*
X115518261Y-101433766D01*
X115155334Y-101167958D01*
X114822773Y-101026366D01*
X114675488Y-101007334D01*
X114600951Y-101055236D01*
X114563041Y-101217992D01*
X114554000Y-101469164D01*
X114554000Y-101469164D01*
X114554000Y-101469164D01*
G37*
X114554000Y-101469164D02*
X114558659Y-101734896D01*
X114590390Y-101878180D01*
X114675820Y-101945901D01*
X114841579Y-101984944D01*
X114847580Y-101986070D01*
X115120290Y-102084739D01*
X115361881Y-102251717D01*
X115524508Y-102446719D01*
X115565811Y-102590791D01*
X115549701Y-102724251D01*
X115508081Y-102991193D01*
X115446412Y-103358623D01*
X115370156Y-103793547D01*
X115327649Y-104029401D01*
X115093675Y-105315801D01*
X115437671Y-105369086D01*
X115692028Y-105412581D01*
X115890131Y-105453418D01*
X115920005Y-105461105D01*
X116049458Y-105427292D01*
X116103564Y-105306753D01*
X116150144Y-105084503D01*
X116213012Y-104751577D01*
X116287457Y-104336451D01*
X116368771Y-103867597D01*
X116452244Y-103373492D01*
X116533168Y-102882608D01*
X116606833Y-102423420D01*
X116668530Y-102024403D01*
X116713550Y-101714031D01*
X116737184Y-101520777D01*
X116738114Y-101469893D01*
X116629489Y-101425981D01*
X116424522Y-101379389D01*
X116187224Y-101340478D01*
X115981606Y-101319611D01*
X115871679Y-101327147D01*
X115869013Y-101329209D01*
X115831234Y-101442093D01*
X115824000Y-101538215D01*
X115808499Y-101622715D01*
X115741993Y-101613355D01*
X115594478Y-101499883D01*
X115518261Y-101433766D01*
X115155334Y-101167958D01*
X114822773Y-101026366D01*
X114675488Y-101007334D01*
X114600951Y-101055236D01*
X114563041Y-101217992D01*
X114554000Y-101469164D01*
X114554000Y-101469164D01*
G36*
X107364080Y-103906294D02*
X107367909Y-103924385D01*
X107462265Y-103955830D01*
X107670302Y-104002827D01*
X107842241Y-104035957D01*
X108019569Y-104071060D01*
X108147908Y-104086833D01*
X108239821Y-104061003D01*
X108307873Y-103971297D01*
X108364628Y-103795442D01*
X108422651Y-103511167D01*
X108494505Y-103096198D01*
X108547732Y-102785334D01*
X108651447Y-102220551D01*
X108745639Y-101798352D01*
X108839515Y-101493028D01*
X108942281Y-101278869D01*
X109063140Y-101130163D01*
X109170221Y-101046760D01*
X109447432Y-100950261D01*
X109755208Y-100969182D01*
X110042173Y-101084941D01*
X110256952Y-101278960D01*
X110340835Y-101470101D01*
X110340573Y-101624771D01*
X110313126Y-101911756D01*
X110262745Y-102296984D01*
X110193685Y-102746381D01*
X110147676Y-103017707D01*
X110052749Y-103593372D01*
X109995897Y-104019679D01*
X109977657Y-104291595D01*
X109998565Y-104404090D01*
X109999864Y-104404987D01*
X110118477Y-104443337D01*
X110326869Y-104486240D01*
X110563038Y-104523944D01*
X110764987Y-104546701D01*
X110870713Y-104544760D01*
X110873958Y-104542443D01*
X110893917Y-104456061D01*
X110937234Y-104232229D01*
X110998437Y-103900360D01*
X111072054Y-103489865D01*
X111112191Y-103262131D01*
X111229796Y-102643380D01*
X111342328Y-102174532D01*
X111457388Y-101836629D01*
X111582577Y-101610716D01*
X111725497Y-101477836D01*
X111847585Y-101428144D01*
X112171460Y-101414254D01*
X112515523Y-101497000D01*
X112789556Y-101654606D01*
X112790940Y-101655854D01*
X112859898Y-101729906D01*
X112905624Y-101822071D01*
X112926926Y-101955040D01*
X112922617Y-102151504D01*
X112891504Y-102434157D01*
X112832400Y-102825690D01*
X112744113Y-103348794D01*
X112684137Y-103692527D01*
X112614678Y-104106273D01*
X112561833Y-104456387D01*
X112529945Y-104711151D01*
X112523356Y-104838847D01*
X112526082Y-104847120D01*
X112624940Y-104877672D01*
X112836957Y-104917306D01*
X113005346Y-104942226D01*
X113263732Y-104971199D01*
X113401425Y-104959312D01*
X113464799Y-104893322D01*
X113490722Y-104803632D01*
X113548605Y-104523077D01*
X113619821Y-104143854D01*
X113699636Y-103695102D01*
X113783314Y-103205957D01*
X113866120Y-102705557D01*
X113943322Y-102223039D01*
X114010183Y-101787540D01*
X114061969Y-101428197D01*
X114093945Y-101174147D01*
X114101378Y-101054527D01*
X114100520Y-101050895D01*
X113998275Y-100971540D01*
X113794712Y-100904874D01*
X113735867Y-100893589D01*
X113491698Y-100876285D01*
X113347153Y-100935406D01*
X113305784Y-100981320D01*
X113220100Y-101068530D01*
X113129232Y-101046765D01*
X113009450Y-100943645D01*
X112649482Y-100714027D01*
X112210160Y-100596100D01*
X111744025Y-100595359D01*
X111303617Y-100717299D01*
X111223352Y-100756835D01*
X110900879Y-100929671D01*
X110729770Y-100712140D01*
X110456885Y-100467137D01*
X110079463Y-100260788D01*
X109662232Y-100126964D01*
X109584046Y-100112571D01*
X109099855Y-100114490D01*
X108657157Y-100268920D01*
X108277960Y-100560164D01*
X107984271Y-100972525D01*
X107829974Y-101363666D01*
X107768604Y-101609160D01*
X107695630Y-101944585D01*
X107617303Y-102335310D01*
X107539872Y-102746701D01*
X107469584Y-103144127D01*
X107412691Y-103492956D01*
X107375439Y-103758556D01*
X107364080Y-103906294D01*
X107364080Y-103906294D01*
X107364080Y-103906294D01*
G37*
X107364080Y-103906294D02*
X107367909Y-103924385D01*
X107462265Y-103955830D01*
X107670302Y-104002827D01*
X107842241Y-104035957D01*
X108019569Y-104071060D01*
X108147908Y-104086833D01*
X108239821Y-104061003D01*
X108307873Y-103971297D01*
X108364628Y-103795442D01*
X108422651Y-103511167D01*
X108494505Y-103096198D01*
X108547732Y-102785334D01*
X108651447Y-102220551D01*
X108745639Y-101798352D01*
X108839515Y-101493028D01*
X108942281Y-101278869D01*
X109063140Y-101130163D01*
X109170221Y-101046760D01*
X109447432Y-100950261D01*
X109755208Y-100969182D01*
X110042173Y-101084941D01*
X110256952Y-101278960D01*
X110340835Y-101470101D01*
X110340573Y-101624771D01*
X110313126Y-101911756D01*
X110262745Y-102296984D01*
X110193685Y-102746381D01*
X110147676Y-103017707D01*
X110052749Y-103593372D01*
X109995897Y-104019679D01*
X109977657Y-104291595D01*
X109998565Y-104404090D01*
X109999864Y-104404987D01*
X110118477Y-104443337D01*
X110326869Y-104486240D01*
X110563038Y-104523944D01*
X110764987Y-104546701D01*
X110870713Y-104544760D01*
X110873958Y-104542443D01*
X110893917Y-104456061D01*
X110937234Y-104232229D01*
X110998437Y-103900360D01*
X111072054Y-103489865D01*
X111112191Y-103262131D01*
X111229796Y-102643380D01*
X111342328Y-102174532D01*
X111457388Y-101836629D01*
X111582577Y-101610716D01*
X111725497Y-101477836D01*
X111847585Y-101428144D01*
X112171460Y-101414254D01*
X112515523Y-101497000D01*
X112789556Y-101654606D01*
X112790940Y-101655854D01*
X112859898Y-101729906D01*
X112905624Y-101822071D01*
X112926926Y-101955040D01*
X112922617Y-102151504D01*
X112891504Y-102434157D01*
X112832400Y-102825690D01*
X112744113Y-103348794D01*
X112684137Y-103692527D01*
X112614678Y-104106273D01*
X112561833Y-104456387D01*
X112529945Y-104711151D01*
X112523356Y-104838847D01*
X112526082Y-104847120D01*
X112624940Y-104877672D01*
X112836957Y-104917306D01*
X113005346Y-104942226D01*
X113263732Y-104971199D01*
X113401425Y-104959312D01*
X113464799Y-104893322D01*
X113490722Y-104803632D01*
X113548605Y-104523077D01*
X113619821Y-104143854D01*
X113699636Y-103695102D01*
X113783314Y-103205957D01*
X113866120Y-102705557D01*
X113943322Y-102223039D01*
X114010183Y-101787540D01*
X114061969Y-101428197D01*
X114093945Y-101174147D01*
X114101378Y-101054527D01*
X114100520Y-101050895D01*
X113998275Y-100971540D01*
X113794712Y-100904874D01*
X113735867Y-100893589D01*
X113491698Y-100876285D01*
X113347153Y-100935406D01*
X113305784Y-100981320D01*
X113220100Y-101068530D01*
X113129232Y-101046765D01*
X113009450Y-100943645D01*
X112649482Y-100714027D01*
X112210160Y-100596100D01*
X111744025Y-100595359D01*
X111303617Y-100717299D01*
X111223352Y-100756835D01*
X110900879Y-100929671D01*
X110729770Y-100712140D01*
X110456885Y-100467137D01*
X110079463Y-100260788D01*
X109662232Y-100126964D01*
X109584046Y-100112571D01*
X109099855Y-100114490D01*
X108657157Y-100268920D01*
X108277960Y-100560164D01*
X107984271Y-100972525D01*
X107829974Y-101363666D01*
X107768604Y-101609160D01*
X107695630Y-101944585D01*
X107617303Y-102335310D01*
X107539872Y-102746701D01*
X107469584Y-103144127D01*
X107412691Y-103492956D01*
X107375439Y-103758556D01*
X107364080Y-103906294D01*
X107364080Y-103906294D01*
G36*
X108706521Y-95548795D02*
X108805292Y-96139000D01*
X108951269Y-96444019D01*
X109206958Y-96772065D01*
X109526894Y-97078385D01*
X109865614Y-97318227D01*
X110118823Y-97431944D01*
X110314173Y-97467307D01*
X110642249Y-97494951D01*
X111111155Y-97515171D01*
X111728993Y-97528261D01*
X112503868Y-97534517D01*
X112955156Y-97535173D01*
X113670364Y-97534564D01*
X114237513Y-97532281D01*
X114677876Y-97526847D01*
X115012729Y-97516783D01*
X115263344Y-97500612D01*
X115450997Y-97476856D01*
X115596961Y-97444037D01*
X115722509Y-97400677D01*
X115848917Y-97345299D01*
X115877155Y-97332194D01*
X115968533Y-97289463D01*
X116052963Y-97246015D01*
X116138726Y-97192620D01*
X116234102Y-97120046D01*
X116347370Y-97019062D01*
X116486810Y-96880437D01*
X116660702Y-96694941D01*
X116877325Y-96453342D01*
X117144959Y-96146410D01*
X117471884Y-95764914D01*
X117866379Y-95299622D01*
X118336725Y-94741304D01*
X118891201Y-94080728D01*
X119538086Y-93308664D01*
X120269000Y-92435779D01*
X120775025Y-91834160D01*
X121248372Y-91276617D01*
X121677967Y-90775814D01*
X122052737Y-90344419D01*
X122361609Y-89995097D01*
X122593509Y-89740514D01*
X122737365Y-89593336D01*
X122781756Y-89561563D01*
X122820475Y-89649689D01*
X122911539Y-89882727D01*
X123049629Y-90246372D01*
X123229428Y-90726324D01*
X123445619Y-91308278D01*
X123692885Y-91977932D01*
X123965909Y-92720983D01*
X124259373Y-93523130D01*
X124503062Y-94191667D01*
X124924027Y-95342413D01*
X125291748Y-96334795D01*
X125607045Y-97170918D01*
X125870739Y-97852888D01*
X126083653Y-98382811D01*
X126246607Y-98762793D01*
X126360422Y-98994938D01*
X126402082Y-99060000D01*
X126777850Y-99409777D01*
X127253361Y-99667226D01*
X127772259Y-99805647D01*
X128010486Y-99822000D01*
X128427730Y-99784259D01*
X128818370Y-99653681D01*
X128952736Y-99589167D01*
X129405812Y-99275968D01*
X129759606Y-98862931D01*
X129997032Y-98383699D01*
X130101009Y-97871914D01*
X130064002Y-97400733D01*
X130021331Y-97261193D01*
X129925525Y-96977871D01*
X129782072Y-96565846D01*
X129596461Y-96040199D01*
X129374179Y-95416010D01*
X129120715Y-94708358D01*
X128841556Y-93932323D01*
X128542191Y-93102985D01*
X128228109Y-92235423D01*
X127904796Y-91344719D01*
X127577741Y-90445951D01*
X127252433Y-89554200D01*
X126934359Y-88684544D01*
X126629007Y-87852065D01*
X126341866Y-87071843D01*
X126078424Y-86358955D01*
X125844168Y-85728484D01*
X125644587Y-85195508D01*
X125485169Y-84775108D01*
X125371402Y-84482363D01*
X125308774Y-84332353D01*
X125305624Y-84325957D01*
X125013993Y-83925433D01*
X124607412Y-83598689D01*
X124130615Y-83368711D01*
X123628338Y-83258483D01*
X123250380Y-83269986D01*
X123093451Y-83295417D01*
X122950971Y-83324590D01*
X122814472Y-83366144D01*
X122675487Y-83428717D01*
X122525551Y-83520949D01*
X122356195Y-83651478D01*
X122158954Y-83828943D01*
X121925360Y-84061982D01*
X121646948Y-84359234D01*
X121315249Y-84729338D01*
X120921798Y-85180932D01*
X120458128Y-85722655D01*
X119915772Y-86363147D01*
X119286263Y-87111045D01*
X118561134Y-87974988D01*
X118098981Y-88526010D01*
X114021716Y-93387333D01*
X112244514Y-93387334D01*
X111556272Y-93390063D01*
X111012480Y-93401896D01*
X110588291Y-93428294D01*
X110258862Y-93474722D01*
X109999347Y-93546644D01*
X109784901Y-93649522D01*
X109590679Y-93788821D01*
X109391837Y-93970004D01*
X109333437Y-94027506D01*
X108964184Y-94491475D01*
X108756157Y-94994791D01*
X108706521Y-95548795D01*
X108706521Y-95548795D01*
X108706521Y-95548795D01*
G37*
X108706521Y-95548795D02*
X108805292Y-96139000D01*
X108951269Y-96444019D01*
X109206958Y-96772065D01*
X109526894Y-97078385D01*
X109865614Y-97318227D01*
X110118823Y-97431944D01*
X110314173Y-97467307D01*
X110642249Y-97494951D01*
X111111155Y-97515171D01*
X111728993Y-97528261D01*
X112503868Y-97534517D01*
X112955156Y-97535173D01*
X113670364Y-97534564D01*
X114237513Y-97532281D01*
X114677876Y-97526847D01*
X115012729Y-97516783D01*
X115263344Y-97500612D01*
X115450997Y-97476856D01*
X115596961Y-97444037D01*
X115722509Y-97400677D01*
X115848917Y-97345299D01*
X115877155Y-97332194D01*
X115968533Y-97289463D01*
X116052963Y-97246015D01*
X116138726Y-97192620D01*
X116234102Y-97120046D01*
X116347370Y-97019062D01*
X116486810Y-96880437D01*
X116660702Y-96694941D01*
X116877325Y-96453342D01*
X117144959Y-96146410D01*
X117471884Y-95764914D01*
X117866379Y-95299622D01*
X118336725Y-94741304D01*
X118891201Y-94080728D01*
X119538086Y-93308664D01*
X120269000Y-92435779D01*
X120775025Y-91834160D01*
X121248372Y-91276617D01*
X121677967Y-90775814D01*
X122052737Y-90344419D01*
X122361609Y-89995097D01*
X122593509Y-89740514D01*
X122737365Y-89593336D01*
X122781756Y-89561563D01*
X122820475Y-89649689D01*
X122911539Y-89882727D01*
X123049629Y-90246372D01*
X123229428Y-90726324D01*
X123445619Y-91308278D01*
X123692885Y-91977932D01*
X123965909Y-92720983D01*
X124259373Y-93523130D01*
X124503062Y-94191667D01*
X124924027Y-95342413D01*
X125291748Y-96334795D01*
X125607045Y-97170918D01*
X125870739Y-97852888D01*
X126083653Y-98382811D01*
X126246607Y-98762793D01*
X126360422Y-98994938D01*
X126402082Y-99060000D01*
X126777850Y-99409777D01*
X127253361Y-99667226D01*
X127772259Y-99805647D01*
X128010486Y-99822000D01*
X128427730Y-99784259D01*
X128818370Y-99653681D01*
X128952736Y-99589167D01*
X129405812Y-99275968D01*
X129759606Y-98862931D01*
X129997032Y-98383699D01*
X130101009Y-97871914D01*
X130064002Y-97400733D01*
X130021331Y-97261193D01*
X129925525Y-96977871D01*
X129782072Y-96565846D01*
X129596461Y-96040199D01*
X129374179Y-95416010D01*
X129120715Y-94708358D01*
X128841556Y-93932323D01*
X128542191Y-93102985D01*
X128228109Y-92235423D01*
X127904796Y-91344719D01*
X127577741Y-90445951D01*
X127252433Y-89554200D01*
X126934359Y-88684544D01*
X126629007Y-87852065D01*
X126341866Y-87071843D01*
X126078424Y-86358955D01*
X125844168Y-85728484D01*
X125644587Y-85195508D01*
X125485169Y-84775108D01*
X125371402Y-84482363D01*
X125308774Y-84332353D01*
X125305624Y-84325957D01*
X125013993Y-83925433D01*
X124607412Y-83598689D01*
X124130615Y-83368711D01*
X123628338Y-83258483D01*
X123250380Y-83269986D01*
X123093451Y-83295417D01*
X122950971Y-83324590D01*
X122814472Y-83366144D01*
X122675487Y-83428717D01*
X122525551Y-83520949D01*
X122356195Y-83651478D01*
X122158954Y-83828943D01*
X121925360Y-84061982D01*
X121646948Y-84359234D01*
X121315249Y-84729338D01*
X120921798Y-85180932D01*
X120458128Y-85722655D01*
X119915772Y-86363147D01*
X119286263Y-87111045D01*
X118561134Y-87974988D01*
X118098981Y-88526010D01*
X114021716Y-93387333D01*
X112244514Y-93387334D01*
X111556272Y-93390063D01*
X111012480Y-93401896D01*
X110588291Y-93428294D01*
X110258862Y-93474722D01*
X109999347Y-93546644D01*
X109784901Y-93649522D01*
X109590679Y-93788821D01*
X109391837Y-93970004D01*
X109333437Y-94027506D01*
X108964184Y-94491475D01*
X108756157Y-94994791D01*
X108706521Y-95548795D01*
X108706521Y-95548795D01*
%LPC*%
D12*
X111760000Y-116840000D03*
X114300000Y-117050000D03*
X116840000Y-116840000D03*
X119400000Y-117050000D03*
X121920000Y-116840000D03*
X124500000Y-117050000D03*
X127000000Y-116840000D03*
D13*
X129550000Y-117000000D03*
D14*
X171735000Y-75946000D03*
D15*
X171735000Y-78486000D03*
X171735000Y-81026000D03*
D14*
X169195000Y-75946000D03*
D15*
X169195000Y-78486000D03*
X169195000Y-81026000D03*
D14*
X166655000Y-75946000D03*
D15*
X166655000Y-78486000D03*
X166655000Y-81026000D03*
D14*
X164095000Y-75935000D03*
D15*
X164095000Y-78475000D03*
X164095000Y-81015000D03*
D16*
X174470000Y-92880000D03*
D17*
X171930000Y-92880000D03*
X169390000Y-92880000D03*
X166850000Y-92880000D03*
X164310000Y-92880000D03*
X161770000Y-92880000D03*
X159230000Y-92880000D03*
X156690000Y-92880000D03*
X154150000Y-92880000D03*
X151610000Y-92880000D03*
X149070000Y-92880000D03*
X146530000Y-92880000D03*
X146530000Y-108120000D03*
X149070000Y-108120000D03*
X151610000Y-108120000D03*
X154150000Y-108120000D03*
X156690000Y-108120000D03*
X159230000Y-108120000D03*
X161770000Y-108120000D03*
X164310000Y-108120000D03*
X166850000Y-108120000D03*
X169390000Y-108120000D03*
X171930000Y-108120000D03*
X174470000Y-108120000D03*
D18*
X98933000Y-128651000D03*
X98552000Y-128651000D03*
X98171000Y-128651000D03*
X97790000Y-128651000D03*
X97409000Y-128651000D03*
X172339000Y-128651000D03*
X171958000Y-128651000D03*
X171577000Y-128651000D03*
X171196000Y-128651000D03*
X170815000Y-128651000D03*
X118618000Y-72517000D03*
D19*
X130000000Y-125500000D03*
D20*
X130000000Y-122960000D03*
X132540000Y-125500000D03*
X132540000Y-122960000D03*
X135080000Y-125500000D03*
X135080000Y-122960000D03*
X137620000Y-125500000D03*
X137620000Y-122960000D03*
X140160000Y-125500000D03*
X140160000Y-122960000D03*
D21*
X169500000Y-125000000D03*
D22*
X169500000Y-118904000D03*
D21*
X174580000Y-122714000D03*
D23*
X97500000Y-76000000D03*
X155500000Y-76000000D03*
X97500000Y-125000000D03*
X155500000Y-125000000D03*
D18*
X118999000Y-72517000D03*
X119380000Y-72517000D03*
X119761000Y-72517000D03*
X120142000Y-72517000D03*
M02*
