G04 #@! TF.FileFunction,Copper,L1,Top,Signal*
%FSLAX46Y46*%
G04 Gerber Fmt 4.6, Leading zero omitted, Abs format (unit mm)*
G04 Created by KiCad (PCBNEW (2015-01-16 BZR 5376)-product) date 3/31/2016 11:59:56 AM*
%MOMM*%
G01*
G04 APERTURE LIST*
%ADD10C,0.100000*%
%ADD11C,2.000000*%
%ADD12R,2.000000X2.000000*%
%ADD13R,2.032000X1.727200*%
%ADD14O,2.032000X1.727200*%
%ADD15R,1.574800X2.286000*%
%ADD16O,1.574800X2.286000*%
%ADD17C,0.300000*%
%ADD18R,1.727200X1.727200*%
%ADD19O,1.727200X1.727200*%
%ADD20C,4.800600*%
%ADD21R,4.800600X4.800600*%
%ADD22C,3.000000*%
%ADD23C,0.889000*%
%ADD24C,0.254000*%
G04 APERTURE END LIST*
D10*
D11*
X111760000Y-116840000D03*
X114300000Y-117050000D03*
X116840000Y-116840000D03*
X119400000Y-117050000D03*
X121920000Y-116840000D03*
X124500000Y-117050000D03*
X127000000Y-116840000D03*
D12*
X129550000Y-117000000D03*
D13*
X171735000Y-75946000D03*
D14*
X171735000Y-78486000D03*
X171735000Y-81026000D03*
D13*
X169195000Y-75946000D03*
D14*
X169195000Y-78486000D03*
X169195000Y-81026000D03*
D13*
X166655000Y-75946000D03*
D14*
X166655000Y-78486000D03*
X166655000Y-81026000D03*
D13*
X164095000Y-75935000D03*
D14*
X164095000Y-78475000D03*
X164095000Y-81015000D03*
D15*
X174470000Y-92880000D03*
D16*
X171930000Y-92880000D03*
X169390000Y-92880000D03*
X166850000Y-92880000D03*
X164310000Y-92880000D03*
X161770000Y-92880000D03*
X159230000Y-92880000D03*
X156690000Y-92880000D03*
X154150000Y-92880000D03*
X151610000Y-92880000D03*
X149070000Y-92880000D03*
X146530000Y-92880000D03*
X146530000Y-108120000D03*
X149070000Y-108120000D03*
X151610000Y-108120000D03*
X154150000Y-108120000D03*
X156690000Y-108120000D03*
X159230000Y-108120000D03*
X161770000Y-108120000D03*
X164310000Y-108120000D03*
X166850000Y-108120000D03*
X169390000Y-108120000D03*
X171930000Y-108120000D03*
X174470000Y-108120000D03*
D17*
X98933000Y-128651000D03*
X98552000Y-128651000D03*
X98171000Y-128651000D03*
X97790000Y-128651000D03*
X97409000Y-128651000D03*
X172339000Y-128651000D03*
X171958000Y-128651000D03*
X171577000Y-128651000D03*
X171196000Y-128651000D03*
X170815000Y-128651000D03*
X118618000Y-72517000D03*
D18*
X130000000Y-125500000D03*
D19*
X130000000Y-122960000D03*
X132540000Y-125500000D03*
X132540000Y-122960000D03*
X135080000Y-125500000D03*
X135080000Y-122960000D03*
X137620000Y-125500000D03*
X137620000Y-122960000D03*
X140160000Y-125500000D03*
X140160000Y-122960000D03*
D20*
X169500000Y-125000000D03*
D21*
X169500000Y-118904000D03*
D20*
X174580000Y-122714000D03*
D22*
X97500000Y-76000000D03*
X155500000Y-76000000D03*
X97500000Y-125000000D03*
X155500000Y-125000000D03*
D17*
X118999000Y-72517000D03*
X119380000Y-72517000D03*
X119761000Y-72517000D03*
X120142000Y-72517000D03*
D23*
X144750000Y-115250000D03*
X149000000Y-119250000D03*
X158250000Y-119000000D03*
X157250000Y-111000000D03*
D24*
X137620000Y-125500000D02*
X135080000Y-125500000D01*
X140160000Y-122960000D02*
X137620000Y-125500000D01*
X164310000Y-92880000D02*
X164310000Y-105190000D01*
X130000000Y-126500000D02*
X130000000Y-125500000D01*
X131000000Y-127500000D02*
X130000000Y-126500000D01*
X158000000Y-127500000D02*
X131000000Y-127500000D01*
X163000000Y-122500000D02*
X158000000Y-127500000D01*
X163000000Y-106500000D02*
X163000000Y-122500000D01*
X164310000Y-105190000D02*
X163000000Y-106500000D01*
X161770000Y-92880000D02*
X161770000Y-105230000D01*
X149000000Y-125500000D02*
X140160000Y-125500000D01*
X160500000Y-114000000D02*
X149000000Y-125500000D01*
X160500000Y-106500000D02*
X160500000Y-114000000D01*
X161770000Y-105230000D02*
X160500000Y-106500000D01*
X159230000Y-92880000D02*
X159230000Y-93270000D01*
X159230000Y-93270000D02*
X153000000Y-99500000D01*
X153000000Y-99500000D02*
X122000000Y-99500000D01*
X122000000Y-99500000D02*
X116840000Y-104660000D01*
X116840000Y-104660000D02*
X116840000Y-116840000D01*
X151610000Y-92880000D02*
X151610000Y-91110000D01*
X111760000Y-102240000D02*
X111760000Y-116840000D01*
X119000000Y-95000000D02*
X111760000Y-102240000D01*
X141000000Y-95000000D02*
X119000000Y-95000000D01*
X146000000Y-90000000D02*
X141000000Y-95000000D01*
X150500000Y-90000000D02*
X146000000Y-90000000D01*
X151610000Y-91110000D02*
X150500000Y-90000000D01*
X149070000Y-92880000D02*
X149070000Y-94430000D01*
X114300000Y-103700000D02*
X114300000Y-117050000D01*
X121000000Y-97000000D02*
X114300000Y-103700000D01*
X146500000Y-97000000D02*
X121000000Y-97000000D01*
X149070000Y-94430000D02*
X146500000Y-97000000D01*
X149070000Y-108120000D02*
X149070000Y-106570000D01*
X119400000Y-105100000D02*
X119400000Y-117050000D01*
X123000000Y-101500000D02*
X119400000Y-105100000D01*
X144000000Y-101500000D02*
X123000000Y-101500000D01*
X149070000Y-106570000D02*
X144000000Y-101500000D01*
X154150000Y-108120000D02*
X154150000Y-109350000D01*
X121920000Y-113080000D02*
X121920000Y-116840000D01*
X124000000Y-111000000D02*
X121920000Y-113080000D01*
X152500000Y-111000000D02*
X124000000Y-111000000D01*
X154150000Y-109350000D02*
X152500000Y-111000000D01*
X156690000Y-108120000D02*
X156690000Y-108810000D01*
X156690000Y-108810000D02*
X150250000Y-115250000D01*
X150250000Y-115250000D02*
X144750000Y-115250000D01*
X159230000Y-108120000D02*
X159230000Y-111770000D01*
X139580000Y-121000000D02*
X137620000Y-122960000D01*
X150000000Y-121000000D02*
X139580000Y-121000000D01*
X159230000Y-111770000D02*
X150000000Y-121000000D01*
X161770000Y-115230000D02*
X161770000Y-115480000D01*
X161770000Y-108120000D02*
X161770000Y-115230000D01*
X135080000Y-121670000D02*
X135080000Y-122960000D01*
X137500000Y-119250000D02*
X135080000Y-121670000D01*
X149000000Y-119250000D02*
X137500000Y-119250000D01*
X161770000Y-115480000D02*
X158250000Y-119000000D01*
X132540000Y-119210000D02*
X132540000Y-122960000D01*
X134500000Y-117250000D02*
X132540000Y-119210000D01*
X151000000Y-117250000D02*
X134500000Y-117250000D01*
X157250000Y-111000000D02*
X151000000Y-117250000D01*
X124500000Y-117050000D02*
X126790000Y-117050000D01*
X126790000Y-117050000D02*
X127000000Y-116840000D01*
G36*
X137767000Y-125627000D02*
X137747000Y-125627000D01*
X137747000Y-125647000D01*
X137493000Y-125647000D01*
X137493000Y-125627000D01*
X136414469Y-125627000D01*
X136285531Y-125627000D01*
X135207000Y-125627000D01*
X135207000Y-125647000D01*
X134953000Y-125647000D01*
X134953000Y-125627000D01*
X134933000Y-125627000D01*
X134933000Y-125373000D01*
X134953000Y-125373000D01*
X134953000Y-125353000D01*
X135207000Y-125353000D01*
X135207000Y-125373000D01*
X136285531Y-125373000D01*
X136414469Y-125373000D01*
X137493000Y-125373000D01*
X137493000Y-125353000D01*
X137747000Y-125353000D01*
X137747000Y-125373000D01*
X137767000Y-125373000D01*
X137767000Y-125627000D01*
X137767000Y-125627000D01*
G37*
X137767000Y-125627000D02*
X137747000Y-125627000D01*
X137747000Y-125647000D01*
X137493000Y-125647000D01*
X137493000Y-125627000D01*
X136414469Y-125627000D01*
X136285531Y-125627000D01*
X135207000Y-125627000D01*
X135207000Y-125647000D01*
X134953000Y-125647000D01*
X134953000Y-125627000D01*
X134933000Y-125627000D01*
X134933000Y-125373000D01*
X134953000Y-125373000D01*
X134953000Y-125353000D01*
X135207000Y-125353000D01*
X135207000Y-125373000D01*
X136285531Y-125373000D01*
X136414469Y-125373000D01*
X137493000Y-125373000D01*
X137493000Y-125353000D01*
X137747000Y-125353000D01*
X137747000Y-125373000D01*
X137767000Y-125373000D01*
X137767000Y-125627000D01*
G36*
X159738000Y-113684370D02*
X148684370Y-124738000D01*
X141438183Y-124738000D01*
X141219670Y-124410971D01*
X140948839Y-124230007D01*
X141366821Y-123848490D01*
X141614968Y-123319027D01*
X141494469Y-123087000D01*
X140287000Y-123087000D01*
X140287000Y-123107000D01*
X140033000Y-123107000D01*
X140033000Y-123087000D01*
X140013000Y-123087000D01*
X140013000Y-122833000D01*
X140033000Y-122833000D01*
X140033000Y-122813000D01*
X140287000Y-122813000D01*
X140287000Y-122833000D01*
X141494469Y-122833000D01*
X141614968Y-122600973D01*
X141366821Y-122071510D01*
X141027729Y-121762000D01*
X150000000Y-121762000D01*
X150000000Y-121761999D01*
X150291604Y-121703996D01*
X150291605Y-121703996D01*
X150538815Y-121538815D01*
X159738000Y-112339630D01*
X159738000Y-113684370D01*
X159738000Y-113684370D01*
G37*
X159738000Y-113684370D02*
X148684370Y-124738000D01*
X141438183Y-124738000D01*
X141219670Y-124410971D01*
X140948839Y-124230007D01*
X141366821Y-123848490D01*
X141614968Y-123319027D01*
X141494469Y-123087000D01*
X140287000Y-123087000D01*
X140287000Y-123107000D01*
X140033000Y-123107000D01*
X140033000Y-123087000D01*
X140013000Y-123087000D01*
X140013000Y-122833000D01*
X140033000Y-122833000D01*
X140033000Y-122813000D01*
X140287000Y-122813000D01*
X140287000Y-122833000D01*
X141494469Y-122833000D01*
X141614968Y-122600973D01*
X141366821Y-122071510D01*
X141027729Y-121762000D01*
X150000000Y-121762000D01*
X150000000Y-121761999D01*
X150291604Y-121703996D01*
X150291605Y-121703996D01*
X150538815Y-121538815D01*
X159738000Y-112339630D01*
X159738000Y-113684370D01*
G36*
X177865000Y-125888213D02*
X177702492Y-126705194D01*
X177616369Y-126834085D01*
X177616369Y-123312358D01*
X177614221Y-122104843D01*
X177156257Y-120999221D01*
X176743936Y-120729670D01*
X176564330Y-120909275D01*
X174759605Y-122714000D01*
X176743936Y-124698330D01*
X177156257Y-124428779D01*
X177616369Y-123312358D01*
X177616369Y-126834085D01*
X177303029Y-127303031D01*
X176705193Y-127702493D01*
X176564330Y-127730512D01*
X176564330Y-124877936D01*
X174580000Y-122893605D01*
X174565857Y-122907747D01*
X174400395Y-122742285D01*
X174386252Y-122728142D01*
X174400395Y-122714000D01*
X174386252Y-122699857D01*
X174565857Y-122520252D01*
X174580000Y-122534395D01*
X176564330Y-120550064D01*
X176294779Y-120137743D01*
X175904840Y-119977036D01*
X175904840Y-94023000D01*
X175904840Y-91737000D01*
X175857863Y-91494877D01*
X175718073Y-91282073D01*
X175507040Y-91139623D01*
X175257400Y-91089560D01*
X173682600Y-91089560D01*
X173440477Y-91136537D01*
X173418345Y-91151075D01*
X173418345Y-81026000D01*
X173304271Y-80452511D01*
X172979415Y-79966330D01*
X172664634Y-79756000D01*
X172979415Y-79545670D01*
X173304271Y-79059489D01*
X173418345Y-78486000D01*
X173304271Y-77912511D01*
X172979415Y-77426330D01*
X172957219Y-77411499D01*
X173110698Y-77347927D01*
X173289327Y-77169299D01*
X173386000Y-76935910D01*
X173386000Y-76683291D01*
X173386000Y-76231750D01*
X173386000Y-75660250D01*
X173386000Y-75208709D01*
X173386000Y-74956090D01*
X173289327Y-74722701D01*
X173110698Y-74544073D01*
X172877309Y-74447400D01*
X172020750Y-74447400D01*
X171862000Y-74606150D01*
X171862000Y-75819000D01*
X173227250Y-75819000D01*
X173386000Y-75660250D01*
X173386000Y-76231750D01*
X173227250Y-76073000D01*
X171862000Y-76073000D01*
X171862000Y-76093000D01*
X171608000Y-76093000D01*
X171608000Y-76073000D01*
X171608000Y-75819000D01*
X171608000Y-74606150D01*
X171449250Y-74447400D01*
X170592691Y-74447400D01*
X170465000Y-74500291D01*
X170337309Y-74447400D01*
X169480750Y-74447400D01*
X169322000Y-74606150D01*
X169322000Y-75819000D01*
X170242750Y-75819000D01*
X170687250Y-75819000D01*
X171608000Y-75819000D01*
X171608000Y-76073000D01*
X170687250Y-76073000D01*
X170242750Y-76073000D01*
X169322000Y-76073000D01*
X169322000Y-76093000D01*
X169068000Y-76093000D01*
X169068000Y-76073000D01*
X169068000Y-75819000D01*
X169068000Y-74606150D01*
X168909250Y-74447400D01*
X168052691Y-74447400D01*
X167925000Y-74500291D01*
X167797309Y-74447400D01*
X166940750Y-74447400D01*
X166782000Y-74606150D01*
X166782000Y-75819000D01*
X167702750Y-75819000D01*
X168147250Y-75819000D01*
X169068000Y-75819000D01*
X169068000Y-76073000D01*
X168147250Y-76073000D01*
X167702750Y-76073000D01*
X166782000Y-76073000D01*
X166782000Y-76093000D01*
X166528000Y-76093000D01*
X166528000Y-76073000D01*
X166528000Y-75819000D01*
X166528000Y-74606150D01*
X166369250Y-74447400D01*
X165512691Y-74447400D01*
X165388278Y-74498933D01*
X165237309Y-74436400D01*
X164380750Y-74436400D01*
X164222000Y-74595150D01*
X164222000Y-75808000D01*
X165151750Y-75808000D01*
X165162750Y-75819000D01*
X166528000Y-75819000D01*
X166528000Y-76073000D01*
X165598250Y-76073000D01*
X165587250Y-76062000D01*
X164222000Y-76062000D01*
X164222000Y-76082000D01*
X163968000Y-76082000D01*
X163968000Y-76062000D01*
X163968000Y-75808000D01*
X163968000Y-74595150D01*
X163809250Y-74436400D01*
X162952691Y-74436400D01*
X162719302Y-74533073D01*
X162540673Y-74711701D01*
X162444000Y-74945090D01*
X162444000Y-75197709D01*
X162444000Y-75649250D01*
X162602750Y-75808000D01*
X163968000Y-75808000D01*
X163968000Y-76062000D01*
X162602750Y-76062000D01*
X162444000Y-76220750D01*
X162444000Y-76672291D01*
X162444000Y-76924910D01*
X162540673Y-77158299D01*
X162719302Y-77336927D01*
X162872780Y-77400499D01*
X162850585Y-77415330D01*
X162525729Y-77901511D01*
X162411655Y-78475000D01*
X162525729Y-79048489D01*
X162850585Y-79534670D01*
X163165365Y-79745000D01*
X162850585Y-79955330D01*
X162525729Y-80441511D01*
X162411655Y-81015000D01*
X162525729Y-81588489D01*
X162850585Y-82074670D01*
X163336766Y-82399526D01*
X163910255Y-82513600D01*
X164279745Y-82513600D01*
X164853234Y-82399526D01*
X165339415Y-82074670D01*
X165371325Y-82026913D01*
X165410585Y-82085670D01*
X165896766Y-82410526D01*
X166470255Y-82524600D01*
X166839745Y-82524600D01*
X167413234Y-82410526D01*
X167899415Y-82085670D01*
X167925000Y-82047379D01*
X167950585Y-82085670D01*
X168436766Y-82410526D01*
X169010255Y-82524600D01*
X169379745Y-82524600D01*
X169953234Y-82410526D01*
X170439415Y-82085670D01*
X170465000Y-82047379D01*
X170490585Y-82085670D01*
X170976766Y-82410526D01*
X171550255Y-82524600D01*
X171919745Y-82524600D01*
X172493234Y-82410526D01*
X172979415Y-82085670D01*
X173304271Y-81599489D01*
X173418345Y-81026000D01*
X173418345Y-91151075D01*
X173227673Y-91276327D01*
X173085223Y-91487360D01*
X173051279Y-91656621D01*
X172935789Y-91483778D01*
X172474329Y-91175441D01*
X171930000Y-91067167D01*
X171385671Y-91175441D01*
X170924211Y-91483778D01*
X170660246Y-91878829D01*
X170655525Y-91862738D01*
X170305986Y-91428809D01*
X169816996Y-91161673D01*
X169737060Y-91144990D01*
X169517000Y-91267148D01*
X169517000Y-92753000D01*
X169537000Y-92753000D01*
X169537000Y-93007000D01*
X169517000Y-93007000D01*
X169517000Y-94492852D01*
X169737060Y-94615010D01*
X169816996Y-94598327D01*
X170305986Y-94331191D01*
X170655525Y-93897262D01*
X170660246Y-93881170D01*
X170924211Y-94276222D01*
X171385671Y-94584559D01*
X171930000Y-94692833D01*
X172474329Y-94584559D01*
X172935789Y-94276222D01*
X173050873Y-94103986D01*
X173082137Y-94265123D01*
X173221927Y-94477927D01*
X173432960Y-94620377D01*
X173682600Y-94670440D01*
X175257400Y-94670440D01*
X175499523Y-94623463D01*
X175712327Y-94483673D01*
X175854777Y-94272640D01*
X175904840Y-94023000D01*
X175904840Y-119977036D01*
X175892400Y-119971910D01*
X175892400Y-108510433D01*
X175892400Y-107729567D01*
X175784126Y-107185238D01*
X175475789Y-106723778D01*
X175014329Y-106415441D01*
X174470000Y-106307167D01*
X173925671Y-106415441D01*
X173464211Y-106723778D01*
X173200246Y-107118829D01*
X173195525Y-107102738D01*
X172845986Y-106668809D01*
X172356996Y-106401673D01*
X172277060Y-106384990D01*
X172057000Y-106507148D01*
X172057000Y-107993000D01*
X172077000Y-107993000D01*
X172077000Y-108247000D01*
X172057000Y-108247000D01*
X172057000Y-109732852D01*
X172277060Y-109855010D01*
X172356996Y-109838327D01*
X172845986Y-109571191D01*
X173195525Y-109137262D01*
X173200246Y-109121170D01*
X173464211Y-109516222D01*
X173925671Y-109824559D01*
X174470000Y-109932833D01*
X175014329Y-109824559D01*
X175475789Y-109516222D01*
X175784126Y-109054762D01*
X175892400Y-108510433D01*
X175892400Y-119971910D01*
X175178358Y-119677631D01*
X173970843Y-119679779D01*
X172865221Y-120137743D01*
X172595670Y-120550062D01*
X172547740Y-120502132D01*
X172547740Y-116503700D01*
X172500763Y-116261577D01*
X172360973Y-116048773D01*
X172149940Y-115906323D01*
X171900300Y-115856260D01*
X167099700Y-115856260D01*
X166857577Y-115903237D01*
X166644773Y-116043027D01*
X166502323Y-116254060D01*
X166452260Y-116503700D01*
X166452260Y-121304300D01*
X166499237Y-121546423D01*
X166639027Y-121759227D01*
X166850060Y-121901677D01*
X167099700Y-121951740D01*
X171611180Y-121951740D01*
X171543631Y-122115642D01*
X171544804Y-122775587D01*
X171484329Y-122836062D01*
X171214779Y-122423743D01*
X170098358Y-121963631D01*
X168890843Y-121965779D01*
X167785221Y-122423743D01*
X167515670Y-122836064D01*
X169500000Y-124820395D01*
X169514142Y-124806252D01*
X169693747Y-124985857D01*
X169679605Y-125000000D01*
X171663936Y-126984330D01*
X172076257Y-126714779D01*
X172536369Y-125598358D01*
X172535194Y-124938413D01*
X172595670Y-124877937D01*
X172865221Y-125290257D01*
X173981642Y-125750369D01*
X175189157Y-125748221D01*
X176294779Y-125290257D01*
X176564330Y-124877936D01*
X176564330Y-127730512D01*
X175888214Y-127865000D01*
X173000000Y-127865000D01*
X172657272Y-127933172D01*
X172495831Y-127866137D01*
X172183539Y-127865864D01*
X172148770Y-127880229D01*
X172114831Y-127866137D01*
X171802539Y-127865864D01*
X171767770Y-127880229D01*
X171733831Y-127866137D01*
X171421539Y-127865864D01*
X171386770Y-127880229D01*
X171352831Y-127866137D01*
X171040539Y-127865864D01*
X171005770Y-127880229D01*
X170971831Y-127866137D01*
X170659539Y-127865864D01*
X170441295Y-127956040D01*
X170434346Y-127951397D01*
X170349740Y-127934567D01*
X171214779Y-127576257D01*
X171484330Y-127163936D01*
X169500000Y-125179605D01*
X169320395Y-125359210D01*
X169320395Y-125000000D01*
X167336064Y-123015670D01*
X166923743Y-123285221D01*
X166463631Y-124401642D01*
X166465779Y-125609157D01*
X166923743Y-126714779D01*
X167336064Y-126984330D01*
X169320395Y-125000000D01*
X169320395Y-125359210D01*
X167515670Y-127163936D01*
X167785221Y-127576257D01*
X168485830Y-127865000D01*
X158712630Y-127865000D01*
X163538815Y-123038815D01*
X163538816Y-123038815D01*
X163637834Y-122890623D01*
X163703996Y-122791605D01*
X163703996Y-122791604D01*
X163762000Y-122500000D01*
X163762000Y-109822106D01*
X163765671Y-109824559D01*
X164310000Y-109932833D01*
X164854329Y-109824559D01*
X165315789Y-109516222D01*
X165580000Y-109120801D01*
X165844211Y-109516222D01*
X166305671Y-109824559D01*
X166850000Y-109932833D01*
X167394329Y-109824559D01*
X167855789Y-109516222D01*
X168120000Y-109120801D01*
X168384211Y-109516222D01*
X168845671Y-109824559D01*
X169390000Y-109932833D01*
X169934329Y-109824559D01*
X170395789Y-109516222D01*
X170659753Y-109121170D01*
X170664475Y-109137262D01*
X171014014Y-109571191D01*
X171503004Y-109838327D01*
X171582940Y-109855010D01*
X171803000Y-109732852D01*
X171803000Y-108247000D01*
X171783000Y-108247000D01*
X171783000Y-107993000D01*
X171803000Y-107993000D01*
X171803000Y-106507148D01*
X171582940Y-106384990D01*
X171503004Y-106401673D01*
X171014014Y-106668809D01*
X170664475Y-107102738D01*
X170659753Y-107118829D01*
X170395789Y-106723778D01*
X169934329Y-106415441D01*
X169390000Y-106307167D01*
X169263000Y-106332428D01*
X169263000Y-94492852D01*
X169263000Y-93007000D01*
X169263000Y-92753000D01*
X169263000Y-91267148D01*
X169042940Y-91144990D01*
X168963004Y-91161673D01*
X168474014Y-91428809D01*
X168124475Y-91862738D01*
X168120000Y-91877989D01*
X168115525Y-91862738D01*
X167765986Y-91428809D01*
X167276996Y-91161673D01*
X167197060Y-91144990D01*
X166977000Y-91267148D01*
X166977000Y-92753000D01*
X167967600Y-92753000D01*
X168272400Y-92753000D01*
X169263000Y-92753000D01*
X169263000Y-93007000D01*
X168272400Y-93007000D01*
X167967600Y-93007000D01*
X166977000Y-93007000D01*
X166977000Y-94492852D01*
X167197060Y-94615010D01*
X167276996Y-94598327D01*
X167765986Y-94331191D01*
X168115525Y-93897262D01*
X168120000Y-93882010D01*
X168124475Y-93897262D01*
X168474014Y-94331191D01*
X168963004Y-94598327D01*
X169042940Y-94615010D01*
X169263000Y-94492852D01*
X169263000Y-106332428D01*
X168845671Y-106415441D01*
X168384211Y-106723778D01*
X168120000Y-107119198D01*
X167855789Y-106723778D01*
X167394329Y-106415441D01*
X166850000Y-106307167D01*
X166305671Y-106415441D01*
X165844211Y-106723778D01*
X165580000Y-107119198D01*
X165315789Y-106723778D01*
X164854329Y-106415441D01*
X164310000Y-106307167D01*
X164260646Y-106316984D01*
X164848815Y-105728815D01*
X164848816Y-105728815D01*
X164947834Y-105580623D01*
X165013996Y-105481605D01*
X165013996Y-105481604D01*
X165072000Y-105190000D01*
X165072000Y-94439116D01*
X165315789Y-94276222D01*
X165579753Y-93881170D01*
X165584475Y-93897262D01*
X165934014Y-94331191D01*
X166423004Y-94598327D01*
X166502940Y-94615010D01*
X166723000Y-94492852D01*
X166723000Y-93007000D01*
X166703000Y-93007000D01*
X166703000Y-92753000D01*
X166723000Y-92753000D01*
X166723000Y-91267148D01*
X166502940Y-91144990D01*
X166423004Y-91161673D01*
X165934014Y-91428809D01*
X165584475Y-91862738D01*
X165579753Y-91878829D01*
X165315789Y-91483778D01*
X164854329Y-91175441D01*
X164310000Y-91067167D01*
X163765671Y-91175441D01*
X163304211Y-91483778D01*
X163040000Y-91879198D01*
X162775789Y-91483778D01*
X162314329Y-91175441D01*
X161770000Y-91067167D01*
X161225671Y-91175441D01*
X160764211Y-91483778D01*
X160500000Y-91879198D01*
X160235789Y-91483778D01*
X159774329Y-91175441D01*
X159230000Y-91067167D01*
X158685671Y-91175441D01*
X158224211Y-91483778D01*
X157960000Y-91879198D01*
X157695789Y-91483778D01*
X157635370Y-91443407D01*
X157635370Y-75577185D01*
X157311020Y-74792200D01*
X156710959Y-74191091D01*
X155926541Y-73865372D01*
X155077185Y-73864630D01*
X154292200Y-74188980D01*
X153691091Y-74789041D01*
X153365372Y-75573459D01*
X153364630Y-76422815D01*
X153688980Y-77207800D01*
X154289041Y-77808909D01*
X155073459Y-78134628D01*
X155922815Y-78135370D01*
X156707800Y-77811020D01*
X157308909Y-77210959D01*
X157634628Y-76426541D01*
X157635370Y-75577185D01*
X157635370Y-91443407D01*
X157234329Y-91175441D01*
X156690000Y-91067167D01*
X156145671Y-91175441D01*
X155684211Y-91483778D01*
X155420000Y-91879198D01*
X155155789Y-91483778D01*
X154694329Y-91175441D01*
X154150000Y-91067167D01*
X153605671Y-91175441D01*
X153144211Y-91483778D01*
X152880000Y-91879198D01*
X152615789Y-91483778D01*
X152372000Y-91320883D01*
X152372000Y-91110000D01*
X152313996Y-90818395D01*
X152148815Y-90571185D01*
X151038815Y-89461185D01*
X150791605Y-89296004D01*
X150500000Y-89238000D01*
X146000000Y-89238000D01*
X145708395Y-89296004D01*
X145609376Y-89362165D01*
X145461185Y-89461184D01*
X140684369Y-94238000D01*
X119000000Y-94238000D01*
X118708395Y-94296004D01*
X118461184Y-94461185D01*
X111221185Y-101701185D01*
X111056004Y-101948395D01*
X110998000Y-102240000D01*
X110998000Y-115385779D01*
X110835057Y-115453106D01*
X110374722Y-115912637D01*
X110125284Y-116513352D01*
X110124716Y-117163795D01*
X110373106Y-117764943D01*
X110832637Y-118225278D01*
X111433352Y-118474716D01*
X112083795Y-118475284D01*
X112684943Y-118226894D01*
X112925199Y-117987057D01*
X113372637Y-118435278D01*
X113973352Y-118684716D01*
X114623795Y-118685284D01*
X115224943Y-118436894D01*
X115675198Y-117987424D01*
X115912637Y-118225278D01*
X116513352Y-118474716D01*
X117163795Y-118475284D01*
X117764943Y-118226894D01*
X118015216Y-117977057D01*
X118472637Y-118435278D01*
X119073352Y-118684716D01*
X119723795Y-118685284D01*
X120324943Y-118436894D01*
X120765181Y-117997424D01*
X120992637Y-118225278D01*
X121593352Y-118474716D01*
X122243795Y-118475284D01*
X122844943Y-118226894D01*
X123108500Y-117963796D01*
X123113106Y-117974943D01*
X123572637Y-118435278D01*
X124173352Y-118684716D01*
X124823795Y-118685284D01*
X125424943Y-118436894D01*
X125855163Y-118007424D01*
X126072637Y-118225278D01*
X126673352Y-118474716D01*
X127323795Y-118475284D01*
X127924943Y-118226894D01*
X127947384Y-118204492D01*
X128011673Y-118359699D01*
X128190302Y-118538327D01*
X128423691Y-118635000D01*
X129264250Y-118635000D01*
X129423000Y-118476250D01*
X129423000Y-117127000D01*
X129403000Y-117127000D01*
X129403000Y-116873000D01*
X129423000Y-116873000D01*
X129423000Y-115523750D01*
X129264250Y-115365000D01*
X128423691Y-115365000D01*
X128190302Y-115461673D01*
X128062189Y-115589784D01*
X127927363Y-115454722D01*
X127326648Y-115205284D01*
X126676205Y-115204716D01*
X126075057Y-115453106D01*
X125644836Y-115882575D01*
X125427363Y-115664722D01*
X124826648Y-115415284D01*
X124176205Y-115414716D01*
X123575057Y-115663106D01*
X123311499Y-115926203D01*
X123306894Y-115915057D01*
X122847363Y-115454722D01*
X122682000Y-115386057D01*
X122682000Y-113395630D01*
X124315630Y-111762000D01*
X152500000Y-111762000D01*
X152500000Y-111761999D01*
X152700189Y-111722179D01*
X149934369Y-114488000D01*
X145514641Y-114488000D01*
X145362286Y-114335378D01*
X144965668Y-114170687D01*
X144536216Y-114170313D01*
X144139311Y-114334311D01*
X143835378Y-114637714D01*
X143670687Y-115034332D01*
X143670313Y-115463784D01*
X143834311Y-115860689D01*
X144137714Y-116164622D01*
X144534332Y-116329313D01*
X144963784Y-116329687D01*
X145360689Y-116165689D01*
X145514646Y-116012000D01*
X150250000Y-116012000D01*
X150250000Y-116011999D01*
X150541604Y-115953996D01*
X150541605Y-115953996D01*
X150788815Y-115788815D01*
X156652297Y-109925333D01*
X156690000Y-109932833D01*
X157234329Y-109824559D01*
X157695789Y-109516222D01*
X157960000Y-109120801D01*
X158224211Y-109516222D01*
X158468000Y-109679116D01*
X158468000Y-111454370D01*
X149684370Y-120238000D01*
X149435683Y-120238000D01*
X149610689Y-120165689D01*
X149914622Y-119862286D01*
X150079313Y-119465668D01*
X150079687Y-119036216D01*
X149915689Y-118639311D01*
X149612286Y-118335378D01*
X149215668Y-118170687D01*
X148786216Y-118170313D01*
X148389311Y-118334311D01*
X148235353Y-118488000D01*
X137500000Y-118488000D01*
X137208395Y-118546004D01*
X136961185Y-118711185D01*
X134541185Y-121131185D01*
X134376004Y-121378395D01*
X134318000Y-121670000D01*
X134318000Y-121672074D01*
X134020330Y-121870971D01*
X133810000Y-122185751D01*
X133599670Y-121870971D01*
X133302000Y-121672074D01*
X133302000Y-119525630D01*
X134815630Y-118012000D01*
X151000000Y-118012000D01*
X151000000Y-118011999D01*
X151291604Y-117953996D01*
X151291605Y-117953996D01*
X151538815Y-117788815D01*
X157248131Y-112079499D01*
X157463784Y-112079687D01*
X157860689Y-111915689D01*
X158164622Y-111612286D01*
X158329313Y-111215668D01*
X158329687Y-110786216D01*
X158165689Y-110389311D01*
X157862286Y-110085378D01*
X157465668Y-109920687D01*
X157036216Y-109920313D01*
X156639311Y-110084311D01*
X156335378Y-110387714D01*
X156170687Y-110784332D01*
X156170497Y-111001871D01*
X150684369Y-116488000D01*
X134500000Y-116488000D01*
X134208396Y-116546003D01*
X133961185Y-116711184D01*
X132001185Y-118671185D01*
X131836004Y-118918395D01*
X131778000Y-119210000D01*
X131778000Y-121672074D01*
X131480330Y-121870971D01*
X131270000Y-122185751D01*
X131185000Y-122058539D01*
X131185000Y-118126310D01*
X131185000Y-117873691D01*
X131185000Y-117285750D01*
X131185000Y-116714250D01*
X131185000Y-116126309D01*
X131185000Y-115873690D01*
X131088327Y-115640301D01*
X130909698Y-115461673D01*
X130676309Y-115365000D01*
X129835750Y-115365000D01*
X129677000Y-115523750D01*
X129677000Y-116873000D01*
X131026250Y-116873000D01*
X131185000Y-116714250D01*
X131185000Y-117285750D01*
X131026250Y-117127000D01*
X129677000Y-117127000D01*
X129677000Y-118476250D01*
X129835750Y-118635000D01*
X130676309Y-118635000D01*
X130909698Y-118538327D01*
X131088327Y-118359699D01*
X131185000Y-118126310D01*
X131185000Y-122058539D01*
X131059670Y-121870971D01*
X130573489Y-121546115D01*
X130000000Y-121432041D01*
X129426511Y-121546115D01*
X128940330Y-121870971D01*
X128615474Y-122357152D01*
X128501400Y-122930641D01*
X128501400Y-122989359D01*
X128615474Y-123562848D01*
X128927300Y-124029529D01*
X128894277Y-124035937D01*
X128681473Y-124175727D01*
X128539023Y-124386760D01*
X128488960Y-124636400D01*
X128488960Y-126363600D01*
X128535937Y-126605723D01*
X128675727Y-126818527D01*
X128886760Y-126960977D01*
X129136400Y-127011040D01*
X129442626Y-127011040D01*
X129461185Y-127038815D01*
X130287369Y-127865000D01*
X99635370Y-127865000D01*
X99635370Y-124577185D01*
X99635370Y-75577185D01*
X99311020Y-74792200D01*
X98710959Y-74191091D01*
X97926541Y-73865372D01*
X97077185Y-73864630D01*
X96292200Y-74188980D01*
X95691091Y-74789041D01*
X95365372Y-75573459D01*
X95364630Y-76422815D01*
X95688980Y-77207800D01*
X96289041Y-77808909D01*
X97073459Y-78134628D01*
X97922815Y-78135370D01*
X98707800Y-77811020D01*
X99308909Y-77210959D01*
X99634628Y-76426541D01*
X99635370Y-75577185D01*
X99635370Y-124577185D01*
X99311020Y-123792200D01*
X98710959Y-123191091D01*
X97926541Y-122865372D01*
X97077185Y-122864630D01*
X96292200Y-123188980D01*
X95691091Y-123789041D01*
X95365372Y-124573459D01*
X95364630Y-125422815D01*
X95688980Y-126207800D01*
X96289041Y-126808909D01*
X97073459Y-127134628D01*
X97922815Y-127135370D01*
X98707800Y-126811020D01*
X99308909Y-126210959D01*
X99634628Y-125426541D01*
X99635370Y-124577185D01*
X99635370Y-127865000D01*
X99000000Y-127865000D01*
X98994702Y-127866053D01*
X98777539Y-127865864D01*
X98742770Y-127880229D01*
X98708831Y-127866137D01*
X98396539Y-127865864D01*
X98361770Y-127880229D01*
X98327831Y-127866137D01*
X98015539Y-127865864D01*
X97980770Y-127880229D01*
X97946831Y-127866137D01*
X97634539Y-127865864D01*
X97599770Y-127880229D01*
X97565831Y-127866137D01*
X97253539Y-127865864D01*
X96964914Y-127985121D01*
X96963113Y-127986918D01*
X96721428Y-127886809D01*
X95794805Y-127702492D01*
X95196968Y-127303029D01*
X94797506Y-126705193D01*
X94635000Y-125888214D01*
X94635000Y-75111785D01*
X94797506Y-74294806D01*
X95196968Y-73696970D01*
X95794805Y-73297507D01*
X96611786Y-73135000D01*
X118000000Y-73135000D01*
X118104902Y-73114133D01*
X118172753Y-73182103D01*
X118461169Y-73301863D01*
X118773461Y-73302136D01*
X118808229Y-73287770D01*
X118842169Y-73301863D01*
X119154461Y-73302136D01*
X119189229Y-73287770D01*
X119223169Y-73301863D01*
X119535461Y-73302136D01*
X119570229Y-73287770D01*
X119604169Y-73301863D01*
X119916461Y-73302136D01*
X119951229Y-73287770D01*
X119985169Y-73301863D01*
X120297461Y-73302136D01*
X120586086Y-73182879D01*
X120694852Y-73074302D01*
X121000000Y-73135000D01*
X175888214Y-73135000D01*
X176705193Y-73297506D01*
X177303029Y-73696968D01*
X177702492Y-74294805D01*
X177865000Y-75111786D01*
X177865000Y-77211990D01*
X177823632Y-77239632D01*
X177675143Y-77461862D01*
X177623000Y-77724000D01*
X177623000Y-123444000D01*
X177675143Y-123706138D01*
X177823632Y-123928368D01*
X177865000Y-123956009D01*
X177865000Y-125888213D01*
X177865000Y-125888213D01*
G37*
X177865000Y-125888213D02*
X177702492Y-126705194D01*
X177616369Y-126834085D01*
X177616369Y-123312358D01*
X177614221Y-122104843D01*
X177156257Y-120999221D01*
X176743936Y-120729670D01*
X176564330Y-120909275D01*
X174759605Y-122714000D01*
X176743936Y-124698330D01*
X177156257Y-124428779D01*
X177616369Y-123312358D01*
X177616369Y-126834085D01*
X177303029Y-127303031D01*
X176705193Y-127702493D01*
X176564330Y-127730512D01*
X176564330Y-124877936D01*
X174580000Y-122893605D01*
X174565857Y-122907747D01*
X174400395Y-122742285D01*
X174386252Y-122728142D01*
X174400395Y-122714000D01*
X174386252Y-122699857D01*
X174565857Y-122520252D01*
X174580000Y-122534395D01*
X176564330Y-120550064D01*
X176294779Y-120137743D01*
X175904840Y-119977036D01*
X175904840Y-94023000D01*
X175904840Y-91737000D01*
X175857863Y-91494877D01*
X175718073Y-91282073D01*
X175507040Y-91139623D01*
X175257400Y-91089560D01*
X173682600Y-91089560D01*
X173440477Y-91136537D01*
X173418345Y-91151075D01*
X173418345Y-81026000D01*
X173304271Y-80452511D01*
X172979415Y-79966330D01*
X172664634Y-79756000D01*
X172979415Y-79545670D01*
X173304271Y-79059489D01*
X173418345Y-78486000D01*
X173304271Y-77912511D01*
X172979415Y-77426330D01*
X172957219Y-77411499D01*
X173110698Y-77347927D01*
X173289327Y-77169299D01*
X173386000Y-76935910D01*
X173386000Y-76683291D01*
X173386000Y-76231750D01*
X173386000Y-75660250D01*
X173386000Y-75208709D01*
X173386000Y-74956090D01*
X173289327Y-74722701D01*
X173110698Y-74544073D01*
X172877309Y-74447400D01*
X172020750Y-74447400D01*
X171862000Y-74606150D01*
X171862000Y-75819000D01*
X173227250Y-75819000D01*
X173386000Y-75660250D01*
X173386000Y-76231750D01*
X173227250Y-76073000D01*
X171862000Y-76073000D01*
X171862000Y-76093000D01*
X171608000Y-76093000D01*
X171608000Y-76073000D01*
X171608000Y-75819000D01*
X171608000Y-74606150D01*
X171449250Y-74447400D01*
X170592691Y-74447400D01*
X170465000Y-74500291D01*
X170337309Y-74447400D01*
X169480750Y-74447400D01*
X169322000Y-74606150D01*
X169322000Y-75819000D01*
X170242750Y-75819000D01*
X170687250Y-75819000D01*
X171608000Y-75819000D01*
X171608000Y-76073000D01*
X170687250Y-76073000D01*
X170242750Y-76073000D01*
X169322000Y-76073000D01*
X169322000Y-76093000D01*
X169068000Y-76093000D01*
X169068000Y-76073000D01*
X169068000Y-75819000D01*
X169068000Y-74606150D01*
X168909250Y-74447400D01*
X168052691Y-74447400D01*
X167925000Y-74500291D01*
X167797309Y-74447400D01*
X166940750Y-74447400D01*
X166782000Y-74606150D01*
X166782000Y-75819000D01*
X167702750Y-75819000D01*
X168147250Y-75819000D01*
X169068000Y-75819000D01*
X169068000Y-76073000D01*
X168147250Y-76073000D01*
X167702750Y-76073000D01*
X166782000Y-76073000D01*
X166782000Y-76093000D01*
X166528000Y-76093000D01*
X166528000Y-76073000D01*
X166528000Y-75819000D01*
X166528000Y-74606150D01*
X166369250Y-74447400D01*
X165512691Y-74447400D01*
X165388278Y-74498933D01*
X165237309Y-74436400D01*
X164380750Y-74436400D01*
X164222000Y-74595150D01*
X164222000Y-75808000D01*
X165151750Y-75808000D01*
X165162750Y-75819000D01*
X166528000Y-75819000D01*
X166528000Y-76073000D01*
X165598250Y-76073000D01*
X165587250Y-76062000D01*
X164222000Y-76062000D01*
X164222000Y-76082000D01*
X163968000Y-76082000D01*
X163968000Y-76062000D01*
X163968000Y-75808000D01*
X163968000Y-74595150D01*
X163809250Y-74436400D01*
X162952691Y-74436400D01*
X162719302Y-74533073D01*
X162540673Y-74711701D01*
X162444000Y-74945090D01*
X162444000Y-75197709D01*
X162444000Y-75649250D01*
X162602750Y-75808000D01*
X163968000Y-75808000D01*
X163968000Y-76062000D01*
X162602750Y-76062000D01*
X162444000Y-76220750D01*
X162444000Y-76672291D01*
X162444000Y-76924910D01*
X162540673Y-77158299D01*
X162719302Y-77336927D01*
X162872780Y-77400499D01*
X162850585Y-77415330D01*
X162525729Y-77901511D01*
X162411655Y-78475000D01*
X162525729Y-79048489D01*
X162850585Y-79534670D01*
X163165365Y-79745000D01*
X162850585Y-79955330D01*
X162525729Y-80441511D01*
X162411655Y-81015000D01*
X162525729Y-81588489D01*
X162850585Y-82074670D01*
X163336766Y-82399526D01*
X163910255Y-82513600D01*
X164279745Y-82513600D01*
X164853234Y-82399526D01*
X165339415Y-82074670D01*
X165371325Y-82026913D01*
X165410585Y-82085670D01*
X165896766Y-82410526D01*
X166470255Y-82524600D01*
X166839745Y-82524600D01*
X167413234Y-82410526D01*
X167899415Y-82085670D01*
X167925000Y-82047379D01*
X167950585Y-82085670D01*
X168436766Y-82410526D01*
X169010255Y-82524600D01*
X169379745Y-82524600D01*
X169953234Y-82410526D01*
X170439415Y-82085670D01*
X170465000Y-82047379D01*
X170490585Y-82085670D01*
X170976766Y-82410526D01*
X171550255Y-82524600D01*
X171919745Y-82524600D01*
X172493234Y-82410526D01*
X172979415Y-82085670D01*
X173304271Y-81599489D01*
X173418345Y-81026000D01*
X173418345Y-91151075D01*
X173227673Y-91276327D01*
X173085223Y-91487360D01*
X173051279Y-91656621D01*
X172935789Y-91483778D01*
X172474329Y-91175441D01*
X171930000Y-91067167D01*
X171385671Y-91175441D01*
X170924211Y-91483778D01*
X170660246Y-91878829D01*
X170655525Y-91862738D01*
X170305986Y-91428809D01*
X169816996Y-91161673D01*
X169737060Y-91144990D01*
X169517000Y-91267148D01*
X169517000Y-92753000D01*
X169537000Y-92753000D01*
X169537000Y-93007000D01*
X169517000Y-93007000D01*
X169517000Y-94492852D01*
X169737060Y-94615010D01*
X169816996Y-94598327D01*
X170305986Y-94331191D01*
X170655525Y-93897262D01*
X170660246Y-93881170D01*
X170924211Y-94276222D01*
X171385671Y-94584559D01*
X171930000Y-94692833D01*
X172474329Y-94584559D01*
X172935789Y-94276222D01*
X173050873Y-94103986D01*
X173082137Y-94265123D01*
X173221927Y-94477927D01*
X173432960Y-94620377D01*
X173682600Y-94670440D01*
X175257400Y-94670440D01*
X175499523Y-94623463D01*
X175712327Y-94483673D01*
X175854777Y-94272640D01*
X175904840Y-94023000D01*
X175904840Y-119977036D01*
X175892400Y-119971910D01*
X175892400Y-108510433D01*
X175892400Y-107729567D01*
X175784126Y-107185238D01*
X175475789Y-106723778D01*
X175014329Y-106415441D01*
X174470000Y-106307167D01*
X173925671Y-106415441D01*
X173464211Y-106723778D01*
X173200246Y-107118829D01*
X173195525Y-107102738D01*
X172845986Y-106668809D01*
X172356996Y-106401673D01*
X172277060Y-106384990D01*
X172057000Y-106507148D01*
X172057000Y-107993000D01*
X172077000Y-107993000D01*
X172077000Y-108247000D01*
X172057000Y-108247000D01*
X172057000Y-109732852D01*
X172277060Y-109855010D01*
X172356996Y-109838327D01*
X172845986Y-109571191D01*
X173195525Y-109137262D01*
X173200246Y-109121170D01*
X173464211Y-109516222D01*
X173925671Y-109824559D01*
X174470000Y-109932833D01*
X175014329Y-109824559D01*
X175475789Y-109516222D01*
X175784126Y-109054762D01*
X175892400Y-108510433D01*
X175892400Y-119971910D01*
X175178358Y-119677631D01*
X173970843Y-119679779D01*
X172865221Y-120137743D01*
X172595670Y-120550062D01*
X172547740Y-120502132D01*
X172547740Y-116503700D01*
X172500763Y-116261577D01*
X172360973Y-116048773D01*
X172149940Y-115906323D01*
X171900300Y-115856260D01*
X167099700Y-115856260D01*
X166857577Y-115903237D01*
X166644773Y-116043027D01*
X166502323Y-116254060D01*
X166452260Y-116503700D01*
X166452260Y-121304300D01*
X166499237Y-121546423D01*
X166639027Y-121759227D01*
X166850060Y-121901677D01*
X167099700Y-121951740D01*
X171611180Y-121951740D01*
X171543631Y-122115642D01*
X171544804Y-122775587D01*
X171484329Y-122836062D01*
X171214779Y-122423743D01*
X170098358Y-121963631D01*
X168890843Y-121965779D01*
X167785221Y-122423743D01*
X167515670Y-122836064D01*
X169500000Y-124820395D01*
X169514142Y-124806252D01*
X169693747Y-124985857D01*
X169679605Y-125000000D01*
X171663936Y-126984330D01*
X172076257Y-126714779D01*
X172536369Y-125598358D01*
X172535194Y-124938413D01*
X172595670Y-124877937D01*
X172865221Y-125290257D01*
X173981642Y-125750369D01*
X175189157Y-125748221D01*
X176294779Y-125290257D01*
X176564330Y-124877936D01*
X176564330Y-127730512D01*
X175888214Y-127865000D01*
X173000000Y-127865000D01*
X172657272Y-127933172D01*
X172495831Y-127866137D01*
X172183539Y-127865864D01*
X172148770Y-127880229D01*
X172114831Y-127866137D01*
X171802539Y-127865864D01*
X171767770Y-127880229D01*
X171733831Y-127866137D01*
X171421539Y-127865864D01*
X171386770Y-127880229D01*
X171352831Y-127866137D01*
X171040539Y-127865864D01*
X171005770Y-127880229D01*
X170971831Y-127866137D01*
X170659539Y-127865864D01*
X170441295Y-127956040D01*
X170434346Y-127951397D01*
X170349740Y-127934567D01*
X171214779Y-127576257D01*
X171484330Y-127163936D01*
X169500000Y-125179605D01*
X169320395Y-125359210D01*
X169320395Y-125000000D01*
X167336064Y-123015670D01*
X166923743Y-123285221D01*
X166463631Y-124401642D01*
X166465779Y-125609157D01*
X166923743Y-126714779D01*
X167336064Y-126984330D01*
X169320395Y-125000000D01*
X169320395Y-125359210D01*
X167515670Y-127163936D01*
X167785221Y-127576257D01*
X168485830Y-127865000D01*
X158712630Y-127865000D01*
X163538815Y-123038815D01*
X163538816Y-123038815D01*
X163637834Y-122890623D01*
X163703996Y-122791605D01*
X163703996Y-122791604D01*
X163762000Y-122500000D01*
X163762000Y-109822106D01*
X163765671Y-109824559D01*
X164310000Y-109932833D01*
X164854329Y-109824559D01*
X165315789Y-109516222D01*
X165580000Y-109120801D01*
X165844211Y-109516222D01*
X166305671Y-109824559D01*
X166850000Y-109932833D01*
X167394329Y-109824559D01*
X167855789Y-109516222D01*
X168120000Y-109120801D01*
X168384211Y-109516222D01*
X168845671Y-109824559D01*
X169390000Y-109932833D01*
X169934329Y-109824559D01*
X170395789Y-109516222D01*
X170659753Y-109121170D01*
X170664475Y-109137262D01*
X171014014Y-109571191D01*
X171503004Y-109838327D01*
X171582940Y-109855010D01*
X171803000Y-109732852D01*
X171803000Y-108247000D01*
X171783000Y-108247000D01*
X171783000Y-107993000D01*
X171803000Y-107993000D01*
X171803000Y-106507148D01*
X171582940Y-106384990D01*
X171503004Y-106401673D01*
X171014014Y-106668809D01*
X170664475Y-107102738D01*
X170659753Y-107118829D01*
X170395789Y-106723778D01*
X169934329Y-106415441D01*
X169390000Y-106307167D01*
X169263000Y-106332428D01*
X169263000Y-94492852D01*
X169263000Y-93007000D01*
X169263000Y-92753000D01*
X169263000Y-91267148D01*
X169042940Y-91144990D01*
X168963004Y-91161673D01*
X168474014Y-91428809D01*
X168124475Y-91862738D01*
X168120000Y-91877989D01*
X168115525Y-91862738D01*
X167765986Y-91428809D01*
X167276996Y-91161673D01*
X167197060Y-91144990D01*
X166977000Y-91267148D01*
X166977000Y-92753000D01*
X167967600Y-92753000D01*
X168272400Y-92753000D01*
X169263000Y-92753000D01*
X169263000Y-93007000D01*
X168272400Y-93007000D01*
X167967600Y-93007000D01*
X166977000Y-93007000D01*
X166977000Y-94492852D01*
X167197060Y-94615010D01*
X167276996Y-94598327D01*
X167765986Y-94331191D01*
X168115525Y-93897262D01*
X168120000Y-93882010D01*
X168124475Y-93897262D01*
X168474014Y-94331191D01*
X168963004Y-94598327D01*
X169042940Y-94615010D01*
X169263000Y-94492852D01*
X169263000Y-106332428D01*
X168845671Y-106415441D01*
X168384211Y-106723778D01*
X168120000Y-107119198D01*
X167855789Y-106723778D01*
X167394329Y-106415441D01*
X166850000Y-106307167D01*
X166305671Y-106415441D01*
X165844211Y-106723778D01*
X165580000Y-107119198D01*
X165315789Y-106723778D01*
X164854329Y-106415441D01*
X164310000Y-106307167D01*
X164260646Y-106316984D01*
X164848815Y-105728815D01*
X164848816Y-105728815D01*
X164947834Y-105580623D01*
X165013996Y-105481605D01*
X165013996Y-105481604D01*
X165072000Y-105190000D01*
X165072000Y-94439116D01*
X165315789Y-94276222D01*
X165579753Y-93881170D01*
X165584475Y-93897262D01*
X165934014Y-94331191D01*
X166423004Y-94598327D01*
X166502940Y-94615010D01*
X166723000Y-94492852D01*
X166723000Y-93007000D01*
X166703000Y-93007000D01*
X166703000Y-92753000D01*
X166723000Y-92753000D01*
X166723000Y-91267148D01*
X166502940Y-91144990D01*
X166423004Y-91161673D01*
X165934014Y-91428809D01*
X165584475Y-91862738D01*
X165579753Y-91878829D01*
X165315789Y-91483778D01*
X164854329Y-91175441D01*
X164310000Y-91067167D01*
X163765671Y-91175441D01*
X163304211Y-91483778D01*
X163040000Y-91879198D01*
X162775789Y-91483778D01*
X162314329Y-91175441D01*
X161770000Y-91067167D01*
X161225671Y-91175441D01*
X160764211Y-91483778D01*
X160500000Y-91879198D01*
X160235789Y-91483778D01*
X159774329Y-91175441D01*
X159230000Y-91067167D01*
X158685671Y-91175441D01*
X158224211Y-91483778D01*
X157960000Y-91879198D01*
X157695789Y-91483778D01*
X157635370Y-91443407D01*
X157635370Y-75577185D01*
X157311020Y-74792200D01*
X156710959Y-74191091D01*
X155926541Y-73865372D01*
X155077185Y-73864630D01*
X154292200Y-74188980D01*
X153691091Y-74789041D01*
X153365372Y-75573459D01*
X153364630Y-76422815D01*
X153688980Y-77207800D01*
X154289041Y-77808909D01*
X155073459Y-78134628D01*
X155922815Y-78135370D01*
X156707800Y-77811020D01*
X157308909Y-77210959D01*
X157634628Y-76426541D01*
X157635370Y-75577185D01*
X157635370Y-91443407D01*
X157234329Y-91175441D01*
X156690000Y-91067167D01*
X156145671Y-91175441D01*
X155684211Y-91483778D01*
X155420000Y-91879198D01*
X155155789Y-91483778D01*
X154694329Y-91175441D01*
X154150000Y-91067167D01*
X153605671Y-91175441D01*
X153144211Y-91483778D01*
X152880000Y-91879198D01*
X152615789Y-91483778D01*
X152372000Y-91320883D01*
X152372000Y-91110000D01*
X152313996Y-90818395D01*
X152148815Y-90571185D01*
X151038815Y-89461185D01*
X150791605Y-89296004D01*
X150500000Y-89238000D01*
X146000000Y-89238000D01*
X145708395Y-89296004D01*
X145609376Y-89362165D01*
X145461185Y-89461184D01*
X140684369Y-94238000D01*
X119000000Y-94238000D01*
X118708395Y-94296004D01*
X118461184Y-94461185D01*
X111221185Y-101701185D01*
X111056004Y-101948395D01*
X110998000Y-102240000D01*
X110998000Y-115385779D01*
X110835057Y-115453106D01*
X110374722Y-115912637D01*
X110125284Y-116513352D01*
X110124716Y-117163795D01*
X110373106Y-117764943D01*
X110832637Y-118225278D01*
X111433352Y-118474716D01*
X112083795Y-118475284D01*
X112684943Y-118226894D01*
X112925199Y-117987057D01*
X113372637Y-118435278D01*
X113973352Y-118684716D01*
X114623795Y-118685284D01*
X115224943Y-118436894D01*
X115675198Y-117987424D01*
X115912637Y-118225278D01*
X116513352Y-118474716D01*
X117163795Y-118475284D01*
X117764943Y-118226894D01*
X118015216Y-117977057D01*
X118472637Y-118435278D01*
X119073352Y-118684716D01*
X119723795Y-118685284D01*
X120324943Y-118436894D01*
X120765181Y-117997424D01*
X120992637Y-118225278D01*
X121593352Y-118474716D01*
X122243795Y-118475284D01*
X122844943Y-118226894D01*
X123108500Y-117963796D01*
X123113106Y-117974943D01*
X123572637Y-118435278D01*
X124173352Y-118684716D01*
X124823795Y-118685284D01*
X125424943Y-118436894D01*
X125855163Y-118007424D01*
X126072637Y-118225278D01*
X126673352Y-118474716D01*
X127323795Y-118475284D01*
X127924943Y-118226894D01*
X127947384Y-118204492D01*
X128011673Y-118359699D01*
X128190302Y-118538327D01*
X128423691Y-118635000D01*
X129264250Y-118635000D01*
X129423000Y-118476250D01*
X129423000Y-117127000D01*
X129403000Y-117127000D01*
X129403000Y-116873000D01*
X129423000Y-116873000D01*
X129423000Y-115523750D01*
X129264250Y-115365000D01*
X128423691Y-115365000D01*
X128190302Y-115461673D01*
X128062189Y-115589784D01*
X127927363Y-115454722D01*
X127326648Y-115205284D01*
X126676205Y-115204716D01*
X126075057Y-115453106D01*
X125644836Y-115882575D01*
X125427363Y-115664722D01*
X124826648Y-115415284D01*
X124176205Y-115414716D01*
X123575057Y-115663106D01*
X123311499Y-115926203D01*
X123306894Y-115915057D01*
X122847363Y-115454722D01*
X122682000Y-115386057D01*
X122682000Y-113395630D01*
X124315630Y-111762000D01*
X152500000Y-111762000D01*
X152500000Y-111761999D01*
X152700189Y-111722179D01*
X149934369Y-114488000D01*
X145514641Y-114488000D01*
X145362286Y-114335378D01*
X144965668Y-114170687D01*
X144536216Y-114170313D01*
X144139311Y-114334311D01*
X143835378Y-114637714D01*
X143670687Y-115034332D01*
X143670313Y-115463784D01*
X143834311Y-115860689D01*
X144137714Y-116164622D01*
X144534332Y-116329313D01*
X144963784Y-116329687D01*
X145360689Y-116165689D01*
X145514646Y-116012000D01*
X150250000Y-116012000D01*
X150250000Y-116011999D01*
X150541604Y-115953996D01*
X150541605Y-115953996D01*
X150788815Y-115788815D01*
X156652297Y-109925333D01*
X156690000Y-109932833D01*
X157234329Y-109824559D01*
X157695789Y-109516222D01*
X157960000Y-109120801D01*
X158224211Y-109516222D01*
X158468000Y-109679116D01*
X158468000Y-111454370D01*
X149684370Y-120238000D01*
X149435683Y-120238000D01*
X149610689Y-120165689D01*
X149914622Y-119862286D01*
X150079313Y-119465668D01*
X150079687Y-119036216D01*
X149915689Y-118639311D01*
X149612286Y-118335378D01*
X149215668Y-118170687D01*
X148786216Y-118170313D01*
X148389311Y-118334311D01*
X148235353Y-118488000D01*
X137500000Y-118488000D01*
X137208395Y-118546004D01*
X136961185Y-118711185D01*
X134541185Y-121131185D01*
X134376004Y-121378395D01*
X134318000Y-121670000D01*
X134318000Y-121672074D01*
X134020330Y-121870971D01*
X133810000Y-122185751D01*
X133599670Y-121870971D01*
X133302000Y-121672074D01*
X133302000Y-119525630D01*
X134815630Y-118012000D01*
X151000000Y-118012000D01*
X151000000Y-118011999D01*
X151291604Y-117953996D01*
X151291605Y-117953996D01*
X151538815Y-117788815D01*
X157248131Y-112079499D01*
X157463784Y-112079687D01*
X157860689Y-111915689D01*
X158164622Y-111612286D01*
X158329313Y-111215668D01*
X158329687Y-110786216D01*
X158165689Y-110389311D01*
X157862286Y-110085378D01*
X157465668Y-109920687D01*
X157036216Y-109920313D01*
X156639311Y-110084311D01*
X156335378Y-110387714D01*
X156170687Y-110784332D01*
X156170497Y-111001871D01*
X150684369Y-116488000D01*
X134500000Y-116488000D01*
X134208396Y-116546003D01*
X133961185Y-116711184D01*
X132001185Y-118671185D01*
X131836004Y-118918395D01*
X131778000Y-119210000D01*
X131778000Y-121672074D01*
X131480330Y-121870971D01*
X131270000Y-122185751D01*
X131185000Y-122058539D01*
X131185000Y-118126310D01*
X131185000Y-117873691D01*
X131185000Y-117285750D01*
X131185000Y-116714250D01*
X131185000Y-116126309D01*
X131185000Y-115873690D01*
X131088327Y-115640301D01*
X130909698Y-115461673D01*
X130676309Y-115365000D01*
X129835750Y-115365000D01*
X129677000Y-115523750D01*
X129677000Y-116873000D01*
X131026250Y-116873000D01*
X131185000Y-116714250D01*
X131185000Y-117285750D01*
X131026250Y-117127000D01*
X129677000Y-117127000D01*
X129677000Y-118476250D01*
X129835750Y-118635000D01*
X130676309Y-118635000D01*
X130909698Y-118538327D01*
X131088327Y-118359699D01*
X131185000Y-118126310D01*
X131185000Y-122058539D01*
X131059670Y-121870971D01*
X130573489Y-121546115D01*
X130000000Y-121432041D01*
X129426511Y-121546115D01*
X128940330Y-121870971D01*
X128615474Y-122357152D01*
X128501400Y-122930641D01*
X128501400Y-122989359D01*
X128615474Y-123562848D01*
X128927300Y-124029529D01*
X128894277Y-124035937D01*
X128681473Y-124175727D01*
X128539023Y-124386760D01*
X128488960Y-124636400D01*
X128488960Y-126363600D01*
X128535937Y-126605723D01*
X128675727Y-126818527D01*
X128886760Y-126960977D01*
X129136400Y-127011040D01*
X129442626Y-127011040D01*
X129461185Y-127038815D01*
X130287369Y-127865000D01*
X99635370Y-127865000D01*
X99635370Y-124577185D01*
X99635370Y-75577185D01*
X99311020Y-74792200D01*
X98710959Y-74191091D01*
X97926541Y-73865372D01*
X97077185Y-73864630D01*
X96292200Y-74188980D01*
X95691091Y-74789041D01*
X95365372Y-75573459D01*
X95364630Y-76422815D01*
X95688980Y-77207800D01*
X96289041Y-77808909D01*
X97073459Y-78134628D01*
X97922815Y-78135370D01*
X98707800Y-77811020D01*
X99308909Y-77210959D01*
X99634628Y-76426541D01*
X99635370Y-75577185D01*
X99635370Y-124577185D01*
X99311020Y-123792200D01*
X98710959Y-123191091D01*
X97926541Y-122865372D01*
X97077185Y-122864630D01*
X96292200Y-123188980D01*
X95691091Y-123789041D01*
X95365372Y-124573459D01*
X95364630Y-125422815D01*
X95688980Y-126207800D01*
X96289041Y-126808909D01*
X97073459Y-127134628D01*
X97922815Y-127135370D01*
X98707800Y-126811020D01*
X99308909Y-126210959D01*
X99634628Y-125426541D01*
X99635370Y-124577185D01*
X99635370Y-127865000D01*
X99000000Y-127865000D01*
X98994702Y-127866053D01*
X98777539Y-127865864D01*
X98742770Y-127880229D01*
X98708831Y-127866137D01*
X98396539Y-127865864D01*
X98361770Y-127880229D01*
X98327831Y-127866137D01*
X98015539Y-127865864D01*
X97980770Y-127880229D01*
X97946831Y-127866137D01*
X97634539Y-127865864D01*
X97599770Y-127880229D01*
X97565831Y-127866137D01*
X97253539Y-127865864D01*
X96964914Y-127985121D01*
X96963113Y-127986918D01*
X96721428Y-127886809D01*
X95794805Y-127702492D01*
X95196968Y-127303029D01*
X94797506Y-126705193D01*
X94635000Y-125888214D01*
X94635000Y-75111785D01*
X94797506Y-74294806D01*
X95196968Y-73696970D01*
X95794805Y-73297507D01*
X96611786Y-73135000D01*
X118000000Y-73135000D01*
X118104902Y-73114133D01*
X118172753Y-73182103D01*
X118461169Y-73301863D01*
X118773461Y-73302136D01*
X118808229Y-73287770D01*
X118842169Y-73301863D01*
X119154461Y-73302136D01*
X119189229Y-73287770D01*
X119223169Y-73301863D01*
X119535461Y-73302136D01*
X119570229Y-73287770D01*
X119604169Y-73301863D01*
X119916461Y-73302136D01*
X119951229Y-73287770D01*
X119985169Y-73301863D01*
X120297461Y-73302136D01*
X120586086Y-73182879D01*
X120694852Y-73074302D01*
X121000000Y-73135000D01*
X175888214Y-73135000D01*
X176705193Y-73297506D01*
X177303029Y-73696968D01*
X177702492Y-74294805D01*
X177865000Y-75111786D01*
X177865000Y-77211990D01*
X177823632Y-77239632D01*
X177675143Y-77461862D01*
X177623000Y-77724000D01*
X177623000Y-123444000D01*
X177675143Y-123706138D01*
X177823632Y-123928368D01*
X177865000Y-123956009D01*
X177865000Y-125888213D01*
M02*
