M48
;DRILL file {pcbnew (2015-01-16 BZR 5376)-product} date 10/26/2015 1:30:40 PM
;FORMAT={-:-/ absolute / inch / decimal}
FMAT,2
INCH,TZ
T1C0.012
T2C0.025
T3C0.031
T4C0.032
T5C0.035
T6C0.039
T7C0.040
T8C0.118
%
G90
G05
M72
T1
X0.8836Y-2.8636
X0.8986Y-2.8636
X0.9033Y-7.6077
X0.9105Y-3.0419
X0.9136Y-2.8636
X0.9183Y-7.6077
X0.9255Y-3.0419
X0.9286Y-2.8636
X0.9302Y-7.786
X0.9333Y-7.6077
X0.9405Y-3.0419
X0.9436Y-2.8636
X0.9452Y-7.786
X0.9483Y-7.6077
X0.9555Y-3.0419
X0.9602Y-7.786
X0.9633Y-7.6077
X0.9705Y-3.0419
X0.9752Y-7.786
X0.9902Y-7.786
X1.7186Y-0.6536
X1.7336Y-0.6536
X1.7383Y-5.3977
X1.7486Y-0.6536
X1.7533Y-5.3977
X1.7636Y-0.6536
X1.7683Y-5.3977
X1.7786Y-0.6536
X1.7833Y-5.3977
X1.7983Y-5.3977
X2.9655Y-5.2519
X2.9805Y-5.2519
X2.9852Y-9.996
X2.9955Y-5.2519
X3.0002Y-9.996
X3.0105Y-5.2519
X3.0152Y-9.996
X3.0255Y-5.2519
X3.0302Y-9.996
X3.0452Y-9.996
X3.7736Y-2.8636
X3.7886Y-2.8636
X3.7933Y-7.6077
X3.8005Y-3.0419
X3.8036Y-2.8636
X3.8083Y-7.6077
X3.8155Y-3.0419
X3.8186Y-2.8636
X3.8202Y-7.786
X3.8233Y-7.6077
X3.8305Y-3.0419
X3.8336Y-2.8636
X3.8352Y-7.786
X3.8383Y-7.6077
X3.8455Y-3.0419
X3.8502Y-7.786
X3.8533Y-7.6077
X3.8605Y-3.0419
X3.8652Y-7.786
X3.8802Y-7.786
X4.7616Y-2.8636
X4.7766Y-2.8636
X4.7813Y-7.6077
X4.7884Y-3.0419
X4.7916Y-2.8636
X4.7963Y-7.6077
X4.8034Y-3.0419
X4.8066Y-2.8636
X4.8081Y-7.786
X4.8113Y-7.6077
X4.8184Y-3.0419
X4.8216Y-2.8636
X4.8231Y-7.786
X4.8263Y-7.6077
X4.8334Y-3.0419
X4.8381Y-7.786
X4.8413Y-7.6077
X4.8484Y-3.0419
X4.8531Y-7.786
X4.8681Y-7.786
X5.5966Y-0.6536
X5.6116Y-0.6536
X5.6163Y-5.3977
X5.6266Y-0.6536
X5.6313Y-5.3977
X5.6416Y-0.6536
X5.6463Y-5.3977
X5.6566Y-0.6536
X5.6613Y-5.3977
X5.6763Y-5.3977
X6.8434Y-5.2519
X6.8584Y-5.2519
X6.8631Y-9.996
X6.8734Y-5.2519
X6.8781Y-9.996
X6.8884Y-5.2519
X6.8931Y-9.996
X6.9034Y-5.2519
X6.9081Y-9.996
X6.9231Y-9.996
X7.6516Y-2.8636
X7.6666Y-2.8636
X7.6713Y-7.6077
X7.6784Y-3.0419
X7.6816Y-2.8636
X7.6863Y-7.6077
X7.6934Y-3.0419
X7.6966Y-2.8636
X7.6981Y-7.786
X7.7013Y-7.6077
X7.7084Y-3.0419
X7.7116Y-2.8636
X7.7131Y-7.786
X7.7163Y-7.6077
X7.7234Y-3.0419
X7.7281Y-7.786
X7.7313Y-7.6077
X7.7384Y-3.0419
X7.7431Y-7.786
X7.7581Y-7.786
X8.6592Y-2.8833
X8.6742Y-2.8833
X8.6789Y-7.6274
X8.6861Y-3.0616
X8.6892Y-2.8833
X8.6939Y-7.6274
X8.7011Y-3.0616
X8.7042Y-2.8833
X8.7057Y-7.8057
X8.7089Y-7.6274
X8.7161Y-3.0616
X8.7192Y-2.8833
X8.7207Y-7.8057
X8.7239Y-7.6274
X8.7311Y-3.0616
X8.7357Y-7.8057
X8.7389Y-7.6274
X8.7461Y-3.0616
X8.7507Y-7.8057
X8.7657Y-7.8057
X9.4942Y-0.6733
X9.5092Y-0.6733
X9.5139Y-5.4174
X9.5242Y-0.6733
X9.5289Y-5.4174
X9.5392Y-0.6733
X9.5439Y-5.4174
X9.5542Y-0.6733
X9.5589Y-5.4174
X9.5739Y-5.4174
X10.7411Y-5.2716
X10.7561Y-5.2716
X10.7607Y-10.0157
X10.7711Y-5.2716
X10.7757Y-10.0157
X10.7861Y-5.2716
X10.7907Y-10.0157
X10.8011Y-5.2716
X10.8057Y-10.0157
X10.8207Y-10.0157
X11.5492Y-2.8833
X11.5642Y-2.8833
X11.5689Y-7.6274
X11.5761Y-3.0616
X11.5792Y-2.8833
X11.5839Y-7.6274
X11.5911Y-3.0616
X11.5942Y-2.8833
X11.5957Y-7.8057
X11.5989Y-7.6274
X11.6061Y-3.0616
X11.6092Y-2.8833
X11.6107Y-7.8057
X11.6139Y-7.6274
X11.6211Y-3.0616
X11.6257Y-7.8057
X11.6289Y-7.6274
X11.6361Y-3.0616
X11.6407Y-7.8057
X11.6557Y-7.8057
T2
X1.1555Y-4.4169
X1.1555Y-4.5369
X1.1752Y-9.161
X1.1752Y-9.281
X1.2655Y-5.1669
X1.2852Y-9.911
X1.3155Y-4.4269
X1.3255Y-4.3769
X1.3352Y-9.171
X1.3452Y-9.121
X1.3755Y-3.3769
X1.3952Y-8.121
X1.4686Y-2.5986
X1.4883Y-7.3427
X1.6386Y-2.3886
X1.6555Y-3.6669
X1.6583Y-7.1327
X1.6655Y-5.1669
X1.6752Y-8.411
X1.6852Y-9.911
X1.7255Y-3.3769
X1.7452Y-8.121
X1.8336Y-2.1586
X1.8533Y-6.9027
X1.8905Y-3.9519
X1.9102Y-8.696
X1.9686Y-2.6686
X1.9883Y-7.4127
X1.9886Y-2.3086
X2.0083Y-7.0527
X2.0186Y-2.7036
X2.0255Y-4.0469
X2.0355Y-4.3169
X2.0383Y-7.4477
X2.0386Y-2.3186
X2.0386Y-2.5886
X2.0452Y-8.791
X2.0552Y-9.061
X2.0583Y-7.0627
X2.0583Y-7.3327
X2.0655Y-5.1669
X2.0786Y-2.3886
X2.0805Y-3.5019
X2.0852Y-9.911
X2.0983Y-7.1327
X2.1002Y-8.246
X2.1255Y-3.3569
X2.1255Y-3.9969
X2.1452Y-8.101
X2.1452Y-8.741
X2.2255Y-4.5069
X2.2355Y-3.9469
X2.2452Y-9.251
X2.2552Y-8.691
X2.2586Y-0.7386
X2.2783Y-5.4827
X2.4855Y-5.1669
X2.5052Y-9.911
X2.5086Y-1.9586
X2.5186Y-1.3986
X2.5283Y-6.7027
X2.5383Y-6.1427
X2.6186Y-1.9086
X2.6186Y-2.5486
X2.6383Y-6.6527
X2.6383Y-7.2927
X2.6636Y-2.4036
X2.6655Y-3.5169
X2.6786Y-0.7386
X2.6833Y-7.1477
X2.6852Y-8.261
X2.6983Y-5.4827
X2.7055Y-3.3169
X2.7055Y-3.5869
X2.7086Y-1.5886
X2.7186Y-1.8586
X2.7252Y-8.061
X2.7252Y-8.331
X2.7255Y-3.2019
X2.7283Y-6.3327
X2.7383Y-6.6027
X2.7452Y-7.946
X2.7555Y-3.5969
X2.7752Y-8.341
X2.7755Y-3.2369
X2.7952Y-7.981
X2.8536Y-1.9536
X2.8733Y-6.6977
X2.9105Y-3.7469
X2.9302Y-8.491
X3.0186Y-2.5286
X3.0383Y-7.2727
X3.0786Y-0.7386
X3.0886Y-2.2386
X3.0983Y-5.4827
X3.1055Y-3.5169
X3.1083Y-6.9827
X3.1252Y-8.261
X3.2755Y-3.3069
X3.2952Y-8.051
X3.3686Y-2.5286
X3.3883Y-7.2727
X3.4186Y-1.5286
X3.4286Y-1.4786
X3.4383Y-6.2727
X3.4483Y-6.2227
X3.4786Y-0.7386
X3.4983Y-5.4827
X3.5886Y-1.3686
X3.5886Y-1.4886
X3.6083Y-6.1127
X3.6083Y-6.2327
X5.0334Y-4.4169
X5.0334Y-4.5369
X5.0531Y-9.161
X5.0531Y-9.281
X5.1434Y-5.1669
X5.1631Y-9.911
X5.1934Y-4.4269
X5.2034Y-4.3769
X5.2131Y-9.171
X5.2231Y-9.121
X5.2534Y-3.3769
X5.2731Y-8.121
X5.3466Y-2.5986
X5.3663Y-7.3427
X5.5166Y-2.3886
X5.5334Y-3.6669
X5.5363Y-7.1327
X5.5434Y-5.1669
X5.5531Y-8.411
X5.5631Y-9.911
X5.6034Y-3.3769
X5.6231Y-8.121
X5.7116Y-2.1586
X5.7313Y-6.9027
X5.7684Y-3.9519
X5.7881Y-8.696
X5.8466Y-2.6686
X5.8663Y-7.4127
X5.8666Y-2.3086
X5.8863Y-7.0527
X5.8966Y-2.7036
X5.9034Y-4.0469
X5.9134Y-4.3169
X5.9163Y-7.4477
X5.9166Y-2.3186
X5.9166Y-2.5886
X5.9231Y-8.791
X5.9331Y-9.061
X5.9363Y-7.0627
X5.9363Y-7.3327
X5.9434Y-5.1669
X5.9566Y-2.3886
X5.9584Y-3.5019
X5.9631Y-9.911
X5.9763Y-7.1327
X5.9781Y-8.246
X6.0034Y-3.3569
X6.0034Y-3.9969
X6.0231Y-8.101
X6.0231Y-8.741
X6.1034Y-4.5069
X6.1134Y-3.9469
X6.1231Y-9.251
X6.1331Y-8.691
X6.1366Y-0.7386
X6.1563Y-5.4827
X6.3634Y-5.1669
X6.3831Y-9.911
X6.3866Y-1.9586
X6.3966Y-1.3986
X6.4063Y-6.7027
X6.4163Y-6.1427
X6.4966Y-1.9086
X6.4966Y-2.5486
X6.5163Y-6.6527
X6.5163Y-7.2927
X6.5416Y-2.4036
X6.5434Y-3.5169
X6.5566Y-0.7386
X6.5613Y-7.1477
X6.5631Y-8.261
X6.5763Y-5.4827
X6.5834Y-3.3169
X6.5834Y-3.5869
X6.5866Y-1.5886
X6.5966Y-1.8586
X6.6031Y-8.061
X6.6031Y-8.331
X6.6034Y-3.2019
X6.6063Y-6.3327
X6.6163Y-6.6027
X6.6231Y-7.946
X6.6334Y-3.5969
X6.6531Y-8.341
X6.6534Y-3.2369
X6.6731Y-7.981
X6.7316Y-1.9536
X6.7513Y-6.6977
X6.7884Y-3.7469
X6.8081Y-8.491
X6.8966Y-2.5286
X6.9163Y-7.2727
X6.9566Y-0.7386
X6.9666Y-2.2386
X6.9763Y-5.4827
X6.9834Y-3.5169
X6.9863Y-6.9827
X7.0031Y-8.261
X7.1534Y-3.3069
X7.1731Y-8.051
X7.2466Y-2.5286
X7.2663Y-7.2727
X7.2966Y-1.5286
X7.3066Y-1.4786
X7.3163Y-6.2727
X7.3263Y-6.2227
X7.3566Y-0.7386
X7.3763Y-5.4827
X7.4666Y-1.3686
X7.4666Y-1.4886
X7.4863Y-6.1127
X7.4863Y-6.2327
X8.9311Y-4.4366
X8.9311Y-4.5566
X8.9507Y-9.1807
X8.9507Y-9.3007
X9.0411Y-5.1866
X9.0607Y-9.9307
X9.0911Y-4.4466
X9.1011Y-4.3966
X9.1107Y-9.1907
X9.1207Y-9.1407
X9.1511Y-3.3966
X9.1707Y-8.1407
X9.2442Y-2.6183
X9.2639Y-7.3624
X9.4142Y-2.4083
X9.4311Y-3.6866
X9.4339Y-7.1524
X9.4411Y-5.1866
X9.4507Y-8.4307
X9.4607Y-9.9307
X9.5011Y-3.3966
X9.5207Y-8.1407
X9.6092Y-2.1783
X9.6289Y-6.9224
X9.6661Y-3.9716
X9.6857Y-8.7157
X9.7442Y-2.6883
X9.7639Y-7.4324
X9.7642Y-2.3283
X9.7839Y-7.0724
X9.7942Y-2.7233
X9.8011Y-4.0666
X9.8111Y-4.3366
X9.8139Y-7.4674
X9.8142Y-2.3383
X9.8142Y-2.6083
X9.8207Y-8.8107
X9.8307Y-9.0807
X9.8339Y-7.0824
X9.8339Y-7.3524
X9.8411Y-5.1866
X9.8542Y-2.4083
X9.8561Y-3.5216
X9.8607Y-9.9307
X9.8739Y-7.1524
X9.8757Y-8.2657
X9.9011Y-3.3766
X9.9011Y-4.0166
X9.9207Y-8.1207
X9.9207Y-8.7607
X10.0011Y-4.5266
X10.0111Y-3.9666
X10.0207Y-9.2707
X10.0307Y-8.7107
X10.0342Y-0.7583
X10.0539Y-5.5024
X10.2611Y-5.1866
X10.2807Y-9.9307
X10.2842Y-1.9783
X10.2942Y-1.4183
X10.3039Y-6.7224
X10.3139Y-6.1624
X10.3942Y-1.9283
X10.3942Y-2.5683
X10.4139Y-6.6724
X10.4139Y-7.3124
X10.4392Y-2.4233
X10.4411Y-3.5366
X10.4542Y-0.7583
X10.4589Y-7.1674
X10.4607Y-8.2807
X10.4739Y-5.5024
X10.4811Y-3.3366
X10.4811Y-3.6066
X10.4842Y-1.6083
X10.4942Y-1.8783
X10.5007Y-8.0807
X10.5007Y-8.3507
X10.5011Y-3.2216
X10.5039Y-6.3524
X10.5139Y-6.6224
X10.5207Y-7.9657
X10.5311Y-3.6166
X10.5507Y-8.3607
X10.5511Y-3.2566
X10.5707Y-8.0007
X10.6292Y-1.9733
X10.6489Y-6.7174
X10.6861Y-3.7666
X10.7057Y-8.5107
X10.7942Y-2.5483
X10.8139Y-7.2924
X10.8542Y-0.7583
X10.8642Y-2.2583
X10.8739Y-5.5024
X10.8811Y-3.5366
X10.8839Y-7.0024
X10.9007Y-8.2807
X11.0511Y-3.3266
X11.0707Y-8.0707
X11.1442Y-2.5483
X11.1639Y-7.2924
X11.1942Y-1.5483
X11.2042Y-1.4983
X11.2139Y-6.2924
X11.2239Y-6.2424
X11.2542Y-0.7583
X11.2739Y-5.5024
X11.3642Y-1.3883
X11.3642Y-1.5083
X11.3839Y-6.1324
X11.3839Y-6.2524
T3
X0.9374Y-3.1291
X0.9374Y-3.2079
X0.9374Y-3.2866
X0.9374Y-3.3654
X0.9374Y-3.4441
X0.9374Y-3.5228
X0.9374Y-3.6016
X0.9374Y-3.6803
X0.9374Y-3.7591
X0.9374Y-3.8378
X0.9571Y-7.8732
X0.9571Y-7.952
X0.9571Y-8.0307
X0.9571Y-8.1094
X0.9571Y-8.1882
X0.9571Y-8.2669
X0.9571Y-8.3457
X0.9571Y-8.4244
X0.9571Y-8.5031
X0.9571Y-8.5819
X1.8035Y-3.1291
X1.8035Y-3.2079
X1.8035Y-3.2866
X1.8035Y-3.3654
X1.8035Y-3.4441
X1.8035Y-3.5228
X1.8035Y-3.6016
X1.8035Y-3.6803
X1.8035Y-3.7591
X1.8035Y-3.8378
X1.8232Y-7.8732
X1.8232Y-7.952
X1.8232Y-8.0307
X1.8232Y-8.1094
X1.8232Y-8.1882
X1.8232Y-8.2669
X1.8232Y-8.3457
X1.8232Y-8.4244
X1.8232Y-8.5031
X1.8232Y-8.5819
X2.9406Y-2.0677
X2.9406Y-2.1465
X2.9406Y-2.2252
X2.9406Y-2.3039
X2.9406Y-2.3827
X2.9406Y-2.4614
X2.9406Y-2.5402
X2.9406Y-2.6189
X2.9406Y-2.6976
X2.9406Y-2.7764
X2.9602Y-6.8118
X2.9602Y-6.8906
X2.9602Y-6.9693
X2.9602Y-7.048
X2.9602Y-7.1268
X2.9602Y-7.2055
X2.9602Y-7.2843
X2.9602Y-7.363
X2.9602Y-7.4417
X2.9602Y-7.5205
X3.8067Y-2.0677
X3.8067Y-2.1465
X3.8067Y-2.2252
X3.8067Y-2.3039
X3.8067Y-2.3827
X3.8067Y-2.4614
X3.8067Y-2.5402
X3.8067Y-2.6189
X3.8067Y-2.6976
X3.8067Y-2.7764
X3.8264Y-6.8118
X3.8264Y-6.8906
X3.8264Y-6.9693
X3.8264Y-7.048
X3.8264Y-7.1268
X3.8264Y-7.2055
X3.8264Y-7.2843
X3.8264Y-7.363
X3.8264Y-7.4417
X3.8264Y-7.5205
X4.8154Y-3.1291
X4.8154Y-3.2079
X4.8154Y-3.2866
X4.8154Y-3.3654
X4.8154Y-3.4441
X4.8154Y-3.5228
X4.8154Y-3.6016
X4.8154Y-3.6803
X4.8154Y-3.7591
X4.8154Y-3.8378
X4.835Y-7.8732
X4.835Y-7.952
X4.835Y-8.0307
X4.835Y-8.1094
X4.835Y-8.1882
X4.835Y-8.2669
X4.835Y-8.3457
X4.835Y-8.4244
X4.835Y-8.5031
X4.835Y-8.5819
X5.6815Y-3.1291
X5.6815Y-3.2079
X5.6815Y-3.2866
X5.6815Y-3.3654
X5.6815Y-3.4441
X5.6815Y-3.5228
X5.6815Y-3.6016
X5.6815Y-3.6803
X5.6815Y-3.7591
X5.6815Y-3.8378
X5.7012Y-7.8732
X5.7012Y-7.952
X5.7012Y-8.0307
X5.7012Y-8.1094
X5.7012Y-8.1882
X5.7012Y-8.2669
X5.7012Y-8.3457
X5.7012Y-8.4244
X5.7012Y-8.5031
X5.7012Y-8.5819
X6.8185Y-2.0677
X6.8185Y-2.1465
X6.8185Y-2.2252
X6.8185Y-2.3039
X6.8185Y-2.3827
X6.8185Y-2.4614
X6.8185Y-2.5402
X6.8185Y-2.6189
X6.8185Y-2.6976
X6.8185Y-2.7764
X6.8382Y-6.8118
X6.8382Y-6.8906
X6.8382Y-6.9693
X6.8382Y-7.048
X6.8382Y-7.1268
X6.8382Y-7.2055
X6.8382Y-7.2843
X6.8382Y-7.363
X6.8382Y-7.4417
X6.8382Y-7.5205
X7.6846Y-2.0677
X7.6846Y-2.1465
X7.6846Y-2.2252
X7.6846Y-2.3039
X7.6846Y-2.3827
X7.6846Y-2.4614
X7.6846Y-2.5402
X7.6846Y-2.6189
X7.6846Y-2.6976
X7.6846Y-2.7764
X7.7043Y-6.8118
X7.7043Y-6.8906
X7.7043Y-6.9693
X7.7043Y-7.048
X7.7043Y-7.1268
X7.7043Y-7.2055
X7.7043Y-7.2843
X7.7043Y-7.363
X7.7043Y-7.4417
X7.7043Y-7.5205
X8.713Y-3.1488
X8.713Y-3.2276
X8.713Y-3.3063
X8.713Y-3.385
X8.713Y-3.4638
X8.713Y-3.5425
X8.713Y-3.6213
X8.713Y-3.7
X8.713Y-3.7787
X8.713Y-3.8575
X8.7327Y-7.8929
X8.7327Y-7.9717
X8.7327Y-8.0504
X8.7327Y-8.1291
X8.7327Y-8.2079
X8.7327Y-8.2866
X8.7327Y-8.3654
X8.7327Y-8.4441
X8.7327Y-8.5228
X8.7327Y-8.6016
X9.5791Y-3.1488
X9.5791Y-3.2276
X9.5791Y-3.3063
X9.5791Y-3.385
X9.5791Y-3.4638
X9.5791Y-3.5425
X9.5791Y-3.6213
X9.5791Y-3.7
X9.5791Y-3.7787
X9.5791Y-3.8575
X9.5988Y-7.8929
X9.5988Y-7.9717
X9.5988Y-8.0504
X9.5988Y-8.1291
X9.5988Y-8.2079
X9.5988Y-8.2866
X9.5988Y-8.3654
X9.5988Y-8.4441
X9.5988Y-8.5228
X9.5988Y-8.6016
X10.7161Y-2.0874
X10.7161Y-2.1661
X10.7161Y-2.2449
X10.7161Y-2.3236
X10.7161Y-2.4024
X10.7161Y-2.4811
X10.7161Y-2.5598
X10.7161Y-2.6386
X10.7161Y-2.7173
X10.7161Y-2.7961
X10.7358Y-6.8315
X10.7358Y-6.9102
X10.7358Y-6.989
X10.7358Y-7.0677
X10.7358Y-7.1465
X10.7358Y-7.2252
X10.7358Y-7.3039
X10.7358Y-7.3827
X10.7358Y-7.4614
X10.7358Y-7.5402
X11.5823Y-2.0874
X11.5823Y-2.1661
X11.5823Y-2.2449
X11.5823Y-2.3236
X11.5823Y-2.4024
X11.5823Y-2.4811
X11.5823Y-2.5598
X11.5823Y-2.6386
X11.5823Y-2.7173
X11.5823Y-2.7961
X11.602Y-6.8315
X11.602Y-6.9102
X11.602Y-6.989
X11.602Y-7.0677
X11.602Y-7.1465
X11.602Y-7.2252
X11.602Y-7.3039
X11.602Y-7.3827
X11.602Y-7.4614
X11.602Y-7.5402
T4
X0.7255Y-4.1469
X0.7255Y-4.7469
X0.7452Y-8.891
X0.7452Y-9.491
X0.8255Y-4.1469
X0.8255Y-4.7469
X0.8452Y-8.891
X0.8452Y-9.491
X0.9255Y-4.1469
X0.9255Y-4.7469
X0.9452Y-8.891
X0.9452Y-9.491
X1.0255Y-4.1469
X1.0255Y-4.7469
X1.0452Y-8.891
X1.0452Y-9.491
X1.1255Y-4.1469
X1.1255Y-4.7469
X1.1452Y-8.891
X1.1452Y-9.491
X1.2255Y-4.1469
X1.2255Y-4.7469
X1.2452Y-8.891
X1.2452Y-9.491
X1.3255Y-4.1469
X1.3255Y-4.7469
X1.3452Y-8.891
X1.3452Y-9.491
X1.4255Y-4.1469
X1.4255Y-4.7469
X1.4452Y-8.891
X1.4452Y-9.491
X1.5255Y-4.1469
X1.5255Y-4.7469
X1.5452Y-8.891
X1.5452Y-9.491
X1.6255Y-4.1469
X1.6255Y-4.7469
X1.6452Y-8.891
X1.6452Y-9.491
X1.7255Y-4.1469
X1.7255Y-4.7469
X1.7452Y-8.891
X1.7452Y-9.491
X1.8255Y-4.1469
X1.8255Y-4.7469
X1.8452Y-8.891
X1.8452Y-9.491
X2.9186Y-1.1586
X2.9186Y-1.7586
X2.9383Y-5.9027
X2.9383Y-6.5027
X3.0186Y-1.1586
X3.0186Y-1.7586
X3.0383Y-5.9027
X3.0383Y-6.5027
X3.1186Y-1.1586
X3.1186Y-1.7586
X3.1383Y-5.9027
X3.1383Y-6.5027
X3.2186Y-1.1586
X3.2186Y-1.7586
X3.2383Y-5.9027
X3.2383Y-6.5027
X3.3186Y-1.1586
X3.3186Y-1.7586
X3.3383Y-5.9027
X3.3383Y-6.5027
X3.4186Y-1.1586
X3.4186Y-1.7586
X3.4383Y-5.9027
X3.4383Y-6.5027
X3.5186Y-1.1586
X3.5186Y-1.7586
X3.5383Y-5.9027
X3.5383Y-6.5027
X3.6186Y-1.1586
X3.6186Y-1.7586
X3.6383Y-5.9027
X3.6383Y-6.5027
X3.7186Y-1.1586
X3.7186Y-1.7586
X3.7383Y-5.9027
X3.7383Y-6.5027
X3.8186Y-1.1586
X3.8186Y-1.7586
X3.8383Y-5.9027
X3.8383Y-6.5027
X3.9186Y-1.1586
X3.9186Y-1.7586
X3.9383Y-5.9027
X3.9383Y-6.5027
X4.0186Y-1.1586
X4.0186Y-1.7586
X4.0383Y-5.9027
X4.0383Y-6.5027
X4.6034Y-4.1469
X4.6034Y-4.7469
X4.6231Y-8.891
X4.6231Y-9.491
X4.7034Y-4.1469
X4.7034Y-4.7469
X4.7231Y-8.891
X4.7231Y-9.491
X4.8034Y-4.1469
X4.8034Y-4.7469
X4.8231Y-8.891
X4.8231Y-9.491
X4.9034Y-4.1469
X4.9034Y-4.7469
X4.9231Y-8.891
X4.9231Y-9.491
X5.0034Y-4.1469
X5.0034Y-4.7469
X5.0231Y-8.891
X5.0231Y-9.491
X5.1034Y-4.1469
X5.1034Y-4.7469
X5.1231Y-8.891
X5.1231Y-9.491
X5.2034Y-4.1469
X5.2034Y-4.7469
X5.2231Y-8.891
X5.2231Y-9.491
X5.3034Y-4.1469
X5.3034Y-4.7469
X5.3231Y-8.891
X5.3231Y-9.491
X5.4034Y-4.1469
X5.4034Y-4.7469
X5.4231Y-8.891
X5.4231Y-9.491
X5.5034Y-4.1469
X5.5034Y-4.7469
X5.5231Y-8.891
X5.5231Y-9.491
X5.6034Y-4.1469
X5.6034Y-4.7469
X5.6231Y-8.891
X5.6231Y-9.491
X5.7034Y-4.1469
X5.7034Y-4.7469
X5.7231Y-8.891
X5.7231Y-9.491
X6.7966Y-1.1586
X6.7966Y-1.7586
X6.8163Y-5.9027
X6.8163Y-6.5027
X6.8966Y-1.1586
X6.8966Y-1.7586
X6.9163Y-5.9027
X6.9163Y-6.5027
X6.9966Y-1.1586
X6.9966Y-1.7586
X7.0163Y-5.9027
X7.0163Y-6.5027
X7.0966Y-1.1586
X7.0966Y-1.7586
X7.1163Y-5.9027
X7.1163Y-6.5027
X7.1966Y-1.1586
X7.1966Y-1.7586
X7.2163Y-5.9027
X7.2163Y-6.5027
X7.2966Y-1.1586
X7.2966Y-1.7586
X7.3163Y-5.9027
X7.3163Y-6.5027
X7.3966Y-1.1586
X7.3966Y-1.7586
X7.4163Y-5.9027
X7.4163Y-6.5027
X7.4966Y-1.1586
X7.4966Y-1.7586
X7.5163Y-5.9027
X7.5163Y-6.5027
X7.5966Y-1.1586
X7.5966Y-1.7586
X7.6163Y-5.9027
X7.6163Y-6.5027
X7.6966Y-1.1586
X7.6966Y-1.7586
X7.7163Y-5.9027
X7.7163Y-6.5027
X7.7966Y-1.1586
X7.7966Y-1.7586
X7.8163Y-5.9027
X7.8163Y-6.5027
X7.8966Y-1.1586
X7.8966Y-1.7586
X7.9163Y-5.9027
X7.9163Y-6.5027
X8.5011Y-4.1666
X8.5011Y-4.7666
X8.5207Y-8.9107
X8.5207Y-9.5107
X8.6011Y-4.1666
X8.6011Y-4.7666
X8.6207Y-8.9107
X8.6207Y-9.5107
X8.7011Y-4.1666
X8.7011Y-4.7666
X8.7207Y-8.9107
X8.7207Y-9.5107
X8.8011Y-4.1666
X8.8011Y-4.7666
X8.8207Y-8.9107
X8.8207Y-9.5107
X8.9011Y-4.1666
X8.9011Y-4.7666
X8.9207Y-8.9107
X8.9207Y-9.5107
X9.0011Y-4.1666
X9.0011Y-4.7666
X9.0207Y-8.9107
X9.0207Y-9.5107
X9.1011Y-4.1666
X9.1011Y-4.7666
X9.1207Y-8.9107
X9.1207Y-9.5107
X9.2011Y-4.1666
X9.2011Y-4.7666
X9.2207Y-8.9107
X9.2207Y-9.5107
X9.3011Y-4.1666
X9.3011Y-4.7666
X9.3207Y-8.9107
X9.3207Y-9.5107
X9.4011Y-4.1666
X9.4011Y-4.7666
X9.4207Y-8.9107
X9.4207Y-9.5107
X9.5011Y-4.1666
X9.5011Y-4.7666
X9.5207Y-8.9107
X9.5207Y-9.5107
X9.6011Y-4.1666
X9.6011Y-4.7666
X9.6207Y-8.9107
X9.6207Y-9.5107
X10.6942Y-1.1783
X10.6942Y-1.7783
X10.7139Y-5.9224
X10.7139Y-6.5224
X10.7942Y-1.1783
X10.7942Y-1.7783
X10.8139Y-5.9224
X10.8139Y-6.5224
X10.8942Y-1.1783
X10.8942Y-1.7783
X10.9139Y-5.9224
X10.9139Y-6.5224
X10.9942Y-1.1783
X10.9942Y-1.7783
X11.0139Y-5.9224
X11.0139Y-6.5224
X11.0942Y-1.1783
X11.0942Y-1.7783
X11.1139Y-5.9224
X11.1139Y-6.5224
X11.1942Y-1.1783
X11.1942Y-1.7783
X11.2139Y-5.9224
X11.2139Y-6.5224
X11.2942Y-1.1783
X11.2942Y-1.7783
X11.3139Y-5.9224
X11.3139Y-6.5224
X11.3942Y-1.1783
X11.3942Y-1.7783
X11.4139Y-5.9224
X11.4139Y-6.5224
X11.4942Y-1.1783
X11.4942Y-1.7783
X11.5139Y-5.9224
X11.5139Y-6.5224
X11.5942Y-1.1783
X11.5942Y-1.7783
X11.6139Y-5.9224
X11.6139Y-6.5224
X11.6942Y-1.1783
X11.6942Y-1.7783
X11.7139Y-5.9224
X11.7139Y-6.5224
X11.7942Y-1.1783
X11.7942Y-1.7783
X11.8139Y-5.9224
X11.8139Y-6.5224
T5
X1.1686Y-2.3086
X1.1883Y-7.0527
X3.5755Y-3.5969
X3.5952Y-8.341
X5.0466Y-2.3086
X5.0663Y-7.0527
X7.4534Y-3.5969
X7.4731Y-8.341
X8.9442Y-2.3283
X8.9639Y-7.0724
X11.3511Y-3.6166
X11.3707Y-8.3607
T6
X1.2686Y-2.3169
X1.2883Y-7.061
X1.3686Y-2.3086
X1.3883Y-7.0527
X1.4694Y-2.3169
X1.4891Y-7.061
X1.5686Y-2.3086
X1.5883Y-7.0527
X1.6702Y-2.3169
X1.6899Y-7.061
X1.7686Y-2.3086
X1.7883Y-7.0527
X1.869Y-2.3149
X1.8887Y-7.059
X2.8751Y-3.5906
X2.8948Y-8.3347
X2.9755Y-3.5969
X2.9952Y-8.341
X3.0739Y-3.5886
X3.0936Y-8.3327
X3.1755Y-3.5969
X3.1952Y-8.341
X3.2747Y-3.5886
X3.2944Y-8.3327
X3.3755Y-3.5969
X3.3952Y-8.341
X3.4755Y-3.5886
X3.4952Y-8.3327
X5.1466Y-2.3169
X5.1663Y-7.061
X5.2466Y-2.3086
X5.2663Y-7.0527
X5.3474Y-2.3169
X5.367Y-7.061
X5.4466Y-2.3086
X5.4663Y-7.0527
X5.5481Y-2.3169
X5.5678Y-7.061
X5.6466Y-2.3086
X5.6663Y-7.0527
X5.747Y-2.3149
X5.7667Y-7.059
X6.753Y-3.5906
X6.7727Y-8.3347
X6.8534Y-3.5969
X6.8731Y-8.341
X6.9519Y-3.5886
X6.9715Y-8.3327
X7.0534Y-3.5969
X7.0731Y-8.341
X7.1526Y-3.5886
X7.1723Y-8.3327
X7.2534Y-3.5969
X7.2731Y-8.341
X7.3534Y-3.5886
X7.3731Y-8.3327
X9.0442Y-2.3366
X9.0639Y-7.0807
X9.1442Y-2.3283
X9.1639Y-7.0724
X9.245Y-2.3366
X9.2647Y-7.0807
X9.3442Y-2.3283
X9.3639Y-7.0724
X9.4458Y-2.3366
X9.4655Y-7.0807
X9.5442Y-2.3283
X9.5639Y-7.0724
X9.6446Y-2.3346
X9.6643Y-7.0787
X10.6507Y-3.6103
X10.6704Y-8.3544
X10.7511Y-3.6166
X10.7707Y-8.3607
X10.8495Y-3.6083
X10.8692Y-8.3524
X10.9511Y-3.6166
X10.9707Y-8.3607
X11.0503Y-3.6083
X11.07Y-8.3524
X11.1511Y-3.6166
X11.1707Y-8.3607
X11.2511Y-3.6083
X11.2707Y-8.3524
T7
X1.0655Y-4.9469
X1.0655Y-5.0469
X1.0655Y-5.1469
X1.0852Y-9.691
X1.0852Y-9.791
X1.0852Y-9.891
X1.4655Y-4.9469
X1.4655Y-5.0469
X1.4655Y-5.1469
X1.4852Y-9.691
X1.4852Y-9.791
X1.4852Y-9.891
X1.8655Y-4.9469
X1.8655Y-5.0469
X1.8655Y-5.1469
X1.8852Y-9.691
X1.8852Y-9.791
X1.8852Y-9.891
X2.1686Y-2.6586
X2.1686Y-2.7586
X2.1755Y-3.1469
X2.1755Y-3.2469
X2.1883Y-7.4027
X2.1883Y-7.5027
X2.1952Y-7.891
X2.1952Y-7.991
X2.2686Y-2.6586
X2.2686Y-2.7586
X2.2755Y-3.1469
X2.2755Y-3.2469
X2.2755Y-4.9469
X2.2755Y-5.0469
X2.2755Y-5.1469
X2.2883Y-7.4027
X2.2883Y-7.5027
X2.2952Y-7.891
X2.2952Y-7.991
X2.2952Y-9.691
X2.2952Y-9.791
X2.2952Y-9.891
X2.3686Y-2.6586
X2.3686Y-2.7586
X2.3755Y-3.1469
X2.3755Y-3.2469
X2.3883Y-7.4027
X2.3883Y-7.5027
X2.3952Y-7.891
X2.3952Y-7.991
X2.4686Y-0.7586
X2.4686Y-0.8586
X2.4686Y-0.9586
X2.4686Y-2.6586
X2.4686Y-2.7586
X2.4755Y-3.1469
X2.4755Y-3.2469
X2.4883Y-5.5027
X2.4883Y-5.6027
X2.4883Y-5.7027
X2.4883Y-7.4027
X2.4883Y-7.5027
X2.4952Y-7.891
X2.4952Y-7.991
X2.5686Y-2.6586
X2.5686Y-2.7586
X2.5755Y-3.1469
X2.5755Y-3.2469
X2.5883Y-7.4027
X2.5883Y-7.5027
X2.5952Y-7.891
X2.5952Y-7.991
X2.8786Y-0.7586
X2.8786Y-0.8586
X2.8786Y-0.9586
X2.8983Y-5.5027
X2.8983Y-5.6027
X2.8983Y-5.7027
X3.2786Y-0.7586
X3.2786Y-0.8586
X3.2786Y-0.9586
X3.2983Y-5.5027
X3.2983Y-5.6027
X3.2983Y-5.7027
X3.6786Y-0.7586
X3.6786Y-0.8586
X3.6786Y-0.9586
X3.6983Y-5.5027
X3.6983Y-5.6027
X3.6983Y-5.7027
X4.9434Y-4.9469
X4.9434Y-5.0469
X4.9434Y-5.1469
X4.9631Y-9.691
X4.9631Y-9.791
X4.9631Y-9.891
X5.3434Y-4.9469
X5.3434Y-5.0469
X5.3434Y-5.1469
X5.3631Y-9.691
X5.3631Y-9.791
X5.3631Y-9.891
X5.7434Y-4.9469
X5.7434Y-5.0469
X5.7434Y-5.1469
X5.7631Y-9.691
X5.7631Y-9.791
X5.7631Y-9.891
X6.0466Y-2.6586
X6.0466Y-2.7586
X6.0534Y-3.1469
X6.0534Y-3.2469
X6.0663Y-7.4027
X6.0663Y-7.5027
X6.0731Y-7.891
X6.0731Y-7.991
X6.1466Y-2.6586
X6.1466Y-2.7586
X6.1534Y-3.1469
X6.1534Y-3.2469
X6.1534Y-4.9469
X6.1534Y-5.0469
X6.1534Y-5.1469
X6.1663Y-7.4027
X6.1663Y-7.5027
X6.1731Y-7.891
X6.1731Y-7.991
X6.1731Y-9.691
X6.1731Y-9.791
X6.1731Y-9.891
X6.2466Y-2.6586
X6.2466Y-2.7586
X6.2534Y-3.1469
X6.2534Y-3.2469
X6.2663Y-7.4027
X6.2663Y-7.5027
X6.2731Y-7.891
X6.2731Y-7.991
X6.3466Y-0.7586
X6.3466Y-0.8586
X6.3466Y-0.9586
X6.3466Y-2.6586
X6.3466Y-2.7586
X6.3534Y-3.1469
X6.3534Y-3.2469
X6.3663Y-5.5027
X6.3663Y-5.6027
X6.3663Y-5.7027
X6.3663Y-7.4027
X6.3663Y-7.5027
X6.3731Y-7.891
X6.3731Y-7.991
X6.4466Y-2.6586
X6.4466Y-2.7586
X6.4534Y-3.1469
X6.4534Y-3.2469
X6.4663Y-7.4027
X6.4663Y-7.5027
X6.4731Y-7.891
X6.4731Y-7.991
X6.7566Y-0.7586
X6.7566Y-0.8586
X6.7566Y-0.9586
X6.7763Y-5.5027
X6.7763Y-5.6027
X6.7763Y-5.7027
X7.1566Y-0.7586
X7.1566Y-0.8586
X7.1566Y-0.9586
X7.1763Y-5.5027
X7.1763Y-5.6027
X7.1763Y-5.7027
X7.5566Y-0.7586
X7.5566Y-0.8586
X7.5566Y-0.9586
X7.5763Y-5.5027
X7.5763Y-5.6027
X7.5763Y-5.7027
X8.8411Y-4.9666
X8.8411Y-5.0666
X8.8411Y-5.1666
X8.8607Y-9.7107
X8.8607Y-9.8107
X8.8607Y-9.9107
X9.2411Y-4.9666
X9.2411Y-5.0666
X9.2411Y-5.1666
X9.2607Y-9.7107
X9.2607Y-9.8107
X9.2607Y-9.9107
X9.6411Y-4.9666
X9.6411Y-5.0666
X9.6411Y-5.1666
X9.6607Y-9.7107
X9.6607Y-9.8107
X9.6607Y-9.9107
X9.9442Y-2.6783
X9.9442Y-2.7783
X9.9511Y-3.1666
X9.9511Y-3.2666
X9.9639Y-7.4224
X9.9639Y-7.5224
X9.9707Y-7.9107
X9.9707Y-8.0107
X10.0442Y-2.6783
X10.0442Y-2.7783
X10.0511Y-3.1666
X10.0511Y-3.2666
X10.0511Y-4.9666
X10.0511Y-5.0666
X10.0511Y-5.1666
X10.0639Y-7.4224
X10.0639Y-7.5224
X10.0707Y-7.9107
X10.0707Y-8.0107
X10.0707Y-9.7107
X10.0707Y-9.8107
X10.0707Y-9.9107
X10.1442Y-2.6783
X10.1442Y-2.7783
X10.1511Y-3.1666
X10.1511Y-3.2666
X10.1639Y-7.4224
X10.1639Y-7.5224
X10.1707Y-7.9107
X10.1707Y-8.0107
X10.2442Y-0.7783
X10.2442Y-0.8783
X10.2442Y-0.9783
X10.2442Y-2.6783
X10.2442Y-2.7783
X10.2511Y-3.1666
X10.2511Y-3.2666
X10.2639Y-5.5224
X10.2639Y-5.6224
X10.2639Y-5.7224
X10.2639Y-7.4224
X10.2639Y-7.5224
X10.2707Y-7.9107
X10.2707Y-8.0107
X10.3442Y-2.6783
X10.3442Y-2.7783
X10.3511Y-3.1666
X10.3511Y-3.2666
X10.3639Y-7.4224
X10.3639Y-7.5224
X10.3707Y-7.9107
X10.3707Y-8.0107
X10.6542Y-0.7783
X10.6542Y-0.8783
X10.6542Y-0.9783
X10.6739Y-5.5224
X10.6739Y-5.6224
X10.6739Y-5.7224
X11.0542Y-0.7783
X11.0542Y-0.8783
X11.0542Y-0.9783
X11.0739Y-5.5224
X11.0739Y-5.6224
X11.0739Y-5.7224
X11.4542Y-0.7783
X11.4542Y-0.8783
X11.4542Y-0.9783
X11.4739Y-5.5224
X11.4739Y-5.6224
X11.4739Y-5.7224
T8
X0.5906Y-0.5906
X0.5906Y-10.0394
X0.8205Y-5.1069
X0.8236Y-0.8236
X0.8402Y-9.851
X0.8433Y-5.5677
X0.9986Y-2.2486
X1.0183Y-6.9927
X1.1455Y-3.7319
X1.1652Y-8.476
X3.5986Y-2.1736
X3.6183Y-6.9177
X3.7455Y-3.6569
X3.7652Y-8.401
X3.9205Y-5.0819
X3.9236Y-0.7986
X3.9402Y-9.826
X3.9433Y-5.5427
X4.6984Y-5.1069
X4.7016Y-0.8236
X4.7181Y-9.851
X4.7213Y-5.5677
X4.8766Y-2.2486
X4.8963Y-6.9927
X5.0234Y-3.7319
X5.0431Y-8.476
X7.4766Y-2.1736
X7.4963Y-6.9177
X7.6234Y-3.6569
X7.6431Y-8.401
X7.7984Y-5.0819
X7.8016Y-0.7986
X7.8181Y-9.826
X7.8213Y-5.5427
X8.5961Y-5.1266
X8.5992Y-0.8433
X8.6157Y-9.8707
X8.6189Y-5.5874
X8.7742Y-2.2683
X8.7939Y-7.0124
X8.9211Y-3.7516
X8.9407Y-8.4957
X11.3742Y-2.1933
X11.3939Y-6.9374
X11.5211Y-3.6766
X11.5407Y-8.4207
X11.6961Y-5.1016
X11.6992Y-0.8183
X11.7157Y-9.8457
X11.7189Y-5.5624
X11.9685Y-10.
X12.0079Y-0.5906
T7
X0.8296Y-2.4686G85X0.9077Y-2.4686
G05
X0.8386Y-2.7086G85X0.8986Y-2.7086
G05
X0.8493Y-7.2127G85X0.9274Y-7.2127
G05
X0.8583Y-7.4527G85X0.9183Y-7.4527
G05
X1.0686Y-2.6486G85X1.0686Y-2.5886
G05
X1.0883Y-7.3927G85X1.0883Y-7.3327
G05
X3.6755Y-3.2569G85X3.6755Y-3.3169
G05
X3.6952Y-8.001G85X3.6952Y-8.061
G05
X3.9055Y-3.1969G85X3.8455Y-3.1969
G05
X3.9145Y-3.4369G85X3.8364Y-3.4369
G05
X3.9252Y-7.941G85X3.8652Y-7.941
G05
X3.9342Y-8.181G85X3.8561Y-8.181
G05
X4.7075Y-2.4686G85X4.7856Y-2.4686
G05
X4.7166Y-2.7086G85X4.7766Y-2.7086
G05
X4.7272Y-7.2127G85X4.8053Y-7.2127
G05
X4.7363Y-7.4527G85X4.7963Y-7.4527
G05
X4.9466Y-2.6486G85X4.9466Y-2.5886
G05
X4.9663Y-7.3927G85X4.9663Y-7.3327
G05
X7.5534Y-3.2569G85X7.5534Y-3.3169
G05
X7.5731Y-8.001G85X7.5731Y-8.061
G05
X7.7834Y-3.1969G85X7.7234Y-3.1969
G05
X7.7925Y-3.4369G85X7.7144Y-3.4369
G05
X7.8031Y-7.941G85X7.7431Y-7.941
G05
X7.8122Y-8.181G85X7.7341Y-8.181
G05
X8.6052Y-2.4883G85X8.6833Y-2.4883
G05
X8.6142Y-2.7283G85X8.6742Y-2.7283
G05
X8.6248Y-7.2324G85X8.703Y-7.2324
G05
X8.6339Y-7.4724G85X8.6939Y-7.4724
G05
X8.8442Y-2.6683G85X8.8442Y-2.6083
G05
X8.8639Y-7.4124G85X8.8639Y-7.3524
G05
X11.4511Y-3.2766G85X11.4511Y-3.3366
G05
X11.4707Y-8.0207G85X11.4707Y-8.0807
G05
X11.6811Y-3.2166G85X11.6211Y-3.2166
G05
X11.6901Y-3.4566G85X11.612Y-3.4566
G05
X11.7007Y-7.9607G85X11.6407Y-7.9607
G05
X11.7098Y-8.2007G85X11.6317Y-8.2007
G05
T0
M30
