G04 #@! TF.FileFunction,Soldermask,Top*
%FSLAX46Y46*%
G04 Gerber Fmt 4.6, Leading zero omitted, Abs format (unit mm)*
G04 Created by KiCad (PCBNEW (2015-01-16 BZR 5376)-product) date 10/26/2015 1:30:35 PM*
%MOMM*%
G01*
G04 APERTURE LIST*
%ADD10C,0.100000*%
%ADD11C,4.000000*%
%ADD12C,0.300000*%
%ADD13C,3.000000*%
%ADD14R,1.250000X1.000000*%
%ADD15R,1.780000X3.500000*%
%ADD16R,2.032000X1.727200*%
%ADD17O,2.032000X1.727200*%
%ADD18R,3.657600X2.032000*%
%ADD19R,1.016000X2.032000*%
%ADD20R,1.727200X1.727200*%
%ADD21O,1.727200X1.727200*%
%ADD22R,1.100000X3.600000*%
%ADD23C,2.000000*%
%ADD24R,2.000000X2.000000*%
%ADD25R,1.574800X2.286000*%
%ADD26O,1.574800X2.286000*%
%ADD27R,1.000000X8.000000*%
%ADD28R,2.000000X1.200000*%
%ADD29C,1.500000*%
%ADD30C,4.800600*%
%ADD31R,4.800600X4.800600*%
G04 APERTURE END LIST*
D10*
D11*
X15000000Y-255000000D03*
X305000000Y-15000000D03*
X304000000Y-254000000D03*
D12*
X243177000Y-137602000D03*
X242796000Y-137602000D03*
X242415000Y-137602000D03*
X242034000Y-137602000D03*
D13*
X284325000Y-176210000D03*
X229715000Y-190815000D03*
D14*
X249400000Y-142920000D03*
X249400000Y-140920000D03*
X241145000Y-169590000D03*
X241145000Y-167590000D03*
X229715000Y-167590000D03*
X229715000Y-169590000D03*
D11*
X289405000Y-176210000D03*
X223365000Y-178115000D03*
X297660000Y-141285000D03*
X218920000Y-141920000D03*
D15*
X257539000Y-139761000D03*
X253199000Y-139761000D03*
X278367000Y-139761000D03*
X274027000Y-139761000D03*
X268207000Y-139761000D03*
X263867000Y-139761000D03*
X288527000Y-139761000D03*
X284187000Y-139761000D03*
D16*
X260703000Y-140269000D03*
D17*
X260703000Y-142809000D03*
X260703000Y-145349000D03*
D16*
X291437000Y-140269000D03*
D17*
X291437000Y-142809000D03*
X291437000Y-145349000D03*
D16*
X281277000Y-140269000D03*
D17*
X281277000Y-142809000D03*
X281277000Y-145349000D03*
D16*
X271117000Y-140269000D03*
D17*
X271117000Y-142809000D03*
X271117000Y-145349000D03*
D18*
X235430000Y-167701000D03*
D19*
X235430000Y-161097000D03*
X233144000Y-161097000D03*
X237716000Y-161097000D03*
D20*
X253083000Y-191069000D03*
D21*
X253083000Y-188529000D03*
X255623000Y-191069000D03*
X255623000Y-188529000D03*
X258163000Y-191069000D03*
X258163000Y-188529000D03*
X260703000Y-191069000D03*
X260703000Y-188529000D03*
X263243000Y-191069000D03*
X263243000Y-188529000D03*
D22*
X220190000Y-172475000D03*
X220190000Y-165975000D03*
D13*
X224635000Y-141920000D03*
D23*
X227683000Y-179639000D03*
X230223000Y-179849000D03*
X232763000Y-179639000D03*
X235323000Y-179849000D03*
X237843000Y-179639000D03*
X240423000Y-179849000D03*
X242923000Y-179639000D03*
D24*
X245473000Y-179799000D03*
D12*
X241653000Y-137602000D03*
X293850000Y-193736000D03*
X294231000Y-193736000D03*
X294612000Y-193736000D03*
X294993000Y-193736000D03*
X295374000Y-193736000D03*
X220444000Y-193736000D03*
X220825000Y-193736000D03*
X221206000Y-193736000D03*
X221587000Y-193736000D03*
X221968000Y-193736000D03*
D25*
X300073000Y-150429000D03*
D26*
X297533000Y-150429000D03*
X294993000Y-150429000D03*
X292453000Y-150429000D03*
X289913000Y-150429000D03*
X287373000Y-150429000D03*
X284833000Y-150429000D03*
X282293000Y-150429000D03*
X279753000Y-150429000D03*
X277213000Y-150429000D03*
X274673000Y-150429000D03*
X272133000Y-150429000D03*
X272133000Y-165669000D03*
X274673000Y-165669000D03*
X277213000Y-165669000D03*
X279753000Y-165669000D03*
X282293000Y-165669000D03*
X284833000Y-165669000D03*
X287373000Y-165669000D03*
X289913000Y-165669000D03*
X292453000Y-165669000D03*
X294993000Y-165669000D03*
X297533000Y-165669000D03*
X300073000Y-165669000D03*
D27*
X237208000Y-191069000D03*
X239113000Y-191069000D03*
X241018000Y-191069000D03*
D28*
X290063000Y-191139000D03*
X290063000Y-189639000D03*
X290063000Y-188139000D03*
X290063000Y-186639000D03*
X290063000Y-185139000D03*
X290063000Y-183639000D03*
X290063000Y-182139000D03*
X290063000Y-180639000D03*
X276563000Y-180639000D03*
X276563000Y-182139000D03*
X276563000Y-183639000D03*
X276563000Y-185139000D03*
X276563000Y-186639000D03*
X276563000Y-188139000D03*
X276563000Y-189639000D03*
X276563000Y-191139000D03*
D29*
X294690000Y-191520000D03*
X294690000Y-189520000D03*
X294690000Y-187520000D03*
X294690000Y-185520000D03*
X294690000Y-183520000D03*
X294690000Y-181520000D03*
X294690000Y-179520000D03*
X294690000Y-177520000D03*
X294690000Y-175520000D03*
X294690000Y-173520000D03*
X272690000Y-173520000D03*
X272690000Y-175520000D03*
X272690000Y-177520000D03*
X272690000Y-179520000D03*
X272690000Y-181520000D03*
X272690000Y-183520000D03*
X272690000Y-185520000D03*
X272690000Y-187520000D03*
X272690000Y-189520000D03*
X272690000Y-191520000D03*
D30*
X220063000Y-189799000D03*
D31*
X220063000Y-183703000D03*
D30*
X225143000Y-187513000D03*
X296437000Y-202201000D03*
D31*
X296437000Y-208297000D03*
D30*
X291357000Y-204487000D03*
D29*
X221810000Y-200480000D03*
X221810000Y-202480000D03*
X221810000Y-204480000D03*
X221810000Y-206480000D03*
X221810000Y-208480000D03*
X221810000Y-210480000D03*
X221810000Y-212480000D03*
X221810000Y-214480000D03*
X221810000Y-216480000D03*
X221810000Y-218480000D03*
X243810000Y-218480000D03*
X243810000Y-216480000D03*
X243810000Y-214480000D03*
X243810000Y-212480000D03*
X243810000Y-210480000D03*
X243810000Y-208480000D03*
X243810000Y-206480000D03*
X243810000Y-204480000D03*
X243810000Y-202480000D03*
X243810000Y-200480000D03*
D28*
X226437000Y-200861000D03*
X226437000Y-202361000D03*
X226437000Y-203861000D03*
X226437000Y-205361000D03*
X226437000Y-206861000D03*
X226437000Y-208361000D03*
X226437000Y-209861000D03*
X226437000Y-211361000D03*
X239937000Y-211361000D03*
X239937000Y-209861000D03*
X239937000Y-208361000D03*
X239937000Y-206861000D03*
X239937000Y-205361000D03*
X239937000Y-203861000D03*
X239937000Y-202361000D03*
X239937000Y-200861000D03*
D27*
X279292000Y-200931000D03*
X277387000Y-200931000D03*
X275482000Y-200931000D03*
D25*
X216427000Y-241571000D03*
D26*
X218967000Y-241571000D03*
X221507000Y-241571000D03*
X224047000Y-241571000D03*
X226587000Y-241571000D03*
X229127000Y-241571000D03*
X231667000Y-241571000D03*
X234207000Y-241571000D03*
X236747000Y-241571000D03*
X239287000Y-241571000D03*
X241827000Y-241571000D03*
X244367000Y-241571000D03*
X244367000Y-226331000D03*
X241827000Y-226331000D03*
X239287000Y-226331000D03*
X236747000Y-226331000D03*
X234207000Y-226331000D03*
X231667000Y-226331000D03*
X229127000Y-226331000D03*
X226587000Y-226331000D03*
X224047000Y-226331000D03*
X221507000Y-226331000D03*
X218967000Y-226331000D03*
X216427000Y-226331000D03*
D12*
X294532000Y-198264000D03*
X294913000Y-198264000D03*
X295294000Y-198264000D03*
X295675000Y-198264000D03*
X296056000Y-198264000D03*
X221126000Y-198264000D03*
X221507000Y-198264000D03*
X221888000Y-198264000D03*
X222269000Y-198264000D03*
X222650000Y-198264000D03*
X274847000Y-254398000D03*
D23*
X288817000Y-212361000D03*
X286277000Y-212151000D03*
X283737000Y-212361000D03*
X281177000Y-212151000D03*
X278657000Y-212361000D03*
X276077000Y-212151000D03*
X273577000Y-212361000D03*
D24*
X271027000Y-212201000D03*
D13*
X291865000Y-250080000D03*
D22*
X296310000Y-219525000D03*
X296310000Y-226025000D03*
D20*
X263417000Y-200931000D03*
D21*
X263417000Y-203471000D03*
X260877000Y-200931000D03*
X260877000Y-203471000D03*
X258337000Y-200931000D03*
X258337000Y-203471000D03*
X255797000Y-200931000D03*
X255797000Y-203471000D03*
X253257000Y-200931000D03*
X253257000Y-203471000D03*
D18*
X281070000Y-224299000D03*
D19*
X281070000Y-230903000D03*
X283356000Y-230903000D03*
X278784000Y-230903000D03*
D16*
X245383000Y-251731000D03*
D17*
X245383000Y-249191000D03*
X245383000Y-246651000D03*
D16*
X235223000Y-251731000D03*
D17*
X235223000Y-249191000D03*
X235223000Y-246651000D03*
D16*
X225063000Y-251731000D03*
D17*
X225063000Y-249191000D03*
X225063000Y-246651000D03*
D16*
X255797000Y-251731000D03*
D17*
X255797000Y-249191000D03*
X255797000Y-246651000D03*
D15*
X227973000Y-252239000D03*
X232313000Y-252239000D03*
X248293000Y-252239000D03*
X252633000Y-252239000D03*
X238133000Y-252239000D03*
X242473000Y-252239000D03*
X258961000Y-252239000D03*
X263301000Y-252239000D03*
D11*
X297580000Y-250080000D03*
X218840000Y-250715000D03*
X293135000Y-213885000D03*
X227095000Y-215790000D03*
D14*
X286785000Y-224410000D03*
X286785000Y-222410000D03*
X275355000Y-222410000D03*
X275355000Y-224410000D03*
X267100000Y-249080000D03*
X267100000Y-251080000D03*
D13*
X286785000Y-201185000D03*
X232175000Y-215790000D03*
D12*
X274466000Y-254398000D03*
X274085000Y-254398000D03*
X273704000Y-254398000D03*
X273323000Y-254398000D03*
X272823000Y-133898000D03*
X273204000Y-133898000D03*
X273585000Y-133898000D03*
X273966000Y-133898000D03*
D13*
X231675000Y-95290000D03*
X286285000Y-80685000D03*
D14*
X266600000Y-128580000D03*
X266600000Y-130580000D03*
X274855000Y-101910000D03*
X274855000Y-103910000D03*
X286285000Y-103910000D03*
X286285000Y-101910000D03*
D11*
X226595000Y-95290000D03*
X292635000Y-93385000D03*
X218340000Y-130215000D03*
X297080000Y-129580000D03*
D15*
X258461000Y-131739000D03*
X262801000Y-131739000D03*
X237633000Y-131739000D03*
X241973000Y-131739000D03*
X247793000Y-131739000D03*
X252133000Y-131739000D03*
X227473000Y-131739000D03*
X231813000Y-131739000D03*
D16*
X255297000Y-131231000D03*
D17*
X255297000Y-128691000D03*
X255297000Y-126151000D03*
D16*
X224563000Y-131231000D03*
D17*
X224563000Y-128691000D03*
X224563000Y-126151000D03*
D16*
X234723000Y-131231000D03*
D17*
X234723000Y-128691000D03*
X234723000Y-126151000D03*
D16*
X244883000Y-131231000D03*
D17*
X244883000Y-128691000D03*
X244883000Y-126151000D03*
D18*
X280570000Y-103799000D03*
D19*
X280570000Y-110403000D03*
X282856000Y-110403000D03*
X278284000Y-110403000D03*
D20*
X262917000Y-80431000D03*
D21*
X262917000Y-82971000D03*
X260377000Y-80431000D03*
X260377000Y-82971000D03*
X257837000Y-80431000D03*
X257837000Y-82971000D03*
X255297000Y-80431000D03*
X255297000Y-82971000D03*
X252757000Y-80431000D03*
X252757000Y-82971000D03*
D22*
X295810000Y-99025000D03*
X295810000Y-105525000D03*
D13*
X291365000Y-129580000D03*
D23*
X288317000Y-91861000D03*
X285777000Y-91651000D03*
X283237000Y-91861000D03*
X280677000Y-91651000D03*
X278157000Y-91861000D03*
X275577000Y-91651000D03*
X273077000Y-91861000D03*
D24*
X270527000Y-91701000D03*
D12*
X274347000Y-133898000D03*
X222150000Y-77764000D03*
X221769000Y-77764000D03*
X221388000Y-77764000D03*
X221007000Y-77764000D03*
X220626000Y-77764000D03*
X295556000Y-77764000D03*
X295175000Y-77764000D03*
X294794000Y-77764000D03*
X294413000Y-77764000D03*
X294032000Y-77764000D03*
D25*
X215927000Y-121071000D03*
D26*
X218467000Y-121071000D03*
X221007000Y-121071000D03*
X223547000Y-121071000D03*
X226087000Y-121071000D03*
X228627000Y-121071000D03*
X231167000Y-121071000D03*
X233707000Y-121071000D03*
X236247000Y-121071000D03*
X238787000Y-121071000D03*
X241327000Y-121071000D03*
X243867000Y-121071000D03*
X243867000Y-105831000D03*
X241327000Y-105831000D03*
X238787000Y-105831000D03*
X236247000Y-105831000D03*
X233707000Y-105831000D03*
X231167000Y-105831000D03*
X228627000Y-105831000D03*
X226087000Y-105831000D03*
X223547000Y-105831000D03*
X221007000Y-105831000D03*
X218467000Y-105831000D03*
X215927000Y-105831000D03*
D27*
X278792000Y-80431000D03*
X276887000Y-80431000D03*
X274982000Y-80431000D03*
D28*
X225937000Y-80361000D03*
X225937000Y-81861000D03*
X225937000Y-83361000D03*
X225937000Y-84861000D03*
X225937000Y-86361000D03*
X225937000Y-87861000D03*
X225937000Y-89361000D03*
X225937000Y-90861000D03*
X239437000Y-90861000D03*
X239437000Y-89361000D03*
X239437000Y-87861000D03*
X239437000Y-86361000D03*
X239437000Y-84861000D03*
X239437000Y-83361000D03*
X239437000Y-81861000D03*
X239437000Y-80361000D03*
D29*
X221310000Y-79980000D03*
X221310000Y-81980000D03*
X221310000Y-83980000D03*
X221310000Y-85980000D03*
X221310000Y-87980000D03*
X221310000Y-89980000D03*
X221310000Y-91980000D03*
X221310000Y-93980000D03*
X221310000Y-95980000D03*
X221310000Y-97980000D03*
X243310000Y-97980000D03*
X243310000Y-95980000D03*
X243310000Y-93980000D03*
X243310000Y-91980000D03*
X243310000Y-89980000D03*
X243310000Y-87980000D03*
X243310000Y-85980000D03*
X243310000Y-83980000D03*
X243310000Y-81980000D03*
X243310000Y-79980000D03*
D30*
X295937000Y-81701000D03*
D31*
X295937000Y-87797000D03*
D30*
X290857000Y-83987000D03*
X219563000Y-69299000D03*
D31*
X219563000Y-63203000D03*
D30*
X224643000Y-67013000D03*
D29*
X294190000Y-71020000D03*
X294190000Y-69020000D03*
X294190000Y-67020000D03*
X294190000Y-65020000D03*
X294190000Y-63020000D03*
X294190000Y-61020000D03*
X294190000Y-59020000D03*
X294190000Y-57020000D03*
X294190000Y-55020000D03*
X294190000Y-53020000D03*
X272190000Y-53020000D03*
X272190000Y-55020000D03*
X272190000Y-57020000D03*
X272190000Y-59020000D03*
X272190000Y-61020000D03*
X272190000Y-63020000D03*
X272190000Y-65020000D03*
X272190000Y-67020000D03*
X272190000Y-69020000D03*
X272190000Y-71020000D03*
D28*
X289563000Y-70639000D03*
X289563000Y-69139000D03*
X289563000Y-67639000D03*
X289563000Y-66139000D03*
X289563000Y-64639000D03*
X289563000Y-63139000D03*
X289563000Y-61639000D03*
X289563000Y-60139000D03*
X276063000Y-60139000D03*
X276063000Y-61639000D03*
X276063000Y-63139000D03*
X276063000Y-64639000D03*
X276063000Y-66139000D03*
X276063000Y-67639000D03*
X276063000Y-69139000D03*
X276063000Y-70639000D03*
D27*
X236708000Y-70569000D03*
X238613000Y-70569000D03*
X240518000Y-70569000D03*
D25*
X299573000Y-29929000D03*
D26*
X297033000Y-29929000D03*
X294493000Y-29929000D03*
X291953000Y-29929000D03*
X289413000Y-29929000D03*
X286873000Y-29929000D03*
X284333000Y-29929000D03*
X281793000Y-29929000D03*
X279253000Y-29929000D03*
X276713000Y-29929000D03*
X274173000Y-29929000D03*
X271633000Y-29929000D03*
X271633000Y-45169000D03*
X274173000Y-45169000D03*
X276713000Y-45169000D03*
X279253000Y-45169000D03*
X281793000Y-45169000D03*
X284333000Y-45169000D03*
X286873000Y-45169000D03*
X289413000Y-45169000D03*
X291953000Y-45169000D03*
X294493000Y-45169000D03*
X297033000Y-45169000D03*
X299573000Y-45169000D03*
D12*
X221468000Y-73236000D03*
X221087000Y-73236000D03*
X220706000Y-73236000D03*
X220325000Y-73236000D03*
X219944000Y-73236000D03*
X294874000Y-73236000D03*
X294493000Y-73236000D03*
X294112000Y-73236000D03*
X293731000Y-73236000D03*
X293350000Y-73236000D03*
X241153000Y-17102000D03*
D23*
X227183000Y-59139000D03*
X229723000Y-59349000D03*
X232263000Y-59139000D03*
X234823000Y-59349000D03*
X237343000Y-59139000D03*
X239923000Y-59349000D03*
X242423000Y-59139000D03*
D24*
X244973000Y-59299000D03*
D13*
X224135000Y-21420000D03*
D22*
X219690000Y-51975000D03*
X219690000Y-45475000D03*
D20*
X252583000Y-70569000D03*
D21*
X252583000Y-68029000D03*
X255123000Y-70569000D03*
X255123000Y-68029000D03*
X257663000Y-70569000D03*
X257663000Y-68029000D03*
X260203000Y-70569000D03*
X260203000Y-68029000D03*
X262743000Y-70569000D03*
X262743000Y-68029000D03*
D18*
X234930000Y-47201000D03*
D19*
X234930000Y-40597000D03*
X232644000Y-40597000D03*
X237216000Y-40597000D03*
D16*
X270617000Y-19769000D03*
D17*
X270617000Y-22309000D03*
X270617000Y-24849000D03*
D16*
X280777000Y-19769000D03*
D17*
X280777000Y-22309000D03*
X280777000Y-24849000D03*
D16*
X290937000Y-19769000D03*
D17*
X290937000Y-22309000D03*
X290937000Y-24849000D03*
D16*
X260203000Y-19769000D03*
D17*
X260203000Y-22309000D03*
X260203000Y-24849000D03*
D15*
X288027000Y-19261000D03*
X283687000Y-19261000D03*
X267707000Y-19261000D03*
X263367000Y-19261000D03*
X277867000Y-19261000D03*
X273527000Y-19261000D03*
X257039000Y-19261000D03*
X252699000Y-19261000D03*
D11*
X218420000Y-21420000D03*
X297160000Y-20785000D03*
X222865000Y-57615000D03*
X288905000Y-55710000D03*
D14*
X229215000Y-47090000D03*
X229215000Y-49090000D03*
X240645000Y-49090000D03*
X240645000Y-47090000D03*
X248900000Y-22420000D03*
X248900000Y-20420000D03*
D13*
X229215000Y-70315000D03*
X283825000Y-55710000D03*
D12*
X241534000Y-17102000D03*
X241915000Y-17102000D03*
X242296000Y-17102000D03*
X242677000Y-17102000D03*
X143677000Y-16602000D03*
X143296000Y-16602000D03*
X142915000Y-16602000D03*
X142534000Y-16602000D03*
D13*
X184825000Y-55210000D03*
X130215000Y-69815000D03*
D14*
X149900000Y-21920000D03*
X149900000Y-19920000D03*
X141645000Y-48590000D03*
X141645000Y-46590000D03*
X130215000Y-46590000D03*
X130215000Y-48590000D03*
D11*
X189905000Y-55210000D03*
X123865000Y-57115000D03*
X198160000Y-20285000D03*
X119420000Y-20920000D03*
D15*
X158039000Y-18761000D03*
X153699000Y-18761000D03*
X178867000Y-18761000D03*
X174527000Y-18761000D03*
X168707000Y-18761000D03*
X164367000Y-18761000D03*
X189027000Y-18761000D03*
X184687000Y-18761000D03*
D16*
X161203000Y-19269000D03*
D17*
X161203000Y-21809000D03*
X161203000Y-24349000D03*
D16*
X191937000Y-19269000D03*
D17*
X191937000Y-21809000D03*
X191937000Y-24349000D03*
D16*
X181777000Y-19269000D03*
D17*
X181777000Y-21809000D03*
X181777000Y-24349000D03*
D16*
X171617000Y-19269000D03*
D17*
X171617000Y-21809000D03*
X171617000Y-24349000D03*
D18*
X135930000Y-46701000D03*
D19*
X135930000Y-40097000D03*
X133644000Y-40097000D03*
X138216000Y-40097000D03*
D20*
X153583000Y-70069000D03*
D21*
X153583000Y-67529000D03*
X156123000Y-70069000D03*
X156123000Y-67529000D03*
X158663000Y-70069000D03*
X158663000Y-67529000D03*
X161203000Y-70069000D03*
X161203000Y-67529000D03*
X163743000Y-70069000D03*
X163743000Y-67529000D03*
D22*
X120690000Y-51475000D03*
X120690000Y-44975000D03*
D13*
X125135000Y-20920000D03*
D23*
X128183000Y-58639000D03*
X130723000Y-58849000D03*
X133263000Y-58639000D03*
X135823000Y-58849000D03*
X138343000Y-58639000D03*
X140923000Y-58849000D03*
X143423000Y-58639000D03*
D24*
X145973000Y-58799000D03*
D12*
X142153000Y-16602000D03*
X194350000Y-72736000D03*
X194731000Y-72736000D03*
X195112000Y-72736000D03*
X195493000Y-72736000D03*
X195874000Y-72736000D03*
X120944000Y-72736000D03*
X121325000Y-72736000D03*
X121706000Y-72736000D03*
X122087000Y-72736000D03*
X122468000Y-72736000D03*
D25*
X200573000Y-29429000D03*
D26*
X198033000Y-29429000D03*
X195493000Y-29429000D03*
X192953000Y-29429000D03*
X190413000Y-29429000D03*
X187873000Y-29429000D03*
X185333000Y-29429000D03*
X182793000Y-29429000D03*
X180253000Y-29429000D03*
X177713000Y-29429000D03*
X175173000Y-29429000D03*
X172633000Y-29429000D03*
X172633000Y-44669000D03*
X175173000Y-44669000D03*
X177713000Y-44669000D03*
X180253000Y-44669000D03*
X182793000Y-44669000D03*
X185333000Y-44669000D03*
X187873000Y-44669000D03*
X190413000Y-44669000D03*
X192953000Y-44669000D03*
X195493000Y-44669000D03*
X198033000Y-44669000D03*
X200573000Y-44669000D03*
D27*
X137708000Y-70069000D03*
X139613000Y-70069000D03*
X141518000Y-70069000D03*
D28*
X190563000Y-70139000D03*
X190563000Y-68639000D03*
X190563000Y-67139000D03*
X190563000Y-65639000D03*
X190563000Y-64139000D03*
X190563000Y-62639000D03*
X190563000Y-61139000D03*
X190563000Y-59639000D03*
X177063000Y-59639000D03*
X177063000Y-61139000D03*
X177063000Y-62639000D03*
X177063000Y-64139000D03*
X177063000Y-65639000D03*
X177063000Y-67139000D03*
X177063000Y-68639000D03*
X177063000Y-70139000D03*
D29*
X195190000Y-70520000D03*
X195190000Y-68520000D03*
X195190000Y-66520000D03*
X195190000Y-64520000D03*
X195190000Y-62520000D03*
X195190000Y-60520000D03*
X195190000Y-58520000D03*
X195190000Y-56520000D03*
X195190000Y-54520000D03*
X195190000Y-52520000D03*
X173190000Y-52520000D03*
X173190000Y-54520000D03*
X173190000Y-56520000D03*
X173190000Y-58520000D03*
X173190000Y-60520000D03*
X173190000Y-62520000D03*
X173190000Y-64520000D03*
X173190000Y-66520000D03*
X173190000Y-68520000D03*
X173190000Y-70520000D03*
D30*
X120563000Y-68799000D03*
D31*
X120563000Y-62703000D03*
D30*
X125643000Y-66513000D03*
X196937000Y-81201000D03*
D31*
X196937000Y-87297000D03*
D30*
X191857000Y-83487000D03*
D29*
X122310000Y-79480000D03*
X122310000Y-81480000D03*
X122310000Y-83480000D03*
X122310000Y-85480000D03*
X122310000Y-87480000D03*
X122310000Y-89480000D03*
X122310000Y-91480000D03*
X122310000Y-93480000D03*
X122310000Y-95480000D03*
X122310000Y-97480000D03*
X144310000Y-97480000D03*
X144310000Y-95480000D03*
X144310000Y-93480000D03*
X144310000Y-91480000D03*
X144310000Y-89480000D03*
X144310000Y-87480000D03*
X144310000Y-85480000D03*
X144310000Y-83480000D03*
X144310000Y-81480000D03*
X144310000Y-79480000D03*
D28*
X126937000Y-79861000D03*
X126937000Y-81361000D03*
X126937000Y-82861000D03*
X126937000Y-84361000D03*
X126937000Y-85861000D03*
X126937000Y-87361000D03*
X126937000Y-88861000D03*
X126937000Y-90361000D03*
X140437000Y-90361000D03*
X140437000Y-88861000D03*
X140437000Y-87361000D03*
X140437000Y-85861000D03*
X140437000Y-84361000D03*
X140437000Y-82861000D03*
X140437000Y-81361000D03*
X140437000Y-79861000D03*
D27*
X179792000Y-79931000D03*
X177887000Y-79931000D03*
X175982000Y-79931000D03*
D25*
X116927000Y-120571000D03*
D26*
X119467000Y-120571000D03*
X122007000Y-120571000D03*
X124547000Y-120571000D03*
X127087000Y-120571000D03*
X129627000Y-120571000D03*
X132167000Y-120571000D03*
X134707000Y-120571000D03*
X137247000Y-120571000D03*
X139787000Y-120571000D03*
X142327000Y-120571000D03*
X144867000Y-120571000D03*
X144867000Y-105331000D03*
X142327000Y-105331000D03*
X139787000Y-105331000D03*
X137247000Y-105331000D03*
X134707000Y-105331000D03*
X132167000Y-105331000D03*
X129627000Y-105331000D03*
X127087000Y-105331000D03*
X124547000Y-105331000D03*
X122007000Y-105331000D03*
X119467000Y-105331000D03*
X116927000Y-105331000D03*
D12*
X195032000Y-77264000D03*
X195413000Y-77264000D03*
X195794000Y-77264000D03*
X196175000Y-77264000D03*
X196556000Y-77264000D03*
X121626000Y-77264000D03*
X122007000Y-77264000D03*
X122388000Y-77264000D03*
X122769000Y-77264000D03*
X123150000Y-77264000D03*
X175347000Y-133398000D03*
D23*
X189317000Y-91361000D03*
X186777000Y-91151000D03*
X184237000Y-91361000D03*
X181677000Y-91151000D03*
X179157000Y-91361000D03*
X176577000Y-91151000D03*
X174077000Y-91361000D03*
D24*
X171527000Y-91201000D03*
D13*
X192365000Y-129080000D03*
D22*
X196810000Y-98525000D03*
X196810000Y-105025000D03*
D20*
X163917000Y-79931000D03*
D21*
X163917000Y-82471000D03*
X161377000Y-79931000D03*
X161377000Y-82471000D03*
X158837000Y-79931000D03*
X158837000Y-82471000D03*
X156297000Y-79931000D03*
X156297000Y-82471000D03*
X153757000Y-79931000D03*
X153757000Y-82471000D03*
D18*
X181570000Y-103299000D03*
D19*
X181570000Y-109903000D03*
X183856000Y-109903000D03*
X179284000Y-109903000D03*
D16*
X145883000Y-130731000D03*
D17*
X145883000Y-128191000D03*
X145883000Y-125651000D03*
D16*
X135723000Y-130731000D03*
D17*
X135723000Y-128191000D03*
X135723000Y-125651000D03*
D16*
X125563000Y-130731000D03*
D17*
X125563000Y-128191000D03*
X125563000Y-125651000D03*
D16*
X156297000Y-130731000D03*
D17*
X156297000Y-128191000D03*
X156297000Y-125651000D03*
D15*
X128473000Y-131239000D03*
X132813000Y-131239000D03*
X148793000Y-131239000D03*
X153133000Y-131239000D03*
X138633000Y-131239000D03*
X142973000Y-131239000D03*
X159461000Y-131239000D03*
X163801000Y-131239000D03*
D11*
X198080000Y-129080000D03*
X119340000Y-129715000D03*
X193635000Y-92885000D03*
X127595000Y-94790000D03*
D14*
X187285000Y-103410000D03*
X187285000Y-101410000D03*
X175855000Y-101410000D03*
X175855000Y-103410000D03*
X167600000Y-128080000D03*
X167600000Y-130080000D03*
D13*
X187285000Y-80185000D03*
X132675000Y-94790000D03*
D12*
X174966000Y-133398000D03*
X174585000Y-133398000D03*
X174204000Y-133398000D03*
X173823000Y-133398000D03*
X174323000Y-253898000D03*
X174704000Y-253898000D03*
X175085000Y-253898000D03*
X175466000Y-253898000D03*
D13*
X133175000Y-215290000D03*
X187785000Y-200685000D03*
D14*
X168100000Y-248580000D03*
X168100000Y-250580000D03*
X176355000Y-221910000D03*
X176355000Y-223910000D03*
X187785000Y-223910000D03*
X187785000Y-221910000D03*
D11*
X128095000Y-215290000D03*
X194135000Y-213385000D03*
X119840000Y-250215000D03*
X198580000Y-249580000D03*
D15*
X159961000Y-251739000D03*
X164301000Y-251739000D03*
X139133000Y-251739000D03*
X143473000Y-251739000D03*
X149293000Y-251739000D03*
X153633000Y-251739000D03*
X128973000Y-251739000D03*
X133313000Y-251739000D03*
D16*
X156797000Y-251231000D03*
D17*
X156797000Y-248691000D03*
X156797000Y-246151000D03*
D16*
X126063000Y-251231000D03*
D17*
X126063000Y-248691000D03*
X126063000Y-246151000D03*
D16*
X136223000Y-251231000D03*
D17*
X136223000Y-248691000D03*
X136223000Y-246151000D03*
D16*
X146383000Y-251231000D03*
D17*
X146383000Y-248691000D03*
X146383000Y-246151000D03*
D18*
X182070000Y-223799000D03*
D19*
X182070000Y-230403000D03*
X184356000Y-230403000D03*
X179784000Y-230403000D03*
D20*
X164417000Y-200431000D03*
D21*
X164417000Y-202971000D03*
X161877000Y-200431000D03*
X161877000Y-202971000D03*
X159337000Y-200431000D03*
X159337000Y-202971000D03*
X156797000Y-200431000D03*
X156797000Y-202971000D03*
X154257000Y-200431000D03*
X154257000Y-202971000D03*
D22*
X197310000Y-219025000D03*
X197310000Y-225525000D03*
D13*
X192865000Y-249580000D03*
D23*
X189817000Y-211861000D03*
X187277000Y-211651000D03*
X184737000Y-211861000D03*
X182177000Y-211651000D03*
X179657000Y-211861000D03*
X177077000Y-211651000D03*
X174577000Y-211861000D03*
D24*
X172027000Y-211701000D03*
D12*
X175847000Y-253898000D03*
X123650000Y-197764000D03*
X123269000Y-197764000D03*
X122888000Y-197764000D03*
X122507000Y-197764000D03*
X122126000Y-197764000D03*
X197056000Y-197764000D03*
X196675000Y-197764000D03*
X196294000Y-197764000D03*
X195913000Y-197764000D03*
X195532000Y-197764000D03*
D25*
X117427000Y-241071000D03*
D26*
X119967000Y-241071000D03*
X122507000Y-241071000D03*
X125047000Y-241071000D03*
X127587000Y-241071000D03*
X130127000Y-241071000D03*
X132667000Y-241071000D03*
X135207000Y-241071000D03*
X137747000Y-241071000D03*
X140287000Y-241071000D03*
X142827000Y-241071000D03*
X145367000Y-241071000D03*
X145367000Y-225831000D03*
X142827000Y-225831000D03*
X140287000Y-225831000D03*
X137747000Y-225831000D03*
X135207000Y-225831000D03*
X132667000Y-225831000D03*
X130127000Y-225831000D03*
X127587000Y-225831000D03*
X125047000Y-225831000D03*
X122507000Y-225831000D03*
X119967000Y-225831000D03*
X117427000Y-225831000D03*
D27*
X180292000Y-200431000D03*
X178387000Y-200431000D03*
X176482000Y-200431000D03*
D28*
X127437000Y-200361000D03*
X127437000Y-201861000D03*
X127437000Y-203361000D03*
X127437000Y-204861000D03*
X127437000Y-206361000D03*
X127437000Y-207861000D03*
X127437000Y-209361000D03*
X127437000Y-210861000D03*
X140937000Y-210861000D03*
X140937000Y-209361000D03*
X140937000Y-207861000D03*
X140937000Y-206361000D03*
X140937000Y-204861000D03*
X140937000Y-203361000D03*
X140937000Y-201861000D03*
X140937000Y-200361000D03*
D29*
X122810000Y-199980000D03*
X122810000Y-201980000D03*
X122810000Y-203980000D03*
X122810000Y-205980000D03*
X122810000Y-207980000D03*
X122810000Y-209980000D03*
X122810000Y-211980000D03*
X122810000Y-213980000D03*
X122810000Y-215980000D03*
X122810000Y-217980000D03*
X144810000Y-217980000D03*
X144810000Y-215980000D03*
X144810000Y-213980000D03*
X144810000Y-211980000D03*
X144810000Y-209980000D03*
X144810000Y-207980000D03*
X144810000Y-205980000D03*
X144810000Y-203980000D03*
X144810000Y-201980000D03*
X144810000Y-199980000D03*
D30*
X197437000Y-201701000D03*
D31*
X197437000Y-207797000D03*
D30*
X192357000Y-203987000D03*
X121063000Y-189299000D03*
D31*
X121063000Y-183203000D03*
D30*
X126143000Y-187013000D03*
D29*
X195690000Y-191020000D03*
X195690000Y-189020000D03*
X195690000Y-187020000D03*
X195690000Y-185020000D03*
X195690000Y-183020000D03*
X195690000Y-181020000D03*
X195690000Y-179020000D03*
X195690000Y-177020000D03*
X195690000Y-175020000D03*
X195690000Y-173020000D03*
X173690000Y-173020000D03*
X173690000Y-175020000D03*
X173690000Y-177020000D03*
X173690000Y-179020000D03*
X173690000Y-181020000D03*
X173690000Y-183020000D03*
X173690000Y-185020000D03*
X173690000Y-187020000D03*
X173690000Y-189020000D03*
X173690000Y-191020000D03*
D28*
X191063000Y-190639000D03*
X191063000Y-189139000D03*
X191063000Y-187639000D03*
X191063000Y-186139000D03*
X191063000Y-184639000D03*
X191063000Y-183139000D03*
X191063000Y-181639000D03*
X191063000Y-180139000D03*
X177563000Y-180139000D03*
X177563000Y-181639000D03*
X177563000Y-183139000D03*
X177563000Y-184639000D03*
X177563000Y-186139000D03*
X177563000Y-187639000D03*
X177563000Y-189139000D03*
X177563000Y-190639000D03*
D27*
X138208000Y-190569000D03*
X140113000Y-190569000D03*
X142018000Y-190569000D03*
D25*
X201073000Y-149929000D03*
D26*
X198533000Y-149929000D03*
X195993000Y-149929000D03*
X193453000Y-149929000D03*
X190913000Y-149929000D03*
X188373000Y-149929000D03*
X185833000Y-149929000D03*
X183293000Y-149929000D03*
X180753000Y-149929000D03*
X178213000Y-149929000D03*
X175673000Y-149929000D03*
X173133000Y-149929000D03*
X173133000Y-165169000D03*
X175673000Y-165169000D03*
X178213000Y-165169000D03*
X180753000Y-165169000D03*
X183293000Y-165169000D03*
X185833000Y-165169000D03*
X188373000Y-165169000D03*
X190913000Y-165169000D03*
X193453000Y-165169000D03*
X195993000Y-165169000D03*
X198533000Y-165169000D03*
X201073000Y-165169000D03*
D12*
X122968000Y-193236000D03*
X122587000Y-193236000D03*
X122206000Y-193236000D03*
X121825000Y-193236000D03*
X121444000Y-193236000D03*
X196374000Y-193236000D03*
X195993000Y-193236000D03*
X195612000Y-193236000D03*
X195231000Y-193236000D03*
X194850000Y-193236000D03*
X142653000Y-137102000D03*
D23*
X128683000Y-179139000D03*
X131223000Y-179349000D03*
X133763000Y-179139000D03*
X136323000Y-179349000D03*
X138843000Y-179139000D03*
X141423000Y-179349000D03*
X143923000Y-179139000D03*
D24*
X146473000Y-179299000D03*
D13*
X125635000Y-141420000D03*
D22*
X121190000Y-171975000D03*
X121190000Y-165475000D03*
D20*
X154083000Y-190569000D03*
D21*
X154083000Y-188029000D03*
X156623000Y-190569000D03*
X156623000Y-188029000D03*
X159163000Y-190569000D03*
X159163000Y-188029000D03*
X161703000Y-190569000D03*
X161703000Y-188029000D03*
X164243000Y-190569000D03*
X164243000Y-188029000D03*
D18*
X136430000Y-167201000D03*
D19*
X136430000Y-160597000D03*
X134144000Y-160597000D03*
X138716000Y-160597000D03*
D16*
X172117000Y-139769000D03*
D17*
X172117000Y-142309000D03*
X172117000Y-144849000D03*
D16*
X182277000Y-139769000D03*
D17*
X182277000Y-142309000D03*
X182277000Y-144849000D03*
D16*
X192437000Y-139769000D03*
D17*
X192437000Y-142309000D03*
X192437000Y-144849000D03*
D16*
X161703000Y-139769000D03*
D17*
X161703000Y-142309000D03*
X161703000Y-144849000D03*
D15*
X189527000Y-139261000D03*
X185187000Y-139261000D03*
X169207000Y-139261000D03*
X164867000Y-139261000D03*
X179367000Y-139261000D03*
X175027000Y-139261000D03*
X158539000Y-139261000D03*
X154199000Y-139261000D03*
D11*
X119920000Y-141420000D03*
X198660000Y-140785000D03*
X124365000Y-177615000D03*
X190405000Y-175710000D03*
D14*
X130715000Y-167090000D03*
X130715000Y-169090000D03*
X142145000Y-169090000D03*
X142145000Y-167090000D03*
X150400000Y-142420000D03*
X150400000Y-140420000D03*
D13*
X130715000Y-190315000D03*
X185325000Y-175710000D03*
D12*
X143034000Y-137102000D03*
X143415000Y-137102000D03*
X143796000Y-137102000D03*
X144177000Y-137102000D03*
X45677000Y-137102000D03*
X45296000Y-137102000D03*
X44915000Y-137102000D03*
X44534000Y-137102000D03*
D13*
X86825000Y-175710000D03*
X32215000Y-190315000D03*
D14*
X51900000Y-142420000D03*
X51900000Y-140420000D03*
X43645000Y-169090000D03*
X43645000Y-167090000D03*
X32215000Y-167090000D03*
X32215000Y-169090000D03*
D11*
X91905000Y-175710000D03*
X25865000Y-177615000D03*
X100160000Y-140785000D03*
X21420000Y-141420000D03*
D15*
X60039000Y-139261000D03*
X55699000Y-139261000D03*
X80867000Y-139261000D03*
X76527000Y-139261000D03*
X70707000Y-139261000D03*
X66367000Y-139261000D03*
X91027000Y-139261000D03*
X86687000Y-139261000D03*
D16*
X63203000Y-139769000D03*
D17*
X63203000Y-142309000D03*
X63203000Y-144849000D03*
D16*
X93937000Y-139769000D03*
D17*
X93937000Y-142309000D03*
X93937000Y-144849000D03*
D16*
X83777000Y-139769000D03*
D17*
X83777000Y-142309000D03*
X83777000Y-144849000D03*
D16*
X73617000Y-139769000D03*
D17*
X73617000Y-142309000D03*
X73617000Y-144849000D03*
D18*
X37930000Y-167201000D03*
D19*
X37930000Y-160597000D03*
X35644000Y-160597000D03*
X40216000Y-160597000D03*
D20*
X55583000Y-190569000D03*
D21*
X55583000Y-188029000D03*
X58123000Y-190569000D03*
X58123000Y-188029000D03*
X60663000Y-190569000D03*
X60663000Y-188029000D03*
X63203000Y-190569000D03*
X63203000Y-188029000D03*
X65743000Y-190569000D03*
X65743000Y-188029000D03*
D22*
X22690000Y-171975000D03*
X22690000Y-165475000D03*
D13*
X27135000Y-141420000D03*
D23*
X30183000Y-179139000D03*
X32723000Y-179349000D03*
X35263000Y-179139000D03*
X37823000Y-179349000D03*
X40343000Y-179139000D03*
X42923000Y-179349000D03*
X45423000Y-179139000D03*
D24*
X47973000Y-179299000D03*
D12*
X44153000Y-137102000D03*
X96350000Y-193236000D03*
X96731000Y-193236000D03*
X97112000Y-193236000D03*
X97493000Y-193236000D03*
X97874000Y-193236000D03*
X22944000Y-193236000D03*
X23325000Y-193236000D03*
X23706000Y-193236000D03*
X24087000Y-193236000D03*
X24468000Y-193236000D03*
D25*
X102573000Y-149929000D03*
D26*
X100033000Y-149929000D03*
X97493000Y-149929000D03*
X94953000Y-149929000D03*
X92413000Y-149929000D03*
X89873000Y-149929000D03*
X87333000Y-149929000D03*
X84793000Y-149929000D03*
X82253000Y-149929000D03*
X79713000Y-149929000D03*
X77173000Y-149929000D03*
X74633000Y-149929000D03*
X74633000Y-165169000D03*
X77173000Y-165169000D03*
X79713000Y-165169000D03*
X82253000Y-165169000D03*
X84793000Y-165169000D03*
X87333000Y-165169000D03*
X89873000Y-165169000D03*
X92413000Y-165169000D03*
X94953000Y-165169000D03*
X97493000Y-165169000D03*
X100033000Y-165169000D03*
X102573000Y-165169000D03*
D27*
X39708000Y-190569000D03*
X41613000Y-190569000D03*
X43518000Y-190569000D03*
D28*
X92563000Y-190639000D03*
X92563000Y-189139000D03*
X92563000Y-187639000D03*
X92563000Y-186139000D03*
X92563000Y-184639000D03*
X92563000Y-183139000D03*
X92563000Y-181639000D03*
X92563000Y-180139000D03*
X79063000Y-180139000D03*
X79063000Y-181639000D03*
X79063000Y-183139000D03*
X79063000Y-184639000D03*
X79063000Y-186139000D03*
X79063000Y-187639000D03*
X79063000Y-189139000D03*
X79063000Y-190639000D03*
D29*
X97190000Y-191020000D03*
X97190000Y-189020000D03*
X97190000Y-187020000D03*
X97190000Y-185020000D03*
X97190000Y-183020000D03*
X97190000Y-181020000D03*
X97190000Y-179020000D03*
X97190000Y-177020000D03*
X97190000Y-175020000D03*
X97190000Y-173020000D03*
X75190000Y-173020000D03*
X75190000Y-175020000D03*
X75190000Y-177020000D03*
X75190000Y-179020000D03*
X75190000Y-181020000D03*
X75190000Y-183020000D03*
X75190000Y-185020000D03*
X75190000Y-187020000D03*
X75190000Y-189020000D03*
X75190000Y-191020000D03*
D30*
X22563000Y-189299000D03*
D31*
X22563000Y-183203000D03*
D30*
X27643000Y-187013000D03*
X98937000Y-201701000D03*
D31*
X98937000Y-207797000D03*
D30*
X93857000Y-203987000D03*
D29*
X24310000Y-199980000D03*
X24310000Y-201980000D03*
X24310000Y-203980000D03*
X24310000Y-205980000D03*
X24310000Y-207980000D03*
X24310000Y-209980000D03*
X24310000Y-211980000D03*
X24310000Y-213980000D03*
X24310000Y-215980000D03*
X24310000Y-217980000D03*
X46310000Y-217980000D03*
X46310000Y-215980000D03*
X46310000Y-213980000D03*
X46310000Y-211980000D03*
X46310000Y-209980000D03*
X46310000Y-207980000D03*
X46310000Y-205980000D03*
X46310000Y-203980000D03*
X46310000Y-201980000D03*
X46310000Y-199980000D03*
D28*
X28937000Y-200361000D03*
X28937000Y-201861000D03*
X28937000Y-203361000D03*
X28937000Y-204861000D03*
X28937000Y-206361000D03*
X28937000Y-207861000D03*
X28937000Y-209361000D03*
X28937000Y-210861000D03*
X42437000Y-210861000D03*
X42437000Y-209361000D03*
X42437000Y-207861000D03*
X42437000Y-206361000D03*
X42437000Y-204861000D03*
X42437000Y-203361000D03*
X42437000Y-201861000D03*
X42437000Y-200361000D03*
D27*
X81792000Y-200431000D03*
X79887000Y-200431000D03*
X77982000Y-200431000D03*
D25*
X18927000Y-241071000D03*
D26*
X21467000Y-241071000D03*
X24007000Y-241071000D03*
X26547000Y-241071000D03*
X29087000Y-241071000D03*
X31627000Y-241071000D03*
X34167000Y-241071000D03*
X36707000Y-241071000D03*
X39247000Y-241071000D03*
X41787000Y-241071000D03*
X44327000Y-241071000D03*
X46867000Y-241071000D03*
X46867000Y-225831000D03*
X44327000Y-225831000D03*
X41787000Y-225831000D03*
X39247000Y-225831000D03*
X36707000Y-225831000D03*
X34167000Y-225831000D03*
X31627000Y-225831000D03*
X29087000Y-225831000D03*
X26547000Y-225831000D03*
X24007000Y-225831000D03*
X21467000Y-225831000D03*
X18927000Y-225831000D03*
D12*
X97032000Y-197764000D03*
X97413000Y-197764000D03*
X97794000Y-197764000D03*
X98175000Y-197764000D03*
X98556000Y-197764000D03*
X23626000Y-197764000D03*
X24007000Y-197764000D03*
X24388000Y-197764000D03*
X24769000Y-197764000D03*
X25150000Y-197764000D03*
X77347000Y-253898000D03*
D23*
X91317000Y-211861000D03*
X88777000Y-211651000D03*
X86237000Y-211861000D03*
X83677000Y-211651000D03*
X81157000Y-211861000D03*
X78577000Y-211651000D03*
X76077000Y-211861000D03*
D24*
X73527000Y-211701000D03*
D13*
X94365000Y-249580000D03*
D22*
X98810000Y-219025000D03*
X98810000Y-225525000D03*
D20*
X65917000Y-200431000D03*
D21*
X65917000Y-202971000D03*
X63377000Y-200431000D03*
X63377000Y-202971000D03*
X60837000Y-200431000D03*
X60837000Y-202971000D03*
X58297000Y-200431000D03*
X58297000Y-202971000D03*
X55757000Y-200431000D03*
X55757000Y-202971000D03*
D18*
X83570000Y-223799000D03*
D19*
X83570000Y-230403000D03*
X85856000Y-230403000D03*
X81284000Y-230403000D03*
D16*
X47883000Y-251231000D03*
D17*
X47883000Y-248691000D03*
X47883000Y-246151000D03*
D16*
X37723000Y-251231000D03*
D17*
X37723000Y-248691000D03*
X37723000Y-246151000D03*
D16*
X27563000Y-251231000D03*
D17*
X27563000Y-248691000D03*
X27563000Y-246151000D03*
D16*
X58297000Y-251231000D03*
D17*
X58297000Y-248691000D03*
X58297000Y-246151000D03*
D15*
X30473000Y-251739000D03*
X34813000Y-251739000D03*
X50793000Y-251739000D03*
X55133000Y-251739000D03*
X40633000Y-251739000D03*
X44973000Y-251739000D03*
X61461000Y-251739000D03*
X65801000Y-251739000D03*
D11*
X100080000Y-249580000D03*
X21340000Y-250215000D03*
X95635000Y-213385000D03*
X29595000Y-215290000D03*
D14*
X89285000Y-223910000D03*
X89285000Y-221910000D03*
X77855000Y-221910000D03*
X77855000Y-223910000D03*
X69600000Y-248580000D03*
X69600000Y-250580000D03*
D13*
X89285000Y-200685000D03*
X34675000Y-215290000D03*
D12*
X76966000Y-253898000D03*
X76585000Y-253898000D03*
X76204000Y-253898000D03*
X75823000Y-253898000D03*
X75323000Y-133398000D03*
X75704000Y-133398000D03*
X76085000Y-133398000D03*
X76466000Y-133398000D03*
D13*
X34175000Y-94790000D03*
X88785000Y-80185000D03*
D14*
X69100000Y-128080000D03*
X69100000Y-130080000D03*
X77355000Y-101410000D03*
X77355000Y-103410000D03*
X88785000Y-103410000D03*
X88785000Y-101410000D03*
D11*
X29095000Y-94790000D03*
X95135000Y-92885000D03*
X20840000Y-129715000D03*
X99580000Y-129080000D03*
D15*
X60961000Y-131239000D03*
X65301000Y-131239000D03*
X40133000Y-131239000D03*
X44473000Y-131239000D03*
X50293000Y-131239000D03*
X54633000Y-131239000D03*
X29973000Y-131239000D03*
X34313000Y-131239000D03*
D16*
X57797000Y-130731000D03*
D17*
X57797000Y-128191000D03*
X57797000Y-125651000D03*
D16*
X27063000Y-130731000D03*
D17*
X27063000Y-128191000D03*
X27063000Y-125651000D03*
D16*
X37223000Y-130731000D03*
D17*
X37223000Y-128191000D03*
X37223000Y-125651000D03*
D16*
X47383000Y-130731000D03*
D17*
X47383000Y-128191000D03*
X47383000Y-125651000D03*
D18*
X83070000Y-103299000D03*
D19*
X83070000Y-109903000D03*
X85356000Y-109903000D03*
X80784000Y-109903000D03*
D20*
X65417000Y-79931000D03*
D21*
X65417000Y-82471000D03*
X62877000Y-79931000D03*
X62877000Y-82471000D03*
X60337000Y-79931000D03*
X60337000Y-82471000D03*
X57797000Y-79931000D03*
X57797000Y-82471000D03*
X55257000Y-79931000D03*
X55257000Y-82471000D03*
D22*
X98310000Y-98525000D03*
X98310000Y-105025000D03*
D13*
X93865000Y-129080000D03*
D23*
X90817000Y-91361000D03*
X88277000Y-91151000D03*
X85737000Y-91361000D03*
X83177000Y-91151000D03*
X80657000Y-91361000D03*
X78077000Y-91151000D03*
X75577000Y-91361000D03*
D24*
X73027000Y-91201000D03*
D12*
X76847000Y-133398000D03*
X24650000Y-77264000D03*
X24269000Y-77264000D03*
X23888000Y-77264000D03*
X23507000Y-77264000D03*
X23126000Y-77264000D03*
X98056000Y-77264000D03*
X97675000Y-77264000D03*
X97294000Y-77264000D03*
X96913000Y-77264000D03*
X96532000Y-77264000D03*
D25*
X18427000Y-120571000D03*
D26*
X20967000Y-120571000D03*
X23507000Y-120571000D03*
X26047000Y-120571000D03*
X28587000Y-120571000D03*
X31127000Y-120571000D03*
X33667000Y-120571000D03*
X36207000Y-120571000D03*
X38747000Y-120571000D03*
X41287000Y-120571000D03*
X43827000Y-120571000D03*
X46367000Y-120571000D03*
X46367000Y-105331000D03*
X43827000Y-105331000D03*
X41287000Y-105331000D03*
X38747000Y-105331000D03*
X36207000Y-105331000D03*
X33667000Y-105331000D03*
X31127000Y-105331000D03*
X28587000Y-105331000D03*
X26047000Y-105331000D03*
X23507000Y-105331000D03*
X20967000Y-105331000D03*
X18427000Y-105331000D03*
D27*
X81292000Y-79931000D03*
X79387000Y-79931000D03*
X77482000Y-79931000D03*
D28*
X28437000Y-79861000D03*
X28437000Y-81361000D03*
X28437000Y-82861000D03*
X28437000Y-84361000D03*
X28437000Y-85861000D03*
X28437000Y-87361000D03*
X28437000Y-88861000D03*
X28437000Y-90361000D03*
X41937000Y-90361000D03*
X41937000Y-88861000D03*
X41937000Y-87361000D03*
X41937000Y-85861000D03*
X41937000Y-84361000D03*
X41937000Y-82861000D03*
X41937000Y-81361000D03*
X41937000Y-79861000D03*
D29*
X23810000Y-79480000D03*
X23810000Y-81480000D03*
X23810000Y-83480000D03*
X23810000Y-85480000D03*
X23810000Y-87480000D03*
X23810000Y-89480000D03*
X23810000Y-91480000D03*
X23810000Y-93480000D03*
X23810000Y-95480000D03*
X23810000Y-97480000D03*
X45810000Y-97480000D03*
X45810000Y-95480000D03*
X45810000Y-93480000D03*
X45810000Y-91480000D03*
X45810000Y-89480000D03*
X45810000Y-87480000D03*
X45810000Y-85480000D03*
X45810000Y-83480000D03*
X45810000Y-81480000D03*
X45810000Y-79480000D03*
D30*
X98437000Y-81201000D03*
D31*
X98437000Y-87297000D03*
D30*
X93357000Y-83487000D03*
X22063000Y-68799000D03*
D31*
X22063000Y-62703000D03*
D30*
X27143000Y-66513000D03*
D29*
X96690000Y-70520000D03*
X96690000Y-68520000D03*
X96690000Y-66520000D03*
X96690000Y-64520000D03*
X96690000Y-62520000D03*
X96690000Y-60520000D03*
X96690000Y-58520000D03*
X96690000Y-56520000D03*
X96690000Y-54520000D03*
X96690000Y-52520000D03*
X74690000Y-52520000D03*
X74690000Y-54520000D03*
X74690000Y-56520000D03*
X74690000Y-58520000D03*
X74690000Y-60520000D03*
X74690000Y-62520000D03*
X74690000Y-64520000D03*
X74690000Y-66520000D03*
X74690000Y-68520000D03*
X74690000Y-70520000D03*
D28*
X92063000Y-70139000D03*
X92063000Y-68639000D03*
X92063000Y-67139000D03*
X92063000Y-65639000D03*
X92063000Y-64139000D03*
X92063000Y-62639000D03*
X92063000Y-61139000D03*
X92063000Y-59639000D03*
X78563000Y-59639000D03*
X78563000Y-61139000D03*
X78563000Y-62639000D03*
X78563000Y-64139000D03*
X78563000Y-65639000D03*
X78563000Y-67139000D03*
X78563000Y-68639000D03*
X78563000Y-70139000D03*
D27*
X39208000Y-70069000D03*
X41113000Y-70069000D03*
X43018000Y-70069000D03*
D11*
X15000000Y-15000000D03*
D25*
X102073000Y-29429000D03*
D26*
X99533000Y-29429000D03*
X96993000Y-29429000D03*
X94453000Y-29429000D03*
X91913000Y-29429000D03*
X89373000Y-29429000D03*
X86833000Y-29429000D03*
X84293000Y-29429000D03*
X81753000Y-29429000D03*
X79213000Y-29429000D03*
X76673000Y-29429000D03*
X74133000Y-29429000D03*
X74133000Y-44669000D03*
X76673000Y-44669000D03*
X79213000Y-44669000D03*
X81753000Y-44669000D03*
X84293000Y-44669000D03*
X86833000Y-44669000D03*
X89373000Y-44669000D03*
X91913000Y-44669000D03*
X94453000Y-44669000D03*
X96993000Y-44669000D03*
X99533000Y-44669000D03*
X102073000Y-44669000D03*
D12*
X23968000Y-72736000D03*
X23587000Y-72736000D03*
X23206000Y-72736000D03*
X22825000Y-72736000D03*
X22444000Y-72736000D03*
X97374000Y-72736000D03*
X96993000Y-72736000D03*
X96612000Y-72736000D03*
X96231000Y-72736000D03*
X95850000Y-72736000D03*
X43653000Y-16602000D03*
D23*
X29683000Y-58639000D03*
X32223000Y-58849000D03*
X34763000Y-58639000D03*
X37323000Y-58849000D03*
X39843000Y-58639000D03*
X42423000Y-58849000D03*
X44923000Y-58639000D03*
D24*
X47473000Y-58799000D03*
D13*
X26635000Y-20920000D03*
D22*
X22190000Y-51475000D03*
X22190000Y-44975000D03*
D20*
X55083000Y-70069000D03*
D21*
X55083000Y-67529000D03*
X57623000Y-70069000D03*
X57623000Y-67529000D03*
X60163000Y-70069000D03*
X60163000Y-67529000D03*
X62703000Y-70069000D03*
X62703000Y-67529000D03*
X65243000Y-70069000D03*
X65243000Y-67529000D03*
D18*
X37430000Y-46701000D03*
D19*
X37430000Y-40097000D03*
X35144000Y-40097000D03*
X39716000Y-40097000D03*
D16*
X73117000Y-19269000D03*
D17*
X73117000Y-21809000D03*
X73117000Y-24349000D03*
D16*
X83277000Y-19269000D03*
D17*
X83277000Y-21809000D03*
X83277000Y-24349000D03*
D16*
X93437000Y-19269000D03*
D17*
X93437000Y-21809000D03*
X93437000Y-24349000D03*
D16*
X62703000Y-19269000D03*
D17*
X62703000Y-21809000D03*
X62703000Y-24349000D03*
D15*
X90527000Y-18761000D03*
X86187000Y-18761000D03*
X70207000Y-18761000D03*
X65867000Y-18761000D03*
X80367000Y-18761000D03*
X76027000Y-18761000D03*
X59539000Y-18761000D03*
X55199000Y-18761000D03*
D11*
X20920000Y-20920000D03*
X99660000Y-20285000D03*
X25365000Y-57115000D03*
X91405000Y-55210000D03*
D14*
X31715000Y-46590000D03*
X31715000Y-48590000D03*
X43145000Y-48590000D03*
X43145000Y-46590000D03*
X51400000Y-21920000D03*
X51400000Y-19920000D03*
D13*
X31715000Y-69815000D03*
X86325000Y-55210000D03*
D12*
X44034000Y-16602000D03*
X44415000Y-16602000D03*
X44796000Y-16602000D03*
X45177000Y-16602000D03*
M02*
