G04 #@! TF.FileFunction,Paste,Top*
%FSLAX46Y46*%
G04 Gerber Fmt 4.6, Leading zero omitted, Abs format (unit mm)*
G04 Created by KiCad (PCBNEW (2015-01-16 BZR 5376)-product) date 10/26/2015 1:30:35 PM*
%MOMM*%
G01*
G04 APERTURE LIST*
%ADD10C,0.100000*%
%ADD11C,1.000000*%
%ADD12R,1.250000X1.000000*%
%ADD13R,1.780000X3.500000*%
%ADD14R,3.657600X2.032000*%
%ADD15R,1.016000X2.032000*%
%ADD16R,1.100000X3.600000*%
G04 APERTURE END LIST*
D10*
D11*
X284325000Y-176210000D03*
X229715000Y-190815000D03*
D12*
X249400000Y-142920000D03*
X249400000Y-140920000D03*
X241145000Y-169590000D03*
X241145000Y-167590000D03*
X229715000Y-167590000D03*
X229715000Y-169590000D03*
D13*
X257539000Y-139761000D03*
X253199000Y-139761000D03*
X278367000Y-139761000D03*
X274027000Y-139761000D03*
X268207000Y-139761000D03*
X263867000Y-139761000D03*
X288527000Y-139761000D03*
X284187000Y-139761000D03*
D14*
X235430000Y-167701000D03*
D15*
X235430000Y-161097000D03*
X233144000Y-161097000D03*
X237716000Y-161097000D03*
D16*
X220190000Y-172475000D03*
X220190000Y-165975000D03*
D11*
X224635000Y-141920000D03*
X291865000Y-250080000D03*
D16*
X296310000Y-219525000D03*
X296310000Y-226025000D03*
D14*
X281070000Y-224299000D03*
D15*
X281070000Y-230903000D03*
X283356000Y-230903000D03*
X278784000Y-230903000D03*
D13*
X227973000Y-252239000D03*
X232313000Y-252239000D03*
X248293000Y-252239000D03*
X252633000Y-252239000D03*
X238133000Y-252239000D03*
X242473000Y-252239000D03*
X258961000Y-252239000D03*
X263301000Y-252239000D03*
D12*
X286785000Y-224410000D03*
X286785000Y-222410000D03*
X275355000Y-222410000D03*
X275355000Y-224410000D03*
X267100000Y-249080000D03*
X267100000Y-251080000D03*
D11*
X286785000Y-201185000D03*
X232175000Y-215790000D03*
X231675000Y-95290000D03*
X286285000Y-80685000D03*
D12*
X266600000Y-128580000D03*
X266600000Y-130580000D03*
X274855000Y-101910000D03*
X274855000Y-103910000D03*
X286285000Y-103910000D03*
X286285000Y-101910000D03*
D13*
X258461000Y-131739000D03*
X262801000Y-131739000D03*
X237633000Y-131739000D03*
X241973000Y-131739000D03*
X247793000Y-131739000D03*
X252133000Y-131739000D03*
X227473000Y-131739000D03*
X231813000Y-131739000D03*
D14*
X280570000Y-103799000D03*
D15*
X280570000Y-110403000D03*
X282856000Y-110403000D03*
X278284000Y-110403000D03*
D16*
X295810000Y-99025000D03*
X295810000Y-105525000D03*
D11*
X291365000Y-129580000D03*
X224135000Y-21420000D03*
D16*
X219690000Y-51975000D03*
X219690000Y-45475000D03*
D14*
X234930000Y-47201000D03*
D15*
X234930000Y-40597000D03*
X232644000Y-40597000D03*
X237216000Y-40597000D03*
D13*
X288027000Y-19261000D03*
X283687000Y-19261000D03*
X267707000Y-19261000D03*
X263367000Y-19261000D03*
X277867000Y-19261000D03*
X273527000Y-19261000D03*
X257039000Y-19261000D03*
X252699000Y-19261000D03*
D12*
X229215000Y-47090000D03*
X229215000Y-49090000D03*
X240645000Y-49090000D03*
X240645000Y-47090000D03*
X248900000Y-22420000D03*
X248900000Y-20420000D03*
D11*
X229215000Y-70315000D03*
X283825000Y-55710000D03*
X184825000Y-55210000D03*
X130215000Y-69815000D03*
D12*
X149900000Y-21920000D03*
X149900000Y-19920000D03*
X141645000Y-48590000D03*
X141645000Y-46590000D03*
X130215000Y-46590000D03*
X130215000Y-48590000D03*
D13*
X158039000Y-18761000D03*
X153699000Y-18761000D03*
X178867000Y-18761000D03*
X174527000Y-18761000D03*
X168707000Y-18761000D03*
X164367000Y-18761000D03*
X189027000Y-18761000D03*
X184687000Y-18761000D03*
D14*
X135930000Y-46701000D03*
D15*
X135930000Y-40097000D03*
X133644000Y-40097000D03*
X138216000Y-40097000D03*
D16*
X120690000Y-51475000D03*
X120690000Y-44975000D03*
D11*
X125135000Y-20920000D03*
X192365000Y-129080000D03*
D16*
X196810000Y-98525000D03*
X196810000Y-105025000D03*
D14*
X181570000Y-103299000D03*
D15*
X181570000Y-109903000D03*
X183856000Y-109903000D03*
X179284000Y-109903000D03*
D13*
X128473000Y-131239000D03*
X132813000Y-131239000D03*
X148793000Y-131239000D03*
X153133000Y-131239000D03*
X138633000Y-131239000D03*
X142973000Y-131239000D03*
X159461000Y-131239000D03*
X163801000Y-131239000D03*
D12*
X187285000Y-103410000D03*
X187285000Y-101410000D03*
X175855000Y-101410000D03*
X175855000Y-103410000D03*
X167600000Y-128080000D03*
X167600000Y-130080000D03*
D11*
X187285000Y-80185000D03*
X132675000Y-94790000D03*
X133175000Y-215290000D03*
X187785000Y-200685000D03*
D12*
X168100000Y-248580000D03*
X168100000Y-250580000D03*
X176355000Y-221910000D03*
X176355000Y-223910000D03*
X187785000Y-223910000D03*
X187785000Y-221910000D03*
D13*
X159961000Y-251739000D03*
X164301000Y-251739000D03*
X139133000Y-251739000D03*
X143473000Y-251739000D03*
X149293000Y-251739000D03*
X153633000Y-251739000D03*
X128973000Y-251739000D03*
X133313000Y-251739000D03*
D14*
X182070000Y-223799000D03*
D15*
X182070000Y-230403000D03*
X184356000Y-230403000D03*
X179784000Y-230403000D03*
D16*
X197310000Y-219025000D03*
X197310000Y-225525000D03*
D11*
X192865000Y-249580000D03*
X125635000Y-141420000D03*
D16*
X121190000Y-171975000D03*
X121190000Y-165475000D03*
D14*
X136430000Y-167201000D03*
D15*
X136430000Y-160597000D03*
X134144000Y-160597000D03*
X138716000Y-160597000D03*
D13*
X189527000Y-139261000D03*
X185187000Y-139261000D03*
X169207000Y-139261000D03*
X164867000Y-139261000D03*
X179367000Y-139261000D03*
X175027000Y-139261000D03*
X158539000Y-139261000D03*
X154199000Y-139261000D03*
D12*
X130715000Y-167090000D03*
X130715000Y-169090000D03*
X142145000Y-169090000D03*
X142145000Y-167090000D03*
X150400000Y-142420000D03*
X150400000Y-140420000D03*
D11*
X130715000Y-190315000D03*
X185325000Y-175710000D03*
X86825000Y-175710000D03*
X32215000Y-190315000D03*
D12*
X51900000Y-142420000D03*
X51900000Y-140420000D03*
X43645000Y-169090000D03*
X43645000Y-167090000D03*
X32215000Y-167090000D03*
X32215000Y-169090000D03*
D13*
X60039000Y-139261000D03*
X55699000Y-139261000D03*
X80867000Y-139261000D03*
X76527000Y-139261000D03*
X70707000Y-139261000D03*
X66367000Y-139261000D03*
X91027000Y-139261000D03*
X86687000Y-139261000D03*
D14*
X37930000Y-167201000D03*
D15*
X37930000Y-160597000D03*
X35644000Y-160597000D03*
X40216000Y-160597000D03*
D16*
X22690000Y-171975000D03*
X22690000Y-165475000D03*
D11*
X27135000Y-141420000D03*
X94365000Y-249580000D03*
D16*
X98810000Y-219025000D03*
X98810000Y-225525000D03*
D14*
X83570000Y-223799000D03*
D15*
X83570000Y-230403000D03*
X85856000Y-230403000D03*
X81284000Y-230403000D03*
D13*
X30473000Y-251739000D03*
X34813000Y-251739000D03*
X50793000Y-251739000D03*
X55133000Y-251739000D03*
X40633000Y-251739000D03*
X44973000Y-251739000D03*
X61461000Y-251739000D03*
X65801000Y-251739000D03*
D12*
X89285000Y-223910000D03*
X89285000Y-221910000D03*
X77855000Y-221910000D03*
X77855000Y-223910000D03*
X69600000Y-248580000D03*
X69600000Y-250580000D03*
D11*
X89285000Y-200685000D03*
X34675000Y-215290000D03*
X34175000Y-94790000D03*
X88785000Y-80185000D03*
D12*
X69100000Y-128080000D03*
X69100000Y-130080000D03*
X77355000Y-101410000D03*
X77355000Y-103410000D03*
X88785000Y-103410000D03*
X88785000Y-101410000D03*
D13*
X60961000Y-131239000D03*
X65301000Y-131239000D03*
X40133000Y-131239000D03*
X44473000Y-131239000D03*
X50293000Y-131239000D03*
X54633000Y-131239000D03*
X29973000Y-131239000D03*
X34313000Y-131239000D03*
D14*
X83070000Y-103299000D03*
D15*
X83070000Y-109903000D03*
X85356000Y-109903000D03*
X80784000Y-109903000D03*
D16*
X98310000Y-98525000D03*
X98310000Y-105025000D03*
D11*
X93865000Y-129080000D03*
X26635000Y-20920000D03*
D16*
X22190000Y-51475000D03*
X22190000Y-44975000D03*
D14*
X37430000Y-46701000D03*
D15*
X37430000Y-40097000D03*
X35144000Y-40097000D03*
X39716000Y-40097000D03*
D13*
X90527000Y-18761000D03*
X86187000Y-18761000D03*
X70207000Y-18761000D03*
X65867000Y-18761000D03*
X80367000Y-18761000D03*
X76027000Y-18761000D03*
X59539000Y-18761000D03*
X55199000Y-18761000D03*
D12*
X31715000Y-46590000D03*
X31715000Y-48590000D03*
X43145000Y-48590000D03*
X43145000Y-46590000D03*
X51400000Y-21920000D03*
X51400000Y-19920000D03*
D11*
X31715000Y-69815000D03*
X86325000Y-55210000D03*
M02*
