G04 #@! TF.FileFunction,Legend,Bot*
%FSLAX46Y46*%
G04 Gerber Fmt 4.6, Leading zero omitted, Abs format (unit mm)*
G04 Created by KiCad (PCBNEW (2015-01-16 BZR 5376)-product) date 28/04/2015 16:45:27*
%MOMM*%
G01*
G04 APERTURE LIST*
%ADD10C,0.100000*%
%ADD11C,4.000000*%
%ADD12R,1.300000X1.300000*%
%ADD13C,1.300000*%
%ADD14O,1.800000X2.600000*%
%ADD15O,1.524000X2.000000*%
%ADD16O,2.000000X1.540000*%
%ADD17R,1.727200X1.727200*%
%ADD18O,1.727200X1.727200*%
G04 APERTURE END LIST*
D10*
G36*
X140631333Y-106510666D02*
X140710689Y-107008318D01*
X140930179Y-107482024D01*
X141261933Y-107886644D01*
X141652150Y-108164123D01*
X141741827Y-108205919D01*
X141842415Y-108240103D01*
X141970902Y-108267438D01*
X142144272Y-108288685D01*
X142379510Y-108304606D01*
X142693603Y-108315961D01*
X143103535Y-108323514D01*
X143626292Y-108328025D01*
X144278860Y-108330256D01*
X145078225Y-108330968D01*
X145374135Y-108331000D01*
X146413510Y-108328420D01*
X147285675Y-108320647D01*
X147992672Y-108307627D01*
X148536548Y-108289307D01*
X148919345Y-108265634D01*
X149143109Y-108236557D01*
X149157387Y-108233206D01*
X149595417Y-108036103D01*
X149897449Y-107788706D01*
X150003428Y-107656924D01*
X150179819Y-107400468D01*
X150428112Y-107016896D01*
X150749793Y-106503769D01*
X151146352Y-105858644D01*
X151619276Y-105079083D01*
X152170054Y-104162644D01*
X152800173Y-103106885D01*
X153511122Y-101909367D01*
X154304389Y-100567649D01*
X154432126Y-100351166D01*
X155024722Y-99347501D01*
X155593325Y-98386180D01*
X156132018Y-97477115D01*
X156634881Y-96630218D01*
X157095996Y-95855399D01*
X157509445Y-95162570D01*
X157869307Y-94561643D01*
X158169665Y-94062527D01*
X158404600Y-93675136D01*
X158568192Y-93409380D01*
X158654524Y-93275170D01*
X158666614Y-93260333D01*
X158701768Y-93338240D01*
X158791186Y-93565359D01*
X158931194Y-93931791D01*
X159118121Y-94427635D01*
X159348294Y-95042990D01*
X159618039Y-95767955D01*
X159923684Y-96592630D01*
X160261557Y-97507114D01*
X160627985Y-98501507D01*
X161019294Y-99565907D01*
X161431813Y-100690414D01*
X161861869Y-101865128D01*
X162082184Y-102467833D01*
X162651830Y-104024843D01*
X163166493Y-105427020D01*
X163627956Y-106679063D01*
X164038002Y-107785675D01*
X164398411Y-108751556D01*
X164710967Y-109581409D01*
X164977450Y-110279934D01*
X165199644Y-110851833D01*
X165379329Y-111301807D01*
X165518288Y-111634558D01*
X165618303Y-111854787D01*
X165681155Y-111967195D01*
X165684322Y-111971287D01*
X166061113Y-112313767D01*
X166534345Y-112554523D01*
X167053828Y-112676522D01*
X167569370Y-112662732D01*
X167663918Y-112643070D01*
X168134756Y-112481333D01*
X168513745Y-112228014D01*
X168764491Y-111970342D01*
X169066918Y-111492712D01*
X169219751Y-110956010D01*
X169222739Y-110466850D01*
X169189845Y-110352976D01*
X169102757Y-110091310D01*
X168965536Y-109693061D01*
X168782245Y-109169432D01*
X168556945Y-108531631D01*
X168293698Y-107790863D01*
X167996566Y-106958335D01*
X167669611Y-106045252D01*
X167316896Y-105062821D01*
X166942481Y-104022247D01*
X166550430Y-102934736D01*
X166144804Y-101811495D01*
X165729665Y-100663730D01*
X165309075Y-99502646D01*
X164887096Y-98339449D01*
X164467791Y-97185346D01*
X164055220Y-96051542D01*
X163653446Y-94949244D01*
X163266532Y-93889658D01*
X162898538Y-92883989D01*
X162553528Y-91943443D01*
X162235562Y-91079227D01*
X161948704Y-90302547D01*
X161697014Y-89624608D01*
X161484556Y-89056617D01*
X161315390Y-88609780D01*
X161193580Y-88295301D01*
X161127353Y-88133698D01*
X160827979Y-87629135D01*
X160437781Y-87231093D01*
X159982586Y-86947591D01*
X159488219Y-86786645D01*
X158980507Y-86756272D01*
X158485274Y-86864490D01*
X158028347Y-87119315D01*
X157981086Y-87157008D01*
X157905456Y-87241739D01*
X157781511Y-87412720D01*
X157606118Y-87675103D01*
X157376147Y-88034039D01*
X157088466Y-88494676D01*
X156739943Y-89062166D01*
X156327449Y-89741659D01*
X155847850Y-90538305D01*
X155298017Y-91457254D01*
X154674817Y-92503658D01*
X153975120Y-93682665D01*
X153195794Y-94999427D01*
X152604752Y-95999881D01*
X147531666Y-104592597D01*
X144780000Y-104620298D01*
X144022785Y-104628333D01*
X143415459Y-104636453D01*
X142938579Y-104646010D01*
X142572704Y-104658355D01*
X142298394Y-104674840D01*
X142096208Y-104696816D01*
X141946704Y-104725636D01*
X141830442Y-104762649D01*
X141727980Y-104809209D01*
X141676689Y-104836042D01*
X141244689Y-105152807D01*
X140910226Y-105571457D01*
X140697837Y-106052687D01*
X140631333Y-106510666D01*
X140631333Y-106510666D01*
X140631333Y-106510666D01*
G37*
X140631333Y-106510666D02*
X140710689Y-107008318D01*
X140930179Y-107482024D01*
X141261933Y-107886644D01*
X141652150Y-108164123D01*
X141741827Y-108205919D01*
X141842415Y-108240103D01*
X141970902Y-108267438D01*
X142144272Y-108288685D01*
X142379510Y-108304606D01*
X142693603Y-108315961D01*
X143103535Y-108323514D01*
X143626292Y-108328025D01*
X144278860Y-108330256D01*
X145078225Y-108330968D01*
X145374135Y-108331000D01*
X146413510Y-108328420D01*
X147285675Y-108320647D01*
X147992672Y-108307627D01*
X148536548Y-108289307D01*
X148919345Y-108265634D01*
X149143109Y-108236557D01*
X149157387Y-108233206D01*
X149595417Y-108036103D01*
X149897449Y-107788706D01*
X150003428Y-107656924D01*
X150179819Y-107400468D01*
X150428112Y-107016896D01*
X150749793Y-106503769D01*
X151146352Y-105858644D01*
X151619276Y-105079083D01*
X152170054Y-104162644D01*
X152800173Y-103106885D01*
X153511122Y-101909367D01*
X154304389Y-100567649D01*
X154432126Y-100351166D01*
X155024722Y-99347501D01*
X155593325Y-98386180D01*
X156132018Y-97477115D01*
X156634881Y-96630218D01*
X157095996Y-95855399D01*
X157509445Y-95162570D01*
X157869307Y-94561643D01*
X158169665Y-94062527D01*
X158404600Y-93675136D01*
X158568192Y-93409380D01*
X158654524Y-93275170D01*
X158666614Y-93260333D01*
X158701768Y-93338240D01*
X158791186Y-93565359D01*
X158931194Y-93931791D01*
X159118121Y-94427635D01*
X159348294Y-95042990D01*
X159618039Y-95767955D01*
X159923684Y-96592630D01*
X160261557Y-97507114D01*
X160627985Y-98501507D01*
X161019294Y-99565907D01*
X161431813Y-100690414D01*
X161861869Y-101865128D01*
X162082184Y-102467833D01*
X162651830Y-104024843D01*
X163166493Y-105427020D01*
X163627956Y-106679063D01*
X164038002Y-107785675D01*
X164398411Y-108751556D01*
X164710967Y-109581409D01*
X164977450Y-110279934D01*
X165199644Y-110851833D01*
X165379329Y-111301807D01*
X165518288Y-111634558D01*
X165618303Y-111854787D01*
X165681155Y-111967195D01*
X165684322Y-111971287D01*
X166061113Y-112313767D01*
X166534345Y-112554523D01*
X167053828Y-112676522D01*
X167569370Y-112662732D01*
X167663918Y-112643070D01*
X168134756Y-112481333D01*
X168513745Y-112228014D01*
X168764491Y-111970342D01*
X169066918Y-111492712D01*
X169219751Y-110956010D01*
X169222739Y-110466850D01*
X169189845Y-110352976D01*
X169102757Y-110091310D01*
X168965536Y-109693061D01*
X168782245Y-109169432D01*
X168556945Y-108531631D01*
X168293698Y-107790863D01*
X167996566Y-106958335D01*
X167669611Y-106045252D01*
X167316896Y-105062821D01*
X166942481Y-104022247D01*
X166550430Y-102934736D01*
X166144804Y-101811495D01*
X165729665Y-100663730D01*
X165309075Y-99502646D01*
X164887096Y-98339449D01*
X164467791Y-97185346D01*
X164055220Y-96051542D01*
X163653446Y-94949244D01*
X163266532Y-93889658D01*
X162898538Y-92883989D01*
X162553528Y-91943443D01*
X162235562Y-91079227D01*
X161948704Y-90302547D01*
X161697014Y-89624608D01*
X161484556Y-89056617D01*
X161315390Y-88609780D01*
X161193580Y-88295301D01*
X161127353Y-88133698D01*
X160827979Y-87629135D01*
X160437781Y-87231093D01*
X159982586Y-86947591D01*
X159488219Y-86786645D01*
X158980507Y-86756272D01*
X158485274Y-86864490D01*
X158028347Y-87119315D01*
X157981086Y-87157008D01*
X157905456Y-87241739D01*
X157781511Y-87412720D01*
X157606118Y-87675103D01*
X157376147Y-88034039D01*
X157088466Y-88494676D01*
X156739943Y-89062166D01*
X156327449Y-89741659D01*
X155847850Y-90538305D01*
X155298017Y-91457254D01*
X154674817Y-92503658D01*
X153975120Y-93682665D01*
X153195794Y-94999427D01*
X152604752Y-95999881D01*
X147531666Y-104592597D01*
X144780000Y-104620298D01*
X144022785Y-104628333D01*
X143415459Y-104636453D01*
X142938579Y-104646010D01*
X142572704Y-104658355D01*
X142298394Y-104674840D01*
X142096208Y-104696816D01*
X141946704Y-104725636D01*
X141830442Y-104762649D01*
X141727980Y-104809209D01*
X141676689Y-104836042D01*
X141244689Y-105152807D01*
X140910226Y-105571457D01*
X140697837Y-106052687D01*
X140631333Y-106510666D01*
X140631333Y-106510666D01*
G36*
X144189509Y-101633690D02*
X144215858Y-101811816D01*
X144320107Y-101984931D01*
X144520490Y-102175800D01*
X144835242Y-102407188D01*
X145201471Y-102649596D01*
X145559191Y-102874839D01*
X145873361Y-103061664D01*
X146113156Y-103192512D01*
X146247748Y-103249826D01*
X146257406Y-103251000D01*
X146393609Y-103183774D01*
X146472295Y-103083607D01*
X146508385Y-102975487D01*
X146482965Y-102867013D01*
X146378181Y-102740670D01*
X146176181Y-102578941D01*
X145859109Y-102364311D01*
X145518068Y-102147428D01*
X145211290Y-101950132D01*
X144966869Y-101783658D01*
X144815078Y-101669193D01*
X144780140Y-101631041D01*
X144850575Y-101570266D01*
X144961916Y-101529844D01*
X145125123Y-101544909D01*
X145394632Y-101653021D01*
X145782086Y-101859167D01*
X145927770Y-101943643D01*
X146331703Y-102169968D01*
X146621179Y-102300623D01*
X146818150Y-102340272D01*
X146944566Y-102293579D01*
X147018581Y-102175388D01*
X147036509Y-102077665D01*
X146997719Y-101979228D01*
X146882237Y-101862354D01*
X146670089Y-101709321D01*
X146341301Y-101502407D01*
X146088946Y-101350520D01*
X145766017Y-101151698D01*
X145505393Y-100979600D01*
X145336785Y-100854614D01*
X145288000Y-100800955D01*
X145359577Y-100728866D01*
X145494177Y-100677609D01*
X145643199Y-100677567D01*
X145854054Y-100749020D01*
X146154712Y-100903389D01*
X146404344Y-101049269D01*
X146835057Y-101291748D01*
X147150353Y-101428570D01*
X147364108Y-101463424D01*
X147490198Y-101400004D01*
X147519951Y-101346000D01*
X147543953Y-101236730D01*
X147514286Y-101130790D01*
X147412433Y-101011802D01*
X147219879Y-100863389D01*
X146918107Y-100669173D01*
X146488600Y-100412776D01*
X146418322Y-100371629D01*
X145978695Y-100119504D01*
X145659794Y-99949741D01*
X145440123Y-99852792D01*
X145298189Y-99819108D01*
X145215397Y-99837249D01*
X145081923Y-99984140D01*
X145047478Y-100071597D01*
X144967374Y-100242018D01*
X144856978Y-100380022D01*
X144734430Y-100586638D01*
X144695333Y-100782076D01*
X144640321Y-100999900D01*
X144486002Y-101117863D01*
X144306799Y-101267328D01*
X144222824Y-101427787D01*
X144189509Y-101633690D01*
X144189509Y-101633690D01*
X144189509Y-101633690D01*
G37*
X144189509Y-101633690D02*
X144215858Y-101811816D01*
X144320107Y-101984931D01*
X144520490Y-102175800D01*
X144835242Y-102407188D01*
X145201471Y-102649596D01*
X145559191Y-102874839D01*
X145873361Y-103061664D01*
X146113156Y-103192512D01*
X146247748Y-103249826D01*
X146257406Y-103251000D01*
X146393609Y-103183774D01*
X146472295Y-103083607D01*
X146508385Y-102975487D01*
X146482965Y-102867013D01*
X146378181Y-102740670D01*
X146176181Y-102578941D01*
X145859109Y-102364311D01*
X145518068Y-102147428D01*
X145211290Y-101950132D01*
X144966869Y-101783658D01*
X144815078Y-101669193D01*
X144780140Y-101631041D01*
X144850575Y-101570266D01*
X144961916Y-101529844D01*
X145125123Y-101544909D01*
X145394632Y-101653021D01*
X145782086Y-101859167D01*
X145927770Y-101943643D01*
X146331703Y-102169968D01*
X146621179Y-102300623D01*
X146818150Y-102340272D01*
X146944566Y-102293579D01*
X147018581Y-102175388D01*
X147036509Y-102077665D01*
X146997719Y-101979228D01*
X146882237Y-101862354D01*
X146670089Y-101709321D01*
X146341301Y-101502407D01*
X146088946Y-101350520D01*
X145766017Y-101151698D01*
X145505393Y-100979600D01*
X145336785Y-100854614D01*
X145288000Y-100800955D01*
X145359577Y-100728866D01*
X145494177Y-100677609D01*
X145643199Y-100677567D01*
X145854054Y-100749020D01*
X146154712Y-100903389D01*
X146404344Y-101049269D01*
X146835057Y-101291748D01*
X147150353Y-101428570D01*
X147364108Y-101463424D01*
X147490198Y-101400004D01*
X147519951Y-101346000D01*
X147543953Y-101236730D01*
X147514286Y-101130790D01*
X147412433Y-101011802D01*
X147219879Y-100863389D01*
X146918107Y-100669173D01*
X146488600Y-100412776D01*
X146418322Y-100371629D01*
X145978695Y-100119504D01*
X145659794Y-99949741D01*
X145440123Y-99852792D01*
X145298189Y-99819108D01*
X145215397Y-99837249D01*
X145081923Y-99984140D01*
X145047478Y-100071597D01*
X144967374Y-100242018D01*
X144856978Y-100380022D01*
X144734430Y-100586638D01*
X144695333Y-100782076D01*
X144640321Y-100999900D01*
X144486002Y-101117863D01*
X144306799Y-101267328D01*
X144222824Y-101427787D01*
X144189509Y-101633690D01*
X144189509Y-101633690D01*
G36*
X146072175Y-98405259D02*
X146075860Y-98729993D01*
X146213521Y-99015070D01*
X146257818Y-99063848D01*
X146469763Y-99208714D01*
X146701991Y-99272815D01*
X146890253Y-99241572D01*
X146924889Y-99215222D01*
X146982470Y-99054184D01*
X146916027Y-98864888D01*
X146790833Y-98739517D01*
X146666217Y-98637487D01*
X146653007Y-98532846D01*
X146729544Y-98369357D01*
X146888375Y-98182222D01*
X147161797Y-98029281D01*
X147326609Y-97966757D01*
X147794464Y-97804848D01*
X148403294Y-98166547D01*
X148769143Y-98366050D01*
X149026932Y-98459294D01*
X149197919Y-98449343D01*
X149303359Y-98339261D01*
X149321059Y-98298842D01*
X149336694Y-98199221D01*
X149292503Y-98095511D01*
X149170107Y-97972250D01*
X148951124Y-97813981D01*
X148617175Y-97605244D01*
X148214141Y-97367843D01*
X147744413Y-97107856D01*
X147365116Y-96924267D01*
X147089534Y-96822282D01*
X146930951Y-96807103D01*
X146896666Y-96851741D01*
X146870462Y-96951719D01*
X146849464Y-97010158D01*
X146864949Y-97162493D01*
X146933504Y-97264409D01*
X147000653Y-97354996D01*
X146964281Y-97429511D01*
X146800524Y-97524953D01*
X146748991Y-97550492D01*
X146420340Y-97779769D01*
X146190868Y-98076604D01*
X146072175Y-98405259D01*
X146072175Y-98405259D01*
X146072175Y-98405259D01*
G37*
X146072175Y-98405259D02*
X146075860Y-98729993D01*
X146213521Y-99015070D01*
X146257818Y-99063848D01*
X146469763Y-99208714D01*
X146701991Y-99272815D01*
X146890253Y-99241572D01*
X146924889Y-99215222D01*
X146982470Y-99054184D01*
X146916027Y-98864888D01*
X146790833Y-98739517D01*
X146666217Y-98637487D01*
X146653007Y-98532846D01*
X146729544Y-98369357D01*
X146888375Y-98182222D01*
X147161797Y-98029281D01*
X147326609Y-97966757D01*
X147794464Y-97804848D01*
X148403294Y-98166547D01*
X148769143Y-98366050D01*
X149026932Y-98459294D01*
X149197919Y-98449343D01*
X149303359Y-98339261D01*
X149321059Y-98298842D01*
X149336694Y-98199221D01*
X149292503Y-98095511D01*
X149170107Y-97972250D01*
X148951124Y-97813981D01*
X148617175Y-97605244D01*
X148214141Y-97367843D01*
X147744413Y-97107856D01*
X147365116Y-96924267D01*
X147089534Y-96822282D01*
X146930951Y-96807103D01*
X146896666Y-96851741D01*
X146870462Y-96951719D01*
X146849464Y-97010158D01*
X146864949Y-97162493D01*
X146933504Y-97264409D01*
X147000653Y-97354996D01*
X146964281Y-97429511D01*
X146800524Y-97524953D01*
X146748991Y-97550492D01*
X146420340Y-97779769D01*
X146190868Y-98076604D01*
X146072175Y-98405259D01*
X146072175Y-98405259D01*
G36*
X147332561Y-94160703D02*
X147408602Y-94339591D01*
X147579047Y-94591405D01*
X147851624Y-94928139D01*
X148234059Y-95361784D01*
X148547666Y-95703951D01*
X148577010Y-95735216D01*
X148577010Y-94827587D01*
X148632333Y-94813506D01*
X148815348Y-94862165D01*
X149080694Y-94929443D01*
X149202831Y-94959637D01*
X149603996Y-95057931D01*
X149459743Y-95302132D01*
X149348886Y-95467764D01*
X149271224Y-95545503D01*
X149266707Y-95546333D01*
X149187175Y-95490095D01*
X149027589Y-95343283D01*
X148840461Y-95156002D01*
X148644914Y-94940074D01*
X148577010Y-94827587D01*
X148577010Y-95735216D01*
X148989430Y-96174648D01*
X149336373Y-96527285D01*
X149603068Y-96773061D01*
X149804087Y-96923173D01*
X149954003Y-96988817D01*
X150067386Y-96981191D01*
X150142222Y-96929222D01*
X150196644Y-96764891D01*
X150101337Y-96540537D01*
X149938696Y-96344506D01*
X149678725Y-96076284D01*
X149945846Y-95642157D01*
X150102899Y-95401126D01*
X150217649Y-95279503D01*
X150328683Y-95247933D01*
X150438650Y-95267232D01*
X150697034Y-95315318D01*
X150876000Y-95330550D01*
X151027616Y-95306485D01*
X151082732Y-95192216D01*
X151087666Y-95083747D01*
X151087666Y-94832828D01*
X149322285Y-94379469D01*
X148795292Y-94247696D01*
X148319383Y-94135439D01*
X147920392Y-94048246D01*
X147624154Y-93991664D01*
X147456504Y-93971241D01*
X147432781Y-93973740D01*
X147343197Y-94042750D01*
X147332561Y-94160703D01*
X147332561Y-94160703D01*
X147332561Y-94160703D01*
G37*
X147332561Y-94160703D02*
X147408602Y-94339591D01*
X147579047Y-94591405D01*
X147851624Y-94928139D01*
X148234059Y-95361784D01*
X148547666Y-95703951D01*
X148577010Y-95735216D01*
X148577010Y-94827587D01*
X148632333Y-94813506D01*
X148815348Y-94862165D01*
X149080694Y-94929443D01*
X149202831Y-94959637D01*
X149603996Y-95057931D01*
X149459743Y-95302132D01*
X149348886Y-95467764D01*
X149271224Y-95545503D01*
X149266707Y-95546333D01*
X149187175Y-95490095D01*
X149027589Y-95343283D01*
X148840461Y-95156002D01*
X148644914Y-94940074D01*
X148577010Y-94827587D01*
X148577010Y-95735216D01*
X148989430Y-96174648D01*
X149336373Y-96527285D01*
X149603068Y-96773061D01*
X149804087Y-96923173D01*
X149954003Y-96988817D01*
X150067386Y-96981191D01*
X150142222Y-96929222D01*
X150196644Y-96764891D01*
X150101337Y-96540537D01*
X149938696Y-96344506D01*
X149678725Y-96076284D01*
X149945846Y-95642157D01*
X150102899Y-95401126D01*
X150217649Y-95279503D01*
X150328683Y-95247933D01*
X150438650Y-95267232D01*
X150697034Y-95315318D01*
X150876000Y-95330550D01*
X151027616Y-95306485D01*
X151082732Y-95192216D01*
X151087666Y-95083747D01*
X151087666Y-94832828D01*
X149322285Y-94379469D01*
X148795292Y-94247696D01*
X148319383Y-94135439D01*
X147920392Y-94048246D01*
X147624154Y-93991664D01*
X147456504Y-93971241D01*
X147432781Y-93973740D01*
X147343197Y-94042750D01*
X147332561Y-94160703D01*
X147332561Y-94160703D01*
G36*
X149808132Y-92311492D02*
X149817919Y-92402457D01*
X149905328Y-92734562D01*
X150046408Y-92966084D01*
X150287519Y-93165618D01*
X150369958Y-93219235D01*
X150402811Y-93238224D01*
X150402811Y-92371505D01*
X150416395Y-92153006D01*
X150519952Y-91892993D01*
X150676503Y-91662009D01*
X150842304Y-91533067D01*
X151073556Y-91484989D01*
X151267949Y-91510853D01*
X151340835Y-91565654D01*
X151325508Y-91673793D01*
X151237662Y-91882751D01*
X151095466Y-92150344D01*
X151070876Y-92192418D01*
X150896872Y-92472765D01*
X150774823Y-92626232D01*
X150680275Y-92677049D01*
X150602044Y-92656986D01*
X150467057Y-92516928D01*
X150402811Y-92371505D01*
X150402811Y-93238224D01*
X150611709Y-93358970D01*
X150798687Y-93417093D01*
X150959086Y-93379480D01*
X151121096Y-93232005D01*
X151312911Y-92960541D01*
X151502458Y-92651795D01*
X151708686Y-92310466D01*
X151846563Y-92096825D01*
X151934278Y-91993009D01*
X151990025Y-91981161D01*
X152031995Y-92043419D01*
X152057395Y-92106973D01*
X152109454Y-92241918D01*
X152130694Y-92340696D01*
X152108953Y-92444594D01*
X152032065Y-92594901D01*
X151887866Y-92832904D01*
X151802644Y-92971661D01*
X151588274Y-93367399D01*
X151498178Y-93653959D01*
X151531785Y-93836567D01*
X151688526Y-93920447D01*
X151698995Y-93922060D01*
X151829156Y-93904225D01*
X151963512Y-93793144D01*
X152132731Y-93561436D01*
X152173128Y-93498727D01*
X152398140Y-93136846D01*
X152543754Y-92873800D01*
X152626297Y-92668743D01*
X152662095Y-92480829D01*
X152667472Y-92269211D01*
X152667337Y-92262227D01*
X152631240Y-91946630D01*
X152519588Y-91696008D01*
X152305668Y-91474738D01*
X151962764Y-91247193D01*
X151863901Y-91190817D01*
X151417528Y-90980324D01*
X151044704Y-90899103D01*
X150713387Y-90944045D01*
X150476806Y-91056263D01*
X150218975Y-91287072D01*
X150002395Y-91612423D01*
X149855851Y-91973501D01*
X149808132Y-92311492D01*
X149808132Y-92311492D01*
X149808132Y-92311492D01*
G37*
X149808132Y-92311492D02*
X149817919Y-92402457D01*
X149905328Y-92734562D01*
X150046408Y-92966084D01*
X150287519Y-93165618D01*
X150369958Y-93219235D01*
X150402811Y-93238224D01*
X150402811Y-92371505D01*
X150416395Y-92153006D01*
X150519952Y-91892993D01*
X150676503Y-91662009D01*
X150842304Y-91533067D01*
X151073556Y-91484989D01*
X151267949Y-91510853D01*
X151340835Y-91565654D01*
X151325508Y-91673793D01*
X151237662Y-91882751D01*
X151095466Y-92150344D01*
X151070876Y-92192418D01*
X150896872Y-92472765D01*
X150774823Y-92626232D01*
X150680275Y-92677049D01*
X150602044Y-92656986D01*
X150467057Y-92516928D01*
X150402811Y-92371505D01*
X150402811Y-93238224D01*
X150611709Y-93358970D01*
X150798687Y-93417093D01*
X150959086Y-93379480D01*
X151121096Y-93232005D01*
X151312911Y-92960541D01*
X151502458Y-92651795D01*
X151708686Y-92310466D01*
X151846563Y-92096825D01*
X151934278Y-91993009D01*
X151990025Y-91981161D01*
X152031995Y-92043419D01*
X152057395Y-92106973D01*
X152109454Y-92241918D01*
X152130694Y-92340696D01*
X152108953Y-92444594D01*
X152032065Y-92594901D01*
X151887866Y-92832904D01*
X151802644Y-92971661D01*
X151588274Y-93367399D01*
X151498178Y-93653959D01*
X151531785Y-93836567D01*
X151688526Y-93920447D01*
X151698995Y-93922060D01*
X151829156Y-93904225D01*
X151963512Y-93793144D01*
X152132731Y-93561436D01*
X152173128Y-93498727D01*
X152398140Y-93136846D01*
X152543754Y-92873800D01*
X152626297Y-92668743D01*
X152662095Y-92480829D01*
X152667472Y-92269211D01*
X152667337Y-92262227D01*
X152631240Y-91946630D01*
X152519588Y-91696008D01*
X152305668Y-91474738D01*
X151962764Y-91247193D01*
X151863901Y-91190817D01*
X151417528Y-90980324D01*
X151044704Y-90899103D01*
X150713387Y-90944045D01*
X150476806Y-91056263D01*
X150218975Y-91287072D01*
X150002395Y-91612423D01*
X149855851Y-91973501D01*
X149808132Y-92311492D01*
X149808132Y-92311492D01*
G36*
X150402018Y-88983756D02*
X150422202Y-89023680D01*
X150556772Y-89120969D01*
X150804253Y-89277332D01*
X151137183Y-89477294D01*
X151528104Y-89705379D01*
X151949555Y-89946113D01*
X152374077Y-90184018D01*
X152774209Y-90403620D01*
X153122491Y-90589442D01*
X153391464Y-90726011D01*
X153553667Y-90797849D01*
X153582996Y-90805000D01*
X153750007Y-90746258D01*
X153813132Y-90666491D01*
X153834574Y-90565649D01*
X153805611Y-90465427D01*
X153708499Y-90350851D01*
X153525494Y-90206948D01*
X153238852Y-90018743D01*
X152830831Y-89771262D01*
X152569333Y-89616839D01*
X152131564Y-89352876D01*
X151814894Y-89147256D01*
X151627964Y-89006086D01*
X151579415Y-88935474D01*
X151595666Y-88928652D01*
X151784999Y-88916950D01*
X152052947Y-88907834D01*
X152143825Y-88906022D01*
X152426033Y-88862159D01*
X152558582Y-88747726D01*
X152536673Y-88571507D01*
X152417394Y-88405613D01*
X152268504Y-88194990D01*
X152188240Y-88019189D01*
X152126351Y-87815712D01*
X152411342Y-87990709D01*
X153012887Y-88354556D01*
X153539060Y-88661729D01*
X153975636Y-88904487D01*
X154308392Y-89075089D01*
X154523103Y-89165794D01*
X154593297Y-89178122D01*
X154703365Y-89084241D01*
X154753857Y-88933571D01*
X154752164Y-88854535D01*
X154715908Y-88774232D01*
X154627296Y-88679255D01*
X154468539Y-88556197D01*
X154221845Y-88391650D01*
X153869423Y-88172207D01*
X153393483Y-87884460D01*
X153238116Y-87791294D01*
X152778778Y-87516560D01*
X152369042Y-87272316D01*
X152030962Y-87071641D01*
X151786590Y-86927612D01*
X151657979Y-86853308D01*
X151644637Y-86846292D01*
X151575947Y-86898949D01*
X151468791Y-87056839D01*
X151434161Y-87118459D01*
X151346204Y-87295517D01*
X151320214Y-87431712D01*
X151358303Y-87593236D01*
X151456950Y-87833195D01*
X151557759Y-88075684D01*
X151623488Y-88249427D01*
X151638000Y-88301862D01*
X151563120Y-88332884D01*
X151377478Y-88349838D01*
X151320500Y-88350822D01*
X151058391Y-88364189D01*
X150842960Y-88395246D01*
X150827191Y-88399189D01*
X150679326Y-88490622D01*
X150535798Y-88654575D01*
X150431674Y-88836977D01*
X150402018Y-88983756D01*
X150402018Y-88983756D01*
X150402018Y-88983756D01*
G37*
X150402018Y-88983756D02*
X150422202Y-89023680D01*
X150556772Y-89120969D01*
X150804253Y-89277332D01*
X151137183Y-89477294D01*
X151528104Y-89705379D01*
X151949555Y-89946113D01*
X152374077Y-90184018D01*
X152774209Y-90403620D01*
X153122491Y-90589442D01*
X153391464Y-90726011D01*
X153553667Y-90797849D01*
X153582996Y-90805000D01*
X153750007Y-90746258D01*
X153813132Y-90666491D01*
X153834574Y-90565649D01*
X153805611Y-90465427D01*
X153708499Y-90350851D01*
X153525494Y-90206948D01*
X153238852Y-90018743D01*
X152830831Y-89771262D01*
X152569333Y-89616839D01*
X152131564Y-89352876D01*
X151814894Y-89147256D01*
X151627964Y-89006086D01*
X151579415Y-88935474D01*
X151595666Y-88928652D01*
X151784999Y-88916950D01*
X152052947Y-88907834D01*
X152143825Y-88906022D01*
X152426033Y-88862159D01*
X152558582Y-88747726D01*
X152536673Y-88571507D01*
X152417394Y-88405613D01*
X152268504Y-88194990D01*
X152188240Y-88019189D01*
X152126351Y-87815712D01*
X152411342Y-87990709D01*
X153012887Y-88354556D01*
X153539060Y-88661729D01*
X153975636Y-88904487D01*
X154308392Y-89075089D01*
X154523103Y-89165794D01*
X154593297Y-89178122D01*
X154703365Y-89084241D01*
X154753857Y-88933571D01*
X154752164Y-88854535D01*
X154715908Y-88774232D01*
X154627296Y-88679255D01*
X154468539Y-88556197D01*
X154221845Y-88391650D01*
X153869423Y-88172207D01*
X153393483Y-87884460D01*
X153238116Y-87791294D01*
X152778778Y-87516560D01*
X152369042Y-87272316D01*
X152030962Y-87071641D01*
X151786590Y-86927612D01*
X151657979Y-86853308D01*
X151644637Y-86846292D01*
X151575947Y-86898949D01*
X151468791Y-87056839D01*
X151434161Y-87118459D01*
X151346204Y-87295517D01*
X151320214Y-87431712D01*
X151358303Y-87593236D01*
X151456950Y-87833195D01*
X151557759Y-88075684D01*
X151623488Y-88249427D01*
X151638000Y-88301862D01*
X151563120Y-88332884D01*
X151377478Y-88349838D01*
X151320500Y-88350822D01*
X151058391Y-88364189D01*
X150842960Y-88395246D01*
X150827191Y-88399189D01*
X150679326Y-88490622D01*
X150535798Y-88654575D01*
X150431674Y-88836977D01*
X150402018Y-88983756D01*
X150402018Y-88983756D01*
%LPC*%
D11*
X91440000Y-88900000D03*
X157480000Y-109220000D03*
X178435000Y-88900000D03*
X112395000Y-109220000D03*
D12*
X125000000Y-87500000D03*
D13*
X125000000Y-90000000D03*
D14*
X162350000Y-93350000D03*
X177650000Y-93350000D03*
X177650000Y-106650000D03*
X162350000Y-106650000D03*
D15*
X160350000Y-100000000D03*
X160350000Y-97500000D03*
X160350000Y-102500000D03*
D16*
X170000000Y-109750000D03*
X167500000Y-109750000D03*
X172500000Y-109750000D03*
D15*
X166750000Y-91750000D03*
X173250000Y-91750000D03*
X173250000Y-87250000D03*
X166750000Y-87250000D03*
D14*
X92350000Y-93350000D03*
X107650000Y-93350000D03*
X107650000Y-106650000D03*
X92350000Y-106650000D03*
D15*
X90350000Y-100000000D03*
X90350000Y-97500000D03*
X90350000Y-102500000D03*
D16*
X100000000Y-109750000D03*
X97500000Y-109750000D03*
X102500000Y-109750000D03*
D15*
X96750000Y-91750000D03*
X103250000Y-91750000D03*
X103250000Y-87250000D03*
X96750000Y-87250000D03*
D17*
X130302000Y-91440000D03*
D18*
X130302000Y-88900000D03*
X132842000Y-91440000D03*
X132842000Y-88900000D03*
X135382000Y-91440000D03*
X135382000Y-88900000D03*
X137922000Y-91440000D03*
X137922000Y-88900000D03*
X140462000Y-91440000D03*
X140462000Y-88900000D03*
M02*
