G04 #@! TF.FileFunction,Copper,L1,Top,Signal*
%FSLAX46Y46*%
G04 Gerber Fmt 4.6, Leading zero omitted, Abs format (unit mm)*
G04 Created by KiCad (PCBNEW (2015-01-16 BZR 5376)-product) date 28/04/2015 16:45:27*
%MOMM*%
G01*
G04 APERTURE LIST*
%ADD10C,0.100000*%
%ADD11C,4.000000*%
%ADD12R,1.300000X1.300000*%
%ADD13C,1.300000*%
%ADD14O,1.800000X2.600000*%
%ADD15O,1.524000X2.000000*%
%ADD16O,2.000000X1.540000*%
%ADD17R,1.727200X1.727200*%
%ADD18O,1.727200X1.727200*%
%ADD19C,0.889000*%
%ADD20C,0.254000*%
G04 APERTURE END LIST*
D10*
D11*
X91440000Y-88900000D03*
X157480000Y-109220000D03*
X178435000Y-88900000D03*
X112395000Y-109220000D03*
D12*
X125000000Y-87500000D03*
D13*
X125000000Y-90000000D03*
D14*
X162350000Y-93350000D03*
X177650000Y-93350000D03*
X177650000Y-106650000D03*
X162350000Y-106650000D03*
D15*
X160350000Y-100000000D03*
X160350000Y-97500000D03*
X160350000Y-102500000D03*
D16*
X170000000Y-109750000D03*
X167500000Y-109750000D03*
X172500000Y-109750000D03*
D15*
X166750000Y-91750000D03*
X173250000Y-91750000D03*
X173250000Y-87250000D03*
X166750000Y-87250000D03*
D14*
X92350000Y-93350000D03*
X107650000Y-93350000D03*
X107650000Y-106650000D03*
X92350000Y-106650000D03*
D15*
X90350000Y-100000000D03*
X90350000Y-97500000D03*
X90350000Y-102500000D03*
D16*
X100000000Y-109750000D03*
X97500000Y-109750000D03*
X102500000Y-109750000D03*
D15*
X96750000Y-91750000D03*
X103250000Y-91750000D03*
X103250000Y-87250000D03*
X96750000Y-87250000D03*
D17*
X130302000Y-91440000D03*
D18*
X130302000Y-88900000D03*
X132842000Y-91440000D03*
X132842000Y-88900000D03*
X135382000Y-91440000D03*
X135382000Y-88900000D03*
X137922000Y-91440000D03*
X137922000Y-88900000D03*
X140462000Y-91440000D03*
X140462000Y-88900000D03*
D19*
X153670000Y-86995000D03*
D20*
X90954000Y-109750000D02*
X97500000Y-109750000D01*
X88392000Y-107188000D02*
X90954000Y-109750000D01*
X88392000Y-98044000D02*
X88392000Y-107188000D01*
X88936000Y-97500000D02*
X88392000Y-98044000D01*
X90350000Y-97500000D02*
X88936000Y-97500000D01*
X109500000Y-87500000D02*
X99500000Y-97500000D01*
X99500000Y-97500000D02*
X90350000Y-97500000D01*
X125000000Y-87500000D02*
X109500000Y-87500000D01*
X157480000Y-95250000D02*
X157480000Y-90805000D01*
X157480000Y-90805000D02*
X153670000Y-86995000D01*
X159730000Y-97500000D02*
X157480000Y-95250000D01*
X160350000Y-97500000D02*
X159730000Y-97500000D01*
X155245000Y-100000000D02*
X160350000Y-100000000D01*
X153670000Y-98425000D02*
X155245000Y-100000000D01*
X153670000Y-90805000D02*
X153670000Y-98425000D01*
X148590000Y-85725000D02*
X153670000Y-90805000D01*
X137795000Y-85725000D02*
X148590000Y-85725000D01*
X135382000Y-88138000D02*
X137795000Y-85725000D01*
X135382000Y-88900000D02*
X135382000Y-88138000D01*
X137922000Y-88138000D02*
X137922000Y-88900000D01*
X139700000Y-86995000D02*
X142240000Y-86995000D01*
X142240000Y-86995000D02*
X146685000Y-91440000D01*
X146685000Y-91440000D02*
X146685000Y-101600000D01*
X146685000Y-101600000D02*
X149860000Y-104775000D01*
X149860000Y-104775000D02*
X168910000Y-104775000D01*
X168910000Y-104775000D02*
X170000000Y-105865000D01*
X170000000Y-105865000D02*
X170000000Y-109750000D01*
X137922000Y-88773000D02*
X139700000Y-86995000D01*
X137922000Y-88900000D02*
X137922000Y-88773000D01*
X173250000Y-87250000D02*
X173250000Y-91750000D01*
X132540000Y-91742000D02*
X132842000Y-91440000D01*
X100000000Y-104000000D02*
X106000000Y-98000000D01*
X106000000Y-98000000D02*
X124000000Y-98000000D01*
X124000000Y-98000000D02*
X128000000Y-94000000D01*
X128000000Y-94000000D02*
X128000000Y-88000000D01*
X128000000Y-88000000D02*
X129000000Y-87000000D01*
X129000000Y-87000000D02*
X132000000Y-87000000D01*
X132000000Y-87000000D02*
X132842000Y-87842000D01*
X132842000Y-87842000D02*
X132842000Y-88900000D01*
X100000000Y-109750000D02*
X100000000Y-104000000D01*
X103250000Y-87250000D02*
X103250000Y-91750000D01*
G36*
X102737048Y-85685000D02*
X102715391Y-85689308D01*
X102262172Y-85992140D01*
X101959340Y-86445359D01*
X101853000Y-86979968D01*
X101853000Y-87520032D01*
X101959340Y-88054641D01*
X102262172Y-88507860D01*
X102488000Y-88658753D01*
X102488000Y-90341246D01*
X102262172Y-90492140D01*
X101959340Y-90945359D01*
X101853000Y-91479968D01*
X101853000Y-92020032D01*
X101959340Y-92554641D01*
X102262172Y-93007860D01*
X102653219Y-93269150D01*
X99184369Y-96738000D01*
X98152130Y-96738000D01*
X98152130Y-92097692D01*
X98152130Y-91402308D01*
X98152130Y-87597692D01*
X97993277Y-87377000D01*
X96877000Y-87377000D01*
X96877000Y-88719720D01*
X97093070Y-88842220D01*
X97185230Y-88825377D01*
X97663892Y-88557020D01*
X98003422Y-88125914D01*
X98152130Y-87597692D01*
X98152130Y-91402308D01*
X98003422Y-90874086D01*
X97663892Y-90442980D01*
X97185230Y-90174623D01*
X97093070Y-90157780D01*
X96877000Y-90280280D01*
X96877000Y-91623000D01*
X97993277Y-91623000D01*
X98152130Y-91402308D01*
X98152130Y-92097692D01*
X97993277Y-91877000D01*
X96877000Y-91877000D01*
X96877000Y-93219720D01*
X97093070Y-93342220D01*
X97185230Y-93325377D01*
X97663892Y-93057020D01*
X98003422Y-92625914D01*
X98152130Y-92097692D01*
X98152130Y-96738000D01*
X96623000Y-96738000D01*
X96623000Y-93219720D01*
X96623000Y-91877000D01*
X96623000Y-91623000D01*
X96623000Y-90280280D01*
X96623000Y-88719720D01*
X96623000Y-87377000D01*
X95506723Y-87377000D01*
X95347870Y-87597692D01*
X95496578Y-88125914D01*
X95836108Y-88557020D01*
X96314770Y-88825377D01*
X96406930Y-88842220D01*
X96623000Y-88719720D01*
X96623000Y-90280280D01*
X96406930Y-90157780D01*
X96314770Y-90174623D01*
X95836108Y-90442980D01*
X95496578Y-90874086D01*
X95347870Y-91402308D01*
X95506723Y-91623000D01*
X96623000Y-91623000D01*
X96623000Y-91877000D01*
X95506723Y-91877000D01*
X95347870Y-92097692D01*
X95496578Y-92625914D01*
X95836108Y-93057020D01*
X96314770Y-93325377D01*
X96406930Y-93342220D01*
X96623000Y-93219720D01*
X96623000Y-96738000D01*
X94075457Y-96738000D01*
X94075457Y-88378166D01*
X93675147Y-87409342D01*
X92934557Y-86667458D01*
X91966433Y-86265458D01*
X90918166Y-86264543D01*
X89949342Y-86664853D01*
X89207458Y-87405443D01*
X88805458Y-88373567D01*
X88804543Y-89421834D01*
X89204853Y-90390658D01*
X89945443Y-91132542D01*
X90913567Y-91534542D01*
X91700781Y-91535229D01*
X91264591Y-91826682D01*
X90931845Y-92324672D01*
X90815000Y-92912091D01*
X90815000Y-93787909D01*
X90931845Y-94375328D01*
X91264591Y-94873318D01*
X91762581Y-95206064D01*
X92350000Y-95322909D01*
X92937419Y-95206064D01*
X93435409Y-94873318D01*
X93768155Y-94375328D01*
X93885000Y-93787909D01*
X93885000Y-92912091D01*
X93768155Y-92324672D01*
X93435409Y-91826682D01*
X92937419Y-91493936D01*
X92350000Y-91377091D01*
X92340568Y-91378967D01*
X92930658Y-91135147D01*
X93672542Y-90394557D01*
X94074542Y-89426433D01*
X94075457Y-88378166D01*
X94075457Y-96738000D01*
X91649141Y-96738000D01*
X91640660Y-96695359D01*
X91337828Y-96242140D01*
X90884609Y-95939308D01*
X90350000Y-95832968D01*
X89815391Y-95939308D01*
X89362172Y-96242140D01*
X89059340Y-96695359D01*
X89050858Y-96738000D01*
X88936000Y-96738000D01*
X88644395Y-96796004D01*
X88397185Y-96961185D01*
X88185000Y-97173370D01*
X88185000Y-90067467D01*
X88525857Y-88353857D01*
X89458322Y-86958324D01*
X90853855Y-86025858D01*
X92567467Y-85685000D01*
X96296260Y-85685000D01*
X95836108Y-85942980D01*
X95496578Y-86374086D01*
X95347870Y-86902308D01*
X95506723Y-87123000D01*
X96623000Y-87123000D01*
X96623000Y-87103000D01*
X96877000Y-87103000D01*
X96877000Y-87123000D01*
X97993277Y-87123000D01*
X98152130Y-86902308D01*
X98003422Y-86374086D01*
X97663892Y-85942980D01*
X97203739Y-85685000D01*
X102737048Y-85685000D01*
X102737048Y-85685000D01*
G37*
X102737048Y-85685000D02*
X102715391Y-85689308D01*
X102262172Y-85992140D01*
X101959340Y-86445359D01*
X101853000Y-86979968D01*
X101853000Y-87520032D01*
X101959340Y-88054641D01*
X102262172Y-88507860D01*
X102488000Y-88658753D01*
X102488000Y-90341246D01*
X102262172Y-90492140D01*
X101959340Y-90945359D01*
X101853000Y-91479968D01*
X101853000Y-92020032D01*
X101959340Y-92554641D01*
X102262172Y-93007860D01*
X102653219Y-93269150D01*
X99184369Y-96738000D01*
X98152130Y-96738000D01*
X98152130Y-92097692D01*
X98152130Y-91402308D01*
X98152130Y-87597692D01*
X97993277Y-87377000D01*
X96877000Y-87377000D01*
X96877000Y-88719720D01*
X97093070Y-88842220D01*
X97185230Y-88825377D01*
X97663892Y-88557020D01*
X98003422Y-88125914D01*
X98152130Y-87597692D01*
X98152130Y-91402308D01*
X98003422Y-90874086D01*
X97663892Y-90442980D01*
X97185230Y-90174623D01*
X97093070Y-90157780D01*
X96877000Y-90280280D01*
X96877000Y-91623000D01*
X97993277Y-91623000D01*
X98152130Y-91402308D01*
X98152130Y-92097692D01*
X97993277Y-91877000D01*
X96877000Y-91877000D01*
X96877000Y-93219720D01*
X97093070Y-93342220D01*
X97185230Y-93325377D01*
X97663892Y-93057020D01*
X98003422Y-92625914D01*
X98152130Y-92097692D01*
X98152130Y-96738000D01*
X96623000Y-96738000D01*
X96623000Y-93219720D01*
X96623000Y-91877000D01*
X96623000Y-91623000D01*
X96623000Y-90280280D01*
X96623000Y-88719720D01*
X96623000Y-87377000D01*
X95506723Y-87377000D01*
X95347870Y-87597692D01*
X95496578Y-88125914D01*
X95836108Y-88557020D01*
X96314770Y-88825377D01*
X96406930Y-88842220D01*
X96623000Y-88719720D01*
X96623000Y-90280280D01*
X96406930Y-90157780D01*
X96314770Y-90174623D01*
X95836108Y-90442980D01*
X95496578Y-90874086D01*
X95347870Y-91402308D01*
X95506723Y-91623000D01*
X96623000Y-91623000D01*
X96623000Y-91877000D01*
X95506723Y-91877000D01*
X95347870Y-92097692D01*
X95496578Y-92625914D01*
X95836108Y-93057020D01*
X96314770Y-93325377D01*
X96406930Y-93342220D01*
X96623000Y-93219720D01*
X96623000Y-96738000D01*
X94075457Y-96738000D01*
X94075457Y-88378166D01*
X93675147Y-87409342D01*
X92934557Y-86667458D01*
X91966433Y-86265458D01*
X90918166Y-86264543D01*
X89949342Y-86664853D01*
X89207458Y-87405443D01*
X88805458Y-88373567D01*
X88804543Y-89421834D01*
X89204853Y-90390658D01*
X89945443Y-91132542D01*
X90913567Y-91534542D01*
X91700781Y-91535229D01*
X91264591Y-91826682D01*
X90931845Y-92324672D01*
X90815000Y-92912091D01*
X90815000Y-93787909D01*
X90931845Y-94375328D01*
X91264591Y-94873318D01*
X91762581Y-95206064D01*
X92350000Y-95322909D01*
X92937419Y-95206064D01*
X93435409Y-94873318D01*
X93768155Y-94375328D01*
X93885000Y-93787909D01*
X93885000Y-92912091D01*
X93768155Y-92324672D01*
X93435409Y-91826682D01*
X92937419Y-91493936D01*
X92350000Y-91377091D01*
X92340568Y-91378967D01*
X92930658Y-91135147D01*
X93672542Y-90394557D01*
X94074542Y-89426433D01*
X94075457Y-88378166D01*
X94075457Y-96738000D01*
X91649141Y-96738000D01*
X91640660Y-96695359D01*
X91337828Y-96242140D01*
X90884609Y-95939308D01*
X90350000Y-95832968D01*
X89815391Y-95939308D01*
X89362172Y-96242140D01*
X89059340Y-96695359D01*
X89050858Y-96738000D01*
X88936000Y-96738000D01*
X88644395Y-96796004D01*
X88397185Y-96961185D01*
X88185000Y-97173370D01*
X88185000Y-90067467D01*
X88525857Y-88353857D01*
X89458322Y-86958324D01*
X90853855Y-86025858D01*
X92567467Y-85685000D01*
X96296260Y-85685000D01*
X95836108Y-85942980D01*
X95496578Y-86374086D01*
X95347870Y-86902308D01*
X95506723Y-87123000D01*
X96623000Y-87123000D01*
X96623000Y-87103000D01*
X96877000Y-87103000D01*
X96877000Y-87123000D01*
X97993277Y-87123000D01*
X98152130Y-86902308D01*
X98003422Y-86374086D01*
X97663892Y-85942980D01*
X97203739Y-85685000D01*
X102737048Y-85685000D01*
G36*
X136757369Y-85685000D02*
X134992940Y-87449429D01*
X134808511Y-87486115D01*
X134322330Y-87810971D01*
X134112000Y-88125751D01*
X133901670Y-87810971D01*
X133551254Y-87576830D01*
X133545996Y-87550396D01*
X133545996Y-87550395D01*
X133380815Y-87303185D01*
X132538815Y-86461185D01*
X132291605Y-86296004D01*
X132000000Y-86238000D01*
X129000000Y-86238000D01*
X128708396Y-86296003D01*
X128461185Y-86461184D01*
X127461185Y-87461185D01*
X127296004Y-87708395D01*
X127238000Y-88000000D01*
X127238000Y-93684369D01*
X126297622Y-94624747D01*
X126297622Y-90180922D01*
X126268083Y-89670572D01*
X126129611Y-89336271D01*
X125899016Y-89280590D01*
X125179605Y-90000000D01*
X125899016Y-90719410D01*
X126129611Y-90663729D01*
X126297622Y-90180922D01*
X126297622Y-94624747D01*
X125719410Y-95202959D01*
X125719410Y-90899016D01*
X125000000Y-90179605D01*
X124820395Y-90359210D01*
X124820395Y-90000000D01*
X124100984Y-89280590D01*
X123870389Y-89336271D01*
X123702378Y-89819078D01*
X123731917Y-90329428D01*
X123870389Y-90663729D01*
X124100984Y-90719410D01*
X124820395Y-90000000D01*
X124820395Y-90359210D01*
X124280590Y-90899016D01*
X124336271Y-91129611D01*
X124819078Y-91297622D01*
X125329428Y-91268083D01*
X125663729Y-91129611D01*
X125719410Y-90899016D01*
X125719410Y-95202959D01*
X123684369Y-97238000D01*
X109185000Y-97238000D01*
X109185000Y-93787909D01*
X109185000Y-92912091D01*
X109068155Y-92324672D01*
X108735409Y-91826682D01*
X108237419Y-91493936D01*
X107650000Y-91377091D01*
X107062581Y-91493936D01*
X106564591Y-91826682D01*
X106231845Y-92324672D01*
X106115000Y-92912091D01*
X106115000Y-93787909D01*
X106231845Y-94375328D01*
X106564591Y-94873318D01*
X107062581Y-95206064D01*
X107650000Y-95322909D01*
X108237419Y-95206064D01*
X108735409Y-94873318D01*
X109068155Y-94375328D01*
X109185000Y-93787909D01*
X109185000Y-97238000D01*
X106000000Y-97238000D01*
X105708395Y-97296004D01*
X105461184Y-97461185D01*
X99461185Y-103461185D01*
X99296004Y-103708395D01*
X99238000Y-104000000D01*
X99238000Y-108444449D01*
X99200298Y-108451949D01*
X98750000Y-108752828D01*
X98299702Y-108451949D01*
X97762032Y-108345000D01*
X97237968Y-108345000D01*
X96700298Y-108451949D01*
X96244483Y-108756515D01*
X96089809Y-108988000D01*
X93885000Y-108988000D01*
X93885000Y-107087909D01*
X93885000Y-106212091D01*
X93768155Y-105624672D01*
X93435409Y-105126682D01*
X92937419Y-104793936D01*
X92350000Y-104677091D01*
X91762581Y-104793936D01*
X91752130Y-104800919D01*
X91752130Y-102847692D01*
X91593277Y-102627000D01*
X90477000Y-102627000D01*
X90477000Y-103969720D01*
X90693070Y-104092220D01*
X90785230Y-104075377D01*
X91263892Y-103807020D01*
X91603422Y-103375914D01*
X91752130Y-102847692D01*
X91752130Y-104800919D01*
X91264591Y-105126682D01*
X90931845Y-105624672D01*
X90815000Y-106212091D01*
X90815000Y-107087909D01*
X90931845Y-107675328D01*
X91264591Y-108173318D01*
X91762581Y-108506064D01*
X92350000Y-108622909D01*
X92937419Y-108506064D01*
X93435409Y-108173318D01*
X93768155Y-107675328D01*
X93885000Y-107087909D01*
X93885000Y-108988000D01*
X91269630Y-108988000D01*
X89154000Y-106872370D01*
X89154000Y-103448823D01*
X89436108Y-103807020D01*
X89914770Y-104075377D01*
X90006930Y-104092220D01*
X90223000Y-103969720D01*
X90223000Y-102627000D01*
X90203000Y-102627000D01*
X90203000Y-102373000D01*
X90223000Y-102373000D01*
X90223000Y-102353000D01*
X90477000Y-102353000D01*
X90477000Y-102373000D01*
X91593277Y-102373000D01*
X91752130Y-102152308D01*
X91603422Y-101624086D01*
X91322864Y-101267858D01*
X91337828Y-101257860D01*
X91640660Y-100804641D01*
X91747000Y-100270032D01*
X91747000Y-99729968D01*
X91640660Y-99195359D01*
X91343079Y-98750000D01*
X91640660Y-98304641D01*
X91649141Y-98262000D01*
X99500000Y-98262000D01*
X99500000Y-98261999D01*
X99791604Y-98203996D01*
X99791605Y-98203996D01*
X100038815Y-98038815D01*
X109815630Y-88262000D01*
X123724290Y-88262000D01*
X123749537Y-88392123D01*
X123889327Y-88604927D01*
X124100360Y-88747377D01*
X124350000Y-88797440D01*
X124512385Y-88797440D01*
X124336271Y-88870389D01*
X124280590Y-89100984D01*
X125000000Y-89820395D01*
X125719410Y-89100984D01*
X125663729Y-88870389D01*
X125454098Y-88797440D01*
X125650000Y-88797440D01*
X125892123Y-88750463D01*
X126104927Y-88610673D01*
X126247377Y-88399640D01*
X126297440Y-88150000D01*
X126297440Y-86850000D01*
X126250463Y-86607877D01*
X126110673Y-86395073D01*
X125899640Y-86252623D01*
X125650000Y-86202560D01*
X124350000Y-86202560D01*
X124107877Y-86249537D01*
X123895073Y-86389327D01*
X123752623Y-86600360D01*
X123725020Y-86738000D01*
X109500000Y-86738000D01*
X109208395Y-86796004D01*
X109109376Y-86862165D01*
X108961185Y-86961184D01*
X104613055Y-91309314D01*
X104540660Y-90945359D01*
X104237828Y-90492140D01*
X104012000Y-90341246D01*
X104012000Y-88658753D01*
X104237828Y-88507860D01*
X104540660Y-88054641D01*
X104647000Y-87520032D01*
X104647000Y-86979968D01*
X104540660Y-86445359D01*
X104237828Y-85992140D01*
X103784609Y-85689308D01*
X103762951Y-85685000D01*
X136757369Y-85685000D01*
X136757369Y-85685000D01*
G37*
X136757369Y-85685000D02*
X134992940Y-87449429D01*
X134808511Y-87486115D01*
X134322330Y-87810971D01*
X134112000Y-88125751D01*
X133901670Y-87810971D01*
X133551254Y-87576830D01*
X133545996Y-87550396D01*
X133545996Y-87550395D01*
X133380815Y-87303185D01*
X132538815Y-86461185D01*
X132291605Y-86296004D01*
X132000000Y-86238000D01*
X129000000Y-86238000D01*
X128708396Y-86296003D01*
X128461185Y-86461184D01*
X127461185Y-87461185D01*
X127296004Y-87708395D01*
X127238000Y-88000000D01*
X127238000Y-93684369D01*
X126297622Y-94624747D01*
X126297622Y-90180922D01*
X126268083Y-89670572D01*
X126129611Y-89336271D01*
X125899016Y-89280590D01*
X125179605Y-90000000D01*
X125899016Y-90719410D01*
X126129611Y-90663729D01*
X126297622Y-90180922D01*
X126297622Y-94624747D01*
X125719410Y-95202959D01*
X125719410Y-90899016D01*
X125000000Y-90179605D01*
X124820395Y-90359210D01*
X124820395Y-90000000D01*
X124100984Y-89280590D01*
X123870389Y-89336271D01*
X123702378Y-89819078D01*
X123731917Y-90329428D01*
X123870389Y-90663729D01*
X124100984Y-90719410D01*
X124820395Y-90000000D01*
X124820395Y-90359210D01*
X124280590Y-90899016D01*
X124336271Y-91129611D01*
X124819078Y-91297622D01*
X125329428Y-91268083D01*
X125663729Y-91129611D01*
X125719410Y-90899016D01*
X125719410Y-95202959D01*
X123684369Y-97238000D01*
X109185000Y-97238000D01*
X109185000Y-93787909D01*
X109185000Y-92912091D01*
X109068155Y-92324672D01*
X108735409Y-91826682D01*
X108237419Y-91493936D01*
X107650000Y-91377091D01*
X107062581Y-91493936D01*
X106564591Y-91826682D01*
X106231845Y-92324672D01*
X106115000Y-92912091D01*
X106115000Y-93787909D01*
X106231845Y-94375328D01*
X106564591Y-94873318D01*
X107062581Y-95206064D01*
X107650000Y-95322909D01*
X108237419Y-95206064D01*
X108735409Y-94873318D01*
X109068155Y-94375328D01*
X109185000Y-93787909D01*
X109185000Y-97238000D01*
X106000000Y-97238000D01*
X105708395Y-97296004D01*
X105461184Y-97461185D01*
X99461185Y-103461185D01*
X99296004Y-103708395D01*
X99238000Y-104000000D01*
X99238000Y-108444449D01*
X99200298Y-108451949D01*
X98750000Y-108752828D01*
X98299702Y-108451949D01*
X97762032Y-108345000D01*
X97237968Y-108345000D01*
X96700298Y-108451949D01*
X96244483Y-108756515D01*
X96089809Y-108988000D01*
X93885000Y-108988000D01*
X93885000Y-107087909D01*
X93885000Y-106212091D01*
X93768155Y-105624672D01*
X93435409Y-105126682D01*
X92937419Y-104793936D01*
X92350000Y-104677091D01*
X91762581Y-104793936D01*
X91752130Y-104800919D01*
X91752130Y-102847692D01*
X91593277Y-102627000D01*
X90477000Y-102627000D01*
X90477000Y-103969720D01*
X90693070Y-104092220D01*
X90785230Y-104075377D01*
X91263892Y-103807020D01*
X91603422Y-103375914D01*
X91752130Y-102847692D01*
X91752130Y-104800919D01*
X91264591Y-105126682D01*
X90931845Y-105624672D01*
X90815000Y-106212091D01*
X90815000Y-107087909D01*
X90931845Y-107675328D01*
X91264591Y-108173318D01*
X91762581Y-108506064D01*
X92350000Y-108622909D01*
X92937419Y-108506064D01*
X93435409Y-108173318D01*
X93768155Y-107675328D01*
X93885000Y-107087909D01*
X93885000Y-108988000D01*
X91269630Y-108988000D01*
X89154000Y-106872370D01*
X89154000Y-103448823D01*
X89436108Y-103807020D01*
X89914770Y-104075377D01*
X90006930Y-104092220D01*
X90223000Y-103969720D01*
X90223000Y-102627000D01*
X90203000Y-102627000D01*
X90203000Y-102373000D01*
X90223000Y-102373000D01*
X90223000Y-102353000D01*
X90477000Y-102353000D01*
X90477000Y-102373000D01*
X91593277Y-102373000D01*
X91752130Y-102152308D01*
X91603422Y-101624086D01*
X91322864Y-101267858D01*
X91337828Y-101257860D01*
X91640660Y-100804641D01*
X91747000Y-100270032D01*
X91747000Y-99729968D01*
X91640660Y-99195359D01*
X91343079Y-98750000D01*
X91640660Y-98304641D01*
X91649141Y-98262000D01*
X99500000Y-98262000D01*
X99500000Y-98261999D01*
X99791604Y-98203996D01*
X99791605Y-98203996D01*
X100038815Y-98038815D01*
X109815630Y-88262000D01*
X123724290Y-88262000D01*
X123749537Y-88392123D01*
X123889327Y-88604927D01*
X124100360Y-88747377D01*
X124350000Y-88797440D01*
X124512385Y-88797440D01*
X124336271Y-88870389D01*
X124280590Y-89100984D01*
X125000000Y-89820395D01*
X125719410Y-89100984D01*
X125663729Y-88870389D01*
X125454098Y-88797440D01*
X125650000Y-88797440D01*
X125892123Y-88750463D01*
X126104927Y-88610673D01*
X126247377Y-88399640D01*
X126297440Y-88150000D01*
X126297440Y-86850000D01*
X126250463Y-86607877D01*
X126110673Y-86395073D01*
X125899640Y-86252623D01*
X125650000Y-86202560D01*
X124350000Y-86202560D01*
X124107877Y-86249537D01*
X123895073Y-86389327D01*
X123752623Y-86600360D01*
X123725020Y-86738000D01*
X109500000Y-86738000D01*
X109208395Y-86796004D01*
X109109376Y-86862165D01*
X108961185Y-86961184D01*
X104613055Y-91309314D01*
X104540660Y-90945359D01*
X104237828Y-90492140D01*
X104012000Y-90341246D01*
X104012000Y-88658753D01*
X104237828Y-88507860D01*
X104540660Y-88054641D01*
X104647000Y-87520032D01*
X104647000Y-86979968D01*
X104540660Y-86445359D01*
X104237828Y-85992140D01*
X103784609Y-85689308D01*
X103762951Y-85685000D01*
X136757369Y-85685000D01*
G36*
X181815000Y-107432532D02*
X181474141Y-109146144D01*
X181070457Y-109750299D01*
X181070457Y-88378166D01*
X180670147Y-87409342D01*
X179929557Y-86667458D01*
X178961433Y-86265458D01*
X177913166Y-86264543D01*
X176944342Y-86664853D01*
X176202458Y-87405443D01*
X175800458Y-88373567D01*
X175799543Y-89421834D01*
X176199853Y-90390658D01*
X176940443Y-91132542D01*
X177568448Y-91393312D01*
X177062581Y-91493936D01*
X176564591Y-91826682D01*
X176231845Y-92324672D01*
X176115000Y-92912091D01*
X176115000Y-93787909D01*
X176231845Y-94375328D01*
X176564591Y-94873318D01*
X177062581Y-95206064D01*
X177650000Y-95322909D01*
X178237419Y-95206064D01*
X178735409Y-94873318D01*
X179068155Y-94375328D01*
X179185000Y-93787909D01*
X179185000Y-92912091D01*
X179068155Y-92324672D01*
X178735409Y-91826682D01*
X178298699Y-91534882D01*
X178956834Y-91535457D01*
X179925658Y-91135147D01*
X180667542Y-90394557D01*
X181069542Y-89426433D01*
X181070457Y-88378166D01*
X181070457Y-109750299D01*
X180541675Y-110541677D01*
X179185000Y-111448177D01*
X179185000Y-107087909D01*
X179185000Y-106212091D01*
X179068155Y-105624672D01*
X178735409Y-105126682D01*
X178237419Y-104793936D01*
X177650000Y-104677091D01*
X177062581Y-104793936D01*
X176564591Y-105126682D01*
X176231845Y-105624672D01*
X176115000Y-106212091D01*
X176115000Y-107087909D01*
X176231845Y-107675328D01*
X176564591Y-108173318D01*
X177062581Y-108506064D01*
X177650000Y-108622909D01*
X178237419Y-108506064D01*
X178735409Y-108173318D01*
X179068155Y-107675328D01*
X179185000Y-107087909D01*
X179185000Y-111448177D01*
X179146142Y-111474142D01*
X177432532Y-111815000D01*
X174092154Y-111815000D01*
X174092154Y-110094327D01*
X174092154Y-109405673D01*
X174076646Y-109320772D01*
X173809880Y-108838106D01*
X173378712Y-108494268D01*
X172848784Y-108341603D01*
X172627000Y-108499111D01*
X172627000Y-109623000D01*
X173969762Y-109623000D01*
X174092154Y-109405673D01*
X174092154Y-110094327D01*
X173969762Y-109877000D01*
X172627000Y-109877000D01*
X172627000Y-111000889D01*
X172848784Y-111158397D01*
X173378712Y-111005732D01*
X173809880Y-110661894D01*
X174076646Y-110179228D01*
X174092154Y-110094327D01*
X174092154Y-111815000D01*
X158099747Y-111815000D01*
X158970658Y-111455147D01*
X159712542Y-110714557D01*
X160114542Y-109746433D01*
X160115457Y-108698166D01*
X159715147Y-107729342D01*
X158974557Y-106987458D01*
X158006433Y-106585458D01*
X156958166Y-106584543D01*
X155989342Y-106984853D01*
X155247458Y-107725443D01*
X154845458Y-108693567D01*
X154844543Y-109741834D01*
X155244853Y-110710658D01*
X155985443Y-111452542D01*
X156858339Y-111815000D01*
X113014747Y-111815000D01*
X113885658Y-111455147D01*
X114627542Y-110714557D01*
X115029542Y-109746433D01*
X115030457Y-108698166D01*
X114630147Y-107729342D01*
X113889557Y-106987458D01*
X112921433Y-106585458D01*
X111873166Y-106584543D01*
X110904342Y-106984853D01*
X110162458Y-107725443D01*
X109760458Y-108693567D01*
X109759543Y-109741834D01*
X110159853Y-110710658D01*
X110900443Y-111452542D01*
X111773339Y-111815000D01*
X109185000Y-111815000D01*
X109185000Y-107087909D01*
X109185000Y-106212091D01*
X109068155Y-105624672D01*
X108735409Y-105126682D01*
X108237419Y-104793936D01*
X107650000Y-104677091D01*
X107062581Y-104793936D01*
X106564591Y-105126682D01*
X106231845Y-105624672D01*
X106115000Y-106212091D01*
X106115000Y-107087909D01*
X106231845Y-107675328D01*
X106564591Y-108173318D01*
X107062581Y-108506064D01*
X107650000Y-108622909D01*
X108237419Y-108506064D01*
X108735409Y-108173318D01*
X109068155Y-107675328D01*
X109185000Y-107087909D01*
X109185000Y-111815000D01*
X104092154Y-111815000D01*
X104092154Y-110094327D01*
X104092154Y-109405673D01*
X104076646Y-109320772D01*
X103809880Y-108838106D01*
X103378712Y-108494268D01*
X102848784Y-108341603D01*
X102627000Y-108499111D01*
X102627000Y-109623000D01*
X103969762Y-109623000D01*
X104092154Y-109405673D01*
X104092154Y-110094327D01*
X103969762Y-109877000D01*
X102627000Y-109877000D01*
X102627000Y-111000889D01*
X102848784Y-111158397D01*
X103378712Y-111005732D01*
X103809880Y-110661894D01*
X104076646Y-110179228D01*
X104092154Y-110094327D01*
X104092154Y-111815000D01*
X92567467Y-111815000D01*
X90853855Y-111474141D01*
X89458322Y-110541675D01*
X88525857Y-109146142D01*
X88340461Y-108214091D01*
X90415185Y-110288815D01*
X90662395Y-110453996D01*
X90954000Y-110512000D01*
X96089809Y-110512000D01*
X96244483Y-110743485D01*
X96700298Y-111048051D01*
X97237968Y-111155000D01*
X97762032Y-111155000D01*
X98299702Y-111048051D01*
X98750000Y-110747171D01*
X99200298Y-111048051D01*
X99737968Y-111155000D01*
X100262032Y-111155000D01*
X100799702Y-111048051D01*
X101255517Y-110743485D01*
X101268349Y-110724279D01*
X101621288Y-111005732D01*
X102151216Y-111158397D01*
X102373000Y-111000889D01*
X102373000Y-109877000D01*
X102353000Y-109877000D01*
X102353000Y-109623000D01*
X102373000Y-109623000D01*
X102373000Y-108499111D01*
X102151216Y-108341603D01*
X101621288Y-108494268D01*
X101268349Y-108775720D01*
X101255517Y-108756515D01*
X100799702Y-108451949D01*
X100762000Y-108444449D01*
X100762000Y-104315630D01*
X106315630Y-98762000D01*
X124000000Y-98762000D01*
X124000000Y-98761999D01*
X124291604Y-98703996D01*
X124291605Y-98703996D01*
X124538815Y-98538815D01*
X128538815Y-94538816D01*
X128538815Y-94538815D01*
X128703996Y-94291605D01*
X128761999Y-94000000D01*
X128762000Y-94000000D01*
X128762000Y-88315630D01*
X129193338Y-87884292D01*
X128917474Y-88297152D01*
X128803400Y-88870641D01*
X128803400Y-88929359D01*
X128917474Y-89502848D01*
X129229300Y-89969529D01*
X129196277Y-89975937D01*
X128983473Y-90115727D01*
X128841023Y-90326760D01*
X128790960Y-90576400D01*
X128790960Y-92303600D01*
X128837937Y-92545723D01*
X128977727Y-92758527D01*
X129188760Y-92900977D01*
X129438400Y-92951040D01*
X131165600Y-92951040D01*
X131407723Y-92904063D01*
X131620527Y-92764273D01*
X131762977Y-92553240D01*
X131771179Y-92512340D01*
X131782330Y-92529029D01*
X132268511Y-92853885D01*
X132842000Y-92967959D01*
X133415489Y-92853885D01*
X133901670Y-92529029D01*
X134112000Y-92214248D01*
X134322330Y-92529029D01*
X134808511Y-92853885D01*
X135382000Y-92967959D01*
X135955489Y-92853885D01*
X136441670Y-92529029D01*
X136652000Y-92214248D01*
X136862330Y-92529029D01*
X137348511Y-92853885D01*
X137922000Y-92967959D01*
X138495489Y-92853885D01*
X138981670Y-92529029D01*
X139192000Y-92214248D01*
X139402330Y-92529029D01*
X139888511Y-92853885D01*
X140462000Y-92967959D01*
X141035489Y-92853885D01*
X141521670Y-92529029D01*
X141846526Y-92042848D01*
X141960600Y-91469359D01*
X141960600Y-91410641D01*
X141846526Y-90837152D01*
X141521670Y-90350971D01*
X141250839Y-90170007D01*
X141668821Y-89788490D01*
X141916968Y-89259027D01*
X141796469Y-89027000D01*
X140589000Y-89027000D01*
X140589000Y-89047000D01*
X140335000Y-89047000D01*
X140335000Y-89027000D01*
X140315000Y-89027000D01*
X140315000Y-88773000D01*
X140335000Y-88773000D01*
X140335000Y-88753000D01*
X140589000Y-88753000D01*
X140589000Y-88773000D01*
X141796469Y-88773000D01*
X141916968Y-88540973D01*
X141668821Y-88011510D01*
X141389985Y-87757000D01*
X141924369Y-87757000D01*
X145923000Y-91755630D01*
X145923000Y-101600000D01*
X145981004Y-101891605D01*
X146146185Y-102138815D01*
X149321185Y-105313815D01*
X149568395Y-105478996D01*
X149860000Y-105537000D01*
X160990425Y-105537000D01*
X160931845Y-105624672D01*
X160815000Y-106212091D01*
X160815000Y-107087909D01*
X160931845Y-107675328D01*
X161264591Y-108173318D01*
X161762581Y-108506064D01*
X162350000Y-108622909D01*
X162937419Y-108506064D01*
X163435409Y-108173318D01*
X163768155Y-107675328D01*
X163885000Y-107087909D01*
X163885000Y-106212091D01*
X163768155Y-105624672D01*
X163709574Y-105537000D01*
X168594369Y-105537000D01*
X169238000Y-106180630D01*
X169238000Y-108444449D01*
X169200298Y-108451949D01*
X168750000Y-108752828D01*
X168299702Y-108451949D01*
X167762032Y-108345000D01*
X167237968Y-108345000D01*
X166700298Y-108451949D01*
X166244483Y-108756515D01*
X165939917Y-109212330D01*
X165832968Y-109750000D01*
X165939917Y-110287670D01*
X166244483Y-110743485D01*
X166700298Y-111048051D01*
X167237968Y-111155000D01*
X167762032Y-111155000D01*
X168299702Y-111048051D01*
X168750000Y-110747171D01*
X169200298Y-111048051D01*
X169737968Y-111155000D01*
X170262032Y-111155000D01*
X170799702Y-111048051D01*
X171255517Y-110743485D01*
X171268349Y-110724279D01*
X171621288Y-111005732D01*
X172151216Y-111158397D01*
X172373000Y-111000889D01*
X172373000Y-109877000D01*
X172353000Y-109877000D01*
X172353000Y-109623000D01*
X172373000Y-109623000D01*
X172373000Y-108499111D01*
X172151216Y-108341603D01*
X171621288Y-108494268D01*
X171268349Y-108775720D01*
X171255517Y-108756515D01*
X170799702Y-108451949D01*
X170762000Y-108444449D01*
X170762000Y-105865000D01*
X170703996Y-105573396D01*
X170703996Y-105573395D01*
X170637834Y-105474376D01*
X170538816Y-105326185D01*
X169448815Y-104236185D01*
X169201605Y-104071004D01*
X168910000Y-104013000D01*
X168152130Y-104013000D01*
X168152130Y-92097692D01*
X168152130Y-91402308D01*
X168152130Y-87597692D01*
X167993277Y-87377000D01*
X166877000Y-87377000D01*
X166877000Y-88719720D01*
X167093070Y-88842220D01*
X167185230Y-88825377D01*
X167663892Y-88557020D01*
X168003422Y-88125914D01*
X168152130Y-87597692D01*
X168152130Y-91402308D01*
X168003422Y-90874086D01*
X167663892Y-90442980D01*
X167185230Y-90174623D01*
X167093070Y-90157780D01*
X166877000Y-90280280D01*
X166877000Y-91623000D01*
X167993277Y-91623000D01*
X168152130Y-91402308D01*
X168152130Y-92097692D01*
X167993277Y-91877000D01*
X166877000Y-91877000D01*
X166877000Y-93219720D01*
X167093070Y-93342220D01*
X167185230Y-93325377D01*
X167663892Y-93057020D01*
X168003422Y-92625914D01*
X168152130Y-92097692D01*
X168152130Y-104013000D01*
X166623000Y-104013000D01*
X166623000Y-93219720D01*
X166623000Y-91877000D01*
X166623000Y-91623000D01*
X166623000Y-90280280D01*
X166623000Y-88719720D01*
X166623000Y-87377000D01*
X165506723Y-87377000D01*
X165347870Y-87597692D01*
X165496578Y-88125914D01*
X165836108Y-88557020D01*
X166314770Y-88825377D01*
X166406930Y-88842220D01*
X166623000Y-88719720D01*
X166623000Y-90280280D01*
X166406930Y-90157780D01*
X166314770Y-90174623D01*
X165836108Y-90442980D01*
X165496578Y-90874086D01*
X165347870Y-91402308D01*
X165506723Y-91623000D01*
X166623000Y-91623000D01*
X166623000Y-91877000D01*
X165506723Y-91877000D01*
X165347870Y-92097692D01*
X165496578Y-92625914D01*
X165836108Y-93057020D01*
X166314770Y-93325377D01*
X166406930Y-93342220D01*
X166623000Y-93219720D01*
X166623000Y-104013000D01*
X163885000Y-104013000D01*
X163885000Y-93787909D01*
X163885000Y-92912091D01*
X163768155Y-92324672D01*
X163435409Y-91826682D01*
X162937419Y-91493936D01*
X162350000Y-91377091D01*
X161762581Y-91493936D01*
X161264591Y-91826682D01*
X160931845Y-92324672D01*
X160815000Y-92912091D01*
X160815000Y-93787909D01*
X160931845Y-94375328D01*
X161264591Y-94873318D01*
X161762581Y-95206064D01*
X162350000Y-95322909D01*
X162937419Y-95206064D01*
X163435409Y-94873318D01*
X163768155Y-94375328D01*
X163885000Y-93787909D01*
X163885000Y-104013000D01*
X160896490Y-104013000D01*
X161263892Y-103807020D01*
X161603422Y-103375914D01*
X161752130Y-102847692D01*
X161593277Y-102627000D01*
X160477000Y-102627000D01*
X160477000Y-102647000D01*
X160223000Y-102647000D01*
X160223000Y-102627000D01*
X159106723Y-102627000D01*
X158947870Y-102847692D01*
X159096578Y-103375914D01*
X159436108Y-103807020D01*
X159803509Y-104013000D01*
X150175629Y-104013000D01*
X147447000Y-101284370D01*
X147447000Y-91440000D01*
X147388996Y-91148395D01*
X147223815Y-90901185D01*
X147223815Y-90901184D01*
X142809630Y-86487000D01*
X148274370Y-86487000D01*
X152908000Y-91120630D01*
X152908000Y-98425000D01*
X152966004Y-98716605D01*
X153131185Y-98963815D01*
X154706184Y-100538815D01*
X154706185Y-100538815D01*
X154953395Y-100703996D01*
X155245000Y-100762000D01*
X159050858Y-100762000D01*
X159059340Y-100804641D01*
X159362172Y-101257860D01*
X159377135Y-101267858D01*
X159096578Y-101624086D01*
X158947870Y-102152308D01*
X159106723Y-102373000D01*
X160223000Y-102373000D01*
X160223000Y-102353000D01*
X160477000Y-102353000D01*
X160477000Y-102373000D01*
X161593277Y-102373000D01*
X161752130Y-102152308D01*
X161603422Y-101624086D01*
X161322864Y-101267858D01*
X161337828Y-101257860D01*
X161640660Y-100804641D01*
X161747000Y-100270032D01*
X161747000Y-99729968D01*
X161640660Y-99195359D01*
X161343079Y-98750000D01*
X161640660Y-98304641D01*
X161747000Y-97770032D01*
X161747000Y-97229968D01*
X161640660Y-96695359D01*
X161337828Y-96242140D01*
X160884609Y-95939308D01*
X160350000Y-95832968D01*
X159815391Y-95939308D01*
X159474629Y-96166998D01*
X158242000Y-94934369D01*
X158242000Y-90805000D01*
X158183996Y-90513396D01*
X158183996Y-90513395D01*
X158117834Y-90414376D01*
X158018816Y-90266185D01*
X154749499Y-86996869D01*
X154749687Y-86781216D01*
X154585689Y-86384311D01*
X154282286Y-86080378D01*
X153885668Y-85915687D01*
X153456216Y-85915313D01*
X153059311Y-86079311D01*
X152755378Y-86382714D01*
X152590687Y-86779332D01*
X152590313Y-87208784D01*
X152754311Y-87605689D01*
X153057714Y-87909622D01*
X153454332Y-88074313D01*
X153671872Y-88074502D01*
X156718000Y-91120630D01*
X156718000Y-95250000D01*
X156776004Y-95541605D01*
X156941185Y-95788815D01*
X158960597Y-97808228D01*
X159059340Y-98304641D01*
X159356920Y-98750000D01*
X159059340Y-99195359D01*
X159050858Y-99238000D01*
X155560630Y-99238000D01*
X154432000Y-98109369D01*
X154432000Y-90805000D01*
X154373996Y-90513396D01*
X154373996Y-90513395D01*
X154208815Y-90266185D01*
X149627630Y-85685000D01*
X166296260Y-85685000D01*
X165836108Y-85942980D01*
X165496578Y-86374086D01*
X165347870Y-86902308D01*
X165506723Y-87123000D01*
X166623000Y-87123000D01*
X166623000Y-87103000D01*
X166877000Y-87103000D01*
X166877000Y-87123000D01*
X167993277Y-87123000D01*
X168152130Y-86902308D01*
X168003422Y-86374086D01*
X167663892Y-85942980D01*
X167203739Y-85685000D01*
X172737048Y-85685000D01*
X172715391Y-85689308D01*
X172262172Y-85992140D01*
X171959340Y-86445359D01*
X171853000Y-86979968D01*
X171853000Y-87520032D01*
X171959340Y-88054641D01*
X172262172Y-88507860D01*
X172488000Y-88658753D01*
X172488000Y-90341246D01*
X172262172Y-90492140D01*
X171959340Y-90945359D01*
X171853000Y-91479968D01*
X171853000Y-92020032D01*
X171959340Y-92554641D01*
X172262172Y-93007860D01*
X172715391Y-93310692D01*
X173250000Y-93417032D01*
X173784609Y-93310692D01*
X174237828Y-93007860D01*
X174540660Y-92554641D01*
X174647000Y-92020032D01*
X174647000Y-91479968D01*
X174540660Y-90945359D01*
X174237828Y-90492140D01*
X174012000Y-90341246D01*
X174012000Y-88658753D01*
X174237828Y-88507860D01*
X174540660Y-88054641D01*
X174647000Y-87520032D01*
X174647000Y-86979968D01*
X174540660Y-86445359D01*
X174237828Y-85992140D01*
X173784609Y-85689308D01*
X173762951Y-85685000D01*
X177432532Y-85685000D01*
X179146142Y-86025857D01*
X180541675Y-86958322D01*
X181474141Y-88353855D01*
X181815000Y-90067467D01*
X181815000Y-107432532D01*
X181815000Y-107432532D01*
G37*
X181815000Y-107432532D02*
X181474141Y-109146144D01*
X181070457Y-109750299D01*
X181070457Y-88378166D01*
X180670147Y-87409342D01*
X179929557Y-86667458D01*
X178961433Y-86265458D01*
X177913166Y-86264543D01*
X176944342Y-86664853D01*
X176202458Y-87405443D01*
X175800458Y-88373567D01*
X175799543Y-89421834D01*
X176199853Y-90390658D01*
X176940443Y-91132542D01*
X177568448Y-91393312D01*
X177062581Y-91493936D01*
X176564591Y-91826682D01*
X176231845Y-92324672D01*
X176115000Y-92912091D01*
X176115000Y-93787909D01*
X176231845Y-94375328D01*
X176564591Y-94873318D01*
X177062581Y-95206064D01*
X177650000Y-95322909D01*
X178237419Y-95206064D01*
X178735409Y-94873318D01*
X179068155Y-94375328D01*
X179185000Y-93787909D01*
X179185000Y-92912091D01*
X179068155Y-92324672D01*
X178735409Y-91826682D01*
X178298699Y-91534882D01*
X178956834Y-91535457D01*
X179925658Y-91135147D01*
X180667542Y-90394557D01*
X181069542Y-89426433D01*
X181070457Y-88378166D01*
X181070457Y-109750299D01*
X180541675Y-110541677D01*
X179185000Y-111448177D01*
X179185000Y-107087909D01*
X179185000Y-106212091D01*
X179068155Y-105624672D01*
X178735409Y-105126682D01*
X178237419Y-104793936D01*
X177650000Y-104677091D01*
X177062581Y-104793936D01*
X176564591Y-105126682D01*
X176231845Y-105624672D01*
X176115000Y-106212091D01*
X176115000Y-107087909D01*
X176231845Y-107675328D01*
X176564591Y-108173318D01*
X177062581Y-108506064D01*
X177650000Y-108622909D01*
X178237419Y-108506064D01*
X178735409Y-108173318D01*
X179068155Y-107675328D01*
X179185000Y-107087909D01*
X179185000Y-111448177D01*
X179146142Y-111474142D01*
X177432532Y-111815000D01*
X174092154Y-111815000D01*
X174092154Y-110094327D01*
X174092154Y-109405673D01*
X174076646Y-109320772D01*
X173809880Y-108838106D01*
X173378712Y-108494268D01*
X172848784Y-108341603D01*
X172627000Y-108499111D01*
X172627000Y-109623000D01*
X173969762Y-109623000D01*
X174092154Y-109405673D01*
X174092154Y-110094327D01*
X173969762Y-109877000D01*
X172627000Y-109877000D01*
X172627000Y-111000889D01*
X172848784Y-111158397D01*
X173378712Y-111005732D01*
X173809880Y-110661894D01*
X174076646Y-110179228D01*
X174092154Y-110094327D01*
X174092154Y-111815000D01*
X158099747Y-111815000D01*
X158970658Y-111455147D01*
X159712542Y-110714557D01*
X160114542Y-109746433D01*
X160115457Y-108698166D01*
X159715147Y-107729342D01*
X158974557Y-106987458D01*
X158006433Y-106585458D01*
X156958166Y-106584543D01*
X155989342Y-106984853D01*
X155247458Y-107725443D01*
X154845458Y-108693567D01*
X154844543Y-109741834D01*
X155244853Y-110710658D01*
X155985443Y-111452542D01*
X156858339Y-111815000D01*
X113014747Y-111815000D01*
X113885658Y-111455147D01*
X114627542Y-110714557D01*
X115029542Y-109746433D01*
X115030457Y-108698166D01*
X114630147Y-107729342D01*
X113889557Y-106987458D01*
X112921433Y-106585458D01*
X111873166Y-106584543D01*
X110904342Y-106984853D01*
X110162458Y-107725443D01*
X109760458Y-108693567D01*
X109759543Y-109741834D01*
X110159853Y-110710658D01*
X110900443Y-111452542D01*
X111773339Y-111815000D01*
X109185000Y-111815000D01*
X109185000Y-107087909D01*
X109185000Y-106212091D01*
X109068155Y-105624672D01*
X108735409Y-105126682D01*
X108237419Y-104793936D01*
X107650000Y-104677091D01*
X107062581Y-104793936D01*
X106564591Y-105126682D01*
X106231845Y-105624672D01*
X106115000Y-106212091D01*
X106115000Y-107087909D01*
X106231845Y-107675328D01*
X106564591Y-108173318D01*
X107062581Y-108506064D01*
X107650000Y-108622909D01*
X108237419Y-108506064D01*
X108735409Y-108173318D01*
X109068155Y-107675328D01*
X109185000Y-107087909D01*
X109185000Y-111815000D01*
X104092154Y-111815000D01*
X104092154Y-110094327D01*
X104092154Y-109405673D01*
X104076646Y-109320772D01*
X103809880Y-108838106D01*
X103378712Y-108494268D01*
X102848784Y-108341603D01*
X102627000Y-108499111D01*
X102627000Y-109623000D01*
X103969762Y-109623000D01*
X104092154Y-109405673D01*
X104092154Y-110094327D01*
X103969762Y-109877000D01*
X102627000Y-109877000D01*
X102627000Y-111000889D01*
X102848784Y-111158397D01*
X103378712Y-111005732D01*
X103809880Y-110661894D01*
X104076646Y-110179228D01*
X104092154Y-110094327D01*
X104092154Y-111815000D01*
X92567467Y-111815000D01*
X90853855Y-111474141D01*
X89458322Y-110541675D01*
X88525857Y-109146142D01*
X88340461Y-108214091D01*
X90415185Y-110288815D01*
X90662395Y-110453996D01*
X90954000Y-110512000D01*
X96089809Y-110512000D01*
X96244483Y-110743485D01*
X96700298Y-111048051D01*
X97237968Y-111155000D01*
X97762032Y-111155000D01*
X98299702Y-111048051D01*
X98750000Y-110747171D01*
X99200298Y-111048051D01*
X99737968Y-111155000D01*
X100262032Y-111155000D01*
X100799702Y-111048051D01*
X101255517Y-110743485D01*
X101268349Y-110724279D01*
X101621288Y-111005732D01*
X102151216Y-111158397D01*
X102373000Y-111000889D01*
X102373000Y-109877000D01*
X102353000Y-109877000D01*
X102353000Y-109623000D01*
X102373000Y-109623000D01*
X102373000Y-108499111D01*
X102151216Y-108341603D01*
X101621288Y-108494268D01*
X101268349Y-108775720D01*
X101255517Y-108756515D01*
X100799702Y-108451949D01*
X100762000Y-108444449D01*
X100762000Y-104315630D01*
X106315630Y-98762000D01*
X124000000Y-98762000D01*
X124000000Y-98761999D01*
X124291604Y-98703996D01*
X124291605Y-98703996D01*
X124538815Y-98538815D01*
X128538815Y-94538816D01*
X128538815Y-94538815D01*
X128703996Y-94291605D01*
X128761999Y-94000000D01*
X128762000Y-94000000D01*
X128762000Y-88315630D01*
X129193338Y-87884292D01*
X128917474Y-88297152D01*
X128803400Y-88870641D01*
X128803400Y-88929359D01*
X128917474Y-89502848D01*
X129229300Y-89969529D01*
X129196277Y-89975937D01*
X128983473Y-90115727D01*
X128841023Y-90326760D01*
X128790960Y-90576400D01*
X128790960Y-92303600D01*
X128837937Y-92545723D01*
X128977727Y-92758527D01*
X129188760Y-92900977D01*
X129438400Y-92951040D01*
X131165600Y-92951040D01*
X131407723Y-92904063D01*
X131620527Y-92764273D01*
X131762977Y-92553240D01*
X131771179Y-92512340D01*
X131782330Y-92529029D01*
X132268511Y-92853885D01*
X132842000Y-92967959D01*
X133415489Y-92853885D01*
X133901670Y-92529029D01*
X134112000Y-92214248D01*
X134322330Y-92529029D01*
X134808511Y-92853885D01*
X135382000Y-92967959D01*
X135955489Y-92853885D01*
X136441670Y-92529029D01*
X136652000Y-92214248D01*
X136862330Y-92529029D01*
X137348511Y-92853885D01*
X137922000Y-92967959D01*
X138495489Y-92853885D01*
X138981670Y-92529029D01*
X139192000Y-92214248D01*
X139402330Y-92529029D01*
X139888511Y-92853885D01*
X140462000Y-92967959D01*
X141035489Y-92853885D01*
X141521670Y-92529029D01*
X141846526Y-92042848D01*
X141960600Y-91469359D01*
X141960600Y-91410641D01*
X141846526Y-90837152D01*
X141521670Y-90350971D01*
X141250839Y-90170007D01*
X141668821Y-89788490D01*
X141916968Y-89259027D01*
X141796469Y-89027000D01*
X140589000Y-89027000D01*
X140589000Y-89047000D01*
X140335000Y-89047000D01*
X140335000Y-89027000D01*
X140315000Y-89027000D01*
X140315000Y-88773000D01*
X140335000Y-88773000D01*
X140335000Y-88753000D01*
X140589000Y-88753000D01*
X140589000Y-88773000D01*
X141796469Y-88773000D01*
X141916968Y-88540973D01*
X141668821Y-88011510D01*
X141389985Y-87757000D01*
X141924369Y-87757000D01*
X145923000Y-91755630D01*
X145923000Y-101600000D01*
X145981004Y-101891605D01*
X146146185Y-102138815D01*
X149321185Y-105313815D01*
X149568395Y-105478996D01*
X149860000Y-105537000D01*
X160990425Y-105537000D01*
X160931845Y-105624672D01*
X160815000Y-106212091D01*
X160815000Y-107087909D01*
X160931845Y-107675328D01*
X161264591Y-108173318D01*
X161762581Y-108506064D01*
X162350000Y-108622909D01*
X162937419Y-108506064D01*
X163435409Y-108173318D01*
X163768155Y-107675328D01*
X163885000Y-107087909D01*
X163885000Y-106212091D01*
X163768155Y-105624672D01*
X163709574Y-105537000D01*
X168594369Y-105537000D01*
X169238000Y-106180630D01*
X169238000Y-108444449D01*
X169200298Y-108451949D01*
X168750000Y-108752828D01*
X168299702Y-108451949D01*
X167762032Y-108345000D01*
X167237968Y-108345000D01*
X166700298Y-108451949D01*
X166244483Y-108756515D01*
X165939917Y-109212330D01*
X165832968Y-109750000D01*
X165939917Y-110287670D01*
X166244483Y-110743485D01*
X166700298Y-111048051D01*
X167237968Y-111155000D01*
X167762032Y-111155000D01*
X168299702Y-111048051D01*
X168750000Y-110747171D01*
X169200298Y-111048051D01*
X169737968Y-111155000D01*
X170262032Y-111155000D01*
X170799702Y-111048051D01*
X171255517Y-110743485D01*
X171268349Y-110724279D01*
X171621288Y-111005732D01*
X172151216Y-111158397D01*
X172373000Y-111000889D01*
X172373000Y-109877000D01*
X172353000Y-109877000D01*
X172353000Y-109623000D01*
X172373000Y-109623000D01*
X172373000Y-108499111D01*
X172151216Y-108341603D01*
X171621288Y-108494268D01*
X171268349Y-108775720D01*
X171255517Y-108756515D01*
X170799702Y-108451949D01*
X170762000Y-108444449D01*
X170762000Y-105865000D01*
X170703996Y-105573396D01*
X170703996Y-105573395D01*
X170637834Y-105474376D01*
X170538816Y-105326185D01*
X169448815Y-104236185D01*
X169201605Y-104071004D01*
X168910000Y-104013000D01*
X168152130Y-104013000D01*
X168152130Y-92097692D01*
X168152130Y-91402308D01*
X168152130Y-87597692D01*
X167993277Y-87377000D01*
X166877000Y-87377000D01*
X166877000Y-88719720D01*
X167093070Y-88842220D01*
X167185230Y-88825377D01*
X167663892Y-88557020D01*
X168003422Y-88125914D01*
X168152130Y-87597692D01*
X168152130Y-91402308D01*
X168003422Y-90874086D01*
X167663892Y-90442980D01*
X167185230Y-90174623D01*
X167093070Y-90157780D01*
X166877000Y-90280280D01*
X166877000Y-91623000D01*
X167993277Y-91623000D01*
X168152130Y-91402308D01*
X168152130Y-92097692D01*
X167993277Y-91877000D01*
X166877000Y-91877000D01*
X166877000Y-93219720D01*
X167093070Y-93342220D01*
X167185230Y-93325377D01*
X167663892Y-93057020D01*
X168003422Y-92625914D01*
X168152130Y-92097692D01*
X168152130Y-104013000D01*
X166623000Y-104013000D01*
X166623000Y-93219720D01*
X166623000Y-91877000D01*
X166623000Y-91623000D01*
X166623000Y-90280280D01*
X166623000Y-88719720D01*
X166623000Y-87377000D01*
X165506723Y-87377000D01*
X165347870Y-87597692D01*
X165496578Y-88125914D01*
X165836108Y-88557020D01*
X166314770Y-88825377D01*
X166406930Y-88842220D01*
X166623000Y-88719720D01*
X166623000Y-90280280D01*
X166406930Y-90157780D01*
X166314770Y-90174623D01*
X165836108Y-90442980D01*
X165496578Y-90874086D01*
X165347870Y-91402308D01*
X165506723Y-91623000D01*
X166623000Y-91623000D01*
X166623000Y-91877000D01*
X165506723Y-91877000D01*
X165347870Y-92097692D01*
X165496578Y-92625914D01*
X165836108Y-93057020D01*
X166314770Y-93325377D01*
X166406930Y-93342220D01*
X166623000Y-93219720D01*
X166623000Y-104013000D01*
X163885000Y-104013000D01*
X163885000Y-93787909D01*
X163885000Y-92912091D01*
X163768155Y-92324672D01*
X163435409Y-91826682D01*
X162937419Y-91493936D01*
X162350000Y-91377091D01*
X161762581Y-91493936D01*
X161264591Y-91826682D01*
X160931845Y-92324672D01*
X160815000Y-92912091D01*
X160815000Y-93787909D01*
X160931845Y-94375328D01*
X161264591Y-94873318D01*
X161762581Y-95206064D01*
X162350000Y-95322909D01*
X162937419Y-95206064D01*
X163435409Y-94873318D01*
X163768155Y-94375328D01*
X163885000Y-93787909D01*
X163885000Y-104013000D01*
X160896490Y-104013000D01*
X161263892Y-103807020D01*
X161603422Y-103375914D01*
X161752130Y-102847692D01*
X161593277Y-102627000D01*
X160477000Y-102627000D01*
X160477000Y-102647000D01*
X160223000Y-102647000D01*
X160223000Y-102627000D01*
X159106723Y-102627000D01*
X158947870Y-102847692D01*
X159096578Y-103375914D01*
X159436108Y-103807020D01*
X159803509Y-104013000D01*
X150175629Y-104013000D01*
X147447000Y-101284370D01*
X147447000Y-91440000D01*
X147388996Y-91148395D01*
X147223815Y-90901185D01*
X147223815Y-90901184D01*
X142809630Y-86487000D01*
X148274370Y-86487000D01*
X152908000Y-91120630D01*
X152908000Y-98425000D01*
X152966004Y-98716605D01*
X153131185Y-98963815D01*
X154706184Y-100538815D01*
X154706185Y-100538815D01*
X154953395Y-100703996D01*
X155245000Y-100762000D01*
X159050858Y-100762000D01*
X159059340Y-100804641D01*
X159362172Y-101257860D01*
X159377135Y-101267858D01*
X159096578Y-101624086D01*
X158947870Y-102152308D01*
X159106723Y-102373000D01*
X160223000Y-102373000D01*
X160223000Y-102353000D01*
X160477000Y-102353000D01*
X160477000Y-102373000D01*
X161593277Y-102373000D01*
X161752130Y-102152308D01*
X161603422Y-101624086D01*
X161322864Y-101267858D01*
X161337828Y-101257860D01*
X161640660Y-100804641D01*
X161747000Y-100270032D01*
X161747000Y-99729968D01*
X161640660Y-99195359D01*
X161343079Y-98750000D01*
X161640660Y-98304641D01*
X161747000Y-97770032D01*
X161747000Y-97229968D01*
X161640660Y-96695359D01*
X161337828Y-96242140D01*
X160884609Y-95939308D01*
X160350000Y-95832968D01*
X159815391Y-95939308D01*
X159474629Y-96166998D01*
X158242000Y-94934369D01*
X158242000Y-90805000D01*
X158183996Y-90513396D01*
X158183996Y-90513395D01*
X158117834Y-90414376D01*
X158018816Y-90266185D01*
X154749499Y-86996869D01*
X154749687Y-86781216D01*
X154585689Y-86384311D01*
X154282286Y-86080378D01*
X153885668Y-85915687D01*
X153456216Y-85915313D01*
X153059311Y-86079311D01*
X152755378Y-86382714D01*
X152590687Y-86779332D01*
X152590313Y-87208784D01*
X152754311Y-87605689D01*
X153057714Y-87909622D01*
X153454332Y-88074313D01*
X153671872Y-88074502D01*
X156718000Y-91120630D01*
X156718000Y-95250000D01*
X156776004Y-95541605D01*
X156941185Y-95788815D01*
X158960597Y-97808228D01*
X159059340Y-98304641D01*
X159356920Y-98750000D01*
X159059340Y-99195359D01*
X159050858Y-99238000D01*
X155560630Y-99238000D01*
X154432000Y-98109369D01*
X154432000Y-90805000D01*
X154373996Y-90513396D01*
X154373996Y-90513395D01*
X154208815Y-90266185D01*
X149627630Y-85685000D01*
X166296260Y-85685000D01*
X165836108Y-85942980D01*
X165496578Y-86374086D01*
X165347870Y-86902308D01*
X165506723Y-87123000D01*
X166623000Y-87123000D01*
X166623000Y-87103000D01*
X166877000Y-87103000D01*
X166877000Y-87123000D01*
X167993277Y-87123000D01*
X168152130Y-86902308D01*
X168003422Y-86374086D01*
X167663892Y-85942980D01*
X167203739Y-85685000D01*
X172737048Y-85685000D01*
X172715391Y-85689308D01*
X172262172Y-85992140D01*
X171959340Y-86445359D01*
X171853000Y-86979968D01*
X171853000Y-87520032D01*
X171959340Y-88054641D01*
X172262172Y-88507860D01*
X172488000Y-88658753D01*
X172488000Y-90341246D01*
X172262172Y-90492140D01*
X171959340Y-90945359D01*
X171853000Y-91479968D01*
X171853000Y-92020032D01*
X171959340Y-92554641D01*
X172262172Y-93007860D01*
X172715391Y-93310692D01*
X173250000Y-93417032D01*
X173784609Y-93310692D01*
X174237828Y-93007860D01*
X174540660Y-92554641D01*
X174647000Y-92020032D01*
X174647000Y-91479968D01*
X174540660Y-90945359D01*
X174237828Y-90492140D01*
X174012000Y-90341246D01*
X174012000Y-88658753D01*
X174237828Y-88507860D01*
X174540660Y-88054641D01*
X174647000Y-87520032D01*
X174647000Y-86979968D01*
X174540660Y-86445359D01*
X174237828Y-85992140D01*
X173784609Y-85689308D01*
X173762951Y-85685000D01*
X177432532Y-85685000D01*
X179146142Y-86025857D01*
X180541675Y-86958322D01*
X181474141Y-88353855D01*
X181815000Y-90067467D01*
X181815000Y-107432532D01*
M02*
