G04 #@! TF.FileFunction,Soldermask,Bot*
%FSLAX46Y46*%
G04 Gerber Fmt 4.6, Leading zero omitted, Abs format (unit mm)*
G04 Created by KiCad (PCBNEW (2015-01-16 BZR 5376)-product) date 28/04/2015 16:45:27*
%MOMM*%
G01*
G04 APERTURE LIST*
%ADD10C,0.100000*%
%ADD11C,4.000000*%
%ADD12R,1.300000X1.300000*%
%ADD13C,1.300000*%
%ADD14O,1.800000X2.600000*%
%ADD15O,1.524000X2.000000*%
%ADD16O,2.000000X1.540000*%
%ADD17R,1.727200X1.727200*%
%ADD18O,1.727200X1.727200*%
G04 APERTURE END LIST*
D10*
D11*
X91440000Y-88900000D03*
X157480000Y-109220000D03*
X178435000Y-88900000D03*
X112395000Y-109220000D03*
D12*
X125000000Y-87500000D03*
D13*
X125000000Y-90000000D03*
D14*
X162350000Y-93350000D03*
X177650000Y-93350000D03*
X177650000Y-106650000D03*
X162350000Y-106650000D03*
D15*
X160350000Y-100000000D03*
X160350000Y-97500000D03*
X160350000Y-102500000D03*
D16*
X170000000Y-109750000D03*
X167500000Y-109750000D03*
X172500000Y-109750000D03*
D15*
X166750000Y-91750000D03*
X173250000Y-91750000D03*
X173250000Y-87250000D03*
X166750000Y-87250000D03*
D14*
X92350000Y-93350000D03*
X107650000Y-93350000D03*
X107650000Y-106650000D03*
X92350000Y-106650000D03*
D15*
X90350000Y-100000000D03*
X90350000Y-97500000D03*
X90350000Y-102500000D03*
D16*
X100000000Y-109750000D03*
X97500000Y-109750000D03*
X102500000Y-109750000D03*
D15*
X96750000Y-91750000D03*
X103250000Y-91750000D03*
X103250000Y-87250000D03*
X96750000Y-87250000D03*
D17*
X130302000Y-91440000D03*
D18*
X130302000Y-88900000D03*
X132842000Y-91440000D03*
X132842000Y-88900000D03*
X135382000Y-91440000D03*
X135382000Y-88900000D03*
X137922000Y-91440000D03*
X137922000Y-88900000D03*
X140462000Y-91440000D03*
X140462000Y-88900000D03*
M02*
