M48
;DRILL file {pcbnew (2015-01-16 BZR 5376)-product} date 23/06/2015 14:14:00
;FORMAT={-:-/ absolute / inch / decimal}
FMAT,2
INCH,TZ
T1C0.012
T2C0.025
T3C0.030
T4C0.031
T5C0.032
T6C0.035
T7C0.040
T8C0.055
T9C0.118
%
G90
G05
M72
T1
X2.15Y-3.785
X2.15Y-5.135
X2.15Y-6.485
X2.17Y-3.785
X2.17Y-5.135
X2.17Y-6.485
X2.19Y-3.785
X2.19Y-5.135
X2.19Y-6.485
X2.21Y-3.785
X2.21Y-5.135
X2.21Y-6.485
X2.23Y-3.785
X2.23Y-5.135
X2.23Y-6.485
X3.55Y-2.675
X3.55Y-4.025
X3.55Y-5.375
X3.57Y-2.675
X3.57Y-4.025
X3.57Y-5.375
X3.59Y-2.675
X3.59Y-4.025
X3.59Y-5.375
X3.61Y-2.675
X3.61Y-4.025
X3.61Y-5.375
X3.63Y-2.675
X3.63Y-4.025
X3.63Y-5.375
X4.93Y-3.785
X4.93Y-5.135
X4.93Y-6.485
X4.95Y-3.785
X4.95Y-5.135
X4.95Y-6.485
X4.97Y-3.785
X4.97Y-5.135
X4.97Y-6.485
X4.99Y-3.785
X4.99Y-5.135
X4.99Y-6.485
X5.01Y-3.785
X5.01Y-5.135
X5.01Y-6.485
X6.15Y-3.785
X6.15Y-5.135
X6.15Y-6.485
X6.17Y-3.785
X6.17Y-5.135
X6.17Y-6.485
X6.19Y-3.785
X6.19Y-5.135
X6.19Y-6.485
X6.21Y-3.785
X6.21Y-5.135
X6.21Y-6.485
X6.23Y-3.785
X6.23Y-5.135
X6.23Y-6.485
X7.55Y-2.675
X7.55Y-4.025
X7.55Y-5.375
X7.57Y-2.675
X7.57Y-4.025
X7.57Y-5.375
X7.59Y-2.675
X7.59Y-4.025
X7.59Y-5.375
X7.61Y-2.675
X7.61Y-4.025
X7.61Y-5.375
X7.63Y-2.675
X7.63Y-4.025
X7.63Y-5.375
X8.93Y-3.785
X8.93Y-5.135
X8.93Y-6.485
X8.95Y-3.785
X8.95Y-5.135
X8.95Y-6.485
X8.97Y-3.785
X8.97Y-5.135
X8.97Y-6.485
X8.99Y-3.785
X8.99Y-5.135
X8.99Y-6.485
X9.01Y-3.785
X9.01Y-5.135
X9.01Y-6.485
T2
X4.32Y-2.765
X4.32Y-4.115
X4.32Y-5.465
X8.32Y-2.765
X8.32Y-4.115
X8.32Y-5.465
T3
X2.0791Y-2.775
X2.0791Y-2.9522
X2.0791Y-4.125
X2.0791Y-4.3022
X2.0791Y-5.475
X2.0791Y-5.6522
X2.335Y-2.775
X2.335Y-2.9522
X2.335Y-4.125
X2.335Y-4.3022
X2.335Y-5.475
X2.335Y-5.6522
X4.835Y-2.775
X4.835Y-2.9522
X4.835Y-4.125
X4.835Y-4.3022
X4.835Y-5.475
X4.835Y-5.6522
X5.0909Y-2.775
X5.0909Y-2.9522
X5.0909Y-4.125
X5.0909Y-4.3022
X5.0909Y-5.475
X5.0909Y-5.6522
X6.0791Y-2.775
X6.0791Y-2.9522
X6.0791Y-4.125
X6.0791Y-4.3022
X6.0791Y-5.475
X6.0791Y-5.6522
X6.335Y-2.775
X6.335Y-2.9522
X6.335Y-4.125
X6.335Y-4.3022
X6.335Y-5.475
X6.335Y-5.6522
X8.835Y-2.775
X8.835Y-2.9522
X8.835Y-4.125
X8.835Y-4.3022
X8.835Y-5.475
X8.835Y-5.6522
X9.0909Y-2.775
X9.0909Y-2.9522
X9.0909Y-4.125
X9.0909Y-4.3022
X9.0909Y-5.475
X9.0909Y-5.6522
T4
X3.1913Y-2.7849
X3.1913Y-4.1349
X3.1913Y-5.4849
X7.1913Y-2.7849
X7.1913Y-4.1349
X7.1913Y-5.4849
T5
X3.1913Y-2.8833
X3.1913Y-4.2333
X3.1913Y-5.5833
X7.1913Y-2.8833
X7.1913Y-4.2333
X7.1913Y-5.5833
T6
X1.8271Y-3.1786
X1.8271Y-3.277
X1.8271Y-3.3754
X1.8271Y-4.5286
X1.8271Y-4.627
X1.8271Y-4.7254
X1.8271Y-5.8786
X1.8271Y-5.977
X1.8271Y-6.0754
X2.1086Y-3.6609
X2.1086Y-5.0109
X2.1086Y-6.3609
X2.207Y-3.6609
X2.207Y-5.0109
X2.207Y-6.3609
X2.3054Y-3.6609
X2.3054Y-5.0109
X2.3054Y-6.3609
X4.583Y-3.1786
X4.583Y-3.277
X4.583Y-3.3754
X4.583Y-4.5286
X4.583Y-4.627
X4.583Y-4.7254
X4.583Y-5.8786
X4.583Y-5.977
X4.583Y-6.0754
X4.8645Y-3.6609
X4.8645Y-5.0109
X4.8645Y-6.3609
X4.9629Y-3.6609
X4.9629Y-5.0109
X4.9629Y-6.3609
X5.0613Y-3.6609
X5.0613Y-5.0109
X5.0613Y-6.3609
X5.8271Y-3.1786
X5.8271Y-3.277
X5.8271Y-3.3754
X5.8271Y-4.5286
X5.8271Y-4.627
X5.8271Y-4.7254
X5.8271Y-5.8786
X5.8271Y-5.977
X5.8271Y-6.0754
X6.1086Y-3.6609
X6.1086Y-5.0109
X6.1086Y-6.3609
X6.207Y-3.6609
X6.207Y-5.0109
X6.207Y-6.3609
X6.3054Y-3.6609
X6.3054Y-5.0109
X6.3054Y-6.3609
X8.583Y-3.1786
X8.583Y-3.277
X8.583Y-3.3754
X8.583Y-4.5286
X8.583Y-4.627
X8.583Y-4.7254
X8.583Y-5.8786
X8.583Y-5.977
X8.583Y-6.0754
X8.8645Y-3.6609
X8.8645Y-5.0109
X8.8645Y-6.3609
X8.9629Y-3.6609
X8.9629Y-5.0109
X8.9629Y-6.3609
X9.0613Y-3.6609
X9.0613Y-5.0109
X9.0613Y-6.3609
T7
X3.4Y-2.84
X3.4Y-2.94
X3.4Y-4.19
X3.4Y-4.29
X3.4Y-5.54
X3.4Y-5.64
X3.5Y-2.84
X3.5Y-2.94
X3.5Y-4.19
X3.5Y-4.29
X3.5Y-5.54
X3.5Y-5.64
X3.6Y-2.84
X3.6Y-2.94
X3.6Y-4.19
X3.6Y-4.29
X3.6Y-5.54
X3.6Y-5.64
X3.7Y-2.84
X3.7Y-2.94
X3.7Y-4.19
X3.7Y-4.29
X3.7Y-5.54
X3.7Y-5.64
X3.8Y-2.84
X3.8Y-2.94
X3.8Y-4.19
X3.8Y-4.29
X3.8Y-5.54
X3.8Y-5.64
X7.4Y-2.84
X7.4Y-2.94
X7.4Y-4.19
X7.4Y-4.29
X7.4Y-5.54
X7.4Y-5.64
X7.5Y-2.84
X7.5Y-2.94
X7.5Y-4.19
X7.5Y-4.29
X7.5Y-5.54
X7.5Y-5.64
X7.6Y-2.84
X7.6Y-2.94
X7.6Y-4.19
X7.6Y-4.29
X7.6Y-5.54
X7.6Y-5.64
X7.7Y-2.84
X7.7Y-2.94
X7.7Y-4.19
X7.7Y-4.29
X7.7Y-5.54
X7.7Y-5.64
X7.8Y-2.84
X7.8Y-2.94
X7.8Y-4.19
X7.8Y-4.29
X7.8Y-5.54
X7.8Y-5.64
T8
X1.9058Y-3.0152
X1.9058Y-3.5388
X1.9058Y-4.3652
X1.9058Y-4.8888
X1.9058Y-5.7152
X1.9058Y-6.2388
X2.5082Y-3.0152
X2.5082Y-3.5388
X2.5082Y-4.3652
X2.5082Y-4.8888
X2.5082Y-5.7152
X2.5082Y-6.2388
X4.6617Y-3.0152
X4.6617Y-3.5388
X4.6617Y-4.3652
X4.6617Y-4.8888
X4.6617Y-5.7152
X4.6617Y-6.2388
X5.2641Y-3.0152
X5.2641Y-3.5388
X5.2641Y-4.3652
X5.2641Y-4.8888
X5.2641Y-5.7152
X5.2641Y-6.2388
X5.9058Y-3.0152
X5.9058Y-3.5388
X5.9058Y-4.3652
X5.9058Y-4.8888
X5.9058Y-5.7152
X5.9058Y-6.2388
X6.5082Y-3.0152
X6.5082Y-3.5388
X6.5082Y-4.3652
X6.5082Y-4.8888
X6.5082Y-5.7152
X6.5082Y-6.2388
X8.6617Y-3.0152
X8.6617Y-3.5388
X8.6617Y-4.3652
X8.6617Y-4.8888
X8.6617Y-5.7152
X8.6617Y-6.2388
X9.2641Y-3.0152
X9.2641Y-3.5388
X9.2641Y-4.3652
X9.2641Y-4.8888
X9.2641Y-5.7152
X9.2641Y-6.2388
T9
X1.5Y-2.7
X1.5Y-6.45
X1.87Y-2.84
X1.87Y-4.19
X1.87Y-5.54
X2.695Y-3.64
X2.695Y-4.99
X2.695Y-6.34
X4.47Y-3.64
X4.47Y-4.99
X4.47Y-6.34
X5.295Y-2.84
X5.295Y-4.19
X5.295Y-5.54
X5.87Y-2.84
X5.87Y-4.19
X5.87Y-5.54
X6.695Y-3.64
X6.695Y-4.99
X6.695Y-6.34
X8.47Y-3.64
X8.47Y-4.99
X8.47Y-6.34
X9.295Y-2.84
X9.295Y-4.19
X9.295Y-5.54
X9.65Y-2.7
X9.65Y-6.1
T0
M30
