G04 #@! TF.FileFunction,Legend,Top*
%FSLAX46Y46*%
G04 Gerber Fmt 4.6, Leading zero omitted, Abs format (unit mm)*
G04 Created by KiCad (PCBNEW (2015-01-16 BZR 5376)-product) date 28/04/2015 16:45:27*
%MOMM*%
G01*
G04 APERTURE LIST*
%ADD10C,0.100000*%
%ADD11C,0.300000*%
%ADD12C,0.150000*%
%ADD13C,4.000000*%
%ADD14R,1.300000X1.300000*%
%ADD15C,1.300000*%
%ADD16O,1.800000X2.600000*%
%ADD17O,1.524000X2.000000*%
%ADD18O,2.000000X1.540000*%
%ADD19R,1.727200X1.727200*%
%ADD20O,1.727200X1.727200*%
G04 APERTURE END LIST*
D10*
D11*
X129227143Y-101483571D02*
X129227143Y-102555000D01*
X129155715Y-102769286D01*
X129012858Y-102912143D01*
X128798572Y-102983571D01*
X128655715Y-102983571D01*
X130155715Y-102983571D02*
X130012857Y-102912143D01*
X129941429Y-102840714D01*
X129870000Y-102697857D01*
X129870000Y-102269286D01*
X129941429Y-102126429D01*
X130012857Y-102055000D01*
X130155715Y-101983571D01*
X130370000Y-101983571D01*
X130512857Y-102055000D01*
X130584286Y-102126429D01*
X130655715Y-102269286D01*
X130655715Y-102697857D01*
X130584286Y-102840714D01*
X130512857Y-102912143D01*
X130370000Y-102983571D01*
X130155715Y-102983571D01*
X131155715Y-101983571D02*
X131512858Y-102983571D01*
X131870000Y-101983571D02*
X131512858Y-102983571D01*
X131370000Y-103340714D01*
X131298572Y-103412143D01*
X131155715Y-103483571D01*
X133798572Y-102983571D02*
X133655714Y-102912143D01*
X133584286Y-102840714D01*
X133512857Y-102697857D01*
X133512857Y-102269286D01*
X133584286Y-102126429D01*
X133655714Y-102055000D01*
X133798572Y-101983571D01*
X134012857Y-101983571D01*
X134155714Y-102055000D01*
X134227143Y-102126429D01*
X134298572Y-102269286D01*
X134298572Y-102697857D01*
X134227143Y-102840714D01*
X134155714Y-102912143D01*
X134012857Y-102983571D01*
X133798572Y-102983571D01*
X134727143Y-101983571D02*
X135298572Y-101983571D01*
X134941429Y-102983571D02*
X134941429Y-101697857D01*
X135012857Y-101555000D01*
X135155715Y-101483571D01*
X135298572Y-101483571D01*
X136870000Y-102912143D02*
X137084286Y-102983571D01*
X137441429Y-102983571D01*
X137584286Y-102912143D01*
X137655715Y-102840714D01*
X137727143Y-102697857D01*
X137727143Y-102555000D01*
X137655715Y-102412143D01*
X137584286Y-102340714D01*
X137441429Y-102269286D01*
X137155715Y-102197857D01*
X137012857Y-102126429D01*
X136941429Y-102055000D01*
X136870000Y-101912143D01*
X136870000Y-101769286D01*
X136941429Y-101626429D01*
X137012857Y-101555000D01*
X137155715Y-101483571D01*
X137512857Y-101483571D01*
X137727143Y-101555000D01*
X138155714Y-101983571D02*
X138727143Y-101983571D01*
X138370000Y-101483571D02*
X138370000Y-102769286D01*
X138441428Y-102912143D01*
X138584286Y-102983571D01*
X138727143Y-102983571D01*
X139227143Y-102983571D02*
X139227143Y-101983571D01*
X139227143Y-101483571D02*
X139155714Y-101555000D01*
X139227143Y-101626429D01*
X139298571Y-101555000D01*
X139227143Y-101483571D01*
X139227143Y-101626429D01*
X139798572Y-102983571D02*
X140584286Y-101983571D01*
X139798572Y-101983571D02*
X140584286Y-102983571D01*
X119048572Y-104955000D02*
X119762858Y-104955000D01*
X118905715Y-105383571D02*
X119405715Y-103883571D01*
X119905715Y-105383571D01*
X121548572Y-105383571D02*
X121548572Y-103883571D01*
X122191429Y-105383571D02*
X122191429Y-104597857D01*
X122120000Y-104455000D01*
X121977143Y-104383571D01*
X121762858Y-104383571D01*
X121620000Y-104455000D01*
X121548572Y-104526429D01*
X123548572Y-105383571D02*
X123548572Y-104597857D01*
X123477143Y-104455000D01*
X123334286Y-104383571D01*
X123048572Y-104383571D01*
X122905715Y-104455000D01*
X123548572Y-105312143D02*
X123405715Y-105383571D01*
X123048572Y-105383571D01*
X122905715Y-105312143D01*
X122834286Y-105169286D01*
X122834286Y-105026429D01*
X122905715Y-104883571D01*
X123048572Y-104812143D01*
X123405715Y-104812143D01*
X123548572Y-104740714D01*
X124262858Y-104383571D02*
X124262858Y-105883571D01*
X124262858Y-104455000D02*
X124405715Y-104383571D01*
X124691429Y-104383571D01*
X124834286Y-104455000D01*
X124905715Y-104526429D01*
X124977144Y-104669286D01*
X124977144Y-105097857D01*
X124905715Y-105240714D01*
X124834286Y-105312143D01*
X124691429Y-105383571D01*
X124405715Y-105383571D01*
X124262858Y-105312143D01*
X125620001Y-104383571D02*
X125620001Y-105883571D01*
X125620001Y-104455000D02*
X125762858Y-104383571D01*
X126048572Y-104383571D01*
X126191429Y-104455000D01*
X126262858Y-104526429D01*
X126334287Y-104669286D01*
X126334287Y-105097857D01*
X126262858Y-105240714D01*
X126191429Y-105312143D01*
X126048572Y-105383571D01*
X125762858Y-105383571D01*
X125620001Y-105312143D01*
X126834287Y-104383571D02*
X127191430Y-105383571D01*
X127548572Y-104383571D02*
X127191430Y-105383571D01*
X127048572Y-105740714D01*
X126977144Y-105812143D01*
X126834287Y-105883571D01*
X129120001Y-104383571D02*
X129405715Y-105383571D01*
X129691429Y-104669286D01*
X129977144Y-105383571D01*
X130262858Y-104383571D01*
X131477144Y-105383571D02*
X131477144Y-104597857D01*
X131405715Y-104455000D01*
X131262858Y-104383571D01*
X130977144Y-104383571D01*
X130834287Y-104455000D01*
X131477144Y-105312143D02*
X131334287Y-105383571D01*
X130977144Y-105383571D01*
X130834287Y-105312143D01*
X130762858Y-105169286D01*
X130762858Y-105026429D01*
X130834287Y-104883571D01*
X130977144Y-104812143D01*
X131334287Y-104812143D01*
X131477144Y-104740714D01*
X132048573Y-104383571D02*
X132405716Y-105383571D01*
X132762858Y-104383571D02*
X132405716Y-105383571D01*
X132262858Y-105740714D01*
X132191430Y-105812143D01*
X132048573Y-105883571D01*
X134262858Y-104383571D02*
X134834287Y-104383571D01*
X134477144Y-103883571D02*
X134477144Y-105169286D01*
X134548572Y-105312143D01*
X134691430Y-105383571D01*
X134834287Y-105383571D01*
X135548573Y-105383571D02*
X135405715Y-105312143D01*
X135334287Y-105240714D01*
X135262858Y-105097857D01*
X135262858Y-104669286D01*
X135334287Y-104526429D01*
X135405715Y-104455000D01*
X135548573Y-104383571D01*
X135762858Y-104383571D01*
X135905715Y-104455000D01*
X135977144Y-104526429D01*
X136048573Y-104669286D01*
X136048573Y-105097857D01*
X135977144Y-105240714D01*
X135905715Y-105312143D01*
X135762858Y-105383571D01*
X135548573Y-105383571D01*
X137834287Y-104383571D02*
X137834287Y-105883571D01*
X137834287Y-104455000D02*
X137977144Y-104383571D01*
X138262858Y-104383571D01*
X138405715Y-104455000D01*
X138477144Y-104526429D01*
X138548573Y-104669286D01*
X138548573Y-105097857D01*
X138477144Y-105240714D01*
X138405715Y-105312143D01*
X138262858Y-105383571D01*
X137977144Y-105383571D01*
X137834287Y-105312143D01*
X139405716Y-105383571D02*
X139262858Y-105312143D01*
X139191430Y-105169286D01*
X139191430Y-103883571D01*
X140620001Y-105383571D02*
X140620001Y-104597857D01*
X140548572Y-104455000D01*
X140405715Y-104383571D01*
X140120001Y-104383571D01*
X139977144Y-104455000D01*
X140620001Y-105312143D02*
X140477144Y-105383571D01*
X140120001Y-105383571D01*
X139977144Y-105312143D01*
X139905715Y-105169286D01*
X139905715Y-105026429D01*
X139977144Y-104883571D01*
X140120001Y-104812143D01*
X140477144Y-104812143D01*
X140620001Y-104740714D01*
X141191430Y-104383571D02*
X141548573Y-105383571D01*
X141905715Y-104383571D02*
X141548573Y-105383571D01*
X141405715Y-105740714D01*
X141334287Y-105812143D01*
X141191430Y-105883571D01*
X143620001Y-105383571D02*
X143620001Y-103883571D01*
X144120001Y-104955000D01*
X144620001Y-103883571D01*
X144620001Y-105383571D01*
X145905715Y-105312143D02*
X145762858Y-105383571D01*
X145477144Y-105383571D01*
X145334287Y-105312143D01*
X145262858Y-105169286D01*
X145262858Y-104597857D01*
X145334287Y-104455000D01*
X145477144Y-104383571D01*
X145762858Y-104383571D01*
X145905715Y-104455000D01*
X145977144Y-104597857D01*
X145977144Y-104740714D01*
X145262858Y-104883571D01*
X146548572Y-104955000D02*
X147262858Y-104955000D01*
X146405715Y-105383571D02*
X146905715Y-103883571D01*
X147405715Y-105383571D01*
X147905715Y-105383571D02*
X147905715Y-104383571D01*
X147905715Y-104669286D02*
X147977143Y-104526429D01*
X148048572Y-104455000D01*
X148191429Y-104383571D01*
X148334286Y-104383571D01*
X148834286Y-105383571D02*
X148834286Y-104383571D01*
X148834286Y-104526429D02*
X148905714Y-104455000D01*
X149048572Y-104383571D01*
X149262857Y-104383571D01*
X149405714Y-104455000D01*
X149477143Y-104597857D01*
X149477143Y-105383571D01*
X149477143Y-104597857D02*
X149548572Y-104455000D01*
X149691429Y-104383571D01*
X149905714Y-104383571D01*
X150048572Y-104455000D01*
X150120000Y-104597857D01*
X150120000Y-105383571D01*
D10*
G36*
X126608673Y-101952117D02*
X126603423Y-102250990D01*
X126486252Y-102529951D01*
X126411182Y-102619848D01*
X126329058Y-102696331D01*
X126241128Y-102751292D01*
X126119770Y-102788285D01*
X125937361Y-102810865D01*
X125666278Y-102822586D01*
X125278901Y-102827001D01*
X124796002Y-102827666D01*
X123388641Y-102827666D01*
X123161860Y-102594833D01*
X123064900Y-102467727D01*
X122893737Y-102213759D01*
X122660316Y-101851854D01*
X122376579Y-101400931D01*
X122054471Y-100879914D01*
X121705936Y-100307723D01*
X121453873Y-99888946D01*
X121102944Y-99305276D01*
X120778820Y-98770500D01*
X120491852Y-98301361D01*
X120252390Y-97914605D01*
X120070784Y-97626973D01*
X119957383Y-97455211D01*
X119923029Y-97412446D01*
X119885313Y-97488897D01*
X119797976Y-97708754D01*
X119667075Y-98055503D01*
X119498664Y-98512633D01*
X119298799Y-99063628D01*
X119073536Y-99691978D01*
X118828930Y-100381168D01*
X118695362Y-100760211D01*
X118394394Y-101608480D01*
X118121252Y-102362457D01*
X117880278Y-103010827D01*
X117675813Y-103542274D01*
X117512200Y-103945482D01*
X117393782Y-104209134D01*
X117330876Y-104316211D01*
X117098202Y-104464393D01*
X116797686Y-104522973D01*
X116505377Y-104484356D01*
X116366996Y-104412473D01*
X116170767Y-104183462D01*
X116051361Y-103895254D01*
X116035667Y-103765976D01*
X116063198Y-103654432D01*
X116142252Y-103399060D01*
X116267515Y-103015544D01*
X116433674Y-102519566D01*
X116635418Y-101926809D01*
X116867434Y-101252955D01*
X117124410Y-100513689D01*
X117401032Y-99724693D01*
X117493078Y-99463576D01*
X117836861Y-98491213D01*
X118130640Y-97666571D01*
X118380228Y-96977501D01*
X118591438Y-96411854D01*
X118770083Y-95957482D01*
X118921977Y-95602237D01*
X119052933Y-95333969D01*
X119168764Y-95140530D01*
X119275283Y-95009772D01*
X119378304Y-94929546D01*
X119483639Y-94887703D01*
X119597101Y-94872094D01*
X119690987Y-94870296D01*
X119924625Y-94893886D01*
X120094897Y-94948917D01*
X120096452Y-94949888D01*
X120165148Y-95036848D01*
X120311406Y-95253773D01*
X120525647Y-95585441D01*
X120798292Y-96016625D01*
X121119763Y-96532101D01*
X121480479Y-97116646D01*
X121870863Y-97755033D01*
X122133226Y-98187091D01*
X124046213Y-101346000D01*
X125099773Y-101390834D01*
X125517360Y-101413616D01*
X125882553Y-101442814D01*
X126156830Y-101474725D01*
X126301669Y-101505642D01*
X126303852Y-101506628D01*
X126507113Y-101686331D01*
X126608673Y-101952117D01*
X126608673Y-101952117D01*
X126608673Y-101952117D01*
G37*
X126608673Y-101952117D02*
X126603423Y-102250990D01*
X126486252Y-102529951D01*
X126411182Y-102619848D01*
X126329058Y-102696331D01*
X126241128Y-102751292D01*
X126119770Y-102788285D01*
X125937361Y-102810865D01*
X125666278Y-102822586D01*
X125278901Y-102827001D01*
X124796002Y-102827666D01*
X123388641Y-102827666D01*
X123161860Y-102594833D01*
X123064900Y-102467727D01*
X122893737Y-102213759D01*
X122660316Y-101851854D01*
X122376579Y-101400931D01*
X122054471Y-100879914D01*
X121705936Y-100307723D01*
X121453873Y-99888946D01*
X121102944Y-99305276D01*
X120778820Y-98770500D01*
X120491852Y-98301361D01*
X120252390Y-97914605D01*
X120070784Y-97626973D01*
X119957383Y-97455211D01*
X119923029Y-97412446D01*
X119885313Y-97488897D01*
X119797976Y-97708754D01*
X119667075Y-98055503D01*
X119498664Y-98512633D01*
X119298799Y-99063628D01*
X119073536Y-99691978D01*
X118828930Y-100381168D01*
X118695362Y-100760211D01*
X118394394Y-101608480D01*
X118121252Y-102362457D01*
X117880278Y-103010827D01*
X117675813Y-103542274D01*
X117512200Y-103945482D01*
X117393782Y-104209134D01*
X117330876Y-104316211D01*
X117098202Y-104464393D01*
X116797686Y-104522973D01*
X116505377Y-104484356D01*
X116366996Y-104412473D01*
X116170767Y-104183462D01*
X116051361Y-103895254D01*
X116035667Y-103765976D01*
X116063198Y-103654432D01*
X116142252Y-103399060D01*
X116267515Y-103015544D01*
X116433674Y-102519566D01*
X116635418Y-101926809D01*
X116867434Y-101252955D01*
X117124410Y-100513689D01*
X117401032Y-99724693D01*
X117493078Y-99463576D01*
X117836861Y-98491213D01*
X118130640Y-97666571D01*
X118380228Y-96977501D01*
X118591438Y-96411854D01*
X118770083Y-95957482D01*
X118921977Y-95602237D01*
X119052933Y-95333969D01*
X119168764Y-95140530D01*
X119275283Y-95009772D01*
X119378304Y-94929546D01*
X119483639Y-94887703D01*
X119597101Y-94872094D01*
X119690987Y-94870296D01*
X119924625Y-94893886D01*
X120094897Y-94948917D01*
X120096452Y-94949888D01*
X120165148Y-95036848D01*
X120311406Y-95253773D01*
X120525647Y-95585441D01*
X120798292Y-96016625D01*
X121119763Y-96532101D01*
X121480479Y-97116646D01*
X121870863Y-97755033D01*
X122133226Y-98187091D01*
X124046213Y-101346000D01*
X125099773Y-101390834D01*
X125517360Y-101413616D01*
X125882553Y-101442814D01*
X126156830Y-101474725D01*
X126301669Y-101505642D01*
X126303852Y-101506628D01*
X126507113Y-101686331D01*
X126608673Y-101952117D01*
X126608673Y-101952117D01*
G36*
X125264333Y-100426612D02*
X125196227Y-100535630D01*
X125027346Y-100679552D01*
X124810849Y-100822721D01*
X124599892Y-100929482D01*
X124461682Y-100965000D01*
X124348145Y-100907811D01*
X124333000Y-100857253D01*
X124401233Y-100751971D01*
X124570944Y-100623510D01*
X124629839Y-100589648D01*
X124807127Y-100481476D01*
X124890027Y-100405098D01*
X124889314Y-100392425D01*
X124801744Y-100407733D01*
X124658303Y-100490697D01*
X124459980Y-100593116D01*
X124314161Y-100626333D01*
X124181692Y-100586803D01*
X124180463Y-100488291D01*
X124297714Y-100360909D01*
X124470482Y-100257385D01*
X124650904Y-100156094D01*
X124732451Y-100079025D01*
X124729957Y-100063735D01*
X124635051Y-100071857D01*
X124488970Y-100152030D01*
X124276595Y-100259294D01*
X124098082Y-100280452D01*
X124000677Y-100213298D01*
X123994333Y-100175139D01*
X124065953Y-100078674D01*
X124244236Y-99958102D01*
X124474316Y-99840131D01*
X124701328Y-99751469D01*
X124870405Y-99718823D01*
X124911583Y-99728629D01*
X125016092Y-99849397D01*
X125134675Y-100057172D01*
X125229799Y-100277684D01*
X125264333Y-100426612D01*
X125264333Y-100426612D01*
X125264333Y-100426612D01*
G37*
X125264333Y-100426612D02*
X125196227Y-100535630D01*
X125027346Y-100679552D01*
X124810849Y-100822721D01*
X124599892Y-100929482D01*
X124461682Y-100965000D01*
X124348145Y-100907811D01*
X124333000Y-100857253D01*
X124401233Y-100751971D01*
X124570944Y-100623510D01*
X124629839Y-100589648D01*
X124807127Y-100481476D01*
X124890027Y-100405098D01*
X124889314Y-100392425D01*
X124801744Y-100407733D01*
X124658303Y-100490697D01*
X124459980Y-100593116D01*
X124314161Y-100626333D01*
X124181692Y-100586803D01*
X124180463Y-100488291D01*
X124297714Y-100360909D01*
X124470482Y-100257385D01*
X124650904Y-100156094D01*
X124732451Y-100079025D01*
X124729957Y-100063735D01*
X124635051Y-100071857D01*
X124488970Y-100152030D01*
X124276595Y-100259294D01*
X124098082Y-100280452D01*
X124000677Y-100213298D01*
X123994333Y-100175139D01*
X124065953Y-100078674D01*
X124244236Y-99958102D01*
X124474316Y-99840131D01*
X124701328Y-99751469D01*
X124870405Y-99718823D01*
X124911583Y-99728629D01*
X125016092Y-99849397D01*
X125134675Y-100057172D01*
X125229799Y-100277684D01*
X125264333Y-100426612D01*
X125264333Y-100426612D01*
G36*
X124562515Y-99212581D02*
X124481257Y-99374647D01*
X124384392Y-99427649D01*
X124269703Y-99419484D01*
X124265078Y-99303116D01*
X124271900Y-99275357D01*
X124254595Y-99095739D01*
X124122862Y-98989613D01*
X123922115Y-98974578D01*
X123712200Y-99058481D01*
X123509608Y-99145227D01*
X123364159Y-99123756D01*
X123317000Y-99019908D01*
X123385748Y-98939936D01*
X123557648Y-98820256D01*
X123781179Y-98690087D01*
X124004823Y-98578648D01*
X124177060Y-98515158D01*
X124216664Y-98509666D01*
X124321935Y-98576799D01*
X124333000Y-98626299D01*
X124392767Y-98773583D01*
X124464280Y-98851885D01*
X124560159Y-99014523D01*
X124562515Y-99212581D01*
X124562515Y-99212581D01*
X124562515Y-99212581D01*
G37*
X124562515Y-99212581D02*
X124481257Y-99374647D01*
X124384392Y-99427649D01*
X124269703Y-99419484D01*
X124265078Y-99303116D01*
X124271900Y-99275357D01*
X124254595Y-99095739D01*
X124122862Y-98989613D01*
X123922115Y-98974578D01*
X123712200Y-99058481D01*
X123509608Y-99145227D01*
X123364159Y-99123756D01*
X123317000Y-99019908D01*
X123385748Y-98939936D01*
X123557648Y-98820256D01*
X123781179Y-98690087D01*
X124004823Y-98578648D01*
X124177060Y-98515158D01*
X124216664Y-98509666D01*
X124321935Y-98576799D01*
X124333000Y-98626299D01*
X124392767Y-98773583D01*
X124464280Y-98851885D01*
X124560159Y-99014523D01*
X124562515Y-99212581D01*
X124562515Y-99212581D01*
G36*
X124170030Y-97543888D02*
X124113419Y-97688655D01*
X123936466Y-97918534D01*
X123674378Y-98194817D01*
X123471357Y-98393187D01*
X123471357Y-97970688D01*
X123458111Y-97945222D01*
X123357631Y-97935089D01*
X123345222Y-97945222D01*
X123356844Y-97995556D01*
X123401667Y-98001666D01*
X123471357Y-97970688D01*
X123471357Y-98393187D01*
X123417036Y-98446264D01*
X123250893Y-98595332D01*
X123148580Y-98660540D01*
X123082729Y-98660403D01*
X123037757Y-98625534D01*
X123028593Y-98517555D01*
X123065675Y-98420001D01*
X123113739Y-98226833D01*
X123059626Y-98081930D01*
X122927282Y-98036645D01*
X122890765Y-98044920D01*
X122748840Y-98039321D01*
X122654394Y-97962399D01*
X122665443Y-97863297D01*
X122670282Y-97858161D01*
X122765167Y-97821159D01*
X122977156Y-97758942D01*
X123258210Y-97683734D01*
X123560291Y-97607757D01*
X123835359Y-97543236D01*
X124035377Y-97502393D01*
X124100167Y-97494327D01*
X124170030Y-97543888D01*
X124170030Y-97543888D01*
X124170030Y-97543888D01*
G37*
X124170030Y-97543888D02*
X124113419Y-97688655D01*
X123936466Y-97918534D01*
X123674378Y-98194817D01*
X123471357Y-98393187D01*
X123471357Y-97970688D01*
X123458111Y-97945222D01*
X123357631Y-97935089D01*
X123345222Y-97945222D01*
X123356844Y-97995556D01*
X123401667Y-98001666D01*
X123471357Y-97970688D01*
X123471357Y-98393187D01*
X123417036Y-98446264D01*
X123250893Y-98595332D01*
X123148580Y-98660540D01*
X123082729Y-98660403D01*
X123037757Y-98625534D01*
X123028593Y-98517555D01*
X123065675Y-98420001D01*
X123113739Y-98226833D01*
X123059626Y-98081930D01*
X122927282Y-98036645D01*
X122890765Y-98044920D01*
X122748840Y-98039321D01*
X122654394Y-97962399D01*
X122665443Y-97863297D01*
X122670282Y-97858161D01*
X122765167Y-97821159D01*
X122977156Y-97758942D01*
X123258210Y-97683734D01*
X123560291Y-97607757D01*
X123835359Y-97543236D01*
X124035377Y-97502393D01*
X124100167Y-97494327D01*
X124170030Y-97543888D01*
X124170030Y-97543888D01*
G36*
X123219522Y-96772442D02*
X123189410Y-97022469D01*
X123044161Y-97192532D01*
X122948015Y-97251668D01*
X122948015Y-96777315D01*
X122896645Y-96692921D01*
X122761205Y-96573044D01*
X122696966Y-96596395D01*
X122729103Y-96749505D01*
X122740785Y-96776296D01*
X122840431Y-96918636D01*
X122921648Y-96906884D01*
X122948015Y-96777315D01*
X122948015Y-97251668D01*
X122875049Y-97296548D01*
X122761348Y-97296261D01*
X122648091Y-97175234D01*
X122564741Y-97049166D01*
X122454588Y-96896745D01*
X122392226Y-96848344D01*
X122387093Y-96860994D01*
X122430777Y-96990052D01*
X122517571Y-97136309D01*
X122597675Y-97321720D01*
X122568920Y-97455881D01*
X122475074Y-97493666D01*
X122383314Y-97430127D01*
X122268404Y-97284978D01*
X122138644Y-96980312D01*
X122149938Y-96704595D01*
X122297809Y-96491389D01*
X122381462Y-96437507D01*
X122697902Y-96322392D01*
X122937965Y-96350331D01*
X123100532Y-96496505D01*
X123219522Y-96772442D01*
X123219522Y-96772442D01*
X123219522Y-96772442D01*
G37*
X123219522Y-96772442D02*
X123189410Y-97022469D01*
X123044161Y-97192532D01*
X122948015Y-97251668D01*
X122948015Y-96777315D01*
X122896645Y-96692921D01*
X122761205Y-96573044D01*
X122696966Y-96596395D01*
X122729103Y-96749505D01*
X122740785Y-96776296D01*
X122840431Y-96918636D01*
X122921648Y-96906884D01*
X122948015Y-96777315D01*
X122948015Y-97251668D01*
X122875049Y-97296548D01*
X122761348Y-97296261D01*
X122648091Y-97175234D01*
X122564741Y-97049166D01*
X122454588Y-96896745D01*
X122392226Y-96848344D01*
X122387093Y-96860994D01*
X122430777Y-96990052D01*
X122517571Y-97136309D01*
X122597675Y-97321720D01*
X122568920Y-97455881D01*
X122475074Y-97493666D01*
X122383314Y-97430127D01*
X122268404Y-97284978D01*
X122138644Y-96980312D01*
X122149938Y-96704595D01*
X122297809Y-96491389D01*
X122381462Y-96437507D01*
X122697902Y-96322392D01*
X122937965Y-96350331D01*
X123100532Y-96496505D01*
X123219522Y-96772442D01*
X123219522Y-96772442D01*
G36*
X123011947Y-95552265D02*
X122933426Y-95698194D01*
X122869778Y-95745288D01*
X122508589Y-95958949D01*
X122189013Y-96135417D01*
X121943795Y-96257472D01*
X121805680Y-96307893D01*
X121799090Y-96308333D01*
X121718307Y-96239978D01*
X121708333Y-96183054D01*
X121777940Y-96073135D01*
X121954233Y-95938311D01*
X122062031Y-95877331D01*
X122267687Y-95763351D01*
X122338309Y-95689683D01*
X122294574Y-95630095D01*
X122269003Y-95614776D01*
X122172197Y-95522819D01*
X122222005Y-95412498D01*
X122285573Y-95320985D01*
X122253249Y-95304996D01*
X122108772Y-95368857D01*
X121841589Y-95513702D01*
X121564299Y-95650500D01*
X121410168Y-95679418D01*
X121371885Y-95600517D01*
X121395105Y-95517496D01*
X121489908Y-95419302D01*
X121689241Y-95279349D01*
X121943559Y-95126131D01*
X122203320Y-94988141D01*
X122418979Y-94893872D01*
X122522705Y-94869000D01*
X122662476Y-94929763D01*
X122685711Y-95086442D01*
X122640603Y-95205916D01*
X122594505Y-95332912D01*
X122673691Y-95374360D01*
X122754629Y-95376999D01*
X122947266Y-95428944D01*
X123011947Y-95552265D01*
X123011947Y-95552265D01*
X123011947Y-95552265D01*
G37*
X123011947Y-95552265D02*
X122933426Y-95698194D01*
X122869778Y-95745288D01*
X122508589Y-95958949D01*
X122189013Y-96135417D01*
X121943795Y-96257472D01*
X121805680Y-96307893D01*
X121799090Y-96308333D01*
X121718307Y-96239978D01*
X121708333Y-96183054D01*
X121777940Y-96073135D01*
X121954233Y-95938311D01*
X122062031Y-95877331D01*
X122267687Y-95763351D01*
X122338309Y-95689683D01*
X122294574Y-95630095D01*
X122269003Y-95614776D01*
X122172197Y-95522819D01*
X122222005Y-95412498D01*
X122285573Y-95320985D01*
X122253249Y-95304996D01*
X122108772Y-95368857D01*
X121841589Y-95513702D01*
X121564299Y-95650500D01*
X121410168Y-95679418D01*
X121371885Y-95600517D01*
X121395105Y-95517496D01*
X121489908Y-95419302D01*
X121689241Y-95279349D01*
X121943559Y-95126131D01*
X122203320Y-94988141D01*
X122418979Y-94893872D01*
X122522705Y-94869000D01*
X122662476Y-94929763D01*
X122685711Y-95086442D01*
X122640603Y-95205916D01*
X122594505Y-95332912D01*
X122673691Y-95374360D01*
X122754629Y-95376999D01*
X122947266Y-95428944D01*
X123011947Y-95552265D01*
X123011947Y-95552265D01*
D12*
X126250000Y-87250000D02*
X126250000Y-90250000D01*
X123750000Y-90250000D02*
X123750000Y-87250000D01*
X159000000Y-104000000D02*
X160500000Y-104000000D01*
X160500000Y-104000000D02*
X160500000Y-108500000D01*
X160500000Y-108500000D02*
X160500000Y-109000000D01*
X160500000Y-109000000D02*
X166000000Y-109000000D01*
X166000000Y-109000000D02*
X166000000Y-111000000D01*
X166000000Y-111000000D02*
X174000000Y-111000000D01*
X174000000Y-111000000D02*
X174000000Y-109000000D01*
X174000000Y-109000000D02*
X179500000Y-109000000D01*
X179500000Y-109000000D02*
X179500000Y-91500000D01*
X179500000Y-91500000D02*
X179500000Y-91000000D01*
X179500000Y-91000000D02*
X175000000Y-91000000D01*
X175000000Y-91000000D02*
X175000000Y-85500000D01*
X175000000Y-85500000D02*
X165000000Y-85500000D01*
X165000000Y-85500000D02*
X165000000Y-91000000D01*
X165000000Y-91000000D02*
X160500000Y-91000000D01*
X160500000Y-91000000D02*
X160500000Y-96000000D01*
X160500000Y-96000000D02*
X159000000Y-96000000D01*
X159000000Y-96000000D02*
X159000000Y-104000000D01*
X89000000Y-104000000D02*
X90500000Y-104000000D01*
X90500000Y-104000000D02*
X90500000Y-108500000D01*
X90500000Y-108500000D02*
X90500000Y-109000000D01*
X90500000Y-109000000D02*
X96000000Y-109000000D01*
X96000000Y-109000000D02*
X96000000Y-111000000D01*
X96000000Y-111000000D02*
X104000000Y-111000000D01*
X104000000Y-111000000D02*
X104000000Y-109000000D01*
X104000000Y-109000000D02*
X109500000Y-109000000D01*
X109500000Y-109000000D02*
X109500000Y-91500000D01*
X109500000Y-91500000D02*
X109500000Y-91000000D01*
X109500000Y-91000000D02*
X105000000Y-91000000D01*
X105000000Y-91000000D02*
X105000000Y-85500000D01*
X105000000Y-85500000D02*
X95000000Y-85500000D01*
X95000000Y-85500000D02*
X95000000Y-91000000D01*
X95000000Y-91000000D02*
X90500000Y-91000000D01*
X90500000Y-91000000D02*
X90500000Y-96000000D01*
X90500000Y-96000000D02*
X89000000Y-96000000D01*
X89000000Y-96000000D02*
X89000000Y-104000000D01*
X129032000Y-87630000D02*
X141732000Y-87630000D01*
X141732000Y-87630000D02*
X141732000Y-92710000D01*
X141732000Y-92710000D02*
X131572000Y-92710000D01*
X129032000Y-87630000D02*
X129032000Y-90170000D01*
X128752000Y-91440000D02*
X128752000Y-92990000D01*
X129032000Y-90170000D02*
X131572000Y-90170000D01*
X131572000Y-90170000D02*
X131572000Y-92710000D01*
X128752000Y-92990000D02*
X130302000Y-92990000D01*
X127857143Y-88916666D02*
X127904762Y-88964285D01*
X127952381Y-89107142D01*
X127952381Y-89202380D01*
X127904762Y-89345238D01*
X127809524Y-89440476D01*
X127714286Y-89488095D01*
X127523810Y-89535714D01*
X127380952Y-89535714D01*
X127190476Y-89488095D01*
X127095238Y-89440476D01*
X127000000Y-89345238D01*
X126952381Y-89202380D01*
X126952381Y-89107142D01*
X127000000Y-88964285D01*
X127047619Y-88916666D01*
X127952381Y-87964285D02*
X127952381Y-88535714D01*
X127952381Y-88250000D02*
X126952381Y-88250000D01*
X127095238Y-88345238D01*
X127190476Y-88440476D01*
X127238095Y-88535714D01*
X169450000Y-96128571D02*
X169450000Y-97200000D01*
X169378572Y-97414286D01*
X169235715Y-97557143D01*
X169021429Y-97628571D01*
X168878572Y-97628571D01*
X170950000Y-97628571D02*
X170092857Y-97628571D01*
X170521429Y-97628571D02*
X170521429Y-96128571D01*
X170378572Y-96342857D01*
X170235714Y-96485714D01*
X170092857Y-96557143D01*
X165692857Y-101728571D02*
X165692857Y-102800000D01*
X165621429Y-103014286D01*
X165478572Y-103157143D01*
X165264286Y-103228571D01*
X165121429Y-103228571D01*
X166692857Y-101728571D02*
X166978571Y-101728571D01*
X167121429Y-101800000D01*
X167264286Y-101942857D01*
X167335714Y-102228571D01*
X167335714Y-102728571D01*
X167264286Y-103014286D01*
X167121429Y-103157143D01*
X166978571Y-103228571D01*
X166692857Y-103228571D01*
X166550000Y-103157143D01*
X166407143Y-103014286D01*
X166335714Y-102728571D01*
X166335714Y-102228571D01*
X166407143Y-101942857D01*
X166550000Y-101800000D01*
X166692857Y-101728571D01*
X168264286Y-102514286D02*
X168264286Y-103228571D01*
X167764286Y-101728571D02*
X168264286Y-102514286D01*
X168764286Y-101728571D01*
X169192857Y-103157143D02*
X169407143Y-103228571D01*
X169764286Y-103228571D01*
X169907143Y-103157143D01*
X169978572Y-103085714D01*
X170050000Y-102942857D01*
X170050000Y-102800000D01*
X169978572Y-102657143D01*
X169907143Y-102585714D01*
X169764286Y-102514286D01*
X169478572Y-102442857D01*
X169335714Y-102371429D01*
X169264286Y-102300000D01*
X169192857Y-102157143D01*
X169192857Y-102014286D01*
X169264286Y-101871429D01*
X169335714Y-101800000D01*
X169478572Y-101728571D01*
X169835714Y-101728571D01*
X170050000Y-101800000D01*
X170478571Y-101728571D02*
X171335714Y-101728571D01*
X170907143Y-103228571D02*
X170907143Y-101728571D01*
X171835714Y-103228571D02*
X171835714Y-101728571D01*
X173407143Y-103085714D02*
X173335714Y-103157143D01*
X173121428Y-103228571D01*
X172978571Y-103228571D01*
X172764286Y-103157143D01*
X172621428Y-103014286D01*
X172550000Y-102871429D01*
X172478571Y-102585714D01*
X172478571Y-102371429D01*
X172550000Y-102085714D01*
X172621428Y-101942857D01*
X172764286Y-101800000D01*
X172978571Y-101728571D01*
X173121428Y-101728571D01*
X173335714Y-101800000D01*
X173407143Y-101871429D01*
X174050000Y-103228571D02*
X174050000Y-101728571D01*
X174907143Y-103228571D02*
X174264286Y-102371429D01*
X174907143Y-101728571D02*
X174050000Y-102585714D01*
X99450000Y-96128571D02*
X99450000Y-97200000D01*
X99378572Y-97414286D01*
X99235715Y-97557143D01*
X99021429Y-97628571D01*
X98878572Y-97628571D01*
X100092857Y-96271429D02*
X100164286Y-96200000D01*
X100307143Y-96128571D01*
X100664286Y-96128571D01*
X100807143Y-96200000D01*
X100878572Y-96271429D01*
X100950000Y-96414286D01*
X100950000Y-96557143D01*
X100878572Y-96771429D01*
X100021429Y-97628571D01*
X100950000Y-97628571D01*
X95692857Y-101728571D02*
X95692857Y-102800000D01*
X95621429Y-103014286D01*
X95478572Y-103157143D01*
X95264286Y-103228571D01*
X95121429Y-103228571D01*
X96692857Y-101728571D02*
X96978571Y-101728571D01*
X97121429Y-101800000D01*
X97264286Y-101942857D01*
X97335714Y-102228571D01*
X97335714Y-102728571D01*
X97264286Y-103014286D01*
X97121429Y-103157143D01*
X96978571Y-103228571D01*
X96692857Y-103228571D01*
X96550000Y-103157143D01*
X96407143Y-103014286D01*
X96335714Y-102728571D01*
X96335714Y-102228571D01*
X96407143Y-101942857D01*
X96550000Y-101800000D01*
X96692857Y-101728571D01*
X98264286Y-102514286D02*
X98264286Y-103228571D01*
X97764286Y-101728571D02*
X98264286Y-102514286D01*
X98764286Y-101728571D01*
X99192857Y-103157143D02*
X99407143Y-103228571D01*
X99764286Y-103228571D01*
X99907143Y-103157143D01*
X99978572Y-103085714D01*
X100050000Y-102942857D01*
X100050000Y-102800000D01*
X99978572Y-102657143D01*
X99907143Y-102585714D01*
X99764286Y-102514286D01*
X99478572Y-102442857D01*
X99335714Y-102371429D01*
X99264286Y-102300000D01*
X99192857Y-102157143D01*
X99192857Y-102014286D01*
X99264286Y-101871429D01*
X99335714Y-101800000D01*
X99478572Y-101728571D01*
X99835714Y-101728571D01*
X100050000Y-101800000D01*
X100478571Y-101728571D02*
X101335714Y-101728571D01*
X100907143Y-103228571D02*
X100907143Y-101728571D01*
X101835714Y-103228571D02*
X101835714Y-101728571D01*
X103407143Y-103085714D02*
X103335714Y-103157143D01*
X103121428Y-103228571D01*
X102978571Y-103228571D01*
X102764286Y-103157143D01*
X102621428Y-103014286D01*
X102550000Y-102871429D01*
X102478571Y-102585714D01*
X102478571Y-102371429D01*
X102550000Y-102085714D01*
X102621428Y-101942857D01*
X102764286Y-101800000D01*
X102978571Y-101728571D01*
X103121428Y-101728571D01*
X103335714Y-101800000D01*
X103407143Y-101871429D01*
X104050000Y-103228571D02*
X104050000Y-101728571D01*
X104907143Y-103228571D02*
X104264286Y-102371429D01*
X104907143Y-101728571D02*
X104050000Y-102585714D01*
X124654381Y-92201905D02*
X125463905Y-92201905D01*
X125559143Y-92154286D01*
X125606762Y-92106667D01*
X125654381Y-92011429D01*
X125654381Y-91820952D01*
X125606762Y-91725714D01*
X125559143Y-91678095D01*
X125463905Y-91630476D01*
X124654381Y-91630476D01*
X125654381Y-90630476D02*
X125654381Y-91201905D01*
X125654381Y-90916191D02*
X124654381Y-90916191D01*
X124797238Y-91011429D01*
X124892476Y-91106667D01*
X124940095Y-91201905D01*
%LPC*%
D13*
X91440000Y-88900000D03*
X157480000Y-109220000D03*
X178435000Y-88900000D03*
X112395000Y-109220000D03*
D14*
X125000000Y-87500000D03*
D15*
X125000000Y-90000000D03*
D16*
X162350000Y-93350000D03*
X177650000Y-93350000D03*
X177650000Y-106650000D03*
X162350000Y-106650000D03*
D17*
X160350000Y-100000000D03*
X160350000Y-97500000D03*
X160350000Y-102500000D03*
D18*
X170000000Y-109750000D03*
X167500000Y-109750000D03*
X172500000Y-109750000D03*
D17*
X166750000Y-91750000D03*
X173250000Y-91750000D03*
X173250000Y-87250000D03*
X166750000Y-87250000D03*
D16*
X92350000Y-93350000D03*
X107650000Y-93350000D03*
X107650000Y-106650000D03*
X92350000Y-106650000D03*
D17*
X90350000Y-100000000D03*
X90350000Y-97500000D03*
X90350000Y-102500000D03*
D18*
X100000000Y-109750000D03*
X97500000Y-109750000D03*
X102500000Y-109750000D03*
D17*
X96750000Y-91750000D03*
X103250000Y-91750000D03*
X103250000Y-87250000D03*
X96750000Y-87250000D03*
D19*
X130302000Y-91440000D03*
D20*
X130302000Y-88900000D03*
X132842000Y-91440000D03*
X132842000Y-88900000D03*
X135382000Y-91440000D03*
X135382000Y-88900000D03*
X137922000Y-91440000D03*
X137922000Y-88900000D03*
X140462000Y-91440000D03*
X140462000Y-88900000D03*
M02*
