M48
;DRILL file {kicad (2015-01-16 BZR 5376)-product} date 28/04/2015 16:45:29
;FORMAT={-:-/ absolute / inch / decimal}
FMAT,2
INCH,TZ
T1C0.025
T2C0.030
T3C0.031
T4C0.032
T5C0.035
T6C0.040
T7C0.055
T8C0.118
%
G90
G05
M72
T1
X6.05Y-3.425
T2
X3.8091Y-3.435
X3.8091Y-3.6122
X4.065Y-3.435
X4.065Y-3.6122
X6.565Y-3.435
X6.565Y-3.6122
X6.8209Y-3.435
X6.8209Y-3.6122
T3
X4.9213Y-3.4449
T4
X4.9213Y-3.5433
T5
X3.5571Y-3.8386
X3.5571Y-3.937
X3.5571Y-4.0354
X3.8386Y-4.3209
X3.937Y-4.3209
X4.0354Y-4.3209
X6.313Y-3.8386
X6.313Y-3.937
X6.313Y-4.0354
X6.5945Y-4.3209
X6.6929Y-4.3209
X6.7913Y-4.3209
T6
X5.13Y-3.5
X5.13Y-3.6
X5.23Y-3.5
X5.23Y-3.6
X5.33Y-3.5
X5.33Y-3.6
X5.43Y-3.5
X5.43Y-3.6
X5.53Y-3.5
X5.53Y-3.6
T7
X3.6358Y-3.6752
X3.6358Y-4.1988
X4.2382Y-3.6752
X4.2382Y-4.1988
X6.3917Y-3.6752
X6.3917Y-4.1988
X6.9941Y-3.6752
X6.9941Y-4.1988
T8
X3.6Y-3.5
X4.425Y-4.3
X6.2Y-4.3
X7.025Y-3.5
T0
M30
