G04 #@! TF.FileFunction,Soldermask,Bot*
%FSLAX46Y46*%
G04 Gerber Fmt 4.6, Leading zero omitted, Abs format (unit mm)*
G04 Created by KiCad (PCBNEW (2015-01-16 BZR 5376)-product) date 23/06/2015 14:12:10*
%MOMM*%
G01*
G04 APERTURE LIST*
%ADD10C,0.100000*%
%ADD11C,4.000000*%
%ADD12C,0.300000*%
%ADD13R,1.727200X1.727200*%
%ADD14O,1.727200X1.727200*%
%ADD15R,1.300000X1.300000*%
%ADD16C,1.300000*%
%ADD17O,1.800000X2.600000*%
%ADD18O,1.524000X2.000000*%
%ADD19O,2.000000X1.540000*%
G04 APERTURE END LIST*
D10*
D11*
X245110000Y-68580000D03*
X245110000Y-154940000D03*
X38100000Y-163830000D03*
X38100000Y-68580000D03*
D12*
X156210000Y-96139000D03*
D13*
X187960000Y-74676000D03*
D14*
X187960000Y-72136000D03*
X190500000Y-74676000D03*
X190500000Y-72136000D03*
X193040000Y-74676000D03*
X193040000Y-72136000D03*
X195580000Y-74676000D03*
X195580000Y-72136000D03*
X198120000Y-74676000D03*
X198120000Y-72136000D03*
D15*
X182658000Y-70736000D03*
D16*
X182658000Y-73236000D03*
D11*
X170053000Y-92456000D03*
X236093000Y-72136000D03*
X215138000Y-92456000D03*
X149098000Y-72136000D03*
D17*
X150008000Y-76586000D03*
X165308000Y-76586000D03*
X165308000Y-89886000D03*
X150008000Y-89886000D03*
D18*
X148008000Y-83236000D03*
X148008000Y-80736000D03*
X148008000Y-85736000D03*
D19*
X157658000Y-92986000D03*
X155158000Y-92986000D03*
X160158000Y-92986000D03*
D18*
X154408000Y-74986000D03*
X160908000Y-74986000D03*
X160908000Y-70486000D03*
X154408000Y-70486000D03*
D17*
X220008000Y-76586000D03*
X235308000Y-76586000D03*
X235308000Y-89886000D03*
X220008000Y-89886000D03*
D18*
X218008000Y-83236000D03*
X218008000Y-80736000D03*
X218008000Y-85736000D03*
D19*
X227658000Y-92986000D03*
X225158000Y-92986000D03*
X230158000Y-92986000D03*
D18*
X224408000Y-74986000D03*
X230908000Y-74986000D03*
X230908000Y-70486000D03*
X224408000Y-70486000D03*
D12*
X156718000Y-96139000D03*
X157734000Y-96139000D03*
X157226000Y-96139000D03*
X158242000Y-96139000D03*
X193802000Y-67945000D03*
X192786000Y-67945000D03*
X193294000Y-67945000D03*
X192278000Y-67945000D03*
X191770000Y-67945000D03*
X228854000Y-96139000D03*
X227838000Y-96139000D03*
X228346000Y-96139000D03*
X227330000Y-96139000D03*
X226822000Y-96139000D03*
X226822000Y-130429000D03*
X227330000Y-130429000D03*
X228346000Y-130429000D03*
X227838000Y-130429000D03*
X228854000Y-130429000D03*
X191770000Y-102235000D03*
X192278000Y-102235000D03*
X193294000Y-102235000D03*
X192786000Y-102235000D03*
X193802000Y-102235000D03*
X158242000Y-130429000D03*
X157226000Y-130429000D03*
X157734000Y-130429000D03*
X156718000Y-130429000D03*
D17*
X220008000Y-110876000D03*
X235308000Y-110876000D03*
X235308000Y-124176000D03*
X220008000Y-124176000D03*
D18*
X218008000Y-117526000D03*
X218008000Y-115026000D03*
X218008000Y-120026000D03*
D19*
X227658000Y-127276000D03*
X225158000Y-127276000D03*
X230158000Y-127276000D03*
D18*
X224408000Y-109276000D03*
X230908000Y-109276000D03*
X230908000Y-104776000D03*
X224408000Y-104776000D03*
D17*
X150008000Y-110876000D03*
X165308000Y-110876000D03*
X165308000Y-124176000D03*
X150008000Y-124176000D03*
D18*
X148008000Y-117526000D03*
X148008000Y-115026000D03*
X148008000Y-120026000D03*
D19*
X157658000Y-127276000D03*
X155158000Y-127276000D03*
X160158000Y-127276000D03*
D18*
X154408000Y-109276000D03*
X160908000Y-109276000D03*
X160908000Y-104776000D03*
X154408000Y-104776000D03*
D11*
X149098000Y-106426000D03*
X215138000Y-126746000D03*
X236093000Y-106426000D03*
X170053000Y-126746000D03*
D15*
X182658000Y-105026000D03*
D16*
X182658000Y-107526000D03*
D13*
X187960000Y-108966000D03*
D14*
X187960000Y-106426000D03*
X190500000Y-108966000D03*
X190500000Y-106426000D03*
X193040000Y-108966000D03*
X193040000Y-106426000D03*
X195580000Y-108966000D03*
X195580000Y-106426000D03*
X198120000Y-108966000D03*
X198120000Y-106426000D03*
D12*
X156210000Y-130429000D03*
X156210000Y-164719000D03*
D13*
X187960000Y-143256000D03*
D14*
X187960000Y-140716000D03*
X190500000Y-143256000D03*
X190500000Y-140716000D03*
X193040000Y-143256000D03*
X193040000Y-140716000D03*
X195580000Y-143256000D03*
X195580000Y-140716000D03*
X198120000Y-143256000D03*
X198120000Y-140716000D03*
D15*
X182658000Y-139316000D03*
D16*
X182658000Y-141816000D03*
D11*
X170053000Y-161036000D03*
X236093000Y-140716000D03*
X215138000Y-161036000D03*
X149098000Y-140716000D03*
D17*
X150008000Y-145166000D03*
X165308000Y-145166000D03*
X165308000Y-158466000D03*
X150008000Y-158466000D03*
D18*
X148008000Y-151816000D03*
X148008000Y-149316000D03*
X148008000Y-154316000D03*
D19*
X157658000Y-161566000D03*
X155158000Y-161566000D03*
X160158000Y-161566000D03*
D18*
X154408000Y-143566000D03*
X160908000Y-143566000D03*
X160908000Y-139066000D03*
X154408000Y-139066000D03*
D17*
X220008000Y-145166000D03*
X235308000Y-145166000D03*
X235308000Y-158466000D03*
X220008000Y-158466000D03*
D18*
X218008000Y-151816000D03*
X218008000Y-149316000D03*
X218008000Y-154316000D03*
D19*
X227658000Y-161566000D03*
X225158000Y-161566000D03*
X230158000Y-161566000D03*
D18*
X224408000Y-143566000D03*
X230908000Y-143566000D03*
X230908000Y-139066000D03*
X224408000Y-139066000D03*
D12*
X156718000Y-164719000D03*
X157734000Y-164719000D03*
X157226000Y-164719000D03*
X158242000Y-164719000D03*
X193802000Y-136525000D03*
X192786000Y-136525000D03*
X193294000Y-136525000D03*
X192278000Y-136525000D03*
X191770000Y-136525000D03*
X228854000Y-164719000D03*
X227838000Y-164719000D03*
X228346000Y-164719000D03*
X227330000Y-164719000D03*
X226822000Y-164719000D03*
X125222000Y-164719000D03*
X125730000Y-164719000D03*
X126746000Y-164719000D03*
X126238000Y-164719000D03*
X127254000Y-164719000D03*
X90170000Y-136525000D03*
X90678000Y-136525000D03*
X91694000Y-136525000D03*
X91186000Y-136525000D03*
X92202000Y-136525000D03*
X56642000Y-164719000D03*
X55626000Y-164719000D03*
X56134000Y-164719000D03*
X55118000Y-164719000D03*
D17*
X118408000Y-145166000D03*
X133708000Y-145166000D03*
X133708000Y-158466000D03*
X118408000Y-158466000D03*
D18*
X116408000Y-151816000D03*
X116408000Y-149316000D03*
X116408000Y-154316000D03*
D19*
X126058000Y-161566000D03*
X123558000Y-161566000D03*
X128558000Y-161566000D03*
D18*
X122808000Y-143566000D03*
X129308000Y-143566000D03*
X129308000Y-139066000D03*
X122808000Y-139066000D03*
D17*
X48408000Y-145166000D03*
X63708000Y-145166000D03*
X63708000Y-158466000D03*
X48408000Y-158466000D03*
D18*
X46408000Y-151816000D03*
X46408000Y-149316000D03*
X46408000Y-154316000D03*
D19*
X56058000Y-161566000D03*
X53558000Y-161566000D03*
X58558000Y-161566000D03*
D18*
X52808000Y-143566000D03*
X59308000Y-143566000D03*
X59308000Y-139066000D03*
X52808000Y-139066000D03*
D11*
X47498000Y-140716000D03*
X113538000Y-161036000D03*
X134493000Y-140716000D03*
X68453000Y-161036000D03*
D15*
X81058000Y-139316000D03*
D16*
X81058000Y-141816000D03*
D13*
X86360000Y-143256000D03*
D14*
X86360000Y-140716000D03*
X88900000Y-143256000D03*
X88900000Y-140716000D03*
X91440000Y-143256000D03*
X91440000Y-140716000D03*
X93980000Y-143256000D03*
X93980000Y-140716000D03*
X96520000Y-143256000D03*
X96520000Y-140716000D03*
D12*
X54610000Y-164719000D03*
X54610000Y-130429000D03*
D13*
X86360000Y-108966000D03*
D14*
X86360000Y-106426000D03*
X88900000Y-108966000D03*
X88900000Y-106426000D03*
X91440000Y-108966000D03*
X91440000Y-106426000D03*
X93980000Y-108966000D03*
X93980000Y-106426000D03*
X96520000Y-108966000D03*
X96520000Y-106426000D03*
D15*
X81058000Y-105026000D03*
D16*
X81058000Y-107526000D03*
D11*
X68453000Y-126746000D03*
X134493000Y-106426000D03*
X113538000Y-126746000D03*
X47498000Y-106426000D03*
D17*
X48408000Y-110876000D03*
X63708000Y-110876000D03*
X63708000Y-124176000D03*
X48408000Y-124176000D03*
D18*
X46408000Y-117526000D03*
X46408000Y-115026000D03*
X46408000Y-120026000D03*
D19*
X56058000Y-127276000D03*
X53558000Y-127276000D03*
X58558000Y-127276000D03*
D18*
X52808000Y-109276000D03*
X59308000Y-109276000D03*
X59308000Y-104776000D03*
X52808000Y-104776000D03*
D17*
X118408000Y-110876000D03*
X133708000Y-110876000D03*
X133708000Y-124176000D03*
X118408000Y-124176000D03*
D18*
X116408000Y-117526000D03*
X116408000Y-115026000D03*
X116408000Y-120026000D03*
D19*
X126058000Y-127276000D03*
X123558000Y-127276000D03*
X128558000Y-127276000D03*
D18*
X122808000Y-109276000D03*
X129308000Y-109276000D03*
X129308000Y-104776000D03*
X122808000Y-104776000D03*
D12*
X55118000Y-130429000D03*
X56134000Y-130429000D03*
X55626000Y-130429000D03*
X56642000Y-130429000D03*
X92202000Y-102235000D03*
X91186000Y-102235000D03*
X91694000Y-102235000D03*
X90678000Y-102235000D03*
X90170000Y-102235000D03*
X127254000Y-130429000D03*
X126238000Y-130429000D03*
X126746000Y-130429000D03*
X125730000Y-130429000D03*
X125222000Y-130429000D03*
X125222000Y-96139000D03*
X125730000Y-96139000D03*
X126746000Y-96139000D03*
X126238000Y-96139000D03*
X127254000Y-96139000D03*
X90170000Y-67945000D03*
X90678000Y-67945000D03*
X91694000Y-67945000D03*
X91186000Y-67945000D03*
X92202000Y-67945000D03*
X56642000Y-96139000D03*
X55626000Y-96139000D03*
X56134000Y-96139000D03*
X55118000Y-96139000D03*
D17*
X118408000Y-76586000D03*
X133708000Y-76586000D03*
X133708000Y-89886000D03*
X118408000Y-89886000D03*
D18*
X116408000Y-83236000D03*
X116408000Y-80736000D03*
X116408000Y-85736000D03*
D19*
X126058000Y-92986000D03*
X123558000Y-92986000D03*
X128558000Y-92986000D03*
D18*
X122808000Y-74986000D03*
X129308000Y-74986000D03*
X129308000Y-70486000D03*
X122808000Y-70486000D03*
D17*
X48408000Y-76586000D03*
X63708000Y-76586000D03*
X63708000Y-89886000D03*
X48408000Y-89886000D03*
D18*
X46408000Y-83236000D03*
X46408000Y-80736000D03*
X46408000Y-85736000D03*
D19*
X56058000Y-92986000D03*
X53558000Y-92986000D03*
X58558000Y-92986000D03*
D18*
X52808000Y-74986000D03*
X59308000Y-74986000D03*
X59308000Y-70486000D03*
X52808000Y-70486000D03*
D11*
X47498000Y-72136000D03*
X113538000Y-92456000D03*
X134493000Y-72136000D03*
X68453000Y-92456000D03*
D15*
X81058000Y-70736000D03*
D16*
X81058000Y-73236000D03*
D13*
X86360000Y-74676000D03*
D14*
X86360000Y-72136000D03*
X88900000Y-74676000D03*
X88900000Y-72136000D03*
X91440000Y-74676000D03*
X91440000Y-72136000D03*
X93980000Y-74676000D03*
X93980000Y-72136000D03*
X96520000Y-74676000D03*
X96520000Y-72136000D03*
D12*
X54610000Y-96139000D03*
M02*
