G04 #@! TF.FileFunction,Legend,Top*
%FSLAX46Y46*%
G04 Gerber Fmt 4.6, Leading zero omitted, Abs format (unit mm)*
G04 Created by KiCad (PCBNEW (2015-01-16 BZR 5376)-product) date 26/03/2015 17:18:18*
%MOMM*%
G01*
G04 APERTURE LIST*
%ADD10C,0.100000*%
%ADD11C,0.300000*%
%ADD12C,0.150000*%
%ADD13R,1.300000X1.300000*%
%ADD14C,1.300000*%
%ADD15O,2.400000X3.000000*%
%ADD16R,1.727200X1.727200*%
%ADD17O,1.727200X1.727200*%
%ADD18C,4.000000*%
G04 APERTURE END LIST*
D10*
D11*
X106428572Y-49407143D02*
X106642858Y-49478571D01*
X107000001Y-49478571D01*
X107142858Y-49407143D01*
X107214287Y-49335714D01*
X107285715Y-49192857D01*
X107285715Y-49050000D01*
X107214287Y-48907143D01*
X107142858Y-48835714D01*
X107000001Y-48764286D01*
X106714287Y-48692857D01*
X106571429Y-48621429D01*
X106500001Y-48550000D01*
X106428572Y-48407143D01*
X106428572Y-48264286D01*
X106500001Y-48121429D01*
X106571429Y-48050000D01*
X106714287Y-47978571D01*
X107071429Y-47978571D01*
X107285715Y-48050000D01*
X108142858Y-49478571D02*
X108000000Y-49407143D01*
X107928572Y-49264286D01*
X107928572Y-47978571D01*
X108714286Y-49478571D02*
X108714286Y-48478571D01*
X108714286Y-47978571D02*
X108642857Y-48050000D01*
X108714286Y-48121429D01*
X108785714Y-48050000D01*
X108714286Y-47978571D01*
X108714286Y-48121429D01*
X110071429Y-49478571D02*
X110071429Y-47978571D01*
X110071429Y-49407143D02*
X109928572Y-49478571D01*
X109642858Y-49478571D01*
X109500000Y-49407143D01*
X109428572Y-49335714D01*
X109357143Y-49192857D01*
X109357143Y-48764286D01*
X109428572Y-48621429D01*
X109500000Y-48550000D01*
X109642858Y-48478571D01*
X109928572Y-48478571D01*
X110071429Y-48550000D01*
X111357143Y-49407143D02*
X111214286Y-49478571D01*
X110928572Y-49478571D01*
X110785715Y-49407143D01*
X110714286Y-49264286D01*
X110714286Y-48692857D01*
X110785715Y-48550000D01*
X110928572Y-48478571D01*
X111214286Y-48478571D01*
X111357143Y-48550000D01*
X111428572Y-48692857D01*
X111428572Y-48835714D01*
X110714286Y-48978571D01*
X112071429Y-49478571D02*
X112071429Y-48478571D01*
X112071429Y-48764286D02*
X112142857Y-48621429D01*
X112214286Y-48550000D01*
X112357143Y-48478571D01*
X112500000Y-48478571D01*
X112928571Y-49407143D02*
X113071428Y-49478571D01*
X113357143Y-49478571D01*
X113500000Y-49407143D01*
X113571428Y-49264286D01*
X113571428Y-49192857D01*
X113500000Y-49050000D01*
X113357143Y-48978571D01*
X113142857Y-48978571D01*
X113000000Y-48907143D01*
X112928571Y-48764286D01*
X112928571Y-48692857D01*
X113000000Y-48550000D01*
X113142857Y-48478571D01*
X113357143Y-48478571D01*
X113500000Y-48550000D01*
X101928571Y-50378571D02*
X102785714Y-50378571D01*
X102357143Y-51878571D02*
X102357143Y-50378571D01*
X103285714Y-51878571D02*
X103285714Y-50378571D01*
X103928571Y-51878571D02*
X103928571Y-51092857D01*
X103857142Y-50950000D01*
X103714285Y-50878571D01*
X103500000Y-50878571D01*
X103357142Y-50950000D01*
X103285714Y-51021429D01*
X105214285Y-51807143D02*
X105071428Y-51878571D01*
X104785714Y-51878571D01*
X104642857Y-51807143D01*
X104571428Y-51664286D01*
X104571428Y-51092857D01*
X104642857Y-50950000D01*
X104785714Y-50878571D01*
X105071428Y-50878571D01*
X105214285Y-50950000D01*
X105285714Y-51092857D01*
X105285714Y-51235714D01*
X104571428Y-51378571D01*
X105785714Y-50878571D02*
X106142857Y-51878571D01*
X106499999Y-50878571D02*
X106142857Y-51878571D01*
X105999999Y-52235714D01*
X105928571Y-52307143D01*
X105785714Y-52378571D01*
X108214285Y-50878571D02*
X108214285Y-52164286D01*
X108142856Y-52307143D01*
X107999999Y-52378571D01*
X107928571Y-52378571D01*
X108214285Y-50378571D02*
X108142856Y-50450000D01*
X108214285Y-50521429D01*
X108285713Y-50450000D01*
X108214285Y-50378571D01*
X108214285Y-50521429D01*
X109571428Y-50878571D02*
X109571428Y-51878571D01*
X108928571Y-50878571D02*
X108928571Y-51664286D01*
X108999999Y-51807143D01*
X109142857Y-51878571D01*
X109357142Y-51878571D01*
X109499999Y-51807143D01*
X109571428Y-51735714D01*
X110214285Y-51807143D02*
X110357142Y-51878571D01*
X110642857Y-51878571D01*
X110785714Y-51807143D01*
X110857142Y-51664286D01*
X110857142Y-51592857D01*
X110785714Y-51450000D01*
X110642857Y-51378571D01*
X110428571Y-51378571D01*
X110285714Y-51307143D01*
X110214285Y-51164286D01*
X110214285Y-51092857D01*
X110285714Y-50950000D01*
X110428571Y-50878571D01*
X110642857Y-50878571D01*
X110785714Y-50950000D01*
X111285714Y-50878571D02*
X111857143Y-50878571D01*
X111500000Y-50378571D02*
X111500000Y-51664286D01*
X111571428Y-51807143D01*
X111714286Y-51878571D01*
X111857143Y-51878571D01*
X113357143Y-50878571D02*
X113642857Y-51878571D01*
X113928571Y-51164286D01*
X114214286Y-51878571D01*
X114500000Y-50878571D01*
X115285715Y-51878571D02*
X115142857Y-51807143D01*
X115071429Y-51735714D01*
X115000000Y-51592857D01*
X115000000Y-51164286D01*
X115071429Y-51021429D01*
X115142857Y-50950000D01*
X115285715Y-50878571D01*
X115500000Y-50878571D01*
X115642857Y-50950000D01*
X115714286Y-51021429D01*
X115785715Y-51164286D01*
X115785715Y-51592857D01*
X115714286Y-51735714D01*
X115642857Y-51807143D01*
X115500000Y-51878571D01*
X115285715Y-51878571D01*
X116428572Y-51878571D02*
X116428572Y-50878571D01*
X116428572Y-51164286D02*
X116500000Y-51021429D01*
X116571429Y-50950000D01*
X116714286Y-50878571D01*
X116857143Y-50878571D01*
X117357143Y-51878571D02*
X117357143Y-50378571D01*
X117500000Y-51307143D02*
X117928571Y-51878571D01*
X117928571Y-50878571D02*
X117357143Y-51450000D01*
D10*
X85000000Y-127500000D02*
X85000000Y-130000000D01*
X180000000Y-127500000D02*
X180000000Y-130000000D01*
X85000000Y-125000000D02*
X85000000Y-127500000D01*
X180000000Y-125000000D02*
X180000000Y-127500000D01*
X85000000Y-125000000D02*
X85000000Y-47500000D01*
X177500000Y-132500000D02*
X87500000Y-132500000D01*
X180000000Y-47500000D02*
X180000000Y-125000000D01*
X87500000Y-45000000D02*
G75*
G03X85000000Y-47500000I0J-2500000D01*
G01*
X85000000Y-130000000D02*
G75*
G03X87500000Y-132500000I2500000J0D01*
G01*
X177500000Y-132500000D02*
G75*
G03X180000000Y-130000000I0J2500000D01*
G01*
X180000000Y-47500000D02*
G75*
G03X177500000Y-45000000I-2500000J0D01*
G01*
X87500000Y-45000000D02*
X177500000Y-45000000D01*
D12*
X124250000Y-49750000D02*
X124250000Y-52750000D01*
X121750000Y-52750000D02*
X121750000Y-49750000D01*
X88500000Y-58750000D02*
X176500000Y-58750000D01*
X176500000Y-58750000D02*
X176500000Y-71250000D01*
X176500000Y-71250000D02*
X88500000Y-71250000D01*
X88500000Y-58750000D02*
X88500000Y-71250000D01*
X88500000Y-76250000D02*
X176500000Y-76250000D01*
X176500000Y-76250000D02*
X176500000Y-88750000D01*
X176500000Y-88750000D02*
X88500000Y-88750000D01*
X88500000Y-76250000D02*
X88500000Y-88750000D01*
X88500000Y-93750000D02*
X176500000Y-93750000D01*
X176500000Y-93750000D02*
X176500000Y-106250000D01*
X176500000Y-106250000D02*
X88500000Y-106250000D01*
X88500000Y-93750000D02*
X88500000Y-106250000D01*
X88500000Y-111250000D02*
X176500000Y-111250000D01*
X176500000Y-111250000D02*
X176500000Y-123750000D01*
X176500000Y-123750000D02*
X88500000Y-123750000D01*
X88500000Y-111250000D02*
X88500000Y-123750000D01*
X126230000Y-48690000D02*
X138930000Y-48690000D01*
X138930000Y-48690000D02*
X138930000Y-53770000D01*
X138930000Y-53770000D02*
X128770000Y-53770000D01*
X126230000Y-48690000D02*
X126230000Y-51230000D01*
X125950000Y-52500000D02*
X125950000Y-54050000D01*
X126230000Y-51230000D02*
X128770000Y-51230000D01*
X128770000Y-51230000D02*
X128770000Y-53770000D01*
X125950000Y-54050000D02*
X127500000Y-54050000D01*
D10*
G36*
X102323673Y-54257117D02*
X102318423Y-54555990D01*
X102201252Y-54834951D01*
X102126182Y-54924848D01*
X102044058Y-55001331D01*
X101956128Y-55056292D01*
X101834770Y-55093285D01*
X101652361Y-55115865D01*
X101381278Y-55127586D01*
X100993901Y-55132001D01*
X100511002Y-55132666D01*
X99103641Y-55132666D01*
X98876860Y-54899833D01*
X98779900Y-54772727D01*
X98608737Y-54518759D01*
X98375316Y-54156854D01*
X98091579Y-53705931D01*
X97769471Y-53184914D01*
X97420936Y-52612723D01*
X97168873Y-52193946D01*
X96817944Y-51610276D01*
X96493820Y-51075500D01*
X96206852Y-50606361D01*
X95967390Y-50219605D01*
X95785784Y-49931973D01*
X95672383Y-49760211D01*
X95638029Y-49717446D01*
X95600313Y-49793897D01*
X95512976Y-50013754D01*
X95382075Y-50360503D01*
X95213664Y-50817633D01*
X95013799Y-51368628D01*
X94788536Y-51996978D01*
X94543930Y-52686168D01*
X94410362Y-53065211D01*
X94109394Y-53913480D01*
X93836252Y-54667457D01*
X93595278Y-55315827D01*
X93390813Y-55847274D01*
X93227200Y-56250482D01*
X93108782Y-56514134D01*
X93045876Y-56621211D01*
X92813202Y-56769393D01*
X92512686Y-56827973D01*
X92220377Y-56789356D01*
X92081996Y-56717473D01*
X91885767Y-56488462D01*
X91766361Y-56200254D01*
X91750667Y-56070976D01*
X91778198Y-55959432D01*
X91857252Y-55704060D01*
X91982515Y-55320544D01*
X92148674Y-54824566D01*
X92350418Y-54231809D01*
X92582434Y-53557955D01*
X92839410Y-52818689D01*
X93116032Y-52029693D01*
X93208078Y-51768576D01*
X93551861Y-50796213D01*
X93845640Y-49971571D01*
X94095228Y-49282501D01*
X94306438Y-48716854D01*
X94485083Y-48262482D01*
X94636977Y-47907237D01*
X94767933Y-47638969D01*
X94883764Y-47445530D01*
X94990283Y-47314772D01*
X95093304Y-47234546D01*
X95198639Y-47192703D01*
X95312101Y-47177094D01*
X95405987Y-47175296D01*
X95639625Y-47198886D01*
X95809897Y-47253917D01*
X95811452Y-47254888D01*
X95880148Y-47341848D01*
X96026406Y-47558773D01*
X96240647Y-47890441D01*
X96513292Y-48321625D01*
X96834763Y-48837101D01*
X97195479Y-49421646D01*
X97585863Y-50060033D01*
X97848226Y-50492091D01*
X99761213Y-53651000D01*
X100814773Y-53695834D01*
X101232360Y-53718616D01*
X101597553Y-53747814D01*
X101871830Y-53779725D01*
X102016669Y-53810642D01*
X102018852Y-53811628D01*
X102222113Y-53991331D01*
X102323673Y-54257117D01*
X102323673Y-54257117D01*
X102323673Y-54257117D01*
G37*
X102323673Y-54257117D02*
X102318423Y-54555990D01*
X102201252Y-54834951D01*
X102126182Y-54924848D01*
X102044058Y-55001331D01*
X101956128Y-55056292D01*
X101834770Y-55093285D01*
X101652361Y-55115865D01*
X101381278Y-55127586D01*
X100993901Y-55132001D01*
X100511002Y-55132666D01*
X99103641Y-55132666D01*
X98876860Y-54899833D01*
X98779900Y-54772727D01*
X98608737Y-54518759D01*
X98375316Y-54156854D01*
X98091579Y-53705931D01*
X97769471Y-53184914D01*
X97420936Y-52612723D01*
X97168873Y-52193946D01*
X96817944Y-51610276D01*
X96493820Y-51075500D01*
X96206852Y-50606361D01*
X95967390Y-50219605D01*
X95785784Y-49931973D01*
X95672383Y-49760211D01*
X95638029Y-49717446D01*
X95600313Y-49793897D01*
X95512976Y-50013754D01*
X95382075Y-50360503D01*
X95213664Y-50817633D01*
X95013799Y-51368628D01*
X94788536Y-51996978D01*
X94543930Y-52686168D01*
X94410362Y-53065211D01*
X94109394Y-53913480D01*
X93836252Y-54667457D01*
X93595278Y-55315827D01*
X93390813Y-55847274D01*
X93227200Y-56250482D01*
X93108782Y-56514134D01*
X93045876Y-56621211D01*
X92813202Y-56769393D01*
X92512686Y-56827973D01*
X92220377Y-56789356D01*
X92081996Y-56717473D01*
X91885767Y-56488462D01*
X91766361Y-56200254D01*
X91750667Y-56070976D01*
X91778198Y-55959432D01*
X91857252Y-55704060D01*
X91982515Y-55320544D01*
X92148674Y-54824566D01*
X92350418Y-54231809D01*
X92582434Y-53557955D01*
X92839410Y-52818689D01*
X93116032Y-52029693D01*
X93208078Y-51768576D01*
X93551861Y-50796213D01*
X93845640Y-49971571D01*
X94095228Y-49282501D01*
X94306438Y-48716854D01*
X94485083Y-48262482D01*
X94636977Y-47907237D01*
X94767933Y-47638969D01*
X94883764Y-47445530D01*
X94990283Y-47314772D01*
X95093304Y-47234546D01*
X95198639Y-47192703D01*
X95312101Y-47177094D01*
X95405987Y-47175296D01*
X95639625Y-47198886D01*
X95809897Y-47253917D01*
X95811452Y-47254888D01*
X95880148Y-47341848D01*
X96026406Y-47558773D01*
X96240647Y-47890441D01*
X96513292Y-48321625D01*
X96834763Y-48837101D01*
X97195479Y-49421646D01*
X97585863Y-50060033D01*
X97848226Y-50492091D01*
X99761213Y-53651000D01*
X100814773Y-53695834D01*
X101232360Y-53718616D01*
X101597553Y-53747814D01*
X101871830Y-53779725D01*
X102016669Y-53810642D01*
X102018852Y-53811628D01*
X102222113Y-53991331D01*
X102323673Y-54257117D01*
X102323673Y-54257117D01*
G36*
X100979333Y-52731612D02*
X100911227Y-52840630D01*
X100742346Y-52984552D01*
X100525849Y-53127721D01*
X100314892Y-53234482D01*
X100176682Y-53270000D01*
X100063145Y-53212811D01*
X100048000Y-53162253D01*
X100116233Y-53056971D01*
X100285944Y-52928510D01*
X100344839Y-52894648D01*
X100522127Y-52786476D01*
X100605027Y-52710098D01*
X100604314Y-52697425D01*
X100516744Y-52712733D01*
X100373303Y-52795697D01*
X100174980Y-52898116D01*
X100029161Y-52931333D01*
X99896692Y-52891803D01*
X99895463Y-52793291D01*
X100012714Y-52665909D01*
X100185482Y-52562385D01*
X100365904Y-52461094D01*
X100447451Y-52384025D01*
X100444957Y-52368735D01*
X100350051Y-52376857D01*
X100203970Y-52457030D01*
X99991595Y-52564294D01*
X99813082Y-52585452D01*
X99715677Y-52518298D01*
X99709333Y-52480139D01*
X99780953Y-52383674D01*
X99959236Y-52263102D01*
X100189316Y-52145131D01*
X100416328Y-52056469D01*
X100585405Y-52023823D01*
X100626583Y-52033629D01*
X100731092Y-52154397D01*
X100849675Y-52362172D01*
X100944799Y-52582684D01*
X100979333Y-52731612D01*
X100979333Y-52731612D01*
X100979333Y-52731612D01*
G37*
X100979333Y-52731612D02*
X100911227Y-52840630D01*
X100742346Y-52984552D01*
X100525849Y-53127721D01*
X100314892Y-53234482D01*
X100176682Y-53270000D01*
X100063145Y-53212811D01*
X100048000Y-53162253D01*
X100116233Y-53056971D01*
X100285944Y-52928510D01*
X100344839Y-52894648D01*
X100522127Y-52786476D01*
X100605027Y-52710098D01*
X100604314Y-52697425D01*
X100516744Y-52712733D01*
X100373303Y-52795697D01*
X100174980Y-52898116D01*
X100029161Y-52931333D01*
X99896692Y-52891803D01*
X99895463Y-52793291D01*
X100012714Y-52665909D01*
X100185482Y-52562385D01*
X100365904Y-52461094D01*
X100447451Y-52384025D01*
X100444957Y-52368735D01*
X100350051Y-52376857D01*
X100203970Y-52457030D01*
X99991595Y-52564294D01*
X99813082Y-52585452D01*
X99715677Y-52518298D01*
X99709333Y-52480139D01*
X99780953Y-52383674D01*
X99959236Y-52263102D01*
X100189316Y-52145131D01*
X100416328Y-52056469D01*
X100585405Y-52023823D01*
X100626583Y-52033629D01*
X100731092Y-52154397D01*
X100849675Y-52362172D01*
X100944799Y-52582684D01*
X100979333Y-52731612D01*
X100979333Y-52731612D01*
G36*
X100277515Y-51517581D02*
X100196257Y-51679647D01*
X100099392Y-51732649D01*
X99984703Y-51724484D01*
X99980078Y-51608116D01*
X99986900Y-51580357D01*
X99969595Y-51400739D01*
X99837862Y-51294613D01*
X99637115Y-51279578D01*
X99427200Y-51363481D01*
X99224608Y-51450227D01*
X99079159Y-51428756D01*
X99032000Y-51324908D01*
X99100748Y-51244936D01*
X99272648Y-51125256D01*
X99496179Y-50995087D01*
X99719823Y-50883648D01*
X99892060Y-50820158D01*
X99931664Y-50814666D01*
X100036935Y-50881799D01*
X100048000Y-50931299D01*
X100107767Y-51078583D01*
X100179280Y-51156885D01*
X100275159Y-51319523D01*
X100277515Y-51517581D01*
X100277515Y-51517581D01*
X100277515Y-51517581D01*
G37*
X100277515Y-51517581D02*
X100196257Y-51679647D01*
X100099392Y-51732649D01*
X99984703Y-51724484D01*
X99980078Y-51608116D01*
X99986900Y-51580357D01*
X99969595Y-51400739D01*
X99837862Y-51294613D01*
X99637115Y-51279578D01*
X99427200Y-51363481D01*
X99224608Y-51450227D01*
X99079159Y-51428756D01*
X99032000Y-51324908D01*
X99100748Y-51244936D01*
X99272648Y-51125256D01*
X99496179Y-50995087D01*
X99719823Y-50883648D01*
X99892060Y-50820158D01*
X99931664Y-50814666D01*
X100036935Y-50881799D01*
X100048000Y-50931299D01*
X100107767Y-51078583D01*
X100179280Y-51156885D01*
X100275159Y-51319523D01*
X100277515Y-51517581D01*
X100277515Y-51517581D01*
G36*
X99885030Y-49848888D02*
X99828419Y-49993655D01*
X99651466Y-50223534D01*
X99389378Y-50499817D01*
X99186357Y-50698187D01*
X99186357Y-50275688D01*
X99173111Y-50250222D01*
X99072631Y-50240089D01*
X99060222Y-50250222D01*
X99071844Y-50300556D01*
X99116667Y-50306666D01*
X99186357Y-50275688D01*
X99186357Y-50698187D01*
X99132036Y-50751264D01*
X98965893Y-50900332D01*
X98863580Y-50965540D01*
X98797729Y-50965403D01*
X98752757Y-50930534D01*
X98743593Y-50822555D01*
X98780675Y-50725001D01*
X98828739Y-50531833D01*
X98774626Y-50386930D01*
X98642282Y-50341645D01*
X98605765Y-50349920D01*
X98463840Y-50344321D01*
X98369394Y-50267399D01*
X98380443Y-50168297D01*
X98385282Y-50163161D01*
X98480167Y-50126159D01*
X98692156Y-50063942D01*
X98973210Y-49988734D01*
X99275291Y-49912757D01*
X99550359Y-49848236D01*
X99750377Y-49807393D01*
X99815167Y-49799327D01*
X99885030Y-49848888D01*
X99885030Y-49848888D01*
X99885030Y-49848888D01*
G37*
X99885030Y-49848888D02*
X99828419Y-49993655D01*
X99651466Y-50223534D01*
X99389378Y-50499817D01*
X99186357Y-50698187D01*
X99186357Y-50275688D01*
X99173111Y-50250222D01*
X99072631Y-50240089D01*
X99060222Y-50250222D01*
X99071844Y-50300556D01*
X99116667Y-50306666D01*
X99186357Y-50275688D01*
X99186357Y-50698187D01*
X99132036Y-50751264D01*
X98965893Y-50900332D01*
X98863580Y-50965540D01*
X98797729Y-50965403D01*
X98752757Y-50930534D01*
X98743593Y-50822555D01*
X98780675Y-50725001D01*
X98828739Y-50531833D01*
X98774626Y-50386930D01*
X98642282Y-50341645D01*
X98605765Y-50349920D01*
X98463840Y-50344321D01*
X98369394Y-50267399D01*
X98380443Y-50168297D01*
X98385282Y-50163161D01*
X98480167Y-50126159D01*
X98692156Y-50063942D01*
X98973210Y-49988734D01*
X99275291Y-49912757D01*
X99550359Y-49848236D01*
X99750377Y-49807393D01*
X99815167Y-49799327D01*
X99885030Y-49848888D01*
X99885030Y-49848888D01*
G36*
X98934522Y-49077442D02*
X98904410Y-49327469D01*
X98759161Y-49497532D01*
X98663015Y-49556668D01*
X98663015Y-49082315D01*
X98611645Y-48997921D01*
X98476205Y-48878044D01*
X98411966Y-48901395D01*
X98444103Y-49054505D01*
X98455785Y-49081296D01*
X98555431Y-49223636D01*
X98636648Y-49211884D01*
X98663015Y-49082315D01*
X98663015Y-49556668D01*
X98590049Y-49601548D01*
X98476348Y-49601261D01*
X98363091Y-49480234D01*
X98279741Y-49354166D01*
X98169588Y-49201745D01*
X98107226Y-49153344D01*
X98102093Y-49165994D01*
X98145777Y-49295052D01*
X98232571Y-49441309D01*
X98312675Y-49626720D01*
X98283920Y-49760881D01*
X98190074Y-49798666D01*
X98098314Y-49735127D01*
X97983404Y-49589978D01*
X97853644Y-49285312D01*
X97864938Y-49009595D01*
X98012809Y-48796389D01*
X98096462Y-48742507D01*
X98412902Y-48627392D01*
X98652965Y-48655331D01*
X98815532Y-48801505D01*
X98934522Y-49077442D01*
X98934522Y-49077442D01*
X98934522Y-49077442D01*
G37*
X98934522Y-49077442D02*
X98904410Y-49327469D01*
X98759161Y-49497532D01*
X98663015Y-49556668D01*
X98663015Y-49082315D01*
X98611645Y-48997921D01*
X98476205Y-48878044D01*
X98411966Y-48901395D01*
X98444103Y-49054505D01*
X98455785Y-49081296D01*
X98555431Y-49223636D01*
X98636648Y-49211884D01*
X98663015Y-49082315D01*
X98663015Y-49556668D01*
X98590049Y-49601548D01*
X98476348Y-49601261D01*
X98363091Y-49480234D01*
X98279741Y-49354166D01*
X98169588Y-49201745D01*
X98107226Y-49153344D01*
X98102093Y-49165994D01*
X98145777Y-49295052D01*
X98232571Y-49441309D01*
X98312675Y-49626720D01*
X98283920Y-49760881D01*
X98190074Y-49798666D01*
X98098314Y-49735127D01*
X97983404Y-49589978D01*
X97853644Y-49285312D01*
X97864938Y-49009595D01*
X98012809Y-48796389D01*
X98096462Y-48742507D01*
X98412902Y-48627392D01*
X98652965Y-48655331D01*
X98815532Y-48801505D01*
X98934522Y-49077442D01*
X98934522Y-49077442D01*
G36*
X98726947Y-47857265D02*
X98648426Y-48003194D01*
X98584778Y-48050288D01*
X98223589Y-48263949D01*
X97904013Y-48440417D01*
X97658795Y-48562472D01*
X97520680Y-48612893D01*
X97514090Y-48613333D01*
X97433307Y-48544978D01*
X97423333Y-48488054D01*
X97492940Y-48378135D01*
X97669233Y-48243311D01*
X97777031Y-48182331D01*
X97982687Y-48068351D01*
X98053309Y-47994683D01*
X98009574Y-47935095D01*
X97984003Y-47919776D01*
X97887197Y-47827819D01*
X97937005Y-47717498D01*
X98000573Y-47625985D01*
X97968249Y-47609996D01*
X97823772Y-47673857D01*
X97556589Y-47818702D01*
X97279299Y-47955500D01*
X97125168Y-47984418D01*
X97086885Y-47905517D01*
X97110105Y-47822496D01*
X97204908Y-47724302D01*
X97404241Y-47584349D01*
X97658559Y-47431131D01*
X97918320Y-47293141D01*
X98133979Y-47198872D01*
X98237705Y-47174000D01*
X98377476Y-47234763D01*
X98400711Y-47391442D01*
X98355603Y-47510916D01*
X98309505Y-47637912D01*
X98388691Y-47679360D01*
X98469629Y-47681999D01*
X98662266Y-47733944D01*
X98726947Y-47857265D01*
X98726947Y-47857265D01*
X98726947Y-47857265D01*
G37*
X98726947Y-47857265D02*
X98648426Y-48003194D01*
X98584778Y-48050288D01*
X98223589Y-48263949D01*
X97904013Y-48440417D01*
X97658795Y-48562472D01*
X97520680Y-48612893D01*
X97514090Y-48613333D01*
X97433307Y-48544978D01*
X97423333Y-48488054D01*
X97492940Y-48378135D01*
X97669233Y-48243311D01*
X97777031Y-48182331D01*
X97982687Y-48068351D01*
X98053309Y-47994683D01*
X98009574Y-47935095D01*
X97984003Y-47919776D01*
X97887197Y-47827819D01*
X97937005Y-47717498D01*
X98000573Y-47625985D01*
X97968249Y-47609996D01*
X97823772Y-47673857D01*
X97556589Y-47818702D01*
X97279299Y-47955500D01*
X97125168Y-47984418D01*
X97086885Y-47905517D01*
X97110105Y-47822496D01*
X97204908Y-47724302D01*
X97404241Y-47584349D01*
X97658559Y-47431131D01*
X97918320Y-47293141D01*
X98133979Y-47198872D01*
X98237705Y-47174000D01*
X98377476Y-47234763D01*
X98400711Y-47391442D01*
X98355603Y-47510916D01*
X98309505Y-47637912D01*
X98388691Y-47679360D01*
X98469629Y-47681999D01*
X98662266Y-47733944D01*
X98726947Y-47857265D01*
X98726947Y-47857265D01*
D12*
X125857143Y-51416666D02*
X125904762Y-51464285D01*
X125952381Y-51607142D01*
X125952381Y-51702380D01*
X125904762Y-51845238D01*
X125809524Y-51940476D01*
X125714286Y-51988095D01*
X125523810Y-52035714D01*
X125380952Y-52035714D01*
X125190476Y-51988095D01*
X125095238Y-51940476D01*
X125000000Y-51845238D01*
X124952381Y-51702380D01*
X124952381Y-51607142D01*
X125000000Y-51464285D01*
X125047619Y-51416666D01*
X125952381Y-50464285D02*
X125952381Y-51035714D01*
X125952381Y-50750000D02*
X124952381Y-50750000D01*
X125095238Y-50845238D01*
X125190476Y-50940476D01*
X125238095Y-51035714D01*
X131738095Y-60904762D02*
X131880952Y-60952381D01*
X132119048Y-60952381D01*
X132214286Y-60904762D01*
X132261905Y-60857143D01*
X132309524Y-60761905D01*
X132309524Y-60666667D01*
X132261905Y-60571429D01*
X132214286Y-60523810D01*
X132119048Y-60476190D01*
X131928571Y-60428571D01*
X131833333Y-60380952D01*
X131785714Y-60333333D01*
X131738095Y-60238095D01*
X131738095Y-60142857D01*
X131785714Y-60047619D01*
X131833333Y-60000000D01*
X131928571Y-59952381D01*
X132166667Y-59952381D01*
X132309524Y-60000000D01*
X133261905Y-60952381D02*
X132690476Y-60952381D01*
X132976190Y-60952381D02*
X132976190Y-59952381D01*
X132880952Y-60095238D01*
X132785714Y-60190476D01*
X132690476Y-60238095D01*
X128904761Y-69654762D02*
X129047618Y-69702381D01*
X129285714Y-69702381D01*
X129380952Y-69654762D01*
X129428571Y-69607143D01*
X129476190Y-69511905D01*
X129476190Y-69416667D01*
X129428571Y-69321429D01*
X129380952Y-69273810D01*
X129285714Y-69226190D01*
X129095237Y-69178571D01*
X128999999Y-69130952D01*
X128952380Y-69083333D01*
X128904761Y-68988095D01*
X128904761Y-68892857D01*
X128952380Y-68797619D01*
X128999999Y-68750000D01*
X129095237Y-68702381D01*
X129333333Y-68702381D01*
X129476190Y-68750000D01*
X130047618Y-69702381D02*
X129952380Y-69654762D01*
X129904761Y-69559524D01*
X129904761Y-68702381D01*
X130428571Y-69702381D02*
X130428571Y-69035714D01*
X130428571Y-68702381D02*
X130380952Y-68750000D01*
X130428571Y-68797619D01*
X130476190Y-68750000D01*
X130428571Y-68702381D01*
X130428571Y-68797619D01*
X131333333Y-69702381D02*
X131333333Y-68702381D01*
X131333333Y-69654762D02*
X131238095Y-69702381D01*
X131047618Y-69702381D01*
X130952380Y-69654762D01*
X130904761Y-69607143D01*
X130857142Y-69511905D01*
X130857142Y-69226190D01*
X130904761Y-69130952D01*
X130952380Y-69083333D01*
X131047618Y-69035714D01*
X131238095Y-69035714D01*
X131333333Y-69083333D01*
X132190476Y-69654762D02*
X132095238Y-69702381D01*
X131904761Y-69702381D01*
X131809523Y-69654762D01*
X131761904Y-69559524D01*
X131761904Y-69178571D01*
X131809523Y-69083333D01*
X131904761Y-69035714D01*
X132095238Y-69035714D01*
X132190476Y-69083333D01*
X132238095Y-69178571D01*
X132238095Y-69273810D01*
X131761904Y-69369048D01*
X132666666Y-69702381D02*
X132666666Y-69035714D01*
X132666666Y-69226190D02*
X132714285Y-69130952D01*
X132761904Y-69083333D01*
X132857142Y-69035714D01*
X132952381Y-69035714D01*
X133047619Y-69797619D02*
X133809524Y-69797619D01*
X134047619Y-69702381D02*
X134047619Y-68702381D01*
X134428572Y-68702381D01*
X134523810Y-68750000D01*
X134571429Y-68797619D01*
X134619048Y-68892857D01*
X134619048Y-69035714D01*
X134571429Y-69130952D01*
X134523810Y-69178571D01*
X134428572Y-69226190D01*
X134047619Y-69226190D01*
X135190476Y-69702381D02*
X135095238Y-69654762D01*
X135047619Y-69607143D01*
X135000000Y-69511905D01*
X135000000Y-69226190D01*
X135047619Y-69130952D01*
X135095238Y-69083333D01*
X135190476Y-69035714D01*
X135333334Y-69035714D01*
X135428572Y-69083333D01*
X135476191Y-69130952D01*
X135523810Y-69226190D01*
X135523810Y-69511905D01*
X135476191Y-69607143D01*
X135428572Y-69654762D01*
X135333334Y-69702381D01*
X135190476Y-69702381D01*
X135809524Y-69035714D02*
X136190476Y-69035714D01*
X135952381Y-68702381D02*
X135952381Y-69559524D01*
X136000000Y-69654762D01*
X136095238Y-69702381D01*
X136190476Y-69702381D01*
X131738095Y-78404762D02*
X131880952Y-78452381D01*
X132119048Y-78452381D01*
X132214286Y-78404762D01*
X132261905Y-78357143D01*
X132309524Y-78261905D01*
X132309524Y-78166667D01*
X132261905Y-78071429D01*
X132214286Y-78023810D01*
X132119048Y-77976190D01*
X131928571Y-77928571D01*
X131833333Y-77880952D01*
X131785714Y-77833333D01*
X131738095Y-77738095D01*
X131738095Y-77642857D01*
X131785714Y-77547619D01*
X131833333Y-77500000D01*
X131928571Y-77452381D01*
X132166667Y-77452381D01*
X132309524Y-77500000D01*
X132690476Y-77547619D02*
X132738095Y-77500000D01*
X132833333Y-77452381D01*
X133071429Y-77452381D01*
X133166667Y-77500000D01*
X133214286Y-77547619D01*
X133261905Y-77642857D01*
X133261905Y-77738095D01*
X133214286Y-77880952D01*
X132642857Y-78452381D01*
X133261905Y-78452381D01*
X128904761Y-87154762D02*
X129047618Y-87202381D01*
X129285714Y-87202381D01*
X129380952Y-87154762D01*
X129428571Y-87107143D01*
X129476190Y-87011905D01*
X129476190Y-86916667D01*
X129428571Y-86821429D01*
X129380952Y-86773810D01*
X129285714Y-86726190D01*
X129095237Y-86678571D01*
X128999999Y-86630952D01*
X128952380Y-86583333D01*
X128904761Y-86488095D01*
X128904761Y-86392857D01*
X128952380Y-86297619D01*
X128999999Y-86250000D01*
X129095237Y-86202381D01*
X129333333Y-86202381D01*
X129476190Y-86250000D01*
X130047618Y-87202381D02*
X129952380Y-87154762D01*
X129904761Y-87059524D01*
X129904761Y-86202381D01*
X130428571Y-87202381D02*
X130428571Y-86535714D01*
X130428571Y-86202381D02*
X130380952Y-86250000D01*
X130428571Y-86297619D01*
X130476190Y-86250000D01*
X130428571Y-86202381D01*
X130428571Y-86297619D01*
X131333333Y-87202381D02*
X131333333Y-86202381D01*
X131333333Y-87154762D02*
X131238095Y-87202381D01*
X131047618Y-87202381D01*
X130952380Y-87154762D01*
X130904761Y-87107143D01*
X130857142Y-87011905D01*
X130857142Y-86726190D01*
X130904761Y-86630952D01*
X130952380Y-86583333D01*
X131047618Y-86535714D01*
X131238095Y-86535714D01*
X131333333Y-86583333D01*
X132190476Y-87154762D02*
X132095238Y-87202381D01*
X131904761Y-87202381D01*
X131809523Y-87154762D01*
X131761904Y-87059524D01*
X131761904Y-86678571D01*
X131809523Y-86583333D01*
X131904761Y-86535714D01*
X132095238Y-86535714D01*
X132190476Y-86583333D01*
X132238095Y-86678571D01*
X132238095Y-86773810D01*
X131761904Y-86869048D01*
X132666666Y-87202381D02*
X132666666Y-86535714D01*
X132666666Y-86726190D02*
X132714285Y-86630952D01*
X132761904Y-86583333D01*
X132857142Y-86535714D01*
X132952381Y-86535714D01*
X133047619Y-87297619D02*
X133809524Y-87297619D01*
X134047619Y-87202381D02*
X134047619Y-86202381D01*
X134428572Y-86202381D01*
X134523810Y-86250000D01*
X134571429Y-86297619D01*
X134619048Y-86392857D01*
X134619048Y-86535714D01*
X134571429Y-86630952D01*
X134523810Y-86678571D01*
X134428572Y-86726190D01*
X134047619Y-86726190D01*
X135190476Y-87202381D02*
X135095238Y-87154762D01*
X135047619Y-87107143D01*
X135000000Y-87011905D01*
X135000000Y-86726190D01*
X135047619Y-86630952D01*
X135095238Y-86583333D01*
X135190476Y-86535714D01*
X135333334Y-86535714D01*
X135428572Y-86583333D01*
X135476191Y-86630952D01*
X135523810Y-86726190D01*
X135523810Y-87011905D01*
X135476191Y-87107143D01*
X135428572Y-87154762D01*
X135333334Y-87202381D01*
X135190476Y-87202381D01*
X135809524Y-86535714D02*
X136190476Y-86535714D01*
X135952381Y-86202381D02*
X135952381Y-87059524D01*
X136000000Y-87154762D01*
X136095238Y-87202381D01*
X136190476Y-87202381D01*
X131738095Y-95904762D02*
X131880952Y-95952381D01*
X132119048Y-95952381D01*
X132214286Y-95904762D01*
X132261905Y-95857143D01*
X132309524Y-95761905D01*
X132309524Y-95666667D01*
X132261905Y-95571429D01*
X132214286Y-95523810D01*
X132119048Y-95476190D01*
X131928571Y-95428571D01*
X131833333Y-95380952D01*
X131785714Y-95333333D01*
X131738095Y-95238095D01*
X131738095Y-95142857D01*
X131785714Y-95047619D01*
X131833333Y-95000000D01*
X131928571Y-94952381D01*
X132166667Y-94952381D01*
X132309524Y-95000000D01*
X132642857Y-94952381D02*
X133261905Y-94952381D01*
X132928571Y-95333333D01*
X133071429Y-95333333D01*
X133166667Y-95380952D01*
X133214286Y-95428571D01*
X133261905Y-95523810D01*
X133261905Y-95761905D01*
X133214286Y-95857143D01*
X133166667Y-95904762D01*
X133071429Y-95952381D01*
X132785714Y-95952381D01*
X132690476Y-95904762D01*
X132642857Y-95857143D01*
X128904761Y-104654762D02*
X129047618Y-104702381D01*
X129285714Y-104702381D01*
X129380952Y-104654762D01*
X129428571Y-104607143D01*
X129476190Y-104511905D01*
X129476190Y-104416667D01*
X129428571Y-104321429D01*
X129380952Y-104273810D01*
X129285714Y-104226190D01*
X129095237Y-104178571D01*
X128999999Y-104130952D01*
X128952380Y-104083333D01*
X128904761Y-103988095D01*
X128904761Y-103892857D01*
X128952380Y-103797619D01*
X128999999Y-103750000D01*
X129095237Y-103702381D01*
X129333333Y-103702381D01*
X129476190Y-103750000D01*
X130047618Y-104702381D02*
X129952380Y-104654762D01*
X129904761Y-104559524D01*
X129904761Y-103702381D01*
X130428571Y-104702381D02*
X130428571Y-104035714D01*
X130428571Y-103702381D02*
X130380952Y-103750000D01*
X130428571Y-103797619D01*
X130476190Y-103750000D01*
X130428571Y-103702381D01*
X130428571Y-103797619D01*
X131333333Y-104702381D02*
X131333333Y-103702381D01*
X131333333Y-104654762D02*
X131238095Y-104702381D01*
X131047618Y-104702381D01*
X130952380Y-104654762D01*
X130904761Y-104607143D01*
X130857142Y-104511905D01*
X130857142Y-104226190D01*
X130904761Y-104130952D01*
X130952380Y-104083333D01*
X131047618Y-104035714D01*
X131238095Y-104035714D01*
X131333333Y-104083333D01*
X132190476Y-104654762D02*
X132095238Y-104702381D01*
X131904761Y-104702381D01*
X131809523Y-104654762D01*
X131761904Y-104559524D01*
X131761904Y-104178571D01*
X131809523Y-104083333D01*
X131904761Y-104035714D01*
X132095238Y-104035714D01*
X132190476Y-104083333D01*
X132238095Y-104178571D01*
X132238095Y-104273810D01*
X131761904Y-104369048D01*
X132666666Y-104702381D02*
X132666666Y-104035714D01*
X132666666Y-104226190D02*
X132714285Y-104130952D01*
X132761904Y-104083333D01*
X132857142Y-104035714D01*
X132952381Y-104035714D01*
X133047619Y-104797619D02*
X133809524Y-104797619D01*
X134047619Y-104702381D02*
X134047619Y-103702381D01*
X134428572Y-103702381D01*
X134523810Y-103750000D01*
X134571429Y-103797619D01*
X134619048Y-103892857D01*
X134619048Y-104035714D01*
X134571429Y-104130952D01*
X134523810Y-104178571D01*
X134428572Y-104226190D01*
X134047619Y-104226190D01*
X135190476Y-104702381D02*
X135095238Y-104654762D01*
X135047619Y-104607143D01*
X135000000Y-104511905D01*
X135000000Y-104226190D01*
X135047619Y-104130952D01*
X135095238Y-104083333D01*
X135190476Y-104035714D01*
X135333334Y-104035714D01*
X135428572Y-104083333D01*
X135476191Y-104130952D01*
X135523810Y-104226190D01*
X135523810Y-104511905D01*
X135476191Y-104607143D01*
X135428572Y-104654762D01*
X135333334Y-104702381D01*
X135190476Y-104702381D01*
X135809524Y-104035714D02*
X136190476Y-104035714D01*
X135952381Y-103702381D02*
X135952381Y-104559524D01*
X136000000Y-104654762D01*
X136095238Y-104702381D01*
X136190476Y-104702381D01*
X131738095Y-113404762D02*
X131880952Y-113452381D01*
X132119048Y-113452381D01*
X132214286Y-113404762D01*
X132261905Y-113357143D01*
X132309524Y-113261905D01*
X132309524Y-113166667D01*
X132261905Y-113071429D01*
X132214286Y-113023810D01*
X132119048Y-112976190D01*
X131928571Y-112928571D01*
X131833333Y-112880952D01*
X131785714Y-112833333D01*
X131738095Y-112738095D01*
X131738095Y-112642857D01*
X131785714Y-112547619D01*
X131833333Y-112500000D01*
X131928571Y-112452381D01*
X132166667Y-112452381D01*
X132309524Y-112500000D01*
X133166667Y-112785714D02*
X133166667Y-113452381D01*
X132928571Y-112404762D02*
X132690476Y-113119048D01*
X133309524Y-113119048D01*
X128904761Y-122154762D02*
X129047618Y-122202381D01*
X129285714Y-122202381D01*
X129380952Y-122154762D01*
X129428571Y-122107143D01*
X129476190Y-122011905D01*
X129476190Y-121916667D01*
X129428571Y-121821429D01*
X129380952Y-121773810D01*
X129285714Y-121726190D01*
X129095237Y-121678571D01*
X128999999Y-121630952D01*
X128952380Y-121583333D01*
X128904761Y-121488095D01*
X128904761Y-121392857D01*
X128952380Y-121297619D01*
X128999999Y-121250000D01*
X129095237Y-121202381D01*
X129333333Y-121202381D01*
X129476190Y-121250000D01*
X130047618Y-122202381D02*
X129952380Y-122154762D01*
X129904761Y-122059524D01*
X129904761Y-121202381D01*
X130428571Y-122202381D02*
X130428571Y-121535714D01*
X130428571Y-121202381D02*
X130380952Y-121250000D01*
X130428571Y-121297619D01*
X130476190Y-121250000D01*
X130428571Y-121202381D01*
X130428571Y-121297619D01*
X131333333Y-122202381D02*
X131333333Y-121202381D01*
X131333333Y-122154762D02*
X131238095Y-122202381D01*
X131047618Y-122202381D01*
X130952380Y-122154762D01*
X130904761Y-122107143D01*
X130857142Y-122011905D01*
X130857142Y-121726190D01*
X130904761Y-121630952D01*
X130952380Y-121583333D01*
X131047618Y-121535714D01*
X131238095Y-121535714D01*
X131333333Y-121583333D01*
X132190476Y-122154762D02*
X132095238Y-122202381D01*
X131904761Y-122202381D01*
X131809523Y-122154762D01*
X131761904Y-122059524D01*
X131761904Y-121678571D01*
X131809523Y-121583333D01*
X131904761Y-121535714D01*
X132095238Y-121535714D01*
X132190476Y-121583333D01*
X132238095Y-121678571D01*
X132238095Y-121773810D01*
X131761904Y-121869048D01*
X132666666Y-122202381D02*
X132666666Y-121535714D01*
X132666666Y-121726190D02*
X132714285Y-121630952D01*
X132761904Y-121583333D01*
X132857142Y-121535714D01*
X132952381Y-121535714D01*
X133047619Y-122297619D02*
X133809524Y-122297619D01*
X134047619Y-122202381D02*
X134047619Y-121202381D01*
X134428572Y-121202381D01*
X134523810Y-121250000D01*
X134571429Y-121297619D01*
X134619048Y-121392857D01*
X134619048Y-121535714D01*
X134571429Y-121630952D01*
X134523810Y-121678571D01*
X134428572Y-121726190D01*
X134047619Y-121726190D01*
X135190476Y-122202381D02*
X135095238Y-122154762D01*
X135047619Y-122107143D01*
X135000000Y-122011905D01*
X135000000Y-121726190D01*
X135047619Y-121630952D01*
X135095238Y-121583333D01*
X135190476Y-121535714D01*
X135333334Y-121535714D01*
X135428572Y-121583333D01*
X135476191Y-121630952D01*
X135523810Y-121726190D01*
X135523810Y-122011905D01*
X135476191Y-122107143D01*
X135428572Y-122154762D01*
X135333334Y-122202381D01*
X135190476Y-122202381D01*
X135809524Y-121535714D02*
X136190476Y-121535714D01*
X135952381Y-121202381D02*
X135952381Y-122059524D01*
X136000000Y-122154762D01*
X136095238Y-122202381D01*
X136190476Y-122202381D01*
X121852381Y-53261905D02*
X122661905Y-53261905D01*
X122757143Y-53214286D01*
X122804762Y-53166667D01*
X122852381Y-53071429D01*
X122852381Y-52880952D01*
X122804762Y-52785714D01*
X122757143Y-52738095D01*
X122661905Y-52690476D01*
X121852381Y-52690476D01*
X122852381Y-51690476D02*
X122852381Y-52261905D01*
X122852381Y-51976191D02*
X121852381Y-51976191D01*
X121995238Y-52071429D01*
X122090476Y-52166667D01*
X122138095Y-52261905D01*
%LPC*%
D13*
X123000000Y-50000000D03*
D14*
X123000000Y-52500000D03*
D15*
X97500000Y-63000000D03*
X92500000Y-68000000D03*
X167500000Y-63000000D03*
X172500000Y-68000000D03*
X97500000Y-80500000D03*
X92500000Y-85500000D03*
X167500000Y-80500000D03*
X172500000Y-85500000D03*
X97500000Y-98000000D03*
X92500000Y-103000000D03*
X167500000Y-98000000D03*
X172500000Y-103000000D03*
X97500000Y-115500000D03*
X92500000Y-120500000D03*
X167500000Y-115500000D03*
X172500000Y-120500000D03*
D16*
X127500000Y-52500000D03*
D17*
X127500000Y-49960000D03*
X130040000Y-52500000D03*
X130040000Y-49960000D03*
X132580000Y-52500000D03*
X132580000Y-49960000D03*
X135120000Y-52500000D03*
X135120000Y-49960000D03*
X137660000Y-52500000D03*
X137660000Y-49960000D03*
D18*
X90000000Y-50000000D03*
X175000000Y-50000000D03*
X90000000Y-127500000D03*
X175000000Y-127500000D03*
M02*
